<?xml version="1.0" encoding="utf-8"?>
<!-- Generator: Adobe Illustrator 19.2.1, SVG Export Plug-In . SVG Version: 6.00 Build 0)  -->
<svg version="1.1" id="Ñëîé_1" xmlns="http://www.w3.org/2000/svg" xmlns:xlink="http://www.w3.org/1999/xlink" x="0px" y="0px"
	 viewBox="0 0 566.9 566.9" style="enable-background:new 0 0 566.9 566.9;" xml:space="preserve">
<style type="text/css">
	.st0{fill-rule:evenodd;clip-rule:evenodd;fill:#31373A;}
	.st1{opacity:0.1;fill-rule:evenodd;clip-rule:evenodd;fill:#68AAA2;}
</style>
<path class="st0" d="M377.6,0.9h189v566.5h-189V0.9L377.6,0.9z M-0.4,0.9h189h189v566.5h-189h-189V0.9L-0.4,0.9z"/>
<path class="st1" d="M425.7,248.5v46.3H472v-46.3H425.7L425.7,248.5z M47.7,248.5v46.3H94v-46.3H47.7L47.7,248.5z M142.2,389.3V343
	h46.3v46.3H142.2L142.2,389.3z M165.8,566.5v-22.7h22.7v22.7H165.8L165.8,566.5z M142.2,536.9v-10.9h10.9v10.9H142.2L142.2,536.9z
	 M95,566.5v-46.3h46.3v46.3H95L95,566.5z M154,531v-22.7h22.7V531H154L154,531z M148.1,566.5v-10.9H159v10.9H148.1L148.1,566.5z
	 M177.6,542.8v-5h5v5H177.6L177.6,542.8z M118.6,389.3v-22.7h22.7v22.7H118.6L118.6,389.3z M95,424.7v-10.9h10.9v10.9H95L95,424.7z
	 M142.2,554.6v-5h5v5H142.2L142.2,554.6z M106.8,519.2v-22.7h22.7v22.7H106.8L106.8,519.2z M142.2,525.1v-10.9h10.9v10.9H142.2
	L142.2,525.1z M142.2,560.6v-5h5v5H142.2L142.2,560.6z M95,389.3v-22.7h22.7v22.7H95L95,389.3z M148.1,554.6v-5h5v5H148.1
	L148.1,554.6z M95,495.6v-22.7h22.7v22.7H95L95,495.6z M118.6,495.6v-10.9h10.9v10.9H118.6L118.6,495.6z M154,554.6v-5h5v5H154
	L154,554.6z M177.6,525.1v-10.9h10.9v10.9H177.6L177.6,525.1z M177.6,513.3v-10.9h10.9v10.9H177.6L177.6,513.3z M159.9,554.6v-5h5v5
	H159.9L159.9,554.6z M165.8,542.8V532h10.9v10.9H165.8L165.8,542.8z M177.6,536.9v-10.9h10.9v10.9H177.6L177.6,536.9z M159.9,560.6
	v-5h5v5H159.9L159.9,560.6z M183.5,542.8v-5h5v5H183.5L183.5,542.8z M159.9,536.9v-5h5v5H159.9L159.9,536.9z M159.9,548.7v-5h5v5
	H159.9L159.9,548.7z M142.2,566.5v-5h5v5H142.2L142.2,566.5z M159.9,566.5v-5h5v5H159.9L159.9,566.5z M159.9,542.8v-5h5v5H159.9
	L159.9,542.8z M106.8,460.2v-46.3h46.3v46.3H106.8L106.8,460.2z M154,436.5v-22.7h22.7v22.7H154L154,436.5z M95,519.2v-10.9h10.9
	v10.9H95L95,519.2z M154,536.9v-5h5v5H154L154,536.9z M130.4,507.4v-46.3h46.3v46.3H130.4L130.4,507.4z M165.8,412.9v-22.7h22.7
	v22.7H165.8L165.8,412.9z M154,460.2v-10.9h10.9v10.9H154L154,460.2z M165.8,342v-22.7h22.7V342H165.8L165.8,342z M154,448.3v-10.9
	h10.9v10.9H154L154,448.3z M95,430.6v-5h5v5H95L95,430.6z M165.8,460.2v-22.7h22.7v22.7H165.8L165.8,460.2z M95,472v-10.9h10.9V472
	H95L95,472z M142.2,412.9v-22.7h22.7v22.7H142.2L142.2,412.9z M95,454.3v-10.9h10.9v10.9H95L95,454.3z M100.9,365.7v-5h5v5H100.9
	L100.9,365.7z M95,412.9v-22.7h22.7v22.7H95L95,412.9z M95,442.4v-10.9h10.9v10.9H95L95,442.4z M106.8,365.7v-5h5v5H106.8
	L106.8,365.7z M142.2,548.7v-10.9h10.9v10.9H142.2L142.2,548.7z M154,548.7v-5h5v5H154L154,548.7z M177.6,495.6v-10.9h10.9v10.9
	H177.6L177.6,495.6z M118.6,477.9v-5h5v5H118.6L118.6,477.9z M130.4,519.2v-10.9h10.9v10.9H130.4L130.4,519.2z M154,542.8v-5h5v5
	H154L154,542.8z M95,507.4v-10.9h10.9v10.9H95L95,507.4z M124.5,477.9v-5h5v5H124.5L124.5,477.9z M177.6,483.8v-10.9h10.9v10.9
	H177.6L177.6,483.8z M95,460.2v-5h5v5H95L95,460.2z M118.6,472v-10.9h10.9V472H118.6L118.6,472z M100.9,430.6v-5h5v5H100.9
	L100.9,430.6z M177.6,472v-10.9h10.9V472H177.6L177.6,472z M100.9,460.2v-5h5v5H100.9L100.9,460.2z M106.8,472v-10.9h10.9V472H106.8
	L106.8,472z M124.5,483.8v-5h5v5H124.5L124.5,483.8z M142.2,513.3v-5h5v5H142.2L142.2,513.3z M183.5,501.5v-5h5v5H183.5L183.5,501.5
	z M148.1,513.3v-5h5v5H148.1L148.1,513.3z M118.6,483.8v-5h5v5H118.6L118.6,483.8z M177.6,501.5v-5h5v5H177.6L177.6,501.5z
	 M130.4,412.9v-5h5v5H130.4L130.4,412.9z M130.4,407v-10.9h10.9V407H130.4L130.4,407z M136.3,412.9v-5h5v5H136.3L136.3,412.9z
	 M130.4,395.2v-5h5v5H130.4L130.4,395.2z M136.3,395.2v-5h5v5H136.3L136.3,395.2z M118.6,342v-22.7h22.7V342H118.6L118.6,342z
	 M112.7,330.2v-5h5v5H112.7L112.7,330.2z M112.7,336.1v-5h5v5H112.7L112.7,336.1z M112.7,324.3v-5h5v5H112.7L112.7,324.3z
	 M112.7,342v-5h5v5H112.7L112.7,342z M124.5,401.1v-5h5v5H124.5L124.5,401.1z M124.5,407v-5h5v5H124.5L124.5,407z M124.5,395.2v-5h5
	v5H124.5L124.5,395.2z M124.5,412.9v-5h5v5H124.5L124.5,412.9z M118.6,401.1v-5h5v5H118.6L118.6,401.1z M118.6,407v-5h5v5H118.6
	L118.6,407z M118.6,395.2v-5h5v5H118.6L118.6,395.2z M118.6,412.9v-5h5v5H118.6L118.6,412.9z M154,342v-10.9h10.9V342H154L154,342z
	 M154,330.2v-10.9h10.9v10.9H154L154,330.2z M100.9,353.9V343h10.9v10.9H100.9L100.9,353.9z M100.9,342v-10.9h10.9V342H100.9
	L100.9,342z M100.9,330.2v-10.9h10.9v10.9H100.9L100.9,330.2z M106.8,359.8v-5h5v5H106.8L106.8,359.8z M100.9,359.8v-5h5v5H100.9
	L100.9,359.8z M95,353.9v-5h5v5H95L95,353.9z M95,359.8v-5h5v5H95L95,359.8z M95,348v-5h5v5H95L95,348z M95,365.7v-5h5v5H95
	L95,365.7z M95,330.2v-5h5v5H95L95,330.2z M95,336.1v-5h5v5H95L95,336.1z M95,324.3v-5h5v5H95L95,324.3z M95,342v-5h5v5H95L95,342z
	 M142.2,342v-10.9h10.9V342H142.2L142.2,342z M142.2,330.2v-10.9h10.9v10.9H142.2L142.2,330.2z M141.3,353.9h-5v-5h5V353.9
	L141.3,353.9z M141.3,359.8h-5v-5h5V359.8L141.3,359.8z M141.3,348h-5v-5h5V348L141.3,348z M141.3,365.7h-5v-5h5V365.7L141.3,365.7z
	 M112.7,365.7V343h22.7v22.7H112.7L112.7,365.7z M177.6,436.5v-10.9h10.9v10.9H177.6L177.6,436.5z M177.6,424.7v-10.9h10.9v10.9
	H177.6L177.6,424.7z M189,0H94.5H0v318.9v248h189h189v-248V0h-94.5H189L189,0z M71.3,390.2v22.7H94v-22.7H71.3L71.3,390.2z
	 M47.7,419.8v10.9h10.9v-10.9H47.7L47.7,419.8z M0.5,390.2v46.3h46.3v-46.3H0.5L0.5,390.2z M59.5,425.7v22.7h22.7v-22.7H59.5
	L59.5,425.7z M53.6,390.2v10.9h10.9v-10.9H53.6L53.6,390.2z M83.1,413.9v5h5v-5H83.1L83.1,413.9z M0.5,319.4v46.3h46.3v-46.3H0.5
	L0.5,319.4z M0.5,366.6v22.7h22.7v-22.7H0.5L0.5,366.6z M47.7,319.4v10.9h10.9v-10.9H47.7L47.7,319.4z M59.5,319.4v5h5v-5H59.5
	L59.5,319.4z M47.7,343v46.3H94V343H47.7L47.7,343z M71.3,319.4V342H94v-22.7H71.3L71.3,319.4z M24.1,366.6v10.9H35v-10.9H24.1
	L24.1,366.6z M65.4,337.1v5h5v-5H65.4L65.4,337.1z M0.5,532v10.9h10.9V532H0.5L0.5,532z M47.7,402v5h5v-5H47.7L47.7,402z
	 M12.3,437.5v22.7H35v-22.7H12.3L12.3,437.5z M47.7,431.6v10.9h10.9v-10.9H47.7L47.7,431.6z M47.7,396.1v5h5v-5H47.7L47.7,396.1z
	 M53.6,402v5h5v-5H53.6L53.6,402z M0.5,461.1v22.7h22.7v-22.7H0.5L0.5,461.1z M24.1,461.1V472H35v-10.9H24.1L24.1,461.1z M59.5,402
	v5h5v-5H59.5L59.5,402z M53.6,331.2V342h10.9v-10.9H53.6L53.6,331.2z M47.7,331.2v5h5v-5H47.7L47.7,331.2z M24.1,378.4v10.9H35
	v-10.9H24.1L24.1,378.4z M47.7,337.1v5h5v-5H47.7L47.7,337.1z M35.9,366.6v10.9h10.9v-10.9H35.9L35.9,366.6z M59.5,325.3v5h5v-5
	H59.5L59.5,325.3z M35.9,378.4v10.9h10.9v-10.9H35.9L35.9,378.4z M65.4,319.4v5h5v-5H65.4L65.4,319.4z M83.1,431.6v10.9H94v-10.9
	H83.1L83.1,431.6z M65.4,331.2v5h5v-5H65.4L65.4,331.2z M83.1,443.4v10.9H94v-10.9H83.1L83.1,443.4z M65.4,402v5h5v-5H65.4L65.4,402
	z M71.3,413.9v10.9h10.9v-10.9H71.3L71.3,413.9z M65.4,325.3v5h5v-5H65.4L65.4,325.3z M83.1,419.8v10.9H94v-10.9H83.1L83.1,419.8z
	 M65.4,396.1v5h5v-5H65.4L65.4,396.1z M89.1,413.9v5h5v-5H89.1L89.1,413.9z M65.4,419.8v5h5v-5H65.4L65.4,419.8z M65.4,408v5h5v-5
	H65.4L65.4,408z M47.7,390.2v5h5v-5H47.7L47.7,390.2z M65.4,390.2v5h5v-5H65.4L65.4,390.2z M65.4,413.9v5h5v-5H65.4L65.4,413.9z
	 M12.3,496.5v46.3h46.3v-46.3H12.3L12.3,496.5z M59.5,520.2v22.7h22.7v-22.7H59.5L59.5,520.2z M0.5,437.5v10.9h10.9v-10.9H0.5
	L0.5,437.5z M59.5,419.8v5h5v-5H59.5L59.5,419.8z M35.9,449.3v46.3h46.3v-46.3H35.9L35.9,449.3z M71.3,543.8v22.7H94v-22.7H71.3
	L71.3,543.8z M59.5,496.5v10.9h10.9v-10.9H59.5L59.5,496.5z M59.5,508.3v10.9h10.9v-10.9H59.5L59.5,508.3z M0.5,526.1v5h5v-5H0.5
	L0.5,526.1z M71.3,496.5v22.7H94v-22.7H71.3L71.3,496.5z M0.5,484.7v10.9h10.9v-10.9H0.5L0.5,484.7z M47.7,543.8v22.7h22.7v-22.7
	H47.7L47.7,543.8z M0.5,502.4v10.9h10.9v-10.9H0.5L0.5,502.4z M0.5,543.8v22.7h22.7v-22.7H0.5L0.5,543.8z M0.5,514.3v10.9h10.9
	v-10.9H0.5L0.5,514.3z M47.7,408v10.9h10.9V408H47.7L47.7,408z M59.5,408v5h5v-5H59.5L59.5,408z M83.1,461.1V472H94v-10.9H83.1
	L83.1,461.1z M24.1,478.8v5h5v-5H24.1L24.1,478.8z M35.9,437.5v10.9h10.9v-10.9H35.9L35.9,437.5z M59.5,413.9v5h5v-5H59.5
	L59.5,413.9z M0.5,449.3v10.9h10.9v-10.9H0.5L0.5,449.3z M30,478.8v5h5v-5H30L30,478.8z M83.1,472.9v10.9H94v-10.9H83.1L83.1,472.9z
	 M0.5,496.5v5h5v-5H0.5L0.5,496.5z M24.1,484.7v10.9H35v-10.9H24.1L24.1,484.7z M6.4,526.1v5h5v-5H6.4L6.4,526.1z M83.1,484.7v10.9
	H94v-10.9H83.1L83.1,484.7z M6.4,496.5v5h5v-5H6.4L6.4,496.5z M12.3,484.7v10.9h10.9v-10.9H12.3L12.3,484.7z M30,472.9v5h5v-5H30
	L30,472.9z M47.7,443.4v5h5v-5H47.7L47.7,443.4z M89.1,455.2v5h5v-5H89.1L89.1,455.2z M53.6,443.4v5h5v-5H53.6L53.6,443.4z
	 M24.1,472.9v5h5v-5H24.1L24.1,472.9z M83.1,455.2v5h5v-5H83.1L83.1,455.2z M35.9,543.8v5h5v-5H35.9L35.9,543.8z M35.9,549.7v10.9
	h10.9v-10.9H35.9L35.9,549.7z M41.8,543.8v5h5v-5H41.8L41.8,543.8z M35.9,561.5v5h5v-5H35.9L35.9,561.5z M41.8,561.5v5h5v-5H41.8
	L41.8,561.5z M30,555.6v5h5v-5H30L30,555.6z M30,549.7v5h5v-5H30L30,549.7z M30,561.5v5h5v-5H30L30,561.5z M30,543.8v5h5v-5H30
	L30,543.8z M24.1,555.6v5h5v-5H24.1L24.1,555.6z M24.1,549.7v5h5v-5H24.1L24.1,549.7z M24.1,561.5v5h5v-5H24.1L24.1,561.5z
	 M24.1,543.8v5h5v-5H24.1L24.1,543.8z M83.1,520.2V531H94v-10.9H83.1L83.1,520.2z M83.1,532v10.9H94V532H83.1L83.1,532z M142.2,70.4
	V24.1h46.3v46.3H142.2L142.2,70.4z M165.8,247.6v-22.7h22.7v22.7H165.8L165.8,247.6z M142.2,218v-10.9h10.9V218H142.2L142.2,218z
	 M95,247.6v-46.3h46.3v46.3H95L95,247.6z M154,212.1v-22.7h22.7v22.7H154L154,212.1z M148.1,247.6v-10.9H159v10.9H148.1L148.1,247.6
	z M177.6,223.9v-5h5v5H177.6L177.6,223.9z M95,318.4v-46.3h46.3v46.3H95L95,318.4z M95,271.2v-22.7h22.7v22.7H95L95,271.2z
	 M142.2,318.4v-10.9h10.9v10.9H142.2L142.2,318.4z M154,318.4v-5h5v5H154L154,318.4z M142.2,294.8v-46.3h46.3v46.3H142.2
	L142.2,294.8z M165.8,318.4v-22.7h22.7v22.7H165.8L165.8,318.4z M118.6,271.2v-10.9h10.9v10.9H118.6L118.6,271.2z M159.9,300.7v-5h5
	v5H159.9L159.9,300.7z M118.6,70.4V47.7h22.7v22.7H118.6L118.6,70.4z M95,105.8V95h10.9v10.9H95L95,105.8z M142.2,235.7v-5h5v5
	H142.2L142.2,235.7z M106.8,200.3v-22.7h22.7v22.7H106.8L106.8,200.3z M142.2,206.2v-10.9h10.9v10.9H142.2L142.2,206.2z
	 M142.2,241.7v-5h5v5H142.2L142.2,241.7z M95,70.4V47.7h22.7v22.7H95L95,70.4z M148.1,235.7v-5h5v5H148.1L148.1,235.7z M95,176.7
	V154h22.7v22.7H95L95,176.7z M118.6,176.7v-10.9h10.9v10.9H118.6L118.6,176.7z M154,235.7v-5h5v5H154L154,235.7z M148.1,306.6v-10.9
	H159v10.9H148.1L148.1,306.6z M142.2,306.6v-5h5v5H142.2L142.2,306.6z M118.6,259.4v-10.9h10.9v10.9H118.6L118.6,259.4z
	 M142.2,300.7v-5h5v5H142.2L142.2,300.7z M130.4,271.2v-10.9h10.9v10.9H130.4L130.4,271.2z M154,312.5v-5h5v5H154L154,312.5z
	 M130.4,259.4v-10.9h10.9v10.9H130.4L130.4,259.4z M159.9,318.4v-5h5v5H159.9L159.9,318.4z M177.6,206.2v-10.9h10.9v10.9H177.6
	L177.6,206.2z M159.9,306.6v-5h5v5H159.9L159.9,306.6z M177.6,194.4v-10.9h10.9v10.9H177.6L177.6,194.4z M159.9,235.7v-5h5v5H159.9
	L159.9,235.7z M165.8,223.9v-10.9h10.9v10.9H165.8L165.8,223.9z M159.9,312.5v-5h5v5H159.9L159.9,312.5z M177.6,218v-10.9h10.9V218
	H177.6L177.6,218z M159.9,241.7v-5h5v5H159.9L159.9,241.7z M183.5,223.9v-5h5v5H183.5L183.5,223.9z M159.9,218v-5h5v5H159.9
	L159.9,218z M159.9,229.8v-5h5v5H159.9L159.9,229.8z M142.2,247.6v-5h5v5H142.2L142.2,247.6z M159.9,247.6v-5h5v5H159.9L159.9,247.6
	z M159.9,223.9v-5h5v5H159.9L159.9,223.9z M106.8,141.3V95h46.3v46.3H106.8L106.8,141.3z M154,117.6V95h22.7v22.7H154L154,117.6z
	 M95,200.3v-10.9h10.9v10.9H95L95,200.3z M154,218v-5h5v5H154L154,218z M130.4,188.5v-46.3h46.3v46.3H130.4L130.4,188.5z M165.8,94
	V71.3h22.7V94H165.8L165.8,94z M154,141.3v-10.9h10.9v10.9H154L154,141.3z M165.8,23.1V0.5h22.7v22.7H165.8L165.8,23.1z M154,129.4
	v-10.9h10.9v10.9H154L154,129.4z M95,111.7v-5h5v5H95L95,111.7z M165.8,141.3v-22.7h22.7v22.7H165.8L165.8,141.3z M95,153.1v-10.9
	h10.9v10.9H95L95,153.1z M142.2,94V71.3h22.7V94H142.2L142.2,94z M95,135.4v-10.9h10.9v10.9H95L95,135.4z M100.9,46.8v-5h5v5H100.9
	L100.9,46.8z M95,94V71.3h22.7V94H95L95,94z M95,123.5v-10.9h10.9v10.9H95L95,123.5z M106.8,46.8v-5h5v5H106.8L106.8,46.8z
	 M142.2,229.8V219h10.9v10.9H142.2L142.2,229.8z M154,229.8v-5h5v5H154L154,229.8z M177.6,176.7v-10.9h10.9v10.9H177.6L177.6,176.7z
	 M118.6,159v-5h5v5H118.6L118.6,159z M130.4,200.3v-10.9h10.9v10.9H130.4L130.4,200.3z M154,223.9v-5h5v5H154L154,223.9z M95,188.5
	v-10.9h10.9v10.9H95L95,188.5z M124.5,159v-5h5v5H124.5L124.5,159z M177.6,164.9V154h10.9v10.9H177.6L177.6,164.9z M95,141.3v-5h5v5
	H95L95,141.3z M118.6,153.1v-10.9h10.9v10.9H118.6L118.6,153.1z M100.9,111.7v-5h5v5H100.9L100.9,111.7z M177.6,153.1v-10.9h10.9
	v10.9H177.6L177.6,153.1z M100.9,141.3v-5h5v5H100.9L100.9,141.3z M106.8,153.1v-10.9h10.9v10.9H106.8L106.8,153.1z M124.5,164.9v-5
	h5v5H124.5L124.5,164.9z M142.2,194.4v-5h5v5H142.2L142.2,194.4z M183.5,182.6v-5h5v5H183.5L183.5,182.6z M148.1,194.4v-5h5v5H148.1
	L148.1,194.4z M118.6,164.9v-5h5v5H118.6L118.6,164.9z M177.6,182.6v-5h5v5H177.6L177.6,182.6z M130.4,94v-5h5v5H130.4L130.4,94z
	 M130.4,88.1V77.2h10.9v10.9H130.4L130.4,88.1z M136.3,94v-5h5v5H136.3L136.3,94z M130.4,76.3v-5h5v5H130.4L130.4,76.3z M136.3,76.3
	v-5h5v5H136.3L136.3,76.3z M118.6,23.1V0.5h22.7v22.7H118.6L118.6,23.1z M112.7,11.3v-5h5v5H112.7L112.7,11.3z M112.7,17.2v-5h5v5
	H112.7L112.7,17.2z M112.7,5.4v-5h5v5H112.7L112.7,5.4z M112.7,23.1v-5h5v5H112.7L112.7,23.1z M124.5,82.2v-5h5v5H124.5L124.5,82.2z
	 M124.5,88.1v-5h5v5H124.5L124.5,88.1z M124.5,76.3v-5h5v5H124.5L124.5,76.3z M124.5,94v-5h5v5H124.5L124.5,94z M118.6,82.2v-5h5v5
	H118.6L118.6,82.2z M118.6,88.1v-5h5v5H118.6L118.6,88.1z M118.6,76.3v-5h5v5H118.6L118.6,76.3z M118.6,94v-5h5v5H118.6L118.6,94z
	 M154,23.1V12.3h10.9v10.9H154L154,23.1z M154,11.3V0.5h10.9v10.9H154L154,11.3z M100.9,35V24.1h10.9V35H100.9L100.9,35z
	 M100.9,23.1V12.3h10.9v10.9H100.9L100.9,23.1z M100.9,11.3V0.5h10.9v10.9H100.9L100.9,11.3z M106.8,40.9v-5h5v5H106.8L106.8,40.9z
	 M100.9,40.9v-5h5v5H100.9L100.9,40.9z M95,35v-5h5v5H95L95,35z M95,40.9v-5h5v5H95L95,40.9z M95,29.1v-5h5v5H95L95,29.1z M95,46.8
	v-5h5v5H95L95,46.8z M95,11.3v-5h5v5H95L95,11.3z M95,17.2v-5h5v5H95L95,17.2z M95,5.4v-5h5v5H95L95,5.4z M95,23.1v-5h5v5H95
	L95,23.1z M142.2,23.1V12.3h10.9v10.9H142.2L142.2,23.1z M142.2,11.3V0.5h10.9v10.9H142.2L142.2,11.3z M141.3,35h-5v-5h5V35
	L141.3,35z M141.3,40.9h-5v-5h5V40.9L141.3,40.9z M141.3,29.1h-5v-5h5V29.1L141.3,29.1z M141.3,46.8h-5v-5h5V46.8L141.3,46.8z
	 M112.7,46.8V24.1h22.7v22.7H112.7L112.7,46.8z M177.6,117.6v-10.9h10.9v10.9H177.6L177.6,117.6z M177.6,105.8V95h10.9v10.9H177.6
	L177.6,105.8z M71.3,71.3V94H94V71.3H71.3L71.3,71.3z M47.7,100.9v10.9h10.9v-10.9H47.7L47.7,100.9z M0.5,71.3v46.3h46.3V71.3H0.5
	L0.5,71.3z M59.5,106.8v22.7h22.7v-22.7H59.5L59.5,106.8z M53.6,71.3v10.9h10.9V71.3H53.6L53.6,71.3z M83.1,95v5h5v-5H83.1L83.1,95z
	 M0.5,0.5v46.3h46.3V0.5H0.5L0.5,0.5z M0.5,47.7v22.7h22.7V47.7H0.5L0.5,47.7z M47.7,0.5v10.9h10.9V0.5H47.7L47.7,0.5z M59.5,0.5v5
	h5v-5H59.5L59.5,0.5z M47.7,24.1v46.3H94V24.1H47.7L47.7,24.1z M71.3,0.5v22.7H94V0.5H71.3L71.3,0.5z M24.1,47.7v10.9H35V47.7H24.1
	L24.1,47.7z M65.4,18.2v5h5v-5H65.4L65.4,18.2z M24.1,248.5v22.7h22.7v-22.7H24.1L24.1,248.5z M0.5,213.1v10.9h10.9v-10.9H0.5
	L0.5,213.1z M47.7,83.1v5h5v-5H47.7L47.7,83.1z M12.3,118.6v22.7H35v-22.7H12.3L12.3,118.6z M47.7,112.7v10.9h10.9v-10.9H47.7
	L47.7,112.7z M47.7,77.2v5h5v-5H47.7L47.7,77.2z M0.5,248.5v22.7h22.7v-22.7H0.5L0.5,248.5z M53.6,83.1v5h5v-5H53.6L53.6,83.1z
	 M0.5,142.2v22.7h22.7v-22.7H0.5L0.5,142.2z M24.1,142.2v10.9H35v-10.9H24.1L24.1,142.2z M59.5,83.1v5h5v-5H59.5L59.5,83.1z
	 M53.6,12.3v10.9h10.9V12.3H53.6L53.6,12.3z M47.7,12.3v5h5v-5H47.7L47.7,12.3z M24.1,59.5v10.9H35V59.5H24.1L24.1,59.5z M47.7,18.2
	v5h5v-5H47.7L47.7,18.2z M35.9,47.7v10.9h10.9V47.7H35.9L35.9,47.7z M59.5,6.4v5h5v-5H59.5L59.5,6.4z M35.9,59.5v10.9h10.9V59.5
	H35.9L35.9,59.5z M65.4,0.5v5h5v-5H65.4L65.4,0.5z M83.1,112.7v10.9H94v-10.9H83.1L83.1,112.7z M65.4,12.3v5h5v-5H65.4L65.4,12.3z
	 M83.1,124.5v10.9H94v-10.9H83.1L83.1,124.5z M65.4,83.1v5h5v-5H65.4L65.4,83.1z M71.3,95v10.9h10.9V95H71.3L71.3,95z M65.4,6.4v5h5
	v-5H65.4L65.4,6.4z M83.1,100.9v10.9H94v-10.9H83.1L83.1,100.9z M65.4,77.2v5h5v-5H65.4L65.4,77.2z M89.1,95v5h5v-5H89.1L89.1,95z
	 M65.4,100.9v5h5v-5H65.4L65.4,100.9z M65.4,89.1v5h5v-5H65.4L65.4,89.1z M47.7,71.3v5h5v-5H47.7L47.7,71.3z M65.4,71.3v5h5v-5H65.4
	L65.4,71.3z M65.4,95v5h5v-5H65.4L65.4,95z M12.3,177.6v46.3h46.3v-46.3H12.3L12.3,177.6z M59.5,201.3v22.7h22.7v-22.7H59.5
	L59.5,201.3z M0.5,118.6v10.9h10.9v-10.9H0.5L0.5,118.6z M59.5,100.9v5h5v-5H59.5L59.5,100.9z M35.9,130.4v46.3h46.3v-46.3H35.9
	L35.9,130.4z M71.3,224.9v22.7H94v-22.7H71.3L71.3,224.9z M59.5,177.6v10.9h10.9v-10.9H59.5L59.5,177.6z M71.3,295.7v22.7H94v-22.7
	H71.3L71.3,295.7z M59.5,189.4v10.9h10.9v-10.9H59.5L59.5,189.4z M0.5,207.2v5h5v-5H0.5L0.5,207.2z M71.3,177.6v22.7H94v-22.7H71.3
	L71.3,177.6z M0.5,165.8v10.9h10.9v-10.9H0.5L0.5,165.8z M47.7,224.9v22.7h22.7v-22.7H47.7L47.7,224.9z M0.5,183.5v10.9h10.9v-10.9
	H0.5L0.5,183.5z M6.4,272.1v5h5v-5H6.4L6.4,272.1z M0.5,224.9v22.7h22.7v-22.7H0.5L0.5,224.9z M0.5,195.4v10.9h10.9v-10.9H0.5
	L0.5,195.4z M12.3,272.1v5h5v-5H12.3L12.3,272.1z M47.7,89.1v10.9h10.9V89.1H47.7L47.7,89.1z M59.5,89.1v5h5v-5H59.5L59.5,89.1z
	 M83.1,142.2v10.9H94v-10.9H83.1L83.1,142.2z M24.1,159.9v5h5v-5H24.1L24.1,159.9z M35.9,118.6v10.9h10.9v-10.9H35.9L35.9,118.6z
	 M59.5,95v5h5v-5H59.5L59.5,95z M0.5,130.4v10.9h10.9v-10.9H0.5L0.5,130.4z M30,159.9v5h5v-5H30L30,159.9z M83.1,154v10.9H94V154
	H83.1L83.1,154z M0.5,177.6v5h5v-5H0.5L0.5,177.6z M24.1,165.8v10.9H35v-10.9H24.1L24.1,165.8z M6.4,207.2v5h5v-5H6.4L6.4,207.2z
	 M83.1,165.8v10.9H94v-10.9H83.1L83.1,165.8z M6.4,177.6v5h5v-5H6.4L6.4,177.6z M12.3,165.8v10.9h10.9v-10.9H12.3L12.3,165.8z
	 M30,154v5h5v-5H30L30,154z M47.7,124.5v5h5v-5H47.7L47.7,124.5z M89.1,136.3v5h5v-5H89.1L89.1,136.3z M53.6,124.5v5h5v-5H53.6
	L53.6,124.5z M24.1,154v5h5v-5H24.1L24.1,154z M83.1,136.3v5h5v-5H83.1L83.1,136.3z M35.9,224.9v5h5v-5H35.9L35.9,224.9z
	 M35.9,230.8v10.9h10.9v-10.9H35.9L35.9,230.8z M41.8,224.9v5h5v-5H41.8L41.8,224.9z M35.9,242.6v5h5v-5H35.9L35.9,242.6z
	 M41.8,242.6v5h5v-5H41.8L41.8,242.6z M24.1,295.7v22.7h22.7v-22.7H24.1L24.1,295.7z M18.2,307.6v5h5v-5H18.2L18.2,307.6z
	 M18.2,301.7v5h5v-5H18.2L18.2,301.7z M18.2,313.5v5h5v-5H18.2L18.2,313.5z M18.2,295.7v5h5v-5H18.2L18.2,295.7z M30,236.7v5h5v-5
	H30L30,236.7z M30,230.8v5h5v-5H30L30,230.8z M30,242.6v5h5v-5H30L30,242.6z M30,224.9v5h5v-5H30L30,224.9z M24.1,236.7v5h5v-5H24.1
	L24.1,236.7z M24.1,230.8v5h5v-5H24.1L24.1,230.8z M24.1,242.6v5h5v-5H24.1L24.1,242.6z M24.1,224.9v5h5v-5H24.1L24.1,224.9z
	 M59.5,295.7v10.9h10.9v-10.9H59.5L59.5,295.7z M59.5,307.6v10.9h10.9v-10.9H59.5L59.5,307.6z M6.4,283.9v10.9h10.9v-10.9H6.4
	L6.4,283.9z M6.4,295.7v10.9h10.9v-10.9H6.4L6.4,295.7z M6.4,307.6v10.9h10.9v-10.9H6.4L6.4,307.6z M12.3,278v5h5v-5H12.3L12.3,278z
	 M6.4,278v5h5v-5H6.4L6.4,278z M0.5,283.9v5h5v-5H0.5L0.5,283.9z M0.5,278v5h5v-5H0.5L0.5,278z M0.5,289.8v5h5v-5H0.5L0.5,289.8z
	 M0.5,272.1v5h5v-5H0.5L0.5,272.1z M0.5,307.6v5h5v-5H0.5L0.5,307.6z M0.5,301.7v5h5v-5H0.5L0.5,301.7z M0.5,313.5v5h5v-5H0.5
	L0.5,313.5z M0.5,295.7v5h5v-5H0.5L0.5,295.7z M47.7,295.7v10.9h10.9v-10.9H47.7L47.7,295.7z M47.7,307.6v10.9h10.9v-10.9H47.7
	L47.7,307.6z M46.8,283.9h-5v5h5V283.9L46.8,283.9z M46.8,278h-5v5h5V278L46.8,278z M46.8,289.8h-5v5h5V289.8L46.8,289.8z
	 M46.8,272.1h-5v5h5V272.1L46.8,272.1z M18.2,272.1v22.7h22.7v-22.7H18.2L18.2,272.1z M83.1,201.3v10.9H94v-10.9H83.1L83.1,201.3z
	 M83.1,213.1v10.9H94v-10.9H83.1L83.1,213.1z M236.7,248.5v46.3H283v-46.3H236.7L236.7,248.5z M331.2,389.3V343h46.3v46.3H331.2
	L331.2,389.3z M354.8,566.5v-22.7h22.7v22.7H354.8L354.8,566.5z M331.2,536.9v-10.9H342v10.9H331.2L331.2,536.9z M283.9,566.5v-46.3
	h46.3v46.3H283.9L283.9,566.5z M343,531v-22.7h22.7V531H343L343,531z M337.1,566.5v-10.9H348v10.9H337.1L337.1,566.5z M366.6,542.8
	v-5h5v5H366.6L366.6,542.8z M307.6,389.3v-22.7h22.7v22.7H307.6L307.6,389.3z M283.9,424.7v-10.9h10.9v10.9H283.9L283.9,424.7z
	 M331.2,554.6v-5h5v5H331.2L331.2,554.6z M295.7,519.2v-22.7h22.7v22.7H295.7L295.7,519.2z M331.2,525.1v-10.9H342v10.9H331.2
	L331.2,525.1z M331.2,560.6v-5h5v5H331.2L331.2,560.6z M283.9,389.3v-22.7h22.7v22.7H283.9L283.9,389.3z M337.1,554.6v-5h5v5H337.1
	L337.1,554.6z M283.9,495.6v-22.7h22.7v22.7H283.9L283.9,495.6z M307.6,495.6v-10.9h10.9v10.9H307.6L307.6,495.6z M343,554.6v-5h5v5
	H343L343,554.6z M366.6,525.1v-10.9h10.9v10.9H366.6L366.6,525.1z M366.6,513.3v-10.9h10.9v10.9H366.6L366.6,513.3z M348.9,554.6v-5
	h5v5H348.9L348.9,554.6z M354.8,542.8V532h10.9v10.9H354.8L354.8,542.8z M366.6,536.9v-10.9h10.9v10.9H366.6L366.6,536.9z
	 M348.9,560.6v-5h5v5H348.9L348.9,560.6z M372.5,542.8v-5h5v5H372.5L372.5,542.8z M348.9,536.9v-5h5v5H348.9L348.9,536.9z
	 M348.9,548.7v-5h5v5H348.9L348.9,548.7z M331.2,566.5v-5h5v5H331.2L331.2,566.5z M348.9,566.5v-5h5v5H348.9L348.9,566.5z
	 M348.9,542.8v-5h5v5H348.9L348.9,542.8z M295.7,460.2v-46.3H342v46.3H295.7L295.7,460.2z M343,436.5v-22.7h22.7v22.7H343L343,436.5
	z M283.9,519.2v-10.9h10.9v10.9H283.9L283.9,519.2z M343,536.9v-5h5v5H343L343,536.9z M319.4,507.4v-46.3h46.3v46.3H319.4
	L319.4,507.4z M354.8,412.9v-22.7h22.7v22.7H354.8L354.8,412.9z M343,460.2v-10.9h10.9v10.9H343L343,460.2z M354.8,342v-22.7h22.7
	V342H354.8L354.8,342z M343,448.3v-10.9h10.9v10.9H343L343,448.3z M283.9,430.6v-5h5v5H283.9L283.9,430.6z M354.8,460.2v-22.7h22.7
	v22.7H354.8L354.8,460.2z M283.9,472v-10.9h10.9V472H283.9L283.9,472z M331.2,412.9v-22.7h22.7v22.7H331.2L331.2,412.9z
	 M283.9,454.3v-10.9h10.9v10.9H283.9L283.9,454.3z M289.8,365.7v-5h5v5H289.8L289.8,365.7z M283.9,412.9v-22.7h22.7v22.7H283.9
	L283.9,412.9z M283.9,442.4v-10.9h10.9v10.9H283.9L283.9,442.4z M295.7,365.7v-5h5v5H295.7L295.7,365.7z M331.2,548.7v-10.9H342
	v10.9H331.2L331.2,548.7z M343,548.7v-5h5v5H343L343,548.7z M366.6,495.6v-10.9h10.9v10.9H366.6L366.6,495.6z M307.6,477.9v-5h5v5
	H307.6L307.6,477.9z M319.4,519.2v-10.9h10.9v10.9H319.4L319.4,519.2z M343,542.8v-5h5v5H343L343,542.8z M283.9,507.4v-10.9h10.9
	v10.9H283.9L283.9,507.4z M313.5,477.9v-5h5v5H313.5L313.5,477.9z M366.6,483.8v-10.9h10.9v10.9H366.6L366.6,483.8z M283.9,460.2v-5
	h5v5H283.9L283.9,460.2z M307.6,472v-10.9h10.9V472H307.6L307.6,472z M289.8,430.6v-5h5v5H289.8L289.8,430.6z M366.6,472v-10.9h10.9
	V472H366.6L366.6,472z M289.8,460.2v-5h5v5H289.8L289.8,460.2z M295.7,472v-10.9h10.9V472H295.7L295.7,472z M313.5,483.8v-5h5v5
	H313.5L313.5,483.8z M331.2,513.3v-5h5v5H331.2L331.2,513.3z M372.5,501.5v-5h5v5H372.5L372.5,501.5z M337.1,513.3v-5h5v5H337.1
	L337.1,513.3z M307.6,483.8v-5h5v5H307.6L307.6,483.8z M366.6,501.5v-5h5v5H366.6L366.6,501.5z M319.4,412.9v-5h5v5H319.4
	L319.4,412.9z M319.4,407v-10.9h10.9V407H319.4L319.4,407z M325.3,412.9v-5h5v5H325.3L325.3,412.9z M319.4,395.2v-5h5v5H319.4
	L319.4,395.2z M325.3,395.2v-5h5v5H325.3L325.3,395.2z M307.6,342v-22.7h22.7V342H307.6L307.6,342z M301.7,330.2v-5h5v5H301.7
	L301.7,330.2z M301.7,336.1v-5h5v5H301.7L301.7,336.1z M301.7,324.3v-5h5v5H301.7L301.7,324.3z M301.7,342v-5h5v5H301.7L301.7,342z
	 M313.5,401.1v-5h5v5H313.5L313.5,401.1z M313.5,407v-5h5v5H313.5L313.5,407z M313.5,395.2v-5h5v5H313.5L313.5,395.2z M313.5,412.9
	v-5h5v5H313.5L313.5,412.9z M307.6,401.1v-5h5v5H307.6L307.6,401.1z M307.6,407v-5h5v5H307.6L307.6,407z M307.6,395.2v-5h5v5H307.6
	L307.6,395.2z M307.6,412.9v-5h5v5H307.6L307.6,412.9z M343,342v-10.9h10.9V342H343L343,342z M343,330.2v-10.9h10.9v10.9H343
	L343,330.2z M289.8,353.9V343h10.9v10.9H289.8L289.8,353.9z M289.8,342v-10.9h10.9V342H289.8L289.8,342z M289.8,330.2v-10.9h10.9
	v10.9H289.8L289.8,330.2z M295.7,359.8v-5h5v5H295.7L295.7,359.8z M289.8,359.8v-5h5v5H289.8L289.8,359.8z M283.9,353.9v-5h5v5
	H283.9L283.9,353.9z M283.9,359.8v-5h5v5H283.9L283.9,359.8z M283.9,348v-5h5v5H283.9L283.9,348z M283.9,365.7v-5h5v5H283.9
	L283.9,365.7z M283.9,330.2v-5h5v5H283.9L283.9,330.2z M283.9,336.1v-5h5v5H283.9L283.9,336.1z M283.9,324.3v-5h5v5H283.9
	L283.9,324.3z M283.9,342v-5h5v5H283.9L283.9,342z M331.2,342v-10.9H342V342H331.2L331.2,342z M331.2,330.2v-10.9H342v10.9H331.2
	L331.2,330.2z M330.2,353.9h-5v-5h5V353.9L330.2,353.9z M330.2,359.8h-5v-5h5V359.8L330.2,359.8z M330.2,348h-5v-5h5V348L330.2,348z
	 M330.2,365.7h-5v-5h5V365.7L330.2,365.7z M301.7,365.7V343h22.7v22.7H301.7L301.7,365.7z M366.6,436.5v-10.9h10.9v10.9H366.6
	L366.6,436.5z M366.6,424.7v-10.9h10.9v10.9H366.6L366.6,424.7z M260.3,390.2v22.7H283v-22.7H260.3L260.3,390.2z M236.7,419.8v10.9
	h10.9v-10.9H236.7L236.7,419.8z M189.4,390.2v46.3h46.3v-46.3H189.4L189.4,390.2z M248.5,425.7v22.7h22.7v-22.7H248.5L248.5,425.7z
	 M242.6,390.2v10.9h10.9v-10.9H242.6L242.6,390.2z M272.1,413.9v5h5v-5H272.1L272.1,413.9z M189.4,319.4v46.3h46.3v-46.3H189.4
	L189.4,319.4z M189.4,366.6v22.7h22.7v-22.7H189.4L189.4,366.6z M236.7,319.4v10.9h10.9v-10.9H236.7L236.7,319.4z M248.5,319.4v5h5
	v-5H248.5L248.5,319.4z M236.7,343v46.3H283V343H236.7L236.7,343z M260.3,319.4V342H283v-22.7H260.3L260.3,319.4z M213.1,366.6v10.9
	h10.9v-10.9H213.1L213.1,366.6z M254.4,337.1v5h5v-5H254.4L254.4,337.1z M189.4,532v10.9h10.9V532H189.4L189.4,532z M236.7,402v5h5
	v-5H236.7L236.7,402z M201.3,437.5v22.7h22.7v-22.7H201.3L201.3,437.5z M236.7,431.6v10.9h10.9v-10.9H236.7L236.7,431.6z
	 M236.7,396.1v5h5v-5H236.7L236.7,396.1z M242.6,402v5h5v-5H242.6L242.6,402z M189.4,461.1v22.7h22.7v-22.7H189.4L189.4,461.1z
	 M213.1,461.1V472h10.9v-10.9H213.1L213.1,461.1z M248.5,402v5h5v-5H248.5L248.5,402z M242.6,331.2V342h10.9v-10.9H242.6
	L242.6,331.2z M236.7,331.2v5h5v-5H236.7L236.7,331.2z M213.1,378.4v10.9h10.9v-10.9H213.1L213.1,378.4z M236.7,337.1v5h5v-5H236.7
	L236.7,337.1z M224.9,366.6v10.9h10.9v-10.9H224.9L224.9,366.6z M248.5,325.3v5h5v-5H248.5L248.5,325.3z M224.9,378.4v10.9h10.9
	v-10.9H224.9L224.9,378.4z M254.4,319.4v5h5v-5H254.4L254.4,319.4z M272.1,431.6v10.9H283v-10.9H272.1L272.1,431.6z M254.4,331.2v5
	h5v-5H254.4L254.4,331.2z M272.1,443.4v10.9H283v-10.9H272.1L272.1,443.4z M254.4,402v5h5v-5H254.4L254.4,402z M260.3,413.9v10.9
	h10.9v-10.9H260.3L260.3,413.9z M254.4,325.3v5h5v-5H254.4L254.4,325.3z M272.1,419.8v10.9H283v-10.9H272.1L272.1,419.8z
	 M254.4,396.1v5h5v-5H254.4L254.4,396.1z M278,413.9v5h5v-5H278L278,413.9z M254.4,419.8v5h5v-5H254.4L254.4,419.8z M254.4,408v5h5
	v-5H254.4L254.4,408z M236.7,390.2v5h5v-5H236.7L236.7,390.2z M254.4,390.2v5h5v-5H254.4L254.4,390.2z M254.4,413.9v5h5v-5H254.4
	L254.4,413.9z M201.3,496.5v46.3h46.3v-46.3H201.3L201.3,496.5z M248.5,520.2v22.7h22.7v-22.7H248.5L248.5,520.2z M189.4,437.5v10.9
	h10.9v-10.9H189.4L189.4,437.5z M248.5,419.8v5h5v-5H248.5L248.5,419.8z M224.9,449.3v46.3h46.3v-46.3H224.9L224.9,449.3z
	 M260.3,543.8v22.7H283v-22.7H260.3L260.3,543.8z M248.5,496.5v10.9h10.9v-10.9H248.5L248.5,496.5z M248.5,508.3v10.9h10.9v-10.9
	H248.5L248.5,508.3z M189.4,526.1v5h5v-5H189.4L189.4,526.1z M260.3,496.5v22.7H283v-22.7H260.3L260.3,496.5z M189.4,484.7v10.9
	h10.9v-10.9H189.4L189.4,484.7z M236.7,543.8v22.7h22.7v-22.7H236.7L236.7,543.8z M189.4,502.4v10.9h10.9v-10.9H189.4L189.4,502.4z
	 M189.4,543.8v22.7h22.7v-22.7H189.4L189.4,543.8z M189.4,514.3v10.9h10.9v-10.9H189.4L189.4,514.3z M236.7,408v10.9h10.9V408H236.7
	L236.7,408z M248.5,408v5h5v-5H248.5L248.5,408z M272.1,461.1V472H283v-10.9H272.1L272.1,461.1z M213.1,478.8v5h5v-5H213.1
	L213.1,478.8z M224.9,437.5v10.9h10.9v-10.9H224.9L224.9,437.5z M248.5,413.9v5h5v-5H248.5L248.5,413.9z M189.4,449.3v10.9h10.9
	v-10.9H189.4L189.4,449.3z M219,478.8v5h5v-5H219L219,478.8z M272.1,472.9v10.9H283v-10.9H272.1L272.1,472.9z M189.4,496.5v5h5v-5
	H189.4L189.4,496.5z M213.1,484.7v10.9h10.9v-10.9H213.1L213.1,484.7z M195.4,526.1v5h5v-5H195.4L195.4,526.1z M272.1,484.7v10.9
	H283v-10.9H272.1L272.1,484.7z M195.4,496.5v5h5v-5H195.4L195.4,496.5z M201.3,484.7v10.9h10.9v-10.9H201.3L201.3,484.7z M219,472.9
	v5h5v-5H219L219,472.9z M236.7,443.4v5h5v-5H236.7L236.7,443.4z M278,455.2v5h5v-5H278L278,455.2z M242.6,443.4v5h5v-5H242.6
	L242.6,443.4z M213.1,472.9v5h5v-5H213.1L213.1,472.9z M272.1,455.2v5h5v-5H272.1L272.1,455.2z M224.9,543.8v5h5v-5H224.9
	L224.9,543.8z M224.9,549.7v10.9h10.9v-10.9H224.9L224.9,549.7z M230.8,543.8v5h5v-5H230.8L230.8,543.8z M224.9,561.5v5h5v-5H224.9
	L224.9,561.5z M230.8,561.5v5h5v-5H230.8L230.8,561.5z M219,555.6v5h5v-5H219L219,555.6z M219,549.7v5h5v-5H219L219,549.7z
	 M219,561.5v5h5v-5H219L219,561.5z M219,543.8v5h5v-5H219L219,543.8z M213.1,555.6v5h5v-5H213.1L213.1,555.6z M213.1,549.7v5h5v-5
	H213.1L213.1,549.7z M213.1,561.5v5h5v-5H213.1L213.1,561.5z M213.1,543.8v5h5v-5H213.1L213.1,543.8z M272.1,520.2V531H283v-10.9
	H272.1L272.1,520.2z M272.1,532v10.9H283V532H272.1L272.1,532z M331.2,70.4V24.1h46.3v46.3H331.2L331.2,70.4z M354.8,247.6v-22.7
	h22.7v22.7H354.8L354.8,247.6z M331.2,218v-10.9H342V218H331.2L331.2,218z M283.9,247.6v-46.3h46.3v46.3H283.9L283.9,247.6z
	 M343,212.1v-22.7h22.7v22.7H343L343,212.1z M337.1,247.6v-10.9H348v10.9H337.1L337.1,247.6z M366.6,223.9v-5h5v5H366.6L366.6,223.9
	z M283.9,318.4v-46.3h46.3v46.3H283.9L283.9,318.4z M283.9,271.2v-22.7h22.7v22.7H283.9L283.9,271.2z M331.2,318.4v-10.9H342v10.9
	H331.2L331.2,318.4z M343,318.4v-5h5v5H343L343,318.4z M331.2,294.8v-46.3h46.3v46.3H331.2L331.2,294.8z M354.8,318.4v-22.7h22.7
	v22.7H354.8L354.8,318.4z M307.6,271.2v-10.9h10.9v10.9H307.6L307.6,271.2z M348.9,300.7v-5h5v5H348.9L348.9,300.7z M307.6,70.4
	V47.7h22.7v22.7H307.6L307.6,70.4z M283.9,105.8V95h10.9v10.9H283.9L283.9,105.8z M331.2,235.7v-5h5v5H331.2L331.2,235.7z
	 M295.7,200.3v-22.7h22.7v22.7H295.7L295.7,200.3z M331.2,206.2v-10.9H342v10.9H331.2L331.2,206.2z M331.2,241.7v-5h5v5H331.2
	L331.2,241.7z M283.9,70.4V47.7h22.7v22.7H283.9L283.9,70.4z M337.1,235.7v-5h5v5H337.1L337.1,235.7z M283.9,176.7V154h22.7v22.7
	H283.9L283.9,176.7z M307.6,176.7v-10.9h10.9v10.9H307.6L307.6,176.7z M343,235.7v-5h5v5H343L343,235.7z M337.1,306.6v-10.9H348
	v10.9H337.1L337.1,306.6z M331.2,306.6v-5h5v5H331.2L331.2,306.6z M307.6,259.4v-10.9h10.9v10.9H307.6L307.6,259.4z M331.2,300.7v-5
	h5v5H331.2L331.2,300.7z M319.4,271.2v-10.9h10.9v10.9H319.4L319.4,271.2z M343,312.5v-5h5v5H343L343,312.5z M319.4,259.4v-10.9
	h10.9v10.9H319.4L319.4,259.4z M348.9,318.4v-5h5v5H348.9L348.9,318.4z M366.6,206.2v-10.9h10.9v10.9H366.6L366.6,206.2z
	 M348.9,306.6v-5h5v5H348.9L348.9,306.6z M366.6,194.4v-10.9h10.9v10.9H366.6L366.6,194.4z M348.9,235.7v-5h5v5H348.9L348.9,235.7z
	 M354.8,223.9v-10.9h10.9v10.9H354.8L354.8,223.9z M348.9,312.5v-5h5v5H348.9L348.9,312.5z M366.6,218v-10.9h10.9V218H366.6
	L366.6,218z M348.9,241.7v-5h5v5H348.9L348.9,241.7z M372.5,223.9v-5h5v5H372.5L372.5,223.9z M348.9,218v-5h5v5H348.9L348.9,218z
	 M348.9,229.8v-5h5v5H348.9L348.9,229.8z M331.2,247.6v-5h5v5H331.2L331.2,247.6z M348.9,247.6v-5h5v5H348.9L348.9,247.6z
	 M348.9,223.9v-5h5v5H348.9L348.9,223.9z M295.7,141.3V95H342v46.3H295.7L295.7,141.3z M343,117.6V95h22.7v22.7H343L343,117.6z
	 M283.9,200.3v-10.9h10.9v10.9H283.9L283.9,200.3z M343,218v-5h5v5H343L343,218z M319.4,188.5v-46.3h46.3v46.3H319.4L319.4,188.5z
	 M354.8,94V71.3h22.7V94H354.8L354.8,94z M343,141.3v-10.9h10.9v10.9H343L343,141.3z M354.8,23.1V0.5h22.7v22.7H354.8L354.8,23.1z
	 M343,129.4v-10.9h10.9v10.9H343L343,129.4z M283.9,111.7v-5h5v5H283.9L283.9,111.7z M354.8,141.3v-22.7h22.7v22.7H354.8
	L354.8,141.3z M283.9,153.1v-10.9h10.9v10.9H283.9L283.9,153.1z M331.2,94V71.3h22.7V94H331.2L331.2,94z M283.9,135.4v-10.9h10.9
	v10.9H283.9L283.9,135.4z M289.8,46.8v-5h5v5H289.8L289.8,46.8z M283.9,94V71.3h22.7V94H283.9L283.9,94z M283.9,123.5v-10.9h10.9
	v10.9H283.9L283.9,123.5z M295.7,46.8v-5h5v5H295.7L295.7,46.8z M331.2,229.8V219H342v10.9H331.2L331.2,229.8z M343,229.8v-5h5v5
	H343L343,229.8z M366.6,176.7v-10.9h10.9v10.9H366.6L366.6,176.7z M307.6,159v-5h5v5H307.6L307.6,159z M319.4,200.3v-10.9h10.9v10.9
	H319.4L319.4,200.3z M343,223.9v-5h5v5H343L343,223.9z M283.9,188.5v-10.9h10.9v10.9H283.9L283.9,188.5z M313.5,159v-5h5v5H313.5
	L313.5,159z M366.6,164.9V154h10.9v10.9H366.6L366.6,164.9z M283.9,141.3v-5h5v5H283.9L283.9,141.3z M307.6,153.1v-10.9h10.9v10.9
	H307.6L307.6,153.1z M289.8,111.7v-5h5v5H289.8L289.8,111.7z M366.6,153.1v-10.9h10.9v10.9H366.6L366.6,153.1z M289.8,141.3v-5h5v5
	H289.8L289.8,141.3z M295.7,153.1v-10.9h10.9v10.9H295.7L295.7,153.1z M313.5,164.9v-5h5v5H313.5L313.5,164.9z M331.2,194.4v-5h5v5
	H331.2L331.2,194.4z M372.5,182.6v-5h5v5H372.5L372.5,182.6z M337.1,194.4v-5h5v5H337.1L337.1,194.4z M307.6,164.9v-5h5v5H307.6
	L307.6,164.9z M366.6,182.6v-5h5v5H366.6L366.6,182.6z M319.4,94v-5h5v5H319.4L319.4,94z M319.4,88.1V77.2h10.9v10.9H319.4
	L319.4,88.1z M325.3,94v-5h5v5H325.3L325.3,94z M319.4,76.3v-5h5v5H319.4L319.4,76.3z M325.3,76.3v-5h5v5H325.3L325.3,76.3z
	 M307.6,23.1V0.5h22.7v22.7H307.6L307.6,23.1z M301.7,11.3v-5h5v5H301.7L301.7,11.3z M301.7,17.2v-5h5v5H301.7L301.7,17.2z
	 M301.7,5.4v-5h5v5H301.7L301.7,5.4z M301.7,23.1v-5h5v5H301.7L301.7,23.1z M313.5,82.2v-5h5v5H313.5L313.5,82.2z M313.5,88.1v-5h5
	v5H313.5L313.5,88.1z M313.5,76.3v-5h5v5H313.5L313.5,76.3z M313.5,94v-5h5v5H313.5L313.5,94z M307.6,82.2v-5h5v5H307.6L307.6,82.2z
	 M307.6,88.1v-5h5v5H307.6L307.6,88.1z M307.6,76.3v-5h5v5H307.6L307.6,76.3z M307.6,94v-5h5v5H307.6L307.6,94z M343,23.1V12.3h10.9
	v10.9H343L343,23.1z M343,11.3V0.5h10.9v10.9H343L343,11.3z M289.8,35V24.1h10.9V35H289.8L289.8,35z M289.8,23.1V12.3h10.9v10.9
	H289.8L289.8,23.1z M289.8,11.3V0.5h10.9v10.9H289.8L289.8,11.3z M295.7,40.9v-5h5v5H295.7L295.7,40.9z M289.8,40.9v-5h5v5H289.8
	L289.8,40.9z M283.9,35v-5h5v5H283.9L283.9,35z M283.9,40.9v-5h5v5H283.9L283.9,40.9z M283.9,29.1v-5h5v5H283.9L283.9,29.1z
	 M283.9,46.8v-5h5v5H283.9L283.9,46.8z M283.9,11.3v-5h5v5H283.9L283.9,11.3z M283.9,17.2v-5h5v5H283.9L283.9,17.2z M283.9,5.4v-5h5
	v5H283.9L283.9,5.4z M283.9,23.1v-5h5v5H283.9L283.9,23.1z M331.2,23.1V12.3H342v10.9H331.2L331.2,23.1z M331.2,11.3V0.5H342v10.9
	H331.2L331.2,11.3z M330.2,35h-5v-5h5V35L330.2,35z M330.2,40.9h-5v-5h5V40.9L330.2,40.9z M330.2,29.1h-5v-5h5V29.1L330.2,29.1z
	 M330.2,46.8h-5v-5h5V46.8L330.2,46.8z M301.7,46.8V24.1h22.7v22.7H301.7L301.7,46.8z M366.6,117.6v-10.9h10.9v10.9H366.6
	L366.6,117.6z M366.6,105.8V95h10.9v10.9H366.6L366.6,105.8z M260.3,71.3V94H283V71.3H260.3L260.3,71.3z M236.7,100.9v10.9h10.9
	v-10.9H236.7L236.7,100.9z M189.4,71.3v46.3h46.3V71.3H189.4L189.4,71.3z M248.5,106.8v22.7h22.7v-22.7H248.5L248.5,106.8z
	 M242.6,71.3v10.9h10.9V71.3H242.6L242.6,71.3z M272.1,95v5h5v-5H272.1L272.1,95z M189.4,0.5v46.3h46.3V0.5H189.4L189.4,0.5z
	 M189.4,47.7v22.7h22.7V47.7H189.4L189.4,47.7z M236.7,0.5v10.9h10.9V0.5H236.7L236.7,0.5z M248.5,0.5v5h5v-5H248.5L248.5,0.5z
	 M236.7,24.1v46.3H283V24.1H236.7L236.7,24.1z M260.3,0.5v22.7H283V0.5H260.3L260.3,0.5z M213.1,47.7v10.9h10.9V47.7H213.1
	L213.1,47.7z M254.4,18.2v5h5v-5H254.4L254.4,18.2z M213.1,248.5v22.7h22.7v-22.7H213.1L213.1,248.5z M189.4,213.1v10.9h10.9v-10.9
	H189.4L189.4,213.1z M236.7,83.1v5h5v-5H236.7L236.7,83.1z M201.3,118.6v22.7h22.7v-22.7H201.3L201.3,118.6z M236.7,112.7v10.9h10.9
	v-10.9H236.7L236.7,112.7z M236.7,77.2v5h5v-5H236.7L236.7,77.2z M189.4,248.5v22.7h22.7v-22.7H189.4L189.4,248.5z M242.6,83.1v5h5
	v-5H242.6L242.6,83.1z M189.4,142.2v22.7h22.7v-22.7H189.4L189.4,142.2z M213.1,142.2v10.9h10.9v-10.9H213.1L213.1,142.2z
	 M248.5,83.1v5h5v-5H248.5L248.5,83.1z M242.6,12.3v10.9h10.9V12.3H242.6L242.6,12.3z M236.7,12.3v5h5v-5H236.7L236.7,12.3z
	 M213.1,59.5v10.9h10.9V59.5H213.1L213.1,59.5z M236.7,18.2v5h5v-5H236.7L236.7,18.2z M224.9,47.7v10.9h10.9V47.7H224.9L224.9,47.7z
	 M248.5,6.4v5h5v-5H248.5L248.5,6.4z M224.9,59.5v10.9h10.9V59.5H224.9L224.9,59.5z M254.4,0.5v5h5v-5H254.4L254.4,0.5z
	 M272.1,112.7v10.9H283v-10.9H272.1L272.1,112.7z M254.4,12.3v5h5v-5H254.4L254.4,12.3z M272.1,124.5v10.9H283v-10.9H272.1
	L272.1,124.5z M254.4,83.1v5h5v-5H254.4L254.4,83.1z M260.3,95v10.9h10.9V95H260.3L260.3,95z M254.4,6.4v5h5v-5H254.4L254.4,6.4z
	 M272.1,100.9v10.9H283v-10.9H272.1L272.1,100.9z M254.4,77.2v5h5v-5H254.4L254.4,77.2z M278,95v5h5v-5H278L278,95z M254.4,100.9v5
	h5v-5H254.4L254.4,100.9z M254.4,89.1v5h5v-5H254.4L254.4,89.1z M236.7,71.3v5h5v-5H236.7L236.7,71.3z M254.4,71.3v5h5v-5H254.4
	L254.4,71.3z M254.4,95v5h5v-5H254.4L254.4,95z M201.3,177.6v46.3h46.3v-46.3H201.3L201.3,177.6z M248.5,201.3v22.7h22.7v-22.7
	H248.5L248.5,201.3z M189.4,118.6v10.9h10.9v-10.9H189.4L189.4,118.6z M248.5,100.9v5h5v-5H248.5L248.5,100.9z M224.9,130.4v46.3
	h46.3v-46.3H224.9L224.9,130.4z M260.3,224.9v22.7H283v-22.7H260.3L260.3,224.9z M248.5,177.6v10.9h10.9v-10.9H248.5L248.5,177.6z
	 M260.3,295.7v22.7H283v-22.7H260.3L260.3,295.7z M248.5,189.4v10.9h10.9v-10.9H248.5L248.5,189.4z M189.4,207.2v5h5v-5H189.4
	L189.4,207.2z M260.3,177.6v22.7H283v-22.7H260.3L260.3,177.6z M189.4,165.8v10.9h10.9v-10.9H189.4L189.4,165.8z M236.7,224.9v22.7
	h22.7v-22.7H236.7L236.7,224.9z M189.4,183.5v10.9h10.9v-10.9H189.4L189.4,183.5z M195.4,272.1v5h5v-5H195.4L195.4,272.1z
	 M189.4,224.9v22.7h22.7v-22.7H189.4L189.4,224.9z M189.4,195.4v10.9h10.9v-10.9H189.4L189.4,195.4z M201.3,272.1v5h5v-5H201.3
	L201.3,272.1z M236.7,89.1v10.9h10.9V89.1H236.7L236.7,89.1z M248.5,89.1v5h5v-5H248.5L248.5,89.1z M272.1,142.2v10.9H283v-10.9
	H272.1L272.1,142.2z M213.1,159.9v5h5v-5H213.1L213.1,159.9z M224.9,118.6v10.9h10.9v-10.9H224.9L224.9,118.6z M248.5,95v5h5v-5
	H248.5L248.5,95z M189.4,130.4v10.9h10.9v-10.9H189.4L189.4,130.4z M219,159.9v5h5v-5H219L219,159.9z M272.1,154v10.9H283V154H272.1
	L272.1,154z M189.4,177.6v5h5v-5H189.4L189.4,177.6z M213.1,165.8v10.9h10.9v-10.9H213.1L213.1,165.8z M195.4,207.2v5h5v-5H195.4
	L195.4,207.2z M272.1,165.8v10.9H283v-10.9H272.1L272.1,165.8z M195.4,177.6v5h5v-5H195.4L195.4,177.6z M201.3,165.8v10.9h10.9
	v-10.9H201.3L201.3,165.8z M219,154v5h5v-5H219L219,154z M236.7,124.5v5h5v-5H236.7L236.7,124.5z M278,136.3v5h5v-5H278L278,136.3z
	 M242.6,124.5v5h5v-5H242.6L242.6,124.5z M213.1,154v5h5v-5H213.1L213.1,154z M272.1,136.3v5h5v-5H272.1L272.1,136.3z M224.9,224.9
	v5h5v-5H224.9L224.9,224.9z M224.9,230.8v10.9h10.9v-10.9H224.9L224.9,230.8z M230.8,224.9v5h5v-5H230.8L230.8,224.9z M224.9,242.6
	v5h5v-5H224.9L224.9,242.6z M230.8,242.6v5h5v-5H230.8L230.8,242.6z M213.1,295.7v22.7h22.7v-22.7H213.1L213.1,295.7z M207.2,307.6
	v5h5v-5H207.2L207.2,307.6z M207.2,301.7v5h5v-5H207.2L207.2,301.7z M207.2,313.5v5h5v-5H207.2L207.2,313.5z M207.2,295.7v5h5v-5
	H207.2L207.2,295.7z M219,236.7v5h5v-5H219L219,236.7z M219,230.8v5h5v-5H219L219,230.8z M219,242.6v5h5v-5H219L219,242.6z
	 M219,224.9v5h5v-5H219L219,224.9z M213.1,236.7v5h5v-5H213.1L213.1,236.7z M213.1,230.8v5h5v-5H213.1L213.1,230.8z M213.1,242.6v5
	h5v-5H213.1L213.1,242.6z M213.1,224.9v5h5v-5H213.1L213.1,224.9z M248.5,295.7v10.9h10.9v-10.9H248.5L248.5,295.7z M248.5,307.6
	v10.9h10.9v-10.9H248.5L248.5,307.6z M195.4,283.9v10.9h10.9v-10.9H195.4L195.4,283.9z M195.4,295.7v10.9h10.9v-10.9H195.4
	L195.4,295.7z M195.4,307.6v10.9h10.9v-10.9H195.4L195.4,307.6z M201.3,278v5h5v-5H201.3L201.3,278z M195.4,278v5h5v-5H195.4
	L195.4,278z M189.4,283.9v5h5v-5H189.4L189.4,283.9z M189.4,278v5h5v-5H189.4L189.4,278z M189.4,289.8v5h5v-5H189.4L189.4,289.8z
	 M189.4,272.1v5h5v-5H189.4L189.4,272.1z M189.4,307.6v5h5v-5H189.4L189.4,307.6z M189.4,301.7v5h5v-5H189.4L189.4,301.7z
	 M189.4,313.5v5h5v-5H189.4L189.4,313.5z M189.4,295.7v5h5v-5H189.4L189.4,295.7z M236.7,295.7v10.9h10.9v-10.9H236.7L236.7,295.7z
	 M236.7,307.6v10.9h10.9v-10.9H236.7L236.7,307.6z M235.7,283.9h-5v5h5V283.9L235.7,283.9z M235.7,278h-5v5h5V278L235.7,278z
	 M235.7,289.8h-5v5h5V289.8L235.7,289.8z M235.7,272.1h-5v5h5V272.1L235.7,272.1z M207.2,272.1v22.7h22.7v-22.7H207.2L207.2,272.1z
	 M272.1,201.3v10.9H283v-10.9H272.1L272.1,201.3z M272.1,213.1v10.9H283v-10.9H272.1L272.1,213.1z M520.2,389.3V343h46.3v46.3H520.2
	L520.2,389.3z M543.8,566.5v-22.7h22.7v22.7H543.8L543.8,566.5z M520.2,536.9v-10.9H531v10.9H520.2L520.2,536.9z M472.9,566.5v-46.3
	h46.3v46.3H472.9L472.9,566.5z M532,531v-22.7h22.7V531H532L532,531z M526.1,566.5v-10.9h10.9v10.9H526.1L526.1,566.5z M555.6,542.8
	v-5h5v5H555.6L555.6,542.8z M496.5,389.3v-22.7h22.7v22.7H496.5L496.5,389.3z M472.9,424.7v-10.9h10.9v10.9H472.9L472.9,424.7z
	 M520.2,554.6v-5h5v5H520.2L520.2,554.6z M484.7,519.2v-22.7h22.7v22.7H484.7L484.7,519.2z M520.2,525.1v-10.9H531v10.9H520.2
	L520.2,525.1z M520.2,560.6v-5h5v5H520.2L520.2,560.6z M472.9,389.3v-22.7h22.7v22.7H472.9L472.9,389.3z M526.1,554.6v-5h5v5H526.1
	L526.1,554.6z M472.9,495.6v-22.7h22.7v22.7H472.9L472.9,495.6z M496.5,495.6v-10.9h10.9v10.9H496.5L496.5,495.6z M532,554.6v-5h5v5
	H532L532,554.6z M555.6,525.1v-10.9h10.9v10.9H555.6L555.6,525.1z M555.6,513.3v-10.9h10.9v10.9H555.6L555.6,513.3z M537.9,554.6v-5
	h5v5H537.9L537.9,554.6z M543.8,542.8V532h10.9v10.9H543.8L543.8,542.8z M555.6,536.9v-10.9h10.9v10.9H555.6L555.6,536.9z
	 M537.9,560.6v-5h5v5H537.9L537.9,560.6z M561.5,542.8v-5h5v5H561.5L561.5,542.8z M537.9,536.9v-5h5v5H537.9L537.9,536.9z
	 M537.9,548.7v-5h5v5H537.9L537.9,548.7z M520.2,566.5v-5h5v5H520.2L520.2,566.5z M537.9,566.5v-5h5v5H537.9L537.9,566.5z
	 M537.9,542.8v-5h5v5H537.9L537.9,542.8z M484.7,460.2v-46.3H531v46.3H484.7L484.7,460.2z M532,436.5v-22.7h22.7v22.7H532L532,436.5
	z M472.9,519.2v-10.9h10.9v10.9H472.9L472.9,519.2z M532,536.9v-5h5v5H532L532,536.9z M508.3,507.4v-46.3h46.3v46.3H508.3
	L508.3,507.4z M543.8,412.9v-22.7h22.7v22.7H543.8L543.8,412.9z M532,460.2v-10.9h10.9v10.9H532L532,460.2z M543.8,342v-22.7h22.7
	V342H543.8L543.8,342z M532,448.3v-10.9h10.9v10.9H532L532,448.3z M472.9,430.6v-5h5v5H472.9L472.9,430.6z M543.8,460.2v-22.7h22.7
	v22.7H543.8L543.8,460.2z M472.9,472v-10.9h10.9V472H472.9L472.9,472z M520.2,412.9v-22.7h22.7v22.7H520.2L520.2,412.9z
	 M472.9,454.3v-10.9h10.9v10.9H472.9L472.9,454.3z M478.8,365.7v-5h5v5H478.8L478.8,365.7z M472.9,412.9v-22.7h22.7v22.7H472.9
	L472.9,412.9z M472.9,442.4v-10.9h10.9v10.9H472.9L472.9,442.4z M484.7,365.7v-5h5v5H484.7L484.7,365.7z M520.2,548.7v-10.9H531
	v10.9H520.2L520.2,548.7z M532,548.7v-5h5v5H532L532,548.7z M555.6,495.6v-10.9h10.9v10.9H555.6L555.6,495.6z M496.5,477.9v-5h5v5
	H496.5L496.5,477.9z M508.3,519.2v-10.9h10.9v10.9H508.3L508.3,519.2z M532,542.8v-5h5v5H532L532,542.8z M472.9,507.4v-10.9h10.9
	v10.9H472.9L472.9,507.4z M502.4,477.9v-5h5v5H502.4L502.4,477.9z M555.6,483.8v-10.9h10.9v10.9H555.6L555.6,483.8z M472.9,460.2v-5
	h5v5H472.9L472.9,460.2z M496.5,472v-10.9h10.9V472H496.5L496.5,472z M478.8,430.6v-5h5v5H478.8L478.8,430.6z M555.6,472v-10.9h10.9
	V472H555.6L555.6,472z M478.8,460.2v-5h5v5H478.8L478.8,460.2z M484.7,472v-10.9h10.9V472H484.7L484.7,472z M502.4,483.8v-5h5v5
	H502.4L502.4,483.8z M520.2,513.3v-5h5v5H520.2L520.2,513.3z M561.5,501.5v-5h5v5H561.5L561.5,501.5z M526.1,513.3v-5h5v5H526.1
	L526.1,513.3z M496.5,483.8v-5h5v5H496.5L496.5,483.8z M555.6,501.5v-5h5v5H555.6L555.6,501.5z M508.3,412.9v-5h5v5H508.3
	L508.3,412.9z M508.3,407v-10.9h10.9V407H508.3L508.3,407z M514.3,412.9v-5h5v5H514.3L514.3,412.9z M508.3,395.2v-5h5v5H508.3
	L508.3,395.2z M514.3,395.2v-5h5v5H514.3L514.3,395.2z M496.5,342v-22.7h22.7V342H496.5L496.5,342z M490.6,330.2v-5h5v5H490.6
	L490.6,330.2z M490.6,336.1v-5h5v5H490.6L490.6,336.1z M490.6,324.3v-5h5v5H490.6L490.6,324.3z M490.6,342v-5h5v5H490.6L490.6,342z
	 M502.4,401.1v-5h5v5H502.4L502.4,401.1z M502.4,407v-5h5v5H502.4L502.4,407z M502.4,395.2v-5h5v5H502.4L502.4,395.2z M502.4,412.9
	v-5h5v5H502.4L502.4,412.9z M496.5,401.1v-5h5v5H496.5L496.5,401.1z M496.5,407v-5h5v5H496.5L496.5,407z M496.5,395.2v-5h5v5H496.5
	L496.5,395.2z M496.5,412.9v-5h5v5H496.5L496.5,412.9z M532,342v-10.9h10.9V342H532L532,342z M532,330.2v-10.9h10.9v10.9H532
	L532,330.2z M478.8,353.9V343h10.9v10.9H478.8L478.8,353.9z M478.8,342v-10.9h10.9V342H478.8L478.8,342z M478.8,330.2v-10.9h10.9
	v10.9H478.8L478.8,330.2z M484.7,359.8v-5h5v5H484.7L484.7,359.8z M478.8,359.8v-5h5v5H478.8L478.8,359.8z M472.9,353.9v-5h5v5
	H472.9L472.9,353.9z M472.9,359.8v-5h5v5H472.9L472.9,359.8z M472.9,348v-5h5v5H472.9L472.9,348z M472.9,365.7v-5h5v5H472.9
	L472.9,365.7z M472.9,330.2v-5h5v5H472.9L472.9,330.2z M472.9,336.1v-5h5v5H472.9L472.9,336.1z M472.9,324.3v-5h5v5H472.9
	L472.9,324.3z M472.9,342v-5h5v5H472.9L472.9,342z M520.2,342v-10.9H531V342H520.2L520.2,342z M520.2,330.2v-10.9H531v10.9H520.2
	L520.2,330.2z M519.2,353.9h-5v-5h5V353.9L519.2,353.9z M519.2,359.8h-5v-5h5V359.8L519.2,359.8z M519.2,348h-5v-5h5V348L519.2,348z
	 M519.2,365.7h-5v-5h5V365.7L519.2,365.7z M490.6,365.7V343h22.7v22.7H490.6L490.6,365.7z M555.6,436.5v-10.9h10.9v10.9H555.6
	L555.6,436.5z M555.6,424.7v-10.9h10.9v10.9H555.6L555.6,424.7z M566.9,566.9v-248V0h-94.5H378v318.9v248H566.9L566.9,566.9z
	 M449.3,390.2v22.7H472v-22.7H449.3L449.3,390.2z M425.7,419.8v10.9h10.9v-10.9H425.7L425.7,419.8z M378.4,390.2v46.3h46.3v-46.3
	H378.4L378.4,390.2z M437.5,425.7v22.7h22.7v-22.7H437.5L437.5,425.7z M431.6,390.2v10.9h10.9v-10.9H431.6L431.6,390.2z
	 M461.1,413.9v5h5v-5H461.1L461.1,413.9z M378.4,319.4v46.3h46.3v-46.3H378.4L378.4,319.4z M378.4,366.6v22.7h22.7v-22.7H378.4
	L378.4,366.6z M425.7,319.4v10.9h10.9v-10.9H425.7L425.7,319.4z M437.5,319.4v5h5v-5H437.5L437.5,319.4z M425.7,343v46.3H472V343
	H425.7L425.7,343z M449.3,319.4V342H472v-22.7H449.3L449.3,319.4z M402,366.6v10.9h10.9v-10.9H402L402,366.6z M443.4,337.1v5h5v-5
	H443.4L443.4,337.1z M378.4,532v10.9h10.9V532H378.4L378.4,532z M425.7,402v5h5v-5H425.7L425.7,402z M390.2,437.5v22.7h22.7v-22.7
	H390.2L390.2,437.5z M425.7,431.6v10.9h10.9v-10.9H425.7L425.7,431.6z M425.7,396.1v5h5v-5H425.7L425.7,396.1z M431.6,402v5h5v-5
	H431.6L431.6,402z M378.4,461.1v22.7h22.7v-22.7H378.4L378.4,461.1z M402,461.1V472h10.9v-10.9H402L402,461.1z M437.5,402v5h5v-5
	H437.5L437.5,402z M431.6,331.2V342h10.9v-10.9H431.6L431.6,331.2z M425.7,331.2v5h5v-5H425.7L425.7,331.2z M402,378.4v10.9h10.9
	v-10.9H402L402,378.4z M425.7,337.1v5h5v-5H425.7L425.7,337.1z M413.9,366.6v10.9h10.9v-10.9H413.9L413.9,366.6z M437.5,325.3v5h5
	v-5H437.5L437.5,325.3z M413.9,378.4v10.9h10.9v-10.9H413.9L413.9,378.4z M443.4,319.4v5h5v-5H443.4L443.4,319.4z M461.1,431.6v10.9
	H472v-10.9H461.1L461.1,431.6z M443.4,331.2v5h5v-5H443.4L443.4,331.2z M461.1,443.4v10.9H472v-10.9H461.1L461.1,443.4z M443.4,402
	v5h5v-5H443.4L443.4,402z M449.3,413.9v10.9h10.9v-10.9H449.3L449.3,413.9z M443.4,325.3v5h5v-5H443.4L443.4,325.3z M461.1,419.8
	v10.9H472v-10.9H461.1L461.1,419.8z M443.4,396.1v5h5v-5H443.4L443.4,396.1z M467,413.9v5h5v-5H467L467,413.9z M443.4,419.8v5h5v-5
	H443.4L443.4,419.8z M443.4,408v5h5v-5H443.4L443.4,408z M425.7,390.2v5h5v-5H425.7L425.7,390.2z M443.4,390.2v5h5v-5H443.4
	L443.4,390.2z M443.4,413.9v5h5v-5H443.4L443.4,413.9z M390.2,496.5v46.3h46.3v-46.3H390.2L390.2,496.5z M437.5,520.2v22.7h22.7
	v-22.7H437.5L437.5,520.2z M378.4,437.5v10.9h10.9v-10.9H378.4L378.4,437.5z M437.5,419.8v5h5v-5H437.5L437.5,419.8z M413.9,449.3
	v46.3h46.3v-46.3H413.9L413.9,449.3z M449.3,543.8v22.7H472v-22.7H449.3L449.3,543.8z M437.5,496.5v10.9h10.9v-10.9H437.5
	L437.5,496.5z M437.5,508.3v10.9h10.9v-10.9H437.5L437.5,508.3z M378.4,526.1v5h5v-5H378.4L378.4,526.1z M449.3,496.5v22.7H472
	v-22.7H449.3L449.3,496.5z M378.4,484.7v10.9h10.9v-10.9H378.4L378.4,484.7z M425.7,543.8v22.7h22.7v-22.7H425.7L425.7,543.8z
	 M378.4,502.4v10.9h10.9v-10.9H378.4L378.4,502.4z M378.4,543.8v22.7h22.7v-22.7H378.4L378.4,543.8z M378.4,514.3v10.9h10.9v-10.9
	H378.4L378.4,514.3z M425.7,408v10.9h10.9V408H425.7L425.7,408z M437.5,408v5h5v-5H437.5L437.5,408z M461.1,461.1V472H472v-10.9
	H461.1L461.1,461.1z M402,478.8v5h5v-5H402L402,478.8z M413.9,437.5v10.9h10.9v-10.9H413.9L413.9,437.5z M437.5,413.9v5h5v-5H437.5
	L437.5,413.9z M378.4,449.3v10.9h10.9v-10.9H378.4L378.4,449.3z M408,478.8v5h5v-5H408L408,478.8z M461.1,472.9v10.9H472v-10.9
	H461.1L461.1,472.9z M378.4,496.5v5h5v-5H378.4L378.4,496.5z M402,484.7v10.9h10.9v-10.9H402L402,484.7z M384.3,526.1v5h5v-5H384.3
	L384.3,526.1z M461.1,484.7v10.9H472v-10.9H461.1L461.1,484.7z M384.3,496.5v5h5v-5H384.3L384.3,496.5z M390.2,484.7v10.9h10.9
	v-10.9H390.2L390.2,484.7z M408,472.9v5h5v-5H408L408,472.9z M425.7,443.4v5h5v-5H425.7L425.7,443.4z M467,455.2v5h5v-5H467
	L467,455.2z M431.6,443.4v5h5v-5H431.6L431.6,443.4z M402,472.9v5h5v-5H402L402,472.9z M461.1,455.2v5h5v-5H461.1L461.1,455.2z
	 M413.9,543.8v5h5v-5H413.9L413.9,543.8z M413.9,549.7v10.9h10.9v-10.9H413.9L413.9,549.7z M419.8,543.8v5h5v-5H419.8L419.8,543.8z
	 M413.9,561.5v5h5v-5H413.9L413.9,561.5z M419.8,561.5v5h5v-5H419.8L419.8,561.5z M408,555.6v5h5v-5H408L408,555.6z M408,549.7v5h5
	v-5H408L408,549.7z M408,561.5v5h5v-5H408L408,561.5z M408,543.8v5h5v-5H408L408,543.8z M402,555.6v5h5v-5H402L402,555.6z
	 M402,549.7v5h5v-5H402L402,549.7z M402,561.5v5h5v-5H402L402,561.5z M402,543.8v5h5v-5H402L402,543.8z M461.1,520.2V531H472v-10.9
	H461.1L461.1,520.2z M461.1,532v10.9H472V532H461.1L461.1,532z M520.2,70.4V24.1h46.3v46.3H520.2L520.2,70.4z M543.8,247.6v-22.7
	h22.7v22.7H543.8L543.8,247.6z M520.2,218v-10.9H531V218H520.2L520.2,218z M472.9,247.6v-46.3h46.3v46.3H472.9L472.9,247.6z
	 M532,212.1v-22.7h22.7v22.7H532L532,212.1z M526.1,247.6v-10.9h10.9v10.9H526.1L526.1,247.6z M555.6,223.9v-5h5v5H555.6
	L555.6,223.9z M472.9,318.4v-46.3h46.3v46.3H472.9L472.9,318.4z M472.9,271.2v-22.7h22.7v22.7H472.9L472.9,271.2z M520.2,318.4
	v-10.9H531v10.9H520.2L520.2,318.4z M532,318.4v-5h5v5H532L532,318.4z M520.2,294.8v-46.3h46.3v46.3H520.2L520.2,294.8z
	 M543.8,318.4v-22.7h22.7v22.7H543.8L543.8,318.4z M496.5,271.2v-10.9h10.9v10.9H496.5L496.5,271.2z M537.9,300.7v-5h5v5H537.9
	L537.9,300.7z M496.5,70.4V47.7h22.7v22.7H496.5L496.5,70.4z M472.9,105.8V95h10.9v10.9H472.9L472.9,105.8z M520.2,235.7v-5h5v5
	H520.2L520.2,235.7z M484.7,200.3v-22.7h22.7v22.7H484.7L484.7,200.3z M520.2,206.2v-10.9H531v10.9H520.2L520.2,206.2z M520.2,241.7
	v-5h5v5H520.2L520.2,241.7z M472.9,70.4V47.7h22.7v22.7H472.9L472.9,70.4z M526.1,235.7v-5h5v5H526.1L526.1,235.7z M472.9,176.7V154
	h22.7v22.7H472.9L472.9,176.7z M496.5,176.7v-10.9h10.9v10.9H496.5L496.5,176.7z M532,235.7v-5h5v5H532L532,235.7z M526.1,306.6
	v-10.9h10.9v10.9H526.1L526.1,306.6z M520.2,306.6v-5h5v5H520.2L520.2,306.6z M496.5,259.4v-10.9h10.9v10.9H496.5L496.5,259.4z
	 M520.2,300.7v-5h5v5H520.2L520.2,300.7z M508.3,271.2v-10.9h10.9v10.9H508.3L508.3,271.2z M532,312.5v-5h5v5H532L532,312.5z
	 M508.3,259.4v-10.9h10.9v10.9H508.3L508.3,259.4z M537.9,318.4v-5h5v5H537.9L537.9,318.4z M555.6,206.2v-10.9h10.9v10.9H555.6
	L555.6,206.2z M537.9,306.6v-5h5v5H537.9L537.9,306.6z M555.6,194.4v-10.9h10.9v10.9H555.6L555.6,194.4z M537.9,235.7v-5h5v5H537.9
	L537.9,235.7z M543.8,223.9v-10.9h10.9v10.9H543.8L543.8,223.9z M537.9,312.5v-5h5v5H537.9L537.9,312.5z M555.6,218v-10.9h10.9V218
	H555.6L555.6,218z M537.9,241.7v-5h5v5H537.9L537.9,241.7z M561.5,223.9v-5h5v5H561.5L561.5,223.9z M537.9,218v-5h5v5H537.9
	L537.9,218z M537.9,229.8v-5h5v5H537.9L537.9,229.8z M520.2,247.6v-5h5v5H520.2L520.2,247.6z M537.9,247.6v-5h5v5H537.9L537.9,247.6
	z M537.9,223.9v-5h5v5H537.9L537.9,223.9z M484.7,141.3V95H531v46.3H484.7L484.7,141.3z M532,117.6V95h22.7v22.7H532L532,117.6z
	 M472.9,200.3v-10.9h10.9v10.9H472.9L472.9,200.3z M532,218v-5h5v5H532L532,218z M508.3,188.5v-46.3h46.3v46.3H508.3L508.3,188.5z
	 M543.8,94V71.3h22.7V94H543.8L543.8,94z M532,141.3v-10.9h10.9v10.9H532L532,141.3z M543.8,23.1V0.5h22.7v22.7H543.8L543.8,23.1z
	 M532,129.4v-10.9h10.9v10.9H532L532,129.4z M472.9,111.7v-5h5v5H472.9L472.9,111.7z M543.8,141.3v-22.7h22.7v22.7H543.8
	L543.8,141.3z M472.9,153.1v-10.9h10.9v10.9H472.9L472.9,153.1z M520.2,94V71.3h22.7V94H520.2L520.2,94z M472.9,135.4v-10.9h10.9
	v10.9H472.9L472.9,135.4z M478.8,46.8v-5h5v5H478.8L478.8,46.8z M472.9,94V71.3h22.7V94H472.9L472.9,94z M472.9,123.5v-10.9h10.9
	v10.9H472.9L472.9,123.5z M484.7,46.8v-5h5v5H484.7L484.7,46.8z M520.2,229.8V219H531v10.9H520.2L520.2,229.8z M532,229.8v-5h5v5
	H532L532,229.8z M555.6,176.7v-10.9h10.9v10.9H555.6L555.6,176.7z M496.5,159v-5h5v5H496.5L496.5,159z M508.3,200.3v-10.9h10.9v10.9
	H508.3L508.3,200.3z M532,223.9v-5h5v5H532L532,223.9z M472.9,188.5v-10.9h10.9v10.9H472.9L472.9,188.5z M502.4,159v-5h5v5H502.4
	L502.4,159z M555.6,164.9V154h10.9v10.9H555.6L555.6,164.9z M472.9,141.3v-5h5v5H472.9L472.9,141.3z M496.5,153.1v-10.9h10.9v10.9
	H496.5L496.5,153.1z M478.8,111.7v-5h5v5H478.8L478.8,111.7z M555.6,153.1v-10.9h10.9v10.9H555.6L555.6,153.1z M478.8,141.3v-5h5v5
	H478.8L478.8,141.3z M484.7,153.1v-10.9h10.9v10.9H484.7L484.7,153.1z M502.4,164.9v-5h5v5H502.4L502.4,164.9z M520.2,194.4v-5h5v5
	H520.2L520.2,194.4z M561.5,182.6v-5h5v5H561.5L561.5,182.6z M526.1,194.4v-5h5v5H526.1L526.1,194.4z M496.5,164.9v-5h5v5H496.5
	L496.5,164.9z M555.6,182.6v-5h5v5H555.6L555.6,182.6z M508.3,94v-5h5v5H508.3L508.3,94z M508.3,88.1V77.2h10.9v10.9H508.3
	L508.3,88.1z M514.3,94v-5h5v5H514.3L514.3,94z M508.3,76.3v-5h5v5H508.3L508.3,76.3z M514.3,76.3v-5h5v5H514.3L514.3,76.3z
	 M496.5,23.1V0.5h22.7v22.7H496.5L496.5,23.1z M490.6,11.3v-5h5v5H490.6L490.6,11.3z M490.6,17.2v-5h5v5H490.6L490.6,17.2z
	 M490.6,5.4v-5h5v5H490.6L490.6,5.4z M490.6,23.1v-5h5v5H490.6L490.6,23.1z M502.4,82.2v-5h5v5H502.4L502.4,82.2z M502.4,88.1v-5h5
	v5H502.4L502.4,88.1z M502.4,76.3v-5h5v5H502.4L502.4,76.3z M502.4,94v-5h5v5H502.4L502.4,94z M496.5,82.2v-5h5v5H496.5L496.5,82.2z
	 M496.5,88.1v-5h5v5H496.5L496.5,88.1z M496.5,76.3v-5h5v5H496.5L496.5,76.3z M496.5,94v-5h5v5H496.5L496.5,94z M532,23.1V12.3h10.9
	v10.9H532L532,23.1z M532,11.3V0.5h10.9v10.9H532L532,11.3z M478.8,35V24.1h10.9V35H478.8L478.8,35z M478.8,23.1V12.3h10.9v10.9
	H478.8L478.8,23.1z M478.8,11.3V0.5h10.9v10.9H478.8L478.8,11.3z M484.7,40.9v-5h5v5H484.7L484.7,40.9z M478.8,40.9v-5h5v5H478.8
	L478.8,40.9z M472.9,35v-5h5v5H472.9L472.9,35z M472.9,40.9v-5h5v5H472.9L472.9,40.9z M472.9,29.1v-5h5v5H472.9L472.9,29.1z
	 M472.9,46.8v-5h5v5H472.9L472.9,46.8z M472.9,11.3v-5h5v5H472.9L472.9,11.3z M472.9,17.2v-5h5v5H472.9L472.9,17.2z M472.9,5.4v-5h5
	v5H472.9L472.9,5.4z M472.9,23.1v-5h5v5H472.9L472.9,23.1z M520.2,23.1V12.3H531v10.9H520.2L520.2,23.1z M520.2,11.3V0.5H531v10.9
	H520.2L520.2,11.3z M519.2,35h-5v-5h5V35L519.2,35z M519.2,40.9h-5v-5h5V40.9L519.2,40.9z M519.2,29.1h-5v-5h5V29.1L519.2,29.1z
	 M519.2,46.8h-5v-5h5V46.8L519.2,46.8z M490.6,46.8V24.1h22.7v22.7H490.6L490.6,46.8z M555.6,117.6v-10.9h10.9v10.9H555.6
	L555.6,117.6z M555.6,105.8V95h10.9v10.9H555.6L555.6,105.8z M449.3,71.3V94H472V71.3H449.3L449.3,71.3z M425.7,100.9v10.9h10.9
	v-10.9H425.7L425.7,100.9z M378.4,71.3v46.3h46.3V71.3H378.4L378.4,71.3z M437.5,106.8v22.7h22.7v-22.7H437.5L437.5,106.8z
	 M431.6,71.3v10.9h10.9V71.3H431.6L431.6,71.3z M461.1,95v5h5v-5H461.1L461.1,95z M378.4,0.5v46.3h46.3V0.5H378.4L378.4,0.5z
	 M378.4,47.7v22.7h22.7V47.7H378.4L378.4,47.7z M425.7,0.5v10.9h10.9V0.5H425.7L425.7,0.5z M437.5,0.5v5h5v-5H437.5L437.5,0.5z
	 M425.7,24.1v46.3H472V24.1H425.7L425.7,24.1z M449.3,0.5v22.7H472V0.5H449.3L449.3,0.5z M402,47.7v10.9h10.9V47.7H402L402,47.7z
	 M443.4,18.2v5h5v-5H443.4L443.4,18.2z M402,248.5v22.7h22.7v-22.7H402L402,248.5z M378.4,213.1v10.9h10.9v-10.9H378.4L378.4,213.1z
	 M425.7,83.1v5h5v-5H425.7L425.7,83.1z M390.2,118.6v22.7h22.7v-22.7H390.2L390.2,118.6z M425.7,112.7v10.9h10.9v-10.9H425.7
	L425.7,112.7z M425.7,77.2v5h5v-5H425.7L425.7,77.2z M378.4,248.5v22.7h22.7v-22.7H378.4L378.4,248.5z M431.6,83.1v5h5v-5H431.6
	L431.6,83.1z M378.4,142.2v22.7h22.7v-22.7H378.4L378.4,142.2z M402,142.2v10.9h10.9v-10.9H402L402,142.2z M437.5,83.1v5h5v-5H437.5
	L437.5,83.1z M431.6,12.3v10.9h10.9V12.3H431.6L431.6,12.3z M425.7,12.3v5h5v-5H425.7L425.7,12.3z M402,59.5v10.9h10.9V59.5H402
	L402,59.5z M425.7,18.2v5h5v-5H425.7L425.7,18.2z M413.9,47.7v10.9h10.9V47.7H413.9L413.9,47.7z M437.5,6.4v5h5v-5H437.5L437.5,6.4z
	 M413.9,59.5v10.9h10.9V59.5H413.9L413.9,59.5z M443.4,0.5v5h5v-5H443.4L443.4,0.5z M461.1,112.7v10.9H472v-10.9H461.1L461.1,112.7z
	 M443.4,12.3v5h5v-5H443.4L443.4,12.3z M461.1,124.5v10.9H472v-10.9H461.1L461.1,124.5z M443.4,83.1v5h5v-5H443.4L443.4,83.1z
	 M449.3,95v10.9h10.9V95H449.3L449.3,95z M443.4,6.4v5h5v-5H443.4L443.4,6.4z M461.1,100.9v10.9H472v-10.9H461.1L461.1,100.9z
	 M443.4,77.2v5h5v-5H443.4L443.4,77.2z M467,95v5h5v-5H467L467,95z M443.4,100.9v5h5v-5H443.4L443.4,100.9z M443.4,89.1v5h5v-5
	H443.4L443.4,89.1z M425.7,71.3v5h5v-5H425.7L425.7,71.3z M443.4,71.3v5h5v-5H443.4L443.4,71.3z M443.4,95v5h5v-5H443.4L443.4,95z
	 M390.2,177.6v46.3h46.3v-46.3H390.2L390.2,177.6z M437.5,201.3v22.7h22.7v-22.7H437.5L437.5,201.3z M378.4,118.6v10.9h10.9v-10.9
	H378.4L378.4,118.6z M437.5,100.9v5h5v-5H437.5L437.5,100.9z M413.9,130.4v46.3h46.3v-46.3H413.9L413.9,130.4z M449.3,224.9v22.7
	H472v-22.7H449.3L449.3,224.9z M437.5,177.6v10.9h10.9v-10.9H437.5L437.5,177.6z M449.3,295.7v22.7H472v-22.7H449.3L449.3,295.7z
	 M437.5,189.4v10.9h10.9v-10.9H437.5L437.5,189.4z M378.4,207.2v5h5v-5H378.4L378.4,207.2z M449.3,177.6v22.7H472v-22.7H449.3
	L449.3,177.6z M378.4,165.8v10.9h10.9v-10.9H378.4L378.4,165.8z M425.7,224.9v22.7h22.7v-22.7H425.7L425.7,224.9z M378.4,183.5v10.9
	h10.9v-10.9H378.4L378.4,183.5z M384.3,272.1v5h5v-5H384.3L384.3,272.1z M378.4,224.9v22.7h22.7v-22.7H378.4L378.4,224.9z
	 M378.4,195.4v10.9h10.9v-10.9H378.4L378.4,195.4z M390.2,272.1v5h5v-5H390.2L390.2,272.1z M425.7,89.1v10.9h10.9V89.1H425.7
	L425.7,89.1z M437.5,89.1v5h5v-5H437.5L437.5,89.1z M461.1,142.2v10.9H472v-10.9H461.1L461.1,142.2z M402,159.9v5h5v-5H402
	L402,159.9z M413.9,118.6v10.9h10.9v-10.9H413.9L413.9,118.6z M437.5,95v5h5v-5H437.5L437.5,95z M378.4,130.4v10.9h10.9v-10.9H378.4
	L378.4,130.4z M408,159.9v5h5v-5H408L408,159.9z M461.1,154v10.9H472V154H461.1L461.1,154z M378.4,177.6v5h5v-5H378.4L378.4,177.6z
	 M402,165.8v10.9h10.9v-10.9H402L402,165.8z M384.3,207.2v5h5v-5H384.3L384.3,207.2z M461.1,165.8v10.9H472v-10.9H461.1L461.1,165.8
	z M384.3,177.6v5h5v-5H384.3L384.3,177.6z M390.2,165.8v10.9h10.9v-10.9H390.2L390.2,165.8z M408,154v5h5v-5H408L408,154z
	 M425.7,124.5v5h5v-5H425.7L425.7,124.5z M467,136.3v5h5v-5H467L467,136.3z M431.6,124.5v5h5v-5H431.6L431.6,124.5z M402,154v5h5v-5
	H402L402,154z M461.1,136.3v5h5v-5H461.1L461.1,136.3z M413.9,224.9v5h5v-5H413.9L413.9,224.9z M413.9,230.8v10.9h10.9v-10.9H413.9
	L413.9,230.8z M419.8,224.9v5h5v-5H419.8L419.8,224.9z M413.9,242.6v5h5v-5H413.9L413.9,242.6z M419.8,242.6v5h5v-5H419.8
	L419.8,242.6z M402,295.7v22.7h22.7v-22.7H402L402,295.7z M396.1,307.6v5h5v-5H396.1L396.1,307.6z M396.1,301.7v5h5v-5H396.1
	L396.1,301.7z M396.1,313.5v5h5v-5H396.1L396.1,313.5z M396.1,295.7v5h5v-5H396.1L396.1,295.7z M408,236.7v5h5v-5H408L408,236.7z
	 M408,230.8v5h5v-5H408L408,230.8z M408,242.6v5h5v-5H408L408,242.6z M408,224.9v5h5v-5H408L408,224.9z M402,236.7v5h5v-5H402
	L402,236.7z M402,230.8v5h5v-5H402L402,230.8z M402,242.6v5h5v-5H402L402,242.6z M402,224.9v5h5v-5H402L402,224.9z M437.5,295.7
	v10.9h10.9v-10.9H437.5L437.5,295.7z M437.5,307.6v10.9h10.9v-10.9H437.5L437.5,307.6z M384.3,283.9v10.9h10.9v-10.9H384.3
	L384.3,283.9z M384.3,295.7v10.9h10.9v-10.9H384.3L384.3,295.7z M384.3,307.6v10.9h10.9v-10.9H384.3L384.3,307.6z M390.2,278v5h5v-5
	H390.2L390.2,278z M384.3,278v5h5v-5H384.3L384.3,278z M378.4,283.9v5h5v-5H378.4L378.4,283.9z M378.4,278v5h5v-5H378.4L378.4,278z
	 M378.4,289.8v5h5v-5H378.4L378.4,289.8z M378.4,272.1v5h5v-5H378.4L378.4,272.1z M378.4,307.6v5h5v-5H378.4L378.4,307.6z
	 M378.4,301.7v5h5v-5H378.4L378.4,301.7z M378.4,313.5v5h5v-5H378.4L378.4,313.5z M378.4,295.7v5h5v-5H378.4L378.4,295.7z
	 M425.7,295.7v10.9h10.9v-10.9H425.7L425.7,295.7z M425.7,307.6v10.9h10.9v-10.9H425.7L425.7,307.6z M424.7,283.9h-5v5h5V283.9
	L424.7,283.9z M424.7,278h-5v5h5V278L424.7,278z M424.7,289.8h-5v5h5V289.8L424.7,289.8z M424.7,272.1h-5v5h5V272.1L424.7,272.1z
	 M396.1,272.1v22.7h22.7v-22.7H396.1L396.1,272.1z M461.1,201.3v10.9H472v-10.9H461.1L461.1,201.3z M461.1,213.1v10.9H472v-10.9
	H461.1L461.1,213.1z"/>
</svg>
