<svg id="Layer_1" data-name="Layer 1" xmlns="http://www.w3.org/2000/svg" viewBox="0 0 218.13 218.05"><defs><style>.cls-1{fill:#66595d;}.cls-2{fill:#ffc825;}.cls-3{fill:#594c50;}.cls-4{fill:#e7a624;}.cls-5{fill:none;}.cls-6{fill:#fff;}.cls-7{fill:#e64a30;}</style></defs><title>logo_yellow_outline</title><path class="cls-1" d="M34.37,109a74.66,74.66,0,0,1,74.5-74.7V23.22C96,23.12,85,15.52,81,4.92a106.74,106.74,0,0,0-26,10.9c4.7,10.4,2.2,23.6-6.9,32.8s-22.2,11.6-32.6,7a102.47,102.47,0,0,0-10.7,26c10.5,4.1,17.9,15.1,17.9,28,0,12.7-7.3,23.6-17.7,27.8a108.41,108.41,0,0,0,10.9,26c10.3-4.2,23.1-1.7,32,7.3s11.5,21.6,7.3,31.9a103.15,103.15,0,0,0,26.1,10.7c4.3-10.1,15-17.2,27.5-17.3v-12.3A74.64,74.64,0,0,1,34.37,109Z"/><path class="cls-2" d="M83.6,218.05l-3.33-.86a107.58,107.58,0,0,1-27.11-11.11l-3-1.75,1.31-3.22c3.66-9,1.08-20.06-6.42-27.56s-18.58-10.13-27.66-6.42l-3.22,1.31-1.75-3a112.59,112.59,0,0,1-11.3-27L.18,135l3.29-1.33c9.09-3.67,15.2-13.35,15.2-24.09,0-10.93-6.17-20.69-15.35-24.27L0,84l.9-3.44A106.2,106.2,0,0,1,12,53.59l1.81-3.07L17.09,52c9.12,4,20.43,1.55,28.15-6.17s10.2-19.22,6.08-28.32l-1.48-3.28,3.1-1.82a110.38,110.38,0,0,1,27-11.31l3.51-1,1.28,3.4c3.51,9.31,13.24,15.63,24.19,15.71l4,0V38.31h-4a70.7,70.7,0,0,0-.1,141.4h4V200l-4,0c-10.68.09-20,5.92-23.85,14.87ZM60,200.75a99.63,99.63,0,0,0,19.13,7.84c5.13-9,14.66-15.07,25.61-16.33v-4.65a78.7,78.7,0,0,1,.1-157.18V27C93.59,25.65,83.73,19.13,78.76,9.72a102.42,102.42,0,0,0-18.84,7.89c3.53,11.4.13,24.58-9,33.82S28.68,64,17.28,60.55A98.27,98.27,0,0,0,9.53,79.43c10.38,5.63,17.14,17.31,17.14,30.19,0,12.66-6.67,24.25-16.92,29.94a104.66,104.66,0,0,0,8,19c11.31-3.11,24.17.43,33,9.34C59.69,176.89,63.17,189.45,60,200.75Z"/><path class="cls-3" d="M195.47,109.62c0-12.9,7.5-23.8,17.9-28a104.68,104.68,0,0,0-10.7-26.1c-10.4,4.5-23.4,2.1-32.6-7s-11.6-22.4-6.9-32.8a108.41,108.41,0,0,0-26-10.9c-4,10.7-15.1,18.3-28.1,18.3h-.2v11.1h.2a74.7,74.7,0,1,1,0,149.4h-.2v12.3h.2c12.6,0,23.4,7.2,27.7,17.3a108.59,108.59,0,0,0,26.1-10.7c-4.1-10.2-1.6-22.9,7.3-31.9s21.8-11.5,32-7.3a108.41,108.41,0,0,0,10.9-26C202.77,133.22,195.47,122.32,195.47,109.62Z"/><path class="cls-2" d="M134.44,218l-1.35-3.17c-3.79-8.89-13.44-14.87-24-14.87h-4.2v-20.3h4.2a70.7,70.7,0,0,0,0-141.4h-4.2V19.12h4.2c11.06,0,20.84-6.31,24.35-15.7L134.7,0l3.52,1a112.63,112.63,0,0,1,27,11.3l3.13,1.81-1.49,3.29c-4.14,9.16-1.7,20.55,6.08,28.32s19,10.11,28.18,6.16l3.26-1.41,1.78,3.08a108.57,108.57,0,0,1,11.11,27.1l.89,3.4-3.26,1.32c-9.21,3.72-15.4,13.48-15.4,24.29s6.06,20.39,15.08,24l3.32,1.32-.94,3.44a112.68,112.68,0,0,1-11.3,27l-1.75,3L200.65,167c-9-3.7-20.1-1.12-27.65,6.43s-10.08,18.47-6.42,27.58l1.3,3.24-3,1.73a112.31,112.31,0,0,1-27.07,11.09Zm-21.57-25.84c11,1.17,20.81,7.36,26,16.36A104.32,104.32,0,0,0,158,200.62c-3.06-11.26.4-23.8,9.31-32.81s21.76-12.43,33-9.34a104.72,104.72,0,0,0,8-19c-10.19-5.63-16.81-17.18-16.81-29.85s6.76-24.43,17.15-30.16a100.66,100.66,0,0,0-7.78-19c-11.49,3.45-24.32.08-33.58-9.08s-12.6-22.37-9-33.83a104.68,104.68,0,0,0-18.82-7.9c-5,9.55-15,16.1-26.52,17.3v3.39a78.7,78.7,0,0,1,0,157.22Z"/><path class="cls-4" d="M109.07,28.12h-.2V190h.2a81,81,0,1,0,0-161.9Z"/><path class="cls-2" d="M28.17,109.12a81,81,0,0,0,80.7,81v-162A81,81,0,0,0,28.17,109.12Z"/><path class="cls-5" d="M109.07,34.32h-.2v0a74.7,74.7,0,0,0,0,149.4v0h.2a74.7,74.7,0,1,0,0-149.4Z"/><path class="cls-1" d="M34.37,109a74.66,74.66,0,0,1,74.5-74.7V23.22C96,23.12,85,15.52,81,4.92a106.74,106.74,0,0,0-26,10.9c4.7,10.4,2.2,23.6-6.9,32.8s-22.2,11.6-32.6,7a102.47,102.47,0,0,0-10.7,26c10.5,4.1,17.9,15.1,17.9,28,0,12.7-7.3,23.6-17.7,27.8a108.41,108.41,0,0,0,10.9,26c10.3-4.2,23.1-1.7,32,7.3s11.5,21.6,7.3,31.9a103.15,103.15,0,0,0,26.1,10.7c4.3-10.1,15-17.2,27.5-17.3v-12.3A74.64,74.64,0,0,1,34.37,109Z"/><path class="cls-3" d="M195.47,109.62c0-12.9,7.5-23.8,17.9-28a104.68,104.68,0,0,0-10.7-26.1c-10.4,4.5-23.4,2.1-32.6-7s-11.6-22.4-6.9-32.8a108.41,108.41,0,0,0-26-10.9c-4,10.7-15.1,18.3-28.1,18.3h-.2v11.1h.2a74.7,74.7,0,1,1,0,149.4h-.2v12.3h.2c12.6,0,23.4,7.2,27.7,17.3a108.59,108.59,0,0,0,26.1-10.7c-4.1-10.2-1.6-22.9,7.3-31.9s21.8-11.5,32-7.3a108.41,108.41,0,0,0,10.9-26C202.77,133.22,195.47,122.32,195.47,109.62Z"/><path class="cls-5" d="M109.07,34.32h-.2v0a74.7,74.7,0,0,0,0,149.4v0h.2a74.7,74.7,0,1,0,0-149.4Z"/><circle class="cls-6" cx="109.07" cy="109.12" r="64.9"/><circle class="cls-5" cx="109.07" cy="109.02" r="74.7"/><path class="cls-7" d="M109.07,44.22a64.95,64.95,0,0,0-55.5,98.6V81.92h42.5a12.77,12.77,0,0,1,9.2,3.8,12.61,12.61,0,0,1,3.8,9.2,12.77,12.77,0,0,1,3.8-9.2,12.61,12.61,0,0,1,9.2-3.8h42.3v12.3h-42.3a.63.63,0,0,0-.7.7v28.6a.63.63,0,0,0,.7.7h42.5v12.3h-42.5a12.77,12.77,0,0,1-9.2-3.8,12.61,12.61,0,0,1-3.8-9.2,12.77,12.77,0,0,1-3.8,9.2,12.61,12.61,0,0,1-9.2,3.8H66v21a64.86,64.86,0,1,0,43.1-113.3Z"/><path class="cls-7" d="M96.07,124.22a.63.63,0,0,0,.7-.7V94.92a.63.63,0,0,0-.7-.7H66.67a.63.63,0,0,0-.7.7v28.6a.63.63,0,0,0,.7.7Z"/></svg>