<svg id="Layer_1" data-name="Layer 1" xmlns="http://www.w3.org/2000/svg" viewBox="0 0 222.89 222.82"><defs><style>.cls-1{fill:#66595d;}.cls-2{fill:#fff;}.cls-3{fill:#594c50;}.cls-4{fill:#e7a624;}.cls-5{fill:#ffc825;}.cls-6{fill:none;}.cls-7{fill:#e64a30;}</style></defs><title>logo_wht_outline</title><path class="cls-1" d="M36.75,111.42a74.66,74.66,0,0,1,74.5-74.7V25.62c-12.9-.1-23.9-7.7-27.9-18.3a106.74,106.74,0,0,0-26,10.9c4.7,10.4,2.2,23.6-6.9,32.8s-22.2,11.6-32.6,7A102.47,102.47,0,0,0,7.15,84c10.5,4.1,17.9,15.1,17.9,28,0,12.7-7.3,23.6-17.7,27.8a108.41,108.41,0,0,0,10.9,26c10.3-4.2,23.1-1.7,32,7.3s11.5,21.6,7.3,31.9a103.15,103.15,0,0,0,26.1,10.7c4.3-10.1,15-17.2,27.5-17.3v-12.3A74.64,74.64,0,0,1,36.75,111.42Z"/><path class="cls-2" d="M87.15,222.82l-5-1.29a109.58,109.58,0,0,1-27.61-11.32L50,207.59l2-4.83c3.36-8.24,1-18.45-6-25.39s-17.15-9.39-25.49-6l-4.83,2-2.62-4.52A114.61,114.61,0,0,1,1.56,141.4l-1.4-5.14,4.94-2C13.45,130.89,19.05,122,19.05,112c0-10.12-5.66-19.12-14.08-22.41L0,87.67l1.35-5.16A108.22,108.22,0,0,1,12.68,55l2.71-4.61,4.89,2.16c8.37,3.7,18.79,1.39,25.93-5.76S55.66,29,51.88,20.7l-2.22-4.91,4.65-2.73A112.4,112.4,0,0,1,81.78,1.53L87,.1,89,5.21c3.22,8.55,12.2,14.34,22.33,14.42l6,0v23h-6a68.7,68.7,0,0,0-.1,137.4h6v24.24l-6,0c-9.89.08-18.53,5.44-22,13.65ZM64.73,202.12a97.55,97.55,0,0,0,15.9,6.51,35.65,35.65,0,0,1,24.52-15.71v-1a80.81,80.81,0,0,1-74.28-76.13,36.16,36.16,0,0,1-16.35,27.12,102.67,102.67,0,0,0,6.63,15.78c11.6-2.57,24.45,1.23,33.36,10.25C63.6,178,67.34,190.55,64.73,202.12ZM14.29,80.9c9.11,5.57,15.32,15.63,16.54,27a80.33,80.33,0,0,1,19-48.52,35.87,35.87,0,0,1-29.18,6A96.25,96.25,0,0,0,14.29,80.9ZM64.66,21a35.93,35.93,0,0,1-5.78,29.23A80.34,80.34,0,0,1,104.64,31,35.85,35.85,0,0,1,80.19,14.52,100.48,100.48,0,0,0,64.66,21Z"/><path class="cls-3" d="M197.85,112c0-12.9,7.5-23.8,17.9-28a104.68,104.68,0,0,0-10.7-26.1c-10.4,4.5-23.4,2.1-32.6-7s-11.6-22.4-6.9-32.8a108.41,108.41,0,0,0-26-10.9c-4,10.7-15.1,18.3-28.1,18.3h-.2v11.1h.2a74.7,74.7,0,1,1,0,149.4h-.2v12.3h.2c12.6,0,23.4,7.2,27.7,17.3a108.59,108.59,0,0,0,26.1-10.7c-4.1-10.2-1.6-22.9,7.3-31.9s21.8-11.5,32-7.3a108.41,108.41,0,0,0,10.9-26C205.15,135.62,197.85,124.72,197.85,112Z"/><path class="cls-2" d="M135.66,222.74l-2-4.76c-3.48-8.17-12.39-13.65-22.18-13.65h-6.2V180h6.2a68.7,68.7,0,1,0,0-137.4h-6.2V19.52h6.2c10.23,0,19.26-5.79,22.48-14.4L135.85,0l5.28,1.43a114.65,114.65,0,0,1,27.44,11.5l4.69,2.72L171,20.6c-3.8,8.41-1.52,18.89,5.67,26.09s17.58,9.37,26,5.74l4.9-2.12,2.68,4.61a110.58,110.58,0,0,1,11.32,27.6l1.33,5.1-4.89,2C209.54,93,203.85,102,203.85,112s5.55,18.83,13.82,22.13l5,2-1.4,5.17a114.62,114.62,0,0,1-11.5,27.44l-2.63,4.53-4.84-2c-8.25-3.4-18.49-1-25.47,6s-9.29,17.18-6,25.42l2,4.87-4.56,2.59a114.26,114.26,0,0,1-27.55,11.29Zm-18.41-30a36.3,36.3,0,0,1,24.9,15.75A102.41,102.41,0,0,0,158.08,202c-2.53-11.53,1.2-24.07,10.2-33.17s21.85-12.8,33.37-10.25a102.69,102.69,0,0,0,6.62-15.76c-9-5.62-15.14-15.73-16.25-27.06a80.82,80.82,0,0,1-74.78,76.08Zm55.82-133.5a80.34,80.34,0,0,1,19,48.61,36.36,36.36,0,0,1,16.55-26.94,98.67,98.67,0,0,0-6.44-15.74A35.54,35.54,0,0,1,173.08,59.27ZM118.3,30.91a80.34,80.34,0,0,1,45.63,19.15,35.75,35.75,0,0,1-5.7-29.12,102.68,102.68,0,0,0-15.51-6.52A35.65,35.65,0,0,1,118.3,30.91Z"/><path class="cls-4" d="M111.45,30.52h-.2v161.9h.2a81,81,0,1,0,0-161.9Z"/><path class="cls-5" d="M30.55,111.52a81,81,0,0,0,80.7,81v-162A81,81,0,0,0,30.55,111.52Z"/><path class="cls-6" d="M111.45,36.72h-.2v0a74.7,74.7,0,0,0,0,149.4v0h.2a74.7,74.7,0,1,0,0-149.4Z"/><path class="cls-1" d="M36.75,111.42a74.66,74.66,0,0,1,74.5-74.7V25.62c-12.9-.1-23.9-7.7-27.9-18.3a106.74,106.74,0,0,0-26,10.9c4.7,10.4,2.2,23.6-6.9,32.8s-22.2,11.6-32.6,7A102.47,102.47,0,0,0,7.15,84c10.5,4.1,17.9,15.1,17.9,28,0,12.7-7.3,23.6-17.7,27.8a108.41,108.41,0,0,0,10.9,26c10.3-4.2,23.1-1.7,32,7.3s11.5,21.6,7.3,31.9a103.15,103.15,0,0,0,26.1,10.7c4.3-10.1,15-17.2,27.5-17.3v-12.3A74.64,74.64,0,0,1,36.75,111.42Z"/><path class="cls-3" d="M197.85,112c0-12.9,7.5-23.8,17.9-28a104.68,104.68,0,0,0-10.7-26.1c-10.4,4.5-23.4,2.1-32.6-7s-11.6-22.4-6.9-32.8a108.41,108.41,0,0,0-26-10.9c-4,10.7-15.1,18.3-28.1,18.3h-.2v11.1h.2a74.7,74.7,0,1,1,0,149.4h-.2v12.3h.2c12.6,0,23.4,7.2,27.7,17.3a108.59,108.59,0,0,0,26.1-10.7c-4.1-10.2-1.6-22.9,7.3-31.9s21.8-11.5,32-7.3a108.41,108.41,0,0,0,10.9-26C205.15,135.62,197.85,124.72,197.85,112Z"/><path class="cls-6" d="M111.45,36.72h-.2v0a74.7,74.7,0,0,0,0,149.4v0h.2a74.7,74.7,0,1,0,0-149.4Z"/><circle class="cls-2" cx="111.45" cy="111.52" r="64.9"/><circle class="cls-6" cx="111.45" cy="111.42" r="74.7"/><path class="cls-7" d="M111.45,46.62A64.95,64.95,0,0,0,56,145.22V84.32h42.5a12.77,12.77,0,0,1,9.2,3.8,12.61,12.61,0,0,1,3.8,9.2,12.77,12.77,0,0,1,3.8-9.2,12.61,12.61,0,0,1,9.2-3.8h42.3v12.3h-42.3a.63.63,0,0,0-.7.7v28.6a.63.63,0,0,0,.7.7H167v12.3h-42.5a12.77,12.77,0,0,1-9.2-3.8,12.61,12.61,0,0,1-3.8-9.2,12.77,12.77,0,0,1-3.8,9.2,12.61,12.61,0,0,1-9.2,3.8H68.35v21a64.86,64.86,0,1,0,43.1-113.3Z"/><path class="cls-7" d="M98.45,126.62a.63.63,0,0,0,.7-.7V97.32a.63.63,0,0,0-.7-.7H69.05a.63.63,0,0,0-.7.7v28.6a.63.63,0,0,0,.7.7Z"/></svg>