<?xml version="1.0" encoding="utf-8"?>
<!-- Generator: Adobe Illustrator 21.0.2, SVG Export Plug-In . SVG Version: 6.00 Build 0)  -->
<svg version="1.1" id="Capa_1" xmlns="http://www.w3.org/2000/svg" xmlns:xlink="http://www.w3.org/1999/xlink" x="0px" y="0px"
	 viewBox="0 0 287.4 287.4" style="enable-background:new 0 0 287.4 287.4;" xml:space="preserve">
<style type="text/css">
	.st0{fill:#FFFFFF;}
</style>
<g>
	<g>
		<path class="st0" d="M62.7,155.4v98.4c0,5.9,4.7,10.6,10.6,10.6c5.9,0,10.6-4.7,10.6-10.6v-98.4c0-5.9-4.8-10.6-10.6-10.6
			C67.5,144.8,62.7,149.6,62.7,155.4z"/>
		<path class="st0" d="M29.5,264.6h23.4V147.7c0.1-0.6,0.2-1.1,0.2-1.7c0-50.4,40.7-91.4,90.7-91.4c50,0,90.7,41,90.7,91.4
			c0,0.8,0.1,1.5,0.2,2.3v116.3h23.4c16.3,0,29.4-13.6,29.4-30.5v-60.9c0-13.9-9-25.6-21.3-29.2C265,77,210.5,22.8,143.7,22.8
			C76.8,22.8,22.3,77,21.2,144C9,147.6,0,159.3,0,173.2v60.9C0,250.9,13.2,264.6,29.5,264.6z"/>
		<path class="st0" d="M203.5,155.4v98.4c0,5.9,4.7,10.6,10.6,10.6s10.6-4.7,10.6-10.6v-98.4c0-5.9-4.7-10.6-10.6-10.6
			C208.2,144.8,203.5,149.6,203.5,155.4z"/>
	</g>
</g>
</svg>
