<?xml version="1.0" encoding="utf-8"?>
<!-- Generator: Adobe Illustrator 21.0.2, SVG Export Plug-In . SVG Version: 6.00 Build 0)  -->
<svg version="1.1" id="Layer_1" xmlns="http://www.w3.org/2000/svg" xmlns:xlink="http://www.w3.org/1999/xlink" x="0px" y="0px"
	 viewBox="0 0 243.2 114.3" style="enable-background:new 0 0 243.2 114.3;" xml:space="preserve">
<style type="text/css">
	.st0{fill:#C01818;}
	.st1{fill:#75160D;}
</style>
<g id="Type">
	<g>
		<path class="st0" d="M76.2,81.4h-1.3V71.2h-3.6V70h8.5v1.2h-3.6C76.2,71.2,76.2,81.4,76.2,81.4z"/>
		<path class="st0" d="M88.7,77.2c0,1.4-0.4,2.5-1.1,3.3c-0.7,0.8-1.7,1.2-2.9,1.2c-0.8,0-1.4-0.2-2-0.5c-0.6-0.3-1-0.9-1.4-1.5
			c-0.3-0.7-0.5-1.5-0.5-2.4c0-1.4,0.3-2.5,1-3.3c0.7-0.8,1.7-1.2,2.9-1.2c1.2,0,2.1,0.4,2.8,1.2C88.4,74.7,88.7,75.8,88.7,77.2z
			 M82.2,77.2c0,1.1,0.2,1.9,0.7,2.5s1.1,0.9,1.9,0.9s1.5-0.3,1.9-0.9c0.4-0.6,0.7-1.4,0.7-2.5s-0.2-1.9-0.7-2.5
			c-0.4-0.6-1.1-0.8-1.9-0.8c-0.8,0-1.5,0.3-1.9,0.8S82.2,76.1,82.2,77.2z"/>
		<path class="st0" d="M98,72.9v0.8l-1.6,0.2c0.1,0.2,0.3,0.4,0.4,0.7c0.1,0.3,0.2,0.6,0.2,1c0,0.8-0.3,1.5-0.9,2s-1.3,0.8-2.3,0.8
			c-0.3,0-0.5,0-0.7-0.1c-0.6,0.3-0.8,0.7-0.8,1.1c0,0.2,0.1,0.4,0.3,0.5s0.5,0.2,1,0.2h1.5c0.9,0,1.6,0.2,2.1,0.6
			c0.5,0.4,0.7,1,0.7,1.7c0,0.9-0.4,1.7-1.1,2.2c-0.8,0.5-1.9,0.7-3.3,0.7c-1.1,0-2-0.2-2.6-0.6c-0.6-0.4-0.9-1-0.9-1.8
			c0-0.5,0.2-1,0.5-1.3c0.3-0.4,0.8-0.6,1.4-0.8c-0.2-0.1-0.4-0.3-0.5-0.5c-0.1-0.2-0.2-0.4-0.2-0.7c0-0.3,0.1-0.6,0.2-0.8
			c0.2-0.2,0.4-0.5,0.8-0.7c-0.4-0.2-0.8-0.5-1.1-0.9c-0.3-0.4-0.4-0.9-0.4-1.5c0-0.9,0.3-1.7,0.8-2.2c0.6-0.5,1.4-0.8,2.4-0.8
			c0.4,0,0.8,0.1,1.2,0.2C95.1,72.9,98,72.9,98,72.9z M91.2,82.9c0,0.5,0.2,0.8,0.6,1.1c0.4,0.2,0.9,0.4,1.7,0.4
			c1.1,0,1.9-0.2,2.4-0.5c0.5-0.3,0.8-0.8,0.8-1.3s-0.1-0.8-0.4-1c-0.3-0.2-0.8-0.3-1.6-0.3h-1.6c-0.6,0-1,0.1-1.4,0.4
			C91.3,82,91.2,82.4,91.2,82.9z M91.9,75.6c0,0.6,0.2,1,0.5,1.4c0.3,0.3,0.8,0.5,1.4,0.5c1.3,0,1.9-0.6,1.9-1.8
			c0-1.3-0.6-1.9-1.9-1.9c-0.6,0-1.1,0.2-1.4,0.5C92,74.5,91.9,75,91.9,75.6z"/>
		<path class="st0" d="M103.3,81.6c-1.3,0-2.3-0.4-3-1.2c-0.7-0.8-1.1-1.8-1.1-3.2s0.3-2.5,1-3.3c0.7-0.8,1.6-1.2,2.7-1.2
			s1.9,0.4,2.5,1.1c0.6,0.7,0.9,1.6,0.9,2.8v0.8h-5.9c0,1,0.3,1.8,0.8,2.3s1.2,0.8,2,0.8c0.9,0,1.8-0.2,2.7-0.6v1.2
			c-0.5,0.2-0.9,0.3-1.3,0.4C104.2,81.6,103.9,81.6,103.3,81.6z M103,73.8c-0.7,0-1.2,0.2-1.6,0.7s-0.6,1.1-0.7,1.9h4.5
			c0-0.8-0.2-1.4-0.5-1.9C104.2,74.1,103.7,73.8,103,73.8z"/>
		<path class="st0" d="M111.5,80.5c0.2,0,0.4,0,0.7-0.1c0.2,0,0.4-0.1,0.5-0.1v1c-0.1,0.1-0.3,0.1-0.6,0.2c-0.3,0-0.5,0.1-0.7,0.1
			c-1.7,0-2.5-0.9-2.5-2.6v-5.1h-1.2v-0.6l1.2-0.5l0.5-1.8h0.7v2h2.5v1h-2.5v5c0,0.5,0.1,0.9,0.4,1.2
			C110.8,80.5,111,80.5,111.5,80.5z"/>
		<path class="st0" d="M120.2,81.4v-5.5c0-0.7-0.2-1.2-0.5-1.6c-0.3-0.3-0.8-0.5-1.5-0.5c-0.9,0-1.6,0.2-2,0.7s-0.6,1.3-0.6,2.4v4.5
			h-1.3V69.3h1.3V73c0,0.4,0,0.8-0.1,1.1h0.1c0.3-0.4,0.6-0.7,1.1-1c0.5-0.3,1-0.4,1.6-0.4c1,0,1.8,0.2,2.3,0.7s0.8,1.3,0.8,2.4v5.6
			H120.2z"/>
		<path class="st0" d="M127.7,81.6c-1.3,0-2.3-0.4-3-1.2c-0.7-0.8-1.1-1.8-1.1-3.2s0.3-2.5,1-3.3c0.7-0.8,1.6-1.2,2.7-1.2
			s1.9,0.4,2.5,1.1c0.6,0.7,0.9,1.6,0.9,2.8v0.8h-5.9c0,1,0.3,1.8,0.8,2.3s1.2,0.8,2,0.8c0.9,0,1.8-0.2,2.7-0.6v1.2
			c-0.5,0.2-0.9,0.3-1.3,0.4C128.6,81.6,128.3,81.6,127.7,81.6z M127.4,73.8c-0.7,0-1.2,0.2-1.6,0.7s-0.6,1.1-0.7,1.9h4.5
			c0-0.8-0.2-1.4-0.5-1.9C128.6,74.1,128.1,73.8,127.4,73.8z"/>
		<path class="st0" d="M137,72.8c0.4,0,0.7,0,1,0.1l-0.2,1.2c-0.4-0.1-0.7-0.1-0.9-0.1c-0.7,0-1.3,0.3-1.8,0.8s-0.7,1.3-0.7,2.1v4.5
			h-1.3v-8.5h1.1l0.1,1.6h0.1c0.3-0.6,0.7-1,1.1-1.3C135.9,72.9,136.4,72.8,137,72.8z"/>
		<path class="st0" d="M143.6,70.6c0-0.3,0.1-0.5,0.2-0.7c0.1-0.1,0.3-0.2,0.5-0.2s0.4,0.1,0.5,0.2c0.2,0.1,0.2,0.4,0.2,0.6
			c0,0.3-0.1,0.5-0.2,0.7c-0.2,0.1-0.3,0.2-0.5,0.2s-0.4-0.1-0.5-0.2C143.7,71.1,143.6,70.9,143.6,70.6z M145,81.4h-1.3v-8.5h1.3
			V81.4z"/>
		<path class="st0" d="M153.3,79.1c0,0.8-0.3,1.4-0.9,1.8c-0.6,0.4-1.4,0.6-2.5,0.6c-1.1,0-2-0.2-2.6-0.5v-1.2
			c0.4,0.2,0.9,0.4,1.3,0.5c0.5,0.1,0.9,0.2,1.4,0.2c0.7,0,1.2-0.1,1.6-0.3c0.4-0.2,0.5-0.5,0.5-1c0-0.3-0.1-0.6-0.4-0.9
			c-0.3-0.2-0.9-0.5-1.7-0.8c-0.8-0.3-1.4-0.6-1.7-0.8c-0.3-0.2-0.6-0.5-0.7-0.8c-0.1-0.3-0.2-0.6-0.2-1c0-0.7,0.3-1.2,0.8-1.6
			c0.6-0.4,1.3-0.6,2.3-0.6c0.9,0,1.8,0.2,2.7,0.6l-0.5,1.1c-0.9-0.4-1.6-0.5-2.3-0.5c-0.6,0-1.1,0.1-1.4,0.3
			c-0.3,0.2-0.5,0.5-0.5,0.8c0,0.2,0.1,0.4,0.2,0.6c0.1,0.2,0.3,0.3,0.6,0.5c0.3,0.1,0.8,0.4,1.5,0.6c1,0.4,1.7,0.7,2.1,1.1
			C153.1,78.1,153.3,78.6,153.3,79.1z"/>
		<path class="st0" d="M163.5,81.6c-0.6,0-1.1-0.1-1.5-0.3c-0.5-0.2-0.8-0.5-1.2-0.9h-0.1c0.1,0.5,0.1,1,0.1,1.4v3.5h-1.3V72.9h1.1
			l0.2,1.2h0.1c0.3-0.5,0.7-0.8,1.2-1c0.5-0.2,0.9-0.3,1.5-0.3c1.1,0,2,0.4,2.6,1.2c0.6,0.8,0.9,1.9,0.9,3.3s-0.3,2.5-0.9,3.3
			C165.5,81.2,164.6,81.6,163.5,81.6z M163.3,73.9c-0.9,0-1.5,0.2-1.9,0.7s-0.6,1.3-0.6,2.3v0.3c0,1.2,0.2,2.1,0.6,2.6
			s1,0.8,1.9,0.8c0.7,0,1.3-0.3,1.7-0.9s0.6-1.4,0.6-2.5s-0.2-1.9-0.6-2.5C164.7,74.1,164.1,73.9,163.3,73.9z"/>
		<path class="st0" d="M176.7,77.2c0,1.4-0.4,2.5-1.1,3.3c-0.7,0.8-1.7,1.2-2.9,1.2c-0.8,0-1.4-0.2-2-0.5c-0.6-0.3-1-0.9-1.4-1.5
			c-0.3-0.7-0.5-1.5-0.5-2.4c0-1.4,0.3-2.5,1-3.3c0.7-0.8,1.7-1.2,2.9-1.2s2.1,0.4,2.8,1.2C176.3,74.7,176.7,75.8,176.7,77.2z
			 M170.2,77.2c0,1.1,0.2,1.9,0.7,2.5s1.1,0.9,1.9,0.9s1.5-0.3,1.9-0.9c0.4-0.6,0.7-1.4,0.7-2.5s-0.2-1.9-0.7-2.5
			c-0.4-0.6-1.1-0.8-1.9-0.8c-0.8,0-1.5,0.3-1.9,0.8S170.2,76.1,170.2,77.2z"/>
		<path class="st0" d="M185.9,81.4l-1.6-5c-0.1-0.3-0.3-1-0.6-2.1h-0.1c-0.2,0.9-0.4,1.6-0.5,2.1l-1.6,5H180l-2.3-8.5h1.4
			c0.6,2.1,1,3.8,1.3,4.9c0.3,1.1,0.5,1.9,0.5,2.3h0.1c0.1-0.3,0.1-0.7,0.3-1.1c0.1-0.5,0.2-0.8,0.3-1.1l1.6-4.9h1.4l1.5,4.9
			c0.3,0.9,0.5,1.6,0.6,2.3h0.1c0-0.2,0.1-0.5,0.2-0.9c0.1-0.4,0.6-2.5,1.6-6.3h1.3l-2.4,8.4H185.9z"/>
		<path class="st0" d="M195,81.6c-1.3,0-2.3-0.4-3-1.2c-0.7-0.8-1.1-1.8-1.1-3.2s0.3-2.5,1-3.3c0.7-0.8,1.6-1.2,2.7-1.2
			c1.1,0,1.9,0.4,2.5,1.1c0.6,0.7,0.9,1.6,0.9,2.8v0.8h-5.9c0,1,0.3,1.8,0.8,2.3s1.2,0.8,2,0.8c0.9,0,1.8-0.2,2.7-0.6v1.2
			c-0.5,0.2-0.9,0.3-1.3,0.4C195.9,81.6,195.5,81.6,195,81.6z M194.6,73.8c-0.7,0-1.2,0.2-1.6,0.7s-0.6,1.1-0.7,1.9h4.5
			c0-0.8-0.2-1.4-0.5-1.9C195.8,74.1,195.3,73.8,194.6,73.8z"/>
		<path class="st0" d="M204.2,72.8c0.4,0,0.7,0,1,0.1l-0.2,1.2c-0.4-0.1-0.7-0.1-0.9-0.1c-0.7,0-1.3,0.3-1.8,0.8s-0.7,1.3-0.7,2.1
			v4.5h-1.3v-8.5h1.1l0.1,1.6h0.1c0.3-0.6,0.7-1,1.1-1.3C203.2,72.9,203.7,72.8,204.2,72.8z"/>
		<path class="st0" d="M206.6,80.6c0-0.3,0.1-0.6,0.2-0.8c0.2-0.2,0.4-0.3,0.7-0.3s0.5,0.1,0.7,0.3c0.2,0.2,0.3,0.4,0.3,0.8
			c0,0.3-0.1,0.6-0.3,0.8c-0.2,0.2-0.4,0.3-0.7,0.3s-0.5-0.1-0.7-0.2C206.7,81.3,206.6,81,206.6,80.6z"/>
	</g>
</g>
<path class="st0" d="M119.6,51.6l-4.8-2.8l-0.3,0.5c-1.1,1.7-2.6,2.6-4.4,2.6c-3.1,0-5.5-2.4-5.5-5.5c0-3.1,2.4-5.5,5.5-5.5
	c1.9,0,3.3,0.8,4.4,2.6l0.4,0.5l4.8-2.8l-0.4-0.6c-2.3-3.3-5.3-4.9-9.1-4.9c-7.3,0-11.2,5.5-11.2,10.7s3.9,10.8,11.2,10.8
	c3.7,0,7.2-1.9,9.1-4.9L119.6,51.6z"/>
<path class="st0" d="M119.4,57.1h6.6l2-4.9h9.9l2,4.9h6.6l-12-28.5h-5.9l1.6,3.8L119.4,57.1 M132.9,39.8l2.7,6.7h-5.4L132.9,39.8z"
	/>
<path class="st0" d="M149.1,57.1h5.8V44.3h3.8v-5.4h-3.8v-2.5c0-1.1,0.7-2.2,2.1-2.2c0.7,0,1.2,0.1,1.6,0.3l0.6,0.3l2.4-5.2
	l-0.7-0.3c-1.1-0.4-2.6-0.6-3.6-0.6c-2.6,0-4.8,0.9-6.2,2.5c-1.3,1.4-2,3.4-2,5.5V39h-2.6v5.4h2.5L149.1,57.1z"/>
<polygon class="st0" points="71.6,28.4 71.6,57.1 77.9,57.1 77.9,40.7 84,45.2 90.1,40.7 90.1,57.1 96.4,57.1 96.4,28.4 84,37.8 "/>
<path class="st0" d="M171.6,35.7c-7.3,0-11.2,5.5-11.2,10.7s3.9,10.7,11.2,10.7l0,0l0,0c3.3,0,6.5-1.6,8.9-4.3l-4.7-2.6
	c-1.2,1.2-2.7,1.9-4.3,1.9c-2.4,0-4.5-1.6-5-3.6h15.7v-1.4C182.2,39.2,176,35.7,171.6,35.7z M166.6,43.7c0.8-2,2.4-3.1,4.5-3.1
	s3.8,1.1,4.7,3.1L166.6,43.7z"/>
<path class="st0" d="M195.2,35.7c-7.3,0-11.2,5.5-11.2,10.7s3.9,10.7,11.2,10.7l0,0l0,0c3.3,0,6.5-1.6,8.9-4.3l-4.7-2.6
	c-1.2,1.2-2.7,1.9-4.3,1.9c-2.4,0-4.5-1.6-5-3.6h15.7v-1.4C205.8,39.2,199.6,35.7,195.2,35.7z M190.2,43.8c0.8-2,2.4-3.1,4.5-3.1
	s3.8,1.1,4.7,3.1H190.2z"/>
<path class="st0" d="M205,34.7h2.4v0.5h-1v2.6h-0.5v-2.6h-1v-0.5H205z"/>
<path class="st0" d="M207.8,34.7h0.7l0.8,2.4l0,0l0.8-2.4h0.7v3h-0.3v-2.3l0,0l-0.8,2.3h-0.4l-1-2.3l0,0v2.3h-0.5V34.7z"/>
<polygon class="st0" points="34.9,52.8 34.9,38.3 44,42.6 44,35.6 28.5,28.4 28.5,56.9 44,64.1 44,57.1 "/>
<polygon class="st1" points="53.2,52.8 53.2,38.3 44,42.6 44,35.6 59.5,28.4 59.5,56.9 44,64.1 44,57.1 "/>
</svg>
