<?xml version="1.0" encoding="utf-8"?>
<!-- Generator: Adobe Illustrator 21.0.2, SVG Export Plug-In . SVG Version: 6.00 Build 0)  -->
<svg version="1.1" id="Слой_1" xmlns="http://www.w3.org/2000/svg" xmlns:xlink="http://www.w3.org/1999/xlink" x="0px" y="0px"
	 viewBox="0 0 239.7 114.3" style="enable-background:new 0 0 239.7 114.3;" xml:space="preserve">
<style type="text/css">
	.st0{fill:#FFFFFF;}
</style>
<g id="Type">
	<g>
		<path class="st0" d="M76.4,81.7h-1.3V71.5h-3.6v-1.2H80v1.2h-3.6C76.4,71.5,76.4,81.7,76.4,81.7z"/>
		<path class="st0" d="M88.9,77.5c0,1.4-0.4,2.5-1.1,3.3c-0.7,0.8-1.7,1.2-2.9,1.2c-0.8,0-1.4-0.2-2-0.5s-1-0.9-1.4-1.5
			c-0.3-0.7-0.5-1.5-0.5-2.4c0-1.4,0.3-2.5,1-3.3c0.7-0.8,1.7-1.2,2.9-1.2s2.1,0.4,2.8,1.2C88.6,75,88.9,76.1,88.9,77.5z M82.4,77.5
			c0,1.1,0.2,1.9,0.7,2.5s1.1,0.9,1.9,0.9s1.5-0.3,1.9-0.9c0.4-0.6,0.7-1.4,0.7-2.5s-0.2-1.9-0.7-2.5c-0.4-0.6-1.1-0.8-1.9-0.8
			c-0.8,0-1.5,0.3-1.9,0.8C82.7,75.5,82.4,76.4,82.4,77.5z"/>
		<path class="st0" d="M98.2,73.2V74l-1.6,0.2c0.1,0.2,0.3,0.4,0.4,0.7c0.1,0.3,0.2,0.6,0.2,1c0,0.8-0.3,1.5-0.9,2
			c-0.6,0.5-1.3,0.8-2.3,0.8c-0.3,0-0.5,0-0.7-0.1c-0.6,0.3-0.8,0.7-0.8,1.1c0,0.2,0.1,0.4,0.3,0.5c0.2,0.1,0.5,0.2,1,0.2h1.5
			c0.9,0,1.6,0.2,2.1,0.6c0.5,0.4,0.7,1,0.7,1.7c0,0.9-0.4,1.7-1.1,2.2c-0.8,0.5-1.9,0.7-3.3,0.7c-1.1,0-2-0.2-2.6-0.6
			c-0.6-0.4-0.9-1-0.9-1.8c0-0.5,0.2-1,0.5-1.3c0.3-0.4,0.8-0.6,1.4-0.8c-0.2-0.1-0.4-0.3-0.5-0.5c-0.1-0.2-0.2-0.4-0.2-0.7
			c0-0.3,0.1-0.6,0.2-0.8c0.2-0.2,0.4-0.5,0.8-0.7c-0.4-0.2-0.8-0.5-1.1-0.9c-0.3-0.4-0.4-0.9-0.4-1.5c0-0.9,0.3-1.7,0.8-2.2
			c0.6-0.5,1.4-0.8,2.4-0.8c0.4,0,0.8,0.1,1.2,0.2C95.3,73.2,98.2,73.2,98.2,73.2z M91.4,83.2c0,0.5,0.2,0.8,0.6,1.1
			c0.4,0.2,0.9,0.4,1.7,0.4c1.1,0,1.9-0.2,2.4-0.5c0.5-0.3,0.8-0.8,0.8-1.3s-0.1-0.8-0.4-1s-0.8-0.3-1.6-0.3h-1.6
			c-0.6,0-1,0.1-1.4,0.4C91.5,82.3,91.4,82.7,91.4,83.2z M92.1,75.9c0,0.6,0.2,1,0.5,1.4c0.3,0.3,0.8,0.5,1.4,0.5
			c1.3,0,1.9-0.6,1.9-1.8c0-1.3-0.6-1.9-1.9-1.9c-0.6,0-1.1,0.2-1.4,0.5C92.2,74.8,92.1,75.3,92.1,75.9z"/>
		<path class="st0" d="M103.5,81.9c-1.3,0-2.3-0.4-3-1.2c-0.7-0.8-1.1-1.8-1.1-3.2s0.3-2.5,1-3.3c0.7-0.8,1.6-1.2,2.7-1.2
			c1.1,0,1.9,0.4,2.5,1.1c0.6,0.7,0.9,1.6,0.9,2.8v0.8h-5.9c0,1,0.3,1.8,0.8,2.3s1.2,0.8,2,0.8c0.9,0,1.8-0.2,2.7-0.6v1.2
			c-0.5,0.2-0.9,0.3-1.3,0.4C104.4,81.9,104.1,81.9,103.5,81.9z M103.2,74.1c-0.7,0-1.2,0.2-1.6,0.7c-0.4,0.5-0.6,1.1-0.7,1.9h4.5
			c0-0.8-0.2-1.4-0.5-1.9C104.4,74.4,103.9,74.1,103.2,74.1z"/>
		<path class="st0" d="M111.7,80.8c0.2,0,0.4,0,0.7-0.1c0.2,0,0.4-0.1,0.5-0.1v1c-0.1,0.1-0.3,0.1-0.6,0.2c-0.3,0-0.5,0.1-0.7,0.1
			c-1.7,0-2.5-0.9-2.5-2.6v-5.1h-1.2v-0.6l1.2-0.5l0.5-1.8h0.7v2h2.5v1h-2.5v5c0,0.5,0.1,0.9,0.4,1.2S111.2,80.8,111.7,80.8z"/>
		<path class="st0" d="M120.4,81.7v-5.5c0-0.7-0.2-1.2-0.5-1.6c-0.3-0.3-0.8-0.5-1.5-0.5c-0.9,0-1.6,0.2-2,0.7
			c-0.4,0.5-0.6,1.3-0.6,2.4v4.5h-1.3V69.6h1.3v3.7c0,0.4,0,0.8-0.1,1.1h0.1c0.3-0.4,0.6-0.7,1.1-1s1-0.4,1.6-0.4
			c1,0,1.8,0.2,2.3,0.7s0.8,1.3,0.8,2.4v5.6H120.4z"/>
		<path class="st0" d="M127.9,81.9c-1.3,0-2.3-0.4-3-1.2c-0.7-0.8-1.1-1.8-1.1-3.2s0.3-2.5,1-3.3c0.7-0.8,1.6-1.2,2.7-1.2
			c1.1,0,1.9,0.4,2.5,1.1c0.6,0.7,0.9,1.6,0.9,2.8v0.8H125c0,1,0.3,1.8,0.8,2.3s1.2,0.8,2,0.8c0.9,0,1.8-0.2,2.7-0.6v1.2
			c-0.5,0.2-0.9,0.3-1.3,0.4C128.8,81.9,128.5,81.9,127.9,81.9z M127.6,74.1c-0.7,0-1.2,0.2-1.6,0.7c-0.4,0.5-0.6,1.1-0.7,1.9h4.5
			c0-0.8-0.2-1.4-0.5-1.9C128.8,74.4,128.3,74.1,127.6,74.1z"/>
		<path class="st0" d="M137.2,73.1c0.4,0,0.7,0,1,0.1l-0.2,1.2c-0.4-0.1-0.7-0.1-0.9-0.1c-0.7,0-1.3,0.3-1.8,0.8s-0.7,1.3-0.7,2.1
			v4.5h-1.3v-8.5h1.1l0.1,1.6h0.1c0.3-0.6,0.7-1,1.1-1.3S136.6,73.1,137.2,73.1z"/>
		<path class="st0" d="M143.8,70.9c0-0.3,0.1-0.5,0.2-0.7c0.1-0.1,0.3-0.2,0.5-0.2s0.4,0.1,0.5,0.2c0.2,0.1,0.2,0.4,0.2,0.6
			c0,0.3-0.1,0.5-0.2,0.7c-0.2,0.1-0.3,0.2-0.5,0.2s-0.4-0.1-0.5-0.2C143.9,71.4,143.8,71.2,143.8,70.9z M145.2,81.7h-1.3v-8.5h1.3
			V81.7z"/>
		<path class="st0" d="M153.5,79.4c0,0.8-0.3,1.4-0.9,1.8c-0.6,0.4-1.4,0.6-2.5,0.6c-1.1,0-2-0.2-2.6-0.5v-1.2
			c0.4,0.2,0.9,0.4,1.3,0.5c0.5,0.1,0.9,0.2,1.4,0.2c0.7,0,1.2-0.1,1.6-0.3c0.4-0.2,0.5-0.5,0.5-1c0-0.3-0.1-0.6-0.4-0.9
			c-0.3-0.2-0.9-0.5-1.7-0.8c-0.8-0.3-1.4-0.6-1.7-0.8c-0.3-0.2-0.6-0.5-0.7-0.8c-0.1-0.3-0.2-0.6-0.2-1c0-0.7,0.3-1.2,0.8-1.6
			c0.6-0.4,1.3-0.6,2.3-0.6c0.9,0,1.8,0.2,2.7,0.6l-0.5,1.1c-0.9-0.4-1.6-0.5-2.3-0.5c-0.6,0-1.1,0.1-1.4,0.3s-0.5,0.5-0.5,0.8
			c0,0.2,0.1,0.4,0.2,0.6c0.1,0.2,0.3,0.3,0.6,0.5c0.3,0.1,0.8,0.4,1.5,0.6c1,0.4,1.7,0.7,2.1,1.1C153.3,78.4,153.5,78.9,153.5,79.4
			z"/>
		<path class="st0" d="M163.7,81.9c-0.6,0-1.1-0.1-1.5-0.3c-0.5-0.2-0.8-0.5-1.2-0.9h-0.1c0.1,0.5,0.1,1,0.1,1.4v3.5h-1.3V73.2h1.1
			l0.2,1.2h0.1c0.3-0.5,0.7-0.8,1.2-1s0.9-0.3,1.5-0.3c1.1,0,2,0.4,2.6,1.2s0.9,1.9,0.9,3.3c0,1.4-0.3,2.5-0.9,3.3
			C165.7,81.5,164.8,81.9,163.7,81.9z M163.5,74.2c-0.9,0-1.5,0.2-1.9,0.7s-0.6,1.3-0.6,2.3v0.3c0,1.2,0.2,2.1,0.6,2.6
			s1,0.8,1.9,0.8c0.7,0,1.3-0.3,1.7-0.9c0.4-0.6,0.6-1.4,0.6-2.5c0-1.1-0.2-1.9-0.6-2.5C164.9,74.4,164.3,74.2,163.5,74.2z"/>
		<path class="st0" d="M176.9,77.5c0,1.4-0.4,2.5-1.1,3.3c-0.7,0.8-1.7,1.2-2.9,1.2c-0.8,0-1.4-0.2-2-0.5s-1-0.9-1.4-1.5
			c-0.3-0.7-0.5-1.5-0.5-2.4c0-1.4,0.3-2.5,1-3.3c0.7-0.8,1.7-1.2,2.9-1.2s2.1,0.4,2.8,1.2C176.5,75,176.9,76.1,176.9,77.5z
			 M170.4,77.5c0,1.1,0.2,1.9,0.7,2.5s1.1,0.9,1.9,0.9s1.5-0.3,1.9-0.9c0.4-0.6,0.7-1.4,0.7-2.5s-0.2-1.9-0.7-2.5
			c-0.4-0.6-1.1-0.8-1.9-0.8c-0.8,0-1.5,0.3-1.9,0.8S170.4,76.4,170.4,77.5z"/>
		<path class="st0" d="M186.1,81.7l-1.6-5c-0.1-0.3-0.3-1-0.6-2.1h-0.1c-0.2,0.9-0.4,1.6-0.5,2.1l-1.6,5h-1.5l-2.3-8.5h1.4
			c0.6,2.1,1,3.8,1.3,4.9c0.3,1.1,0.5,1.9,0.5,2.3h0.1c0.1-0.3,0.1-0.7,0.3-1.1c0.1-0.5,0.2-0.8,0.3-1.1l1.6-4.9h1.4l1.5,4.9
			c0.3,0.9,0.5,1.6,0.6,2.3h0.1c0-0.2,0.1-0.5,0.2-0.9c0.1-0.4,0.6-2.5,1.6-6.3h1.3l-2.4,8.4H186.1z"/>
		<path class="st0" d="M195.2,81.9c-1.3,0-2.3-0.4-3-1.2c-0.7-0.8-1.1-1.8-1.1-3.2s0.3-2.5,1-3.3c0.7-0.8,1.6-1.2,2.7-1.2
			c1.1,0,1.9,0.4,2.5,1.1c0.6,0.7,0.9,1.6,0.9,2.8v0.8h-5.9c0,1,0.3,1.8,0.8,2.3s1.2,0.8,2,0.8c0.9,0,1.8-0.2,2.7-0.6v1.2
			c-0.5,0.2-0.9,0.3-1.3,0.4S195.7,81.9,195.2,81.9z M194.8,74.1c-0.7,0-1.2,0.2-1.6,0.7s-0.6,1.1-0.7,1.9h4.5
			c0-0.8-0.2-1.4-0.5-1.9C196,74.4,195.5,74.1,194.8,74.1z"/>
		<path class="st0" d="M204.4,73.1c0.4,0,0.7,0,1,0.1l-0.2,1.2c-0.4-0.1-0.7-0.1-0.9-0.1c-0.7,0-1.3,0.3-1.8,0.8s-0.7,1.3-0.7,2.1
			v4.5h-1.3v-8.5h1.1l0.1,1.6h0.1c0.3-0.6,0.7-1,1.1-1.3C203.4,73.2,203.9,73.1,204.4,73.1z"/>
		<path class="st0" d="M206.8,80.9c0-0.3,0.1-0.6,0.2-0.8c0.2-0.2,0.4-0.3,0.7-0.3s0.5,0.1,0.7,0.3c0.2,0.2,0.3,0.4,0.3,0.8
			c0,0.3-0.1,0.6-0.3,0.8c-0.2,0.2-0.4,0.3-0.7,0.3s-0.5-0.1-0.7-0.2C206.9,81.6,206.8,81.3,206.8,80.9z"/>
	</g>
</g>
<path class="st0" d="M119.8,51.9l-4.8-2.8l-0.3,0.5c-1.1,1.7-2.6,2.6-4.4,2.6c-3.1,0-5.5-2.4-5.5-5.5s2.4-5.5,5.5-5.5
	c1.9,0,3.3,0.8,4.4,2.6l0.4,0.5l4.8-2.8l-0.4-0.6c-2.3-3.3-5.3-4.9-9.1-4.9c-7.3,0-11.2,5.5-11.2,10.7s3.9,10.8,11.2,10.8
	c3.7,0,7.2-1.9,9.1-4.9L119.8,51.9z"/>
<path class="st0" d="M119.6,57.4h6.6l2-4.9h9.9l2,4.9h6.6l-12-28.5h-5.9l1.6,3.8L119.6,57.4 M133.1,40.1l2.7,6.7h-5.4L133.1,40.1z"
	/>
<path class="st0" d="M149.3,57.4h5.8V44.6h3.8v-5.4h-3.8v-2.5c0-1.1,0.7-2.2,2.1-2.2c0.7,0,1.2,0.1,1.6,0.3l0.6,0.3l2.4-5.2
	l-0.7-0.3c-1.1-0.4-2.6-0.6-3.6-0.6c-2.6,0-4.8,0.9-6.2,2.5c-1.3,1.4-2,3.4-2,5.5v2.3h-2.6v5.4h2.5L149.3,57.4z"/>
<polygon class="st0" points="71.8,28.7 71.8,57.4 78.1,57.4 78.1,41 84.2,45.5 90.3,41 90.3,57.4 96.6,57.4 96.6,28.7 84.2,38.1 "/>
<path class="st0" d="M171.8,36c-7.3,0-11.2,5.5-11.2,10.7s3.9,10.7,11.2,10.7l0,0l0,0c3.3,0,6.5-1.6,8.9-4.3l-4.7-2.6
	c-1.2,1.2-2.7,1.9-4.3,1.9c-2.4,0-4.5-1.6-5-3.6h15.7v-1.4C182.4,39.5,176.2,36,171.8,36z M166.8,44c0.8-2,2.4-3.1,4.5-3.1
	s3.8,1.1,4.7,3.1H166.8z"/>
<path class="st0" d="M195.4,36c-7.3,0-11.2,5.5-11.2,10.7s3.9,10.7,11.2,10.7l0,0l0,0c3.3,0,6.5-1.6,8.9-4.3l-4.7-2.6
	c-1.2,1.2-2.7,1.9-4.3,1.9c-2.4,0-4.5-1.6-5-3.6H206v-1.4C206,39.5,199.8,36,195.4,36z M190.4,44.1c0.8-2,2.4-3.1,4.5-3.1
	s3.8,1.1,4.7,3.1H190.4z"/>
<path class="st0" d="M205.2,35h2.4v0.5h-1v2.6h-0.5v-2.6h-1V35H205.2z"/>
<path class="st0" d="M208,35h0.7l0.8,2.4l0,0l0.8-2.4h0.7v3h-0.3v-2.3l0,0l-0.8,2.3h-0.4l-1-2.3l0,0V38H208V35z"/>
<polygon class="st0" points="35.1,53.1 35.1,38.6 44.2,42.9 44.2,35.9 28.7,28.7 28.7,57.2 44.2,64.4 44.2,57.4 "/>
<polygon class="st0" points="53.4,53.1 53.4,38.6 44.2,42.9 44.2,35.9 59.7,28.7 59.7,57.2 44.2,64.4 44.2,57.4 "/>
</svg>
