<?xml version="1.0" encoding="utf-8"?>
<!-- Generator: Adobe Illustrator 21.1.0, SVG Export Plug-In . SVG Version: 6.00 Build 0)  -->
<svg version="1.1" id="Layer_1" xmlns="http://www.w3.org/2000/svg" xmlns:xlink="http://www.w3.org/1999/xlink" x="0px" y="0px"
	 viewBox="0 0 135.5 32.3" style="enable-background:new 0 0 135.5 32.3;" xml:space="preserve">
<style type="text/css">
	.st0{fill:#C01818;}
	.st1{fill:#75160D;}
</style>
<g>
	<circle class="st0" cx="16.1" cy="16.1" r="15.6"/>
	<path class="st1" d="M16.1,32.3C7.2,32.3,0,25,0,16.1S7.2,0,16.1,0s16.1,7.2,16.1,16.1S25,32.3,16.1,32.3z M16.1,1
		C7.8,1,1,7.8,1,16.1s6.8,15.1,15.1,15.1c8.4,0,15.1-6.8,15.1-15.1S24.5,1,16.1,1z"/>
</g>
<g>
	<path class="st0" d="M70.7,21.5l-3.4-2L67,19.9c-0.8,1.2-1.8,1.8-3.1,1.8c-2.2,0-3.9-1.7-3.9-3.9s1.7-3.9,3.9-3.9
		c1.3,0,2.3,0.6,3.1,1.8l0.3,0.4l3.4-2l-0.3-0.4c-1.6-2.3-3.8-3.5-6.5-3.5c-5.2,0-8,3.9-8,7.6s2.8,7.7,8,7.7c2.6,0,5.1-1.3,6.5-3.5
		L70.7,21.5z"/>
	<path class="st0" d="M70.5,25.4h4.7l1.4-3.5h7l1.4,3.5h4.7L81.2,5.2h-4.2l1.1,2.7L70.5,25.4 M80.1,13.1l1.9,4.8h-3.8L80.1,13.1z"/>
	<path class="st0" d="M91.6,25.4h4.1v-9.1h2.7v-3.8h-2.7v-1.8c0-0.8,0.5-1.6,1.5-1.6c0.5,0,0.9,0.1,1.1,0.2l0.4,0.2l1.7-3.7L100,5.7
		c-0.8-0.3-1.8-0.4-2.6-0.4C95.6,5.3,94,5.9,93,7c-0.9,1-1.4,2.4-1.4,3.9v1.6h-1.8v3.8h1.8L91.6,25.4z"/>
	<polygon class="st0" points="36.6,5 36.6,25.4 41,25.4 41,13.8 45.4,17 49.7,13.8 49.7,25.4 54.2,25.4 54.2,5 45.4,11.7 	"/>
	<path class="st0" d="M107.6,10.2c-5.2,0-8,3.9-8,7.6s2.8,7.6,8,7.6l0,0l0,0c2.3,0,4.6-1.1,6.3-3.1l-3.3-1.8
		c-0.9,0.9-1.9,1.3-3.1,1.3c-1.7,0-3.2-1.1-3.6-2.6h11.2v-1C115.1,12.7,110.7,10.2,107.6,10.2z M104.1,15.9c0.6-1.4,1.7-2.2,3.2-2.2
		s2.7,0.8,3.3,2.2H104.1z"/>
	<path class="st0" d="M124.4,10.2c-5.2,0-8,3.9-8,7.6s2.8,7.6,8,7.6l0,0l0,0c2.3,0,4.6-1.1,6.3-3.1l-3.3-1.8
		c-0.9,0.9-1.9,1.3-3.1,1.3c-1.7,0-3.2-1.1-3.6-2.6h11.2v-1C131.9,12.7,127.5,10.2,124.4,10.2z M120.8,16c0.6-1.4,1.7-2.2,3.2-2.2
		s2.7,0.8,3.3,2.2H120.8z"/>
	<path class="st0" d="M131.3,9.5h1.7v0.4h-0.7v1.8H132V9.9h-0.7L131.3,9.5L131.3,9.5z"/>
	<path class="st0" d="M133.3,9.5h0.5l0.6,1.7l0,0l0.6-1.7h0.5v2.1h-0.2V10l0,0l-0.6,1.6h-0.3l-0.7-1.6l0,0v1.6h-0.4V9.5z"/>
</g>
</svg>
