<?xml version="1.0" encoding="utf-8"?>
<!-- Generator: Adobe Illustrator 21.1.0, SVG Export Plug-In . SVG Version: 6.00 Build 0)  -->
<svg version="1.1" id="Layer_1" xmlns="http://www.w3.org/2000/svg" xmlns:xlink="http://www.w3.org/1999/xlink" x="0px" y="0px"
	 viewBox="0 0 338.1 322.1" style="enable-background:new 0 0 338.1 322.1;" xml:space="preserve">
<style type="text/css">
	.st0{fill:#C03927;}
	.st1{fill:#FFFFFF;}
	.st2{fill:none;stroke:#FFFFFF;stroke-width:2;stroke-linecap:round;stroke-miterlimit:10;}
	.st3{enable-background:new    ;}
</style>
<g>
	<g>
		<polygon class="st0" points="180.3,0 180.3,80.7 265.5,80.7 265.5,322.1 338.1,322.1 338.1,80.7 338.1,74.4 338.1,0 		"/>
		<path class="st1" d="M310.2,126.4H294c-3.8,0-7-3.1-7-7v-11.9c0-3.8,3.1-7,7-7h16.3c3.8,0,7,3.1,7,7v11.9
			C317.2,123.3,314.1,126.4,310.2,126.4z"/>
		<g>
			<g>
				<path class="st1" d="M287.1,37.1v10.7c0,0.6,0.5,1.2,1.2,1.2s1.2-0.5,1.2-1.2V37.1c0-0.6-0.5-1.2-1.2-1.2S287.1,36.5,287.1,37.1
					z"/>
				<path class="st1" d="M283.5,49h2.5V36.3c0-0.1,0-0.1,0-0.2c0-5.5,4.4-9.9,9.8-9.9s9.8,4.5,9.8,9.9c0,0.1,0,0.2,0,0.2V49h2.5
					c1.8,0,3.2-1.5,3.2-3.3v-6.6c0-1.5-1-2.8-2.3-3.2c-0.1-7.3-6-13.2-13.3-13.2s-13.2,5.9-13.3,13.2c-1.3,0.4-2.3,1.7-2.3,3.2v6.6
					C280.3,47.5,281.7,49,283.5,49z"/>
				<path class="st1" d="M302.4,37.1v10.7c0,0.6,0.5,1.2,1.2,1.2s1.2-0.5,1.2-1.2V37.1c0-0.6-0.5-1.2-1.2-1.2S302.4,36.5,302.4,37.1
					z"/>
			</g>
		</g>
		<rect x="207" y="30.2" class="st1" width="26.1" height="4.2"/>
		<rect x="207" y="38.2" class="st1" width="26.1" height="4.2"/>
		<rect x="207" y="46.3" class="st1" width="26.1" height="4.2"/>
		<rect x="291" y="105.2" class="st0" width="21.9" height="16.9"/>
		<polygon class="st1" points="301.3,109.1 301.3,107.2 295.6,107.2 293.6,107.2 293.6,109.1 293.6,117.3 293.6,119.2 295.6,119.2 
			301.3,119.2 301.3,117.3 295.6,117.3 295.6,109.1 		"/>
		<polygon class="st1" points="310.8,109.1 310.8,107.2 305.1,107.2 303.1,107.2 303.1,109.1 303.1,117.3 303.1,119.2 305.1,119.2 
			310.8,119.2 310.8,117.3 305.1,117.3 305.1,109.1 		"/>
		<polygon class="st1" points="315.3,153.4 304.7,159.5 294.1,165.6 294.1,153.4 294.1,141.2 304.7,147.3 		"/>
		<polygon class="st1" points="296.7,187.2 288.7,187.2 288.7,192.2 288.7,192.2 288.7,192.2 288.7,197.2 296.7,197.2 303.1,201.3 
			303.1,192.2 303.1,183.2 		"/>
		<path class="st2" d="M306.1,186c0,0,5.7,6.3,0,12.3"/>
		<path class="st2" d="M311.6,184.1c0,0,7.4,8.2,0,16.1"/>
		<g class="st3">
			<path class="st1" d="M283.7,237.3H282v-10.7c0-0.9,0-1.7,0.1-2.5c-0.1,0.1-0.3,0.3-0.5,0.5s-1,0.8-2.4,2l-0.9-1.2l4-3.1h1.4
				V237.3z"/>
			<path class="st1" d="M299.4,229.7c0,2.6-0.4,4.5-1.2,5.8c-0.8,1.3-2.1,1.9-3.8,1.9c-1.6,0-2.8-0.7-3.7-2
				c-0.8-1.3-1.3-3.2-1.3-5.8s0.4-4.6,1.2-5.8c0.8-1.3,2.1-1.9,3.7-1.9s2.9,0.7,3.7,2S299.4,227.2,299.4,229.7z M291.2,229.7
				c0,2.2,0.3,3.8,0.8,4.8s1.3,1.5,2.5,1.5c1.1,0,2-0.5,2.5-1.5s0.8-2.6,0.8-4.8s-0.3-3.7-0.8-4.7s-1.3-1.5-2.5-1.5
				c-1.1,0-1.9,0.5-2.5,1.5S291.2,227.6,291.2,229.7z"/>
			<path class="st1" d="M311.4,229.7c0,2.6-0.4,4.5-1.2,5.8c-0.8,1.3-2.1,1.9-3.8,1.9c-1.6,0-2.8-0.7-3.7-2
				c-0.8-1.3-1.3-3.2-1.3-5.8s0.4-4.6,1.2-5.8c0.8-1.3,2.1-1.9,3.7-1.9s2.9,0.7,3.7,2S311.4,227.2,311.4,229.7z M303.2,229.7
				c0,2.2,0.3,3.8,0.8,4.8s1.3,1.5,2.5,1.5c1.1,0,2-0.5,2.5-1.5s0.8-2.6,0.8-4.8s-0.3-3.7-0.8-4.7s-1.3-1.5-2.5-1.5
				c-1.1,0-1.9,0.5-2.5,1.5C303.5,226,303.2,227.6,303.2,229.7z"/>
			<path class="st1" d="M319.7,226.7c0,1.6-0.3,2.7-0.8,3.5s-1.3,1.2-2.3,1.2s-1.7-0.4-2.2-1.2s-0.8-2-0.8-3.5
				c0-1.6,0.3-2.7,0.8-3.5s1.3-1.2,2.3-1.2s1.8,0.4,2.3,1.2C319.4,224.1,319.7,225.2,319.7,226.7z M315,226.7c0,1.2,0.1,2,0.4,2.6
				s0.7,0.9,1.2,0.9c1.1,0,1.7-1.2,1.7-3.5s-0.6-3.5-1.7-3.5c-0.6,0-1,0.3-1.2,0.9C315.1,224.7,315,225.6,315,226.7z M326.1,222.2
				l-8.3,15h-1.5l8.3-15H326.1z M328.7,232.8c0,1.6-0.3,2.7-0.8,3.5s-1.3,1.2-2.3,1.2s-1.7-0.4-2.2-1.2s-0.8-2-0.8-3.5
				c0-1.6,0.3-2.7,0.8-3.5s1.3-1.2,2.3-1.2s1.7,0.4,2.3,1.2C328.5,230.1,328.7,231.2,328.7,232.8z M324,232.8c0,1.2,0.1,2,0.4,2.6
				s0.7,0.9,1.2,0.9c0.6,0,1-0.3,1.3-0.9s0.4-1.5,0.4-2.6c0-1.2-0.1-2-0.4-2.6s-0.7-0.8-1.3-0.8c-0.6,0-1,0.3-1.2,0.8
				C324.1,230.7,324,231.6,324,232.8z"/>
		</g>
		<g class="st3">
			<path class="st1" d="M280.9,249.7c-0.9,0-1.7,0.3-2.2,0.9s-0.8,1.5-0.8,2.6s0.3,2,0.8,2.6c0.5,0.6,1.3,0.9,2.3,0.9
				c0.6,0,1.3-0.1,2-0.3v0.9c-0.6,0.2-1.3,0.3-2.2,0.3c-1.3,0-2.2-0.4-2.9-1.1s-1-1.9-1-3.3c0-0.9,0.2-1.7,0.5-2.3
				c0.3-0.7,0.8-1.2,1.4-1.5c0.6-0.4,1.4-0.5,2.2-0.5c0.9,0,1.7,0.2,2.4,0.5l-0.4,0.9C282.2,249.9,281.6,249.7,280.9,249.7z"/>
			<path class="st1" d="M290.2,254.3c0,1-0.3,1.9-0.8,2.5s-1.3,0.9-2.2,0.9c-0.6,0-1.1-0.1-1.5-0.4s-0.8-0.7-1-1.2s-0.4-1.1-0.4-1.8
				c0-1,0.3-1.9,0.8-2.5s1.3-0.9,2.2-0.9c0.9,0,1.6,0.3,2.1,0.9C290,252.5,290.2,253.3,290.2,254.3z M285.3,254.3
				c0,0.8,0.2,1.4,0.5,1.9c0.3,0.4,0.8,0.6,1.4,0.6s1.1-0.2,1.5-0.6c0.3-0.4,0.5-1.1,0.5-1.9c0-0.8-0.2-1.4-0.5-1.9
				c-0.3-0.4-0.8-0.6-1.5-0.6c-0.6,0-1.1,0.2-1.4,0.6C285.5,252.8,285.3,253.5,285.3,254.3z"/>
			<path class="st1" d="M300.1,257.5v-4.2c0-0.5-0.1-0.9-0.3-1.2s-0.6-0.4-1-0.4c-0.6,0-1.1,0.2-1.3,0.5c-0.3,0.3-0.4,0.9-0.4,1.6
				v3.6h-1v-4.2c0-0.5-0.1-0.9-0.3-1.2c-0.2-0.3-0.6-0.4-1-0.4c-0.6,0-1.1,0.2-1.3,0.5c-0.3,0.4-0.4,1-0.4,1.8v3.4h-1v-6.4h0.8
				l0.2,0.9l0,0c0.2-0.3,0.4-0.6,0.8-0.7c0.3-0.2,0.7-0.3,1.1-0.3c1,0,1.7,0.4,2,1.1l0,0c0.2-0.3,0.5-0.6,0.8-0.8
				c0.4-0.2,0.8-0.3,1.2-0.3c0.7,0,1.3,0.2,1.6,0.6c0.4,0.4,0.5,1,0.5,1.8v4.2L300.1,257.5L300.1,257.5z"/>
			<path class="st1" d="M306.1,257.6c-0.4,0-0.8-0.1-1.1-0.2c-0.3-0.2-0.6-0.4-0.9-0.7H304c0,0.4,0.1,0.7,0.1,1.1v2.6h-1v-9.3h0.8
				l0.1,0.9l0,0c0.3-0.4,0.5-0.6,0.9-0.8c0.3-0.2,0.7-0.2,1.1-0.2c0.9,0,1.5,0.3,2,0.9c0.5,0.6,0.7,1.4,0.7,2.5s-0.2,1.9-0.7,2.5
				C307.6,257.3,306.9,257.6,306.1,257.6z M306,251.8c-0.7,0-1.1,0.2-1.4,0.5c-0.3,0.4-0.4,0.9-0.5,1.7v0.2c0,0.9,0.2,1.5,0.5,1.9
				c0.3,0.4,0.8,0.6,1.4,0.6s1-0.2,1.3-0.7c0.3-0.4,0.5-1.1,0.5-1.9c0-0.8-0.2-1.4-0.5-1.8C307,252,306.5,251.8,306,251.8z"/>
			<path class="st1" d="M311.4,257.5h-1v-9.1h1V257.5z"/>
			<path class="st1" d="M316.2,257.6c-1,0-1.7-0.3-2.3-0.9s-0.8-1.4-0.8-2.4s0.3-1.9,0.8-2.5s1.2-0.9,2.1-0.9c0.8,0,1.4,0.3,1.9,0.8
				s0.7,1.2,0.7,2.1v0.6h-4.4c0,0.8,0.2,1.3,0.6,1.7s0.9,0.6,1.5,0.6c0.7,0,1.4-0.1,2.1-0.4v0.9c-0.3,0.1-0.7,0.3-1,0.3
				C317,257.6,316.7,257.6,316.2,257.6z M316,251.8c-0.5,0-0.9,0.2-1.2,0.5c-0.3,0.3-0.5,0.8-0.5,1.4h3.4c0-0.6-0.1-1.1-0.4-1.4
				C316.9,252,316.5,251.8,316,251.8z"/>
			<path class="st1" d="M322.3,256.8c0.2,0,0.3,0,0.5,0s0.3-0.1,0.4-0.1v0.7c-0.1,0.1-0.3,0.1-0.5,0.1s-0.4,0-0.6,0
				c-1.2,0-1.9-0.7-1.9-2v-3.8h-0.9v-0.5l0.9-0.4l0.4-1.4h0.6v1.5h1.9v0.8h-1.9v3.8c0,0.4,0.1,0.7,0.3,0.9
				C321.7,256.7,322,256.8,322.3,256.8z"/>
			<path class="st1" d="M327.2,257.6c-1,0-1.7-0.3-2.3-0.9s-0.8-1.4-0.8-2.4s0.3-1.9,0.8-2.5s1.2-0.9,2.1-0.9c0.8,0,1.4,0.3,1.9,0.8
				s0.7,1.2,0.7,2.1v0.6h-4.4c0,0.8,0.2,1.3,0.6,1.7s0.9,0.6,1.5,0.6c0.7,0,1.4-0.1,2.1-0.4v0.9c-0.3,0.1-0.7,0.3-1,0.3
				C328,257.6,327.6,257.6,327.2,257.6z M326.9,251.8c-0.5,0-0.9,0.2-1.2,0.5c-0.3,0.3-0.5,0.8-0.5,1.4h3.4c0-0.6-0.1-1.1-0.4-1.4
				C327.8,252,327.4,251.8,326.9,251.8z"/>
		</g>
		<circle class="st1" cx="301.8" cy="289.8" r="17.9"/>
		<path class="st0" d="M307.3,281.9c-0.1-0.1-0.1-0.1-0.2-0.1c-4.4-2.7-8.4-1.2-10.3,0c-3.9,2.3-4.8,7.1-4.9,7.3
			c-0.1,0.5,0.3,1.1,0.8,1.2c0.1,0,0.1,0,0.2,0c0.5,0,0.9-0.3,1-0.8c0,0,0.8-4.1,3.9-6c1.9-1.1,4.8-2,8.1-0.1l-2.8,2.8h7V279
			L307.3,281.9z"/>
		<path class="st0" d="M295.8,297.1c0,0.1,0.1,0.1,0.2,0.2c4.3,2.9,8.3,1.5,10.3,0.4c4-2.2,5.1-6.9,5.1-7.1c0.1-0.5-0.2-1.1-0.8-1.2
			c-0.1,0-0.1,0-0.2,0c-0.5,0-0.9,0.3-1,0.8c0,0-0.9,4.1-4.1,5.8c-1.9,1.1-4.9,1.9-8.1-0.2l2.9-2.7l-7-0.2l-0.3,7.1L295.8,297.1z"/>
	</g>
	<g class="st3">
		<path class="st1" d="M9.9,47.4L4.1,32.2H4c0.1,1.2,0.2,2.6,0.2,4.3v10.9H2.4V30.2h3l5.4,14.1h0.1l5.5-14.1h3v17.1h-2v-11
			c0-1.3,0.1-2.6,0.2-4.1h-0.1l-5.9,15.2C11.6,47.4,9.9,47.4,9.9,47.4z"/>
		<path class="st1" d="M29.2,47.6c-1.9,0-3.4-0.6-4.5-1.7S23,43.1,23,41.1c0-2.1,0.5-3.7,1.5-4.9s2.4-1.8,4.1-1.8
			c1.6,0,2.9,0.5,3.8,1.6s1.4,2.5,1.4,4.2v1.2H25c0,1.5,0.4,2.7,1.1,3.4s1.7,1.2,3.1,1.2s2.8-0.3,4.1-0.9v1.7
			c-0.7,0.3-1.3,0.5-2,0.6S30,47.6,29.2,47.6z M28.6,35.9c-1,0-1.9,0.3-2.5,1s-1,1.6-1.1,2.8h6.7c0-1.2-0.3-2.2-0.8-2.8
			S29.6,35.9,28.6,35.9z"/>
		<path class="st1" d="M46,47.4v-8.3c0-1-0.2-1.8-0.7-2.3S44,35.9,43,35.9c-1.3,0-2.3,0.4-3,1.1s-0.9,1.9-0.9,3.6v6.7h-1.9V34.5h1.6
			l0.3,1.8h0.1c0.4-0.6,1-1.1,1.7-1.5s1.5-0.5,2.4-0.5c1.5,0,2.7,0.4,3.5,1.1S48,37.3,48,39v8.4C48,47.4,46,47.4,46,47.4z"/>
		<path class="st1" d="M53.8,34.5v8.3c0,1,0.2,1.8,0.7,2.3s1.2,0.8,2.2,0.8c1.3,0,2.3-0.4,2.9-1.1s0.9-1.9,0.9-3.6v-6.8h1.9v12.8
			h-1.6l-0.3-1.7h-0.1c-0.4,0.6-1,1.1-1.7,1.5s-1.5,0.5-2.4,0.5c-1.6,0-2.7-0.4-3.5-1.1s-1.2-1.9-1.2-3.6v-8.4L53.8,34.5L53.8,34.5z
			"/>
		<path class="st1" d="M73.2,30.2l-6.4,17.1h-1.9l6.4-17.1C71.3,30.2,73.2,30.2,73.2,30.2z"/>
		<path class="st1" d="M86.5,47.4L84.4,42h-6.9l-2.1,5.4h-2l6.8-17.2h1.7l6.7,17.2H86.5z M83.8,40.1l-2-5.3
			c-0.3-0.7-0.5-1.5-0.8-2.5c-0.2,0.8-0.4,1.6-0.7,2.5l-2,5.3H83.8z"/>
		<path class="st1" d="M92.5,34.5v8.3c0,1,0.2,1.8,0.7,2.3s1.2,0.8,2.2,0.8c1.3,0,2.3-0.4,2.9-1.1s0.9-1.9,0.9-3.6v-6.8h1.9v12.8
			h-1.6l-0.3-1.7h-0.1c-0.4,0.6-1,1.1-1.7,1.5s-1.5,0.5-2.4,0.5c-1.6,0-2.7-0.4-3.5-1.1s-1.2-1.9-1.2-3.6v-8.4L92.5,34.5L92.5,34.5z
			"/>
		<path class="st1" d="M114.1,45.7L114.1,45.7c-1,1.3-2.3,2-4.1,2c-1.7,0-3-0.6-3.9-1.7s-1.4-2.8-1.4-4.9s0.5-3.8,1.4-4.9
			s2.2-1.8,3.9-1.8c1.7,0,3.1,0.6,4,1.9h0.2l-0.1-0.9v-0.9v-5.2h1.9v18.2h-1.6L114.1,45.7z M110.2,46c1.3,0,2.3-0.4,2.9-1.1
			s0.9-1.9,0.9-3.5V41c0-1.8-0.3-3.1-0.9-3.9s-1.6-1.2-2.9-1.2c-1.1,0-2,0.4-2.6,1.3s-0.9,2.1-0.9,3.8c0,1.6,0.3,2.9,0.9,3.7
			S109.1,46,110.2,46z"/>
		<path class="st1" d="M119.9,31.1c0-0.4,0.1-0.8,0.3-1s0.5-0.3,0.8-0.3s0.6,0.1,0.8,0.3s0.3,0.5,0.3,1s-0.1,0.8-0.3,1
			c-0.2,0.2-0.5,0.3-0.8,0.3s-0.6-0.1-0.8-0.3S119.9,31.5,119.9,31.1z M122,47.4h-1.9V34.5h1.9V47.4z"/>
		<path class="st1" d="M137.3,40.9c0,2.1-0.5,3.7-1.6,4.9s-2.5,1.8-4.4,1.8c-1.1,0-2.2-0.3-3.1-0.8s-1.6-1.3-2.1-2.3
			s-0.7-2.2-0.7-3.5c0-2.1,0.5-3.7,1.6-4.9c1.1-1.2,2.5-1.8,4.4-1.8c1.8,0,3.2,0.6,4.3,1.8S137.3,38.9,137.3,40.9z M127.5,40.9
			c0,1.6,0.3,2.9,1,3.8s1.6,1.3,2.9,1.3s2.2-0.4,2.9-1.3s1-2.1,1-3.8c0-1.6-0.3-2.9-1-3.7s-1.6-1.3-2.9-1.3c-1.3,0-2.2,0.4-2.9,1.3
			S127.5,39.3,127.5,40.9z"/>
	</g>
	<g class="st3">
		<path class="st1" d="M112.6,148.3c0,1.7-0.6,3.1-1.8,4s-2.9,1.4-5.1,1.4h-2v6.7h-2v-17.1h4.4C110.5,143.3,112.6,145,112.6,148.3z
			 M103.7,152h1.8c1.8,0,3-0.3,3.8-0.9s1.2-1.5,1.2-2.7c0-1.1-0.4-2-1.1-2.5s-1.9-0.8-3.5-0.8h-2.2C103.7,145.1,103.7,152,103.7,152
			z"/>
		<path class="st1" d="M117.9,160.4H116v-18.2h1.9V160.4z"/>
		<path class="st1" d="M129.9,160.4l-0.4-1.8h-0.1c-0.6,0.8-1.3,1.3-1.9,1.6s-1.4,0.4-2.4,0.4c-1.3,0-2.3-0.3-3-1s-1.1-1.6-1.1-2.8
			c0-2.6,2.1-4,6.2-4.1l2.2-0.1v-0.8c0-1-0.2-1.8-0.7-2.2s-1.1-0.7-2.1-0.7c-1.1,0-2.3,0.3-3.6,1l-0.6-1.5c0.6-0.3,1.3-0.6,2.1-0.8
			s1.5-0.3,2.3-0.3c1.5,0,2.7,0.3,3.4,1s1.1,1.8,1.1,3.3v8.8L129.9,160.4L129.9,160.4z M125.5,159.1c1.2,0,2.2-0.3,2.9-1
			s1-1.6,1-2.8v-1.2l-1.9,0.1c-1.5,0.1-2.7,0.3-3.3,0.7s-1,1.1-1,2c0,0.7,0.2,1.2,0.6,1.6S124.7,159.1,125.5,159.1z"/>
		<path class="st1" d="M133.3,147.6h2.1l2.8,7.3c0.6,1.7,1,2.9,1.1,3.6h0.1c0.1-0.4,0.3-1.1,0.6-2s1.4-3.9,3.2-8.9h2.1l-5.5,14.6
			c-0.5,1.4-1.2,2.5-1.9,3.1s-1.6,0.9-2.7,0.9c-0.6,0-1.2-0.1-1.8-0.2v-1.6c0.4,0.1,0.9,0.1,1.4,0.1c1.3,0,2.3-0.8,2.9-2.3l0.7-1.8
			L133.3,147.6z"/>
		<path class="st1" d="M153.9,143.3l-6.4,17.1h-1.9l6.4-17.1H153.9z"/>
		<path class="st1" d="M167.4,148.3c0,1.7-0.6,3.1-1.8,4s-2.9,1.4-5.1,1.4h-2v6.7h-2v-17.1h4.4C165.2,143.3,167.4,145,167.4,148.3z
			 M158.5,152h1.8c1.8,0,3-0.3,3.8-0.9s1.2-1.5,1.2-2.7c0-1.1-0.4-2-1.1-2.5s-1.9-0.8-3.5-0.8h-2.2V152z"/>
		<path class="st1" d="M178.6,160.4l-0.4-1.8h-0.1c-0.6,0.8-1.3,1.3-1.9,1.6s-1.4,0.4-2.4,0.4c-1.3,0-2.3-0.3-3-1s-1.1-1.6-1.1-2.8
			c0-2.6,2.1-4,6.2-4.1l2.2-0.1v-0.8c0-1-0.2-1.8-0.7-2.2s-1.1-0.7-2.1-0.7c-1.1,0-2.3,0.3-3.6,1l-0.6-1.5c0.6-0.3,1.3-0.6,2.1-0.8
			s1.5-0.3,2.3-0.3c1.5,0,2.7,0.3,3.4,1s1.1,1.8,1.1,3.3v8.8L178.6,160.4L178.6,160.4z M174.2,159.1c1.2,0,2.2-0.3,2.9-1
			s1-1.6,1-2.8v-1.2l-1.9,0.1c-1.5,0.1-2.7,0.3-3.3,0.7s-1,1.1-1,2c0,0.7,0.2,1.2,0.6,1.6S173.4,159.1,174.2,159.1z"/>
		<path class="st1" d="M185.9,147.6v8.3c0,1,0.2,1.8,0.7,2.3s1.2,0.8,2.2,0.8c1.3,0,2.3-0.4,2.9-1.1s0.9-1.9,0.9-3.6v-6.8h1.9v12.8
			H193l-0.3-1.7h-0.1c-0.4,0.6-1,1.1-1.7,1.5s-1.5,0.5-2.4,0.5c-1.6,0-2.7-0.4-3.5-1.1s-1.2-1.9-1.2-3.6v-8.4h2.1V147.6z"/>
		<path class="st1" d="M207,156.9c0,1.2-0.4,2.1-1.3,2.8s-2.1,1-3.8,1s-3-0.3-4-0.8V158c0.6,0.3,1.3,0.6,2,0.7s1.4,0.3,2,0.3
			c1,0,1.8-0.2,2.3-0.5s0.8-0.8,0.8-1.5c0-0.5-0.2-0.9-0.7-1.3s-1.3-0.8-2.5-1.3c-1.2-0.4-2-0.8-2.5-1.2s-0.9-0.7-1.1-1.1
			s-0.4-0.9-0.4-1.5c0-1,0.4-1.9,1.3-2.5s2-0.9,3.5-0.9c1.4,0,2.7,0.3,4.1,0.8l-0.7,1.6c-1.3-0.5-2.5-0.8-3.5-0.8
			c-0.9,0-1.6,0.1-2.1,0.4s-0.7,0.7-0.7,1.2c0,0.3,0.1,0.6,0.3,0.9s0.5,0.5,0.8,0.7s1.1,0.5,2.3,0.9c1.5,0.6,2.6,1.1,3.1,1.7
			S207,156.1,207,156.9z"/>
		<path class="st1" d="M215.6,160.7c-1.9,0-3.4-0.6-4.5-1.7s-1.6-2.8-1.6-4.8c0-2.1,0.5-3.7,1.5-4.9s2.4-1.8,4.1-1.8
			c1.6,0,2.9,0.5,3.8,1.6s1.4,2.5,1.4,4.2v1.2h-8.8c0,1.5,0.4,2.7,1.1,3.4s1.7,1.2,3.1,1.2c1.4,0,2.8-0.3,4.1-0.9v1.7
			c-0.7,0.3-1.3,0.5-2,0.6S216.5,160.7,215.6,160.7z M215.1,149c-1,0-1.9,0.3-2.5,1s-1,1.6-1.1,2.8h6.7c0-1.2-0.3-2.2-0.8-2.8
			S216.1,149,215.1,149z"/>
	</g>
	<g class="st3">
		<path class="st1" d="M73.2,199.2L67.4,184h-0.1c0.1,1.2,0.2,2.6,0.2,4.3v10.9h-1.8v-17.1h3l5.4,14.1h0.1l5.5-14.1h3v17.1h-2v-11
			c0-1.3,0.1-2.6,0.2-4.1h-0.1l-5.9,15.2L73.2,199.2L73.2,199.2z"/>
		<path class="st1" d="M88.8,186.3v8.3c0,1,0.2,1.8,0.7,2.3s1.2,0.8,2.2,0.8c1.3,0,2.3-0.4,2.9-1.1s0.9-1.9,0.9-3.6v-6.8h1.9V199H96
			l-0.3-1.7h-0.1c-0.4,0.6-1,1.1-1.7,1.5s-1.5,0.5-2.4,0.5c-1.6,0-2.7-0.4-3.5-1.1s-1.2-1.9-1.2-3.6v-8.4h2V186.3z"/>
		<path class="st1" d="M105.9,197.8c0.3,0,0.7,0,1-0.1s0.6-0.1,0.8-0.2v1.5c-0.2,0.1-0.5,0.2-0.9,0.3s-0.8,0.1-1.1,0.1
			c-2.5,0-3.7-1.3-3.7-3.9v-7.6h-2V187l1.8-0.8l0.8-2.7h1.1v3h3.7v1.5h-3.7v7.6c0,0.8,0.2,1.4,0.6,1.8S105.2,197.8,105.9,197.8z"/>
		<path class="st1" d="M115.6,199.4c-1.9,0-3.4-0.6-4.5-1.7s-1.6-2.8-1.6-4.8c0-2.1,0.5-3.7,1.5-4.9s2.4-1.8,4.1-1.8
			c1.6,0,2.9,0.5,3.8,1.6s1.4,2.5,1.4,4.2v1.2h-8.8c0,1.5,0.4,2.7,1.1,3.4s1.7,1.2,3.1,1.2s2.8-0.3,4.1-0.9v1.7
			c-0.7,0.3-1.3,0.5-2,0.6S116.5,199.4,115.6,199.4z M115.1,187.7c-1,0-1.9,0.3-2.5,1s-1,1.6-1.1,2.8h6.7c0-1.2-0.3-2.2-0.8-2.8
			S116.1,187.7,115.1,187.7z"/>
		<path class="st1" d="M130.2,182.1l-6.4,17.1h-1.9l6.4-17.1H130.2z"/>
		<path class="st1" d="M145.7,182.1v11.1c0,2-0.6,3.5-1.8,4.6s-2.8,1.7-4.9,1.7s-3.7-0.6-4.8-1.7s-1.7-2.7-1.7-4.6v-11h2v11.2
			c0,1.4,0.4,2.5,1.2,3.3s1.9,1.1,3.4,1.1c1.4,0,2.6-0.4,3.3-1.2s1.2-1.9,1.2-3.3v-11.2L145.7,182.1L145.7,182.1z"/>
		<path class="st1" d="M158.7,199.2v-8.3c0-1-0.2-1.8-0.7-2.3s-1.2-0.8-2.2-0.8c-1.3,0-2.3,0.4-3,1.1s-0.9,1.9-0.9,3.6v6.7H150
			v-12.8h1.6l0.3,1.8h0.1c0.4-0.6,1-1.1,1.7-1.5s1.5-0.5,2.4-0.5c1.5,0,2.7,0.4,3.5,1.1s1.2,1.9,1.2,3.6v8.4h-2.1V199.2z"/>
		<path class="st1" d="M181.1,199.2v-8.4c0-1-0.2-1.8-0.7-2.3s-1.1-0.8-2-0.8c-1.2,0-2.1,0.3-2.7,1s-0.9,1.8-0.9,3.2v7.2h-1.9v-8.4
			c0-1-0.2-1.8-0.7-2.3s-1.1-0.8-2.1-0.8c-1.2,0-2.1,0.4-2.7,1.1s-0.8,1.9-0.8,3.6v6.7h-1.9v-12.8h1.6l0.3,1.8h0.1
			c0.4-0.6,0.9-1.1,1.6-1.5s1.4-0.5,2.2-0.5c2,0,3.3,0.7,3.9,2.2h0.1c0.4-0.7,0.9-1.2,1.7-1.6s1.6-0.6,2.5-0.6
			c1.5,0,2.5,0.4,3.3,1.1s1.1,1.9,1.1,3.6v8.4h-2V199.2z"/>
		<path class="st1" d="M188.8,186.3v8.3c0,1,0.2,1.8,0.7,2.3s1.2,0.8,2.2,0.8c1.3,0,2.3-0.4,2.9-1.1s0.9-1.9,0.9-3.6v-6.8h1.9V199
			H196l-0.3-1.7h-0.1c-0.4,0.6-1,1.1-1.7,1.5s-1.5,0.5-2.4,0.5c-1.6,0-2.7-0.4-3.5-1.1s-1.2-1.9-1.2-3.6v-8.4h2V186.3z"/>
		<path class="st1" d="M205.9,197.8c0.3,0,0.7,0,1-0.1s0.6-0.1,0.8-0.2v1.5c-0.2,0.1-0.5,0.2-0.9,0.3s-0.8,0.1-1.1,0.1
			c-2.5,0-3.7-1.3-3.7-3.9v-7.6h-2V187l1.8-0.8l0.8-2.7h1.1v3h3.7v1.5h-3.7v7.6c0,0.8,0.2,1.4,0.6,1.8S205.2,197.8,205.9,197.8z"/>
		<path class="st1" d="M215.6,199.4c-1.9,0-3.4-0.6-4.5-1.7s-1.6-2.8-1.6-4.8c0-2.1,0.5-3.7,1.5-4.9s2.4-1.8,4.1-1.8
			c1.6,0,2.9,0.5,3.8,1.6s1.4,2.5,1.4,4.2v1.2h-8.8c0,1.5,0.4,2.7,1.1,3.4s1.7,1.2,3.1,1.2c1.4,0,2.8-0.3,4.1-0.9v1.7
			c-0.7,0.3-1.3,0.5-2,0.6S216.5,199.4,215.6,199.4z M215.1,187.7c-1,0-1.9,0.3-2.5,1s-1,1.6-1.1,2.8h6.7c0-1.2-0.3-2.2-0.8-2.8
			S216.1,187.7,215.1,187.7z"/>
	</g>
	<g class="st3">
		<path class="st1" d="M76.1,225c0,1.7-0.6,3.1-1.8,4s-2.9,1.4-5.1,1.4h-2v6.7h-2V220h4.4C74,220,76.1,221.7,76.1,225z M67.3,228.7
			h1.8c1.8,0,3-0.3,3.8-0.9s1.2-1.5,1.2-2.7c0-1.1-0.4-2-1.1-2.5s-1.9-0.8-3.5-0.8h-2.2C67.3,221.8,67.3,228.7,67.3,228.7z"/>
		<path class="st1" d="M87.3,237.2l-0.4-1.8h-0.1c-0.6,0.8-1.3,1.3-1.9,1.6s-1.4,0.4-2.4,0.4c-1.3,0-2.3-0.3-3-1s-1.1-1.6-1.1-2.8
			c0-2.6,2.1-4,6.2-4.1l2.2-0.1v-0.8c0-1-0.2-1.8-0.7-2.2s-1.1-0.7-2.1-0.7c-1.1,0-2.3,0.3-3.6,1l-0.6-1.5c0.6-0.3,1.3-0.6,2.1-0.8
			s1.5-0.3,2.3-0.3c1.5,0,2.7,0.3,3.4,1s1.1,1.8,1.1,3.3v8.8L87.3,237.2L87.3,237.2z M82.9,235.8c1.2,0,2.2-0.3,2.9-1s1-1.6,1-2.8
			v-1.2l-1.9,0.1c-1.5,0.1-2.7,0.3-3.3,0.7s-1,1.1-1,2c0,0.7,0.2,1.2,0.6,1.6S82.2,235.8,82.9,235.8z"/>
		<path class="st1" d="M103.3,224.3v1.2l-2.4,0.3c0.2,0.3,0.4,0.6,0.6,1.1s0.3,0.9,0.3,1.5c0,1.3-0.4,2.3-1.3,3s-2,1.1-3.5,1.1
			c-0.4,0-0.7,0-1.1-0.1c-0.8,0.4-1.2,1-1.2,1.7c0,0.4,0.1,0.6,0.4,0.8s0.8,0.3,1.5,0.3h2.3c1.4,0,2.5,0.3,3.2,0.9s1.1,1.4,1.1,2.6
			c0,1.4-0.6,2.5-1.7,3.3s-2.8,1.1-5,1.1c-1.7,0-3-0.3-3.9-0.9s-1.4-1.5-1.4-2.6c0-0.8,0.3-1.5,0.8-2s1.2-1,2.1-1.2
			c-0.3-0.1-0.6-0.4-0.8-0.7S93,235,93,234.6c0-0.5,0.1-0.9,0.4-1.2s0.6-0.7,1.2-1c-0.7-0.3-1.2-0.7-1.6-1.4s-0.6-1.4-0.6-2.3
			c0-1.4,0.4-2.5,1.3-3.3s2-1.1,3.6-1.1c0.7,0,1.3,0.1,1.8,0.2h4.2V224.3z M93,239.3c0,0.7,0.3,1.2,0.9,1.6s1.4,0.5,2.5,0.5
			c1.6,0,2.8-0.2,3.6-0.7s1.2-1.2,1.2-2c0-0.7-0.2-1.2-0.6-1.4s-1.2-0.4-2.4-0.4h-2.3c-0.9,0-1.6,0.2-2.1,0.6S93,238.5,93,239.3z
			 M94.1,228.4c0,0.9,0.3,1.6,0.8,2s1.2,0.7,2.1,0.7c1.9,0,2.8-0.9,2.8-2.8c0-1.9-1-2.9-2.9-2.9c-0.9,0-1.6,0.2-2.1,0.7
			S94.1,227.5,94.1,228.4z"/>
		<path class="st1" d="M111.3,237.4c-1.9,0-3.4-0.6-4.5-1.7s-1.6-2.8-1.6-4.8c0-2.1,0.5-3.7,1.5-4.9s2.4-1.8,4.1-1.8
			c1.6,0,2.9,0.5,3.8,1.6s1.4,2.5,1.4,4.2v1.2h-8.8c0,1.5,0.4,2.7,1.1,3.4s1.7,1.2,3.1,1.2s2.8-0.3,4.1-0.9v1.7
			c-0.7,0.3-1.3,0.5-2,0.6S112.2,237.4,111.3,237.4z M110.8,225.7c-1,0-1.9,0.3-2.5,1s-1,1.6-1.1,2.8h6.7c0-1.2-0.3-2.2-0.8-2.8
			S111.8,225.7,110.8,225.7z"/>
		<path class="st1" d="M136.8,225c0,1.7-0.6,3.1-1.8,4s-2.9,1.4-5.1,1.4h-2v6.7h-2V220h4.4C134.6,220,136.8,221.7,136.8,225z
			 M127.9,228.7h1.8c1.8,0,3-0.3,3.8-0.9s1.2-1.5,1.2-2.7c0-1.1-0.4-2-1.1-2.5s-1.9-0.8-3.5-0.8h-2.2
			C127.9,221.8,127.9,228.7,127.9,228.7z"/>
		<path class="st1" d="M145.9,224.1c0.6,0,1.1,0,1.5,0.1l-0.3,1.8c-0.5-0.1-1-0.2-1.4-0.2c-1,0-1.9,0.4-2.7,1.3s-1.1,1.9-1.1,3.2
			v6.9H140v-12.8h1.6l0.2,2.4h0.1c0.5-0.8,1.1-1.5,1.7-1.9S145.1,224.1,145.9,224.1z"/>
		<path class="st1" d="M161,230.7c0,2.1-0.5,3.7-1.6,4.9s-2.5,1.8-4.4,1.8c-1.1,0-2.2-0.3-3.1-0.8s-1.6-1.3-2.1-2.3
			s-0.7-2.2-0.7-3.5c0-2.1,0.5-3.7,1.6-4.9s2.5-1.8,4.4-1.8c1.8,0,3.2,0.6,4.3,1.8S161,228.7,161,230.7z M151.2,230.7
			c0,1.6,0.3,2.9,1,3.8s1.6,1.3,2.9,1.3s2.2-0.4,2.9-1.3s1-2.1,1-3.8c0-1.6-0.3-2.9-1-3.7s-1.6-1.3-2.9-1.3c-1.3,0-2.2,0.4-2.9,1.3
			S151.2,229.1,151.2,230.7z"/>
		<path class="st1" d="M174.9,224.3v1.2l-2.4,0.3c0.2,0.3,0.4,0.6,0.6,1.1s0.3,0.9,0.3,1.5c0,1.3-0.4,2.3-1.3,3s-2,1.1-3.5,1.1
			c-0.4,0-0.7,0-1.1-0.1c-0.8,0.4-1.2,1-1.2,1.7c0,0.4,0.1,0.6,0.4,0.8s0.8,0.3,1.5,0.3h2.3c1.4,0,2.5,0.3,3.2,0.9s1.1,1.4,1.1,2.6
			c0,1.4-0.6,2.5-1.7,3.3s-2.8,1.1-5,1.1c-1.7,0-3-0.3-3.9-0.9s-1.4-1.5-1.4-2.6c0-0.8,0.3-1.5,0.8-2s1.2-1,2.1-1.2
			c-0.3-0.1-0.6-0.4-0.8-0.7s-0.3-0.7-0.3-1.1c0-0.5,0.1-0.9,0.4-1.2s0.6-0.7,1.2-1c-0.7-0.3-1.2-0.7-1.6-1.4s-0.6-1.4-0.6-2.3
			c0-1.4,0.4-2.5,1.3-3.3s2-1.1,3.6-1.1c0.7,0,1.3,0.1,1.8,0.2h4.2V224.3z M164.6,239.3c0,0.7,0.3,1.2,0.9,1.6s1.4,0.5,2.5,0.5
			c1.6,0,2.8-0.2,3.6-0.7s1.2-1.2,1.2-2c0-0.7-0.2-1.2-0.6-1.4s-1.2-0.4-2.4-0.4h-2.3c-0.9,0-1.6,0.2-2.1,0.6
			S164.6,238.5,164.6,239.3z M165.7,228.4c0,0.9,0.3,1.6,0.8,2s1.2,0.7,2.1,0.7c1.9,0,2.8-0.9,2.8-2.8c0-1.9-1-2.9-2.9-2.9
			c-0.9,0-1.6,0.2-2.1,0.7S165.7,227.5,165.7,228.4z"/>
		<path class="st1" d="M183.4,224.1c0.6,0,1.1,0,1.5,0.1l-0.3,1.8c-0.5-0.1-1-0.2-1.4-0.2c-1,0-1.9,0.4-2.7,1.3s-1.1,1.9-1.1,3.2
			v6.9h-1.9v-12.8h1.6l0.2,2.4h0.1c0.5-0.8,1.1-1.5,1.7-1.9S182.6,224.1,183.4,224.1z"/>
		<path class="st1" d="M192.7,237.4c-1.9,0-3.4-0.6-4.5-1.7s-1.6-2.8-1.6-4.8c0-2.1,0.5-3.7,1.5-4.9s2.4-1.8,4.1-1.8
			c1.6,0,2.9,0.5,3.8,1.6s1.4,2.5,1.4,4.2v1.2h-8.8c0,1.5,0.4,2.7,1.1,3.4s1.7,1.2,3.1,1.2c1.4,0,2.8-0.3,4.1-0.9v1.7
			c-0.7,0.3-1.3,0.5-2,0.6S193.6,237.4,192.7,237.4z M192.2,225.7c-1,0-1.9,0.3-2.5,1s-1,1.6-1.1,2.8h6.7c0-1.2-0.3-2.2-0.8-2.8
			S193.2,225.7,192.2,225.7z"/>
		<path class="st1" d="M209.1,233.7c0,1.2-0.4,2.1-1.3,2.8s-2.1,1-3.8,1s-3-0.3-4-0.8v-1.8c0.6,0.3,1.3,0.6,2,0.7s1.4,0.3,2,0.3
			c1,0,1.8-0.2,2.3-0.5s0.8-0.8,0.8-1.5c0-0.5-0.2-0.9-0.7-1.3s-1.3-0.8-2.5-1.3c-1.2-0.4-2-0.8-2.5-1.2s-0.9-0.7-1.1-1.1
			s-0.4-0.9-0.4-1.5c0-1,0.4-1.9,1.3-2.5s2-0.9,3.5-0.9c1.4,0,2.7,0.3,4.1,0.8l-0.7,1.6c-1.3-0.5-2.5-0.8-3.5-0.8
			c-0.9,0-1.6,0.1-2.1,0.4s-0.7,0.7-0.7,1.2c0,0.3,0.1,0.6,0.3,0.9s0.5,0.5,0.8,0.7s1.1,0.5,2.3,0.9c1.5,0.6,2.6,1.1,3.1,1.7
			S209.1,232.8,209.1,233.7z"/>
		<path class="st1" d="M220.5,233.7c0,1.2-0.4,2.1-1.3,2.8s-2.1,1-3.8,1s-3-0.3-4-0.8v-1.8c0.6,0.3,1.3,0.6,2,0.7s1.4,0.3,2,0.3
			c1,0,1.8-0.2,2.3-0.5s0.8-0.8,0.8-1.5c0-0.5-0.2-0.9-0.7-1.3s-1.3-0.8-2.5-1.3c-1.2-0.4-2-0.8-2.5-1.2s-0.9-0.7-1.1-1.1
			s-0.4-0.9-0.4-1.5c0-1,0.4-1.9,1.3-2.5s2-0.9,3.5-0.9c1.4,0,2.7,0.3,4.1,0.8l-0.7,1.6c-1.3-0.5-2.5-0.8-3.5-0.8
			c-0.9,0-1.6,0.1-2.1,0.4s-0.7,0.7-0.7,1.2c0,0.3,0.1,0.6,0.3,0.9s0.5,0.5,0.8,0.7s1.1,0.5,2.3,0.9c1.5,0.6,2.6,1.1,3.1,1.7
			S220.5,232.8,220.5,233.7z"/>
	</g>
	<g class="st3">
		<path class="st1" d="M164.3,289.3v7.1h-2v-17.1h4.7c2.1,0,3.7,0.4,4.7,1.2s1.5,2,1.5,3.6c0,2.3-1.1,3.8-3.4,4.6l4.7,7.7H172
			l-4.1-7.1L164.3,289.3L164.3,289.3z M164.3,287.5h2.7c1.4,0,2.4-0.3,3.1-0.8s1-1.4,1-2.5s-0.3-1.9-1-2.4s-1.7-0.8-3.2-0.8h-2.6
			V287.5z"/>
		<path class="st1" d="M182.2,296.6c-1.9,0-3.4-0.6-4.5-1.7s-1.6-2.8-1.6-4.8c0-2.1,0.5-3.7,1.5-4.9s2.4-1.8,4.1-1.8
			c1.6,0,2.9,0.5,3.8,1.6s1.4,2.5,1.4,4.2v1.2h-8.8c0,1.5,0.4,2.7,1.1,3.4s1.7,1.2,3.1,1.2c1.4,0,2.8-0.3,4.1-0.9v1.7
			c-0.7,0.3-1.3,0.5-2,0.6S183.1,296.6,182.2,296.6z M181.7,284.9c-1,0-1.9,0.3-2.5,1s-1,1.6-1.1,2.8h6.7c0-1.2-0.3-2.2-0.8-2.8
			S182.7,284.9,181.7,284.9z"/>
		<path class="st1" d="M198.6,292.9c0,1.2-0.4,2.1-1.3,2.8s-2.1,1-3.8,1s-3-0.3-4-0.8V294c0.6,0.3,1.3,0.6,2,0.7s1.4,0.3,2,0.3
			c1,0,1.8-0.2,2.3-0.5s0.8-0.8,0.8-1.5c0-0.5-0.2-0.9-0.7-1.3s-1.3-0.8-2.5-1.3c-1.2-0.4-2-0.8-2.5-1.2s-0.9-0.7-1.1-1.1
			s-0.4-0.9-0.4-1.5c0-1,0.4-1.9,1.3-2.5s2-0.9,3.5-0.9c1.4,0,2.7,0.3,4.1,0.8l-0.7,1.6c-1.3-0.5-2.5-0.8-3.5-0.8
			c-0.9,0-1.6,0.1-2.1,0.4s-0.7,0.7-0.7,1.2c0,0.3,0.1,0.6,0.3,0.9s0.5,0.5,0.8,0.7s1.1,0.5,2.3,0.9c1.5,0.6,2.6,1.1,3.1,1.7
			S198.6,292,198.6,292.9z"/>
		<path class="st1" d="M207.2,296.6c-1.9,0-3.4-0.6-4.5-1.7s-1.6-2.8-1.6-4.8c0-2.1,0.5-3.7,1.5-4.9s2.4-1.8,4.1-1.8
			c1.6,0,2.9,0.5,3.8,1.6s1.4,2.5,1.4,4.2v1.2H203c0,1.5,0.4,2.7,1.1,3.4s1.7,1.2,3.1,1.2c1.4,0,2.8-0.3,4.1-0.9v1.7
			c-0.7,0.3-1.3,0.5-2,0.6S208,296.6,207.2,296.6z M206.6,284.9c-1,0-1.9,0.3-2.5,1s-1,1.6-1.1,2.8h6.7c0-1.2-0.3-2.2-0.8-2.8
			S207.6,284.9,206.6,284.9z"/>
		<path class="st1" d="M219.3,295c0.3,0,0.7,0,1-0.1s0.6-0.1,0.8-0.2v1.5c-0.2,0.1-0.5,0.2-0.9,0.3s-0.8,0.1-1.1,0.1
			c-2.5,0-3.7-1.3-3.7-3.9V285h-1.8v-0.9l1.8-0.8l0.8-2.7h1.1v3h3.7v1.5h-3.7v7.6c0,0.8,0.2,1.4,0.6,1.8S218.7,295,219.3,295z"/>
	</g>
</g>
<rect x="146.8" y="38.9" class="st1" width="22.3" height="2.9"/>
<rect x="232.1" y="112" class="st1" width="22.3" height="2.9"/>
<rect x="232.1" y="152" class="st1" width="22.3" height="2.9"/>
<rect x="232.1" y="190.7" class="st1" width="22.3" height="2.9"/>
<rect x="232.1" y="228.7" class="st1" width="22.3" height="2.9"/>
<rect x="232.1" y="287.9" class="st1" width="22.3" height="2.9"/>
<g class="st3">
	<path class="st1" d="M62.7,104.6c-1.9,0-3.4,0.6-4.5,1.9s-1.6,3-1.6,5.2c0,2.2,0.5,4,1.6,5.2s2.5,1.8,4.5,1.8
		c1.2,0,2.6-0.2,4.1-0.6v1.7c-1.2,0.4-2.7,0.7-4.4,0.7c-2.5,0-4.5-0.8-5.8-2.3s-2.1-3.7-2.1-6.5c0-1.8,0.3-3.3,1-4.6
		s1.6-2.4,2.9-3.1s2.7-1.1,4.4-1.1c1.8,0,3.4,0.3,4.7,1l-0.8,1.7C65.3,104.9,64,104.6,62.7,104.6z"/>
	<path class="st1" d="M72.2,120.2h-1.9V102h1.9V120.2z"/>
	<path class="st1" d="M87.4,113.8c0,2.1-0.5,3.7-1.6,4.9s-2.5,1.8-4.4,1.8c-1.1,0-2.2-0.3-3.1-0.8s-1.6-1.3-2.1-2.3
		s-0.7-2.2-0.7-3.5c0-2.1,0.5-3.7,1.6-4.9s2.5-1.8,4.4-1.8c1.8,0,3.2,0.6,4.3,1.8S87.4,111.7,87.4,113.8z M77.6,113.8
		c0,1.6,0.3,2.9,1,3.8s1.6,1.3,2.9,1.3s2.2-0.4,2.9-1.3s1-2.1,1-3.8c0-1.6-0.3-2.9-1-3.7s-1.6-1.3-2.9-1.3c-1.3,0-2.2,0.4-2.9,1.3
		S77.6,112.1,77.6,113.8z"/>
	<path class="st1" d="M99.1,116.7c0,1.2-0.4,2.1-1.3,2.8s-2.1,1-3.8,1c-1.7,0-3-0.3-4-0.8v-1.8c0.6,0.3,1.3,0.6,2,0.7s1.4,0.3,2,0.3
		c1,0,1.8-0.2,2.3-0.5s0.8-0.8,0.8-1.5c0-0.5-0.2-0.9-0.7-1.3s-1.3-0.8-2.5-1.3c-1.2-0.4-2-0.8-2.5-1.2s-0.9-0.7-1.1-1.1
		s-0.4-0.9-0.4-1.5c0-1,0.4-1.9,1.3-2.5s2-0.9,3.5-0.9c1.4,0,2.7,0.3,4.1,0.8l-0.7,1.6c-1.3-0.5-2.5-0.8-3.5-0.8
		c-0.9,0-1.6,0.1-2.1,0.4s-0.7,0.7-0.7,1.2c0,0.3,0.1,0.6,0.3,0.9s0.5,0.5,0.8,0.7s1.1,0.5,2.3,0.9c1.5,0.6,2.6,1.1,3.1,1.7
		S99.1,115.8,99.1,116.7z"/>
	<path class="st1" d="M107.7,120.4c-1.9,0-3.4-0.6-4.5-1.7s-1.6-2.8-1.6-4.8c0-2.1,0.5-3.7,1.5-4.9s2.4-1.8,4.1-1.8
		c1.6,0,2.9,0.5,3.8,1.6s1.4,2.5,1.4,4.2v1.2h-8.8c0,1.5,0.4,2.7,1.1,3.4s1.7,1.2,3.1,1.2c1.4,0,2.8-0.3,4.1-0.9v1.7
		c-0.7,0.3-1.3,0.5-2,0.6S108.6,120.4,107.7,120.4z M107.2,108.8c-1,0-1.9,0.3-2.5,1s-1,1.6-1.1,2.8h6.7c0-1.2-0.3-2.2-0.8-2.8
		S108.2,108.8,107.2,108.8z"/>
	<path class="st1" d="M124.5,118.5h-0.1c-0.9,1.3-2.2,2-4,2c-1.7,0-3-0.6-3.9-1.7s-1.4-2.8-1.4-4.9s0.5-3.8,1.4-4.9s2.2-1.8,3.9-1.8
		c1.7,0,3.1,0.6,4,1.9h0.2l-0.1-0.9l0-0.9V102h1.9v18.2h-1.6L124.5,118.5z M120.6,118.8c1.3,0,2.3-0.4,2.9-1.1s0.9-1.9,0.9-3.5v-0.4
		c0-1.8-0.3-3.1-0.9-3.9s-1.6-1.2-2.9-1.2c-1.1,0-2,0.4-2.6,1.3s-0.9,2.1-0.9,3.8c0,1.6,0.3,2.9,0.9,3.7S119.4,118.8,120.6,118.8z"
		/>
	<path class="st1" d="M144.3,104.6c-1.9,0-3.4,0.6-4.5,1.9s-1.6,3-1.6,5.2c0,2.2,0.5,4,1.6,5.2s2.5,1.8,4.5,1.8
		c1.2,0,2.6-0.2,4.1-0.6v1.7c-1.2,0.4-2.7,0.7-4.4,0.7c-2.5,0-4.5-0.8-5.8-2.3s-2.1-3.7-2.1-6.5c0-1.8,0.3-3.3,1-4.6
		s1.6-2.4,2.9-3.1s2.7-1.1,4.4-1.1c1.8,0,3.4,0.3,4.7,1l-0.8,1.7C146.9,104.9,145.6,104.6,144.3,104.6z"/>
	<path class="st1" d="M159.7,120.2l-0.4-1.8h-0.1c-0.6,0.8-1.3,1.3-1.9,1.6s-1.4,0.4-2.4,0.4c-1.3,0-2.3-0.3-3-1s-1.1-1.6-1.1-2.8
		c0-2.6,2.1-4,6.2-4.1l2.2-0.1v-0.8c0-1-0.2-1.8-0.7-2.2s-1.1-0.7-2.1-0.7c-1.1,0-2.3,0.3-3.6,1l-0.6-1.5c0.6-0.3,1.3-0.6,2.1-0.8
		s1.5-0.3,2.3-0.3c1.5,0,2.7,0.3,3.4,1s1.1,1.8,1.1,3.3v8.8H159.7z M155.3,118.8c1.2,0,2.2-0.3,2.9-1s1-1.6,1-2.8v-1.2l-1.9,0.1
		c-1.5,0.1-2.7,0.3-3.3,0.7s-1,1.1-1,2c0,0.7,0.2,1.2,0.6,1.6S154.6,118.8,155.3,118.8z"/>
	<path class="st1" d="M171.1,120.4c-0.8,0-1.6-0.2-2.3-0.5s-1.3-0.8-1.7-1.4H167c0.1,0.8,0.1,1.5,0.1,2.1v5.3h-1.9v-18.6h1.6
		l0.3,1.8h0.1c0.5-0.7,1.1-1.2,1.7-1.5s1.4-0.5,2.3-0.5c1.7,0,3,0.6,3.9,1.7s1.4,2.8,1.4,4.9c0,2.1-0.5,3.7-1.4,4.9
		S172.8,120.4,171.1,120.4z M170.9,108.8c-1.3,0-2.3,0.4-2.8,1.1s-0.9,1.9-0.9,3.5v0.4c0,1.8,0.3,3.1,0.9,3.9s1.6,1.2,2.9,1.2
		c1.1,0,2-0.4,2.6-1.3s0.9-2.1,0.9-3.7c0-1.6-0.3-2.8-0.9-3.7S172,108.8,170.9,108.8z"/>
	<path class="st1" d="M184,118.8c0.3,0,0.7,0,1-0.1s0.6-0.1,0.8-0.2v1.5c-0.2,0.1-0.5,0.2-0.9,0.3s-0.8,0.1-1.1,0.1
		c-2.5,0-3.7-1.3-3.7-3.9v-7.6h-1.8v-0.9l1.8-0.8l0.8-2.7h1.1v3h3.7v1.5H182v7.6c0,0.8,0.2,1.4,0.6,1.8S183.4,118.8,184,118.8z"/>
	<path class="st1" d="M188.2,103.9c0-0.4,0.1-0.8,0.3-1s0.5-0.3,0.8-0.3c0.3,0,0.6,0.1,0.8,0.3s0.3,0.5,0.3,1s-0.1,0.8-0.3,1
		s-0.5,0.3-0.8,0.3c-0.3,0-0.6-0.1-0.8-0.3S188.2,104.3,188.2,103.9z M190.3,120.2h-1.9v-12.8h1.9V120.2z"/>
	<path class="st1" d="M205.5,113.8c0,2.1-0.5,3.7-1.6,4.9s-2.5,1.8-4.4,1.8c-1.1,0-2.2-0.3-3.1-0.8s-1.6-1.3-2.1-2.3
		s-0.7-2.2-0.7-3.5c0-2.1,0.5-3.7,1.6-4.9s2.5-1.8,4.4-1.8c1.8,0,3.2,0.6,4.3,1.8S205.5,111.7,205.5,113.8z M195.7,113.8
		c0,1.6,0.3,2.9,1,3.8s1.6,1.3,2.9,1.3s2.2-0.4,2.9-1.3s1-2.1,1-3.8c0-1.6-0.3-2.9-1-3.7s-1.6-1.3-2.9-1.3c-1.3,0-2.2,0.4-2.9,1.3
		S195.7,112.1,195.7,113.8z"/>
	<path class="st1" d="M217.7,120.2v-8.3c0-1-0.2-1.8-0.7-2.3s-1.2-0.8-2.2-0.8c-1.3,0-2.3,0.4-3,1.1s-0.9,1.9-0.9,3.6v6.7h-1.9
		v-12.8h1.6l0.3,1.8h0.1c0.4-0.6,1-1.1,1.7-1.5s1.5-0.5,2.4-0.5c1.5,0,2.7,0.4,3.5,1.1s1.2,1.9,1.2,3.6v8.4H217.7z"/>
</g>
</svg>
