<?xml version="1.0" encoding="utf-8"?>
<!-- Generator: Adobe Illustrator 21.1.0, SVG Export Plug-In . SVG Version: 6.00 Build 0)  -->
<svg version="1.1" id="Layer_1" xmlns="http://www.w3.org/2000/svg" xmlns:xlink="http://www.w3.org/1999/xlink" x="0px" y="0px"
	 viewBox="0 0 167.4 122.4" style="enable-background:new 0 0 167.4 122.4;" xml:space="preserve">
<style type="text/css">
	.st0{fill:#E5E8E9;}
	.st1{fill:#B1BBBF;}
	.st2{fill:#54575A;}
	.st3{enable-background:new    ;}
	.st4{fill:#FFFFFF;}
</style>
<g>
	<g>
		<rect x="3.4" y="58.5" class="st0" width="82" height="63.9"/>
		<rect x="85.4" y="58.5" class="st1" width="82" height="63.9"/>
		<polygon class="st2" points="56.9,73.5 48.8,73.5 31.8,90.6 48.7,107.5 56.9,107.5 40.2,90.5 		"/>
		<polygon class="st2" points="113.9,107.5 121.9,107.5 138.9,90.3 122,73.5 113.9,73.5 130.5,90.5 		"/>
	</g>
	<g class="st3">
		<path class="st4" d="M10.9,5.5c0,1.7-0.6,3.1-1.8,4S6.2,10.9,4,10.9H2v6.7H0V0.5h4.4C8.7,0.5,10.9,2.1,10.9,5.5z M2,9.2h1.8
			c1.8,0,3-0.3,3.8-0.9s1.2-1.5,1.2-2.7c0-1.1-0.4-2-1.1-2.5S5.8,2.2,4.2,2.2H2V9.2z"/>
		<path class="st4" d="M20,4.5c0.6,0,1.1,0,1.5,0.1l-0.3,1.8c-0.5-0.1-1-0.2-1.4-0.2c-1,0-1.9,0.4-2.7,1.3s-1.1,1.9-1.1,3.2v6.9
			h-1.9V4.8h1.6L16,7.1h0.1c0.5-0.8,1.1-1.5,1.7-1.9S19.2,4.5,20,4.5z"/>
		<path class="st4" d="M29.4,17.8c-1.9,0-3.4-0.6-4.5-1.7s-1.6-2.8-1.6-4.8c0-2.1,0.5-3.7,1.5-4.9s2.4-1.8,4.1-1.8
			c1.6,0,2.9,0.5,3.8,1.6s1.4,2.5,1.4,4.2v1.2h-8.8c0,1.5,0.4,2.7,1.1,3.4s1.7,1.2,3.1,1.2c1.4,0,2.8-0.3,4.1-0.9V17
			c-0.7,0.3-1.3,0.5-2,0.6S30.2,17.8,29.4,17.8z M28.9,6.2c-1,0-1.9,0.3-2.5,1s-1,1.6-1.1,2.8H32c0-1.2-0.3-2.2-0.8-2.8
			S29.9,6.2,28.9,6.2z"/>
		<path class="st4" d="M40.2,17.6L35.4,4.8h2.1l2.8,7.6c0.6,1.8,1,2.9,1.1,3.5h0.1c0.1-0.4,0.4-1.3,0.8-2.6s1.5-4.1,3.1-8.5h2.1
			l-4.9,12.8H40.2z"/>
		<path class="st4" d="M49.3,1.3c0-0.4,0.1-0.8,0.3-1S50.1,0,50.4,0c0.3,0,0.6,0.1,0.8,0.3s0.3,0.5,0.3,1s-0.1,0.8-0.3,1
			s-0.5,0.3-0.8,0.3c-0.3,0-0.6-0.1-0.8-0.3S49.3,1.7,49.3,1.3z M51.4,17.6h-1.9V4.8h1.9V17.6z"/>
		<path class="st4" d="M66.6,11.2c0,2.1-0.5,3.7-1.6,4.9s-2.5,1.8-4.4,1.8c-1.1,0-2.2-0.3-3.1-0.8s-1.6-1.3-2.1-2.3
			s-0.7-2.2-0.7-3.5c0-2.1,0.5-3.7,1.6-4.9s2.5-1.8,4.4-1.8c1.8,0,3.2,0.6,4.3,1.8S66.6,9.1,66.6,11.2z M56.8,11.2
			c0,1.6,0.3,2.9,1,3.8s1.6,1.3,2.9,1.3s2.2-0.4,2.9-1.3s1-2.1,1-3.8c0-1.6-0.3-2.9-1-3.7S62,6.2,60.7,6.2c-1.3,0-2.2,0.4-2.9,1.3
			S56.8,9.5,56.8,11.2z"/>
		<path class="st4" d="M71.8,4.8v8.3c0,1,0.2,1.8,0.7,2.3s1.2,0.8,2.2,0.8c1.3,0,2.3-0.4,2.9-1.1s0.9-1.9,0.9-3.6V4.8h1.9v12.8H79
			l-0.3-1.7h-0.1c-0.4,0.6-1,1.1-1.7,1.5s-1.5,0.5-2.4,0.5c-1.6,0-2.7-0.4-3.5-1.1s-1.2-1.9-1.2-3.6V4.8H71.8z"/>
		<path class="st4" d="M93,14.1c0,1.2-0.4,2.1-1.3,2.8s-2.1,1-3.8,1c-1.7,0-3-0.3-4-0.8v-1.8c0.6,0.3,1.3,0.6,2,0.7s1.4,0.3,2,0.3
			c1,0,1.8-0.2,2.3-0.5s0.8-0.8,0.8-1.5c0-0.5-0.2-0.9-0.7-1.3s-1.3-0.8-2.5-1.3c-1.2-0.4-2-0.8-2.5-1.2s-0.9-0.7-1.1-1.1
			s-0.4-0.9-0.4-1.5c0-1,0.4-1.9,1.3-2.5s2-0.9,3.5-0.9c1.4,0,2.7,0.3,4.1,0.8L92.1,7c-1.3-0.5-2.5-0.8-3.5-0.8
			c-0.9,0-1.6,0.1-2.1,0.4s-0.7,0.7-0.7,1.2c0,0.3,0.1,0.6,0.3,0.9s0.5,0.5,0.8,0.7s1.1,0.5,2.3,0.9c1.5,0.6,2.6,1.1,3.1,1.7
			S93,13.3,93,14.1z"/>
		<path class="st4" d="M122.3,17.6h-2.3l-9.4-14.4h-0.1c0.1,1.7,0.2,3.2,0.2,4.6v9.7h-1.8V0.5h2.3l9.3,14.3h0.1c0-0.2-0.1-0.9-0.1-2
			s-0.1-2-0.1-2.5V0.5h1.9V17.6z"/>
		<path class="st4" d="M132.2,17.8c-1.9,0-3.4-0.6-4.5-1.7s-1.6-2.8-1.6-4.8c0-2.1,0.5-3.7,1.5-4.9s2.4-1.8,4.1-1.8
			c1.6,0,2.9,0.5,3.8,1.6s1.4,2.5,1.4,4.2v1.2h-8.8c0,1.5,0.4,2.7,1.1,3.4s1.7,1.2,3.1,1.2c1.4,0,2.8-0.3,4.1-0.9V17
			c-0.7,0.3-1.3,0.5-2,0.6S133,17.8,132.2,17.8z M131.6,6.2c-1,0-1.9,0.3-2.5,1s-1,1.6-1.1,2.8h6.7c0-1.2-0.3-2.2-0.8-2.8
			S132.7,6.2,131.6,6.2z"/>
		<path class="st4" d="M143.3,11l-4.5-6.3h2.2l3.4,4.9l3.4-4.9h2.2l-4.5,6.3l4.7,6.6H148l-3.6-5.2l-3.6,5.2h-2.2L143.3,11z"/>
		<path class="st4" d="M156.9,16.2c0.3,0,0.7,0,1-0.1s0.6-0.1,0.8-0.2v1.5c-0.2,0.1-0.5,0.2-0.9,0.3s-0.8,0.1-1.1,0.1
			c-2.5,0-3.7-1.3-3.7-3.9V6.3h-1.8V5.3l1.8-0.8l0.8-2.7h1.1v3h3.7v1.5h-3.7v7.6c0,0.8,0.2,1.4,0.6,1.8S156.3,16.2,156.9,16.2z"/>
	</g>
</g>
<rect x="114.7" y="37.8" transform="matrix(-1.836970e-16 1 -1 -1.836970e-16 165.0312 -86.6299)" class="st4" width="22.3" height="2.9"/>
<rect x="33.2" y="37.8" transform="matrix(-1.836970e-16 1 -1 -1.836970e-16 83.5195 -5.1182)" class="st4" width="22.3" height="2.9"/>
</svg>
