<?xml version="1.0" encoding="utf-8"?>
<!-- Generator: Adobe Illustrator 21.1.0, SVG Export Plug-In . SVG Version: 6.00 Build 0)  -->
<svg version="1.1" id="Layer_1" xmlns="http://www.w3.org/2000/svg" xmlns:xlink="http://www.w3.org/1999/xlink" x="0px" y="0px"
	 viewBox="0 0 205.3 122.4" style="enable-background:new 0 0 205.3 122.4;" xml:space="preserve">
<style type="text/css">
	.st0{fill:#E5E8E9;}
	.st1{fill:#B1BBBF;}
	.st2{fill:#54575A;}
	.st3{fill:#FFFFFF;}
</style>
<rect y="58.5" class="st0" width="102.7" height="63.9"/>
<rect x="102.7" y="58.5" class="st1" width="102.7" height="63.9"/>
<polygon class="st2" points="56.4,73.5 48.3,73.5 31.3,90.6 48.2,107.5 56.4,107.5 39.7,90.5 "/>
<polygon class="st2" points="140.4,107.5 148.4,107.5 165.4,90.3 148.5,73.5 140.4,73.5 157,90.5 "/>
<path class="st3" d="M15.7,5.5c0,1.7-0.6,3.1-1.8,4s-2.9,1.4-5.1,1.4h-2v6.7h-2V0.5h4.4C13.5,0.5,15.7,2.1,15.7,5.5z M6.8,9.2h1.8
	c1.8,0,3-0.3,3.8-0.9s1.2-1.5,1.2-2.7c0-1.1-0.4-2-1.1-2.5S10.6,2.2,9,2.2H6.8V9.2z"/>
<path class="st3" d="M24.8,4.5c0.6,0,1.1,0,1.5,0.1l-0.3,1.8c-0.5-0.1-1-0.2-1.4-0.2c-1,0-1.9,0.4-2.7,1.3s-1.1,1.9-1.1,3.2v6.9H19
	V4.8h1.6l0.2,2.4h0.1c0.5-0.8,1.1-1.5,1.7-1.9S24,4.5,24.8,4.5z"/>
<path class="st3" d="M34.2,17.8c-1.9,0-3.4-0.6-4.5-1.7s-1.6-2.8-1.6-4.8c0-2.1,0.5-3.7,1.5-4.9s2.4-1.8,4.1-1.8
	c1.6,0,2.9,0.5,3.8,1.6s1.4,2.5,1.4,4.2v1.2h-8.8c0,1.5,0.4,2.7,1.1,3.4s1.7,1.2,3.1,1.2c1.4,0,2.8-0.3,4.1-0.9V17
	c-0.7,0.3-1.3,0.5-2,0.6S35.1,17.8,34.2,17.8z M33.7,6.2c-1,0-1.9,0.3-2.5,1s-1,1.6-1.1,2.8h6.7c0-1.2-0.3-2.2-0.8-2.8
	S34.7,6.2,33.7,6.2z"/>
<path class="st3" d="M45,17.6L40.2,4.8h2.1l2.8,7.6c0.6,1.8,1,2.9,1.1,3.5h0.1c0.1-0.4,0.4-1.3,0.8-2.6s1.5-4.1,3.1-8.5h2.1
	l-4.9,12.8H45z"/>
<path class="st3" d="M54.1,1.3c0-0.4,0.1-0.8,0.3-1S54.9,0,55.2,0c0.3,0,0.6,0.1,0.8,0.3s0.3,0.5,0.3,1s-0.1,0.8-0.3,1
	s-0.5,0.3-0.8,0.3c-0.3,0-0.6-0.1-0.8-0.3S54.1,1.7,54.1,1.3z M56.2,17.6h-1.9V4.8h1.9V17.6z"/>
<path class="st3" d="M71.4,11.2c0,2.1-0.5,3.7-1.6,4.9s-2.5,1.8-4.4,1.8c-1.1,0-2.2-0.3-3.1-0.8s-1.6-1.3-2.1-2.3s-0.7-2.2-0.7-3.5
	c0-2.1,0.5-3.7,1.6-4.9s2.5-1.8,4.4-1.8c1.8,0,3.2,0.6,4.3,1.8S71.4,9.1,71.4,11.2z M61.6,11.2c0,1.6,0.3,2.9,1,3.8s1.6,1.3,2.9,1.3
	s2.2-0.4,2.9-1.3s1-2.1,1-3.8c0-1.6-0.3-2.9-1-3.7s-1.6-1.3-2.9-1.3c-1.3,0-2.2,0.4-2.9,1.3S61.6,9.5,61.6,11.2z"/>
<path class="st3" d="M76.6,4.8v8.3c0,1,0.2,1.8,0.7,2.3s1.2,0.8,2.2,0.8c1.3,0,2.3-0.4,2.9-1.1s0.9-1.9,0.9-3.6V4.8h1.9v12.8h-1.6
	l-0.3-1.7h-0.1c-0.4,0.6-1,1.1-1.7,1.5s-1.5,0.5-2.4,0.5c-1.6,0-2.7-0.4-3.5-1.1s-1.2-1.9-1.2-3.6V4.8H76.6z"/>
<path class="st3" d="M97.8,14.1c0,1.2-0.4,2.1-1.3,2.8s-2.1,1-3.8,1c-1.7,0-3-0.3-4-0.8v-1.8c0.6,0.3,1.3,0.6,2,0.7s1.4,0.3,2,0.3
	c1,0,1.8-0.2,2.3-0.5s0.8-0.8,0.8-1.5c0-0.5-0.2-0.9-0.7-1.3s-1.3-0.8-2.5-1.3c-1.2-0.4-2-0.8-2.5-1.2s-0.9-0.7-1.1-1.1
	s-0.4-0.9-0.4-1.5c0-1,0.4-1.9,1.3-2.5s2-0.9,3.5-0.9c1.4,0,2.7,0.3,4.1,0.8L96.9,7c-1.3-0.5-2.5-0.8-3.5-0.8
	c-0.9,0-1.6,0.1-2.1,0.4s-0.7,0.7-0.7,1.2c0,0.3,0.1,0.6,0.3,0.9s0.5,0.5,0.8,0.7s1.1,0.5,2.3,0.9c1.5,0.6,2.6,1.1,3.1,1.7
	S97.8,13.3,97.8,14.1z"/>
<path class="st3" d="M141.5,17.6h-2.3l-9.4-14.4h-0.1c0.1,1.7,0.2,3.2,0.2,4.6v9.7h-1.8V0.5h2.3l9.3,14.3h0.1c0-0.2-0.1-0.9-0.1-2
	s-0.1-2-0.1-2.5V0.5h1.9V17.6z"/>
<path class="st3" d="M151.3,17.8c-1.9,0-3.4-0.6-4.5-1.7s-1.6-2.8-1.6-4.8c0-2.1,0.5-3.7,1.5-4.9s2.4-1.8,4.1-1.8
	c1.6,0,2.9,0.5,3.8,1.6s1.4,2.5,1.4,4.2v1.2h-8.8c0,1.5,0.4,2.7,1.1,3.4s1.7,1.2,3.1,1.2c1.4,0,2.8-0.3,4.1-0.9V17
	c-0.7,0.3-1.3,0.5-2,0.6S152.2,17.8,151.3,17.8z M150.8,6.2c-1,0-1.9,0.3-2.5,1s-1,1.6-1.1,2.8h6.7c0-1.2-0.3-2.2-0.8-2.8
	S151.8,6.2,150.8,6.2z"/>
<path class="st3" d="M162.4,11L158,4.8h2.2l3.4,4.9l3.4-4.9h2.2l-4.5,6.3l4.7,6.6h-2.2l-3.6-5.2l-3.6,5.2h-2.2L162.4,11z"/>
<path class="st3" d="M176.1,16.2c0.3,0,0.7,0,1-0.1s0.6-0.1,0.8-0.2v1.5c-0.2,0.1-0.5,0.2-0.9,0.3s-0.8,0.1-1.1,0.1
	c-2.5,0-3.7-1.3-3.7-3.9V6.3h-1.8V5.3l1.8-0.8l0.8-2.7h1.1v3h3.7v1.5H174v7.6c0,0.8,0.2,1.4,0.6,1.8S175.4,16.2,176.1,16.2z"/>
<rect x="142.8" y="37.8" transform="matrix(-1.836970e-16 1 -1 -1.836970e-16 193.1915 -114.7902)" class="st3" width="22.3" height="2.9"/>
<rect x="38" y="37.8" transform="matrix(-1.836970e-16 1 -1 -1.836970e-16 88.3326 -9.9312)" class="st3" width="22.3" height="2.9"/>
</svg>
