<?xml version="1.0" encoding="utf-8"?>
<!-- Generator: Adobe Illustrator 21.1.0, SVG Export Plug-In . SVG Version: 6.00 Build 0)  -->
<svg version="1.1" id="Layer_1" xmlns="http://www.w3.org/2000/svg" xmlns:xlink="http://www.w3.org/1999/xlink" x="0px" y="0px"
	 viewBox="0 0 143.7 111.7" style="enable-background:new 0 0 143.7 111.7;" xml:space="preserve">
<style type="text/css">
	.st0{fill:#C03927;}
	.st1{enable-background:new    ;}
	.st2{fill:#FFFFFF;}
</style>
<g>
	<g>
		<rect x="20.9" y="61.5" class="st0" width="101.9" height="50.2"/>
		<g class="st1">
			<path class="st2" d="M42,88.1c0,0.9-0.3,1.6-1,2.1s-1.5,0.7-2.6,0.7c-1.2,0-2.1-0.2-2.8-0.5v-1.1c0.4,0.2,0.9,0.3,1.4,0.4
				s1,0.2,1.5,0.2c0.8,0,1.4-0.1,1.8-0.4c0.4-0.3,0.6-0.7,0.6-1.2c0-0.4-0.1-0.6-0.2-0.9c-0.1-0.2-0.4-0.4-0.7-0.6
				c-0.3-0.2-0.8-0.4-1.5-0.6c-0.9-0.3-1.6-0.7-2-1.2c-0.4-0.5-0.6-1.1-0.6-1.8c0-0.8,0.3-1.4,0.9-1.9c0.6-0.5,1.4-0.7,2.3-0.7
				c1,0,1.9,0.2,2.8,0.6l-0.4,1c-0.8-0.4-1.6-0.5-2.4-0.5c-0.6,0-1.1,0.1-1.5,0.4c-0.4,0.3-0.5,0.6-0.5,1.1c0,0.4,0.1,0.6,0.2,0.9
				c0.1,0.2,0.3,0.4,0.7,0.6c0.3,0.2,0.8,0.4,1.4,0.6c1.1,0.4,1.8,0.8,2.2,1.2C41.8,86.9,42,87.4,42,88.1z"/>
			<path class="st2" d="M47.2,90.9c-1.1,0-2-0.3-2.7-1c-0.6-0.7-1-1.6-1-2.8c0-1.2,0.3-2.2,0.9-2.9c0.6-0.7,1.4-1.1,2.4-1.1
				c1,0,1.7,0.3,2.3,0.9c0.6,0.6,0.8,1.5,0.8,2.5v0.7h-5.2c0,0.9,0.2,1.6,0.7,2c0.4,0.5,1,0.7,1.8,0.7c0.8,0,1.6-0.2,2.4-0.5v1
				c-0.4,0.2-0.8,0.3-1.2,0.4S47.7,90.9,47.2,90.9z M46.8,84c-0.6,0-1.1,0.2-1.5,0.6c-0.4,0.4-0.6,0.9-0.6,1.6h4
				c0-0.7-0.2-1.3-0.5-1.7C47.9,84.2,47.4,84,46.8,84z"/>
			<path class="st2" d="M55.1,90.9c-1.1,0-2-0.3-2.7-1c-0.6-0.7-1-1.6-1-2.8c0-1.2,0.3-2.2,0.9-2.9c0.6-0.7,1.4-1.1,2.4-1.1
				c1,0,1.7,0.3,2.3,0.9c0.6,0.6,0.8,1.5,0.8,2.5v0.7h-5.2c0,0.9,0.2,1.6,0.7,2c0.4,0.5,1,0.7,1.8,0.7c0.8,0,1.6-0.2,2.4-0.5v1
				c-0.4,0.2-0.8,0.3-1.2,0.4S55.6,90.9,55.1,90.9z M54.8,84c-0.6,0-1.1,0.2-1.5,0.6c-0.4,0.4-0.6,0.9-0.6,1.6h4
				c0-0.7-0.2-1.3-0.5-1.7C55.9,84.2,55.4,84,54.8,84z"/>
			<path class="st2" d="M68.2,90.8l-3.4-9h-0.1c0.1,0.7,0.1,1.6,0.1,2.5v6.4h-1.1V80.7h1.8l3.2,8.4h0.1l3.2-8.4h1.8v10.1h-1.2v-6.5
				c0-0.7,0-1.6,0.1-2.4h-0.1l-3.5,9H68.2z"/>
			<path class="st2" d="M82.9,87c0,1.2-0.3,2.2-0.9,2.9c-0.6,0.7-1.5,1-2.6,1c-0.7,0-1.3-0.2-1.8-0.5c-0.5-0.3-0.9-0.8-1.2-1.4
				s-0.4-1.3-0.4-2.1c0-1.2,0.3-2.2,0.9-2.9s1.5-1,2.6-1c1.1,0,1.9,0.4,2.5,1.1C82.6,84.8,82.9,85.8,82.9,87z M77.1,87
				c0,1,0.2,1.7,0.6,2.2c0.4,0.5,1,0.8,1.7,0.8s1.3-0.3,1.7-0.8c0.4-0.5,0.6-1.2,0.6-2.2c0-1-0.2-1.7-0.6-2.2
				c-0.4-0.5-1-0.8-1.7-0.8c-0.8,0-1.3,0.2-1.7,0.7C77.3,85.3,77.1,86,77.1,87z"/>
			<path class="st2" d="M88.4,83.1c0.3,0,0.6,0,0.9,0.1l-0.2,1.1c-0.3-0.1-0.6-0.1-0.8-0.1c-0.6,0-1.1,0.3-1.6,0.7
				c-0.4,0.5-0.7,1.1-0.7,1.9v4.1h-1.1v-7.6h0.9l0.1,1.4h0.1c0.3-0.5,0.6-0.9,1-1.1C87.5,83.2,87.9,83.1,88.4,83.1z"/>
			<path class="st2" d="M93.9,90.9c-1.1,0-2-0.3-2.7-1s-1-1.6-1-2.8c0-1.2,0.3-2.2,0.9-2.9c0.6-0.7,1.4-1.1,2.4-1.1
				c1,0,1.7,0.3,2.3,0.9c0.6,0.6,0.8,1.5,0.8,2.5v0.7h-5.2c0,0.9,0.2,1.6,0.7,2s1,0.7,1.8,0.7c0.8,0,1.6-0.2,2.4-0.5v1
				c-0.4,0.2-0.8,0.3-1.2,0.4C94.9,90.9,94.4,90.9,93.9,90.9z M93.6,84c-0.6,0-1.1,0.2-1.5,0.6s-0.6,0.9-0.6,1.6h4
				c0-0.7-0.2-1.3-0.5-1.7C94.7,84.2,94.2,84,93.6,84z"/>
			<path class="st2" d="M98.5,90.1c0-0.3,0.1-0.5,0.2-0.7s0.3-0.2,0.6-0.2c0.3,0,0.5,0.1,0.6,0.2c0.1,0.2,0.2,0.4,0.2,0.7
				c0,0.3-0.1,0.5-0.2,0.7c-0.2,0.2-0.4,0.2-0.6,0.2c-0.2,0-0.4-0.1-0.6-0.2C98.6,90.6,98.5,90.4,98.5,90.1z"/>
			<path class="st2" d="M102.3,90.1c0-0.3,0.1-0.5,0.2-0.7s0.3-0.2,0.6-0.2c0.3,0,0.5,0.1,0.6,0.2c0.1,0.2,0.2,0.4,0.2,0.7
				c0,0.3-0.1,0.5-0.2,0.7c-0.2,0.2-0.4,0.2-0.6,0.2c-0.2,0-0.4-0.1-0.6-0.2C102.4,90.6,102.3,90.4,102.3,90.1z"/>
			<path class="st2" d="M106.1,90.1c0-0.3,0.1-0.5,0.2-0.7c0.1-0.2,0.3-0.2,0.6-0.2c0.3,0,0.5,0.1,0.6,0.2c0.2,0.2,0.2,0.4,0.2,0.7
				c0,0.3-0.1,0.5-0.2,0.7c-0.2,0.2-0.4,0.2-0.6,0.2c-0.2,0-0.4-0.1-0.6-0.2S106.1,90.4,106.1,90.1z"/>
		</g>
	</g>
	<g class="st1">
		<path class="st2" d="M12,16c0,1.5-0.5,2.7-1.6,3.5s-2.6,1.3-4.5,1.3c-2,0-3.6-0.3-4.7-0.8v-1.9c0.7,0.3,1.5,0.5,2.3,0.7
			s1.6,0.3,2.5,0.3c1.3,0,2.3-0.3,3-0.8s1-1.2,1-2.1c0-0.6-0.1-1.1-0.4-1.5S9,14,8.5,13.7S7,13,5.9,12.6c-1.6-0.6-2.7-1.2-3.4-2
			s-1-1.8-1-3.1C1.5,6.2,2,5.1,3,4.4s2.3-1.2,3.9-1.2c1.7,0,3.3,0.3,4.7,0.9L11,5.9C9.6,5.3,8.2,5,6.8,5C5.8,5,5,5.2,4.4,5.6
			S3.5,6.7,3.5,7.5c0,0.6,0.1,1.1,0.3,1.5s0.6,0.7,1.1,1s1.3,0.7,2.4,1c1.8,0.6,3,1.3,3.7,2.1S12,14.8,12,16z"/>
		<path class="st2" d="M20.4,20.8c-1.9,0-3.3-0.6-4.3-1.7s-1.5-2.8-1.5-4.9c0-2.1,0.5-3.8,1.6-5s2.5-1.8,4.4-1.8
			c0.6,0,1.2,0.1,1.9,0.2s1.1,0.3,1.5,0.5l-0.6,1.7c-0.4-0.2-0.9-0.3-1.4-0.4s-1-0.2-1.3-0.2c-2.6,0-3.9,1.7-3.9,5
			c0,1.6,0.3,2.8,1,3.6s1.6,1.3,2.8,1.3c1.1,0,2.2-0.2,3.3-0.7v1.7C22.8,20.6,21.7,20.8,20.4,20.8z"/>
		<path class="st2" d="M32.5,7.5c0.6,0,1.1,0,1.5,0.1l-0.3,1.8c-0.5-0.1-1-0.2-1.4-0.2c-1,0-1.9,0.4-2.7,1.3s-1.1,1.9-1.1,3.2v6.9
			h-1.9V7.7h1.6l0.2,2.4h0.1c0.5-0.8,1.1-1.5,1.7-1.9S31.7,7.5,32.5,7.5z"/>
		<path class="st2" d="M47.5,14.1c0,2.1-0.5,3.7-1.6,4.9s-2.5,1.8-4.4,1.8c-1.1,0-2.2-0.3-3.1-0.8s-1.6-1.3-2.1-2.3
			s-0.7-2.2-0.7-3.5c0-2.1,0.5-3.7,1.6-4.9s2.5-1.8,4.4-1.8c1.8,0,3.2,0.6,4.3,1.8S47.5,12.1,47.5,14.1z M37.8,14.1
			c0,1.6,0.3,2.9,1,3.8s1.6,1.3,2.9,1.3s2.2-0.4,2.9-1.3s1-2.1,1-3.8c0-1.6-0.3-2.9-1-3.7s-1.6-1.3-2.9-1.3c-1.3,0-2.2,0.4-2.9,1.3
			S37.8,12.5,37.8,14.1z"/>
		<path class="st2" d="M52.9,20.6H51V2.3h1.9V20.6z"/>
		<path class="st2" d="M59,20.6H57V2.3H59V20.6z"/>
		<path class="st2" d="M69.6,3.4h4.8c2.3,0,3.9,0.3,4.9,1s1.5,1.8,1.5,3.2c0,1-0.3,1.9-0.8,2.5s-1.4,1.1-2.5,1.3v0.1
			c2.6,0.4,3.9,1.8,3.9,4.1c0,1.5-0.5,2.7-1.6,3.6s-2.5,1.3-4.3,1.3h-6V3.4z M71.6,10.8h3.3c1.4,0,2.4-0.2,3-0.7s0.9-1.2,0.9-2.2
			c0-1-0.3-1.7-1-2.1S76,5.2,74.5,5.2h-2.9V10.8z M71.6,12.5v6.4h3.6c1.4,0,2.4-0.3,3.1-0.8s1-1.4,1-2.5c0-1.1-0.4-1.8-1.1-2.3
			s-1.8-0.8-3.3-0.8H71.6z"/>
		<path class="st2" d="M86.7,7.7v8.3c0,1,0.2,1.8,0.7,2.3s1.2,0.8,2.2,0.8c1.3,0,2.3-0.4,2.9-1.1s0.9-1.9,0.9-3.6V7.7h1.9v12.8h-1.6
			l-0.3-1.7h-0.1c-0.4,0.6-1,1.1-1.7,1.5s-1.5,0.5-2.4,0.5c-1.6,0-2.7-0.4-3.5-1.1s-1.2-1.9-1.2-3.6V7.7H86.7z"/>
		<path class="st2" d="M103.8,19.2c0.3,0,0.7,0,1-0.1s0.6-0.1,0.8-0.2v1.5c-0.2,0.1-0.5,0.2-0.9,0.3s-0.8,0.1-1.1,0.1
			c-2.5,0-3.7-1.3-3.7-3.9V9.2h-1.8V8.3l1.8-0.8l0.8-2.7h1.1v3h3.7v1.5h-3.7v7.6c0,0.8,0.2,1.4,0.6,1.8S103.1,19.2,103.8,19.2z"/>
		<path class="st2" d="M112.2,19.2c0.3,0,0.7,0,1-0.1s0.6-0.1,0.8-0.2v1.5c-0.2,0.1-0.5,0.2-0.9,0.3s-0.8,0.1-1.1,0.1
			c-2.5,0-3.7-1.3-3.7-3.9V9.2h-1.8V8.3l1.8-0.8l0.8-2.7h1.1v3h3.7v1.5h-3.7v7.6c0,0.8,0.2,1.4,0.6,1.8S111.6,19.2,112.2,19.2z"/>
		<path class="st2" d="M127.6,14.1c0,2.1-0.5,3.7-1.6,4.9s-2.5,1.8-4.4,1.8c-1.1,0-2.2-0.3-3.1-0.8s-1.6-1.3-2.1-2.3
			s-0.7-2.2-0.7-3.5c0-2.1,0.5-3.7,1.6-4.9s2.5-1.8,4.4-1.8c1.8,0,3.2,0.6,4.3,1.8S127.6,12.1,127.6,14.1z M117.9,14.1
			c0,1.6,0.3,2.9,1,3.8s1.6,1.3,2.9,1.3s2.2-0.4,2.9-1.3s1-2.1,1-3.8c0-1.6-0.3-2.9-1-3.7s-1.6-1.3-2.9-1.3c-1.3,0-2.2,0.4-2.9,1.3
			S117.9,12.5,117.9,14.1z"/>
		<path class="st2" d="M139.8,20.6v-8.3c0-1-0.2-1.8-0.7-2.3s-1.2-0.8-2.2-0.8c-1.3,0-2.3,0.4-3,1.1s-0.9,1.9-0.9,3.6v6.7h-1.9V7.7
			h1.6l0.3,1.8h0.1c0.4-0.6,1-1.1,1.7-1.5s1.5-0.5,2.4-0.5c1.5,0,2.7,0.4,3.5,1.1s1.2,1.9,1.2,3.6v8.4H139.8z"/>
	</g>
</g>
<rect x="60.8" y="40.7" transform="matrix(-1.836970e-16 1 -1 -1.836970e-16 114.0755 -29.7679)" class="st2" width="22.3" height="2.9"/>
</svg>
