<?xml version="1.0" encoding="utf-8"?>
<!-- Generator: Adobe Illustrator 21.1.0, SVG Export Plug-In . SVG Version: 6.00 Build 0)  -->
<svg version="1.1" id="Layer_1" xmlns="http://www.w3.org/2000/svg" xmlns:xlink="http://www.w3.org/1999/xlink" x="0px" y="0px"
	 viewBox="0 0 167.1 122.6" style="enable-background:new 0 0 167.1 122.6;" xml:space="preserve">
<style type="text/css">
	.st0{fill:#FFFFFF;}
	.st1{enable-background:new    ;}
	.st2{fill:#742116;}
</style>
<g>
	<g>
		<rect y="58.4" class="st0" width="100.4" height="64.2"/>
		<g class="st1">
			<path class="st2" d="M16.1,94.2c0,1-0.4,1.8-1.1,2.4c-0.7,0.6-1.7,0.9-3,0.9c-1.4,0-2.4-0.2-3.2-0.5v-1.3c0.5,0.2,1,0.4,1.6,0.5
				c0.6,0.1,1.1,0.2,1.7,0.2c0.9,0,1.6-0.2,2-0.5c0.5-0.3,0.7-0.8,0.7-1.4c0-0.4-0.1-0.7-0.2-1c-0.2-0.3-0.4-0.5-0.8-0.7
				c-0.4-0.2-1-0.5-1.7-0.7c-1.1-0.4-1.9-0.8-2.3-1.4c-0.5-0.5-0.7-1.2-0.7-2.1c0-0.9,0.3-1.6,1-2.1c0.7-0.5,1.6-0.8,2.7-0.8
				c1.2,0,2.2,0.2,3.2,0.6l-0.4,1.2c-1-0.4-1.9-0.6-2.8-0.6c-0.7,0-1.3,0.2-1.7,0.5c-0.4,0.3-0.6,0.7-0.6,1.3c0,0.4,0.1,0.7,0.2,1
				c0.1,0.3,0.4,0.5,0.8,0.7c0.4,0.2,0.9,0.5,1.6,0.7c1.2,0.4,2.1,0.9,2.5,1.4C15.9,92.7,16.1,93.4,16.1,94.2z"/>
			<path class="st2" d="M19.6,97.2h-1.3V84.9h1.3V97.2z"/>
			<path class="st2" d="M22.3,86.2c0-0.3,0.1-0.5,0.2-0.7c0.1-0.1,0.3-0.2,0.6-0.2c0.2,0,0.4,0.1,0.5,0.2c0.2,0.1,0.2,0.4,0.2,0.7
				c0,0.3-0.1,0.5-0.2,0.7c-0.2,0.1-0.3,0.2-0.5,0.2c-0.2,0-0.4-0.1-0.6-0.2C22.3,86.7,22.3,86.5,22.3,86.2z M23.7,97.2h-1.3v-8.7
				h1.3V97.2z"/>
			<path class="st2" d="M32.4,96.1L32.4,96.1c-0.7,0.9-1.6,1.3-2.8,1.3c-1.1,0-2-0.4-2.7-1.2c-0.6-0.8-0.9-1.9-0.9-3.3
				s0.3-2.5,1-3.3s1.5-1.2,2.7-1.2c1.2,0,2.1,0.4,2.7,1.3h0.1L32.4,89l0-0.6v-3.5h1.3v12.4h-1.1L32.4,96.1z M29.8,96.3
				c0.9,0,1.6-0.2,2-0.7c0.4-0.5,0.6-1.3,0.6-2.4v-0.3c0-1.2-0.2-2.1-0.6-2.6c-0.4-0.5-1.1-0.8-2-0.8c-0.8,0-1.4,0.3-1.8,0.9
				c-0.4,0.6-0.6,1.4-0.6,2.5c0,1.1,0.2,2,0.6,2.5C28.4,96,29,96.3,29.8,96.3z"/>
			<path class="st2" d="M40.1,97.4c-1.3,0-2.3-0.4-3-1.2C36.3,95.4,36,94.4,36,93c0-1.4,0.3-2.5,1-3.3s1.6-1.2,2.8-1.2
				c1.1,0,2,0.4,2.6,1.1c0.6,0.7,1,1.7,1,2.8v0.8h-6c0,1,0.3,1.8,0.8,2.3s1.2,0.8,2.1,0.8c0.9,0,1.9-0.2,2.8-0.6v1.2
				c-0.5,0.2-0.9,0.3-1.3,0.4C41.2,97.4,40.7,97.4,40.1,97.4z M39.8,89.5c-0.7,0-1.3,0.2-1.7,0.7s-0.7,1.1-0.7,1.9h4.5
				c0-0.8-0.2-1.5-0.6-1.9C41,89.7,40.5,89.5,39.8,89.5z"/>
			<path class="st2" d="M56.9,91.4c0,2-0.3,3.5-0.9,4.5c-0.6,1-1.6,1.5-2.9,1.5c-1.2,0-2.2-0.5-2.9-1.5c-0.7-1-1-2.5-1-4.5
				c0-2,0.3-3.5,0.9-4.5c0.6-1,1.6-1.5,2.9-1.5c1.3,0,2.2,0.5,2.9,1.5S56.9,89.5,56.9,91.4z M50.5,91.4c0,1.7,0.2,2.9,0.6,3.7
				s1,1.2,1.9,1.2c0.9,0,1.5-0.4,1.9-1.2c0.4-0.8,0.6-2,0.6-3.7c0-1.7-0.2-2.9-0.6-3.7c-0.4-0.8-1-1.2-1.9-1.2
				c-0.9,0-1.5,0.4-1.9,1.1S50.5,89.7,50.5,91.4z"/>
			<path class="st2" d="M66.2,91.4c0,2-0.3,3.5-0.9,4.5c-0.6,1-1.6,1.5-2.9,1.5c-1.2,0-2.2-0.5-2.9-1.5c-0.7-1-1-2.5-1-4.5
				c0-2,0.3-3.5,0.9-4.5c0.6-1,1.6-1.5,2.9-1.5c1.3,0,2.2,0.5,2.9,1.5S66.2,89.5,66.2,91.4z M59.8,91.4c0,1.7,0.2,2.9,0.6,3.7
				s1,1.2,1.9,1.2c0.9,0,1.5-0.4,1.9-1.2c0.4-0.8,0.6-2,0.6-3.7c0-1.7-0.2-2.9-0.6-3.7c-0.4-0.8-1-1.2-1.9-1.2
				c-0.9,0-1.5,0.4-1.9,1.1S59.8,89.7,59.8,91.4z"/>
			<path class="st2" d="M72.8,85.6l-4.3,11.6h-1.3l4.3-11.6H72.8z"/>
			<path class="st2" d="M81.5,91.4c0,2-0.3,3.5-0.9,4.5c-0.6,1-1.6,1.5-2.9,1.5c-1.2,0-2.2-0.5-2.9-1.5c-0.7-1-1-2.5-1-4.5
				c0-2,0.3-3.5,0.9-4.5c0.6-1,1.6-1.5,2.9-1.5c1.3,0,2.2,0.5,2.9,1.5C81.1,88,81.5,89.5,81.5,91.4z M75.1,91.4
				c0,1.7,0.2,2.9,0.6,3.7s1,1.2,1.9,1.2c0.9,0,1.5-0.4,1.9-1.2c0.4-0.8,0.6-2,0.6-3.7c0-1.7-0.2-2.9-0.6-3.7
				c-0.4-0.8-1-1.2-1.9-1.2c-0.9,0-1.5,0.4-1.9,1.1S75.1,89.7,75.1,91.4z"/>
			<path class="st2" d="M90.7,91.4c0,2-0.3,3.5-0.9,4.5c-0.6,1-1.6,1.5-2.9,1.5c-1.2,0-2.2-0.5-2.9-1.5s-1-2.5-1-4.5
				c0-2,0.3-3.5,0.9-4.5c0.6-1,1.6-1.5,2.9-1.5c1.3,0,2.2,0.5,2.9,1.5C90.4,88,90.7,89.5,90.7,91.4z M84.4,91.4
				c0,1.7,0.2,2.9,0.6,3.7c0.4,0.8,1,1.2,1.9,1.2c0.9,0,1.5-0.4,1.9-1.2c0.4-0.8,0.6-2,0.6-3.7c0-1.7-0.2-2.9-0.6-3.7
				c-0.4-0.8-1-1.2-1.9-1.2c-0.9,0-1.5,0.4-1.9,1.1C84.6,88.5,84.4,89.7,84.4,91.4z"/>
		</g>
	</g>
	<g class="st1">
		<path class="st0" d="M20,13.7c0,1.5-0.5,2.7-1.6,3.5s-2.6,1.3-4.5,1.3c-2,0-3.6-0.3-4.7-0.8v-1.9c0.7,0.3,1.5,0.5,2.3,0.7
			s1.6,0.3,2.5,0.3c1.3,0,2.3-0.3,3-0.8s1-1.2,1-2.1c0-0.6-0.1-1.1-0.4-1.5s-0.6-0.7-1.2-1s-1.4-0.7-2.5-1.1c-1.6-0.6-2.7-1.2-3.4-2
			s-1-1.8-1-3.1c0-1.3,0.5-2.4,1.5-3.2s2.3-1.2,3.9-1.2c1.7,0,3.3,0.3,4.7,0.9l-0.6,1.7c-1.4-0.6-2.8-0.9-4.1-0.9
			c-1.1,0-1.9,0.2-2.5,0.7s-0.9,1.1-0.9,1.9c0,0.6,0.1,1.1,0.3,1.5s0.6,0.7,1.1,1s1.3,0.7,2.4,1c1.8,0.6,3,1.3,3.7,2.1
			S20,12.5,20,13.7z"/>
		<path class="st0" d="M25.1,18.2h-1.9V0h1.9V18.2z"/>
		<path class="st0" d="M29.1,1.9c0-0.4,0.1-0.8,0.3-1s0.5-0.3,0.8-0.3c0.3,0,0.6,0.1,0.8,0.3s0.3,0.5,0.3,1s-0.1,0.8-0.3,1
			s-0.5,0.3-0.8,0.3c-0.3,0-0.6-0.1-0.8-0.3S29.1,2.3,29.1,1.9z M31.2,18.2h-1.9V5.4h1.9V18.2z"/>
		<path class="st0" d="M44.1,16.5H44c-0.9,1.3-2.2,2-4,2c-1.7,0-3-0.6-3.9-1.7s-1.4-2.8-1.4-4.9s0.5-3.8,1.4-4.9s2.2-1.8,3.9-1.8
			c1.7,0,3.1,0.6,4,1.9h0.2L44,6.1l0-0.9V0h1.9v18.2h-1.6L44.1,16.5z M40.2,16.8c1.3,0,2.3-0.4,2.9-1.1s0.9-1.9,0.9-3.5v-0.4
			C44,10,43.6,8.7,43,8s-1.6-1.2-2.9-1.2c-1.1,0-2,0.4-2.6,1.3s-0.9,2.1-0.9,3.8c0,1.6,0.3,2.9,0.9,3.7S39,16.8,40.2,16.8z"/>
		<path class="st0" d="M55.4,18.5c-1.9,0-3.4-0.6-4.5-1.7s-1.6-2.8-1.6-4.8c0-2.1,0.5-3.7,1.5-4.9s2.4-1.8,4.1-1.8
			c1.6,0,2.9,0.5,3.8,1.6s1.4,2.5,1.4,4.2v1.2h-8.8c0,1.5,0.4,2.7,1.1,3.4s1.7,1.2,3.1,1.2c1.4,0,2.8-0.3,4.1-0.9v1.7
			c-0.7,0.3-1.3,0.5-2,0.6S56.3,18.5,55.4,18.5z M54.9,6.8c-1,0-1.9,0.3-2.5,1s-1,1.6-1.1,2.8h6.7c0-1.2-0.3-2.2-0.8-2.8
			S55.9,6.8,54.9,6.8z"/>
		<path class="st0" d="M70,18.2V1.1h2v17.1H70z"/>
		<path class="st0" d="M85.2,18.2V9.9c0-1-0.2-1.8-0.7-2.3s-1.2-0.8-2.2-0.8c-1.3,0-2.3,0.4-3,1.1s-0.9,1.9-0.9,3.6v6.7h-1.9V5.4H78
			l0.3,1.8h0.1c0.4-0.6,1-1.1,1.7-1.5s1.5-0.5,2.4-0.5c1.5,0,2.7,0.4,3.5,1.1s1.2,1.9,1.2,3.6v8.4H85.2z"/>
		<path class="st0" d="M99.9,16.5h-0.1c-0.9,1.3-2.2,2-4,2c-1.7,0-3-0.6-3.9-1.7s-1.4-2.8-1.4-4.9s0.5-3.8,1.4-4.9s2.2-1.8,3.9-1.8
			c1.7,0,3.1,0.6,4,1.9h0.2l-0.1-0.9l0-0.9V0h1.9v18.2h-1.6L99.9,16.5z M96,16.8c1.3,0,2.3-0.4,2.9-1.1s0.9-1.9,0.9-3.5v-0.4
			c0-1.8-0.3-3.1-0.9-3.9S97.3,6.8,96,6.8c-1.1,0-2,0.4-2.6,1.3s-0.9,2.1-0.9,3.8c0,1.6,0.3,2.9,0.9,3.7S94.8,16.8,96,16.8z"/>
		<path class="st0" d="M105.7,1.9c0-0.4,0.1-0.8,0.3-1s0.5-0.3,0.8-0.3c0.3,0,0.6,0.1,0.8,0.3s0.3,0.5,0.3,1s-0.1,0.8-0.3,1
			s-0.5,0.3-0.8,0.3c-0.3,0-0.6-0.1-0.8-0.3S105.7,2.3,105.7,1.9z M107.8,18.2h-1.9V5.4h1.9V18.2z"/>
		<path class="st0" d="M117.1,18.5c-1.9,0-3.3-0.6-4.3-1.7s-1.5-2.8-1.5-4.9c0-2.1,0.5-3.8,1.6-5s2.5-1.8,4.4-1.8
			c0.6,0,1.2,0.1,1.9,0.2s1.1,0.3,1.5,0.5l-0.6,1.7c-0.4-0.2-0.9-0.3-1.4-0.4s-1-0.2-1.3-0.2c-2.6,0-3.9,1.7-3.9,5
			c0,1.6,0.3,2.8,1,3.6s1.6,1.3,2.8,1.3c1.1,0,2.2-0.2,3.3-0.7v1.7C119.4,18.2,118.4,18.5,117.1,18.5z"/>
		<path class="st0" d="M131.2,18.2l-0.4-1.8h-0.1c-0.6,0.8-1.3,1.3-1.9,1.6s-1.4,0.4-2.4,0.4c-1.3,0-2.3-0.3-3-1s-1.1-1.6-1.1-2.8
			c0-2.6,2.1-4,6.2-4.1l2.2-0.1V9.7c0-1-0.2-1.8-0.7-2.2s-1.1-0.7-2.1-0.7c-1.1,0-2.3,0.3-3.6,1l-0.6-1.5c0.6-0.3,1.3-0.6,2.1-0.8
			s1.5-0.3,2.3-0.3c1.5,0,2.7,0.3,3.4,1s1.1,1.8,1.1,3.3v8.8H131.2z M126.8,16.9c1.2,0,2.2-0.3,2.9-1s1-1.6,1-2.8v-1.2l-1.9,0.1
			c-1.5,0.1-2.7,0.3-3.3,0.7s-1,1.1-1,2c0,0.7,0.2,1.2,0.6,1.6S126.1,16.9,126.8,16.9z"/>
		<path class="st0" d="M140.8,16.9c0.3,0,0.7,0,1-0.1s0.6-0.1,0.8-0.2v1.5c-0.2,0.1-0.5,0.2-0.9,0.3s-0.8,0.1-1.1,0.1
			c-2.5,0-3.7-1.3-3.7-3.9V6.9H135V6l1.8-0.8l0.8-2.7h1.1v3h3.7v1.5h-3.7v7.6c0,0.8,0.2,1.4,0.6,1.8S140.2,16.9,140.8,16.9z"/>
		<path class="st0" d="M156.3,11.8c0,2.1-0.5,3.7-1.6,4.9s-2.5,1.8-4.4,1.8c-1.1,0-2.2-0.3-3.1-0.8s-1.6-1.3-2.1-2.3
			s-0.7-2.2-0.7-3.5c0-2.1,0.5-3.7,1.6-4.9s2.5-1.8,4.4-1.8c1.8,0,3.2,0.6,4.3,1.8S156.3,9.8,156.3,11.8z M146.5,11.8
			c0,1.6,0.3,2.9,1,3.8s1.6,1.3,2.9,1.3s2.2-0.4,2.9-1.3s1-2.1,1-3.8c0-1.6-0.3-2.9-1-3.7s-1.6-1.3-2.9-1.3c-1.3,0-2.2,0.4-2.9,1.3
			S146.5,10.1,146.5,11.8z"/>
		<path class="st0" d="M165.5,5.2c0.6,0,1.1,0,1.5,0.1l-0.3,1.8c-0.5-0.1-1-0.2-1.4-0.2c-1,0-1.9,0.4-2.7,1.3s-1.1,1.9-1.1,3.2v6.9
			h-1.9V5.4h1.6l0.2,2.4h0.1c0.5-0.8,1.1-1.5,1.7-1.9S164.7,5.2,165.5,5.2z"/>
	</g>
</g>
<rect x="38.9" y="38.2" transform="matrix(-1.836970e-16 1 -1 -1.836970e-16 89.6378 -10.4634)" class="st0" width="22.3" height="2.9"/>
</svg>
