<?xml version="1.0" encoding="utf-8"?>
<!-- Generator: Adobe Illustrator 21.1.0, SVG Export Plug-In . SVG Version: 6.00 Build 0)  -->
<svg version="1.1" id="Layer_1" xmlns="http://www.w3.org/2000/svg" xmlns:xlink="http://www.w3.org/1999/xlink" x="0px" y="0px"
	 viewBox="0 0 162.2 136.1" style="enable-background:new 0 0 162.2 136.1;" xml:space="preserve">
<style type="text/css">
	.st0{fill:#C03927;}
	.st1{enable-background:new    ;}
	.st2{fill:#FFFFFF;}
</style>
<g>
	<g>
		<rect x="1.1" y="81.5" class="st0" width="159.9" height="54.5"/>
		<g class="st1">
			<path class="st2" d="M58.8,110.8c0,1.2-0.4,2.2-1.3,2.8c-0.9,0.7-2.1,1-3.6,1c-1.6,0-2.9-0.2-3.8-0.6v-1.5
				c0.6,0.2,1.2,0.4,1.8,0.6c0.7,0.1,1.3,0.2,2,0.2c1.1,0,1.9-0.2,2.4-0.6c0.5-0.4,0.8-1,0.8-1.7c0-0.5-0.1-0.9-0.3-1.2
				c-0.2-0.3-0.5-0.6-1-0.8c-0.4-0.3-1.1-0.5-2-0.9c-1.3-0.5-2.2-1-2.7-1.6c-0.5-0.6-0.8-1.4-0.8-2.5c0-1.1,0.4-1.9,1.2-2.5
				c0.8-0.6,1.9-0.9,3.2-0.9c1.4,0,2.6,0.3,3.8,0.8l-0.5,1.4c-1.1-0.5-2.2-0.7-3.3-0.7c-0.8,0-1.5,0.2-2,0.5s-0.7,0.9-0.7,1.5
				c0,0.5,0.1,0.9,0.3,1.2c0.2,0.3,0.5,0.6,0.9,0.8c0.4,0.3,1.1,0.5,1.9,0.8c1.4,0.5,2.4,1.1,3,1.7
				C58.5,109.1,58.8,109.9,58.8,110.8z"/>
			<path class="st2" d="M62.8,104.1v6.7c0,0.8,0.2,1.5,0.6,1.9c0.4,0.4,1,0.6,1.8,0.6c1.1,0,1.9-0.3,2.4-0.9
				c0.5-0.6,0.7-1.6,0.7-2.9v-5.4h1.6v10.3h-1.3l-0.2-1.4h-0.1c-0.3,0.5-0.8,0.9-1.3,1.2c-0.6,0.3-1.2,0.4-1.9,0.4
				c-1.3,0-2.2-0.3-2.8-0.9c-0.6-0.6-0.9-1.6-0.9-2.9v-6.8H62.8z"/>
			<path class="st2" d="M78,104c1.4,0,2.4,0.5,3.2,1.4c0.8,0.9,1.1,2.2,1.1,3.9s-0.4,3-1.1,4c-0.8,0.9-1.8,1.4-3.2,1.4
				c-0.7,0-1.3-0.1-1.8-0.4s-1-0.6-1.4-1.1h-0.1l-0.3,1.3h-1.1V99.8h1.6v3.6c0,0.8,0,1.5-0.1,2.1h0.1C75.5,104.5,76.6,104,78,104z
				 M77.8,105.3c-1.1,0-1.8,0.3-2.3,0.9s-0.7,1.6-0.7,3.1s0.2,2.5,0.7,3.1c0.5,0.6,1.3,0.9,2.3,0.9c1,0,1.7-0.4,2.1-1.1
				c0.5-0.7,0.7-1.7,0.7-3c0-1.3-0.2-2.3-0.7-3C79.5,105.6,78.8,105.3,77.8,105.3z"/>
			<path class="st2" d="M98.2,114.5v-6.7c0-0.8-0.2-1.4-0.5-1.9c-0.4-0.4-0.9-0.6-1.6-0.6c-1,0-1.7,0.3-2.2,0.8
				c-0.5,0.6-0.7,1.4-0.7,2.6v5.8h-1.6v-6.7c0-0.8-0.2-1.4-0.5-1.9c-0.4-0.4-0.9-0.6-1.6-0.6c-1,0-1.7,0.3-2.2,0.9
				c-0.5,0.6-0.7,1.6-0.7,2.9v5.4H85v-10.3h1.3l0.3,1.4h0.1c0.3-0.5,0.7-0.9,1.2-1.2c0.5-0.3,1.1-0.4,1.8-0.4c1.6,0,2.7,0.6,3.2,1.8
				h0.1c0.3-0.5,0.8-1,1.3-1.3s1.3-0.5,2-0.5c1.2,0,2,0.3,2.6,0.9s0.9,1.6,0.9,2.9v6.7H98.2z"/>
			<path class="st2" d="M102.9,101.3c0-0.4,0.1-0.6,0.3-0.8c0.2-0.2,0.4-0.2,0.7-0.2c0.3,0,0.5,0.1,0.7,0.3c0.2,0.2,0.3,0.4,0.3,0.8
				c0,0.4-0.1,0.6-0.3,0.8c-0.2,0.2-0.4,0.3-0.7,0.3c-0.3,0-0.5-0.1-0.7-0.3S102.9,101.7,102.9,101.3z M104.6,114.5H103v-10.3h1.6
				V114.5z"/>
			<path class="st2" d="M111.2,113.4c0.3,0,0.5,0,0.8-0.1c0.3,0,0.5-0.1,0.6-0.1v1.2c-0.2,0.1-0.4,0.1-0.7,0.2
				c-0.3,0.1-0.6,0.1-0.9,0.1c-2,0-3-1.1-3-3.2v-6.1h-1.5v-0.8l1.5-0.7l0.7-2.2h0.9v2.4h3v1.2h-3v6.1c0,0.6,0.1,1.1,0.4,1.4
				C110.3,113.2,110.7,113.4,111.2,113.4z"/>
		</g>
	</g>
	<g class="st1">
		<path class="st2" d="M12,36c0,1.5-0.5,2.7-1.6,3.5s-2.6,1.3-4.5,1.3c-2,0-3.6-0.3-4.7-0.8v-1.9c0.7,0.3,1.5,0.5,2.3,0.7
			s1.6,0.3,2.5,0.3c1.3,0,2.3-0.3,3-0.8s1-1.2,1-2.1c0-0.6-0.1-1.1-0.4-1.5S9,34,8.5,33.7S7,33,5.9,32.6c-1.6-0.6-2.7-1.2-3.4-2
			s-1-1.8-1-3.1c0-1.3,0.5-2.4,1.5-3.2s2.3-1.2,3.9-1.2c1.7,0,3.3,0.3,4.7,0.9L11,25.9C9.6,25.3,8.2,25,6.8,25
			c-1.1,0-1.9,0.2-2.5,0.7s-0.9,1.1-0.9,1.9c0,0.6,0.1,1.1,0.3,1.5s0.6,0.7,1.1,1s1.3,0.7,2.4,1c1.8,0.6,3,1.3,3.7,2.1
			S12,34.8,12,36z"/>
		<path class="st2" d="M17.1,27.7v8.3c0,1,0.2,1.8,0.7,2.3s1.2,0.8,2.2,0.8c1.3,0,2.3-0.4,2.9-1.1s0.9-1.9,0.9-3.6v-6.8h1.9v12.8
			h-1.6L24,38.8h-0.1c-0.4,0.6-1,1.1-1.7,1.5s-1.5,0.5-2.4,0.5c-1.6,0-2.7-0.4-3.5-1.1s-1.2-1.9-1.2-3.6v-8.4H17.1z"/>
		<path class="st2" d="M35.9,27.5c1.7,0,3,0.6,3.9,1.7s1.4,2.8,1.4,4.9s-0.5,3.7-1.4,4.9s-2.2,1.8-3.9,1.8c-0.8,0-1.6-0.2-2.3-0.5
			s-1.3-0.8-1.7-1.4h-0.1l-0.4,1.7H30V22.3h1.9v4.4c0,1,0,1.9-0.1,2.7h0.1C32.8,28.2,34.2,27.5,35.9,27.5z M35.7,29.1
			c-1.3,0-2.3,0.4-2.9,1.1s-0.9,2-0.9,3.8s0.3,3.1,0.9,3.9s1.6,1.2,2.9,1.2c1.2,0,2.1-0.4,2.7-1.3s0.9-2.1,0.9-3.8
			c0-1.7-0.3-2.9-0.9-3.7S36.9,29.1,35.7,29.1z"/>
		<path class="st2" d="M61,40.6v-8.4c0-1-0.2-1.8-0.7-2.3s-1.1-0.8-2-0.8c-1.2,0-2.1,0.3-2.7,1s-0.9,1.8-0.9,3.2v7.2h-1.9v-8.4
			c0-1-0.2-1.8-0.7-2.3s-1.1-0.8-2.1-0.8c-1.2,0-2.1,0.4-2.7,1.1s-0.8,1.9-0.8,3.6v6.7h-1.9V27.7h1.6l0.3,1.8h0.1
			c0.4-0.6,0.9-1.1,1.6-1.5s1.4-0.5,2.2-0.5c2,0,3.3,0.7,3.9,2.2h0.1c0.4-0.7,0.9-1.2,1.7-1.6s1.6-0.6,2.5-0.6
			c1.5,0,2.5,0.4,3.3,1.1s1.1,1.9,1.1,3.6v8.4H61z"/>
		<path class="st2" d="M66.8,24.2c0-0.4,0.1-0.8,0.3-1S67.7,23,68,23c0.3,0,0.6,0.1,0.8,0.3s0.3,0.5,0.3,1s-0.1,0.8-0.3,1
			s-0.5,0.3-0.8,0.3c-0.3,0-0.6-0.1-0.8-0.3S66.8,24.7,66.8,24.2z M68.9,40.6H67V27.7h1.9V40.6z"/>
		<path class="st2" d="M77.2,39.2c0.3,0,0.7,0,1-0.1S78.8,39,79,39v1.5c-0.2,0.1-0.5,0.2-0.9,0.3s-0.8,0.1-1.1,0.1
			c-2.5,0-3.7-1.3-3.7-3.9v-7.6h-1.8v-0.9l1.8-0.8l0.8-2.7h1.1v3h3.7v1.5h-3.7v7.6c0,0.8,0.2,1.4,0.6,1.8S76.6,39.2,77.2,39.2z"/>
		<path class="st2" d="M88.1,23.4h4.8c2.3,0,3.9,0.3,4.9,1s1.5,1.8,1.5,3.2c0,1-0.3,1.9-0.8,2.5s-1.4,1.1-2.5,1.3v0.1
			c2.6,0.4,3.9,1.8,3.9,4.1c0,1.5-0.5,2.7-1.6,3.6s-2.5,1.3-4.3,1.3h-6V23.4z M90.1,30.8h3.3c1.4,0,2.4-0.2,3-0.7s0.9-1.2,0.9-2.2
			c0-1-0.3-1.7-1-2.1s-1.8-0.6-3.3-0.6h-2.9V30.8z M90.1,32.5v6.4h3.6c1.4,0,2.4-0.3,3.1-0.8s1-1.4,1-2.5c0-1.1-0.4-1.8-1.1-2.3
			s-1.8-0.8-3.3-0.8H90.1z"/>
		<path class="st2" d="M105.2,27.7v8.3c0,1,0.2,1.8,0.7,2.3s1.2,0.8,2.2,0.8c1.3,0,2.3-0.4,2.9-1.1s0.9-1.9,0.9-3.6v-6.8h1.9v12.8
			h-1.6l-0.3-1.7h-0.1c-0.4,0.6-1,1.1-1.7,1.5s-1.5,0.5-2.4,0.5c-1.6,0-2.7-0.4-3.5-1.1s-1.2-1.9-1.2-3.6v-8.4H105.2z"/>
		<path class="st2" d="M122.2,39.2c0.3,0,0.7,0,1-0.1s0.6-0.1,0.8-0.2v1.5c-0.2,0.1-0.5,0.2-0.9,0.3s-0.8,0.1-1.1,0.1
			c-2.5,0-3.7-1.3-3.7-3.9v-7.6h-1.8v-0.9l1.8-0.8l0.8-2.7h1.1v3h3.7v1.5h-3.7v7.6c0,0.8,0.2,1.4,0.6,1.8S121.6,39.2,122.2,39.2z"/>
		<path class="st2" d="M130.7,39.2c0.3,0,0.7,0,1-0.1s0.6-0.1,0.8-0.2v1.5c-0.2,0.1-0.5,0.2-0.9,0.3s-0.8,0.1-1.1,0.1
			c-2.5,0-3.7-1.3-3.7-3.9v-7.6h-1.8v-0.9l1.8-0.8l0.8-2.7h1.1v3h3.7v1.5h-3.7v7.6c0,0.8,0.2,1.4,0.6,1.8S130,39.2,130.7,39.2z"/>
		<path class="st2" d="M146.1,34.1c0,2.1-0.5,3.7-1.6,4.9s-2.5,1.8-4.4,1.8c-1.1,0-2.2-0.3-3.1-0.8s-1.6-1.3-2.1-2.3
			s-0.7-2.2-0.7-3.5c0-2.1,0.5-3.7,1.6-4.9s2.5-1.8,4.4-1.8c1.8,0,3.2,0.6,4.3,1.8S146.1,32.1,146.1,34.1z M136.3,34.1
			c0,1.6,0.3,2.9,1,3.8s1.6,1.3,2.9,1.3s2.2-0.4,2.9-1.3s1-2.1,1-3.8c0-1.6-0.3-2.9-1-3.7s-1.6-1.3-2.9-1.3c-1.3,0-2.2,0.4-2.9,1.3
			S136.3,32.5,136.3,34.1z"/>
		<path class="st2" d="M158.3,40.6v-8.3c0-1-0.2-1.8-0.7-2.3s-1.2-0.8-2.2-0.8c-1.3,0-2.3,0.4-3,1.1s-0.9,1.9-0.9,3.6v6.7h-1.9V27.7
			h1.6l0.3,1.8h0.1c0.4-0.6,1-1.1,1.7-1.5s1.5-0.5,2.4-0.5c1.5,0,2.7,0.4,3.5,1.1s1.2,1.9,1.2,3.6v8.4H158.3z"/>
	</g>
</g>
<rect x="70.8" y="60.7" transform="matrix(-1.836970e-16 1 -1 -1.836970e-16 144.0755 -19.7679)" class="st2" width="22.3" height="2.9"/>
</svg>
