<?xml version="1.0" encoding="utf-8"?>
<!-- Generator: Adobe Illustrator 19.2.0, SVG Export Plug-In . SVG Version: 6.00 Build 0)  -->
<svg version="1.1" id="Layer_1" xmlns="http://www.w3.org/2000/svg" xmlns:xlink="http://www.w3.org/1999/xlink" x="0px" y="0px"
	 viewBox="0 0 52.2 72.5" style="enable-background:new 0 0 52.2 72.5;" xml:space="preserve">
<style type="text/css">
	.st0{fill:#F0A91E;}
	.st1{fill:#707171;}
	.st2{fill:#FFD004;}
</style>
<path class="st0" d="M41.3,63.9c1.1,3.5-0.8,7.2-4.2,8.3l0,0c-3.4,1.1-7.2-0.8-8.3-4.2l-7.5-23.1c-1.1-3.5,0.8-7.2,4.2-8.3l0,0
	c3.4-1.1,7.1,0.8,8.3,4.2L41.3,63.9z"/>
<path class="st1" d="M39,65.2c0.3,2.1-1.1,4-3.2,4.3c-2.1,0.3-4-1.2-4.3-3.2c-0.3-2.1,1.2-4,3.2-4.3C36.8,61.6,38.7,63.1,39,65.2z"
	/>
<circle class="st2" cx="26.1" cy="26.1" r="26.1"/>
</svg>
