<?xml version="1.0" encoding="utf-8"?>
<!-- Generator: Adobe Illustrator 19.2.0, SVG Export Plug-In . SVG Version: 6.00 Build 0)  -->
<svg version="1.1" id="Layer_1" xmlns="http://www.w3.org/2000/svg" xmlns:xlink="http://www.w3.org/1999/xlink" x="0px" y="0px"
	 viewBox="0 0 120.7 87.4" style="enable-background:new 0 0 120.7 87.4;" xml:space="preserve">
<style type="text/css">
	.st0{fill:#FDBE10;}
	.st1{fill:#B8B7B8;}
	.st2{fill:#737374;}
	.st3{fill:#676767;}
	.st4{fill:#979797;}
	.st5{fill:#FFFFFF;}
</style>
<g>
	<path class="st0" d="M115.4,15.2c0,30.4-24.6,55-55,55c-30.4,0-55-24.6-55-55H115.4z"/>
	<rect y="6.9" class="st1" width="120.7" height="8.2"/>
	<rect x="6.9" class="st2" width="106.9" height="6.9"/>
	<polygon class="st3" points="92.8,59.7 27.9,59.7 33.8,64.3 86.8,64.3 	"/>
	<polygon class="st4" points="92.8,69 27.9,69 33.8,64.3 86.8,64.3 	"/>
	<polygon class="st3" points="92.8,69 27.9,69 33.8,73.6 86.8,73.6 	"/>
	<polygon class="st4" points="92.8,78.2 27.9,78.2 33.8,73.6 86.8,73.6 	"/>
	<polygon class="st3" points="92.8,78.2 27.9,78.2 33.8,82.8 86.8,82.8 	"/>
	<polygon class="st4" points="92.8,87.4 27.9,87.4 33.8,82.8 86.8,82.8 	"/>
</g>
<circle class="st5" cx="28.5" cy="30.7" r="8.8"/>
<circle class="st5" cx="36.5" cy="39.5" r="5.1"/>
</svg>
