<?xml version="1.0" encoding="utf-8"?>
<!-- Generator: Adobe Illustrator 19.2.0, SVG Export Plug-In . SVG Version: 6.00 Build 0)  -->
<svg version="1.1" id="Layer_1" xmlns="http://www.w3.org/2000/svg" xmlns:xlink="http://www.w3.org/1999/xlink" x="0px" y="0px"
	 viewBox="0 0 49.9 33.6" style="enable-background:new 0 0 49.9 33.6;" xml:space="preserve">
<style type="text/css">
	.st0{fill:#FDD301;}
	.st1{fill:#ABABAB;}
	.st2{fill:#686868;}
</style>
<path class="st0" d="M49.8,19.5c-0.5,5.7-4.7,10.3-10.1,11.3L38.1,31L19,33.5l-0.8,0.1c-0.9,0.1-1.9,0.1-2.8,0
	C6.2,32.8-0.7,24.7,0.1,15.4C0.8,6.2,8.9-0.7,18.2,0.1c1.2,0.1,2.3,0.3,3.4,0.6l18.7,5.6l1.5,0.4C46.9,8.7,50.3,13.8,49.8,19.5z"/>
<path class="st1" d="M17,6c-5.6-0.3-10.4,4-10.8,9.6c-0.4,5.7,3.9,10.5,9.5,10.9c5.7,0.3,10.6-4,10.9-9.6C26.9,11.2,22.7,6.4,17,6z"
	/>
<path class="st2" d="M16.7,10.4c-3.2-0.2-6,2.3-6.2,5.5c-0.2,3.3,2.3,6,5.5,6.3c3.3,0.2,6.1-2.3,6.3-5.6
	C22.5,13.4,20,10.6,16.7,10.4z"/>
</svg>
