<?xml version="1.0" encoding="utf-8"?>
<!-- Generator: Adobe Illustrator 19.2.0, SVG Export Plug-In . SVG Version: 6.00 Build 0)  -->
<svg version="1.1" id="Layer_1" xmlns="http://www.w3.org/2000/svg" xmlns:xlink="http://www.w3.org/1999/xlink" x="0px" y="0px"
	 viewBox="0 0 142.8 107.9" style="enable-background:new 0 0 142.8 107.9;" xml:space="preserve">
<style type="text/css">
	.st0{fill:#FFD004;}
	.st1{fill:#8E8E8E;}
	.st2{fill:#F0A91E;}
	.st3{fill:#707171;}
	.st4{fill:#FDBE10;}
	.st5{fill:#898989;}
	.st6{fill:#4D4E4E;}
</style>
<polygon class="st0" points="142.8,76.6 124.1,107.9 43.2,59.5 61.9,28.2 113.5,59 129.8,68.8 "/>
<rect x="33.3" y="26.8" transform="matrix(0.5135 -0.8581 0.8581 0.5135 -10.9415 55.8312)" class="st1" width="21" height="21.6"/>
<path class="st2" d="M129.8,49.1v19.7L113.5,59v-9.9c0-4.5,3.7-8.1,8.2-8.1c2.3,0,4.3,0.9,5.8,2.4C128.9,44.8,129.8,46.9,129.8,49.1
	z"/>
<path class="st3" d="M121.5,44.9c-2.4,0.1-4.3,2.1-4.3,4.5c0,2.4,2.1,4.3,4.5,4.3c2.4-0.1,4.4-2.1,4.3-4.5
	C126,46.8,124,44.9,121.5,44.9z"/>
<g>
	<path class="st4" d="M43.3,21.7c0,1.9-0.2,3.7-0.7,5.5c-0.6,2.3-1.5,4.4-2.8,6.3c-0.7,1-1.4,2-2.3,2.9c-4,4.3-9.6,6.9-15.9,6.9
		c-7.9,0-14.8-4.2-18.6-10.5C1.1,29.6,0,25.8,0,21.7c0-5.3,1.9-10.2,5.1-14c0.7-0.9,1.5-1.7,2.4-2.4C11.3,2,16.2,0,21.7,0
		c3,0,5.8,0.6,8.4,1.7C37.6,4.9,43,12.2,43.3,20.8C43.3,21.1,43.3,21.4,43.3,21.7z"/>
	<circle class="st5" cx="21.7" cy="21.7" r="11.8"/>
	<circle class="st6" cx="21.7" cy="21.7" r="7.5"/>
</g>
</svg>
