<!-- Generator: Adobe Illustrator 19.2.0, SVG Export Plug-In  -->
<svg version="1.1"
	 xmlns="http://www.w3.org/2000/svg" xmlns:xlink="http://www.w3.org/1999/xlink" xmlns:a="http://ns.adobe.com/AdobeSVGViewerExtensions/3.0/"
	 x="0px" y="0px" width="90.7px" height="109.2px" viewBox="0 0 90.7 109.2" style="enable-background:new 0 0 90.7 109.2;"
	 xml:space="preserve">
<style type="text/css">
	.st0{fill:#717171;}
	.st1{fill:#C4C4C4;}
	.st2{fill:#F1AA1E;}
	.st3{fill:#FFD107;}
	.st4{fill:#A3A3A2;}
	.st5{fill:#FEBF10;}
	.st6{fill:#B9B9B9;}
	.st7{fill:#747474;}
	.st8{fill:#676767;}
	.st9{fill:#989898;}
	.st10{fill:#FFFFFF;}
	.st11{fill:#838383;}
	.st12{fill:#908F8F;}
	.st13{fill:#818181;}
	.st14{fill:#FED401;}
	.st15{fill:#ACACAC;}
	.st16{fill:#686969;}
	.st17{fill:#8B8A8A;}
	.st18{fill:#4E4E4E;}
</style>
<defs>
</defs>
<g>
	
		<rect x="42.3" y="57.7" transform="matrix(0.8962 -0.4437 0.4437 0.8962 -22.1071 28.6841)" class="st0" width="15.8" height="7.8"/>
	
		<rect x="56.4" y="52.8" transform="matrix(0.8961 -0.4439 0.4439 0.8961 -17.457 34.2775)" class="st1" width="16.1" height="3.2"/>
	<path class="st2" d="M73.1,50.8c0.4,1.4-0.3,2.8-1.7,3.3l0,0c-1.4,0.4-2.8-0.3-3.3-1.7l-2.9-9.1c-0.4-1.4,0.3-2.8,1.7-3.3l0,0
		c1.4-0.4,2.8,0.3,3.3,1.7L73.1,50.8z"/>
	<ellipse transform="matrix(0.9902 -0.1397 0.1397 0.9902 -6.4992 10.3893)" class="st0" cx="70.7" cy="51.5" rx="1.5" ry="1.5"/>
	<path class="st2" d="M48.4,62.2c-0.2-0.4-0.5-0.7-0.9-1l-5-3.7l-5.8,3.2l7.3,5.3c1.3,1,3.2,0.7,4.2-0.7
		C48.9,64.5,48.9,63.2,48.4,62.2z M47.4,63.6c0,1-0.7,1.7-1.7,1.8c-0.9,0-1.7-0.7-1.8-1.7c0-0.9,0.7-1.7,1.7-1.8
		C46.6,61.9,47.4,62.6,47.4,63.6z"/>
	<path class="st0" d="M45.6,61.9c-1,0-1.7,0.8-1.7,1.8c0,1,0.8,1.7,1.8,1.7c1,0,1.7-0.8,1.7-1.8C47.4,62.6,46.6,61.9,45.6,61.9z"/>
	<polygon class="st3" points="59.2,50.4 30.8,64.9 24,68.4 21.9,69.4 15.8,57.4 53.1,38.4 	"/>
	
		<rect x="12.4" y="60.7" transform="matrix(0.8915 -0.4531 0.4531 0.8915 -27.7259 14.2068)" class="st4" width="6.9" height="8.5"/>
	<rect x="55.8" y="38.7" transform="matrix(0.8915 -0.453 0.453 0.8915 -13.0317 31.493)" class="st4" width="6.9" height="8.5"/>
	<circle class="st3" cx="67.2" cy="35.9" r="10.3"/>
	<g>
		<path class="st5" d="M88.6,6c0,12-9.7,21.7-21.7,21.7c-12,0-21.7-9.7-21.7-21.7H88.6z"/>
		<rect x="43.1" y="2.7" class="st6" width="47.5" height="3.2"/>
		<rect x="45.8" class="st7" width="42.1" height="2.7"/>
		<polygon class="st8" points="79.7,23.5 54.1,23.5 56.4,25.4 77.3,25.4 		"/>
		<polygon class="st9" points="79.7,27.2 54.1,27.2 56.4,25.4 77.3,25.4 		"/>
		<polygon class="st8" points="79.7,27.2 54.1,27.2 56.4,29 77.3,29 		"/>
		<polygon class="st9" points="79.7,30.8 54.1,30.8 56.4,29 77.3,29 		"/>
		<polygon class="st8" points="79.7,30.8 54.1,30.8 56.4,32.6 77.3,32.6 		"/>
		<polygon class="st9" points="79.7,34.5 54.1,34.5 56.4,32.6 77.3,32.6 		"/>
	</g>
	<circle class="st10" cx="54.1" cy="12.3" r="3.5"/>
	<circle class="st10" cx="57.2" cy="15.8" r="2"/>
	<polygon class="st3" points="56.3,90.1 48.9,102.4 17,83.3 24.4,71 44.7,83.2 51.1,87 	"/>
	<polygon class="st11" points="45.2,73.3 44.3,74.8 42.6,77.7 41.7,79.2 29.5,71.8 33,66 	"/>
	<polygon class="st1" points="50,78.1 48.2,81.1 42.6,77.7 44.3,74.8 	"/>
	
		<rect x="13.1" y="70.4" transform="matrix(0.5135 -0.8581 0.8581 0.5135 -55.6981 51.1332)" class="st12" width="8.3" height="8.5"/>
	<rect x="52.3" y="93.9" transform="matrix(0.5136 -0.858 0.858 0.5136 -56.7583 96.136)" class="st4" width="8.3" height="8.5"/>
	<g>
		<path class="st13" d="M73.5,109.2c-0.3,0-0.5-0.1-0.7-0.3l-5.1-3.4c-0.7-0.5-0.9-1.4-0.4-2.2c0.5-0.7,1.4-0.9,2.2-0.4l4.5,3
			l9.6-2.7c0.8-0.2,1.8,0,1.9,0.9c0,0.4-0.4,1.2-1.2,1.4L74,109.1C73.8,109.2,73.6,109.2,73.5,109.2z"/>
	</g>
	<g>
		<path class="st13" d="M84.2,100.8c-0.2,0-0.4-0.1-0.5-0.1l-9.1-4.3l-4.9,2.2c-0.8,0.3-1.7,0-2.1-0.8c-0.4-0.8,0-1.7,0.8-2.1
			l5.5-2.5c0.4-0.2,0.9-0.2,1.3,0l9.4,5.3c0.8,0.4,1.2,1.1,1,1.5C85.4,100.6,84.9,100.8,84.2,100.8z"/>
	</g>
	<path class="st14" d="M74.6,101.3c-0.2,2.3-1.9,4-4,4.5l-0.6,0.1l-7.5,1l-0.3,0c-0.4,0-0.7,0-1.1,0c-3.6-0.3-6.3-3.5-6-7.1
		c0.3-3.7,3.5-6.4,7.1-6.1c0.5,0,0.9,0.1,1.3,0.2l7.4,2.2l0.6,0.2C73.4,97,74.8,99,74.6,101.3z"/>
	<path class="st15" d="M61.6,96c-2.2-0.1-4.1,1.6-4.3,3.8c-0.2,2.2,1.6,4.1,3.8,4.3c2.2,0.1,4.2-1.6,4.3-3.8
		C65.5,98,63.9,96.1,61.6,96z"/>
	<path class="st16" d="M61.5,97.7c-1.3-0.1-2.4,0.9-2.4,2.2c-0.1,1.3,0.9,2.4,2.2,2.5c1.3,0.1,2.4-0.9,2.5-2.2
		C63.8,98.8,62.8,97.8,61.5,97.7z"/>
	<path class="st2" d="M51.1,79.2V87l-6.4-3.9v-3.9c0-1.8,1.4-3.2,3.2-3.2c0.9,0,1.7,0.4,2.3,0.9C50.8,77.5,51.1,78.3,51.1,79.2z"/>
	<path class="st0" d="M47.9,77.6c-1,0-1.7,0.8-1.7,1.8c0,1,0.8,1.7,1.8,1.7c1,0,1.7-0.8,1.7-1.8C49.6,78.3,48.9,77.6,47.9,77.6z"/>
	<path class="st2" d="M35.5,71.4c-0.6,1-1.7,1.6-2.8,1.6c-0.5,0-1.1-0.1-1.6-0.4l-6.9-4c-0.1,0-0.1-0.1-0.2-0.1l6.8-3.5l3.6,2.1
		C35.9,67.9,36.4,69.9,35.5,71.4z"/>
	<path class="st0" d="M31.1,68.9c-0.5,0.8-0.2,1.9,0.7,2.3c0.8,0.5,1.9,0.2,2.4-0.7c0.5-0.8,0.2-1.9-0.7-2.4
		C32.7,67.8,31.6,68.1,31.1,68.9z"/>
	<g>
		<path class="st5" d="M17.1,68.4c0,0.7-0.1,1.5-0.3,2.2c-0.2,0.9-0.6,1.7-1.1,2.5c-0.3,0.4-0.6,0.8-0.9,1.2C13.2,75.9,11,77,8.5,77
			c-3.1,0-5.8-1.7-7.3-4.1C0.4,71.5,0,70,0,68.4c0-2.1,0.8-4,2-5.5c0.3-0.3,0.6-0.7,0.9-0.9c1.5-1.3,3.5-2.1,5.6-2.1
			c1.2,0,2.3,0.2,3.3,0.7c3,1.3,5.1,4.1,5.2,7.5C17.1,68.2,17.1,68.3,17.1,68.4z"/>
		<circle class="st17" cx="8.5" cy="68.4" r="4.7"/>
		<circle class="st18" cx="8.5" cy="68.4" r="3"/>
	</g>
</g>
</svg>
