<?xml version="1.0" encoding="utf-8"?>
<!-- Generator: Adobe Illustrator 19.2.0, SVG Export Plug-In . SVG Version: 6.00 Build 0)  -->
<svg version="1.1" id="Layer_1" xmlns="http://www.w3.org/2000/svg" xmlns:xlink="http://www.w3.org/1999/xlink" x="0px" y="0px"
	 viewBox="0 0 122.9 89.8" style="enable-background:new 0 0 122.9 89.8;" xml:space="preserve">
<style type="text/css">
	.st0{fill:#F0A91E;}
	.st1{fill:#707171;}
	.st2{fill:#FFD004;}
	.st3{fill:#A1A1A1;}
</style>
<path class="st0" d="M82.7,62.5c-0.5-1-1.3-1.8-2.2-2.5l-12.8-9.3l-14.8,8.1l18.6,13.5c3.4,2.5,8.2,1.7,10.6-1.7
	C83.9,68.1,84,65,82.7,62.5z M80.2,66c0.1,2.4-1.9,4.4-4.3,4.5c-2.4,0-4.4-1.9-4.5-4.3c0-2.4,1.9-4.4,4.3-4.5
	C78.2,61.6,80.2,63.6,80.2,66z"/>
<path class="st1" d="M75.7,61.7c-2.4,0.1-4.3,2.1-4.3,4.5c0,2.4,2.1,4.3,4.5,4.3c2.4-0.1,4.4-2.1,4.3-4.5
	C80.2,63.6,78.2,61.6,75.7,61.7z"/>
<polygon class="st2" points="110.2,32.6 38,69.3 20.8,78.1 15.5,80.7 0,50.3 94.7,2.1 "/>
<rect x="101.5" y="2.8" transform="matrix(0.8915 -0.453 0.453 0.8915 5.8088 51.4027)" class="st3" width="17.4" height="21.6"/>
<path class="st0" d="M50,85.8c-1.5,2.6-4.2,4-7,4c-1.4,0-2.8-0.4-4.1-1.1L21.3,78.4c-0.2-0.1-0.3-0.2-0.5-0.3L38,69.3l9.1,5.3
	C50.9,76.9,52.3,81.9,50,85.8z"/>
<path class="st1" d="M38.9,79.4c-1.2,2.1-0.4,4.8,1.7,5.9c2.1,1.2,4.8,0.4,6-1.7c1.2-2.1,0.4-4.8-1.7-6
	C42.8,76.5,40.1,77.3,38.9,79.4z"/>
</svg>
