<!-- Generator: Adobe Illustrator 19.2.0, SVG Export Plug-In  -->
<svg version="1.1"
	 xmlns="http://www.w3.org/2000/svg" xmlns:xlink="http://www.w3.org/1999/xlink" xmlns:a="http://ns.adobe.com/AdobeSVGViewerExtensions/3.0/"
	 x="0px" y="0px" width="230.1px" height="277.1px" viewBox="0 0 230.1 277.1" style="enable-background:new 0 0 230.1 277.1;"
	 xml:space="preserve">
<style type="text/css">
	.st0{fill:#717171;}
	.st1{fill:#C4C4C4;}
	.st2{fill:#F1AA1E;}
	.st3{fill:#FFD107;}
	.st4{fill:#A3A3A2;}
	.st5{fill:#FEBF10;}
	.st6{fill:#B9B9B9;}
	.st7{fill:#747474;}
	.st8{fill:#676767;}
	.st9{fill:#989898;}
	.st10{fill:#FFFFFF;}
	.st11{fill:#838383;}
	.st12{fill:#908F8F;}
	.st13{fill:#818181;}
	.st14{fill:#FED401;}
	.st15{fill:#ACACAC;}
	.st16{fill:#686969;}
	.st17{fill:#8B8A8A;}
	.st18{fill:#4E4E4E;}
</style>
<defs>
</defs>
<rect x="107.5" y="146.4" transform="matrix(0.8962 -0.4437 0.4437 0.8962 -56.1037 72.7949)" class="st0" width="40" height="19.8"/>
<polygon class="st1" points="114.2,167.2 110.5,159.9 180.1,125.4 183.8,132.7 "/>
<path class="st2" d="M185.6,128.9c1.1,3.5-0.8,7.2-4.2,8.3l0,0c-3.4,1.1-7.2-0.8-8.3-4.2l-7.5-23.1c-1.1-3.5,0.8-7.2,4.2-8.3l0,0
	c3.4-1.1,7.1,0.8,8.3,4.2L185.6,128.9z"/>
<path class="st0" d="M183.3,130.1c0.3,2.1-1.1,4-3.2,4.3c-2.1,0.3-4-1.2-4.3-3.2c-0.3-2.1,1.2-4,3.2-4.3
	C181.1,126.6,183,128.1,183.3,130.1z"/>
<path class="st2" d="M122.8,157.9c-0.5-1-1.3-1.8-2.2-2.5l-12.8-9.3L93,154.2l18.6,13.5c3.4,2.5,8.2,1.7,10.6-1.7
	C124,163.6,124.1,160.4,122.8,157.9z M120.3,161.4c0.1,2.4-1.9,4.4-4.3,4.5c-2.4,0-4.4-1.9-4.5-4.3c0-2.4,1.9-4.4,4.3-4.5
	C118.3,157.1,120.3,159,120.3,161.4z"/>
<path class="st0" d="M115.8,157.1c-2.4,0.1-4.3,2.1-4.3,4.5c0,2.4,2.1,4.3,4.5,4.3c2.4-0.1,4.4-2.1,4.3-4.5
	C120.3,159,118.3,157.1,115.8,157.1z"/>
<polygon class="st3" points="150.3,128 78.1,164.7 60.9,173.5 55.6,176.2 40.1,145.7 134.8,97.6 "/>
<rect x="31.4" y="154.1" transform="matrix(0.8915 -0.4531 0.4531 0.8915 -70.3631 36.0543)" class="st4" width="17.4" height="21.6"/>
<rect x="141.6" y="98.2" transform="matrix(0.8915 -0.453 0.453 0.8915 -33.072 79.9234)" class="st4" width="17.4" height="21.6"/>
<circle class="st3" cx="170.4" cy="91.1" r="26.1"/>
<g>
	<path class="st5" d="M224.8,15.2c0,30.4-24.6,55-55,55c-30.4,0-55-24.6-55-55H224.8z"/>
	<rect x="109.4" y="6.9" class="st6" width="120.7" height="8.2"/>
	<rect x="116.3" class="st7" width="106.9" height="6.9"/>
	<polygon class="st8" points="202.2,59.7 137.3,59.7 143.2,64.3 196.3,64.3 	"/>
	<polygon class="st9" points="202.2,69 137.3,69 143.2,64.3 196.3,64.3 	"/>
	<polygon class="st8" points="202.2,69 137.3,69 143.2,73.6 196.3,73.6 	"/>
	<polygon class="st9" points="202.2,78.2 137.3,78.2 143.2,73.6 196.3,73.6 	"/>
	<polygon class="st8" points="202.2,78.2 137.3,78.2 143.2,82.8 196.3,82.8 	"/>
	<polygon class="st9" points="202.2,87.4 137.3,87.4 143.2,82.8 196.3,82.8 	"/>
</g>
<circle class="st10" cx="137.3" cy="31.3" r="8.8"/>
<circle class="st10" cx="145.3" cy="40.1" r="5.1"/>
<polygon class="st3" points="142.8,228.6 124.1,259.9 43.2,211.5 61.9,180.2 113.5,211 129.8,220.8 "/>
<polygon class="st11" points="114.8,186 112.5,189.8 108,197.3 105.8,200.9 74.8,182.3 83.7,167.4 "/>
<polygon class="st1" points="126.8,198.3 122.3,205.9 108,197.3 112.5,189.8 "/>
<rect x="33.3" y="178.8" transform="matrix(0.5135 -0.8581 0.8581 0.5135 -141.3514 129.7666)" class="st12" width="21" height="21.6"/>
<rect x="132.7" y="238.2" transform="matrix(0.5136 -0.858 0.858 0.5136 -144.0418 243.9751)" class="st4" width="21" height="21.6"/>
<g>
	<path class="st13" d="M186.4,277c-0.7-0.1-1.3-0.3-1.9-0.6l-12.8-8.5c-1.8-1.2-2.3-3.7-1.1-5.5c1.2-1.8,3.7-2.3,5.5-1.1l11.3,7.5
		l24.5-6.9c2.1-0.6,4.5,0.1,4.8,2.3c0.1,0.9-1,3-3.1,3.6l-25.8,9.1C187.4,277,186.9,277.1,186.4,277z"/>
</g>
<g>
	<path class="st13" d="M213.8,255.7c-0.5,0-0.9-0.2-1.4-0.4l-23-10.8l-12.4,5.6c-2,0.9-4.3,0-5.2-2c-0.9-2,0-4.3,2-5.2l14.1-6.3
		c1.1-0.5,2.3-0.5,3.3,0L215,250c2,0.9,3,2.9,2.4,3.9C216.7,255.4,215.4,255.9,213.8,255.7z"/>
</g>
<path class="st14" d="M189.2,257.1c-0.5,5.7-4.7,10.3-10.1,11.3l-1.6,0.2l-19.1,2.4l-0.8,0.1c-0.9,0.1-1.9,0.1-2.8,0
	c-9.2-0.8-16.1-8.9-15.3-18.1c0.8-9.3,8.9-16.1,18.1-15.4c1.2,0.1,2.3,0.3,3.4,0.6l18.7,5.6l1.5,0.4
	C186.3,246.2,189.7,251.3,189.2,257.1z"/>
<path class="st15" d="M156.4,243.5c-5.6-0.3-10.4,4-10.8,9.6c-0.4,5.7,3.9,10.5,9.5,10.9c5.7,0.3,10.6-4,10.9-9.6
	C166.3,248.7,162.1,243.9,156.4,243.5z"/>
<path class="st16" d="M156.1,247.9c-3.2-0.2-6,2.3-6.2,5.5c-0.2,3.3,2.3,6,5.5,6.3c3.3,0.2,6.1-2.3,6.3-5.6
	C161.9,250.9,159.4,248.1,156.1,247.9z"/>
<path class="st2" d="M129.8,201.1v19.7l-16.3-9.8v-9.9c0-4.5,3.7-8.1,8.2-8.1c2.3,0,4.3,0.9,5.8,2.4
	C128.9,196.8,129.8,198.8,129.8,201.1z"/>
<path class="st0" d="M121.5,196.9c-2.4,0.1-4.3,2.1-4.3,4.5c0,2.4,2.1,4.3,4.5,4.3c2.4-0.1,4.4-2.1,4.3-4.5
	C126,198.8,124,196.8,121.5,196.9z"/>
<path class="st2" d="M90.1,181.2c-1.5,2.6-4.2,4-7,4c-1.4,0-2.8-0.4-4.1-1.1l-17.6-10.3c-0.2-0.1-0.3-0.2-0.5-0.3l17.2-8.8l9.1,5.3
	C91,172.3,92.4,177.3,90.1,181.2z"/>
<path class="st0" d="M79,174.9c-1.2,2.1-0.4,4.8,1.7,5.9c2.1,1.2,4.8,0.4,6-1.7c1.2-2.1,0.4-4.8-1.7-6C82.9,172,80.2,172.7,79,174.9
	z"/>
<g>
	<path class="st5" d="M43.3,173.6c0,1.9-0.2,3.7-0.7,5.5c-0.6,2.3-1.5,4.4-2.8,6.3c-0.7,1-1.4,2-2.3,2.9c-4,4.3-9.6,6.9-15.9,6.9
		c-7.9,0-14.8-4.2-18.6-10.5c-2-3.3-3.1-7.1-3.1-11.2c0-5.3,1.9-10.2,5.1-14c0.7-0.9,1.5-1.7,2.4-2.4c3.8-3.3,8.8-5.3,14.2-5.3
		c3,0,5.8,0.6,8.4,1.7c7.6,3.2,12.9,10.5,13.3,19.2C43.3,173.1,43.3,173.4,43.3,173.6z"/>
	<circle class="st17" cx="21.7" cy="173.6" r="11.8"/>
	<circle class="st18" cx="21.7" cy="173.6" r="7.5"/>
</g>
</svg>
