<!-- Generator: Adobe Illustrator 19.2.0, SVG Export Plug-In  -->
<svg version="1.1"
	 xmlns="http://www.w3.org/2000/svg" xmlns:xlink="http://www.w3.org/1999/xlink" xmlns:a="http://ns.adobe.com/AdobeSVGViewerExtensions/3.0/"
	 x="0px" y="0px" width="40.6px" height="43.5px" viewBox="0 0 40.6 43.5" style="enable-background:new 0 0 40.6 43.5;"
	 xml:space="preserve">
<style type="text/css">
	.st0{fill:#6B878E;}
</style>
<defs>
</defs>
<g>
	<polygon class="st0" points="0.9,40.9 4.1,40.4 3.7,36.7 0.5,37.2 	"/>
	<polygon class="st0" points="10.6,39.3 13.7,38.8 13.2,35.2 10.1,35.7 	"/>
	<polygon class="st0" points="7.9,43.5 11,43 10.6,39.3 7.4,39.8 	"/>
	<polygon class="st0" points="6.6,6.1 7.1,9.8 10.2,9.5 9.8,5.8 	"/>
	<polygon class="st0" points="3,2.6 3.4,6.4 6.6,6.1 6.2,2.3 	"/>
	<polygon class="st0" points="2.8,29.3 3.2,33 6.4,32.5 6,28.8 5.5,25.1 2.3,25.5 	"/>
	<polygon class="st0" points="0.5,37.2 3.7,36.7 3.2,33 0,33.5 	"/>
	<polygon class="st0" points="37.8,34.9 40.6,34.4 40.3,31 37.5,31.4 	"/>
	<polygon class="st0" points="28.7,32.8 29.1,36.3 32,35.8 31.7,32.3 	"/>
	<polygon class="st0" points="32.4,39.3 35.3,38.9 34.9,35.4 32,35.8 	"/>
	<polygon class="st0" points="28.5,3.9 25.6,4.2 26,7.8 28.9,7.5 	"/>
	<polygon class="st0" points="31,0 28.1,0.3 28.5,3.9 31.4,3.6 	"/>
	<polygon class="st0" points="36.3,20.9 33.5,21.3 33.9,24.8 34.3,28.4 37.1,27.9 36.7,24.4 	"/>
	<polygon class="st0" points="19.9,34.2 19.5,30.6 12.8,31.6 13.2,35.2 	"/>
	<polygon class="st0" points="22.3,33.8 28.7,32.8 28.4,29.2 21.9,30.2 	"/>
	<path class="st0" d="M36,17.4l-3.1,0.4l-0.4-3.5l-2.7,0.3l-0.4-3.6l-2.9,0.3L26,7.8l-3,0.3l0.4,3.6l-3.8,0.4l-1.9,0.2l-3.9,0.4
		l-0.4-3.7l-3.1,0.3l0.4,3.7l-3.1,0.4l0.4,3.7l-3,0.4l0.4,3.7l-3.5,0.5l0.5,3.7l3.2-0.4l3.3-0.4l0.4,3.7L9.7,32l3.1-0.5l-0.4-3.7
		l0.7-0.1l14.2-2l0.7-0.1l0.4,3.5l2.9-0.4l-0.4-3.5l-0.4-3.5l3-0.4l2.9-0.4L36,17.4z M14.7,20.2l-3.1,0.4l-0.4-3.7l3.1-0.4
		L14.7,20.2z M26.9,18.6L24,19l-0.4-3.6l3-0.4L26.9,18.6z"/>
	<polygon class="st0" points="37.1,27.9 37.5,31.4 40.3,31 39.9,27.5 	"/>
</g>
</svg>
