<!-- Generator: Adobe Illustrator 19.2.0, SVG Export Plug-In  -->
<svg version="1.1"
	 xmlns="http://www.w3.org/2000/svg" xmlns:xlink="http://www.w3.org/1999/xlink" xmlns:a="http://ns.adobe.com/AdobeSVGViewerExtensions/3.0/"
	 x="0px" y="0px" width="46.5px" height="38.5px" viewBox="0 0 46.5 38.5" style="enable-background:new 0 0 46.5 38.5;"
	 xml:space="preserve">
<style type="text/css">
	.st0{fill:#6B878E;}
</style>
<defs>
</defs>
<polygon class="st0" points="0.9,15.1 4.1,14.6 3.7,10.9 0.5,11.4 "/>
<polygon class="st0" points="16.1,35.5 19.2,35 18.8,31.3 15.7,31.8 "/>
<polygon class="st0" points="19.7,38.5 22.9,38 22.4,34.3 19.3,34.8 "/>
<polygon class="st0" points="12.2,2.2 12.6,6 15.8,5.6 15.3,1.9 "/>
<polygon class="st0" points="9.6,4.4 10,8.1 13.2,7.8 12.8,4.1 "/>
<polygon class="st0" points="4.7,18.3 5.1,22.1 8.3,21.6 7.9,17.9 7.4,14.2 4.2,14.6 "/>
<polygon class="st0" points="0.5,11.4 3.7,10.9 3.2,7.2 0,7.7 "/>
<polygon class="st0" points="43.7,9.8 46.5,9.3 46.2,5.9 43.3,6.3 "/>
<polygon class="st0" points="34.3,28.9 34.7,32.4 37.6,32 37.2,28.4 "/>
<polygon class="st0" points="32.6,36.2 35.4,35.7 35,32.2 32.2,32.7 "/>
<polygon class="st0" points="34.1,0 31.1,0.3 31.5,3.9 34.5,3.6 "/>
<polygon class="st0" points="37,1.3 34.1,1.6 34.4,5.2 37.4,4.9 "/>
<polygon class="st0" points="43.6,9.7 40.8,10 41.1,13.6 41.3,17.1 44.2,16.7 43.9,13.2 "/>
<polygon class="st0" points="25.4,30.3 25,26.7 18.4,27.7 18.8,31.3 "/>
<polygon class="st0" points="27.9,29.9 34.3,28.9 33.9,25.4 27.4,26.3 "/>
<path class="st0" d="M41.5,13.5L38.4,14L38,10.4l-2.7,0.3l-0.4-3.6l-2.9,0.3l-0.4-3.6l-3,0.3l0.4,3.6l-3.8,0.4l-1.9,0.2L19.3,9
	l-0.4-3.7l-3.1,0.3l0.4,3.7L13,9.7l0.4,3.7l-3,0.4l0.4,3.7l-3.5,0.5l0.5,3.7l3.2-0.4l3.3-0.4l0.4,3.7l0.4,3.7l3.1-0.5L17.9,24
	l0.7-0.1l14.2-2l0.7-0.1l0.4,3.5l2.9-0.4l-0.4-3.5L36,17.9l3-0.4l2.9-0.4L41.5,13.5z M20.2,16.3l-3.1,0.4L16.7,13l3.1-0.4L20.2,16.3
	z M32.5,14.7l-3,0.4l-0.4-3.6l3-0.4L32.5,14.7z"/>
<polygon class="st0" points="43,2.8 43.3,6.3 46.2,5.9 45.8,2.4 "/>
</svg>
