<!-- Generator: Adobe Illustrator 19.2.0, SVG Export Plug-In  -->
<svg version="1.1"
	 xmlns="http://www.w3.org/2000/svg" xmlns:xlink="http://www.w3.org/1999/xlink" xmlns:a="http://ns.adobe.com/AdobeSVGViewerExtensions/3.0/"
	 x="0px" y="0px" width="18.8px" height="13.5px" viewBox="0 0 18.8 13.5" style="enable-background:new 0 0 18.8 13.5;"
	 xml:space="preserve">
<style type="text/css">
	.st0{fill:#E52F27;}
	.st1{fill:#E6CAAF;}
	.st2{fill:#7F514D;}
</style>
<defs>
</defs>
<g>
	<path class="st0" d="M18.3,0l0.5,12.5c0,0-11,0.7-12.9,0.7c-1.9,0-5.8,0.3-5.8,0.3L0,0.4L18.3,0z"/>
</g>
<g>
	<path class="st1" d="M17.1,1l0.5,10.7l-5.9,0.4c0,0-0.5-1.6-2.4-1.6s-2.7,1.8-2.7,1.8l-5.3,0.4L0.8,1.5L17.1,1z"/>
</g>
<g>
	<polygon class="st2" points="16,3.5 15.4,5.4 14.4,5 15.3,2.5 	"/>
</g>
<g>
	<polygon class="st0" points="11.3,2.4 11.1,4.2 9.9,4 10.3,2.2 	"/>
</g>
<g>
	<polygon class="st0" points="7.8,2.5 8.1,4.5 7.4,4.4 7.2,2.5 	"/>
</g>
<g>
	<polygon class="st0" points="3.5,3.2 4.3,5.2 3.4,5.7 2.7,3.7 	"/>
</g>
</svg>
