<!-- Generator: Adobe Illustrator 19.2.0, SVG Export Plug-In  -->
<svg version="1.1"
	 xmlns="http://www.w3.org/2000/svg" xmlns:xlink="http://www.w3.org/1999/xlink" xmlns:a="http://ns.adobe.com/AdobeSVGViewerExtensions/3.0/"
	 x="0px" y="0px" width="18.7px" height="13.3px" viewBox="0 0 18.7 13.3" style="enable-background:new 0 0 18.7 13.3;"
	 xml:space="preserve">
<style type="text/css">
	.st0{opacity:0.5;fill:#98B0BA;}
</style>
<defs>
</defs>
<path class="st0" d="M1.8,6.2C1.7,5.8,1.6,5.4,1.6,4.9C1.6,2.2,3.8,0,6.5,0c1.9,0,3.6,1.1,4.4,2.7c0.5-0.3,1-0.4,1.6-0.4
	c1.7,0,3.1,1.4,3.1,3.1c0,0.1,0,0.3,0,0.4c1.8,0.3,3.2,1.9,3.2,3.8c0,0.7-0.2,1.4-0.5,1.9c-0.7,1.2-1.9,1.9-3.3,1.9h-4.5V9.9h0.8
	c0.6,0,0.9-0.3,0.6-0.6l-0.5-0.6c-0.3-0.3-0.9-0.9-1.2-1.3L9.6,6.9c-0.3-0.3-0.9-0.3-1.2,0L7.9,7.5C7.5,7.8,7,8.4,6.7,8.7L6.2,9.3
	C5.9,9.6,6.1,9.9,6.8,9.9l0.8,0v3.4H3.9l0,0c-1.4,0-2.7-0.8-3.3-1.9C0.2,10.8,0,10.2,0,9.5C0,8.1,0.7,6.9,1.8,6.2z"/>
</svg>
