<!-- Generator: Adobe Illustrator 19.2.0, SVG Export Plug-In  -->
<svg version="1.1"
	 xmlns="http://www.w3.org/2000/svg" xmlns:xlink="http://www.w3.org/1999/xlink" xmlns:a="http://ns.adobe.com/AdobeSVGViewerExtensions/3.0/"
	 x="0px" y="0px" width="18.1px" height="15.6px" viewBox="0 0 18.1 15.6" style="enable-background:new 0 0 18.1 15.6;"
	 xml:space="preserve">
<style type="text/css">
	.st0{fill:#E6E6E6;}
	.st1{fill:#EF412C;}
	.st2{fill:#FFFFFF;}
</style>
<defs>
</defs>
<g>
	<rect y="2" class="st0" width="16.3" height="13.6"/>
	<g>
		<rect x="1.9" y="0" class="st1" width="16.3" height="13.6"/>
		<g>
			<path class="st2" d="M4,6.7c0-0.3,0.1-0.7,0.2-1c0.1-0.3,0.3-0.6,0.5-0.9c0.2-0.3,0.5-0.5,0.8-0.7C5.9,4,6.2,3.9,6.7,3.9
				C7.2,3.9,7.6,4,8,4.2c0.4,0.2,0.6,0.5,0.8,0.9L8.3,5.4C8.2,5.2,8.1,5.1,8,4.9C7.9,4.8,7.7,4.7,7.6,4.6C7.4,4.6,7.3,4.5,7.1,4.5
				c-0.2,0-0.3-0.1-0.5-0.1C6.3,4.4,6,4.5,5.7,4.6C5.5,4.8,5.2,4.9,5.1,5.2C4.9,5.4,4.8,5.6,4.7,5.9C4.6,6.2,4.5,6.5,4.5,6.8
				c0,0.3,0.1,0.6,0.2,0.9C4.8,8,5,8.2,5.1,8.4C5.3,8.7,5.6,8.8,5.8,9c0.3,0.1,0.5,0.2,0.8,0.2c0.2,0,0.3,0,0.5-0.1
				c0.2,0,0.3-0.1,0.5-0.2c0.2-0.1,0.3-0.2,0.4-0.3c0.1-0.1,0.2-0.3,0.3-0.5l0.5,0.2C8.8,8.6,8.7,8.8,8.5,8.9
				C8.3,9.1,8.1,9.2,7.9,9.3C7.7,9.4,7.5,9.5,7.3,9.6C7.1,9.6,6.8,9.7,6.6,9.7c-0.4,0-0.7-0.1-1.1-0.3C5.2,9.2,4.9,9,4.7,8.7
				C4.5,8.5,4.3,8.2,4.2,7.8C4,7.5,4,7.1,4,6.7z"/>
			<path class="st2" d="M12.1,6.6V7h-1v1.1h-0.5V7h-1V6.6h1V5.5h0.5v1.1H12.1z"/>
			<path class="st2" d="M15.4,6.6V7h-1v1.1h-0.5V7h-1V6.6h1V5.5h0.5v1.1H15.4z"/>
		</g>
	</g>
</g>
</svg>
