<!-- Generator: Adobe Illustrator 19.2.0, SVG Export Plug-In  -->
<svg version="1.1"
	 xmlns="http://www.w3.org/2000/svg" xmlns:xlink="http://www.w3.org/1999/xlink" xmlns:a="http://ns.adobe.com/AdobeSVGViewerExtensions/3.0/"
	 x="0px" y="0px" width="7.9px" height="8px" viewBox="0 0 7.9 8" style="enable-background:new 0 0 7.9 8;" xml:space="preserve">
<style type="text/css">
	.st0{fill:#797D91;}
</style>
<defs>
</defs>
<g>
	<path class="st0" d="M7.1,0.1C6.5-0.6,4.7,3.3,4.7,3.3S9.8,3.2,7.1,0.1z"/>
</g>
<g>
	<path class="st0" d="M6.4,7.9c0.8-0.2-1.9-3.5-1.9-3.5S2.4,8.9,6.4,7.9z"/>
</g>
<g>
	<path class="st0" d="M0,3.2C-0.2,4.1,4,3.1,4,3.1S0.8-0.8,0,3.2z"/>
</g>
<g>
	<path class="st0" d="M3.3,3.5c0,0.5,0.7,1.3,1.1,1.3c0.4,0,0.7-0.8,0.7-1.3c0-0.5-0.5-1.1-0.8-1.1C3.9,2.3,3.3,2.9,3.3,3.5z"/>
</g>
</svg>
