<!-- Generator: Adobe Illustrator 19.2.0, SVG Export Plug-In  -->
<svg version="1.1"
	 xmlns="http://www.w3.org/2000/svg" xmlns:xlink="http://www.w3.org/1999/xlink" xmlns:a="http://ns.adobe.com/AdobeSVGViewerExtensions/3.0/"
	 x="0px" y="0px" width="22.4px" height="22.4px" viewBox="0 0 22.4 22.4" style="enable-background:new 0 0 22.4 22.4;"
	 xml:space="preserve">
<style type="text/css">
	.st0{opacity:0.5;fill:#98B0BA;}
</style>
<defs>
</defs>
<path class="st0" d="M22.4,13.5L20.5,13c0.2-1.2,0.2-2.4,0-3.6l1.9-0.5l-0.3-1.2l-1.9,0.5c-0.4-1.2-1-2.3-1.9-3.3l1.4-1.4l-0.9-0.9
	l-1.4,1.4c-1-0.9-2.1-1.5-3.3-1.9l0.5-1.9L13.5,0L13,1.9c-1.2-0.2-2.4-0.2-3.6,0L8.9,0L7.7,0.3l0.5,1.9C7,2.6,5.9,3.2,4.9,4.1
	L3.6,2.7l0,0L2.7,3.6l0,0l1.4,1.4C3.2,5.9,2.6,7,2.2,8.2L0.3,7.7L0,8.9l1.9,0.5c-0.2,1.2-0.2,2.4,0,3.6L0,13.5l0.3,1.2l1.9-0.5
	c0.4,1.2,1,2.3,1.9,3.3l-1.4,1.4l0.9,0.9l1.4-1.4c1,0.9,2.1,1.5,3.3,1.9l-0.5,1.9l1.2,0.3l0.5-1.9c1.2,0.2,2.4,0.2,3.6,0l0.5,1.9
	l1.2-0.3l-0.5-1.9c1.2-0.4,2.3-1,3.3-1.9l1.4,1.4l0,0l0.8-0.8l0,0l-1.4-1.4c0.9-1,1.5-2.1,1.9-3.3l1.9,0.5L22.4,13.5z M15.7,15.7
	c-2.5,2.5-6.5,2.5-9,0c-2.5-2.5-2.5-6.5,0-9c2.5-2.5,6.5-2.5,9,0C18.2,9.2,18.2,13.2,15.7,15.7z"/>
</svg>
