<!-- Generator: Adobe Illustrator 19.2.0, SVG Export Plug-In  -->
<svg version="1.1"
	 xmlns="http://www.w3.org/2000/svg" xmlns:xlink="http://www.w3.org/1999/xlink" xmlns:a="http://ns.adobe.com/AdobeSVGViewerExtensions/3.0/"
	 x="0px" y="0px" width="16.4px" height="16.4px" viewBox="0 0 16.4 16.4" style="enable-background:new 0 0 16.4 16.4;"
	 xml:space="preserve">
<style type="text/css">
	.st0{opacity:0.5;fill:#98B0BA;}
</style>
<defs>
</defs>
<path class="st0" d="M13.6,11.9c0.2-0.3,0.4-0.7,0.6-1l1.6,0.4L16.4,9l-1.6-0.4c0-0.3,0-0.6,0-0.8l1.6-0.5l-0.7-2.3l-1.5,0.5
	c-0.1-0.3-0.3-0.6-0.5-0.9l1.1-1.1L13,1.7l-1.1,1.1c-0.3-0.2-0.6-0.4-0.9-0.5l0.5-1.5L9.2,0L8.7,1.6c-0.3,0-0.6,0-0.8,0L7.4,0
	L5.1,0.6l0.4,1.6c-0.4,0.2-0.7,0.4-1,0.6L3.4,1.7L1.7,3.4l1.1,1.1c-0.2,0.3-0.4,0.7-0.6,1L0.6,5.1L0,7.4l1.6,0.4c0,0.3,0,0.6,0,0.8
	L0,9.2l0.7,2.3L2.3,11c0.1,0.3,0.3,0.6,0.5,0.9L1.7,13l1.7,1.7l1.1-1.1c0.3,0.2,0.6,0.4,0.9,0.5l-0.5,1.5l2.3,0.7l0.5-1.6
	c0.3,0,0.6,0,0.8,0L9,16.4l2.3-0.6l-0.4-1.6c0.4-0.2,0.7-0.4,1-0.6l1.1,1.1l1.7-1.7L13.6,11.9z M10.6,10.6c-1.3,1.3-3.5,1.3-4.8,0
	s-1.3-3.5,0-4.8s3.5-1.3,4.8,0S11.9,9.3,10.6,10.6z"/>
</svg>
