<!-- Generator: Adobe Illustrator 19.2.0, SVG Export Plug-In  -->
<svg version="1.1"
	 xmlns="http://www.w3.org/2000/svg" xmlns:xlink="http://www.w3.org/1999/xlink" xmlns:a="http://ns.adobe.com/AdobeSVGViewerExtensions/3.0/"
	 x="0px" y="0px" width="59.7px" height="17.4px" viewBox="0 0 59.7 17.4" style="enable-background:new 0 0 59.7 17.4;"
	 xml:space="preserve">
<style type="text/css">
	.st0{opacity:0.75;fill:#E6E6E6;}
	.st1{fill:#EF412C;}
	.st2{fill:#FFFFFF;}
</style>
<defs>
</defs>
<rect y="3" class="st0" width="57.9" height="14.4"/>
<g>
	<rect x="1.7" class="st1" width="58" height="15.7"/>
</g>
<g>
	<g>
		<path class="st2" d="M13.7,4.2H15v3.1h2.7V4.2h1.4V12h-1.4V8.5H15V12h-1.4V4.2z"/>
		<path class="st2" d="M23.2,5.4h-2.4V4.2H27v1.2h-2.4V12h-1.4V5.4z"/>
		<path class="st2" d="M28.6,4.2h1.4l0.9,3l0.3,1.2h0l0.3-1.2l0.9-3H34V12h-1.1V8.5c0-0.2,0-0.4,0-0.7c0-0.3,0-0.5,0-0.8
			c0-0.3,0-0.6,0.1-0.8c0-0.3,0-0.5,0.1-0.7h0l-0.6,1.9l-0.8,2.4H31l-0.8-2.4l-0.5-1.9h0c0,0.2,0,0.4,0.1,0.7c0,0.3,0,0.5,0.1,0.8
			c0,0.3,0,0.6,0,0.8s0,0.5,0,0.7V12h-1.1V4.2z"/>
		<path class="st2" d="M36.7,4.2H38v6.6h3.6V12h-5V4.2z"/>
		<path class="st2" d="M43.9,10.2c0.3,0.2,0.5,0.4,0.8,0.6c0.3,0.2,0.7,0.2,1.1,0.2c0.5,0,0.9-0.1,1.2-0.4c0.3-0.3,0.5-0.6,0.5-1.1
			c0-0.5-0.1-0.8-0.4-1c-0.3-0.2-0.7-0.4-1.2-0.4c-0.3,0-0.5,0-0.7,0.1c-0.2,0.1-0.4,0.2-0.7,0.3l-0.7-0.4l0.2-3.7h4.4v1.2h-3.3
			l-0.2,1.8c0.2-0.1,0.4-0.1,0.6-0.2c0.2,0,0.4-0.1,0.6-0.1c0.4,0,0.7,0,1,0.1s0.6,0.2,0.8,0.4c0.2,0.2,0.4,0.4,0.6,0.7
			c0.1,0.3,0.2,0.6,0.2,1c0,0.4-0.1,0.8-0.2,1.1c-0.2,0.3-0.4,0.6-0.6,0.8c-0.3,0.2-0.6,0.4-0.9,0.5c-0.3,0.1-0.7,0.2-1.1,0.2
			c-0.7,0-1.2-0.1-1.7-0.3c-0.4-0.2-0.8-0.5-1.1-0.7L43.9,10.2z"/>
	</g>
</g>
</svg>
