<!-- Generator: Adobe Illustrator 19.2.0, SVG Export Plug-In  -->
<svg version="1.1"
	 xmlns="http://www.w3.org/2000/svg" xmlns:xlink="http://www.w3.org/1999/xlink" xmlns:a="http://ns.adobe.com/AdobeSVGViewerExtensions/3.0/"
	 x="0px" y="0px" width="37.5px" height="16.1px" viewBox="0 0 37.5 16.1" style="enable-background:new 0 0 37.5 16.1;"
	 xml:space="preserve">
<style type="text/css">
	.st0{opacity:0.75;fill:#E6E6E6;}
	.st1{fill:#61BAC4;}
	.st2{fill:#FFFFFF;}
</style>
<defs>
</defs>
<rect y="1.7" class="st0" width="36" height="14.4"/>
<g>
	<rect x="1.5" class="st1" width="36" height="14.4"/>
</g>
<g>
	<g>
		<path class="st2" d="M14,9.1c0.2,0.3,0.5,0.5,0.7,0.7C15,9.9,15.3,10,15.5,10c0.5,0,0.8-0.1,1.1-0.4c0.2-0.2,0.3-0.7,0.3-1.3V4.5
			h-3.1V3.3h4.5v5.2c0,0.4,0,0.7-0.1,1s-0.2,0.6-0.5,0.9s-0.5,0.4-0.8,0.6c-0.4,0.1-0.8,0.2-1.3,0.2c-0.2,0-0.4,0-0.7-0.1
			c-0.2,0-0.4-0.1-0.7-0.2s-0.4-0.2-0.6-0.4c-0.2-0.2-0.4-0.4-0.5-0.6L14,9.1z"/>
		<path class="st2" d="M21.3,9.1c0.3,0.3,0.6,0.5,1,0.6S23,10,23.4,10c0.5,0,0.8-0.1,1.1-0.3c0.2-0.2,0.4-0.4,0.4-0.7
			c0-0.2,0-0.3-0.1-0.4s-0.2-0.2-0.3-0.3c-0.1-0.1-0.3-0.2-0.4-0.2c-0.2-0.1-0.3-0.1-0.5-0.2l-1.1-0.5c-0.2-0.1-0.4-0.2-0.6-0.3
			c-0.2-0.1-0.4-0.3-0.5-0.4S21.1,6.3,21,6.1c-0.1-0.2-0.1-0.5-0.1-0.8c0-0.3,0.1-0.6,0.2-0.9c0.1-0.3,0.3-0.5,0.6-0.7
			c0.2-0.2,0.5-0.4,0.8-0.5c0.3-0.1,0.7-0.2,1.1-0.2c0.5,0,0.9,0.1,1.4,0.3c0.4,0.2,0.8,0.4,1.1,0.7L25.3,5
			c-0.3-0.2-0.5-0.4-0.8-0.5c-0.3-0.1-0.6-0.2-1-0.2c-0.4,0-0.7,0.1-1,0.2c-0.2,0.2-0.4,0.4-0.4,0.7c0,0.2,0,0.3,0.1,0.4
			s0.2,0.2,0.3,0.3s0.3,0.2,0.4,0.2s0.3,0.1,0.5,0.2l1,0.4C24.8,6.9,25,7,25.2,7.1c0.2,0.1,0.4,0.3,0.5,0.4s0.3,0.4,0.4,0.6
			c0.1,0.2,0.1,0.5,0.1,0.8c0,0.3-0.1,0.6-0.2,0.9c-0.1,0.3-0.3,0.5-0.6,0.7c-0.2,0.2-0.5,0.4-0.9,0.5c-0.4,0.1-0.8,0.2-1.2,0.2
			c-0.5,0-1.1-0.1-1.6-0.3c-0.5-0.2-0.9-0.5-1.3-0.8L21.3,9.1z"/>
	</g>
</g>
</svg>
