<!-- Generator: Adobe Illustrator 19.2.0, SVG Export Plug-In  -->
<svg version="1.1"
	 xmlns="http://www.w3.org/2000/svg" xmlns:xlink="http://www.w3.org/1999/xlink" xmlns:a="http://ns.adobe.com/AdobeSVGViewerExtensions/3.0/"
	 x="0px" y="0px" width="42.4px" height="17.5px" viewBox="0 0 42.4 17.5" style="enable-background:new 0 0 42.4 17.5;"
	 xml:space="preserve">
<style type="text/css">
	.st0{opacity:0.75;fill:#E6E6E6;}
	.st1{fill:#61BAC4;}
	.st2{fill:#FFFFFF;}
</style>
<defs>
</defs>
<rect y="1.3" class="st0" width="41.6" height="16.2"/>
<g>
	<rect x="0.8" class="st1" width="41.6" height="16.2"/>
	<g>
		<path class="st2" d="M11,12.5V3.6h3.7c0.4,0,0.7,0.1,1.1,0.2c0.3,0.2,0.6,0.4,0.8,0.6c0.2,0.3,0.4,0.6,0.5,0.9
			c0.1,0.3,0.2,0.7,0.2,1c0,0.4-0.1,0.7-0.2,1.1c-0.1,0.3-0.3,0.6-0.5,0.9c-0.2,0.3-0.5,0.5-0.8,0.6s-0.7,0.2-1,0.2h-2.9v3.3H11z
			 M11.9,8.5h2.8c0.3,0,0.5,0,0.7-0.2C15.7,8.2,15.9,8,16,7.9c0.2-0.2,0.3-0.4,0.4-0.7c0.1-0.2,0.1-0.5,0.1-0.8c0-0.3,0-0.5-0.1-0.8
			c-0.1-0.2-0.2-0.5-0.4-0.6c-0.2-0.2-0.4-0.3-0.6-0.4c-0.2-0.1-0.5-0.2-0.7-0.2h-2.8V8.5z"/>
		<path class="st2" d="M25.8,3.6v8.9H25V8.4h-5.3v4.2h-0.9V3.6h0.9v4H25v-4H25.8z"/>
		<path class="st2" d="M28.1,12.5V3.6h3.7c0.4,0,0.7,0.1,1.1,0.2c0.3,0.2,0.6,0.4,0.8,0.6c0.2,0.3,0.4,0.6,0.5,0.9
			c0.1,0.3,0.2,0.7,0.2,1c0,0.4-0.1,0.7-0.2,1.1c-0.1,0.3-0.3,0.6-0.5,0.9c-0.2,0.3-0.5,0.5-0.8,0.6c-0.3,0.2-0.7,0.2-1,0.2h-2.9
			v3.3H28.1z M28.9,8.5h2.8c0.3,0,0.5,0,0.7-0.2C32.7,8.2,32.9,8,33,7.9c0.2-0.2,0.3-0.4,0.4-0.7c0.1-0.2,0.1-0.5,0.1-0.8
			c0-0.3,0-0.5-0.1-0.8C33.3,5.4,33.1,5.2,33,5c-0.2-0.2-0.4-0.3-0.6-0.4c-0.2-0.1-0.5-0.2-0.7-0.2h-2.8V8.5z"/>
	</g>
</g>
</svg>
