<!-- Generator: Adobe Illustrator 19.2.0, SVG Export Plug-In  -->
<svg version="1.1"
	 xmlns="http://www.w3.org/2000/svg" xmlns:xlink="http://www.w3.org/1999/xlink" xmlns:a="http://ns.adobe.com/AdobeSVGViewerExtensions/3.0/"
	 x="0px" y="0px" width="54.6px" height="29.2px" viewBox="0 0 54.6 29.2" style="enable-background:new 0 0 54.6 29.2;"
	 xml:space="preserve">
<style type="text/css">
	.st0{fill:#677483;}
	.st1{fill:#B3B3B3;}
</style>
<defs>
</defs>
<g>
	<g>
		
			<rect x="36.1" y="0" transform="matrix(-1 -4.482560e-011 4.482560e-011 -1 90.741 0.3382)" class="st0" width="18.5" height="0.3"/>
		
			<rect x="25.1" y="0" transform="matrix(-1 -4.471635e-011 4.471635e-011 -1 59.6438 0.3382)" class="st0" width="9.4" height="0.3"/>
		
			<rect x="19.1" y="6.8" transform="matrix(-1 -4.490509e-011 4.490509e-011 -1 47.5814 13.9743)" class="st0" width="9.4" height="0.3"/>
		
			<rect x="0.9" y="9" transform="matrix(-1 -4.452051e-011 4.452051e-011 -1 11.1295 18.339)" class="st0" width="9.4" height="0.3"/>
		
			<rect x="11.6" y="5.7" transform="matrix(-1 -4.482737e-011 4.482737e-011 -1 39.0218 11.7926)" class="st0" width="15.8" height="0.3"/>
		
			<rect x="11.6" y="9" transform="matrix(-1 -4.482737e-011 4.482737e-011 -1 39.0218 18.339)" class="st0" width="15.8" height="0.3"/>
		
			<rect x="8.6" y="16.8" transform="matrix(-1 -4.471635e-011 4.471635e-011 -1 26.5732 33.973)" class="st0" width="9.4" height="0.3"/>
		
			<rect x="25.4" y="16.8" transform="matrix(-1 -4.539181e-011 4.539181e-011 -1 60.5926 33.973)" class="st0" width="9.7" height="0.3"/>
		
			<rect x="36.1" y="1.1" transform="matrix(-1 -4.482560e-011 4.482560e-011 -1 90.741 2.5199)" class="st0" width="18.5" height="0.3"/>
		
			<rect x="2" y="2.2" transform="matrix(-1 -4.482560e-011 4.482560e-011 -1 22.4145 4.7341)" class="st0" width="18.5" height="0.3"/>
		
			<rect x="21.9" y="2.2" transform="matrix(-1 -4.486912e-011 4.486912e-011 -1 76.4888 4.7341)" class="st0" width="32.8" height="0.3"/>
		
			<rect x="0.2" y="4.4" transform="matrix(-1 -4.486956e-011 4.486956e-011 -1 33.0691 9.0734)" class="st1" width="32.8" height="0.3"/>
		
			<rect x="33.3" y="3.3" transform="matrix(-1 -4.498680e-011 4.498680e-011 -1 87.9365 6.8846)" class="st0" width="21.3" height="0.3"/>
		
			<rect x="36.1" y="4.4" transform="matrix(-1 -4.482560e-011 4.482560e-011 -1 90.741 9.0734)" class="st1" width="18.5" height="0.3"/>
		
			<rect x="36" y="18.3" transform="matrix(-1 -4.492374e-011 4.492374e-011 -1 90.4278 37.0315)" class="st1" width="18.5" height="0.3"/>
		
			<rect x="25" y="18.3" transform="matrix(-1 -4.471635e-011 4.471635e-011 -1 59.3307 37.0315)" class="st0" width="9.4" height="0.3"/>
		
			<rect x="46.7" y="19.4" transform="matrix(-1 -4.370561e-011 4.370561e-011 -1 101.1492 39.2131)" class="st0" width="7.8" height="0.3"/>
		
			<rect x="1.8" y="20.5" transform="matrix(-1 -4.482560e-011 4.482560e-011 -1 22.1013 41.4263)" class="st0" width="18.5" height="0.3"/>
		
			<rect x="33.1" y="20.5" transform="matrix(-1 -4.495483e-011 4.495483e-011 -1 87.5678 41.4263)" class="st0" width="21.4" height="0.3"/>
		
			<rect x="0" y="22.7" transform="matrix(-1 -4.486912e-011 4.486912e-011 -1 32.7564 45.7671)" class="st0" width="32.8" height="0.3"/>
		
			<rect x="21.7" y="21.6" transform="matrix(-1 -4.492596e-011 4.492596e-011 -1 76.1766 43.5774)" class="st0" width="32.8" height="0.3"/>
		
			<rect x="36" y="22.7" transform="matrix(-1 -4.482560e-011 4.482560e-011 -1 90.4278 45.7671)" class="st1" width="18.5" height="0.3"/>
		
			<rect x="42.4" y="12.4" transform="matrix(-1 -4.505519e-011 4.505519e-011 -1 97.0527 25.2373)" class="st0" width="12.2" height="0.3"/>
		
			<rect x="22" y="13.5" transform="matrix(-1 -4.482649e-011 4.482649e-011 -1 76.6607 27.4195)" class="st1" width="32.6" height="0.3"/>
		
			<rect x="36.1" y="14.6" transform="matrix(-1 -4.492374e-011 4.492374e-011 -1 90.741 29.6332)" class="st0" width="18.5" height="0.3"/>
		
			<rect x="16.5" y="14.6" transform="matrix(-1 -4.482560e-011 4.482560e-011 -1 51.5728 29.6332)" class="st1" width="18.5" height="0.3"/>
		
			<rect x="45.4" y="15.7" transform="matrix(-1 -4.437973e-011 4.437973e-011 -1 99.9821 31.7843)" class="st0" width="9.3" height="0.3"/>
		
			<rect x="43.5" y="16.8" transform="matrix(-1 -4.500146e-011 4.500146e-011 -1 98.1295 33.973)" class="st0" width="11.1" height="0.3"/>
		<rect x="29.7" y="5.7" class="st1" width="18.5" height="0.3"/>
		<rect x="29.7" y="6.8" class="st1" width="18.5" height="0.3"/>
		<rect x="38.3" y="7.9" class="st0" width="9.8" height="0.3"/>
		<rect x="29.7" y="9" class="st0" width="18.5" height="0.3"/>
		<rect x="29.7" y="10.1" class="st0" width="18.5" height="0.3"/>
	</g>
	<g>
		
			<rect x="36" y="24.4" transform="matrix(-1 -4.482560e-011 4.482560e-011 -1 90.6033 49.2337)" class="st0" width="18.5" height="0.3"/>
		
			<rect x="25.1" y="24.4" transform="matrix(-1 -4.471413e-011 4.471413e-011 -1 59.5066 49.2337)" class="st0" width="9.4" height="0.3"/>
		
			<rect x="36" y="25.5" transform="matrix(-1 -4.482560e-011 4.482560e-011 -1 90.6033 51.4147)" class="st0" width="18.5" height="0.3"/>
		
			<rect x="1.9" y="26.6" transform="matrix(-1 -4.492374e-011 4.492374e-011 -1 22.2768 53.6285)" class="st0" width="18.5" height="0.3"/>
		
			<rect x="21.8" y="26.6" transform="matrix(-1 -4.486956e-011 4.486956e-011 -1 76.3516 53.6285)" class="st0" width="32.8" height="0.3"/>
		
			<rect x="0.1" y="28.8" transform="matrix(-1 -4.486956e-011 4.486956e-011 -1 32.9314 57.9683)" class="st1" width="32.8" height="0.3"/>
		
			<rect x="33.2" y="27.7" transform="matrix(-1 -4.507207e-011 4.507207e-011 -1 87.7988 55.779)" class="st0" width="21.3" height="0.3"/>
		
			<rect x="36" y="28.8" transform="matrix(-1 -4.482560e-011 4.482560e-011 -1 90.6033 57.9683)" class="st1" width="18.5" height="0.3"/>
	</g>
</g>
</svg>
