<?xml version="1.0" encoding="utf-8"?>
<!-- Generator: Adobe Illustrator 19.2.1, SVG Export Plug-In . SVG Version: 6.00 Build 0)  -->
<svg version="1.1" id="Layer_1" xmlns="http://www.w3.org/2000/svg" xmlns:xlink="http://www.w3.org/1999/xlink" x="0px" y="0px"
	 viewBox="0 0 208.6 208.4" style="enable-background:new 0 0 208.6 208.4;" xml:space="preserve">
<style type="text/css">
	.st0{display:none;}
	.st1{display:inline;opacity:0.25;}
	.st2{opacity:0.6;fill:#31828B;enable-background:new    ;}
	.st3{fill:#31828B;}
	.st4{opacity:0.6;}
	.st5{opacity:0.61;}
	.st6{opacity:0.54;}
	.st7{opacity:0.62;}
	.st8{opacity:0.59;}
	.st9{display:inline;opacity:0.26;}
	.st10{display:inline;opacity:0.25;fill:#31828B;enable-background:new    ;}
	.st11{fill:#E7A624;}
	.st12{fill:#FFC825;}
	.st13{fill:none;}
	.st14{fill:#66595D;}
	.st15{fill:#594C50;}
	.st16{fill:#FFFFFF;}
	.st17{fill:#E64A30;}
</style>
<g id="Layer_2" class="st0">
	<g class="st1">
		<path class="st2" d="M-1580-1598.5l-255.4-0.1h-0.3v55.1h0.3l270.3,0.1h46.1v-55.1H-1580z M-1529.6-1592.7l-14.4,11.4l-10.2,8.1
			l-1.5-1.2l-0.1-0.1l-9.5-7.5l-13.6-10.8L-1529.6-1592.7L-1529.6-1592.7z M-1591.4-1592.7l-24.6,19.5l-24.6-19.5H-1591.4z
			 M-1653.2-1592.7l-24.6,19.5l-24.6-19.6L-1653.2-1592.7z M-1715.3-1592.8l-24.6,19.6l-24.6-19.6H-1715.3z M-1777-1592.8
			l-24.6,19.5l-24.6-19.5H-1777z M-1829.5-1591l25.2,20l-25.2,20V-1591z M-1826.2-1549.2l24.7-19.6l24.6,19.6H-1826.2z
			 M-1773.6-1551l-25.1-20l25.1-20V-1551z M-1767.4-1590.6l24.7,19.6l-24.7,19.6V-1590.6z M-1764.5-1549.2l24.6-19.6l24.6,19.6
			H-1764.5z M-1711.5-1550.6l-25.6-20.3l25.6-20.3V-1550.6z M-1705.3-1590.6l24.8,19.6l-24.8,19.7V-1590.6z M-1702.4-1549.2
			l24.6-19.5l24.6,19.5H-1702.4z M-1649.4-1550.6l-25.6-20.3l25.6-20.3V-1550.6z M-1643.2-1590.3l24.4,19.4l-24.4,19.3V-1590.3z
			 M-1640.7-1549.2l24.7-19.6l24.6,19.6H-1640.7z M-1587.3-1550.3l-25.9-20.6l26-20.6L-1587.3-1550.3z M-1581.1-1590.1l1,0.8
			l14.9,11.8l8.2,6.5l-8.2,6.5l-8.8,6.9l-7.2,5.7L-1581.1-1590.1L-1581.1-1590.1z M-1578.8-1549.2l8.8-7l4.9-3.9l9.4-7.5l1.5-1.2
			l10.2,8.2l14.4,11.4H-1578.8z M-1525.2-1550.1l-0.2-0.2l-1.6-1.2l-17-13.5l-7.4-5.9l7.4-5.9l18.4-14.6l0.4-0.3L-1525.2-1550.1
			L-1525.2-1550.1z"/>
		<path class="st3" d="M-1192.2-2028h-1v40.7h1h141.3v-40.7H-1192.2z M-1058.8-2023.7l-18.2,14.4l-18.2-14.4H-1058.8z
			 M-1104.5-2023.7l-18.1,14.4l-18.2-14.5L-1104.5-2023.7z M-1150.1-2023.7l-18.1,14.4l-18.2-14.4H-1150.1z M-1188.7-2022.1
			l18.3,14.5l-18.3,14.5V-2022.1z M-1186.5-1991.5l18.2-14.4l18.2,14.4H-1186.5z M-1147.3-1992.6l-18.9-15.1l18.9-15V-1992.6z
			 M-1142.7-2022l18,14.4l-18,14.3V-2022z M-1140.9-1991.5l18.3-14.5l18.2,14.5H-1140.9z M-1101.4-1992.4l-19.2-15.2l19.2-15.3
			V-1992.4z M-1096.8-2021.8l17.8,14.2l-17.8,14.1V-2021.8z M-1095.2-1991.5l18.2-14.5l18.2,14.5H-1095.2z M-1055.5-1992.2
			l-19.4-15.4l19.4-15.4V-1992.2z"/>
		<g>
			<path class="st3" d="M-1529.7-1474.2c0,20.8-16.9,37.7-37.7,37.7h-72.7c-20.8,0-37.7-16.9-37.7-37.7l0,0
				c0-20.8,16.9-37.7,37.7-37.7h72.7C-1546.6-1512-1529.7-1495.1-1529.7-1474.2L-1529.7-1474.2z"/>
			<rect x="-1619.3" y="-1521.1" class="st3" width="33.9" height="5"/>
			<rect x="-1614.5" y="-1516" class="st3" width="24.1" height="9.1"/>
			<rect x="-1670.7" y="-1436.5" class="st3" width="133.8" height="5.7"/>
			<path class="st3" d="M-1670.6-1517.1v80.6v5.7v77h28.4V-1517L-1670.6-1517.1L-1670.6-1517.1z M-1645.7-1513.8l-2.1,2.6l0,0
				l-8.7,10.9l-4.3-5.5l-6.4-8H-1645.7z M-1662.4-1380.4l-4.4-5.5h20.6l-5.1,6.5l-5.2,6.5L-1662.4-1380.4z M-1653-1365.6l6.8,8.6
				h-20.6l8.1-10.1l2.3-2.8L-1653-1365.6z M-1667.7-1390.6v-25.3l10.1,12.7L-1667.7-1390.6z M-1656.5-1401.8l10.1,12.7h-20.3
				L-1656.5-1401.8z M-1655.3-1403.2l10.1-12.7v25.4L-1655.3-1403.2z M-1656.5-1404.7l-10.5-13.2h21L-1656.5-1404.7z
				 M-1666.6-1421.1l7.7-9.8l2.4-3l2.4,3l7.7,9.8H-1666.6z M-1656.5-1436.7l-5.3-6.6l0,0l-5.3-6.6h21l-8.4,10.5L-1656.5-1436.7z
				 M-1667.7-1454.4v-25.3l10.1,12.7L-1667.7-1454.4z M-1656.5-1465.6l10,12.6h-20L-1656.5-1465.6z M-1655.3-1467.1l10.1-12.7v25.4
				L-1655.3-1467.1z M-1656.5-1468.5l-10.6-13.4h21.3L-1656.5-1468.5z M-1666.3-1485l9.8-12.4l9.9,12.4H-1666.3z M-1667.7-1511.6
				l5.4,6.8l4.7,5.9l-10.1,12.7V-1511.6z M-1667.7-1447.9l6.3,7.9l2.7,3.5l1,1.3l-3.5,4.4l-6.6,8.2L-1667.7-1447.9L-1667.7-1447.9z
				 M-1667.7-1384.1l2.8,3.6l7.2,9.1l-3,3.8l-7.1,8.9L-1667.7-1384.1L-1667.7-1384.1z M-1645.2-1358.7l-4.8-6.1l-5.3-6.6l6.1-7.7
				l3.9-5v25.4L-1645.2-1358.7L-1645.2-1358.7z M-1645.2-1422.6l-6.6-8.3l-0.7-0.8l-2.9-3.6l1-1.3l1.7-2.1l7.4-9.3L-1645.2-1422.6
				L-1645.2-1422.6z M-1645.2-1486.2l-10.1-12.7l10.1-12.7V-1486.2z"/>
			<path class="st3" d="M-1565.3-1517.1v80.6v5.7v77h28.4v-82.7v-15.6v-65H-1565.3z M-1540.3-1513.8l-6.4,8l-4.3,5.5l-4.7-5.8l-4-5
				l-2.1-2.6L-1540.3-1513.8L-1540.3-1513.8z M-1542.2-1415.8l-7.5,9.4l-1.3,1.7l-1.3-1.7l-7.5-9.4l-1.7-2.1h20.9L-1542.2-1415.8z
				 M-1551.1-1370l10.3,12.9h-20.6L-1551.1-1370z M-1562.3-1358.8v-25.4l10.1,12.7L-1562.3-1358.8z M-1549.9-1371.4l10.1-12.7v25.4
				L-1549.9-1371.4z M-1551.1-1372.9l-10.3-13h20.5L-1551.1-1372.9z M-1561.2-1389.1l10.1-12.7l10.1,12.7H-1561.2z M-1561.2-1421.1
				l7.7-9.8l2.4-3l2.4,3l7.7,9.8H-1561.2z M-1553.2-1439.3l-8.4-10.6h21l-5.2,6.5l0,0l-5.3,6.7L-1553.2-1439.3z M-1562.3-1493.9
				v-17.7l5.6,7.1l4.4,5.5l-6.7,8.4l-3.4,4.2L-1562.3-1493.9L-1562.3-1493.9z M-1562.3-1479.7l10.1,12.7l-10.1,12.7V-1479.7z
				 M-1551.1-1465.6l9.9,12.6h-20L-1551.1-1465.6z M-1549.9-1467.1l10.1-12.7v25.4L-1549.9-1467.1z M-1551.1-1468.5l-10.6-13.4h21.2
				L-1551.1-1468.5z M-1560.9-1485l4-5l5.9-7.4l9,11.3l0.9,1.1H-1560.9z M-1562.3-1447.9l7.4,9.3l1.7,2.1l1,1.3l-3.5,4.4l-6.6,8.2
				V-1447.9z M-1562.3-1415.9l0.1,0.2l7.4,9.4l2.5,3.2l-10.1,12.7L-1562.3-1415.9L-1562.3-1415.9z M-1539.9-1390.5l-10.1-12.7
				l2.5-3.2l7.5-9.5l0.1-0.1V-1390.5z M-1539.9-1430.8v8.3l-6.5-8.3l-3.5-4.4l1-1.3l9.1-11.4v11.4L-1539.9-1430.8z M-1539.8-1486.2
				l-10.1-12.7l4.7-5.9l5.4-6.8V-1486.2z"/>
		</g>
		<path class="st3" d="M-1202.6-1468.8v49.4v55.8v58.1h28.4v-60.8v-50.3v-52.1L-1202.6-1468.8L-1202.6-1468.8z M-1199.6-1463.3
			l0.2,0.2l9.9,12.5l-10.1,12.7V-1463.3z M-1180.2-1430.5l-8.2,10.3l-4.8-6.1l-5.8-7.3h21.3L-1180.2-1430.5z M-1179.9-1335.4
			l-8.5,10.8l-10.3-13h5.7h14.9L-1179.9-1335.4z M-1181.8-1313.3l3.6,4.6h-20.6l3.6-4.6l6.7-8.4L-1181.8-1313.3z M-1198.6-1340.8
			l10.1-12.7l10.1,12.7H-1198.6z M-1199.6-1387.2v-12.4l0.8,0.9l9.3,11.7l-6.8,8.5l-3.3,4.2V-1387.2z M-1188.4-1385.5l10.1,12.8
			h-13.3h-6.9l3.3-4.1L-1188.4-1385.5z M-1178-1369.6l-2.2,2.7l-8.3,10.5l-10.5-13.2H-1178z M-1187.3-1387l10.1-12.7v25.3
			L-1187.3-1387z M-1188.4-1388.4l-9.8-12.3l-0.7-0.9h1.1h19.9L-1188.4-1388.4z M-1198.4-1404.8l10-12.6l2.6,3.3l7.4,9.3
			L-1198.4-1404.8L-1198.4-1404.8z M-1178.6-1436.8h-19.7l9.9-12.4L-1178.6-1436.8z M-1187.3-1450.6l10.1-12.7v25.4L-1187.3-1450.6z
			 M-1199.6-1431.5l4.8,6.1l5.2,6.6l-10.1,12.7L-1199.6-1431.5L-1199.6-1431.5z M-1199.7-1367.6l10.1,12.7l-10.1,12.7V-1367.6z
			 M-1199.7-1335.9l10.1,12.7l-7.8,9.9l-2.2,2.8L-1199.7-1335.9L-1199.7-1335.9z M-1177.2-1313.3v2.9l-2.3-2.9l-7.8-9.9l9.7-12.1
			l0.4-0.6v0.5L-1177.2-1313.3z M-1177.2-1342.3l-9.2-11.5l-0.9-1.2l9.2-11.6l0.9-1.1V-1342.3z M-1177.2-1406.1l-6.9-8.8l-3.1-3.9
			l9.6-12l0.5-0.7L-1177.2-1406.1L-1177.2-1406.1z M-1188.4-1452.1l-10.1-12.8l-0.4-0.5l-0.2-0.3h21.5l-0.2,0.3L-1188.4-1452.1z"/>
		<path class="st3" d="M-1142.8-1468.8v54.4v45.9v62.9h28.4v-7.8v-82.6v-72.8H-1142.8z M-1139.8-1463.3l1.2,1.6l8.8,11.1l-10.1,12.7
			L-1139.8-1463.3L-1139.8-1463.3z M-1138.9-1337.6h20.6l-10.3,12.9L-1138.9-1337.6z M-1121.9-1313.3l3.6,4.6h-20.6l3.6-4.6l6.7-8.4
			L-1121.9-1313.3z M-1138.7-1340.8l10.1-12.7l10.1,12.7H-1138.7z M-1127.4-1354.9l10-12.7v25.4L-1127.4-1354.9z M-1128.6-1356.4
			l-3.6-4.6l-6.8-8.6h20.9L-1128.6-1356.4z M-1126.1-1372.8h-12.6l10.1-12.8l5.4,6.9l4.7,5.9H-1126.1z M-1135.9-1397.7l-3.1-3.9h2.3
			h18.7l-10.5,13.2L-1135.9-1397.7z M-1138-1405.5l9.5-11.9l9.9,12.6h-19.9L-1138-1405.5z M-1127.4-1418.8l10.1-12.7v25.4
			L-1127.4-1418.8z M-1128.6-1420.2l-10.6-13.4h21.2L-1128.6-1420.2z M-1138.4-1436.8l9.8-12.4l9.9,12.4H-1138.4z M-1139.8-1431.5
			l10.1,12.7l-9.1,11.4l-1,1.2V-1431.5z M-1139.8-1374.3v-25.3l4.2,5.3l5.8,7.3l-9.1,11.4L-1139.8-1374.3z M-1139.8-1367.6l6.6,8.3
			l3.5,4.4l-10.1,12.7V-1367.6z M-1139.8-1335.9l10.1,12.7l-7.8,9.9l-2.2,2.8L-1139.8-1335.9L-1139.8-1335.9z M-1117.4-1310.5
			l-2.3-2.9l-7.8-9.9l10.1-12.7L-1117.4-1310.5L-1117.4-1310.5z M-1117.4-1374.3l-4.9-6.1l-5.2-6.6l10.1-12.7v9.6V-1374.3z
			 M-1117.3-1437.9l-10.1-12.7l1.8-2.3l8.3-10.4L-1117.3-1437.9L-1117.3-1437.9z M-1127-1454.1l-1.6,2l-5.7-7.2l-4.8-6l-0.2-0.3
			h21.5l-0.2,0.3L-1127-1454.1z"/>
		<g class="st4">
			<rect x="-1018.3" y="-1469" class="st3" width="77" height="161.4"/>
			<path class="st3" d="M-927-1464.8v140.6h-4.2v-30.6h-10v-2.8h10v-27.6h-10v-2.8h10v-27.6h-10v-2.8h10v-27.6h-10v-2.8h10v-15.8
				c0-5.7-4.7-10.4-10.4-10.4c-4.2,0-7.9,2.6-9.5,6.2h-4.5c1.8-6,7.4-10.4,14-10.4C-933.5-1479.4-927-1472.8-927-1464.8z"/>
			<rect x="-1022.1" y="-1316" class="st3" width="84.6" height="10.7"/>
		</g>
		<g>
			<rect x="-2135.2" y="-1885.2" class="st3" width="11.1" height="23.8"/>
			<rect x="-2052.1" y="-1885.2" class="st3" width="11.1" height="23.8"/>
			<path class="st3" d="M-2004.9-1912.2c0,15.9-11.8,29.1-27.2,31.1c-1.4,0.2-2.8,0.3-4.2,0.3H-2140c-1.4,0-2.8-0.1-4.2-0.3
				c-1.6-0.2-3.1-0.5-4.6-0.9c-1.8-0.5-3.5-1.2-5.1-2v-56.3c3-1.5,6.2-2.5,9.6-2.9c1.4-0.2,2.8-0.3,4.2-0.3h103.7
				c1.4,0,2.9,0.1,4.3,0.3c7,0.9,13.2,4.2,17.9,8.9C-2008.4-1928.7-2004.9-1920.9-2004.9-1912.2z"/>
			<path class="st3" d="M-2038.4-1881.5c0,1.7,1.4,3.2,3.2,3.2l0,0c1.7,0,3.2-1.4,3.2-3.2v-61.9c0-1.8-1.4-3.2-3.2-3.2l0,0
				c-1.8,0-3.2,1.4-3.2,3.2V-1881.5z"/>
			<path class="st3" d="M-2091.3-1881.5c0,1.7,1.4,3.2,3.2,3.2l0,0c1.8,0,3.2-1.4,3.2-3.2v-61.9c0-1.8-1.4-3.2-3.2-3.2l0,0
				c-1.7,0-3.2,1.4-3.2,3.2V-1881.5z"/>
			<path class="st3" d="M-2144.2-1881.5c0,1.7,1.4,3.2,3.2,3.2l0,0c1.8,0,3.2-1.4,3.2-3.2v-61.9c0-1.8-1.4-3.2-3.2-3.2l0,0
				c-1.7,0-3.2,1.4-3.2,3.2V-1881.5z"/>
			<rect x="-2153.9" y="-1912.4" class="st3" width="5.1" height="31.7"/>
		</g>
		<g class="st5">
			<rect x="-1004.9" y="-1199.4" class="st3" width="8" height="17.1"/>
			<rect x="-1037.3" y="-1199.4" class="st3" width="8" height="17.1"/>
			<rect x="-1059.8" y="-1199.4" class="st3" width="8" height="17.1"/>
			<rect x="-1119.4" y="-1199.4" class="st3" width="8" height="17.1"/>
			<path class="st3" d="M-1025.8-1218.8c0,12.4-10.1,22.5-22.5,22.5h-74.5c-12.5,0-22.6-10.1-22.6-22.5l0,0
				c0-12.5,10.1-22.5,22.6-22.5h74.5C-1035.9-1241.3-1025.8-1231.2-1025.8-1218.8L-1025.8-1218.8z"/>
			<path class="st3" d="M-1121.3-1196.7c0,1.3-1,2.3-2.3,2.3l0,0c-1.2,0-2.3-1-2.3-2.3v-44.5c0-1.3,1-2.3,2.3-2.3l0,0
				c1.3,0,2.3,1,2.3,2.3V-1196.7z"/>
			<path class="st3" d="M-1083.3-1196.7c0,1.3-1,2.3-2.3,2.3l0,0c-1.3,0-2.3-1-2.3-2.3v-44.5c0-1.3,1-2.3,2.3-2.3l0,0
				c1.2,0,2.3,1,2.3,2.3V-1196.7z"/>
			<path class="st3" d="M-1045.3-1196.7c0,1.3-1,2.3-2.3,2.3l0,0c-1.3,0-2.3-1-2.3-2.3v-44.5c0-1.3,1-2.3,2.3-2.3l0,0
				c1.3,0,2.3,1,2.3,2.3V-1196.7z"/>
			<g>
				<path class="st3" d="M-1018-1212.9c-1.1,0-2.1-0.9-2.1-2.1v-16.9h-3.7c-1.1,0-2.1-0.9-2.1-2.1v-22.2c0-1.1,0.9-2.1,2.1-2.1
					c1.1,0,2.1,0.9,2.1,2.1v20.1h3.7c1.1,0,2.1,0.9,2.1,2.1v19C-1015.9-1213.8-1016.8-1212.9-1018-1212.9z"/>
			</g>
			<g>
				<path class="st3" d="M-1003.7-1212.9c-1.1,0-2.1-0.9-2.1-2.1v-16.9h-3.6c-1.1,0-2.1-0.9-2.1-2.1v-22.2c0-1.1,0.9-2.1,2.1-2.1
					c1.1,0,2.1,0.9,2.1,2.1v20.1h3.6c1.1,0,2.1,0.9,2.1,2.1v19C-1001.6-1213.8-1002.5-1212.9-1003.7-1212.9z"/>
			</g>
			<path class="st3" d="M-1018-1256.1c0,3.2-2.6,5.7-5.7,5.7c-1.6,0-3-0.7-4-1.6c-1-1.1-1.6-2.5-1.6-4.1c0-3.2,2.6-5.7,5.7-5.7
				C-1020.5-1261.9-1018-1259.3-1018-1256.1z"/>
			<path class="st3" d="M-1019.2-1256.1c0,2.5-2,4.5-4.5,4.5c-1.2,0-2.3-0.5-3.2-1.3l3.2-3.2v-4.5
				C-1021.2-1260.6-1019.2-1258.6-1019.2-1256.1z"/>
			<path class="st3" d="M-1003.7-1256.1c0,3.2-2.5,5.7-5.7,5.7c-3.1,0-5.7-2.6-5.7-5.7c0-1.6,0.6-3,1.7-4c1-1,2.4-1.7,4-1.7
				C-1006.2-1261.9-1003.7-1259.3-1003.7-1256.1z"/>
			<path class="st3" d="M-1004.9-1256.1c0,2.5-2,4.5-4.4,4.5c-2.5,0-4.5-2-4.5-4.5c0-1.3,0.5-2.4,1.4-3.2l3.1,3.2v-4.5
				C-1006.9-1260.6-1004.9-1258.6-1004.9-1256.1z"/>
			<rect x="-1042" y="-1219" class="st3" width="49.9" height="22.7"/>
		</g>
		<g>
			<g>
				<path class="st3" d="M-1720.8-1962.3c-2.8,0-5-2.3-5-5v-41.1h-8.9c-2.8,0-5.1-2.3-5.1-5.1v-53.9c0-2.8,2.3-5.1,5.1-5.1
					c2.8,0,5.1,2.3,5.1,5.1v48.8h8.9c2.8,0,5.1,2.3,5.1,5v46.2C-1715.7-1964.6-1718-1962.3-1720.8-1962.3z"/>
			</g>
			<path class="st3" d="M-1720.8-2067.4c0,7.7-6.2,13.9-13.9,13.9c-3.8,0-7.2-1.7-9.7-4c-2.4-2.7-4-6.1-4-9.9
				c0-7.7,6.2-13.9,13.7-13.9C-1727-2081.3-1720.8-2075.1-1720.8-2067.4z"/>
			<path class="st3" d="M-1723.7-2067.4c0,6-4.9,10.9-11,10.9c-2.9,0-5.6-1.2-7.7-3.2l7.7-7.7v-11
				C-1728.6-2078.4-1723.7-2073.5-1723.7-2067.4z"/>
		</g>
		<g>
			<g>
				<path class="st3" d="M-1686.6-1962.3c-2.8,0-5.1-2.3-5.1-5v-41.1h-8.8c-2.8,0-5-2.3-5-5.1v-53.9c0-2.8,2.2-5.1,5-5.1
					s5.1,2.3,5.1,5.1v48.8h8.8c2.8,0,5.1,2.3,5.1,5v46.2C-1681.5-1964.6-1683.8-1962.3-1686.6-1962.3z"/>
			</g>
			<path class="st3" d="M-1686.7-2067.4c0,7.7-6.2,13.9-13.7,13.9c-7.7,0-13.9-6.2-13.9-13.9c0-3.9,1.5-7.3,4.1-9.8
				c2.4-2.5,5.9-4.1,9.8-4.1C-1692.9-2081.3-1686.7-2075.1-1686.7-2067.4z"/>
			<path class="st3" d="M-1689.6-2067.4c0,6-4.9,10.9-10.8,10.9c-6,0-10.9-4.9-10.9-10.9c0-3.1,1.2-5.8,3.3-7.7l7.7,7.7v-11
				C-1694.5-2078.4-1689.6-2073.5-1689.6-2067.4z"/>
		</g>
		<g class="st4">
			<path class="st3" d="M-1662.5-1754.4h4.1c2.3,0,4.3,0.6,6.2,1.5C-1655.4-1754.8-1659.1-1755.2-1662.5-1754.4z"/>
			<path class="st3" d="M-1916.6-1726.1v6.3h171.7v-6.3H-1916.6z M-1916.6-1726.1v6.3h171.7v-6.3H-1916.6z M-1916.6-1726.1v6.3
				h171.7v-6.3H-1916.6z M-1916.6-1726.1v6.3h171.7v-6.3H-1916.6z M-1916.6-1726.1v6.3h171.7v-6.3H-1916.6z M-1916.6-1726.1v6.3
				h171.7v-6.3H-1916.6z M-1916.6-1726.1v6.3h171.7v-6.3H-1916.6z M-1916.6-1726.1v6.3h171.7v-6.3H-1916.6z M-1549.6-1661.3l-7-4
				l-12.1-6.9l-2.7-1.6l-40.2-23.1c0.2,2.7,0.6,5.3,1.2,7.9l34.5,19.9l0,0l2.8,1.6l3.3,1.9l8.1,4.7l3.3,1.9l2.9,1.7l1.4,0.8
				l33.6,19.3c0.3-0.2,0.6-0.5,0.8-0.7v-6L-1549.6-1661.3z M-1916.6-1726.1v6.3h209.2v-6.3H-1916.6z M-1416.8-1624.7l-13.2-7.6
				l-23-13.2l-42.5-24.5l-24-13.8l-5.6-3.2l-2.3-1.3l-19.5-11.2l-99.9-57.5l-0.1-0.1l-2.1-1.2c-0.5-0.3-1.1-0.6-1.7-0.8
				c-2.3-0.9-4.9-1.5-7.7-1.5h-268c-5.5,0-10.6,2.3-14.3,6c-3.7,3.7-5.9,8.8-5.9,14.3c0,8.2,4.8,15.2,11.6,18.4c2.6,1.3,5.6,2,8.7,2
				h262.5l4.9,2.8l38.3,22.1l10.3,5.9l34.5,19.9l0,0l2.8,1.6l3.3,1.9l8.1,4.7l3.3,1.9l2.9,1.7l1.4,0.8l33.6,19.3l0.8,0.5l24,13.8
				l32.4,18.7l4.7,2.7l3.4,2l11.2,6.4l3.1,1.8l0.3,0.1l3.4,2c9.8,5.6,22.2,2.2,27.8-7.5C-1403.7-1606.6-1407.1-1619-1416.8-1624.7z
				 M-1926.4-1726.1c-3.3,0-6.3-1.1-8.7-3.1c-3.3-2.5-5.4-6.6-5.4-11.1c0-7.8,6.3-14.1,14.1-14.1h252.1c-0.1,0.1-0.1,0.1-0.2,0.2
				c-0.9,1-1.7,2.1-2.4,3.4c-4.8,8.3-3.1,18.5,3.5,24.7H-1926.4z M-1662.2-1726.1l-4-2.3c-6.8-3.8-9-12.5-5.2-19.3
				c1.2-2,2.8-3.7,4.6-4.8c1.3-0.9,2.8-1.5,4.3-1.9c3.4-0.8,7.1-0.4,10.3,1.5l1.7,0.9c0.2,0.2,0.5,0.3,0.7,0.5
				c3.4,2.5,5.5,6.6,5.5,11.2c0,7.8-6.3,14.2-14.1,14.2L-1662.2-1726.1L-1662.2-1726.1z M-1414.7-1600c-3.9,6.8-12.5,9-19.3,5.2
				l-1.9-1.1l-2.4-1.4l-2.9-1.7l-10.2-5.9l-2.9-1.7l-3.5-2l-0.2-0.1l-37.6-21.6l-20.5-11.8l-3.5-2l-30-17.3l-7-4l-12.1-6.9l-2.7-1.6
				l-40.2-23.1l-8.4-4.8l-32.8-18.9c2.4-0.7,4.6-1.8,6.6-3.3c5-3.7,8.1-9.6,8.1-16.3c0-1.7-0.2-3.3-0.7-4.9l1.7,1l25.8,14.8l0.9,0.5
				l58.9,33.9l21.8,12.6l0.1,0.1l0.4,0.2l9.6,5.5l1.2,0.7l22.8,13.1l41.7,24l23,13.2l11,6.3
				C-1413.2-1615.4-1410.9-1606.7-1414.7-1600z M-1916.6-1726.1v6.3h171.7v-6.3H-1916.6z M-1916.6-1726.1v6.3h171.7v-6.3H-1916.6z
				 M-1916.6-1726.1v6.3h171.7v-6.3H-1916.6z M-1916.6-1726.1v6.3h171.7v-6.3H-1916.6z M-1916.6-1726.1v6.3h171.7v-6.3H-1916.6z
				 M-1916.6-1726.1v6.3h171.7v-6.3H-1916.6z M-1916.6-1726.1v6.3h171.7v-6.3H-1916.6z M-1916.6-1726.1v6.3h171.7v-6.3H-1916.6z"/>
			<ellipse class="st3" cx="-1925.8" cy="-1740.3" rx="10.5" ry="10.5"/>
			<path class="st3" d="M-1648.3-1740.3c0,5.8-4.7,10.5-10.5,10.5s-10.5-4.7-10.5-10.5s4.7-10.5,10.5-10.5
				C-1653-1750.7-1648.3-1746.1-1648.3-1740.3z"/>
		</g>
		<g class="st4">
			<path class="st3" d="M-1175-1509.1h-268c-5.6,0-10.7,2.3-14.4,6c-3.7,3.7-5.9,8.8-5.9,14.4c0,8.2,4.8,15.2,11.6,18.4
				c2.6,1.3,5.6,2,8.7,2h240.4c0,0,0,0,0.1,0h27.6c0.3,0,0.5,0,0.7,0c3.3-0.1,6.4-1,9.1-2.5c6.3-3.5,10.5-10.1,10.5-17.8
				C-1154.6-1499.9-1163.8-1509.1-1175-1509.1z M-1175-1474.6h-268c-3.3,0-6.3-1.1-8.7-3.1c-3.3-2.6-5.4-6.6-5.4-11.1
				c0-7.8,6.3-14.1,14.1-14.1h268c7.8,0,14.1,6.3,14.1,14.1C-1160.9-1480.9-1167.2-1474.6-1175-1474.6z"/>
			<ellipse class="st3" cx="-1442.4" cy="-1488.7" rx="10.5" ry="10.5"/>
			<path class="st3" d="M-1164.9-1488.7c0,5.8-4.7,10.5-10.5,10.5s-10.5-4.7-10.5-10.5s4.7-10.5,10.5-10.5
				S-1164.9-1494.5-1164.9-1488.7z"/>
		</g>
		<g class="st4">
			<path class="st3" d="M-1662.9-1760.7h4.5c2.7,0,5.3,0.6,7.7,1.5C-1654.6-1761-1658.9-1761.4-1662.9-1760.7z"/>
			<path class="st3" d="M-1418.2-1602c-2.9,5-9.3,6.8-14.3,3.9s-6.7-9.3-3.9-14.3c2.9-5,9.3-6.7,14.3-3.9
				C-1417-1613.4-1415.3-1607-1418.2-1602z"/>
		</g>
		<rect x="-1821.8" y="-1796" class="st2" width="39.8" height="32"/>
		
			<rect x="-1665.7" y="-1797.6" transform="matrix(0.2434 -0.9699 0.9699 0.2434 476.1191 -2945.0935)" class="st2" width="32" height="39.8"/>
		
			<rect x="-1544.8" y="-1730.8" transform="matrix(0.4986 -0.8668 0.8668 0.4986 716.5236 -2183.0339)" class="st2" width="32" height="39.8"/>
		
			<rect x="-1417.8" y="-1656.8" transform="matrix(0.707 -0.7072 0.7072 0.707 746.8965 -1470.9944)" class="st2" width="32" height="39.8"/>
		<polygon class="st2" points="-1321,-1511.2 -1360.8,-1511.3 -1360.7,-1543.3 -1320.9,-1543.2 		"/>
		<polygon class="st2" points="-1205.9,-1511.2 -1245.7,-1511.3 -1245.6,-1543.3 -1205.8,-1543.2 		"/>
		<rect x="-1922.5" y="-1827.6" class="st2" width="39.8" height="32"/>
		<g>
			<path class="st3" d="M-1441.9-1272.9v214.3h-18.7c-10.3,0-18.8-8.4-18.8-18.7v-195.6c0-12.1-4.8-23.5-13.4-32.1s-20-13.4-32-13.4
				h-0.1l-310.5,0.6h-21.4l-55.2,0.1h-0.2c-22,0-42.8-8.6-58.5-24.3c-15.7-15.7-24.4-36.5-24.4-58.5v-378.4
				c0-25.1-20.4-45.5-45.5-45.5h-113.3v-37.5h113.3c45.8,0,83,37.2,83,83v378.4c0,12,4.8,23.4,13.4,32.1c8.6,8.5,20,13.3,32,13.3
				c0.1,0,0.1,0,0.1,0l55.2-0.1h21.4l123.9-0.2h19.9l20.9-0.1h28.4l77-0.2h28.4h11.9h0.2c22.1,0,42.8,8.6,58.5,24.3
				C-1450.6-1315.8-1441.9-1295-1441.9-1272.9z"/>
		</g>
		<g>
			<path class="st3" d="M-1396.4-2088v28.7c0,44.6-37.2,81-83,81h-182.4c-7,0-13.7,1.6-19.7,4.5c-3.7,1.7-7,4-10.1,6.6
				c-9.7,8.3-15.8,20.6-15.8,34.4v212.9c-0.1,45.8-37.3,82.9-83,82.9h-186c-10.3,0-18.8-8.4-18.8-18.8c0-10.3,8.4-18.7,18.8-18.7
				h186c25,0,45.4-20.4,45.5-45.4v-212.9c0-20.1,7.1-38.5,19-52.8c3-3.7,6.4-7.1,10.1-10.2c6-5.1,12.7-9.4,19.9-12.7
				c4.5-2.1,9.3-3.7,14.3-4.9c6.3-1.6,12.9-2.4,19.7-2.4h182.4c25.1,0,45.5-19.5,45.5-43.5v-28.7H-1396.4z"/>
		</g>
		<g>
			<path class="st3" d="M-855-1551.4l0.8,208.4v0.8c0,1.5,2.1,20.2-20.3,42.6c-16.3,16.3-37.5,28.5-62.5,28.5h-253.7
				c-4.1,0-8,0.5-11.8,1.5c-1.8,0.5-3.5,1-5.2,1.8h-0.1c-11.6,4.7-20.8,14.1-25.3,25.8c-0.7,1.7-1.2,3.4-1.6,5.2
				c-0.6,2.3-1,4.8-1.2,7.3c-0.1,1.3-0.2,2.6-0.2,3.9v84.1c0,25-11.1,47.4-28.6,62.6c-3.9,3.5-8.2,6.5-12.7,9.1
				c-12,7-25.9,11.1-40.8,11.3c-0.3,0-0.6,0-0.9,0h-143.6c-7.7,0-14.3-4.6-17.2-11.3c-1-2.2-1.5-4.7-1.6-7.2v-0.2
				c0-10.4,8.4-18.8,18.8-18.8h143.6c0.3,0,0.6,0,0.9,0c9.8-0.2,18.8-3.5,26.1-8.9c11.2-8.3,18.5-21.6,18.5-36.6v-84.1
				c0-1.3,0-2.6,0.1-3.9c0.1-2.4,0.3-4.9,0.7-7.3c0.2-1.7,0.5-3.5,0.8-5.2c1.9-9.2,5.3-17.9,9.9-25.8l0,0
				c3.4-5.7,7.5-11.1,12.2-15.8c10.2-10.5,23.2-18.3,37.7-22.2c2.4-0.6,4.9-1.2,7.4-1.6c4.6-0.8,9.3-1.2,14.1-1.2H-937
				c11.7,0,22.4-4.4,30.4-11.7c9.3-8.3,15.1-20.4,15.1-33.8v-143.4C-891.5-1518.6-868-1536.7-855-1551.4z"/>
		</g>
		<g>
			<path class="st3" d="M-891.7-1342.3V-1786c0-25.1-20.4-45.5-45.5-45.5h-30.7c-45.8,0-83-37.3-83-83V-2088h37.5v173.5
				c0,23.2,17.4,42.4,39.9,45.2c1.9,0.2,3.7,0.4,5.6,0.4h30.7c2.8,0,5.6,0.1,8.4,0.4c2.4,0.2,4.7,0.6,7,1
				c38.4,7.2,67.5,41,67.5,81.5v443.7"/>
		</g>
		<g>
			<path class="st3" d="M-1049.9-1575.4v285.5c0,10.4-8.4,18.8-18.8,18.8c-10.3,0-18.7-8.3-18.7-18.8v-285.5
				c0-25.1-20.4-45.5-45.5-45.5h-13.9c-42.1,0-77-31.5-82.3-72.3c-0.5-3.5-0.7-7.1-0.7-10.7V-2088h37.5v384.1
				c0,25.1,20.4,45.5,45.5,45.5h13.9c43.5,0,79.2,33.6,82.7,76.2C-1050-1580-1049.9-1577.7-1049.9-1575.4z"/>
		</g>
		<g class="st6">
			<path class="st3" d="M-1690.9-1418.9v59.5c0,1.4-0.3,2.7-0.7,3.9c-1.5,4-5.4,6.9-9.9,6.9s-8.4-2.8-10-6.8
				c-0.5-1.2-0.8-2.5-0.8-3.9v-59.5c0-14.9-12-27-26.8-27h-69.6c-26.5,0-48.2-21.9-48.2-48.7V-1954c0-12.5-8.4-23.1-19.9-26.1
				c-2.2-0.6-4.5-0.9-6.9-0.9h-102.9c-26.6,0-48.2-21.9-48.2-48.7v-58.3h21.4v58.3c0,14.9,12,27,26.8,27h102.9
				c2.3,0,4.7,0.2,6.9,0.5c23.3,3.4,41.3,23.7,41.3,48.2v459.5c0,14.9,12,27,26.7,27h69.6
				C-1712.5-1467.5-1690.9-1445.7-1690.9-1418.9z"/>
		</g>
		<g class="st4">
			<path class="st3" d="M-1209-1703.9c0,5.9-4.8,10.7-10.7,10.7H-1375c-26.5,0-48.2-21.6-48.2-48.2v-69.6c0-14.8-12-26.7-26.8-26.7
				h-117.8c-26.6,0-48.2-21.6-48.2-48.2V-2088h21.4v202.1c0,14.8,12,26.8,26.8,26.8h117.8c26.5,0,48.2,21.6,48.2,48.2v69.6
				c0,14.8,12,26.7,26.7,26.7h155.3C-1213.8-1714.6-1209-1709.8-1209-1703.9z"/>
		</g>
		<g>
			<path class="st3" d="M-1174.5-1271.1h-14c-4.1,0-8,0.5-11.8,1.5c-5.4-8.5-14.7-14-25.2-14h-78c-29.8,0-54-24.7-54-55.1v-24.5
				c0-16.9-13.4-30.6-30-30.6h-78c-29.8,0-54-24.7-54-55.1v-529.4h24v529.4c0,16.9,13.5,30.6,30,30.6h78c29.8,0,54,24.7,54,55.1
				v24.5c0,16.9,13.4,30.6,30,30.6h78c5.4,0,10.6,0.8,15.5,2.4C-1193.4-1300.8-1180.2-1287.7-1174.5-1271.1z"/>
		</g>
		<g>
			<path class="st3" d="M-1449.9-1173.9c0,5.9-4.8,10.7-10.7,10.7h-348c-26.6,0-48.2-21.6-48.2-48.2v-143.9l21.4-0.1v143.9
				c0,14.7,12,26.8,26.8,26.8h348C-1454.8-1184.6-1449.9-1179.8-1449.9-1173.9z"/>
		</g>
		<g class="st4">
			<path class="st3" d="M-1271.5-1163.8c1.1,0.4,2.3,0.6,3.6,0.6h33.9h257.4c26.6,0,48.2-21.6,48.2-48.2v-58.9c0-0.3,0-0.6-0.1-0.9
				c-0.4-5.5-5.1-9.8-10.7-9.8c-5.6,0-10.2,4.3-10.7,9.8c-0.1,0.3-0.1,0.6-0.1,0.9v58.9c0,14.7-12,26.8-26.8,26.8H-1234h-33.9
				c-1.3,0-2.5,0.2-3.6,0.6V-1163.8z"/>
		</g>
		<g class="st7">
			<path class="st3" d="M-907.2-1791.5c-1.3-2.6-2.8-5.1-4.6-7.5c-1.6-2.3-3.5-4.5-5.5-6.5c-5.8-5.8-12.6-10-19.9-12.6
				c-3.3-1.2-6.7-2.1-10.1-2.6c-11.4-1.8-23.4,0.2-33.8,5.8c-3,1.6-5.9,3.6-8.7,5.9c-1.3,1.1-2.6,2.3-3.8,3.5
				c-7.3,7.3-12.1,16.2-14.4,25.7c-4.1,17.6,0.6,36.9,14.4,50.6c10.8,10.9,25.1,16.1,39.4,15.8c11.1-0.2,22.1-3.9,31.4-11
				c0.6-0.4,1.1-0.8,1.6-1.3c1.3-1.1,2.6-2.3,3.8-3.5c0.6-0.6,1.1-1.1,1.7-1.7c2.4-2.6,4.4-5.3,6.2-8.2c0.2-0.3,0.3-0.5,0.5-0.8
				c2.3-3.8,4-7.9,5.3-12C-900-1765.1-901.1-1779.2-907.2-1791.5z M-920.4-1741c-0.5,0.7-1.1,1.4-1.7,2.1c-0.7,0.8-1.5,1.7-2.3,2.5
				c-0.9,0.9-1.9,1.8-2.8,2.6c-6.4,5.3-14,8.6-21.8,9.8c-11.8,1.8-24.2-1.3-34-9.1c-1.3-1-2.5-2.1-3.7-3.3c-1.2-1.2-2.3-2.4-3.3-3.7
				c-8.5-10.7-11.4-24.6-8.4-37.3c1.5-6.6,4.5-12.9,9.1-18.4c0.8-1,1.7-1.9,2.6-2.8c0.5-0.5,1-1,1.6-1.5c1-0.9,2-1.8,3-2.5
				c1.6-1.2,3.2-2.2,4.8-3.2c9-5.1,19.3-6.8,29.3-5.1c3.2,0.6,6.3,1.4,9.4,2.7c3.7,1.5,7.2,3.6,10.5,6.2c1.3,1,2.5,2.1,3.7,3.3
				c1.2,1.2,2.3,2.4,3.3,3.7c1.7,2.2,3.2,4.4,4.4,6.8c2.3,4.3,3.9,9,4.6,13.7c1,6.6,0.6,13.3-1.4,19.7
				C-914.9-1749.8-917.3-1745.2-920.4-1741z"/>
			
				<rect x="-1003" y="-1773.1" transform="matrix(0.7071 -0.7071 0.7071 0.7071 970.6046 -1193.0334)" class="st3" width="96.4" height="9.9"/>
			
				<rect x="-959.7" y="-1816.6" transform="matrix(0.7071 -0.7071 0.7071 0.7071 970.807 -1193.047)" class="st3" width="9.9" height="96.4"/>
			<path class="st3" d="M-946.1-1778c5.1,5.1,5.1,13.3,0,18.4s-13.3,5.1-18.4,0c-5.1-5.1-5.1-13.3,0-18.4S-951.2-1783.1-946.1-1778z
				"/>
			
				<ellipse transform="matrix(0.7072 -0.7071 0.7071 0.7072 970.8789 -1193.5928)" class="st3" cx="-955.5" cy="-1768.9" rx="8.2" ry="8.2"/>
		</g>
		<g>
			<rect x="-1717.7" y="-1190.3" class="st3" width="67.4" height="32.7"/>
			<path class="st3" d="M-1660.8-1175.6c0,12.6-10.4,22.9-23.2,22.9c-12.8,0-23.2-10.2-23.2-22.9c0-12.6,10.4-22.9,23.2-22.9
				C-1671.2-1198.5-1660.8-1188.3-1660.8-1175.6z"/>
			<rect x="-1695.5" y="-1201.4" class="st3" width="23" height="11.1"/>
			<path class="st3" d="M-1665.4-1208.3c0,1.7-1.4,3.1-3.1,3.1h-31.3c-1.7,0-3.1-1.4-3.1-3.1l0,0c0-1.7,1.4-3.1,3.1-3.1h31.3
				C-1666.8-1211.4-1665.4-1210-1665.4-1208.3L-1665.4-1208.3z"/>
			<path class="st3" d="M-1680.3-1200.5c0,2.1-1.7,3.8-3.9,3.8l0,0c-2.1,0-3.9-1.7-3.9-3.8v-10.3c0-2.1,1.7-3.8,3.9-3.8l0,0
				c2.1,0,3.9,1.7,3.9,3.8V-1200.5z"/>
		</g>
		<g>
			<rect x="-1653.6" y="-2021.8" class="st3" width="99.4" height="48.9"/>
			<path class="st3" d="M-1569.7-1999.9c0,18.9-15.3,34.2-34.2,34.2c-18.9,0-34.2-15.3-34.2-34.2c0-18.9,15.3-34.2,34.2-34.2
				S-1569.7-2018.7-1569.7-1999.9z"/>
			<rect x="-1620.8" y="-2038.4" class="st3" width="34" height="16.6"/>
			<path class="st3" d="M-1576.4-2048.6c0,2.6-2.1,4.6-4.6,4.6h-46.2c-2.6,0-4.6-2.1-4.6-4.6l0,0c0-2.6,2.1-4.6,4.6-4.6h46.2
				C-1578.4-2053.3-1576.4-2051.2-1576.4-2048.6L-1576.4-2048.6z"/>
			<path class="st3" d="M-1598.4-2037.1c0,3.2-2.6,5.7-5.7,5.7l0,0c-3.2,0-5.7-2.6-5.7-5.7v-15.4c0-3.2,2.6-5.7,5.7-5.7l0,0
				c3.2,0,5.7,2.6,5.7,5.7V-2037.1z"/>
		</g>
		<g class="st8">
			<path class="st3" d="M-1980-1463c0,5.8-4.8,10.7-10.7,10.7h-58.9c-26.5,0-48.2-21.6-48.2-48.2v-117.8c0-14.8-12-26.8-26.8-26.8
				h-25.7v227.8c0,8.6,5.4,16.1,11.5,16.1c18.1,0,32.9,16.8,32.9,37.5v36.5h-21.4v-36.5c0-8.6-5.4-16.1-11.5-16.1
				c-5.5,0-10.6-1.5-15.2-4.2v-282.4h29.4c26.5,0,48.2,21.6,48.2,48.2v117.8c0,14.8,12,26.8,26.8,26.8h58.9
				C-1984.8-1473.7-1980-1468.9-1980-1463z"/>
		</g>
		<g>
			<rect x="-1412.5" y="-1101.3" class="st3" width="96.3" height="47.3"/>
			<path class="st3" d="M-1331.1-1080c0,18.3-14.8,33.1-33.1,33.1c-18.3,0-33.1-14.8-33.1-33.1c0-18.3,14.8-33.1,33.1-33.1
				C-1346-1113.1-1331.1-1098.3-1331.1-1080z"/>
			<rect x="-1380.7" y="-1117.4" class="st3" width="32.9" height="16.1"/>
			<path class="st3" d="M-1337.7-1127.3c0,2.5-2,4.5-4.5,4.5h-44.7c-2.5,0-4.5-2-4.5-4.5l0,0c0-2.5,2-4.5,4.5-4.5h44.7
				C-1339.7-1131.8-1337.7-1129.7-1337.7-1127.3L-1337.7-1127.3z"/>
			<path class="st3" d="M-1359-1116.1c0,3.1-2.5,5.6-5.6,5.6l0,0c-3.1,0-5.6-2.5-5.6-5.6v-14.9c0-3.1,2.5-5.6,5.6-5.6l0,0
				c3.1,0,5.6,2.5,5.6,5.6V-1116.1z"/>
		</g>
		<g>
			<rect x="-973.6" y="-2088" class="st3" width="7" height="221.4"/>
			<rect x="-928.8" y="-2088" class="st3" width="7" height="221.4"/>
			<rect x="-969" y="-2077.4" class="st3" width="42" height="2.7"/>
			<rect x="-969" y="-2055.6" class="st3" width="42" height="2.7"/>
			<rect x="-969" y="-2033.8" class="st3" width="42" height="2.7"/>
			<rect x="-969" y="-2012" class="st3" width="42" height="2.7"/>
			<rect x="-969" y="-1990.2" class="st3" width="42" height="2.7"/>
			<rect x="-969" y="-1968.4" class="st3" width="42" height="2.7"/>
			<rect x="-969" y="-1946.7" class="st3" width="42" height="2.7"/>
			<rect x="-969" y="-1924.9" class="st3" width="42" height="2.7"/>
			<rect x="-969" y="-1903.1" class="st3" width="42" height="2.7"/>
			<rect x="-969" y="-1881.3" class="st3" width="42" height="2.7"/>
		</g>
		<g>
			<polygon class="st3" points="-1116,-1839.3 -1120,-1835.3 -1123.2,-1804.4 -1120,-1797.1 -1116,-1797.1 -1113.1,-1804.3 			"/>
			<polygon class="st3" points="-1155.8,-1777.9 -1150.3,-1776.4 -1121.9,-1789.2 -1117.2,-1795.5 -1119.2,-1799 -1126.9,-1797.9 
							"/>
			<polygon class="st3" points="-1082.7,-1774.2 -1084.1,-1779.7 -1109.4,-1797.9 -1117.2,-1798.7 -1119.2,-1795.3 -1114.4,-1789.2 
							"/>
			<path class="st3" d="M-1123.6-1797.1c0,3,2.4,5.5,5.5,5.5c3,0,5.5-2.5,5.5-5.5s-2.5-5.5-5.5-5.5
				C-1121.2-1802.6-1123.6-1800.2-1123.6-1797.1z"/>
			<path class="st3" d="M-1121.1-1797.1c0,1.6,1.3,2.9,2.9,2.9s2.9-1.3,2.9-2.9s-1.3-2.9-2.9-2.9S-1121.1-1798.7-1121.1-1797.1z"/>
		</g>
		<path class="st3" d="M-1118-1847.8h-75.2v100.4h75.2c27.2,0,49.3-21.5,50.2-48.5c0-0.6,0-1.1,0-1.7
			C-1067.8-1825.3-1090.3-1847.8-1118-1847.8z M-1118-1752.8c-24.7,0-44.8-20.1-44.8-44.8c0-8,2.1-15.6,5.8-22.1
			c7.7-13.6,22.3-22.7,39-22.7c24.7,0,44.9,20.1,44.9,44.8v0.3C-1073.3-1772.7-1093.4-1752.8-1118-1752.8z"/>
		<g>
			<polygon class="st3" points="-1511.6,-1241 -1514.6,-1238.1 -1537.3,-1235.8 -1542.6,-1238.1 -1542.6,-1241 -1537.3,-1243.1 			
				"/>
			<polygon class="st3" points="-1556.8,-1211.8 -1557.8,-1215.8 -1548.5,-1236.7 -1543.8,-1240.1 -1541.2,-1238.7 -1542.1,-1233 
							"/>
			<polygon class="st3" points="-1559.5,-1265.5 -1555.5,-1264.4 -1542.1,-1245.9 -1541.4,-1240.1 -1544,-1238.7 -1548.4,-1242.2 
							"/>
			<path class="st3" d="M-1542.6-1235.4c-2.2,0-4-1.8-4-4s1.8-4,4-4s4,1.8,4,4C-1538.6-1237.2-1540.4-1235.4-1542.6-1235.4z"/>
			<circle class="st3" cx="-1542.6" cy="-1239.4" r="2.1"/>
		</g>
		<path class="st3" d="M-1505.4-1242c-0.5-7.7-3.4-14.8-8-20.5c-3.3-4.2-7.5-7.6-12.3-10c-4.3-2.2-9.1-3.5-14.2-3.8
			c-0.8,0-1.5-0.1-2.3-0.1c-5.4,0-10.5,1.1-15.1,3.2c-3.2,1.4-6.2,3.3-8.8,5.6l0,0c-5,4.3-8.9,9.9-11,16.2c-0.6,1.8-1.1,3.7-1.4,5.6
			c-0.2,1.2-0.4,2.5-0.5,3.8c0,0.8-0.1,1.6-0.1,2.4v55.3h73.8v-55.3C-1505.4-1240.4-1505.4-1241.2-1505.4-1242z M-1513.4-1223.6
			c-2.9,5.2-7.2,9.6-12.3,12.6c-1.2,0.7-2.5,1.3-3.8,1.9c-1.6,0.6-3.2,1.2-4.9,1.6l0,0c-2.5,0.6-5.1,0.9-7.8,0.9
			c-2.8,0-5.5-0.4-8.1-1c-3.7-0.9-7.1-2.5-10.1-4.5c-2.1-1.3-3.9-2.9-5.6-4.7c-2-2.1-3.7-4.4-5.1-7c-1-1.8-1.8-3.7-2.4-5.6
			c-0.2-0.5-0.3-0.9-0.4-1.4c-0.6-1.9-0.9-3.9-1-5.9c-0.1-0.9-0.1-1.8-0.1-2.7c0-0.8,0-1.6,0.1-2.4c0.1-1.3,0.3-2.5,0.5-3.8
			c0.4-1.9,0.9-3.8,1.6-5.6c1.6-4,3.9-7.7,6.9-10.8c1.7-1.8,3.6-3.4,5.6-4.8c0.3-0.2,0.7-0.5,1-0.7c5-3.1,10.9-4.9,17.3-4.9
			c6,0,11.7,1.6,16.5,4.5c5.2,3,9.4,7.3,12.3,12.6c2.3,4,3.7,8.6,4,13.5c0.1,0.8,0.1,1.6,0.1,2.4c0,0.9,0,1.8-0.1,2.7
			C-1509.8-1232.1-1511.2-1227.6-1513.4-1223.6z"/>
		<polygon class="st3" points="-1862.8,-1848 -1942.4,-1848 -1928.6,-1865.9 -1928.6,-2088 -1876.7,-2088 -1876.7,-1865.9 		"/>
		<path class="st3" d="M-1916.6-1670.8c0,5.1-4.1,9.2-9.2,9.2l0,0c-5.1,0-9.2-4.1-9.2-9.2v-69.6c0-5.1,4.1-9.2,9.2-9.2l0,0
			c5.1,0,9.2,4.1,9.2,9.2V-1670.8z"/>
		<path class="st3" d="M-1433.2-1418.3c0,5.1-4.1,9.2-9.2,9.2l0,0c-5.1,0-9.2-4.1-9.2-9.2v-69.6c0-5.1,4.1-9.2,9.2-9.2l0,0
			c5.1,0,9.2,4.1,9.2,9.2V-1418.3z"/>
		<rect x="-1229.7" y="-1566.8" class="st3" width="142.4" height="101.5"/>
		<rect x="-1196.1" y="-1552" class="st3" width="32.3" height="32.3"/>
		<rect x="-1152.4" y="-1552" class="st3" width="32.3" height="32.3"/>
		<polygon class="st3" points="-1295.2,-1928.8 -1299.7,-1899.1 -1320,-1899.1 -1324.5,-1928.8 		"/>
		<path class="st3" d="M-1296.1-1868.9c-0.1,0.1-0.1,0.2-0.2,0.3c-3.1,4.1-8.6,7.6-14.2,7.6c-9.2,0-16.6-6.7-16.8-15.8
			c0-7.5,3.3-11.5,6.6-13.9c3.3-2.4,6.6-3.2,6.6-4.6v-3.9h8.4v6.5c0,1.4-0.5,2.7-1.2,3.6c-0.7,1-1.8,1.6-3,1.6c-5,0-9,4-9,9s4,9,9,9
			s9-4,9-9v-0.5c0-3.3,1.1-4.2,3-4.2C-1296.4-1883.1-1291.4-1877.9-1296.1-1868.9z"/>
		<g>
			<path class="st3" d="M-1285.5-2014.1c-0.5-0.4-1.2-0.7-2-0.7h-44.6c-0.8,0-1.5,0.3-2,0.7c-0.5,0.4-0.7,0.9-0.6,1.5l1.4,7.1
				l6.3,31.4l8.5,42l0.7,3.3l2,10.1l3.4,16.6c0.2,0.9,1.3,1.6,2.6,1.6s2.5-0.7,2.7-1.6l5.4-26.7l7.6-37.4l7.9-39.3l1.4-7.1
				C-1284.8-2013.2-1285-2013.7-1285.5-2014.1z M-1299.4-1967.6l-7.8,38.8l-2.6,13.1l-2.6-13.1l-9-44.6l-6-29.9l-1.6-7.7h38.5
				l-1.6,7.7L-1299.4-1967.6z"/>
		</g>
		<path class="st3" d="M-1279.1-2018.8c0,8.7-7,15.7-15.7,15.7h-30.1c-8.7,0-15.7-7-15.7-15.7l0,0c0-8.7,7-15.7,15.7-15.7h30.1
			C-1286.1-2034.5-1279.1-2027.5-1279.1-2018.8L-1279.1-2018.8z"/>
		<rect x="-1334.8" y="-2088" class="st3" width="5.8" height="69.2"/>
		<rect x="-1292" y="-2088" class="st3" width="5.8" height="69.2"/>
		<rect x="-1341.1" y="-1841.8" class="st3" width="60.9" height="60.9"/>
		<g>
			<path class="st3" d="M-1286.9-1837.3c-0.8,0-1.6-0.4-2.2-1.1l-21.7-29.6l-22,29.6c-0.9,1.2-2.6,1.4-3.7,0.6
				c-1.2-0.9-1.4-2.6-0.6-3.7l24.1-32.6c0.5-0.7,1.3-0.9,2.2-1.1c0.8,0,1.6,0.4,2.1,1.1l23.8,32.6c0.9,1.2,0.6,2.9-0.6,3.7
				C-1285.8-1837.5-1286.3-1837.3-1286.9-1837.3z"/>
		</g>
		<polygon class="st3" points="-1922.4,-1099.4 -1926.6,-1072.3 -1945.1,-1072.3 -1949.2,-1099.4 		"/>
		<path class="st3" d="M-1923.3-1044.8c-0.1,0.1-0.1,0.2-0.2,0.3c-2.9,3.8-7.9,7-12.9,7c-8.4,0-15.1-6.1-15.4-14.4
			c0-6.9,3-10.5,6-12.7s6-2.9,6-4.2v-3.5h7.7v6c0,1.3-0.4,2.4-1.1,3.3c-0.6,0.9-1.6,1.5-2.7,1.5c-4.6,0-8.2,3.7-8.2,8.2
			c0,4.6,3.7,8.2,8.2,8.2s8.2-3.7,8.2-8.2v-0.4c0-3,1-3.9,2.7-3.9C-1923.5-1057.7-1919-1052.9-1923.3-1044.8z"/>
		<g>
			<path class="st3" d="M-1919.7-1167.4l-2.3,11.7h4.9l2.8-13.8C-1916-1168.4-1917.8-1167.7-1919.7-1167.4z M-1913.6-1177.2
				c-0.5-0.4-1.1-0.6-1.9-0.6h-40.7c-0.7,0-1.4,0.2-1.8,0.6c-0.5,0.4-0.7,0.8-0.6,1.3l1.3,6.5l2.8,13.8l11.3,56.3l4.3,21.4l0.6,3
				c0.2,0.8,1.2,1.5,2.4,1.5c1.2,0,2.3-0.6,2.4-1.5l0.6-3l4.3-21.4l11.3-56.3l2.8-13.8l1.3-6.5
				C-1913-1176.4-1913.2-1176.8-1913.6-1177.2z M-1922.1-1155.7l-11.3,56.3l-2.4,11.9l-2.4-11.9l-11.3-56.3l-2.3-11.7l-1.4-7h35.1
				l-1.4,7L-1922.1-1155.7z"/>
		</g>
		<path class="st3" d="M-1907.7-1181.5c0,7.9-6.4,14.3-14.3,14.3h-27.5c-7.9,0-14.3-6.4-14.3-14.3l0,0c0-7.9,6.4-14.3,14.3-14.3
			h27.5C-1914.2-1195.8-1907.7-1189.4-1907.7-1181.5L-1907.7-1181.5z"/>
		<rect x="-1958.6" y="-1253.6" class="st3" width="5.3" height="72.1"/>
		<rect x="-1919.5" y="-1253.6" class="st3" width="5.3" height="72.1"/>
		<g>
			<rect x="-1965.2" y="-1505.6" class="st3" width="33.4" height="12.7"/>
			<path class="st3" d="M-1890.2-1499.3c0,14.2-11.5,25.7-25.5,25.7c-14.2,0-25.7-11.5-25.7-25.7c0-7.2,2.8-13.5,7.7-18.1
				c4.4-4.7,11-7.7,18.1-7.7C-1901.7-1525-1890.2-1513.6-1890.2-1499.3z"/>
			<path class="st3" d="M-1895.7-1499.3c0,11.2-9.1,20.2-20,20.2c-11.2,0-20.3-9-20.3-20.2c0-5.8,2.2-10.7,6.1-14.3l14.2,14.3v-20.3
				C-1904.7-1519.6-1895.7-1510.5-1895.7-1499.3z"/>
		</g>
		<g>
			<rect x="-1060.5" y="-1582.3" class="st3" width="33.4" height="12.7"/>
			<path class="st3" d="M-985.5-1575.9c0,14.2-11.5,25.7-25.5,25.7c-14.2,0-25.7-11.5-25.7-25.7c0-7.2,2.8-13.5,7.7-18.1
				c4.4-4.7,11-7.7,18.1-7.7C-997-1601.7-985.5-1590.2-985.5-1575.9z"/>
			<path class="st3" d="M-990.9-1575.9c0,11.2-9.1,20.2-20,20.2c-11.2,0-20.3-9-20.3-20.2c0-5.8,2.2-10.7,6.1-14.3l14.2,14.3v-20.3
				C-1000-1596.2-990.9-1587.2-990.9-1575.9z"/>
		</g>
		<g>
			<path class="st3" d="M-1385.7-1250.4c0,12.6-10.3,22.8-22.9,22.8c-6.3,0-11.9-2.7-16-6.6c-3.9-4.4-6.6-10-6.6-16.3
				c0-12.7,10.2-22.9,22.6-22.9C-1395.9-1273.3-1385.7-1263.1-1385.7-1250.4z"/>
			<path class="st3" d="M-1390.6-1250.4c0,9.9-8,17.9-18,17.9c-4.9,0-9.2-1.9-12.6-5.3l12.6-12.6v-18
				C-1398.6-1268.4-1390.6-1260.4-1390.6-1250.4z"/>
			<rect x="-1442.6" y="-1255.7" class="st3" width="21.4" height="11.6"/>
		</g>
		<g>
			<path class="st3" d="M-1799.8-1899.1c0,12.6,10.3,22.8,22.9,22.8c6.3,0,11.9-2.7,16-6.6c3.9-4.4,6.6-10,6.6-16.3
				c0-12.7-10.2-22.9-22.6-22.9C-1789.6-1922-1799.8-1911.8-1799.8-1899.1z"/>
			<path class="st3" d="M-1794.9-1899.1c0,9.9,8,17.9,18,17.9c4.9,0,9.2-1.9,12.6-5.3l-12.6-12.6v-18
				C-1786.9-1917.2-1794.9-1909.1-1794.9-1899.1z"/>
			<rect x="-1764.3" y="-1904.4" class="st3" width="21.4" height="11.6"/>
		</g>
		<g>
			<path class="st3" d="M-1609.2-980.5h-37.5v-18.3c0-20.7,20-37,45.5-37h113.8c4.4,0,8-3.7,8-8v-69.4h37.5v69.4
				c0,25.1-20.4,45.5-45.5,45.5h-113.8c-3.8,0-6.6,1-8,1.9V-980.5z"/>
		</g>
		<g>
			<path class="st3" d="M-1856.8-1266.4v21.4h-232.9c-20.7,0-37.5-16.8-37.5-37.5v-44.8h21.4v44.8c0,8.8,7.2,16.1,16.1,16.1H-1856.8
				z"/>
		</g>
		<rect x="-2148.9" y="-1327.2" class="st3" width="142.4" height="101.5"/>
		<rect x="-2115.3" y="-1312.4" class="st3" width="32.3" height="32.3"/>
		<rect x="-2071.6" y="-1312.4" class="st3" width="32.3" height="32.3"/>
	</g>
	<g class="st1">
		<g>
			<rect x="-858.2" y="-292.4" class="st3" width="7" height="221.4"/>
			<rect x="-813.5" y="-292.4" class="st3" width="7" height="221.4"/>
			<rect x="-853.6" y="-281.8" class="st3" width="42" height="2.7"/>
			<rect x="-853.6" y="-260" class="st3" width="42" height="2.7"/>
			<rect x="-853.6" y="-238.2" class="st3" width="42" height="2.7"/>
			<rect x="-853.6" y="-216.4" class="st3" width="42" height="2.7"/>
			<rect x="-853.6" y="-194.7" class="st3" width="42" height="2.7"/>
			<rect x="-853.6" y="-172.9" class="st3" width="42" height="2.7"/>
			<rect x="-853.6" y="-151.1" class="st3" width="42" height="2.7"/>
			<rect x="-853.6" y="-129.3" class="st3" width="42" height="2.7"/>
			<rect x="-853.6" y="-107.5" class="st3" width="42" height="2.7"/>
			<rect x="-853.6" y="-85.7" class="st3" width="42" height="2.7"/>
		</g>
	</g>
	<g class="st9">
		<g>
			<path class="st3" d="M-107.9-1391.4c0,10.7-8.6,19.3-19.3,19.3h-37.2c-10.7,0-19.3-8.6-19.3-19.3l0,0c0-10.7,8.7-19.3,19.3-19.3
				h37.2C-116.6-1410.7-107.9-1402.1-107.9-1391.4L-107.9-1391.4z"/>
			<rect x="-153.8" y="-1415.4" class="st3" width="17.3" height="2.6"/>
			<rect x="-151.3" y="-1412.8" class="st3" width="12.4" height="4.7"/>
			<rect x="-180.1" y="-1372.1" class="st3" width="68.5" height="2.9"/>
			<path class="st3" d="M-180.1-1413.3v41.2v2.9v39.4h14.5v-83.5H-180.1z M-167.3-1411.7l-1.1,1.3l0,0l-4.4,5.6l-2.2-2.8l-3.3-4.1
				H-167.3z M-175.9-1343.4l-2.2-2.8h10.5l-2.6,3.3l-2.6,3.3L-175.9-1343.4z M-171.1-1335.8l3.5,4.4h-10.5l4.1-5.2l1.2-1.4
				L-171.1-1335.8z M-178.6-1348.6v-13l5.2,6.5L-178.6-1348.6z M-172.8-1354.3l5.2,6.5H-178L-172.8-1354.3z M-172.2-1355l5.2-6.5v13
				L-172.2-1355z M-172.8-1355.8l-5.4-6.7h10.7L-172.8-1355.8z M-178-1364.2l4-5l1.2-1.5l1.2,1.5l4,5H-178z M-172.8-1372.2l-2.7-3.4
				l0,0l-2.7-3.4h10.7l-4.3,5.4L-172.8-1372.2z M-178.6-1381.2v-13l5.2,6.5L-178.6-1381.2z M-172.8-1387l5.1,6.4h-10.2L-172.8-1387z
				 M-172.2-1387.7l5.2-6.5v13L-172.2-1387.7z M-172.8-1388.4l-5.4-6.9h10.9L-172.8-1388.4z M-177.9-1396.9l5-6.4l5.1,6.4H-177.9z
				 M-178.6-1410.5l2.8,3.5l2.4,3l-5.2,6.5V-1410.5z M-178.6-1377.9l3.2,4.1l1.4,1.8l0.5,0.7l-1.8,2.3l-3.4,4.2v-13.1H-178.6z
				 M-178.6-1345.3l1.5,1.8l3.7,4.7l-1.5,1.9l-3.6,4.6L-178.6-1345.3L-178.6-1345.3z M-167.1-1332.3l-2.5-3.1l-2.7-3.4l3.1-3.9
				l2-2.6L-167.1-1332.3L-167.1-1332.3z M-167.1-1364.9l-3.4-4.2l-0.3-0.4l-1.5-1.9l0.5-0.7l0.9-1.1l3.8-4.7V-1364.9z
				 M-167.1-1397.5l-5.2-6.5l5.2-6.5V-1397.5z"/>
			<path class="st3" d="M-126.2-1413.3v41.2v2.9v39.4h14.5v-42.3v-8v-33.3h-14.5V-1413.3z M-113.4-1411.7l-3.3,4.1l-2.2,2.8l-2.4-3
				l-2.1-2.6l-1.1-1.4L-113.4-1411.7L-113.4-1411.7z M-114.4-1361.5l-3.8,4.8l-0.7,0.9l-0.7-0.9l-3.8-4.8l-0.9-1.1h10.7
				L-114.4-1361.5z M-118.9-1338l5.3,6.6h-10.5L-118.9-1338z M-124.6-1332.3v-13l5.2,6.5L-124.6-1332.3z M-118.3-1338.8l5.2-6.5v13
				L-118.3-1338.8z M-118.9-1339.5l-5.3-6.6h10.5L-118.9-1339.5z M-124.1-1347.8l5.2-6.5l5.2,6.5H-124.1z M-124.1-1364.2l4-5
				l1.2-1.5l1.2,1.5l4,5H-124.1z M-120-1373.5l-4.3-5.4h10.7l-2.6,3.3l0,0l-2.7,3.4L-120-1373.5z M-124.6-1401.5v-9l2.9,3.7l2.3,2.8
				l-3.4,4.3l-1.7,2.2v-4H-124.6z M-124.6-1394.2l5.2,6.5l-5.2,6.5V-1394.2z M-118.9-1387l5.1,6.4H-124L-118.9-1387z M-118.3-1387.7
				l5.2-6.5v13L-118.3-1387.7z M-118.9-1388.4l-5.4-6.9h10.9L-118.9-1388.4z M-123.9-1396.9l2.1-2.6l3-3.8l4.6,5.8l0.5,0.6H-123.9z
				 M-124.6-1377.9l3.8,4.7l0.9,1.1l0.5,0.7l-1.8,2.3l-3.4,4.2V-1377.9z M-124.6-1361.5L-124.6-1361.5l3.9,4.9l1.3,1.6l-5.2,6.5
				C-124.6-1348.5-124.6-1361.5-124.6-1361.5z M-113.2-1348.5l-5.2-6.5l1.3-1.6l3.8-4.8l0,0L-113.2-1348.5L-113.2-1348.5z
				 M-113.2-1369.2v4.2l-3.3-4.2l-1.8-2.3l0.5-0.7l4.6-5.8v5.8L-113.2-1369.2z M-113.1-1397.5l-5.2-6.5l2.4-3l2.8-3.5
				C-113.1-1410.5-113.1-1397.5-113.1-1397.5z"/>
		</g>
		<g>
			<rect x="-417.9" y="-1524" class="st3" width="5.7" height="12.2"/>
			<rect x="-375.4" y="-1524" class="st3" width="5.7" height="12.2"/>
			<path class="st3" d="M-351.2-1537.8c0,8.1-6.1,14.9-13.9,15.9c-0.7,0.1-1.4,0.1-2.2,0.1h-53.1c-0.7,0-1.5,0-2.2-0.1
				c-0.8-0.1-1.6-0.3-2.4-0.5c-0.9-0.3-1.8-0.6-2.6-1v-28.8c1.5-0.8,3.2-1.3,4.9-1.5c0.7-0.1,1.4-0.2,2.2-0.2h53.1
				c0.7,0,1.5,0.1,2.2,0.2c3.6,0.5,6.8,2.1,9.2,4.6C-353-1546.3-351.2-1542.3-351.2-1537.8z"/>
			<path class="st3" d="M-368.3-1522.1c0,0.9,0.7,1.6,1.6,1.6l0,0c0.9,0,1.6-0.7,1.6-1.6v-31.7c0-0.9-0.7-1.6-1.6-1.6l0,0
				c-0.9,0-1.6,0.7-1.6,1.6V-1522.1z"/>
			<path class="st3" d="M-395.4-1522.1c0,0.9,0.7,1.6,1.6,1.6l0,0c0.9,0,1.6-0.7,1.6-1.6v-31.7c0-0.9-0.7-1.6-1.6-1.6l0,0
				c-0.9,0-1.6,0.7-1.6,1.6V-1522.1z"/>
			<path class="st3" d="M-422.5-1522.1c0,0.9,0.7,1.6,1.6,1.6l0,0c0.9,0,1.6-0.7,1.6-1.6v-31.7c0-0.9-0.7-1.6-1.6-1.6l0,0
				c-0.9,0-1.6,0.7-1.6,1.6V-1522.1z"/>
			<rect x="-427.4" y="-1538" class="st3" width="2.6" height="16.2"/>
		</g>
		<g>
			<path class="st3" d="M-63-1288.3v109.7h-9.6c-5.3,0-9.6-4.3-9.6-9.6v-100.1c0-6.2-2.4-12-6.8-16.4s-10.2-6.8-16.4-6.8l0,0
				l-158.9,0.3h-11l-28.3,0.1h-0.1c-11.3,0-21.9-4.4-29.9-12.5c-8-8-12.5-18.7-12.5-30v-116c0-12.9-10.4-23.3-23.3-23.3h-58v-19.2
				h58c23.4,0,42.5,19,42.5,42.5v116c0,6.2,2.5,12,6.9,16.4s10.2,6.8,16.4,6.8c0,0,0,0,0.1,0l28.3-0.1h11l63.4-0.1h10.2h10.7h14.5
				l39.4-0.1h14.5h6.1h0.1c11.3,0,21.9,4.4,29.9,12.4C-67.5-1310.3-63-1299.7-63-1288.3z"/>
		</g>
		<g>
			<path class="st3" d="M-67.1-1237.6c0,3-2.5,5.5-5.5,5.5h-178.1c-13.6,0-24.7-11.1-24.7-24.7v-73.6h11v73.7
				c0,7.5,6.1,13.7,13.7,13.7h178.1C-69.6-1243.1-67.1-1240.7-67.1-1237.6z"/>
		</g>
		<g>
			<rect x="-204.2" y="-1246.1" class="st3" width="34.5" height="16.7"/>
			<ellipse class="st3" cx="-186.9" cy="-1238.6" rx="11.9" ry="11.7"/>
			<rect x="-192.8" y="-1251.8" class="st3" width="11.8" height="5.7"/>
			<path class="st3" d="M-177.4-1255.2c0,0.9-0.7,1.6-1.6,1.6h-16c-0.9,0-1.6-0.7-1.6-1.6l0,0c0-0.9,0.7-1.6,1.6-1.6h16
				C-178.1-1256.8-177.4-1256.1-177.4-1255.2L-177.4-1255.2z"/>
			<path class="st3" d="M-185-1251.3c0,1.1-0.9,2-2,2l0,0c-1.1,0-2-0.9-2-2v-5.3c0-1.1,0.9-2,2-2l0,0c1.1,0,2,0.9,2,2V-1251.3z"/>
		</g>
		<g class="st8">
			<path class="st3" d="M-338.4-1385.6c0,3-2.5,5.5-5.5,5.5H-374c-13.6,0-24.7-11.1-24.7-24.7v-60.3c0-7.6-6.1-13.7-13.7-13.7h-13.2
				v116.6c0,4.4,2.8,8.2,5.9,8.2c9.3,0,16.8,8.6,16.8,19.2v18.7h-10.9v-18.7c0-4.4-2.7-8.2-5.9-8.2c-2.8,0-5.4-0.8-7.8-2.2v-144.6
				h15c13.6,0,24.7,11.1,24.7,24.7v60.3c0,7.6,6.1,13.7,13.7,13.7h30.1C-340.9-1391.1-338.4-1388.6-338.4-1385.6z"/>
		</g>
		<g>
			<polygon class="st3" points="-98.7,-1272 -100.2,-1270.5 -111.8,-1269.3 -114.6,-1270.5 -114.6,-1272 -111.9,-1273.1 			"/>
			<polygon class="st3" points="-121.8,-1257.1 -122.3,-1259.1 -117.5,-1269.8 -115.2,-1271.6 -113.9,-1270.8 -114.3,-1267.9 			"/>
			<polygon class="st3" points="-123.2,-1284.6 -121.1,-1284 -114.3,-1274.5 -114,-1271.6 -115.3,-1270.8 -117.5,-1272.6 			"/>
			<circle class="st3" cx="-114.6" cy="-1271.2" r="2.1"/>
			<circle class="st3" cx="-114.6" cy="-1271.2" r="1.1"/>
		</g>
		<path class="st3" d="M-95.5-1272.5c-0.3-4-1.8-7.6-4.1-10.5c-1.7-2.1-3.9-3.9-6.3-5.1c-2.2-1.1-4.7-1.8-7.3-2c-0.4,0-0.8,0-1.2,0
			c-2.8,0-5.4,0.6-7.7,1.7c-1.6,0.7-3.2,1.7-4.5,2.9l0,0c-2.6,2.2-4.5,5-5.6,8.3c-0.3,0.9-0.6,1.9-0.7,2.9c-0.1,0.6-0.2,1.3-0.2,1.9
			c0,0.4,0,0.8,0,1.3v28.3h37.8v-28.3C-95.5-1271.7-95.5-1272.1-95.5-1272.5z M-99.6-1263.1c-1.5,2.7-3.7,4.9-6.3,6.4
			c-0.6,0.4-1.3,0.7-1.9,1c-0.8,0.3-1.6,0.6-2.5,0.8l0,0c-1.3,0.3-2.6,0.5-4,0.5s-2.8-0.2-4.1-0.5c-1.9-0.5-3.6-1.3-5.2-2.3
			c-1.1-0.7-2-1.5-2.9-2.4c-1-1.1-1.9-2.3-2.6-3.6c-0.5-0.9-0.9-1.9-1.2-2.9c-0.1-0.2-0.2-0.5-0.2-0.7c-0.3-1-0.5-2-0.5-3
			c-0.1-0.5-0.1-0.9-0.1-1.4c0-0.4,0-0.8,0-1.3c0.1-0.7,0.1-1.3,0.3-1.9c0.2-1,0.5-2,0.8-2.9c0.8-2.1,2-4,3.5-5.5
			c0.9-0.9,1.8-1.7,2.9-2.4c0.2-0.1,0.3-0.2,0.5-0.3c2.6-1.6,5.6-2.5,8.8-2.5c3.1,0,6,0.8,8.5,2.3c2.6,1.5,4.8,3.8,6.3,6.4
			c1.2,2.1,1.9,4.4,2.1,6.9c0,0.4,0.1,0.8,0.1,1.3s0,0.9-0.1,1.4C-97.8-1267.4-98.5-1265.2-99.6-1263.1z"/>
		<polygon class="st3" points="-309,-1199.5 -311.1,-1185.7 -320.6,-1185.7 -322.6,-1199.5 		"/>
		<path class="st3" d="M-309.4-1171.6l-0.1,0.1c-1.5,1.9-4,3.6-6.6,3.6c-4.3,0-7.7-3.1-7.9-7.4c0-3.5,1.5-5.4,3.1-6.5
			c1.5-1.1,3.1-1.5,3.1-2.1v-1.8h3.9v3c0,0.7-0.2,1.3-0.6,1.7c-0.3,0.5-0.8,0.8-1.4,0.8c-2.3,0-4.2,1.9-4.2,4.2
			c0,2.3,1.9,4.2,4.2,4.2c2.3,0,4.2-1.9,4.2-4.2v-0.2c0-1.5,0.5-2,1.4-2C-309.5-1178.2-307.2-1175.7-309.4-1171.6z"/>
		<g>
			<path class="st3" d="M-307.6-1234.3l-1.2,6h2.5l1.4-7C-305.7-1234.8-306.6-1234.5-307.6-1234.3z M-304.5-1239.4
				c-0.3-0.2-0.6-0.3-1-0.3h-20.8c-0.4,0-0.7,0.1-0.9,0.3c-0.2,0.2-0.4,0.4-0.3,0.7l0.7,3.3l1.4,7l5.8,28.8l2.2,10.9l0.3,1.5
				c0.1,0.4,0.6,0.7,1.2,0.7s1.2-0.3,1.2-0.7l0.3-1.5l2.2-10.9l5.8-28.8l1.4-7l0.7-3.3C-304.1-1238.9-304.2-1239.2-304.5-1239.4z
				 M-308.8-1228.3l-5.8,28.8l-1.2,6.1l-1.2-6.1l-5.8-28.8l-1.2-6l-0.7-3.6h18l-0.7,3.6L-308.8-1228.3z"/>
		</g>
		<path class="st3" d="M-301.4-1241.5c0,4.1-3.3,7.3-7.3,7.3h-14.1c-4.1,0-7.3-3.3-7.3-7.3l0,0c0-4.1,3.3-7.3,7.3-7.3h14.1
			C-304.7-1248.9-301.4-1245.6-301.4-1241.5L-301.4-1241.5z"/>
		<rect x="-327.5" y="-1278.5" class="st3" width="2.7" height="36.9"/>
		<rect x="-307.5" y="-1278.5" class="st3" width="2.7" height="36.9"/>
		<g>
			<rect x="-330.9" y="-1407.5" class="st3" width="17.1" height="6.5"/>
			<path class="st3" d="M-292.5-1404.2c0,7.3-5.9,13.2-13,13.2c-7.3,0-13.2-5.9-13.2-13.2c0-3.7,1.4-6.9,3.9-9.3
				c2.3-2.4,5.6-3.9,9.2-3.9C-298.4-1417.4-292.5-1411.5-292.5-1404.2z"/>
			<path class="st3" d="M-295.3-1404.2c0,5.7-4.6,10.3-10.3,10.3c-5.7,0-10.4-4.6-10.4-10.3c0-3,1.1-5.5,3.1-7.3l7.3,7.3v-10.4
				C-299.9-1414.6-295.3-1410-295.3-1404.2z"/>
		</g>
		<g>
			<path class="st3" d="M-148.7-1138.7h-19.2v-9.4c0-10.6,10.2-18.9,23.3-18.9h58.2c2.2,0,4.1-1.9,4.1-4.1v-35.5H-63v35.5
				c0,12.8-10.4,23.3-23.3,23.3h-58.2c-2,0-3.4,0.5-4.1,1L-148.7-1138.7L-148.7-1138.7z"/>
		</g>
		<g>
			<path class="st3" d="M-275.4-1285v11h-119.2c-10.6,0-19.2-8.6-19.2-19.2v-22.9h11v22.9c0,4.5,3.7,8.2,8.2,8.2H-275.4z"/>
		</g>
		<rect x="-424.9" y="-1316.1" class="st3" width="72.9" height="52"/>
		<rect x="-407.7" y="-1308.6" class="st3" width="16.5" height="16.5"/>
		<rect x="-385.3" y="-1308.6" class="st3" width="16.5" height="16.5"/>
	</g>
	<g class="st9">
		<g>
			<path class="st3" d="M969.6-1282.4c0,20.8-16.9,37.7-37.7,37.7h-72.7c-20.8,0-37.7-16.9-37.7-37.7l0,0
				c0-20.8,16.9-37.7,37.7-37.7h72.7C952.7-1320.2,969.6-1303.3,969.6-1282.4L969.6-1282.4z"/>
			<rect x="880" y="-1329.3" class="st3" width="33.9" height="5"/>
			<rect x="884.8" y="-1324.2" class="st3" width="24.1" height="9.1"/>
			<rect x="828.6" y="-1244.7" class="st3" width="133.8" height="5.7"/>
			<path class="st3" d="M828.7-1325.3v80.6v5.7v77H857v-163.2L828.7-1325.3L828.7-1325.3z M853.6-1322l-2.1,2.6l0,0l-8.7,10.9
				l-4.3-5.5l-6.4-8H853.6z M836.9-1188.6l-4.4-5.5h20.6l-5.1,6.5l-5.2,6.5L836.9-1188.6z M846.3-1173.8l6.8,8.6h-20.6l8.1-10.1
				l2.3-2.8L846.3-1173.8z M831.6-1198.8v-25.3l10.1,12.7L831.6-1198.8z M842.9-1210l10.1,12.7h-20.3L842.9-1210z M844-1211.4
				l10.1-12.7v25.4L844-1211.4z M842.9-1212.9l-10.5-13.2h21L842.9-1212.9z M832.7-1229.3l7.7-9.8l2.4-3l2.4,3l7.7,9.8H832.7z
				 M842.9-1244.9l-5.3-6.6l0,0l-5.3-6.6h21l-8.4,10.5L842.9-1244.9z M831.6-1262.6v-25.3l10.1,12.7L831.6-1262.6z M842.9-1273.8
				l10,12.6h-20L842.9-1273.8z M844-1275.3l10.1-12.7v25.4L844-1275.3z M842.9-1276.7l-10.6-13.4h21.3L842.9-1276.7z M833-1293.2
				l9.8-12.4l9.9,12.4H833z M831.6-1319.8l5.4,6.8l4.7,5.9l-10.1,12.7L831.6-1319.8L831.6-1319.8z M831.6-1256.1l6.3,7.9l2.7,3.5
				l1,1.3l-3.5,4.4l-6.6,8.2L831.6-1256.1L831.6-1256.1z M831.6-1192.3l2.8,3.6l7.2,9.1l-3,3.8l-7.1,8.9L831.6-1192.3L831.6-1192.3z
				 M854.1-1166.9l-4.8-6.1l-5.3-6.6l6.1-7.7l3.9-5L854.1-1166.9L854.1-1166.9z M854.1-1230.8l-6.6-8.3l-0.7-0.8l-2.9-3.6l1-1.3
				l1.7-2.1l7.4-9.3L854.1-1230.8L854.1-1230.8z M854.1-1294.4l-10.1-12.7l10.1-12.7V-1294.4z"/>
			<path class="st3" d="M934-1325.3v80.6v5.7v77h28.4v-82.7v-15.6v-65H934z M959-1322l-6.4,8l-4.3,5.5l-4.7-5.8l-4-5l-2.1-2.6
				L959-1322L959-1322z M957.1-1224l-7.5,9.4l-1.3,1.7l-1.3-1.7l-7.5-9.4l-1.7-2.1h20.9L957.1-1224z M948.2-1178.2l10.3,12.9h-20.6
				L948.2-1178.2z M937-1167v-25.4l10.1,12.7L937-1167z M949.4-1179.7l10.1-12.7v25.4L949.4-1179.7z M948.2-1181.1l-10.3-13h20.5
				L948.2-1181.1z M938.1-1197.3l10.1-12.7l10.1,12.7H938.1z M938.1-1229.3l7.7-9.8l2.4-3l2.4,3l7.7,9.8H938.1z M946.1-1247.5
				l-8.4-10.6h21l-5.2,6.5l0,0l-5.3,6.7L946.1-1247.5z M937-1302.1v-17.7l5.6,7.1l4.4,5.5l-6.7,8.4l-3.4,4.2v-7.5H937z M937-1287.9
				l10.1,12.7l-10.1,12.7V-1287.9z M948.3-1273.8l9.9,12.6h-20L948.3-1273.8z M949.4-1275.3l10.1-12.7v25.4L949.4-1275.3z
				 M948.2-1276.7l-10.6-13.4h21.2L948.2-1276.7z M938.4-1293.2l4-5l5.9-7.4l9,11.3l0.9,1.1H938.4z M937-1256.1l7.4,9.3l1.7,2.1
				l1,1.3l-3.5,4.4l-6.6,8.2L937-1256.1L937-1256.1z M937-1224.1l0.1,0.2l7.4,9.4l2.5,3.2l-10.1,12.7L937-1224.1L937-1224.1z
				 M959.4-1198.7l-10.1-12.7l2.5-3.2l7.5-9.5l0.1-0.1V-1198.7z M959.4-1239v8.3l-6.5-8.3l-3.5-4.4l1-1.3l9.1-11.4v11.4L959.4-1239z
				 M959.5-1294.4l-10.1-12.7l4.7-5.9l5.4-6.8L959.5-1294.4L959.5-1294.4z"/>
		</g>
	</g>
	<g class="st9">
		<g>
			<path class="st3" d="M1081.2-1452.4c0,20.8,16.7,37.7,37.3,37.7h71.8c20.6,0,37.3-16.9,37.3-37.7l0,0c0-20.8-16.7-37.7-37.3-37.7
				h-71.8C1097.9-1490.2,1081.2-1473.3,1081.2-1452.4L1081.2-1452.4z"/>
			<rect x="1136.3" y="-1499.3" class="st3" width="33.5" height="5"/>
			<rect x="1141.1" y="-1494.2" class="st3" width="23.8" height="9.1"/>
			<rect x="1088.3" y="-1414.7" class="st3" width="132.2" height="5.7"/>
			<path class="st3" d="M1220.5-1495.3v80.6v5.7v77h-28.1v-163.2L1220.5-1495.3L1220.5-1495.3z M1195.8-1492l2,2.6l0,0l8.6,10.9
				l4.3-5.5l6.3-8H1195.8z M1212.3-1358.6l4.3-5.5h-20.3l5.1,6.5l5.1,6.5L1212.3-1358.6z M1203-1343.8l-6.7,8.6h20.4l-8-10.1
				l-2.2-2.8L1203-1343.8z M1217.6-1368.8v-25.3l-10,12.7L1217.6-1368.8z M1206.5-1380l-10,12.7h20L1206.5-1380z M1205.3-1381.4
				l-10-12.7v25.4L1205.3-1381.4z M1206.5-1382.9l10.4-13.2h-20.7L1206.5-1382.9z M1216.5-1399.3l-7.6-9.8l-2.4-3l-2.4,3l-7.6,9.8
				H1216.5z M1206.5-1414.9l5.2-6.6l0,0l5.2-6.6h-20.7l8.3,10.5L1206.5-1414.9z M1217.6-1432.6v-25.3l-10,12.7L1217.6-1432.6z
				 M1206.5-1443.8l-9.9,12.6h19.7L1206.5-1443.8z M1205.3-1445.3l-10-12.7v25.4L1205.3-1445.3z M1206.5-1446.7l10.5-13.4h-21
				L1206.5-1446.7z M1216.2-1463.2l-9.7-12.4l-9.8,12.4H1216.2z M1217.6-1489.8l-5.3,6.8l-4.6,5.9l10,12.7L1217.6-1489.8
				L1217.6-1489.8z M1217.6-1426.1l-6.3,7.9l-2.7,3.5l-1,1.3l3.5,4.4l6.5,8.2V-1426.1z M1217.6-1362.3l-2.8,3.6l-7.2,9.1l3,3.8
				l7,8.9V-1362.3z M1195.4-1336.9l4.8-6.1l5.2-6.6l-6.1-7.7l-3.9-5V-1336.9z M1195.4-1400.8l6.5-8.3l0.6-0.8l2.8-3.6l-1-1.3
				l-1.7-2.1l-7.3-9.3L1195.4-1400.8L1195.4-1400.8z M1195.3-1464.4l10-12.7l-10-12.7V-1464.4z"/>
			<path class="st3" d="M1116.4-1495.3v80.6v5.7v77h-28.1v-82.7v-15.6v-65H1116.4z M1091.7-1492l6.3,8l4.3,5.5l4.6-5.8l4-5l2.1-2.6
				L1091.7-1492L1091.7-1492z M1093.6-1394l7.4,9.4l1.3,1.7l1.3-1.7l7.4-9.4l1.6-2.1H1092L1093.6-1394z M1102.3-1348.2l-10.2,12.9
				h20.3L1102.3-1348.2z M1113.4-1337v-25.4l-10,12.7L1113.4-1337z M1101.2-1349.6l-10-12.7v25.4L1101.2-1349.6z M1102.3-1351.1
				l10.2-13h-20.3L1102.3-1351.1z M1112.3-1367.3l-10-12.7l-10,12.7H1112.3z M1112.3-1399.3l-7.6-9.8l-2.4-3l-2.4,3l-7.6,9.8H1112.3
				z M1104.4-1417.5l8.3-10.6H1092l5.1,6.5l0,0l5.3,6.7L1104.4-1417.5z M1113.4-1472.1v-17.7l-5.6,7.1l-4.4,5.5l6.6,8.4l3.3,4.2
				L1113.4-1472.1L1113.4-1472.1z M1113.4-1457.9l-10,12.7l10,12.7V-1457.9z M1102.3-1443.8l-9.8,12.6h19.7L1102.3-1443.8z
				 M1101.2-1445.3l-10-12.7v25.4L1101.2-1445.3z M1102.3-1446.7l10.5-13.4h-21L1102.3-1446.7z M1112.1-1463.2l-4-5l-5.8-7.4
				l-8.9,11.3l-0.9,1.1H1112.1z M1113.4-1426.1l-7.3,9.3l-1.7,2.1l-1,1.3l3.5,4.4l6.5,8.2V-1426.1z M1113.4-1394.1l-0.1,0.2
				l-7.3,9.4l-2.5,3.2l10,12.7L1113.4-1394.1L1113.4-1394.1z M1091.3-1368.7l10-12.7l-2.5-3.2l-7.4-9.5l-0.1-0.1V-1368.7z
				 M1091.3-1409v8.3l6.4-8.3l3.5-4.4l-1-1.3l-9-11.4v11.4L1091.3-1409z M1091.2-1464.4l10-12.7l-4.6-5.9l-5.4-6.8V-1464.4z"/>
		</g>
		<g>
			<rect x="1668.6" y="-1711.6" class="st3" width="11" height="23.8"/>
			<rect x="1586.5" y="-1711.6" class="st3" width="11" height="23.8"/>
			<path class="st3" d="M1550.7-1738.5c0,15.9,11.7,29.1,26.9,31.1c1.4,0.2,2.8,0.3,4.2,0.3h102.5c1.4,0,2.8-0.1,4.2-0.3
				c1.5-0.2,3.1-0.5,4.5-0.9c1.7-0.5,3.4-1.2,5-2v-56.3c-2.9-1.5-6.1-2.5-9.5-2.9c-1.4-0.2-2.8-0.3-4.2-0.3h-102.5
				c-1.4,0-2.8,0.1-4.2,0.3c-6.9,0.9-13.1,4.2-17.7,8.9C1554.2-1755,1550.7-1747.2,1550.7-1738.5z"/>
			<path class="st3" d="M1583.9-1707.8c0,1.7-1.4,3.2-3.1,3.2l0,0c-1.7,0-3.1-1.4-3.1-3.2v-61.9c0-1.8,1.4-3.2,3.1-3.2l0,0
				c1.7,0,3.1,1.4,3.1,3.2V-1707.8z"/>
			<path class="st3" d="M1636.2-1707.8c0,1.7-1.4,3.2-3.1,3.2l0,0c-1.7,0-3.2-1.4-3.2-3.2v-61.9c0-1.8,1.4-3.2,3.2-3.2l0,0
				c1.7,0,3.1,1.4,3.1,3.2V-1707.8z"/>
			<path class="st3" d="M1688.5-1707.8c0,1.7-1.4,3.2-3.1,3.2l0,0c-1.7,0-3.2-1.4-3.2-3.2v-61.9c0-1.8,1.4-3.2,3.2-3.2l0,0
				c1.7,0,3.1,1.4,3.1,3.2V-1707.8z"/>
			<rect x="1693" y="-1738.8" class="st3" width="5" height="31.7"/>
		</g>
		<g>
			<path class="st3" d="M994.5-1251.1v131.8h37v-131.8c0-12.1,4.7-23.5,13.2-32.1s19.8-13.4,31.6-13.4h0.1l306.9,0.6h21.2l54.6,0.1
				h0.2c21.8,0,42.3-8.6,57.8-24.3c15.5-15.7,24.1-36.5,24.1-58.5v-226.5c0-25.1,20.1-45.5,45-45.5h112v-37.5h-112
				c-45.2,0-82,37.2-82,83v226.5c0,12-4.7,23.4-13.2,32.1c-8.5,8.5-19.7,13.3-31.6,13.3c-0.1,0-0.1,0-0.1,0l-54.6-0.1h-21.2
				l-122.4-0.2h-19.7l-20.7-0.1h-28.1l-76.1-0.2h-28.1h-11.8h-0.2c-21.8,0-42.3,8.6-57.8,24.3
				C1003.1-1294,994.5-1273.2,994.5-1251.1z"/>
		</g>
		<g>
			<path class="st3" d="M1002.4-1152.1c0,5.9,4.8,10.7,10.6,10.7h343.9c26.2,0,47.6-21.6,47.6-48.2v-143.9l-21.2-0.1v143.9
				c0,14.7-11.9,26.8-26.5,26.8H1013C1007.2-1162.8,1002.4-1158,1002.4-1152.1z"/>
		</g>
		<g>
			<rect x="1200.4" y="-1168.5" class="st3" width="66.6" height="32.7"/>
			<path class="st3" d="M1210.8-1153.8c0,12.6,10.3,22.9,22.9,22.9c12.7,0,22.9-10.2,22.9-22.9c0-12.6-10.3-22.9-22.9-22.9
				C1221.1-1176.7,1210.8-1166.5,1210.8-1153.8z"/>
			<rect x="1222.3" y="-1179.6" class="st3" width="22.7" height="11.1"/>
			<path class="st3" d="M1215.3-1186.5c0,1.7,1.4,3.1,3.1,3.1h30.9c1.7,0,3.1-1.4,3.1-3.1l0,0c0-1.7-1.4-3.1-3.1-3.1h-30.9
				C1216.7-1189.6,1215.3-1188.2,1215.3-1186.5L1215.3-1186.5z"/>
			<path class="st3" d="M1230-1178.7c0,2.1,1.7,3.8,3.8,3.8l0,0c2.1,0,3.8-1.7,3.8-3.8v-10.3c0-2.1-1.7-3.8-3.8-3.8l0,0
				c-2.1,0-3.8,1.7-3.8,3.8V-1178.7z"/>
		</g>
		<g class="st8">
			<path class="st3" d="M1559.8-1441.2c0,5.8,4.8,10.7,10.6,10.7h58.2c26.2,0,47.6-21.6,47.6-48.2v-117.8
				c0-14.8,11.9-26.8,26.5-26.8h25.4v227.8c0,8.6-5.4,16.1-11.4,16.1c-17.9,0-32.5,16.8-32.5,37.5v36.5h21.1v-36.5
				c0-8.6,5.3-16.1,11.4-16.1c5.4,0,10.5-1.5,15-4.2v-282.4h-29c-26.2,0-47.6,21.6-47.6,48.2v117.8c0,14.8-11.9,26.8-26.5,26.8
				h-58.2C1564.6-1451.9,1559.8-1447.1,1559.8-1441.2z"/>
		</g>
		<g>
			<polygon class="st3" points="1063.3,-1219.2 1066.2,-1216.3 1088.7,-1214 1094,-1216.3 1094,-1219.2 1088.8,-1221.3 			"/>
			<polygon class="st3" points="1108,-1190 1109,-1194 1099.7,-1214.9 1095.1,-1218.3 1092.6,-1216.9 1093.4,-1211.2 			"/>
			<polygon class="st3" points="1110.6,-1243.7 1106.7,-1242.6 1093.4,-1224.1 1092.8,-1218.3 1095.3,-1216.9 1099.7,-1220.4 			"/>
			<path class="st3" d="M1094-1213.6c2.2,0,4-1.8,4-4s-1.8-4-4-4s-4,1.8-4,4S1091.8-1213.6,1094-1213.6z"/>
			<ellipse class="st3" cx="1094" cy="-1217.6" rx="2.1" ry="2.1"/>
		</g>
		<path class="st3" d="M1057.2-1220.2c0.5-7.7,3.4-14.8,7.9-20.5c3.3-4.2,7.4-7.6,12.2-10c4.3-2.2,9-3.5,14.1-3.8
			c0.7,0,1.5-0.1,2.3-0.1c5.3,0,10.3,1.1,14.9,3.2c3.2,1.4,6.1,3.3,8.7,5.6l0,0c5,4.3,8.8,9.9,10.9,16.2c0.6,1.8,1.1,3.7,1.4,5.6
			c0.2,1.2,0.4,2.5,0.5,3.8c0,0.8,0.1,1.6,0.1,2.4v55.3h-72.9v-55.3C1057.2-1218.6,1057.2-1219.4,1057.2-1220.2z M1065.1-1201.8
			c2.9,5.2,7.1,9.6,12.2,12.6c1.2,0.7,2.5,1.3,3.7,1.9c1.5,0.6,3.2,1.2,4.8,1.6l0,0c2.5,0.6,5.1,0.9,7.7,0.9c2.8,0,5.4-0.4,8-1
			c3.6-0.9,7-2.5,10-4.5c2-1.3,3.9-2.9,5.6-4.7c2-2.1,3.7-4.4,5-7c1-1.8,1.8-3.7,2.4-5.6c0.2-0.5,0.3-0.9,0.4-1.4
			c0.5-1.9,0.9-3.9,1-5.9c0.1-0.9,0.1-1.8,0.1-2.7c0-0.8,0-1.6-0.1-2.4c-0.1-1.3-0.3-2.5-0.5-3.8c-0.4-1.9-0.9-3.8-1.5-5.6
			c-1.5-4-3.9-7.7-6.8-10.8c-1.7-1.8-3.5-3.4-5.6-4.8c-0.3-0.2-0.6-0.5-1-0.7c-5-3.1-10.8-4.9-17-4.9c-6,0-11.5,1.6-16.3,4.5
			c-5.1,3-9.3,7.3-12.2,12.6c-2.2,4-3.6,8.6-4,13.5c-0.1,0.8-0.1,1.6-0.1,2.4c0,0.9,0,1.8,0.1,2.7
			C1061.5-1210.3,1062.9-1205.8,1065.1-1201.8z"/>
		<g>
			<rect x="1478.6" y="-1483.8" class="st3" width="33" height="12.7"/>
			<path class="st3" d="M1437.5-1477.5c0,14.2,11.3,25.7,25.2,25.7c14,0,25.4-11.5,25.4-25.7c0-7.2-2.7-13.5-7.6-18.1
				c-4.4-4.7-10.8-7.7-17.9-7.7C1448.8-1503.2,1437.5-1491.8,1437.5-1477.5z"/>
			<path class="st3" d="M1442.8-1477.5c0,11.2,9,20.2,19.8,20.2c11,0,20-9,20-20.2c0-5.8-2.2-10.7-6-14.3l-14,14.3v-20.3
				C1451.8-1497.8,1442.8-1488.7,1442.8-1477.5z"/>
		</g>
		<g>
			<path class="st3" d="M1404.5-1244.6v21.4h230.1c20.4,0,37-16.8,37-37.5v-44.8h-21.2v44.8c0,8.8-7.1,16.1-15.9,16.1H1404.5z"/>
		</g>
		<rect x="1586" y="-1305.4" class="st3" width="140.7" height="101.5"/>
		<rect x="1628" y="-1290.6" class="st3" width="31.9" height="32.3"/>
	</g>
	<g class="st1">
		<g>
			<path class="st3" d="M798.9-648.2l2.2-5.8l-2.5-0.9c7.6-23.7-6.2-45.1-18.2-46.5v-3.7h-13.2v-4.6h7.1v-8.3h5.2v-19.6h-5.2v-7.3
				h-4.7v-6.3H732v6.3h-4.7v7.3h-5.2v19.6h5.2v8.3h7.1v4.6h-12.7v3.7c-12,1.4-25.8,22.8-18.2,46.5L701-654l2.2,5.8
				c-3,1.8-5,4.9-5,8.4c-0.1,5.8,5.1,10.7,11.7,10.8l-1.3-2c-4.6-2-7-4.4-6.9-8.7c0.1-3.4,2.7-5.8,6-6.5c0.3,0.3,0.7,0.6,1.1,0.7
				c2.2,1,4.8,0,5.8-2.2c0.2-0.4,0.3-0.9,0.4-1.3c2.2-1.2,4.7-1.5,6.8-0.6v8.4h4.1c-0.2,1.3-0.7,2.7-1.4,4.1l0.4,2.4
				c0.5-0.5,1-1,1.4-1.6l0,0v22.5h-3.5c-0.6,0-1,0.5-1,1v24.1c0,0.6,0.5,1,1,1h26.5c0.6,0,1-0.5,1-1v-24.1c0-0.6-0.5-1-1-1h-3.5
				v-27.5h10.7v27.5H753c-0.6,0-1,0.5-1,1v24.1c0,0.6,0.5,1,1,1h26.5c0.6,0,1-0.5,1-1v-24.1c0-0.6-0.5-1-1-1H776v-22.5
				c0,0,0,0,0.1,0.1c0.4,0.5,0.9,1,1.4,1.5l0.4-2.4c-0.7-1.5-1.2-2.9-1.4-4.1h4.1v-8.4c2.1-0.9,4.6-0.6,6.7,0.6
				c0.1,0.5,0.2,0.9,0.4,1.3c1,2.2,3.6,3.2,5.8,2.2c0.4-0.2,0.8-0.4,1.1-0.7l0,0c3.3,0.8,5.9,3.1,6,6.5c0.1,4.3-2.3,6.7-6.9,8.7
				l-1.3,2c6.6-0.2,11.9-5,11.7-10.8C803.9-643.3,801.9-646.3,798.9-648.2z M721.6-653.3c-1.5-0.4-3.1-0.5-4.7-0.2l-2.2-5.8
				l-1.1,0.4c-0.6-6.7,0.7-18.1,8-20.7V-653.3z M788.4-658.8l-1.1-0.4l-2.2,5.8c-1.6-0.3-3.2-0.2-4.7,0.2v-26.2
				C787.7-676.9,789-665.5,788.4-658.8z"/>
			<path class="st3" d="M1003.5-648.2l2.2-5.8l-2.5-0.9c7.6-23.7-6.2-45.1-18.2-46.5v-3.7h-13.2v-4.6h7.1v-8.3h5.2v-19.6h-5.2v-7.3
				h-4.7v-6.3h-37.6v6.3h-4.7v7.3h-5.2v19.6h5.2v8.3h7.1v4.6h-12.7v3.7c-12,1.4-25.8,22.8-18.2,46.5l-2.5,0.9l2.2,5.8
				c-3,1.8-4.9,4.9-5,8.4c-0.1,5.8,5.1,10.7,11.7,10.8l-1.3-2c-4.6-2-7-4.4-6.9-8.7c0.1-3.4,2.7-5.8,6-6.5c0.3,0.3,0.7,0.6,1.1,0.7
				c2.2,1,4.8,0,5.8-2.2c0.2-0.4,0.3-0.9,0.4-1.3c2.2-1.2,4.7-1.5,6.8-0.6v8.4h4.1c-0.2,1.3-0.7,2.7-1.4,4.1l0.4,2.4
				c0.5-0.5,1-1,1.4-1.6l0,0v22.5h-3.5c-0.6,0-1,0.5-1,1v24.1c0,0.6,0.5,1,1,1h26.5c0.6,0,1-0.5,1-1v-24.1c0-0.6-0.5-1-1-1h-3.5
				v-27.5H961v27.5h-3.5c-0.6,0-1,0.5-1,1v24.1c0,0.6,0.5,1,1,1H984c0.6,0,1-0.5,1-1v-24.1c0-0.6-0.5-1-1-1h-3.5v-22.5
				c0,0,0,0,0.1,0.1c0.4,0.5,0.9,1,1.4,1.5l0.4-2.4c-0.7-1.5-1.2-2.9-1.4-4.1h4.1v-8.4c2.1-0.9,4.6-0.6,6.7,0.6
				c0.1,0.5,0.2,0.9,0.4,1.3c1,2.2,3.6,3.2,5.8,2.2c0.4-0.2,0.8-0.4,1.1-0.7l0,0c3.3,0.8,5.9,3.1,6,6.5c0.1,4.3-2.3,6.7-6.9,8.7
				l-1.3,2c6.6-0.2,11.9-5,11.7-10.8C1008.5-643.3,1006.5-646.3,1003.5-648.2z M926.3-653.3c-1.5-0.4-3.1-0.5-4.7-0.2l-2.2-5.8
				l-1.1,0.4c-0.6-6.7,0.7-18.1,8-20.7V-653.3z M993.1-658.8l-1.1-0.4l-2.2,5.8c-1.6-0.3-3.2-0.2-4.7,0.2v-26.2
				C992.3-676.9,993.7-665.5,993.1-658.8z"/>
			<path class="st3" d="M1208.2-648.2l2.2-5.8l-2.5-0.9c7.7-23.7-6.2-45.1-18.2-46.5v-3.7h-13.2v-4.6h7.1v-8.3h5.2v-19.6h-5.2v-7.3
				h-4.7v-6.3h-37.6v6.3h-4.7v7.3h-5.2v19.6h5.2v8.3h7.1v4.6H1131v3.7c-12,1.4-25.8,22.8-18.2,46.5l-2.5,0.9l2.2,5.8
				c-3,1.8-4.9,4.9-5,8.4c-0.1,5.8,5.1,10.7,11.7,10.8l-1.3-2c-4.6-2-7-4.4-6.9-8.7c0.1-3.4,2.7-5.8,6-6.5c0.3,0.3,0.7,0.6,1.1,0.7
				c2.2,1,4.8,0,5.8-2.2c0.2-0.4,0.3-0.9,0.4-1.3c2.2-1.2,4.7-1.5,6.8-0.6v8.4h4.1c-0.2,1.3-0.7,2.7-1.4,4.1l0.4,2.4
				c0.5-0.5,1-1,1.4-1.6l0,0v22.5h-3.5c-0.6,0-1,0.5-1,1v24.1c0,0.6,0.5,1,1,1h26.5c0.6,0,1-0.5,1-1v-24.1c0-0.6-0.5-1-1-1h-3.5
				v-27.5h10.7v27.5h-3.5c-0.6,0-1,0.5-1,1v24.1c0,0.6,0.5,1,1,1h26.5c0.6,0,1-0.5,1-1v-24.1c0-0.6-0.5-1-1-1h-3.5v-22.5
				c0,0,0,0,0.1,0.1c0.4,0.5,0.9,1,1.4,1.5l0.4-2.4c-0.7-1.5-1.2-2.9-1.4-4.1h4.1v-8.4c2.1-0.9,4.6-0.6,6.7,0.6
				c0.1,0.5,0.2,0.9,0.4,1.3c1,2.2,3.6,3.2,5.8,2.2c0.4-0.2,0.8-0.4,1.1-0.7l0,0c3.3,0.8,5.9,3.1,6,6.5c0.1,4.3-2.3,6.7-6.9,8.7
				l-1.3,2c6.6-0.2,11.9-5,11.7-10.8C1213.1-643.3,1211.2-646.3,1208.2-648.2z M1130.9-653.3c-1.5-0.4-3.1-0.5-4.7-0.2l-2.2-5.8
				l-1.1,0.4c-0.6-6.7,0.7-18.1,8-20.7L1130.9-653.3L1130.9-653.3z M1197.7-658.8l-1.1-0.4l-2.2,5.8c-1.6-0.3-3.2-0.2-4.7,0.2v-26.2
				C1197-676.9,1198.3-665.5,1197.7-658.8z"/>
			<path class="st3" d="M1412.8-648.2l2.2-5.8l-2.5-0.9c7.6-23.7-6.2-45.1-18.2-46.5v-3.7h-13.2v-4.6h7.1v-8.3h5.2v-19.6h-5.2v-7.3
				h-4.7v-6.3h-37.6v6.3h-4.7v7.3h-5.2v19.6h5.2v8.3h7.1v4.6h-12.7v3.7c-12,1.4-25.9,22.8-18.2,46.5l-2.5,0.9l2.2,5.8
				c-3,1.8-4.9,4.9-5,8.4c-0.1,5.8,5.1,10.7,11.7,10.8l-1.3-2c-4.6-2-7-4.4-6.9-8.7c0.1-3.4,2.7-5.8,6-6.5c0.3,0.3,0.7,0.6,1.1,0.7
				c2.2,1,4.8,0,5.8-2.2c0.2-0.4,0.3-0.9,0.4-1.3c2.2-1.2,4.7-1.5,6.8-0.6v8.4h4.1c-0.2,1.3-0.7,2.7-1.4,4.1l0.4,2.4
				c0.5-0.5,1-1,1.4-1.6l0,0v22.5h-3.5c-0.6,0-1,0.5-1,1v24.1c0,0.6,0.5,1,1,1h26.5c0.6,0,1-0.5,1-1v-24.1c0-0.6-0.5-1-1-1h-3.5
				v-27.5h10.7v27.5h-3.5c-0.6,0-1,0.5-1,1v24.1c0,0.6,0.5,1,1,1h26.5c0.6,0,1-0.5,1-1v-24.1c0-0.6-0.5-1-1-1h-3.5v-22.5
				c0,0,0,0,0.1,0.1c0.4,0.5,0.9,1,1.4,1.5l0.4-2.4c-0.7-1.5-1.2-2.9-1.4-4.1h4.1v-8.4c2.1-0.9,4.6-0.6,6.7,0.6
				c0.1,0.5,0.2,0.9,0.3,1.3c1,2.2,3.6,3.2,5.8,2.2c0.4-0.2,0.8-0.4,1.1-0.7l0,0c3.3,0.8,5.9,3.1,6,6.5c0.1,4.3-2.3,6.7-6.9,8.7
				l-1.3,2c6.6-0.2,11.9-5,11.7-10.8C1417.8-643.3,1415.8-646.3,1412.8-648.2z M1335.6-653.3c-1.5-0.4-3.1-0.5-4.7-0.2l-2.2-5.8
				l-1.1,0.4c-0.6-6.7,0.7-18.1,8-20.7L1335.6-653.3L1335.6-653.3z M1402.4-658.8l-1.1-0.4l-2.2,5.8c-1.6-0.3-3.2-0.2-4.7,0.2v-26.2
				C1401.6-676.9,1403-665.5,1402.4-658.8z"/>
			<rect x="569.1" y="-587.5" class="st3" width="1163.8" height="92.7"/>
		</g>
		<rect x="573.4" y="-1119.2" class="st3" width="1159.4" height="37.4"/>
		<path class="st3" d="M941-1075.9v7.6h-4.9c0,21.8-13.8,40.4-33.2,47.6c-8.9,15-27.8,38-33.4,49c-3.9,7.7-6.7,17.4-10.2,27.4
			c6.1,9.6,7,22.1,1.5,33c-0.5,0.9-1,1.8-1.6,2.7l19.9,68.4l5.2-1.8l6.2,17.3c10.4-1.5,20.7,1.6,27.6,9.4c11.6,13,9,34.2-5.7,47.4
			l-0.9-7.2c6.5-13.3,7.3-23.5-1.2-33.1c-6.8-7.7-17.4-7.8-26.3-3.2c-0.1,1.3-0.5,2.6-1.1,3.9c-3.1,6.5-10.9,9.2-17.3,6.2
			c-1.3-0.6-2.4-1.4-3.4-2.3c-9.8,2.1-17.9,8.8-18.4,19.1c-0.5,12.9,6.5,20.3,20,26.5l3.9,6.2c-19.7-0.9-35.1-15.7-34.3-33.1
			c0.4-10.4,6.5-19.4,15.5-24.7l-6.2-17.4l7.3-2.6L819.6-895c-1.3-0.5-2.6-1-3.8-1.7c-16.5-8.4-23.1-28.6-14.7-45.1
			c2.5-5,6.2-9.1,10.4-12.1c0,0,0,0,0-0.1c7.7-13.3,17.7-24.7,23.2-35.5c0.7-1.4,1.5-3,2.2-4.9c0.8-2.2,1.7-4.6,2.6-7.2
			c0.3-1,0.7-1.9,1-3c0.8-2.3,1.6-4.8,2.4-7.3c0.3-1,0.7-2,1-3.1c0.8-2.4,1.6-4.9,2.4-7.3c1.1-3.4,2.2-6.8,3.4-10.1
			c-9.4-9.2-15.1-22-15.1-36.1h-4.9v-7.6h6.3v-6.4h98.5v6.4h6.5L941-1075.9L941-1075.9z"/>
	</g>
	<path class="st10" d="M716.7-1164.9h-0.9v40.7h0.9H854v-40.7H716.7z M846-1160.6l-18.2,14.4l-18.2-14.4H846z M800.3-1160.6
		l-18.1,14.4l-18.2-14.5L800.3-1160.6z M754.7-1160.6l-18.1,14.4l-18.2-14.4H754.7z M716.2-1159l18.3,14.5l-18.3,14.5V-1159z
		 M718.4-1128.4l18.2-14.4l18.2,14.4H718.4z M757.5-1129.4l-18.9-15.1l18.9-15V-1129.4z M762.1-1158.8l18,14.4l-18,14.3V-1158.8z
		 M763.9-1128.4l18.3-14.5l18.2,14.5H763.9z M803.4-1129.2l-19.2-15.2l19.2-15.3V-1129.2z M808-1158.6l17.8,14.2l-17.8,14.1V-1158.6
		z M809.7-1128.4l18.2-14.5l18.2,14.5H809.7z M849.3-1129l-19.4-15.4l19.4-15.4V-1129z"/>
	<path class="st10" d="M854.9-1164.9H854v40.7h0.9h137v-40.7H854.9z M984-1160.6l-18.2,14.4l-18.2-14.4H984z M938.3-1160.6
		l-18.1,14.4l-18.2-14.5L938.3-1160.6z M892.7-1160.6l-18.1,14.4l-18.2-14.4H892.7z M854.2-1159l18.3,14.5l-18.3,14.5V-1159z
		 M856.4-1128.4l18.2-14.4l18.2,14.4H856.4z M895.5-1129.4l-18.9-15.1l18.9-15V-1129.4z M900.1-1158.8l18,14.4l-18,14.3V-1158.8z
		 M901.9-1128.4l18.3-14.5l18.2,14.5H901.9z M941.4-1129.2l-19.2-15.2l19.2-15.3V-1129.2z M946-1158.6l17.8,14.2l-17.8,14.1V-1158.6
		z M947.7-1128.4l18.2-14.5l18.2,14.5H947.7z M987.3-1129l-19.4-15.4l19.4-15.4V-1129z"/>
	<path class="st10" d="M1404-1164.9h-1v40.7h1h140.5v-40.7H1404z M1536.6-1160.6l-18.2,14.4l-18.2-14.4H1536.6z M1490.9-1160.6
		l-18.1,14.4l-18.2-14.5L1490.9-1160.6z M1445.3-1160.6l-18.1,14.4l-18.2-14.4H1445.3z M1406.8-1159l18.3,14.5l-18.3,14.5V-1159z
		 M1409-1128.4l18.2-14.4l18.2,14.4H1409z M1448.1-1129.4l-18.9-15.1l18.9-15V-1129.4z M1452.7-1158.8l18,14.4l-18,14.3V-1158.8z
		 M1454.5-1128.4l18.3-14.5l18.2,14.5H1454.5z M1494-1129.2l-19.2-15.2l19.2-15.3V-1129.2z M1498.6-1158.6l17.8,14.2l-17.8,14.1
		V-1158.6z M1500.3-1128.4l18.2-14.5l18.2,14.5H1500.3z M1539.9-1129l-19.4-15.4l19.4-15.4V-1129z"/>
	<path class="st10" d="M1545.5-1164.9h-0.9v40.7h0.9h137.3v-40.7H1545.5z M1674.8-1160.6l-18.2,14.4l-18.2-14.4H1674.8z
		 M1629.1-1160.6l-18.1,14.4l-18.2-14.5L1629.1-1160.6z M1583.5-1160.6l-18.1,14.4l-18.2-14.4H1583.5z M1545-1159l18.3,14.5
		L1545-1130V-1159z M1547.2-1128.4l18.2-14.4l18.2,14.4H1547.2z M1586.3-1129.4l-18.9-15.1l18.9-15V-1129.4z M1590.9-1158.8l18,14.4
		l-18,14.3V-1158.8z M1592.7-1128.4l18.3-14.5l18.2,14.5H1592.7z M1632.2-1129.2l-19.2-15.2l19.2-15.3V-1129.2z M1636.8-1158.6
		l17.8,14.2l-17.8,14.1V-1158.6z M1638.5-1128.4l18.2-14.5l18.2,14.5H1638.5z M1678.1-1129l-19.4-15.4l19.4-15.4V-1129z"/>
	<path class="st10" d="M1683.7-1164.9h-0.9v40.7h0.9h137v-40.7H1683.7z M1812.8-1160.6l-18.2,14.4l-18.2-14.4H1812.8z
		 M1767.1-1160.6l-18.1,14.4l-18.2-14.5L1767.1-1160.6z M1721.5-1160.6l-18.1,14.4l-18.2-14.4H1721.5z M1683-1159l18.3,14.5
		L1683-1130V-1159z M1685.2-1128.4l18.2-14.4l18.2,14.4H1685.2z M1724.3-1129.4l-18.9-15.1l18.9-15V-1129.4z M1728.9-1158.8l18,14.4
		l-18,14.3V-1158.8z M1730.7-1128.4l18.3-14.5l18.2,14.5H1730.7z M1770.2-1129.2l-19.2-15.2l19.2-15.3V-1129.2z M1774.8-1158.6
		l17.8,14.2l-17.8,14.1V-1158.6z M1776.5-1128.4l18.2-14.5l18.2,14.5H1776.5z M1816.1-1129l-19.4-15.4l19.4-15.4V-1129z"/>
	<g class="st9">
		<polygon class="st3" points="1310.1,-929.3 1305.9,-902.3 1287.5,-902.3 1283.4,-929.3 		"/>
		<path class="st3" d="M1309.3-874.7c-0.1,0.1-0.1,0.2-0.2,0.3c-2.9,3.8-7.9,7-12.9,7c-8.4,0-15.1-6.1-15.4-14.4
			c0-6.9,3-10.5,6-12.7s6-2.9,6-4.2v-3.5h7.7v6c0,1.3-0.4,2.4-1.1,3.3c-0.6,0.9-1.6,1.5-2.7,1.5c-4.6,0-8.2,3.7-8.2,8.2
			c0,4.6,3.7,8.2,8.2,8.2s8.2-3.7,8.2-8.2v-0.4c0-3,1-3.9,2.7-3.9C1309-887.6,1313.6-882.9,1309.3-874.7z"/>
		<g>
			<path class="st3" d="M1312.8-997.3l-2.3,11.7h4.9l2.8-13.8C1316.6-998.3,1314.8-997.6,1312.8-997.3z M1318.9-1007.1
				c-0.5-0.4-1.1-0.6-1.9-0.6h-40.7c-0.7,0-1.4,0.2-1.8,0.6c-0.5,0.4-0.7,0.8-0.6,1.3l1.3,6.5l2.8,13.8l11.3,56.3l4.3,21.4l0.6,3
				c0.2,0.8,1.2,1.5,2.4,1.5c1.2,0,2.3-0.6,2.4-1.5l0.6-3l4.3-21.4l11.3-56.3l2.8-13.8l1.3-6.5
				C1319.6-1006.3,1319.4-1006.8,1318.9-1007.1z M1310.5-985.6l-11.3,56.3l-2.4,11.9l-2.4-11.9l-11.3-56.3l-2.3-11.7l-1.4-7h35.1
				l-1.4,7L1310.5-985.6z"/>
		</g>
		<path class="st3" d="M1324.8-1011.4c0,7.9-6.4,14.3-14.3,14.3H1283c-7.9,0-14.3-6.4-14.3-14.3l0,0c0-7.9,6.4-14.3,14.3-14.3h27.5
			C1318.4-1025.7,1324.8-1019.3,1324.8-1011.4L1324.8-1011.4z"/>
		<polyline class="st3" points="1279.2,-1083.5 1279.2,-1011.4 1273.9,-1011.4 1273.9,-1083.5 		"/>
		<polyline class="st3" points="1318.3,-1083.5 1318.3,-1011.4 1313,-1011.4 1313,-1083.5 		"/>
	</g>
	<g class="st9">
		<polygon class="st3" points="-737.7,-171.8 -740.9,-150.9 -755.2,-150.9 -758.4,-171.8 		"/>
		<path class="st3" d="M-738.4-129.6c0,0.1-0.1,0.2-0.1,0.2c-2.2,2.9-6.1,5.4-10,5.4c-6.5,0-11.7-4.7-11.9-11.2
			c0-5.3,2.3-8.1,4.7-9.8c2.3-1.7,4.7-2.3,4.7-3.2v-2.7h5.9v4.6c0,1-0.3,1.9-0.9,2.6c-0.5,0.7-1.3,1.1-2.1,1.1
			c-3.5,0-6.4,2.8-6.4,6.3s2.8,6.4,6.4,6.4c3.5,0,6.3-2.8,6.3-6.4v-0.3c0-2.3,0.8-3,2.1-3C-738.6-139.6-735-135.9-738.4-129.6z"/>
		<g>
			<path class="st3" d="M-735.6-224.4l-1.8,9.1h3.8l2.1-10.6C-732.7-225.2-734.1-224.6-735.6-224.4z M-730.9-232
				c-0.4-0.3-0.9-0.5-1.4-0.5h-31.5c-0.5,0-1.1,0.2-1.4,0.5c-0.4,0.3-0.5,0.7-0.5,1l1,5l2.1,10.6l8.8,43.5l3.3,16.5l0.5,2.3
				c0.1,0.7,0.9,1.1,1.9,1.1s1.7-0.5,1.9-1.1l0.5-2.3l3.3-16.5l8.8-43.5l2.1-10.6l1-5C-730.4-231.3-730.5-231.7-730.9-232z
				 M-737.4-215.3l-8.8,43.5l-1.9,9.2l-1.9-9.2l-8.8-43.5l-1.8-9.1l-1.1-5.4h27.1l-1.1,5.4L-737.4-215.3z"/>
		</g>
		<path class="st3" d="M-726.3-235.3c0,6.1-5,11.1-11.1,11.1h-21.2c-6.1,0-11.1-5-11.1-11.1l0,0c0-6.1,5-11.1,11.1-11.1h21.2
			C-731.3-246.4-726.3-241.4-726.3-235.3L-726.3-235.3z"/>
		<polyline class="st3" points="-761.6,-291.1 -761.6,-235.3 -765.7,-235.3 -765.7,-291.1 		"/>
		<polyline class="st3" points="-731.4,-291.1 -731.4,-235.3 -735.5,-235.3 -735.5,-291.1 		"/>
	</g>
</g>
<g>
	<path class="st11" d="M104.3,23.2c-0.1,0-0.1,0-0.2,0v161.9c0.1,0,0.1,0,0.2,0c44.7,0,81-36.2,81-81S149,23.2,104.3,23.2z"/>
	<path class="st12" d="M23.4,104.2c0,44.6,36.1,80.8,80.7,81v-162C59.5,23.4,23.4,59.5,23.4,104.2z"/>
	<g>
		<path class="st13" d="M104.3,29.4c-0.1,0-0.1,0-0.2,0v0.1v-0.1C62.9,29.6,29.6,63,29.6,104.1s33.3,74.6,74.5,74.7v-0.1v0.1
			c0.1,0,0.1,0,0.2,0c41.2,0,74.7-33.4,74.7-74.7S145.6,29.4,104.3,29.4z"/>
		<path class="st14" d="M29.6,104.1c0-41.2,33.3-74.6,74.5-74.7V18.3C91.2,18.2,80.2,10.6,76.2,0c-9.2,2.5-18,6.2-26,10.9
			c4.7,10.4,2.2,23.6-6.9,32.8c-9.1,9.1-22.2,11.6-32.6,7C6,58.7,2.4,67.5,0,76.7c10.5,4.1,17.9,15.1,17.9,28
			c0,12.7-7.3,23.6-17.7,27.8c2.5,9.2,6.2,17.9,10.9,26c10.3-4.2,23.1-1.7,32,7.3c8.9,8.9,11.5,21.6,7.3,31.9
			c8.1,4.7,16.8,8.3,26.1,10.7c4.3-10.1,15-17.2,27.5-17.3v-12.3C62.9,178.7,29.6,145.3,29.6,104.1z"/>
		<path class="st15" d="M190.7,104.7c0-12.9,7.5-23.8,17.9-28c-2.4-9.2-6-18-10.7-26.1c-10.4,4.5-23.4,2.1-32.6-7
			c-9.2-9.2-11.6-22.4-6.9-32.8c-8.1-4.7-16.8-8.4-26-10.9c-4,10.7-15.1,18.3-28.1,18.3c-0.1,0-0.1,0-0.2,0v11.1c0.1,0,0.1,0,0.2,0
			c41.2,0,74.7,33.4,74.7,74.7s-33.4,74.7-74.7,74.7c-0.1,0-0.1,0-0.2,0V191c0.1,0,0.1,0,0.2,0c12.6,0,23.4,7.2,27.7,17.3
			c9.2-2.4,18-6.1,26.1-10.7c-4.1-10.2-1.6-22.9,7.3-31.9c9-9,21.8-11.5,32-7.3c4.7-8.1,8.4-16.8,10.9-26
			C198,128.3,190.7,117.4,190.7,104.7z"/>
	</g>
	<circle class="st16" cx="104.3" cy="104.2" r="64.9"/>
	<g>
		<circle class="st13" cx="104.3" cy="104.1" r="74.7"/>
	</g>
	<g>
		<path class="st17" d="M104.3,39.3c-35.8,0-64.9,29-64.9,64.9c0,12.3,3.4,23.8,9.4,33.7V77h42.5c3.6,0,6.6,1.3,9.2,3.8
			c2.5,2.5,3.8,5.6,3.8,9.2c0-3.6,1.3-6.6,3.8-9.2c2.5-2.5,5.6-3.8,9.2-3.8h42.3v12.3h-42.3c-0.4,0-0.7,0.2-0.7,0.7v28.6
			c0,0.4,0.2,0.7,0.7,0.7h42.5v12.3h-42.5c-3.6,0-6.6-1.3-9.2-3.8c-2.5-2.5-3.8-5.6-3.8-9.2c0,3.6-1.3,6.6-3.8,9.2
			c-2.5,2.5-5.6,3.8-9.2,3.8H61.2v21c11.5,10.2,26.6,16.4,43.1,16.4c35.8,0,64.9-29,64.9-64.9S140.1,39.3,104.3,39.3z"/>
		<path class="st17" d="M91.3,119.3c0.4,0,0.7-0.2,0.7-0.7V90c0-0.4-0.2-0.7-0.7-0.7H61.9c-0.4,0-0.7,0.2-0.7,0.7v28.6
			c0,0.4,0.2,0.7,0.7,0.7C61.9,119.3,91.3,119.3,91.3,119.3z"/>
	</g>
</g>
</svg>
