<?xml version="1.0" encoding="utf-8"?>
<!-- Generator: Adobe Illustrator 21.0.2, SVG Export Plug-In . SVG Version: 6.00 Build 0)  -->
<svg version="1.1" id="Layer_1" xmlns="http://www.w3.org/2000/svg" xmlns:xlink="http://www.w3.org/1999/xlink" x="0px" y="0px"
	 viewBox="0 0 45 55" style="enable-background:new 0 0 45 55;" xml:space="preserve">
<style type="text/css">
	.st0{fill:#E64A30;}
	.st1{fill:#D32C16;}
	.st2{fill:#594C50;}
	.st3{enable-background:new    ;}
	.st4{fill:#FFFFFF;}
	.st5{fill:#FFC825;}
</style>
<polygon class="st0" points="2,2.4 2,52.4 43,52.4 43,14.5 28.8,2.4 "/>
<polygon class="st1" points="30.5,4 30.5,14.5 41.9,14.5 "/>
<rect x="2" y="35.2" class="st2" width="41.3" height="17.2"/>
<g class="st3">
	<path class="st4" d="M15.2,44.5l1.7,0.5c-0.3,0.9-0.7,1.6-1.3,2.1s-1.4,0.7-2.3,0.7c-1.1,0-2.1-0.4-2.8-1.2s-1.1-1.8-1.1-3.2
		c0-1.4,0.4-2.5,1.1-3.3s1.7-1.2,2.9-1.2c1.1,0,1.9,0.3,2.6,0.9c0.4,0.4,0.7,0.9,0.9,1.6l-1.7,0.4c-0.1-0.4-0.3-0.8-0.6-1.1
		s-0.7-0.4-1.2-0.4c-0.6,0-1.2,0.2-1.5,0.7s-0.6,1.2-0.6,2.2c0,1.1,0.2,1.9,0.6,2.3s0.9,0.7,1.5,0.7c0.5,0,0.9-0.1,1.2-0.4
		S15.1,45.1,15.2,44.5z"/>
	<path class="st4" d="M18,43.4c0-0.9,0.1-1.6,0.4-2.2c0.2-0.4,0.5-0.8,0.8-1.2s0.7-0.6,1.1-0.8c0.5-0.2,1.2-0.3,1.9-0.3
		c1.3,0,2.3,0.4,3,1.2s1.1,1.9,1.1,3.3c0,1.4-0.4,2.5-1.1,3.3s-1.8,1.2-3,1.2c-1.3,0-2.3-0.4-3-1.2S18,44.8,18,43.4z M19.8,43.3
		c0,1,0.2,1.7,0.7,2.2s1,0.8,1.7,0.8s1.3-0.2,1.7-0.7s0.7-1.2,0.7-2.2c0-1-0.2-1.7-0.6-2.2s-1-0.7-1.7-0.7s-1.3,0.2-1.7,0.7
		S19.8,42.3,19.8,43.3z"/>
	<path class="st4" d="M31.7,44.5V43h3.7v3.4c-0.4,0.4-0.9,0.7-1.6,0.9s-1.4,0.4-2.1,0.4c-0.9,0-1.7-0.2-2.3-0.6s-1.2-0.9-1.5-1.6
		s-0.5-1.5-0.5-2.3c0-0.9,0.2-1.7,0.6-2.4s0.9-1.2,1.6-1.6c0.6-0.3,1.2-0.4,2.1-0.4c1.1,0,1.9,0.2,2.5,0.7s1,1.1,1.2,1.9l-1.7,0.3
		c-0.1-0.4-0.3-0.8-0.7-1s-0.8-0.4-1.3-0.4c-0.8,0-1.4,0.2-1.8,0.7s-0.7,1.2-0.7,2.1c0,1,0.2,1.8,0.7,2.3s1,0.8,1.8,0.8
		c0.4,0,0.7-0.1,1.1-0.2s0.7-0.3,0.9-0.5v-1.1H31.7z"/>
</g>
<rect x="4" y="30" class="st4" width="37" height="5.2"/>
<circle class="st4" cx="11.1" cy="11.7" r="4.3"/>
<polygon class="st4" points="14.3,19.1 20.1,25.1 25.8,31.1 14.3,31.1 2.8,31.1 8.6,25.1 "/>
<polygon class="st4" points="32.8,24 37.6,27.6 42.5,31.1 32.8,31.1 23,31.1 27.9,27.6 "/>
<path class="st5" d="M44.2,13.5L31.6,0.8C31.2,0.3,30.6,0,30,0c-0.1,0-0.2,0-0.3,0H2C0.9,0,0,0.9,0,2v51c0,1.1,0.9,2,2,2h41
	c1.1,0,2-0.9,2-2V15.4C45.1,14.6,44.8,13.9,44.2,13.5z M32,6.9l6.2,6.1H32V6.9z M41,51H4V4h24v10.7c-0.1,0.6,0.1,1.3,0.6,1.8l0,0
	l0,0c0.5,0.4,1.1,0.6,1.7,0.5H41V51z"/>
</svg>
