<?xml version="1.0" encoding="utf-8"?>
<!-- Generator: Adobe Illustrator 19.2.1, SVG Export Plug-In . SVG Version: 6.00 Build 0)  -->
<svg version="1.1" id="Layer_1" xmlns="http://www.w3.org/2000/svg" xmlns:xlink="http://www.w3.org/1999/xlink" x="0px" y="0px"
	 viewBox="0 0 299.4 491.7" style="enable-background:new 0 0 299.4 491.7;" xml:space="preserve">
<style type="text/css">
	.st0{opacity:0.35;}
	.st1{fill:url(#SVGID_1_);}
	.st2{fill:url(#SVGID_2_);}
	.st3{fill:url(#SVGID_3_);}
	.st4{fill:url(#SVGID_4_);}
	.st5{fill:url(#SVGID_5_);}
	.st6{fill:url(#SVGID_6_);}
	.st7{fill:url(#SVGID_7_);}
	.st8{fill:url(#SVGID_8_);}
	.st9{fill:url(#SVGID_9_);}
	.st10{fill:url(#SVGID_10_);}
	.st11{fill:url(#SVGID_11_);}
	.st12{fill:url(#SVGID_12_);}
	.st13{fill:url(#SVGID_13_);}
	.st14{fill:url(#SVGID_14_);}
	.st15{fill:url(#SVGID_15_);}
	.st16{fill:url(#SVGID_16_);}
	.st17{fill:url(#SVGID_17_);}
	.st18{fill:url(#SVGID_18_);}
	.st19{fill:url(#SVGID_19_);}
	.st20{fill:url(#SVGID_20_);}
	.st21{fill:url(#SVGID_21_);}
	.st22{fill:url(#SVGID_22_);}
	.st23{fill:url(#SVGID_23_);}
	.st24{fill:url(#SVGID_24_);}
	.st25{fill:url(#SVGID_25_);}
	.st26{fill:url(#SVGID_26_);}
	.st27{fill:url(#SVGID_27_);}
	.st28{fill:url(#SVGID_28_);}
	.st29{fill:url(#SVGID_29_);}
	.st30{fill:url(#SVGID_30_);}
	.st31{fill:url(#SVGID_31_);}
	.st32{fill:url(#SVGID_32_);}
	.st33{fill:url(#SVGID_33_);}
	.st34{fill:url(#SVGID_34_);}
	.st35{fill:url(#SVGID_35_);}
	.st36{fill:url(#SVGID_36_);}
	.st37{fill:url(#SVGID_37_);}
	.st38{fill:url(#SVGID_38_);}
	.st39{fill:url(#SVGID_39_);}
	.st40{fill:url(#SVGID_40_);}
	.st41{fill:url(#SVGID_41_);}
	.st42{fill:url(#SVGID_42_);}
	.st43{fill:url(#SVGID_43_);}
	.st44{fill:url(#SVGID_44_);}
	.st45{fill:url(#SVGID_45_);}
	.st46{fill:url(#SVGID_46_);}
	.st47{fill:url(#SVGID_47_);}
	.st48{fill:url(#SVGID_48_);}
	.st49{fill:url(#SVGID_49_);}
	.st50{fill:url(#SVGID_50_);}
	.st51{fill:url(#SVGID_51_);}
	.st52{fill:url(#SVGID_52_);}
	.st53{fill:url(#SVGID_53_);}
	.st54{fill:url(#SVGID_54_);}
	.st55{opacity:0.5;fill:url(#SVGID_55_);enable-background:new    ;}
	.st56{opacity:0.5;fill:url(#SVGID_56_);enable-background:new    ;}
	.st57{fill:none;stroke:url(#SVGID_57_);stroke-width:2;stroke-miterlimit:10;}
	.st58{fill:none;stroke:url(#SVGID_58_);stroke-width:2;stroke-miterlimit:10;}
	.st59{fill:none;stroke:url(#SVGID_59_);stroke-width:2;stroke-miterlimit:10;}
	.st60{fill:none;stroke:url(#SVGID_60_);stroke-width:2;stroke-miterlimit:10;}
	.st61{fill:none;stroke:url(#SVGID_61_);stroke-width:2;stroke-miterlimit:10;}
	.st62{fill:none;stroke:url(#SVGID_62_);stroke-width:2;stroke-miterlimit:10;}
	.st63{fill:none;stroke:url(#SVGID_63_);stroke-width:2;stroke-miterlimit:10;}
	.st64{fill:none;stroke:url(#SVGID_64_);stroke-width:2;stroke-miterlimit:10;}
	.st65{fill:none;stroke:url(#SVGID_65_);stroke-width:2;stroke-miterlimit:10;}
	.st66{fill:none;stroke:url(#SVGID_66_);stroke-width:2;stroke-miterlimit:10;}
	.st67{fill:none;stroke:url(#SVGID_67_);stroke-width:2;stroke-miterlimit:10;}
	.st68{fill:none;stroke:url(#SVGID_68_);stroke-width:2;stroke-miterlimit:10;}
	.st69{fill:none;stroke:url(#SVGID_69_);stroke-width:2;stroke-miterlimit:10;}
	.st70{fill:none;stroke:url(#SVGID_70_);stroke-width:2;stroke-miterlimit:10;}
	.st71{fill:none;stroke:url(#SVGID_71_);stroke-width:2;stroke-miterlimit:10;}
	.st72{fill:none;stroke:url(#SVGID_72_);stroke-width:2;stroke-miterlimit:10;}
	.st73{fill:none;stroke:url(#SVGID_73_);stroke-width:2;stroke-miterlimit:10;}
	.st74{fill:none;stroke:url(#SVGID_74_);stroke-width:2;stroke-miterlimit:10;}
	.st75{fill:none;stroke:url(#SVGID_75_);stroke-width:2;stroke-miterlimit:10;}
	.st76{fill:none;stroke:url(#SVGID_76_);stroke-width:2;stroke-miterlimit:10;}
	.st77{fill:none;stroke:url(#SVGID_77_);stroke-width:2;stroke-miterlimit:10;}
	.st78{fill:none;stroke:url(#SVGID_78_);stroke-width:2;stroke-miterlimit:10;}
	.st79{fill:none;stroke:url(#SVGID_79_);stroke-width:2;stroke-miterlimit:10;}
	.st80{fill:none;stroke:url(#SVGID_80_);stroke-width:2;stroke-miterlimit:10;}
	.st81{fill:none;stroke:url(#SVGID_81_);stroke-width:2;stroke-miterlimit:10;}
	.st82{fill:none;stroke:url(#SVGID_82_);stroke-width:2;stroke-miterlimit:10;}
	.st83{fill:none;stroke:url(#SVGID_83_);stroke-width:2;stroke-miterlimit:10;}
	.st84{fill:none;stroke:url(#SVGID_84_);stroke-width:2;stroke-miterlimit:10;}
	.st85{fill:none;stroke:url(#SVGID_85_);stroke-width:2;stroke-miterlimit:10;}
	.st86{fill:none;stroke:url(#SVGID_86_);stroke-width:2;stroke-miterlimit:10;}
	.st87{fill:none;stroke:url(#SVGID_87_);stroke-width:2;stroke-miterlimit:10;}
	.st88{fill:none;stroke:url(#SVGID_88_);stroke-width:2;stroke-miterlimit:10;}
	.st89{fill:none;stroke:url(#SVGID_89_);stroke-width:2;stroke-miterlimit:10;}
	.st90{fill:none;stroke:url(#SVGID_90_);stroke-width:2;stroke-miterlimit:10;}
	.st91{fill:none;stroke:url(#SVGID_91_);stroke-width:2;stroke-miterlimit:10;}
	.st92{fill:none;stroke:url(#SVGID_92_);stroke-width:2;stroke-miterlimit:10;}
	.st93{fill:none;stroke:url(#SVGID_93_);stroke-width:2;stroke-miterlimit:10;}
	.st94{fill:none;stroke:url(#SVGID_94_);stroke-width:2;stroke-miterlimit:10;}
	.st95{fill:none;stroke:url(#SVGID_95_);stroke-width:2;stroke-miterlimit:10;}
	.st96{fill:none;stroke:url(#SVGID_96_);stroke-width:2;stroke-miterlimit:10;}
	.st97{fill:none;stroke:url(#SVGID_97_);stroke-width:2;stroke-miterlimit:10;}
	.st98{fill:none;stroke:url(#SVGID_98_);stroke-width:2;stroke-miterlimit:10;}
	.st99{fill:none;stroke:url(#SVGID_99_);stroke-width:2;stroke-miterlimit:10;}
	.st100{fill:none;stroke:url(#SVGID_100_);stroke-width:2;stroke-miterlimit:10;}
	.st101{fill:none;stroke:url(#SVGID_101_);stroke-width:2;stroke-miterlimit:10;}
	.st102{fill:none;stroke:url(#SVGID_102_);stroke-width:2;stroke-miterlimit:10;}
	.st103{fill:none;stroke:url(#SVGID_103_);stroke-width:2;stroke-miterlimit:10;}
	.st104{fill:none;stroke:url(#SVGID_104_);stroke-width:2;stroke-miterlimit:10;}
	.st105{fill:none;stroke:url(#SVGID_105_);stroke-width:2;stroke-miterlimit:10;}
	.st106{fill:none;stroke:url(#SVGID_106_);stroke-width:2;stroke-miterlimit:10;}
	.st107{fill:none;stroke:url(#SVGID_107_);stroke-width:2;stroke-miterlimit:10;}
	.st108{fill:none;stroke:url(#SVGID_108_);stroke-width:2;stroke-miterlimit:10;}
	.st109{fill:none;stroke:url(#SVGID_109_);stroke-width:2;stroke-miterlimit:10;}
	.st110{fill:none;stroke:url(#SVGID_110_);stroke-width:2;stroke-miterlimit:10;}
	.st111{opacity:0.5;fill:none;stroke:url(#SVGID_111_);stroke-width:2;stroke-miterlimit:10;enable-background:new    ;}
	.st112{opacity:0.5;fill:none;stroke:url(#SVGID_112_);stroke-width:2;stroke-miterlimit:10;enable-background:new    ;}
</style>
<g class="st0">
	
		<linearGradient id="SVGID_1_" gradientUnits="userSpaceOnUse" x1="185.1078" y1="320.85" x2="185.4324" y2="320.85" gradientTransform="matrix(1 0 0 -1 0 494)">
		<stop  offset="0" style="stop-color:#91CFC1"/>
		<stop  offset="1" style="stop-color:#BAD1AD"/>
	</linearGradient>
	<polygon class="st1" points="185.1,174.7 185.1,174.9 185.4,171.6 185.4,171.4 	"/>
	
		<linearGradient id="SVGID_2_" gradientUnits="userSpaceOnUse" x1="50.2861" y1="213.2" x2="50.5131" y2="213.2" gradientTransform="matrix(1 0 0 -1 0 494)">
		<stop  offset="0" style="stop-color:#91CFC1"/>
		<stop  offset="1" style="stop-color:#BAD1AD"/>
	</linearGradient>
	<polygon class="st2" points="50.5,280.7 50.5,280.5 50.4,280.6 50.3,281.1 	"/>
	
		<linearGradient id="SVGID_3_" gradientUnits="userSpaceOnUse" x1="68.4173" y1="239.25" x2="70.1546" y2="239.25" gradientTransform="matrix(1 0 0 -1 0 494)">
		<stop  offset="0" style="stop-color:#91CFC1"/>
		<stop  offset="1" style="stop-color:#BAD1AD"/>
	</linearGradient>
	<polygon class="st3" points="68.4,254.6 70.1,254.9 70.2,254.9 	"/>
	
		<linearGradient id="SVGID_4_" gradientUnits="userSpaceOnUse" x1="48.0111" y1="252.5" x2="48.1767" y2="252.5" gradientTransform="matrix(1 0 0 -1 0 494)">
		<stop  offset="0" style="stop-color:#91CFC1"/>
		<stop  offset="1" style="stop-color:#BAD1AD"/>
	</linearGradient>
	<polygon class="st4" points="48,241.4 48.2,241.6 48.2,241.5 	"/>
	
		<linearGradient id="SVGID_5_" gradientUnits="userSpaceOnUse" x1="161.0192" y1="303.15" x2="161.1262" y2="303.15" gradientTransform="matrix(1 0 0 -1 0 494)">
		<stop  offset="0" style="stop-color:#91CFC1"/>
		<stop  offset="1" style="stop-color:#BAD1AD"/>
	</linearGradient>
	<path class="st5" d="M161.1,190.8l-0.1,0.1L161.1,190.8z"/>
	
		<linearGradient id="SVGID_6_" gradientUnits="userSpaceOnUse" x1="175.0476" y1="310.7" x2="177.4621" y2="310.7" gradientTransform="matrix(1 0 0 -1 0 494)">
		<stop  offset="0" style="stop-color:#91CFC1"/>
		<stop  offset="1" style="stop-color:#BAD1AD"/>
	</linearGradient>
	<polygon class="st6" points="175,184.1 175.2,184 177.5,182.5 177.3,182.6 	"/>
	
		<linearGradient id="SVGID_7_" gradientUnits="userSpaceOnUse" x1="182.6672" y1="302.4" x2="186.5206" y2="302.4" gradientTransform="matrix(1 0 0 -1 0 494)">
		<stop  offset="0" style="stop-color:#91CFC1"/>
		<stop  offset="1" style="stop-color:#BAD1AD"/>
	</linearGradient>
	<polygon class="st7" points="182.7,193.2 186.5,190.1 186.5,190 	"/>
	
		<linearGradient id="SVGID_8_" gradientUnits="userSpaceOnUse" x1="193.4806" y1="319.35" x2="193.9693" y2="319.35" gradientTransform="matrix(1 0 0 -1 0 494)">
		<stop  offset="0" style="stop-color:#91CFC1"/>
		<stop  offset="1" style="stop-color:#BAD1AD"/>
	</linearGradient>
	<polygon class="st8" points="193.5,177.2 193.6,176.2 194,172.2 194,172.1 193.5,177 	"/>
	
		<linearGradient id="SVGID_9_" gradientUnits="userSpaceOnUse" x1="178.1" y1="316.3" x2="178.1" y2="316.3" gradientTransform="matrix(1 0 0 -1 0 494)">
		<stop  offset="0" style="stop-color:#91CFC1"/>
		<stop  offset="1" style="stop-color:#BAD1AD"/>
	</linearGradient>
	<polygon class="st9" points="178.1,177.9 178.1,177.9 178.1,177.5 	"/>
	
		<linearGradient id="SVGID_10_" gradientUnits="userSpaceOnUse" x1="153.1456" y1="322.55" x2="185.4456" y2="322.55" gradientTransform="matrix(1 0 0 -1 0 494)">
		<stop  offset="0" style="stop-color:#91CFC1"/>
		<stop  offset="1" style="stop-color:#BAD1AD"/>
	</linearGradient>
	<polygon class="st10" points="185.1,168.1 184.1,165 182.6,162.1 180.5,159.5 177.9,157.4 175,155.9 171.8,154.9 168.5,154.6 
		165.2,154.9 162.1,155.9 159.2,157.4 156.6,159.5 154.5,162.1 153.1,164.6 153.8,164.2 155.9,163.1 157,162.5 159.6,161.1 
		161.4,160.2 162.5,159.7 162.8,159.5 165.3,158.6 168,158.1 167.7,158.2 170.3,158.3 170.6,158.1 173.3,158.7 175.7,159.8 
		177.9,161.3 179.8,163.2 181.2,165.5 182.2,168 182.7,170.7 182.6,173.3 182,176 181,178.5 179.4,180.7 177.5,182.5 175.2,184 
		175,184.1 173.9,184.6 172.8,185.2 172.1,185.5 169.6,186.8 167.2,188.1 168.5,188.3 171.8,187.9 175,187 177.9,185.4 180.5,183.3 
		182.6,180.8 184.1,177.9 185.1,174.7 185.4,171.4 	"/>
	
		<linearGradient id="SVGID_11_" gradientUnits="userSpaceOnUse" x1="155.8579" y1="322.35" x2="182.6579" y2="322.35" gradientTransform="matrix(1 0 0 -1 0 494)">
		<stop  offset="0" style="stop-color:#91CFC1"/>
		<stop  offset="1" style="stop-color:#BAD1AD"/>
	</linearGradient>
	<polygon class="st11" points="175,184.1 177.3,182.6 177.5,182.5 179.4,180.7 181,178.5 182,176 182.6,173.3 182.7,170.7 
		182.2,168 181.2,165.5 179.8,163.2 177.9,161.3 175.7,159.8 173.3,158.7 170.6,158.1 170.3,158.3 167.7,158.2 168,158.1 
		165.3,158.6 162.8,159.5 162.5,159.7 161.4,160.2 159.6,161.1 157,162.5 155.9,163.1 158.2,162.2 160.7,161.7 163.5,161.8 
		164.3,161.9 166.2,162.3 168.8,163.3 171.2,164.7 173.4,166.4 175.3,168.5 176.7,170.7 177.7,173.1 178.2,175.5 178.1,177.5 
		178.1,177.9 177.4,180.2 176.3,182.2 174.7,183.9 172.8,185.2 173.9,184.6 	"/>
	
		<linearGradient id="SVGID_12_" gradientUnits="userSpaceOnUse" x1="113.7" y1="302.35" x2="161.1" y2="302.35" gradientTransform="matrix(1 0 0 -1 0 494)">
		<stop  offset="0" style="stop-color:#91CFC1"/>
		<stop  offset="1" style="stop-color:#BAD1AD"/>
	</linearGradient>
	<polygon class="st12" points="115.5,194 117.1,194.5 119,195.3 121.3,196.2 123.7,197.3 125.8,198.2 126.1,198.6 126.3,198.5 
		129,199.7 131.6,201 134,202.3 136.1,203.4 137.9,204.4 139.2,205.3 140.1,206 140.5,206.4 140.3,206.6 141.6,205.5 143.4,204.1 
		146.4,201.7 150.5,198.7 151.1,198.3 155.5,195.3 155.9,195 156.8,194.4 157.1,194.2 157.8,193.8 158.8,193.1 159.6,192.6 
		159.9,192.4 160,192.4 160.8,191.7 161,190.9 161.1,190.8 160.8,189.6 160,188.3 158.7,186.8 156.9,185.2 154.8,183.6 152.3,182 
		152,181.8 149.6,180.6 146.8,179.3 144,178.3 141.4,177.5 138.9,176.9 137.9,176.8 136.7,176.7 134.9,176.8 133.6,177.2 
		131.3,178.9 130.1,179.8 124.3,184.3 119.2,188.7 118.4,189.3 113.7,193.7 114.4,193.7 	"/>
	
		<linearGradient id="SVGID_13_" gradientUnits="userSpaceOnUse" x1="96.8" y1="285.15" x2="140.5" y2="285.15" gradientTransform="matrix(1 0 0 -1 0 494)">
		<stop  offset="0" style="stop-color:#91CFC1"/>
		<stop  offset="1" style="stop-color:#BAD1AD"/>
	</linearGradient>
	<polygon class="st13" points="97.8,212.7 98.9,213.5 100.5,214.4 102.5,215.5 104.7,216.7 107.1,217.9 109.6,219.1 112.1,220.3 
		112.1,220.2 112.3,220.4 114.5,221.3 116.7,222.3 118.7,223 120.2,223.6 121.4,223.9 122.1,224 122.4,223.9 126.3,219.6 
		131.5,214.4 131.6,214.3 136.6,209.8 140.3,206.6 140.5,206.4 140.1,206 139.2,205.3 137.9,204.4 136.1,203.4 134,202.3 131.6,201 
		129,199.7 126.3,198.5 126.1,198.6 125.8,198.2 123.7,197.3 121.3,196.2 119,195.3 117.1,194.5 115.5,194 114.4,193.7 113.7,193.7 
		112.4,194.8 108.5,198.7 107.5,199.8 106.4,200.8 100.5,207.3 97.5,210.9 96.8,211.8 97,212.1 	"/>
	
		<linearGradient id="SVGID_14_" gradientUnits="userSpaceOnUse" x1="80.3512" y1="259.15" x2="113.9418" y2="259.15" gradientTransform="matrix(1 0 0 -1 0 494)">
		<stop  offset="0" style="stop-color:#91CFC1"/>
		<stop  offset="1" style="stop-color:#BAD1AD"/>
	</linearGradient>
	<polygon class="st14" points="80.9,236.6 81.9,237.6 83.2,238.8 85,240 87.1,241.2 89.3,242.5 91.7,243.7 94.2,244.8 96.6,245.7 
		98.8,246.5 100.8,247.1 102.5,247.4 103.9,247.5 104.8,247.4 105.2,247 106.7,244.5 111.3,237.6 111.4,237.6 113.9,234.2 
		113.6,234.5 112.7,234.5 111.5,234.3 109.8,233.9 107.8,233.2 105.6,232.4 103.2,231.3 100.7,230.2 98.3,229 95.9,227.8 
		93.8,226.6 92,225.4 90.5,224.3 89.4,223.4 89,223 88.8,222.7 88.7,222.2 88.6,222.4 85.7,226.6 83.4,230.1 81.5,233.3 80.4,235.2 
		80.4,235.8 	"/>
	
		<linearGradient id="SVGID_15_" gradientUnits="userSpaceOnUse" x1="38.7" y1="304.15" x2="298.2948" y2="304.15" gradientTransform="matrix(1 0 0 -1 0 494)">
		<stop  offset="0" style="stop-color:#91CFC1"/>
		<stop  offset="1" style="stop-color:#BAD1AD"/>
	</linearGradient>
	<path class="st15" d="M43.9,216.1h3h1l0.2-2.7l1.2-4.4l0.8-0.6l1.3-0.8l2.8,1.5l1.6,2.2l2,2.2l4.2,7.1l2.1,4.7l0.8,1.4l2.5,3.4
		l3.7,5.8l4.1,5.8L76,243l0.1-0.1l2.1-4.1l0.4-0.6l1.7-2.9l1.1-1.9l2-3.3l2.3-3.4l2.9-4.3l0.1-0.2l0.2-0.3l5.7-7.6l2.2-2.6l0.8-0.9
		l2.9-3.5l6-6.5l1-1l1.1-1.1l3.9-3.9l1.3-1.2l4.7-4.3l0.8-0.7l5.1-4.3l5.7-4.5l1.3-0.9l2.3-1.7l2-1.4l5.2-3.6l2.5-1.6l0.3-3.4
		l0.1-0.4l1.3-4.3l1.8-3.3l0.6-1.1l3.2-3.8l3.9-3.2l1.9-1l2.5-1.3l4.8-1.4l5-0.5l0,0l4.9,0.5l4.8,1.4l2.5,1.4l1.9,1l3.9,3.2l3.2,3.8
		l0.6,1.1l1.8,3.3l1.4,4.6v0.1l0.5,4.9v0.1l-0.4,4l-0.1,1l-1.4,4.7l-2.3,4.4l-3.2,3.8l-3.9,3.1l-0.7,0.4l-0.7,0.4l-3,1.6l-4.8,1.4
		l-4.9,0.4l0,0l-4.9-0.4l-4.8-1.4l-2-1.1l-0.9,0.6l-0.4,0.3l-4.4,3l-0.6,0.4l-4,3l-3,2.4l-1.9,1.5l-1.2,1L137,210l-5,4.6l-0.1,0.1
		l-5.1,5.1l-4,4.3l-1.1,1.2l-0.7,0.9l-0.6,0.7l-3.7,4.5l-2.1,2.8l-0.2,0.2l-2.6,3.4v0.1l-4.6,6.9l-1.5,2.5l-1,1.7h9h10.2H135h11.1
		h11.5h11.5h11.5h11.5h11.1h11.1h10.2h10.2h8.9h8.9h7.3h7.3h5.5h5.5h3.4h3.4h1.1h1.1l7.4-22.1l4.4-27.9l-3-39.6l-4.6-20.1l-0.6-0.1
		l-1.8-0.1h-1.2l-0.5-0.1l-1.3-0.4l-4.2-0.8L276,137l-2.3-0.2l-4-0.7l-7.3-1l-8.1-0.8l-8.9-0.7l-6.7-0.3l-2.9-0.3l-10.3-0.8
		l-10.8-0.7l-11.2-0.5l-11.5-0.3h-4.7l-0.9,1.5l-2.7,3.2l-3.2,2.6l-0.1,0.1l-3.8,2l-4.1,1.2l-4,0.4h-0.2l-4.2-0.4L160,140l-3.4-1.8
		l-0.3-0.2l-3.3-2.6l-2.7-3.2l-0.8-1.5h-4.4l-11.5,0.3l-11.2,0.5l-10.8,0.7l-10.3,0.8l-2.9,0.3l-6.7,0.3l-8.9,0.7l-8.1,0.8l-7.3,1
		l-4,0.7l-2.3,0.2l-5.2,0.6l-4.2,0.8l-1.3,0.4l-0.5,0.1h-1.2l-1.8,0.1l-0.6,0.1l-4.6,20.1l-3,39.6l2.7,17.4H42h1.9V216.1z
		 M284.4,151.9l0.5-2.5l0.8-1.9l1.1-1.2l0.4-0.1l0.7-0.3l1.1,0.4l1.2,1.2l0.4,0.6l0.7,1.3l1,2.5l1.1,3.1l1.1,3.5l0.2,0.6l0.4,3.2
		l0.4,4l2.5,32.5l-3,19.3l-0.7,4l-0.8,3.8l-0.2,0.8l-1.1,2.7l-1.4,3.1l-1.3,2.5l-0.7,1.1l-0.6,0.8l-1.4,1.2h-0.1l-1.2,0.4l-0.6-0.2
		l-0.5-0.2l-0.6-1l-0.1-0.1l-0.6-1.9l-0.2-2.3v-0.2v-3.1l0.3-2.7l-0.1-0.8l0.1-3.8l0.5-4l3.3-19.3l-2.7-32.5l-0.1-4l0.2-3.2
		l-0.1-0.6v-3.5l0.3-2.5L284.4,151.9z"/>
	
		<linearGradient id="SVGID_16_" gradientUnits="userSpaceOnUse" x1="46.4" y1="364.3" x2="149.5" y2="364.3" gradientTransform="matrix(1 0 0 -1 0 494)">
		<stop  offset="0" style="stop-color:#91CFC1"/>
		<stop  offset="1" style="stop-color:#BAD1AD"/>
	</linearGradient>
	<polygon class="st16" points="48.7,138.8 49.9,138.8 50.5,138.7 51.8,138.4 56,137.6 61.2,137 63.5,136.8 67.5,136.1 74.8,135.1 
		82.9,134.2 91.8,133.6 98.6,133.2 101.4,132.9 111.7,132.1 122.5,131.4 133.6,131 145.1,130.7 149.5,130.7 148.4,128.5 
		147.2,124.6 146.8,122.8 146.6,120.4 145.6,120.4 134.3,120.6 133.7,120.6 123.4,121.1 119.4,121.3 112.8,121.7 110,121.9 
		108.5,122.1 102.8,122.5 101.9,122.6 99.9,122.8 99.6,122.9 93.3,123.2 84.6,123.8 76.6,124.6 69.5,125.6 65.6,126.3 63.3,126.5 
		58.2,127.1 54.1,127.9 52.3,128.4 51.1,128.4 49.3,128.6 48.6,129 46.4,139 47,138.9 	"/>
	
		<linearGradient id="SVGID_17_" gradientUnits="userSpaceOnUse" x1="47.9315" y1="265.85" x2="76.0814" y2="265.85" gradientTransform="matrix(1 0 0 -1 0 494)">
		<stop  offset="0" style="stop-color:#91CFC1"/>
		<stop  offset="1" style="stop-color:#BAD1AD"/>
	</linearGradient>
	<polygon class="st17" points="62.9,232.8 63.1,234.9 63,235.6 63,236.7 62.6,238.2 62,239.3 62,239.4 61,240 61,240 59.9,240.3 
		58.9,240.3 56.9,240.3 55.4,240.3 53.3,240.3 51.5,240.3 51.9,241.7 54.2,248.7 56.2,248.7 59.6,248.7 65,248.7 70.5,248.7 
		73.1,248.7 73.6,247.8 76.1,242.9 75.3,241.7 71.1,235.9 67.4,230 64.8,226.6 64.1,225.2 62,220.5 57.8,213.4 55.8,211.2 54.2,209 
		51.4,207.6 50.1,208.4 49.3,209 48.1,213.4 47.9,216.1 51.2,216.1 52.9,216.1 54,216.4 55.2,217 56.4,218.2 56.9,218.8 57.7,219.7 
		58.9,221.5 60,223.6 60.8,225.8 61,226.6 61.7,228.2 62.5,230.6 	"/>
	
		<linearGradient id="SVGID_18_" gradientUnits="userSpaceOnUse" x1="88.7" y1="270.85" x2="122.3662" y2="270.85" gradientTransform="matrix(1 0 0 -1 0 494)">
		<stop  offset="0" style="stop-color:#91CFC1"/>
		<stop  offset="1" style="stop-color:#BAD1AD"/>
	</linearGradient>
	<polygon class="st18" points="89,223 89.4,223.4 90.5,224.3 92,225.4 93.8,226.6 95.9,227.8 98.3,229 100.7,230.2 103.2,231.3 
		105.6,232.4 107.8,233.2 109.8,233.9 111.5,234.3 112.7,234.5 113.6,234.5 113.9,234.2 114.1,234 116.2,231.1 120,226.6 120.5,226 
		121.3,225.1 122.4,223.9 122.1,224 121.4,223.9 120.2,223.6 118.7,223 116.7,222.3 114.5,221.3 112.3,220.4 112.1,220.2 
		112.1,220.3 109.6,219.1 107.1,217.9 104.7,216.7 102.5,215.5 100.5,214.4 98.9,213.5 97.8,212.7 97,212.1 96.8,211.8 94.6,214.4 
		88.9,221.9 88.7,222.2 88.8,222.7 	"/>
	
		<linearGradient id="SVGID_19_" gradientUnits="userSpaceOnUse" x1="133.6" y1="314.5" x2="194" y2="314.5" gradientTransform="matrix(1 0 0 -1 0 494)">
		<stop  offset="0" style="stop-color:#91CFC1"/>
		<stop  offset="1" style="stop-color:#BAD1AD"/>
	</linearGradient>
	<polygon class="st19" points="136.7,176.7 137.9,176.8 138.9,176.9 141.4,177.5 144,178.3 146.8,179.3 149.6,180.6 152,181.8 
		152.3,182 154.8,183.6 156.9,185.2 158.7,186.8 160,188.3 160.8,189.6 161.1,190.8 161.1,190.8 161,190.9 160.8,191.7 160,192.4 
		159.9,192.4 159.6,192.6 158.8,193.1 157.8,193.8 157.1,194.2 156.8,194.4 158.8,195.5 163.6,196.9 168.5,197.3 168.6,197.3 
		173.5,196.9 178.3,195.5 181.3,193.9 182,193.5 182.7,193.2 186.5,190 186.5,190.1 189.7,186.3 192,181.9 193.5,177.2 193.5,177 
		194,172.1 193.8,172 193.1,171.8 192.2,171.7 190.9,171.6 189.4,171.6 187.8,171.6 185.4,171.6 185.1,174.9 185.1,174.7 
		184.1,177.9 182.6,180.8 180.5,183.3 177.9,185.4 175,187 171.8,187.9 168.5,188.3 167.2,188.1 169.6,186.8 172.1,185.5 
		172.8,185.2 174.7,183.9 176.3,182.2 177.4,180.2 178.1,177.9 178.1,177.9 178.1,177.5 178.2,175.5 177.7,173.1 176.7,170.7 
		175.3,168.5 173.4,166.4 171.2,164.7 168.8,163.3 166.2,162.3 164.3,161.9 163.5,161.8 160.7,161.7 158.2,162.2 155.9,163.1 
		153.8,164.2 153.1,164.6 150.1,166.3 150,166.4 148.1,167.5 146.5,168.5 145.6,169.1 145.2,169.3 144.1,170 143.5,170.4 
		143.3,170.6 140.8,172.2 135.6,175.8 133.6,177.2 134.9,176.8 	"/>
	
		<linearGradient id="SVGID_20_" gradientUnits="userSpaceOnUse" x1="62" y1="221.55" x2="91.8" y2="221.55" gradientTransform="matrix(1 0 0 -1 0 494)">
		<stop  offset="0" style="stop-color:#91CFC1"/>
		<stop  offset="1" style="stop-color:#BAD1AD"/>
	</linearGradient>
	<polygon class="st20" points="62.5,267.4 63.6,268.7 65.2,270.2 67.2,271.7 69.6,273.3 72.3,274.9 75.2,276.3 78.1,277.7 81,278.8 
		83.7,279.6 86.2,280.2 88.3,280.5 90,280.5 91.1,280.2 91.8,279.6 91.8,278.7 91.3,277.5 90.3,276.3 89.3,278.4 88.7,278.9 
		87.8,279.2 86.4,279.2 84.6,278.9 82.6,278.4 80.3,277.7 77.9,276.8 75.4,275.7 73.1,274.5 70.8,273.2 68.8,271.9 67.1,270.6 
		65.8,269.3 64.9,268.2 64.5,267.3 64.5,266.5 65.6,264.4 65.5,264.4 65.1,264.4 63.8,264.4 62.7,264.7 62,265.3 62,266.2 	"/>
	
		<linearGradient id="SVGID_21_" gradientUnits="userSpaceOnUse" x1="143.3" y1="334.55" x2="194" y2="334.55" gradientTransform="matrix(1 0 0 -1 0 494)">
		<stop  offset="0" style="stop-color:#91CFC1"/>
		<stop  offset="1" style="stop-color:#BAD1AD"/>
	</linearGradient>
	<polygon class="st21" points="144.1,170 145.2,169.3 145.6,169.1 146.5,168.5 148.1,167.5 150,166.4 150.1,166.3 153.1,164.6 
		154.5,162.1 156.6,159.5 159.2,157.4 162.1,155.9 165.2,154.9 168.5,154.6 171.8,154.9 175,155.9 177.9,157.4 180.5,159.5 
		182.6,162.1 184.1,165 185.1,168.1 185.4,171.4 185.4,171.6 187.8,171.6 189.4,171.6 190.9,171.6 192.2,171.7 193.1,171.8 
		193.8,172 194,172.1 193.5,167.2 193.4,167 192,162.4 190.3,159.1 189.7,158 186.5,154.2 182.7,151 180.8,150 178.3,148.7 
		173.5,147.3 168.6,146.8 168.5,146.8 163.6,147.3 158.8,148.7 156.4,150 154.4,151 150.6,154.2 147.4,158 146.8,159.1 145,162.4 
		143.7,166.7 143.6,167.2 143.3,170.6 143.5,170.4 	"/>
	
		<linearGradient id="SVGID_22_" gradientUnits="userSpaceOnUse" x1="47.7355" y1="249.5" x2="54.2006" y2="249.5" gradientTransform="matrix(1 0 0 -1 0 494)">
		<stop  offset="0" style="stop-color:#91CFC1"/>
		<stop  offset="1" style="stop-color:#BAD1AD"/>
	</linearGradient>
	<polygon class="st22" points="52.8,248.7 54.2,248.7 51.9,241.7 51.5,240.3 51.2,240.3 50.1,240.3 49.4,240.3 48.7,240.3 48,240.3 
		47.7,240.3 48.1,241.2 48.2,241.5 48.2,241.6 50.6,248.7 51.7,248.7 	"/>
	
		<linearGradient id="SVGID_23_" gradientUnits="userSpaceOnUse" x1="40.9499" y1="259.75" x2="63.0923" y2="259.75" gradientTransform="matrix(1 0 0 -1 0 494)">
		<stop  offset="0" style="stop-color:#91CFC1"/>
		<stop  offset="1" style="stop-color:#BAD1AD"/>
	</linearGradient>
	<polygon class="st23" points="48.7,240.3 49.4,240.3 50.1,240.3 51.2,240.3 51.5,240.3 53.3,240.3 55.4,240.3 56.9,240.3 
		58.9,240.3 59.9,240.3 61,240 61,240 62,239.4 62,239.3 62.6,238.2 63,236.7 63,235.6 63.1,234.9 62.9,232.8 62.5,230.6 
		61.7,228.2 40.9,228.2 40.9,229.6 40.9,230.4 40.9,230.6 40.9,232.8 40.9,233.4 40.9,234.9 40.9,236.7 40.9,238.2 40.9,238.8 
		40.9,239.4 40.9,240 40.9,240.3 42.2,240.3 46.8,240.3 47.7,240.3 48,240.3 	"/>
	
		<linearGradient id="SVGID_24_" gradientUnits="userSpaceOnUse" x1="40.9489" y1="271.85" x2="61.6765" y2="271.85" gradientTransform="matrix(1 0 0 -1 0 494)">
		<stop  offset="0" style="stop-color:#91CFC1"/>
		<stop  offset="1" style="stop-color:#BAD1AD"/>
	</linearGradient>
	<polygon class="st24" points="40.9,227.7 40.9,228.2 61.7,228.2 61,226.6 60.8,225.8 60,223.6 58.9,221.5 57.7,219.7 56.9,218.8 
		56.4,218.2 55.2,217 54,216.4 52.9,216.1 51.2,216.1 47.9,216.1 47,216.1 43.9,216.1 42.1,216.1 41.5,216.1 40.9,216.1 40.9,216.4 
		40.9,217 40.9,218.2 40.9,219.7 40.9,221.5 40.9,223.6 40.9,225.8 40.9,226.3 40.9,226.6 	"/>
	
		<linearGradient id="SVGID_25_" gradientUnits="userSpaceOnUse" x1="50.6" y1="244.55" x2="286.6" y2="244.55" gradientTransform="matrix(1 0 0 -1 0 494)">
		<stop  offset="0" style="stop-color:#91CFC1"/>
		<stop  offset="1" style="stop-color:#BAD1AD"/>
	</linearGradient>
	<polygon class="st25" points="284.3,248.7 281,248.7 277.6,248.7 272.2,248.7 266.7,248.7 259.4,248.7 252,248.7 243.1,248.7 
		234.1,248.7 223.9,248.7 213.7,248.7 202.7,248.7 191.6,248.7 180.1,248.7 168.6,248.7 157.1,248.7 145.6,248.7 134.5,248.7 
		123.4,248.7 113.2,248.7 104.2,248.7 105.2,247 104.8,247.4 103.9,247.5 102.5,247.4 100.8,247.1 98.8,246.5 96.6,245.7 
		94.2,244.8 91.7,243.7 89.3,242.5 87.1,241.2 85,240 83.2,238.8 81.9,237.6 80.9,236.6 80.4,235.8 80.4,235.2 78.6,238.1 
		78.3,238.7 76.1,242.8 76.1,242.9 73.6,247.8 73.1,248.7 70.5,248.7 65,248.7 59.6,248.7 56.2,248.7 54.2,248.7 52.8,248.7 
		51.7,248.7 50.6,248.7 56.2,250.6 61.3,252.3 62.6,252.8 65.1,253.6 67.5,254.5 64.9,263.6 65.9,263.6 70.1,254.9 68.4,254.6 
		70.2,254.9 70.2,254.9 70.2,254.7 70.4,254.3 70.8,253.5 71.1,252.9 71.7,251.7 71.9,251.2 71.9,251.9 72.3,252.9 73.2,254 
		74.5,255.2 76.2,256.5 78.2,257.8 80.5,259.1 82.9,260.3 85.3,261.4 87.7,262.3 90,263 92,263.5 93.8,263.7 95.2,263.7 96.2,263.4 
		96.7,262.9 96.4,263.6 103.7,263.6 128.9,263.6 168.6,263.6 208.3,263.6 241.9,263.6 264.4,263.6 272.3,263.6 269.7,254.5 
		286.6,248.7 285.5,248.7 	"/>
	
		<linearGradient id="SVGID_26_" gradientUnits="userSpaceOnUse" x1="282.53" y1="301.9" x2="297.7537" y2="301.9" gradientTransform="matrix(1 0 0 -1 0 494)">
		<stop  offset="0" style="stop-color:#91CFC1"/>
		<stop  offset="1" style="stop-color:#BAD1AD"/>
	</linearGradient>
	<path class="st26" d="M284,158.5l0.1,0.6l-0.2,3.2l0.1,4l2.7,32.5l-3.3,19.3l-0.5,4l-0.1,3.8l0.1,0.8l-0.3,2.7v3.1v0.2l0.2,2.3
		l0.6,1.9l0.1,0.1l0.6,1l0.5,0.2l0.6,0.2l1.2-0.4h0.1l1.4-1.2l0.6-0.8l0.7-1.1l1.3-2.5l1.4-3.1l1.1-2.7l0.2-0.8l0.8-3.8l0.7-4
		l3-19.3l-2.5-32.5l-0.4-4l-0.4-3.2l-0.2-0.6l-1.1-3.5l-1.1-3.1l-1-2.5l-0.7-1.3l-0.4-0.6l-1.2-1.2l-1.1-0.4l-0.7,0.3l-0.4,0.1
		l-1.1,1.2l-0.8,1.9l-0.5,2.5v0.6L284,155V158.5z M288.9,153.2l0.6-0.3l0.7,0.3l0.8,0.8l0.9,1.2l0.5,0.9l0.3,0.7l0.7,2l0.1,0.2
		l0.3,2.1l0.3,2.5l0.3,2.9l2.4,32.1l-3,19l-0.5,2.9l-0.5,2.5l-0.5,2.3l-0.3,1.2l-0.4,0.8l-0.3,0.6l-0.7,1.1l-1,1.2l-0.9,0.8
		l-0.7,0.3h-0.1l-0.6-0.2l-0.1-0.1l-0.4-0.6l-0.1-0.1l-0.4-1.2l-0.1-1.7l0.1-0.8l-0.2-1.2l-0.1-2.3l0.1-2.5l0.4-2.9l3.1-19
		l-2.5-32.1l-0.1-2.9l0.1-2.5l0.2-2.1v-0.2l0.1-2l0.3-1.7l0.5-1.2l0.5-0.5L288.9,153.2z"/>
	
		<linearGradient id="SVGID_27_" gradientUnits="userSpaceOnUse" x1="187.4" y1="364.35" x2="290.8" y2="364.35" gradientTransform="matrix(1 0 0 -1 0 494)">
		<stop  offset="0" style="stop-color:#91CFC1"/>
		<stop  offset="1" style="stop-color:#BAD1AD"/>
	</linearGradient>
	<polygon class="st27" points="235.3,122.6 234.4,122.5 228.6,122.1 227.2,121.9 224.3,121.7 217.8,121.3 213.8,121.1 203.5,120.6 
		202.8,120.6 191.6,120.4 190.3,120.3 190.3,120.4 189.9,124.6 188.6,128.5 187.4,130.7 192.1,130.7 203.5,131 214.7,131.4 
		225.5,132.1 235.7,132.9 238.6,133.2 245.3,133.6 254.2,134.2 262.4,135.1 269.7,136.1 273.7,136.8 276,137 281.2,137.6 
		285.4,138.4 286.7,138.7 287.2,138.8 288.4,138.8 290.2,138.9 290.8,139 288.5,129 287.9,128.6 286.1,128.4 284.9,128.4 
		283.1,127.9 279,127.1 273.9,126.5 271.6,126.3 267.7,125.6 260.5,124.6 252.6,123.8 243.8,123.2 237.6,122.9 237.2,122.8 	"/>
	
		<linearGradient id="SVGID_28_" gradientUnits="userSpaceOnUse" x1="286" y1="301.85" x2="296.7" y2="301.85" gradientTransform="matrix(1 0 0 -1 0 494)">
		<stop  offset="0" style="stop-color:#91CFC1"/>
		<stop  offset="1" style="stop-color:#BAD1AD"/>
	</linearGradient>
	<polygon class="st28" points="287.7,155.2 287.4,156.9 287.3,158.9 287.3,159.1 287.1,161.2 287,163.7 287.1,166.6 289.7,198.7 
		286.5,217.7 286.1,220.6 286,223.1 286.1,225.4 286.2,226.6 286.2,227.5 286.3,229.1 286.7,230.3 286.7,230.4 287.1,231 
		287.2,231.1 287.7,231.3 287.8,231.3 288.6,231.1 289.5,230.3 290.5,229.1 291.2,228 291.5,227.5 291.8,226.6 292.2,225.4 
		292.7,223.1 293.2,220.6 293.7,217.7 296.7,198.7 294.3,166.6 294,163.7 293.7,161.2 293.4,159.1 293.3,158.9 292.6,156.9 
		292.3,156.1 291.8,155.2 291,154 290.2,153.2 289.4,153 288.9,153.2 288.7,153.5 288.2,154 	"/>
	
		<linearGradient id="SVGID_29_" gradientUnits="userSpaceOnUse" x1="95.7" y1="425.15" x2="241.3" y2="425.15" gradientTransform="matrix(1 0 0 -1 0 494)">
		<stop  offset="0" style="stop-color:#91CFC1"/>
		<stop  offset="1" style="stop-color:#BAD1AD"/>
	</linearGradient>
	<path class="st29" d="M101.9,122.6l0.9-0.1l5.7-0.5l1.5-0.1l2.8-0.2l6.6-0.4l4-0.2l10.3-0.4h0.6l11.2-0.3h1l-0.2-1.7l0.5-4.1
		l0.5-1.5l0.8-2.5l1.7-3l0.4-0.7l2.6-3.1l0.1-0.1l3.3-2.6l3.8-2l4.1-1.2h1.8h5h0.2h1.4l4.1,1.2l3.7,2l3.3,2.6l0.1,0.1l2.6,3.1
		l0.9,1.6l1.1,2.1l0.8,2.5l0.4,1.5l0.4,1.8l0.4,4.1h1.3l11.2,0.3h0.6l10.3,0.4l4,0.2l6.6,0.4l2.8,0.2l1.5,0.1l5.7,0.5l0.9,0.1
		l1.9,0.2h0.4l0.4-0.9l2.4-8.9l1-9.3l-0.5-9.3l-1.9-9.1l-3.2-8.4l-4.5-7.5l-2.6-2.9h-2.1h-6h-9.6h-12.4H184h-12.5v-3.4v-3.3v-1.6V55
		v-1.1v-0.5v-0.6v-0.2l0,0l0.4-36.9h-0.1l-0.1-0.2l-0.1-0.3l-0.1-0.5l-0.5,0.2l-1.3,0.3l-0.9,0.1l-0.9-0.1l-1.3-0.3l-0.2-0.1v0.5
		v0.3v0.1L166,52.5l0,0v0.2v0.7v0.4v1.3v3.3V60v3.3v3.4h-13h-14.5h-12.4h-9.6h-6h-2.1l-2.6,2.9l-4.5,7.5l-3.2,8.4l-1.9,9.1l-0.5,9.3
		l1,9.3l2.4,8.9l0.4,0.9h0.4L101.9,122.6z M98.9,101.5v-3.6l0.3-3.4l0.1-0.3l1.2-3.5l1.4-3.2l1.2-2.1l0.6-0.8l2.1-2.3l2-1.7l1.6-0.9
		l0.5-0.2l3-0.4l2.6,0.4l2.2,1.1l1.7,1.7l0.2,0.4l1.9,2l0.3,0.8l1.5,2.1l1.1,3.2l0.2,3.5l-0.1,0.3l0.2,3.4l-0.8,3.6l-1.1,2.3
		l-0.3,1.1l-5.3,0.8l-11.3,3l-4.3,2.2l-1.3-2.8l-1.1-3.2l-0.3-1.1L98.9,101.5z"/>
	
		<linearGradient id="SVGID_30_" gradientUnits="userSpaceOnUse" x1="161.9727" y1="485.7" x2="177.0727" y2="485.7" gradientTransform="matrix(1 0 0 -1 0 494)">
		<stop  offset="0" style="stop-color:#91CFC1"/>
		<stop  offset="1" style="stop-color:#BAD1AD"/>
	</linearGradient>
	<polygon class="st30" points="166.9,15.2 166.9,14.6 167.2,14.7 168.4,15 169.3,15.1 170.2,15 171.5,14.7 172,14.6 172,15.1 
		172.1,15.4 172.1,15.6 173,15.3 174.5,14.2 175.6,12.8 176,12.2 176.8,10.5 177.1,8.6 176.8,6.6 176.1,4.9 174.9,3.3 174.4,2.9 
		173,1.9 171.4,1.3 170.9,1.1 170.3,1 169.5,1 168.8,1 168.2,1.1 166.8,1.6 166,1.9 164.6,2.9 163.4,4.3 163,4.9 162.3,6.6 162,8.6 
		162.2,10.5 162.9,12.2 164.1,13.8 164.6,14.2 166,15.3 166.9,15.6 166.9,15.4 	"/>
	
		<linearGradient id="SVGID_31_" gradientUnits="userSpaceOnUse" x1="171.7" y1="437.9" x2="221.4" y2="437.9" gradientTransform="matrix(1 0 0 -1 0 494)">
		<stop  offset="0" style="stop-color:#91CFC1"/>
		<stop  offset="1" style="stop-color:#BAD1AD"/>
	</linearGradient>
	<polygon class="st31" points="171.8,52.7 171.8,53.3 171.8,53.8 171.7,55 171.7,58.2 171.7,59.8 182.2,59.8 195,59.8 205.9,59.8 
		214.3,59.8 219.5,59.8 221.4,59.8 219.3,58.2 212.3,55 204.5,53.4 201.5,53.1 190.4,52.5 187.5,52.5 179.5,52.5 171.8,52.4 
		171.8,52.5 	"/>
	
		<linearGradient id="SVGID_32_" gradientUnits="userSpaceOnUse" x1="171.6" y1="430.85" x2="228.7" y2="430.85" gradientTransform="matrix(1 0 0 -1 0 494)">
		<stop  offset="0" style="stop-color:#91CFC1"/>
		<stop  offset="1" style="stop-color:#BAD1AD"/>
	</linearGradient>
	<polygon class="st32" points="214.3,59.8 205.9,59.8 195,59.8 182.2,59.8 171.7,59.8 171.7,63.1 171.6,66.5 184.1,66.5 198.7,66.5 
		211.1,66.5 220.7,66.5 226.6,66.5 228.7,66.5 225.7,63.1 221.4,59.8 219.5,59.8 	"/>
	
		<linearGradient id="SVGID_33_" gradientUnits="userSpaceOnUse" x1="30.9565" y1="197.95" x2="55.2993" y2="197.95" gradientTransform="matrix(1 0 0 -1 0 494)">
		<stop  offset="0" style="stop-color:#91CFC1"/>
		<stop  offset="1" style="stop-color:#BAD1AD"/>
	</linearGradient>
	<polygon class="st33" points="33.5,316.4 35.3,312.7 37.4,308.3 39.7,303.5 42.1,298.5 44.6,293.3 47,288.3 49.2,283.7 51.2,279.5 
		52.8,276 54.1,273.2 54.9,271.4 55.3,270.6 55.2,270.7 54.6,271.9 53.5,274 52.1,276.9 50.3,280.7 48.2,285 45.9,289.8 41,300 
		38.6,305 40.2,301.8 41.7,298.7 43.2,295.6 44.7,292.4 46.1,289.5 47.4,286.8 48.5,284.5 49.4,282.6 50.1,281.3 50.4,280.6 
		50.5,280.5 50.5,280.7 50.3,281.1 50.1,281.4 49.8,282.2 49.5,282.7 49,283.9 48.7,284.6 48,286.1 47.6,286.9 46.7,288.6 
		46.3,289.6 45.4,291.5 44.9,292.5 43.4,295.7 41.9,298.8 40.4,301.9 39.4,303.9 38.8,305.1 38.1,306.6 37,308.9 36.1,310.7 
		35.5,312 31,321.5 32,319.4 	"/>
	
		<linearGradient id="SVGID_34_" gradientUnits="userSpaceOnUse" x1="134.8" y1="124.9" x2="202.3" y2="124.9" gradientTransform="matrix(1 0 0 -1 0 494)">
		<stop  offset="0" style="stop-color:#91CFC1"/>
		<stop  offset="1" style="stop-color:#BAD1AD"/>
	</linearGradient>
	<polygon class="st34" points="200.7,306.9 200.8,306.3 201,305.1 202.3,298.6 193.6,300.3 168.6,302.1 143.6,300.3 134.8,298.6 
		136.1,305.1 136.4,306.3 136.5,307 136.8,308.4 136.9,308.9 140.8,328.6 140.9,329.1 141.2,330.6 141.6,333 142.3,336.2 143,339.8 
		143.8,343.8 152.5,388.1 152.5,411.4 152.8,414.6 153.7,417.6 155.2,420.3 157.2,422.8 159.6,424.8 161.6,425.8 158.4,425.1 
		153.5,423.3 148.9,420.8 144.7,417.6 140.9,413.9 140.6,413.4 140.9,416.9 142.5,422.2 145.1,427.1 148.6,431.4 152.9,434.9 
		157.8,437.5 163.1,439.1 168.6,439.6 174.1,439.1 179.4,437.5 184.3,434.9 188.5,431.4 192,427.1 194.7,422.2 196.3,416.9 
		196.6,413.4 196.3,413.9 192.5,417.6 188.3,420.8 183.7,423.3 178.8,425.1 175.6,425.8 177.5,424.8 180,422.8 182,420.3 
		183.4,417.6 184.4,414.6 184.7,411.4 184.7,388.1 193.4,343.8 194.2,339.8 194.9,336.2 195.5,333 196,330.6 196.3,329.1 
		196.4,328.6 200.3,308.9 200.4,308.4 	"/>
	
		<linearGradient id="SVGID_35_" gradientUnits="userSpaceOnUse" x1="89.2" y1="193.75" x2="136.9" y2="193.75" gradientTransform="matrix(1 0 0 -1 0 494)">
		<stop  offset="0" style="stop-color:#91CFC1"/>
		<stop  offset="1" style="stop-color:#BAD1AD"/>
	</linearGradient>
	<polygon class="st35" points="136.5,307 124.3,305.1 108.7,300.5 105.1,299.2 100.1,297.5 90.2,291.6 89.4,293.5 89.2,293.8 
		95.2,297.5 116.7,305.1 136.9,308.9 136.8,308.4 	"/>
	
		<linearGradient id="SVGID_36_" gradientUnits="userSpaceOnUse" x1="125.8" y1="68.3" x2="211.3" y2="68.3" gradientTransform="matrix(1 0 0 -1 0 494)">
		<stop  offset="0" style="stop-color:#91CFC1"/>
		<stop  offset="1" style="stop-color:#BAD1AD"/>
	</linearGradient>
	<polygon class="st36" points="126.6,403.1 125.8,411.4 126.6,419.8 129.1,427.8 133,435.2 138.3,441.6 144.8,447 152.2,450.9 
		160.2,453.4 168.6,454.2 176.9,453.4 184.9,450.9 192.3,447 198.8,441.6 204.1,435.2 208.1,427.8 210.5,419.8 211.3,411.4 
		210.5,403.1 208.7,397.2 196.6,413.4 196.3,416.9 194.7,422.2 192,427.1 188.5,431.4 184.3,434.9 179.4,437.5 174.1,439.1 
		168.6,439.6 163.1,439.1 157.8,437.5 152.9,434.9 148.6,431.4 145.1,427.1 142.5,422.2 140.9,416.9 140.6,413.4 128.4,397.2 	"/>
	
		<linearGradient id="SVGID_37_" gradientUnits="userSpaceOnUse" x1="195.5" y1="128.85" x2="257.7" y2="128.85" gradientTransform="matrix(1 0 0 -1 0 494)">
		<stop  offset="0" style="stop-color:#91CFC1"/>
		<stop  offset="1" style="stop-color:#BAD1AD"/>
	</linearGradient>
	<polygon class="st37" points="196,330.6 195.5,333 201.7,335 216.6,343.5 229.7,354.9 240.5,368.8 248.5,384.6 252,396.9 
		254.3,398.3 254.9,398.6 256.9,400.2 257.4,401 257.5,401.3 257.7,401.7 257.6,400.9 252.5,382.9 244.1,366.2 232.8,351.7 
		219,339.7 203.3,330.8 196.4,328.6 196.3,329.1 	"/>
	
		<linearGradient id="SVGID_38_" gradientUnits="userSpaceOnUse" x1="85.2" y1="114.6" x2="161.6" y2="114.6" gradientTransform="matrix(1 0 0 -1 0 494)">
		<stop  offset="0" style="stop-color:#91CFC1"/>
		<stop  offset="1" style="stop-color:#BAD1AD"/>
	</linearGradient>
	<polygon class="st38" points="92.6,394.6 93,394.6 93.2,394.6 95.2,394.4 96.7,394.2 98,394.2 101.2,394.2 104.6,394.2 
		126.2,394.2 128.4,397.2 140.6,413.4 140.9,413.9 144.7,417.6 148.9,420.8 153.5,423.3 158.4,425.1 161.6,425.8 159.6,424.8 
		157.2,422.8 155.2,420.3 153.7,417.6 152.8,414.6 152.5,411.4 152.5,388.1 143.8,343.8 143,339.8 142.3,336.2 141.6,333 135.5,335 
		120.5,343.5 107.4,354.9 96.7,368.8 88.7,384.6 85.2,396.9 88.7,395.5 91.1,394.9 91.6,394.8 	"/>
	
		<linearGradient id="SVGID_39_" gradientUnits="userSpaceOnUse" x1="79.5" y1="128.85" x2="141.6" y2="128.85" gradientTransform="matrix(1 0 0 -1 0 494)">
		<stop  offset="0" style="stop-color:#91CFC1"/>
		<stop  offset="1" style="stop-color:#BAD1AD"/>
	</linearGradient>
	<polygon class="st39" points="96.7,368.8 107.4,354.9 120.5,343.5 135.5,335 141.6,333 141.2,330.6 140.9,329.1 140.8,328.6 
		133.8,330.8 118.1,339.7 104.4,351.7 93.1,366.2 84.7,382.9 79.5,400.9 79.5,401.7 79.7,401.3 79.8,401 80.3,400.2 82.3,398.6 
		82.9,398.3 85.2,396.9 88.7,384.6 	"/>
	
		<linearGradient id="SVGID_40_" gradientUnits="userSpaceOnUse" x1="175.6" y1="114.6" x2="252" y2="114.6" gradientTransform="matrix(1 0 0 -1 0 494)">
		<stop  offset="0" style="stop-color:#91CFC1"/>
		<stop  offset="1" style="stop-color:#BAD1AD"/>
	</linearGradient>
	<polygon class="st40" points="240.5,368.8 229.7,354.9 216.6,343.5 201.7,335 195.5,333 194.9,336.2 194.2,339.8 193.4,343.8 
		184.7,388.1 184.7,411.4 184.4,414.6 183.4,417.6 182,420.3 180,422.8 177.5,424.8 175.6,425.8 178.8,425.1 183.7,423.3 
		188.3,420.8 192.5,417.6 196.3,413.9 196.6,413.4 208.7,397.2 211,394.2 232.6,394.2 236,394.2 239.2,394.2 240.5,394.2 242,394.4 
		244,394.6 244.2,394.6 244.5,394.6 245.6,394.8 246.1,394.9 248.4,395.5 252,396.9 248.5,384.6 	"/>
	
		<linearGradient id="SVGID_41_" gradientUnits="userSpaceOnUse" x1="146.4591" y1="375.1" x2="189.9528" y2="375.1" gradientTransform="matrix(1 0 0 -1 0 494)">
		<stop  offset="0" style="stop-color:#91CFC1"/>
		<stop  offset="1" style="stop-color:#BAD1AD"/>
	</linearGradient>
	<path class="st41" d="M150,130.5l2.7,3.2l3.3,2.6l3.7,2l4.1,1.2l4.2,0.4l4.2-0.4l4.1-1.2l3.8-2l3.3-2.6l2.7-3.2l2.1-3.7l1.3-4
		l0.5-4.1l-0.4-4.1l-0.4-1.5l-0.8-2.5l-1.1-2.1l-0.9-1.6l-2.6-3.1l-0.1-0.1l-3.3-2.6l-3.7-2l-4.1-1.2h-1.4H171h-5h-1.8l-4.1,1.2
		l-3.8,2l-3.3,2.6l-0.1,0.1l-2.6,3.1l-0.4,0.7l-1.7,3l-0.8,2.5l-0.5,1.5l-0.5,4.1l0.2,1.7l0.2,2.5l1.2,4L150,130.5z M154.4,116
		l0.8-2.6l1.3-2.4l1.8-2.1l2.2-1.7l2.5-1.3l2.7-0.8l2.8-0.3l2.8,0.3l2.6,0.8l2.4,1.3l2.1,1.7l1.7,2.1l1.3,2.4l0.8,2.6l0.2,2.7
		l-0.3,2.7l-0.8,2.6l-1.3,2.4l-1.8,2.1l-2.2,1.7l-2.5,1.3l-2.7,0.8l-2.8,0.3l-2.8-0.3l-2.6-0.8l-2.4-1.3l-2.1-1.7l-1.7-2.1l-1.3-2.4
		l-0.8-2.6l-0.2-2.7L154.4,116z"/>
	
		<linearGradient id="SVGID_42_" gradientUnits="userSpaceOnUse" x1="89.3" y1="51.55" x2="247.9" y2="51.55" gradientTransform="matrix(1 0 0 -1 0 494)">
		<stop  offset="0" style="stop-color:#91CFC1"/>
		<stop  offset="1" style="stop-color:#BAD1AD"/>
	</linearGradient>
	<polygon class="st42" points="244.5,394.6 244.2,394.6 244,394.6 242,394.4 240.5,394.2 239.2,394.2 236,394.2 232.6,394.2 
		211,394.2 208.7,397.2 210.5,403.1 211.3,411.4 210.5,419.8 208.1,427.8 204.1,435.2 198.8,441.6 192.3,447 184.9,450.9 
		176.9,453.4 168.6,454.2 160.2,453.4 152.2,450.9 144.8,447 138.3,441.6 133,435.2 129.1,427.8 126.6,419.8 125.8,411.4 
		126.6,403.1 128.4,397.2 126.2,394.2 104.6,394.2 101.2,394.2 98,394.2 96.7,394.2 95.2,394.4 93.2,394.6 93,394.6 92.6,394.6 
		91.6,394.8 91.1,394.9 90.8,395.9 89.3,411.4 90.8,426.9 95.3,441.8 102.6,455.5 112.5,467.5 124.5,477.4 138.2,484.7 153.1,489.2 
		168.6,490.7 184.1,489.2 198.9,484.7 212.7,477.4 224.7,467.5 234.5,455.5 241.9,441.8 246.4,426.9 247.9,411.4 246.4,395.9 
		246.1,394.9 245.6,394.8 	"/>
	
		<linearGradient id="SVGID_43_" gradientUnits="userSpaceOnUse" x1="1.3" y1="236.7" x2="65.4" y2="236.7" gradientTransform="matrix(1 0 0 -1 0 494)">
		<stop  offset="0" style="stop-color:#91CFC1"/>
		<stop  offset="1" style="stop-color:#BAD1AD"/>
	</linearGradient>
	<polygon class="st43" points="27.5,291.4 30.8,289.8 34.7,287.5 38.8,284.6 43.1,281.3 47.4,277.7 51.6,273.8 55.4,269.9 
		58.8,266.1 61.6,262.6 63.6,259.4 64.9,256.8 65.4,254.7 65.1,253.6 62.6,252.8 61.3,252.3 56.2,250.6 50.6,248.7 48.2,241.6 
		48,241.4 48.2,241.5 48.1,241.2 47.7,240.3 46.8,240.3 42.2,240.3 40.9,240.3 40.9,240 40.9,239.4 40.9,238.8 40.9,238.2 
		40.9,236.7 40.9,234.9 40.9,233.4 40.9,232.8 40.9,230.6 40.9,230.4 40.9,229.6 40.9,228.2 40.9,227.7 40.9,226.6 40.9,226.3 
		38.8,223.8 37.5,223.2 35.5,223.4 32.8,224.2 29.4,225.9 25.6,228.1 21.5,231 17.2,234.3 12.8,238 8.7,241.8 4.8,245.7 1.5,249.5 
		6.7,255.4 1.3,261.9 	"/>
	
		<linearGradient id="SVGID_44_" gradientUnits="userSpaceOnUse" x1="146.8" y1="361.8" x2="189.8346" y2="361.8" gradientTransform="matrix(1 0 0 -1 0 494)">
		<stop  offset="0" style="stop-color:#91CFC1"/>
		<stop  offset="1" style="stop-color:#BAD1AD"/>
	</linearGradient>
	<polygon class="st44" points="189.9,124.6 189.5,122.8 188.2,126.8 186.2,130.5 183.4,133.7 180.1,136.3 176.3,138.3 172.2,139.5 
		168,139.9 163.7,139.5 159.7,138.3 155.9,136.3 152.7,133.7 150,130.5 148,126.8 146.8,122.8 147.2,124.6 148.4,128.5 149.5,130.7 
		150.4,132.2 153,135.4 156.3,138.1 156.6,138.2 160,140 164.1,141.2 168.3,141.6 168.6,141.6 172.6,141.2 176.7,140 180.5,138.1 
		180.5,138 183.8,135.4 186.5,132.2 187.4,130.7 188.6,128.5 	"/>
	
		<linearGradient id="SVGID_45_" gradientUnits="userSpaceOnUse" x1="189.488" y1="374.45" x2="190.3292" y2="374.45" gradientTransform="matrix(1 0 0 -1 0 494)">
		<stop  offset="0" style="stop-color:#91CFC1"/>
		<stop  offset="1" style="stop-color:#BAD1AD"/>
	</linearGradient>
	<polygon class="st45" points="189.5,122.8 189.9,124.6 190.3,120.4 190.3,120.3 190,116.3 189.6,114.5 190,118.7 	"/>
	
		<linearGradient id="SVGID_46_" gradientUnits="userSpaceOnUse" x1="100.7226" y1="399.15" x2="119.0585" y2="399.15" gradientTransform="matrix(1 0 0 -1 0 494)">
		<stop  offset="0" style="stop-color:#91CFC1"/>
		<stop  offset="1" style="stop-color:#BAD1AD"/>
	</linearGradient>
	<polygon class="st46" points="101.9,106.2 105.6,104.3 107.6,103.8 117.2,101.4 118.2,101.2 118.5,100.6 119.1,97.8 118.9,95 
		118.7,94.5 118.6,92.4 118,90.7 117.9,89.9 117.1,87.7 115.9,85.9 115.3,85.4 114.5,84.6 112.8,83.8 110.8,83.5 108.5,83.8 
		108.1,84 106.9,84.6 106,85.4 105.4,85.9 104.2,87.7 102.9,89.9 101.9,92.4 101.1,94.5 101,95 100.8,97.8 100.7,100.6 100.9,103.3 
		101,103.8 101.7,105.8 	"/>
	
		<linearGradient id="SVGID_47_" gradientUnits="userSpaceOnUse" x1="103.7" y1="207.75" x2="272.3" y2="207.75" gradientTransform="matrix(1 0 0 -1 0 494)">
		<stop  offset="0" style="stop-color:#91CFC1"/>
		<stop  offset="1" style="stop-color:#BAD1AD"/>
	</linearGradient>
	<polygon class="st47" points="241.9,263.6 208.3,263.6 168.6,263.6 128.9,263.6 103.7,263.6 107.5,269.3 111.2,276 124.8,284.3 
		129.8,287.6 135.5,289.5 168.6,293.6 196.2,290.2 198.5,290.1 200.7,290.4 201.1,290.5 202.6,290.6 204,291.1 204.9,291.9 
		205.3,293 205.3,297.5 205.3,305.1 205.3,305.3 204.9,305.6 204,306 202.6,306.4 200.7,306.9 200.4,308.4 200.3,308.9 220.4,305.1 
		241.9,297.5 258.4,287.6 268.8,276 272.3,263.6 264.4,263.6 	"/>
	
		<linearGradient id="SVGID_48_" gradientUnits="userSpaceOnUse" x1="108.4" y1="430.85" x2="166.4" y2="430.85" gradientTransform="matrix(1 0 0 -1 0 494)">
		<stop  offset="0" style="stop-color:#91CFC1"/>
		<stop  offset="1" style="stop-color:#BAD1AD"/>
	</linearGradient>
	<polygon class="st48" points="116.5,66.5 126.1,66.5 138.5,66.5 153,66.5 166.4,66.5 166.4,63.1 166.4,59.8 154.9,59.8 142.2,59.8 
		131.3,59.8 122.9,59.8 117.6,59.8 115.8,59.8 111.4,63.1 108.4,66.5 110.5,66.5 	"/>
	
		<linearGradient id="SVGID_49_" gradientUnits="userSpaceOnUse" x1="115.8" y1="437.9" x2="166.5" y2="437.9" gradientTransform="matrix(1 0 0 -1 0 494)">
		<stop  offset="0" style="stop-color:#91CFC1"/>
		<stop  offset="1" style="stop-color:#BAD1AD"/>
	</linearGradient>
	<polygon class="st49" points="122.9,59.8 131.3,59.8 142.2,59.8 154.9,59.8 166.4,59.8 166.5,58.2 166.5,55 166.5,53.7 166.5,53.3 
		166.5,52.6 166.5,52.5 166.5,52.4 157.7,52.5 149.7,52.5 146.7,52.5 135.7,53.1 132.7,53.4 124.9,55 117.8,58.2 115.8,59.8 
		117.6,59.8 	"/>
	
		<linearGradient id="SVGID_50_" gradientUnits="userSpaceOnUse" x1="98.9249" y1="398.95" x2="124.6895" y2="398.95" gradientTransform="matrix(1 0 0 -1 0 494)">
		<stop  offset="0" style="stop-color:#91CFC1"/>
		<stop  offset="1" style="stop-color:#BAD1AD"/>
	</linearGradient>
	<path class="st50" d="M100.4,108.2l1.3,2.8l4.3-2.2l11.3-3l5.3-0.8l0.3-1.1l1.1-2.3l0.8-3.6l-0.2-3.4l0.1-0.3l-0.2-3.5l-1.1-3.2
		l-1.5-2.1l-0.3-0.8l-1.9-2l-0.2-0.4l-1.7-1.7l-2.2-1.1l-2.6-0.4l-3,0.4l-0.5,0.2l-1.6,0.9l-2,1.7l-2.1,2.3l-0.6,0.8l-1.2,2.1
		l-1.4,3.2l-1.2,3.5l-0.1,0.3L99,97.8v3.6l0.2,2.3l0.3,1.1L100.4,108.2z M100.9,103.3l-0.2-2.7v-2.8L101,95l0.1-0.6l0.7-2.1l1.1-2.5
		l1.2-2.2l1.3-1.8l0.5-0.5l0.9-0.8l1.2-0.7l0.5-0.2l2.3-0.3l2,0.3l1.7,0.8l0.7,0.8l0.6,0.5l1.2,1.8l0.8,2.2l0.1,0.8l0.6,1.7l0.1,2.1
		l0.2,0.6l0.1,2.8l-0.6,2.8l-0.3,0.6l-1,0.1l-9.6,2.4l-2,0.5l-3.7,1.9l-0.2-0.5l-0.7-2L100.9,103.3z"/>
	
		<linearGradient id="SVGID_51_" gradientUnits="userSpaceOnUse" x1="31" y1="192.7" x2="205.3" y2="192.7" gradientTransform="matrix(1 0 0 -1 0 494)">
		<stop  offset="0" style="stop-color:#91CFC1"/>
		<stop  offset="1" style="stop-color:#BAD1AD"/>
	</linearGradient>
	<polygon class="st51" points="90.2,291.6 100.1,297.5 105.1,299.2 108.7,300.5 124.3,305.1 136.5,307 136.4,306.3 136.1,305.1 
		134.8,298.6 143.6,300.3 168.6,302.1 193.6,300.3 202.3,298.6 201,305.1 200.8,306.3 200.7,306.9 202.6,306.4 204,306 204.9,305.6 
		205.3,305.3 205.3,305.1 205.3,297.5 205.3,293 204.9,291.9 204,291.1 202.6,290.6 201.1,290.5 200.7,290.4 198.5,290.1 
		196.2,290.2 168.6,293.6 135.5,289.5 129.8,287.6 124.8,284.3 111.2,276 107.5,269.3 103.7,263.6 96.4,263.6 95.6,265.3 90.4,276 
		90.3,276.3 91.3,277.5 91.8,278.7 91.8,279.6 91.1,280.2 90,280.5 88.3,280.5 86.2,280.2 83.7,279.6 81,278.8 78.1,277.7 
		75.2,276.3 72.3,274.9 69.6,273.3 67.2,271.7 65.2,270.2 63.6,268.7 62.5,267.4 62,266.2 62,265.3 58.7,272.2 55.3,270.6 
		54.9,271.4 54.1,273.2 52.8,276 51.2,279.5 49.2,283.7 47,288.3 44.6,293.3 42.1,298.5 39.7,303.5 37.4,308.3 35.3,312.7 
		33.5,316.4 32,319.4 31,321.5 67.5,339 68.5,336.9 70,333.9 71.8,330.2 73.9,325.8 76.2,321 78.7,316 81.1,310.8 83.5,305.8 
		85.7,301.2 87.7,297 89.2,293.8 89.4,293.5 	"/>
	
		<linearGradient id="SVGID_52_" gradientUnits="userSpaceOnUse" x1="64.5" y1="228.8" x2="96.7" y2="228.8" gradientTransform="matrix(1 0 0 -1 0 494)">
		<stop  offset="0" style="stop-color:#91CFC1"/>
		<stop  offset="1" style="stop-color:#BAD1AD"/>
	</linearGradient>
	<polygon class="st52" points="65.6,264.4 64.5,266.5 64.5,267.3 64.9,268.2 65.8,269.3 67.1,270.6 68.8,271.9 70.8,273.2 
		73.1,274.5 75.4,275.7 77.9,276.8 80.3,277.7 82.6,278.4 84.6,278.9 86.4,279.2 87.8,279.2 88.7,278.9 89.3,278.4 90.3,276.3 
		90.4,276 95.6,265.3 96.4,263.6 96.7,262.9 96.2,263.4 95.2,263.7 93.8,263.7 92,263.5 90,263 87.7,262.3 85.3,261.4 82.9,260.3 
		80.5,259.1 78.2,257.8 76.2,256.5 74.5,255.2 73.2,254 72.3,252.9 71.9,251.9 71.9,251.2 71.7,251.7 71.1,252.9 70.8,253.5 
		70.4,254.3 70.2,254.7 70.2,254.9 70.2,254.9 70.1,254.9 65.9,263.6 64.9,263.6 65.1,264.4 65.5,264.4 	"/>
	
		<linearGradient id="SVGID_53_" gradientUnits="userSpaceOnUse" x1="38.5812" y1="201.15" x2="50.4423" y2="201.15" gradientTransform="matrix(1 0 0 -1 0 494)">
		<stop  offset="0" style="stop-color:#91CFC1"/>
		<stop  offset="1" style="stop-color:#BAD1AD"/>
	</linearGradient>
	<polygon class="st53" points="40.4,301.9 41.9,298.8 43.4,295.7 44.9,292.5 45.4,291.5 46.3,289.6 46.7,288.6 47.6,286.9 48,286.1 
		48.7,284.6 49,283.9 49.5,282.7 49.8,282.2 50.1,281.4 50.3,281.1 50.4,280.6 50.1,281.3 49.4,282.6 48.5,284.5 47.4,286.8 
		46.1,289.5 44.7,292.4 43.2,295.6 41.7,298.7 40.2,301.8 38.6,305 38.8,305.1 39.4,303.9 	"/>
	
		<linearGradient id="SVGID_54_" gradientUnits="userSpaceOnUse" x1="154.0614" y1="375.3" x2="182.3614" y2="375.3" gradientTransform="matrix(1 0 0 -1 0 494)">
		<stop  offset="0" style="stop-color:#91CFC1"/>
		<stop  offset="1" style="stop-color:#BAD1AD"/>
	</linearGradient>
	<polygon class="st54" points="155.1,124 156.4,126.3 158.1,128.4 160.2,130.1 162.6,131.4 165.3,132.2 168.1,132.5 170.8,132.2 
		173.5,131.4 175.9,130.1 178.1,128.4 179.9,126.3 181.2,124 182,121.4 182.4,118.7 182.1,116 181.3,113.4 180.1,111 178.3,108.9 
		176.2,107.2 173.8,105.9 171.1,105.1 168.4,104.9 165.6,105.1 162.9,105.9 160.5,107.2 158.3,108.9 156.5,111 155.2,113.4 
		154.4,116 154.1,118.7 154.3,121.4 	"/>
	
		<linearGradient id="SVGID_55_" gradientUnits="userSpaceOnUse" x1="48.6" y1="417.95" x2="166.9" y2="417.95" gradientTransform="matrix(1 0 0 -1 0 494)">
		<stop  offset="0" style="stop-color:#91CFC1"/>
		<stop  offset="1" style="stop-color:#BAD1AD"/>
	</linearGradient>
	<polygon class="st55" points="51.1,128.4 52.3,128.4 54.1,127.9 58.2,127.1 63.3,126.5 65.6,126.3 69.5,125.6 76.6,124.6 
		84.6,123.8 93.3,123.2 99.9,122.8 102.8,122.5 112.8,121.7 123.4,121.1 134.3,120.6 145.6,120.4 146.6,120.4 146.5,118.7 
		146.7,116.5 146.9,114.5 148.2,110.5 150.3,106.9 153,103.7 156.3,101 157.8,100.3 160.1,99.1 164.2,97.9 166,97.9 166.2,79.7 
		166.5,51.9 166.7,36.4 166.8,28.9 166.8,25.1 166.8,24.6 166.8,23.6 166.8,23.6 166.8,23.5 166.9,23.3 166.9,23.2 159.8,23.6 
		166.9,23.2 156.7,23.6 166.9,23.1 149.9,23.6 141,24.7 137.1,25.1 147.3,24 150.7,23.6 138.4,25.1 147.3,24 137.6,25.1 137.1,25.1 
		137,25.1 121.9,28.9 104.8,36.4 86.5,51.9 67.6,79.7 51.5,116.5 48.6,129 49.3,128.6 	"/>
	
		<linearGradient id="SVGID_56_" gradientUnits="userSpaceOnUse" x1="171.3" y1="417.9" x2="288.5" y2="417.9" gradientTransform="matrix(1 0 0 -1 0 494)">
		<stop  offset="0" style="stop-color:#91CFC1"/>
		<stop  offset="1" style="stop-color:#BAD1AD"/>
	</linearGradient>
	<polygon class="st56" points="172.1,23.2 185.1,23.6 172.1,23.2 172.1,23.2 172.1,23.2 183.1,23.6 172.1,23.2 172.1,23.3 
		172.1,23.4 172.1,23.8 172.8,24 172.1,23.9 172.1,23.9 172.1,24.7 172.1,25.1 172.1,26.1 172,28.9 172,36.4 171.8,51.9 171.5,79.7 
		171.3,97.9 172.7,97.9 176.7,99.1 179.4,100.4 180.5,101 183.8,103.7 186.4,106.9 188.4,110.5 189.6,114.5 190,116.3 190,116.5 
		190.3,120.3 191.6,120.4 202.8,120.6 213.8,121.1 224.3,121.7 234.4,122.5 237.2,122.8 243.8,123.2 252.6,123.8 260.5,124.6 
		267.7,125.6 271.6,126.3 273.9,126.5 279,127.1 283.1,127.9 284.9,128.4 286.1,128.4 287.9,128.6 288.5,129 285.7,116.5 
		269.6,79.7 250.6,51.9 232.4,36.4 215.3,28.9 200.2,25.1 200,25.1 199.6,25.1 189.9,24 198.8,25.1 186.5,23.6 189.9,24 200,25.1 
		196.2,24.7 187.2,23.6 172.1,23.2 	"/>
</g>
<g>
	
		<linearGradient id="SVGID_57_" gradientUnits="userSpaceOnUse" x1="184.1078" y1="320.85" x2="186.4324" y2="320.85" gradientTransform="matrix(1 0 0 -1 0 494)">
		<stop  offset="0.103" style="stop-color:#A0C2E6"/>
		<stop  offset="0.6139" style="stop-color:#B8DBF3"/>
		<stop  offset="1" style="stop-color:#C6E9FA"/>
	</linearGradient>
	<polygon class="st57" points="185.1,174.7 185.1,174.9 185.4,171.6 185.4,171.4 	"/>
	
		<linearGradient id="SVGID_58_" gradientUnits="userSpaceOnUse" x1="49.3458" y1="210.8442" x2="54.7327" y2="210.8442" gradientTransform="matrix(1 0 0 -1 0 494)">
		<stop  offset="0.103" style="stop-color:#A0C2E6"/>
		<stop  offset="0.6139" style="stop-color:#B8DBF3"/>
		<stop  offset="1" style="stop-color:#C6E9FA"/>
	</linearGradient>
	<polygon class="st58" points="50.5,280.7 50.5,280.5 50.4,280.6 50.3,281.1 	"/>
	
		<linearGradient id="SVGID_59_" gradientUnits="userSpaceOnUse" x1="68.2554" y1="239.2432" x2="71.6362" y2="239.2432" gradientTransform="matrix(1 0 0 -1 0 494)">
		<stop  offset="0.103" style="stop-color:#A0C2E6"/>
		<stop  offset="0.6139" style="stop-color:#B8DBF3"/>
		<stop  offset="1" style="stop-color:#C6E9FA"/>
	</linearGradient>
	<polygon class="st59" points="68.4,254.6 70.1,254.9 70.2,254.9 	"/>
	
		<linearGradient id="SVGID_60_" gradientUnits="userSpaceOnUse" x1="47.2643" y1="253.118" x2="50.7182" y2="253.118" gradientTransform="matrix(1 0 0 -1 0 494)">
		<stop  offset="0.103" style="stop-color:#A0C2E6"/>
		<stop  offset="0.6139" style="stop-color:#B8DBF3"/>
		<stop  offset="1" style="stop-color:#C6E9FA"/>
	</linearGradient>
	<polygon class="st60" points="48,241.4 48.2,241.6 48.2,241.5 	"/>
	
		<linearGradient id="SVGID_61_" gradientUnits="userSpaceOnUse" x1="157.2766" y1="303.15" x2="163.8837" y2="303.15" gradientTransform="matrix(1 0 0 -1 0 494)">
		<stop  offset="0.103" style="stop-color:#A0C2E6"/>
		<stop  offset="0.6139" style="stop-color:#B8DBF3"/>
		<stop  offset="1" style="stop-color:#C6E9FA"/>
	</linearGradient>
	<path class="st61" d="M161.1,190.8l-0.1,0.1L161.1,190.8z"/>
	
		<linearGradient id="SVGID_62_" gradientUnits="userSpaceOnUse" x1="174.5061" y1="310.7" x2="178.0031" y2="310.7" gradientTransform="matrix(1 0 0 -1 0 494)">
		<stop  offset="0.103" style="stop-color:#A0C2E6"/>
		<stop  offset="0.6139" style="stop-color:#B8DBF3"/>
		<stop  offset="1" style="stop-color:#C6E9FA"/>
	</linearGradient>
	<polygon class="st62" points="175,184.1 175.2,184 177.5,182.5 177.3,182.6 	"/>
	
		<linearGradient id="SVGID_63_" gradientUnits="userSpaceOnUse" x1="182.0332" y1="303.0873" x2="187.5206" y2="303.0873" gradientTransform="matrix(1 0 0 -1 0 494)">
		<stop  offset="0.103" style="stop-color:#A0C2E6"/>
		<stop  offset="0.6139" style="stop-color:#B8DBF3"/>
		<stop  offset="1" style="stop-color:#C6E9FA"/>
	</linearGradient>
	<polygon class="st63" points="182.7,193.2 186.5,190.1 186.5,190 	"/>
	
		<linearGradient id="SVGID_64_" gradientUnits="userSpaceOnUse" x1="192.4806" y1="319.351" x2="194.9693" y2="319.351" gradientTransform="matrix(1 0 0 -1 0 494)">
		<stop  offset="0.103" style="stop-color:#A0C2E6"/>
		<stop  offset="0.6139" style="stop-color:#B8DBF3"/>
		<stop  offset="1" style="stop-color:#C6E9FA"/>
	</linearGradient>
	<polygon class="st64" points="193.5,177.2 193.6,176.2 194,172.2 194,172.1 193.5,177 	"/>
	
		<linearGradient id="SVGID_65_" gradientUnits="userSpaceOnUse" x1="176.7565" y1="316.3" x2="179.143" y2="316.3" gradientTransform="matrix(1 0 0 -1 0 494)">
		<stop  offset="0.103" style="stop-color:#A0C2E6"/>
		<stop  offset="0.6139" style="stop-color:#B8DBF3"/>
		<stop  offset="1" style="stop-color:#C6E9FA"/>
	</linearGradient>
	<polygon class="st65" points="178.1,177.9 178.1,177.9 178.1,177.5 	"/>
	
		<linearGradient id="SVGID_66_" gradientUnits="userSpaceOnUse" x1="150.6142" y1="322.5474" x2="186.4373" y2="322.5474" gradientTransform="matrix(1 0 0 -1 0 494)">
		<stop  offset="0.103" style="stop-color:#A0C2E6"/>
		<stop  offset="0.6139" style="stop-color:#B8DBF3"/>
		<stop  offset="1" style="stop-color:#C6E9FA"/>
	</linearGradient>
	<polygon class="st66" points="185.1,168.1 184.1,165 182.6,162.1 180.5,159.5 177.9,157.4 175,155.9 171.8,154.9 168.5,154.6 
		165.2,154.9 162.1,155.9 159.2,157.4 156.6,159.5 154.5,162.1 153.1,164.6 153.8,164.2 155.9,163.1 157,162.5 159.6,161.1 
		161.4,160.2 162.5,159.7 162.8,159.5 165.3,158.6 168,158.1 167.7,158.2 170.3,158.3 170.6,158.1 173.3,158.7 175.7,159.8 
		177.9,161.3 179.8,163.2 181.2,165.5 182.2,168 182.7,170.7 182.6,173.3 182,176 181,178.5 179.4,180.7 177.5,182.5 175.2,184 
		175,184.1 173.9,184.6 172.8,185.2 172.1,185.5 169.6,186.8 167.2,188.1 168.5,188.3 171.8,187.9 175,187 177.9,185.4 180.5,183.3 
		182.6,180.8 184.1,177.9 185.1,174.7 185.4,171.4 	"/>
	
		<linearGradient id="SVGID_67_" gradientUnits="userSpaceOnUse" x1="155.3804" y1="322.4454" x2="183.6628" y2="322.4454" gradientTransform="matrix(1 0 0 -1 0 494)">
		<stop  offset="0.103" style="stop-color:#A0C2E6"/>
		<stop  offset="0.6139" style="stop-color:#B8DBF3"/>
		<stop  offset="1" style="stop-color:#C6E9FA"/>
	</linearGradient>
	<polygon class="st67" points="175,184.1 177.3,182.6 177.5,182.5 179.4,180.7 181,178.5 182,176 182.6,173.3 182.7,170.7 
		182.2,168 181.2,165.5 179.8,163.2 177.9,161.3 175.7,159.8 173.3,158.7 170.6,158.1 170.3,158.3 167.7,158.2 168,158.1 
		165.3,158.6 162.8,159.5 162.5,159.7 161.4,160.2 159.6,161.1 157,162.5 155.9,163.1 158.2,162.2 160.7,161.7 163.5,161.8 
		164.3,161.9 166.2,162.3 168.8,163.3 171.2,164.7 173.4,166.4 175.3,168.5 176.7,170.7 177.7,173.1 178.2,175.5 178.1,177.5 
		178.1,177.9 177.4,180.2 176.3,182.2 174.7,183.9 172.8,185.2 173.9,184.6 	"/>
	
		<linearGradient id="SVGID_68_" gradientUnits="userSpaceOnUse" x1="111.3637" y1="302.4695" x2="162.1011" y2="302.4695" gradientTransform="matrix(1 0 0 -1 0 494)">
		<stop  offset="0.103" style="stop-color:#A0C2E6"/>
		<stop  offset="0.6139" style="stop-color:#B8DBF3"/>
		<stop  offset="1" style="stop-color:#C6E9FA"/>
	</linearGradient>
	<polygon class="st68" points="115.5,194 117.1,194.5 119,195.3 121.3,196.2 123.7,197.3 125.8,198.2 126.1,198.6 126.3,198.5 
		129,199.7 131.6,201 134,202.3 136.1,203.4 137.9,204.4 139.2,205.3 140.1,206 140.5,206.4 140.3,206.6 141.6,205.5 143.4,204.1 
		146.4,201.7 150.5,198.7 151.1,198.3 155.5,195.3 155.9,195 156.8,194.4 157.1,194.2 157.8,193.8 158.8,193.1 159.6,192.6 
		159.9,192.4 160,192.4 160.8,191.7 161,190.9 161.1,190.8 160.8,189.6 160,188.3 158.7,186.8 156.9,185.2 154.8,183.6 152.3,182 
		152,181.8 149.6,180.6 146.8,179.3 144,178.3 141.4,177.5 138.9,176.9 137.9,176.8 136.7,176.7 134.9,176.8 133.6,177.2 
		131.3,178.9 130.1,179.8 124.3,184.3 119.2,188.7 118.4,189.3 113.7,193.7 114.4,193.7 	"/>
	
		<linearGradient id="SVGID_69_" gradientUnits="userSpaceOnUse" x1="95.5137" y1="285.1383" x2="141.798" y2="285.1383" gradientTransform="matrix(1 0 0 -1 0 494)">
		<stop  offset="0.103" style="stop-color:#A0C2E6"/>
		<stop  offset="0.6139" style="stop-color:#B8DBF3"/>
		<stop  offset="1" style="stop-color:#C6E9FA"/>
	</linearGradient>
	<polygon class="st69" points="97.8,212.7 98.9,213.5 100.5,214.4 102.5,215.5 104.7,216.7 107.1,217.9 109.6,219.1 112.1,220.3 
		112.1,220.2 112.3,220.4 114.5,221.3 116.7,222.3 118.7,223 120.2,223.6 121.4,223.9 122.1,224 122.4,223.9 126.3,219.6 
		131.5,214.4 131.6,214.3 136.6,209.8 140.3,206.6 140.5,206.4 140.1,206 139.2,205.3 137.9,204.4 136.1,203.4 134,202.3 131.6,201 
		129,199.7 126.3,198.5 126.1,198.6 125.8,198.2 123.7,197.3 121.3,196.2 119,195.3 117.1,194.5 115.5,194 114.4,193.7 113.7,193.7 
		112.4,194.8 108.5,198.7 107.5,199.8 106.4,200.8 100.5,207.3 97.5,210.9 96.8,211.8 97,212.1 	"/>
	
		<linearGradient id="SVGID_70_" gradientUnits="userSpaceOnUse" x1="79.3363" y1="260.175" x2="119.2481" y2="260.175" gradientTransform="matrix(1 0 0 -1 0 494)">
		<stop  offset="0.103" style="stop-color:#A0C2E6"/>
		<stop  offset="0.6139" style="stop-color:#B8DBF3"/>
		<stop  offset="1" style="stop-color:#C6E9FA"/>
	</linearGradient>
	<polygon class="st70" points="80.9,236.6 81.9,237.6 83.2,238.8 85,240 87.1,241.2 89.3,242.5 91.7,243.7 94.2,244.8 96.6,245.7 
		98.8,246.5 100.8,247.1 102.5,247.4 103.9,247.5 104.8,247.4 105.2,247 106.7,244.5 111.3,237.6 111.4,237.6 113.9,234.2 
		113.6,234.5 112.7,234.5 111.5,234.3 109.8,233.9 107.8,233.2 105.6,232.4 103.2,231.3 100.7,230.2 98.3,229 95.9,227.8 
		93.8,226.6 92,225.4 90.5,224.3 89.4,223.4 89,223 88.8,222.7 88.7,222.2 88.6,222.4 85.7,226.6 83.4,230.1 81.5,233.3 80.4,235.2 
		80.4,235.8 	"/>
	
		<linearGradient id="SVGID_71_" gradientUnits="userSpaceOnUse" x1="37.6942" y1="304.15" x2="299.3006" y2="304.15" gradientTransform="matrix(1 0 0 -1 0 494)">
		<stop  offset="0.103" style="stop-color:#A0C2E6"/>
		<stop  offset="0.6139" style="stop-color:#B8DBF3"/>
		<stop  offset="1" style="stop-color:#C6E9FA"/>
	</linearGradient>
	<path class="st71" d="M43.9,216.1h3h1l0.2-2.7l1.2-4.4l0.8-0.6l1.3-0.8l2.8,1.5l1.6,2.2l2,2.2l4.2,7.1l2.1,4.7l0.8,1.4l2.5,3.4
		l3.7,5.8l4.1,5.8L76,243l0.1-0.1l2.1-4.1l0.4-0.6l1.7-2.9l1.1-1.9l2-3.3l2.3-3.4l2.9-4.3l0.1-0.2l0.2-0.3l5.7-7.6l2.2-2.6l0.8-0.9
		l2.9-3.5l6-6.5l1-1l1.1-1.1l3.9-3.9l1.3-1.2l4.7-4.3l0.8-0.7l5.1-4.3l5.7-4.5l1.3-0.9l2.3-1.7l2-1.4l5.2-3.6l2.5-1.6l0.3-3.4
		l0.1-0.4l1.3-4.3l1.8-3.3l0.6-1.1l3.2-3.8l3.9-3.2l1.9-1l2.5-1.3l4.8-1.4l5-0.5l0,0l4.9,0.5l4.8,1.4l2.5,1.4l1.9,1l3.9,3.2l3.2,3.8
		l0.6,1.1l1.8,3.3l1.4,4.6v0.1l0.5,4.9v0.1l-0.4,4l-0.1,1l-1.4,4.7l-2.3,4.4l-3.2,3.8l-3.9,3.1l-0.7,0.4l-0.7,0.4l-3,1.6l-4.8,1.4
		l-4.9,0.4l0,0l-4.9-0.4l-4.8-1.4l-2-1.1l-0.9,0.6l-0.4,0.3l-4.4,3l-0.6,0.4l-4,3l-3,2.4l-1.9,1.5l-1.2,1L137,210l-5,4.6l-0.1,0.1
		l-5.1,5.1l-4,4.3l-1.1,1.2l-0.7,0.9l-0.6,0.7l-3.7,4.5l-2.1,2.8l-0.2,0.2l-2.6,3.4v0.1l-4.6,6.9l-1.5,2.5l-1,1.7h9h10.2H135h11.1
		h11.5h11.5h11.5h11.5h11.1h11.1h10.2h10.2h8.9h8.9h7.3h7.3h5.5h5.5h3.4h3.4h1.1h1.1l7.4-22.1l4.4-27.9l-3-39.6l-4.6-20.1l-0.6-0.1
		l-1.8-0.1h-1.2l-0.5-0.1l-1.3-0.4l-4.2-0.8L276,137l-2.3-0.2l-4-0.7l-7.3-1l-8.1-0.8l-8.9-0.7l-6.7-0.3l-2.9-0.3l-10.3-0.8
		l-10.8-0.7l-11.2-0.5l-11.5-0.3h-4.7l-0.9,1.5l-2.7,3.2l-3.2,2.6l-0.1,0.1l-3.8,2l-4.1,1.2l-4,0.4h-0.2l-4.2-0.4L160,140l-3.4-1.8
		l-0.3-0.2l-3.3-2.6l-2.7-3.2l-0.8-1.5h-4.4l-11.5,0.3l-11.2,0.5l-10.8,0.7l-10.3,0.8l-2.9,0.3l-6.7,0.3l-8.9,0.7l-8.1,0.8l-7.3,1
		l-4,0.7l-2.3,0.2l-5.2,0.6l-4.2,0.8l-1.3,0.4l-0.5,0.1h-1.2l-1.8,0.1l-0.6,0.1l-4.6,20.1l-3,39.6l2.7,17.4H42h1.9V216.1z
		 M284.4,151.9l0.5-2.5l0.8-1.9l1.1-1.2l0.4-0.1l0.7-0.3l1.1,0.4l1.2,1.2l0.4,0.6l0.7,1.3l1,2.5l1.1,3.1l1.1,3.5l0.2,0.6l0.4,3.2
		l0.4,4l2.5,32.5l-3,19.3l-0.7,4l-0.8,3.8l-0.2,0.8l-1.1,2.7l-1.4,3.1l-1.3,2.5l-0.7,1.1l-0.6,0.8l-1.4,1.2h-0.1l-1.2,0.4l-0.6-0.2
		l-0.5-0.2l-0.6-1l-0.1-0.1l-0.6-1.9l-0.2-2.3v-0.2v-3.1l0.3-2.7l-0.1-0.8l0.1-3.8l0.5-4l3.3-19.3l-2.7-32.5l-0.1-4l0.2-3.2
		l-0.1-0.6v-3.5l0.3-2.5L284.4,151.9z"/>
	
		<linearGradient id="SVGID_72_" gradientUnits="userSpaceOnUse" x1="45.1056" y1="364.1852" x2="151.2806" y2="364.1852" gradientTransform="matrix(1 0 0 -1 0 494)">
		<stop  offset="0.103" style="stop-color:#A0C2E6"/>
		<stop  offset="0.6139" style="stop-color:#B8DBF3"/>
		<stop  offset="1" style="stop-color:#C6E9FA"/>
	</linearGradient>
	<polygon class="st72" points="48.7,138.8 49.9,138.8 50.5,138.7 51.8,138.4 56,137.6 61.2,137 63.5,136.8 67.5,136.1 74.8,135.1 
		82.9,134.2 91.8,133.6 98.6,133.2 101.4,132.9 111.7,132.1 122.5,131.4 133.6,131 145.1,130.7 149.5,130.7 148.4,128.5 
		147.2,124.6 146.8,122.8 146.6,120.4 145.6,120.4 134.3,120.6 133.7,120.6 123.4,121.1 119.4,121.3 112.8,121.7 110,121.9 
		108.5,122.1 102.8,122.5 101.9,122.6 99.9,122.8 99.6,122.9 93.3,123.2 84.6,123.8 76.6,124.6 69.5,125.6 65.6,126.3 63.3,126.5 
		58.2,127.1 54.1,127.9 52.3,128.4 51.1,128.4 49.3,128.6 48.6,129 46.4,139 47,138.9 	"/>
	
		<linearGradient id="SVGID_73_" gradientUnits="userSpaceOnUse" x1="46.8232" y1="265.9216" x2="77.2066" y2="265.9216" gradientTransform="matrix(1 0 0 -1 0 494)">
		<stop  offset="0.103" style="stop-color:#A0C2E6"/>
		<stop  offset="0.6139" style="stop-color:#B8DBF3"/>
		<stop  offset="1" style="stop-color:#C6E9FA"/>
	</linearGradient>
	<polygon class="st73" points="62.9,232.8 63.1,234.9 63,235.6 63,236.7 62.6,238.2 62,239.3 62,239.4 61,240 61,240 59.9,240.3 
		58.9,240.3 56.9,240.3 55.4,240.3 53.3,240.3 51.5,240.3 51.9,241.7 54.2,248.7 56.2,248.7 59.6,248.7 65,248.7 70.5,248.7 
		73.1,248.7 73.6,247.8 76.1,242.9 75.3,241.7 71.1,235.9 67.4,230 64.8,226.6 64.1,225.2 62,220.5 57.8,213.4 55.8,211.2 54.2,209 
		51.4,207.6 50.1,208.4 49.3,209 48.1,213.4 47.9,216.1 51.2,216.1 52.9,216.1 54,216.4 55.2,217 56.4,218.2 56.9,218.8 57.7,219.7 
		58.9,221.5 60,223.6 60.8,225.8 61,226.6 61.7,228.2 62.5,230.6 	"/>
	
		<linearGradient id="SVGID_74_" gradientUnits="userSpaceOnUse" x1="87.6382" y1="271.1802" x2="127.9375" y2="271.1802" gradientTransform="matrix(1 0 0 -1 0 494)">
		<stop  offset="0.103" style="stop-color:#A0C2E6"/>
		<stop  offset="0.6139" style="stop-color:#B8DBF3"/>
		<stop  offset="1" style="stop-color:#C6E9FA"/>
	</linearGradient>
	<polygon class="st74" points="89,223 89.4,223.4 90.5,224.3 92,225.4 93.8,226.6 95.9,227.8 98.3,229 100.7,230.2 103.2,231.3 
		105.6,232.4 107.8,233.2 109.8,233.9 111.5,234.3 112.7,234.5 113.6,234.5 113.9,234.2 114.1,234 116.2,231.1 120,226.6 120.5,226 
		121.3,225.1 122.4,223.9 122.1,224 121.4,223.9 120.2,223.6 118.7,223 116.7,222.3 114.5,221.3 112.3,220.4 112.1,220.2 
		112.1,220.3 109.6,219.1 107.1,217.9 104.7,216.7 102.5,215.5 100.5,214.4 98.9,213.5 97.8,212.7 97,212.1 96.8,211.8 94.6,214.4 
		88.9,221.9 88.7,222.2 88.8,222.7 	"/>
	
		<linearGradient id="SVGID_75_" gradientUnits="userSpaceOnUse" x1="128.3553" y1="314.5018" x2="195.0246" y2="314.5018" gradientTransform="matrix(1 0 0 -1 0 494)">
		<stop  offset="0.103" style="stop-color:#A0C2E6"/>
		<stop  offset="0.6139" style="stop-color:#B8DBF3"/>
		<stop  offset="1" style="stop-color:#C6E9FA"/>
	</linearGradient>
	<polygon class="st75" points="136.7,176.7 137.9,176.8 138.9,176.9 141.4,177.5 144,178.3 146.8,179.3 149.6,180.6 152,181.8 
		152.3,182 154.8,183.6 156.9,185.2 158.7,186.8 160,188.3 160.8,189.6 161.1,190.8 161.1,190.8 161,190.9 160.8,191.7 160,192.4 
		159.9,192.4 159.6,192.6 158.8,193.1 157.8,193.8 157.1,194.2 156.8,194.4 158.8,195.5 163.6,196.9 168.5,197.3 168.6,197.3 
		173.5,196.9 178.3,195.5 181.3,193.9 182,193.5 182.7,193.2 186.5,190 186.5,190.1 189.7,186.3 192,181.9 193.5,177.2 193.5,177 
		194,172.1 193.8,172 193.1,171.8 192.2,171.7 190.9,171.6 189.4,171.6 187.8,171.6 185.4,171.6 185.1,174.9 185.1,174.7 
		184.1,177.9 182.6,180.8 180.5,183.3 177.9,185.4 175,187 171.8,187.9 168.5,188.3 167.2,188.1 169.6,186.8 172.1,185.5 
		172.8,185.2 174.7,183.9 176.3,182.2 177.4,180.2 178.1,177.9 178.1,177.9 178.1,177.5 178.2,175.5 177.7,173.1 176.7,170.7 
		175.3,168.5 173.4,166.4 171.2,164.7 168.8,163.3 166.2,162.3 164.3,161.9 163.5,161.8 160.7,161.7 158.2,162.2 155.9,163.1 
		153.8,164.2 153.1,164.6 150.1,166.3 150,166.4 148.1,167.5 146.5,168.5 145.6,169.1 145.2,169.3 144.1,170 143.5,170.4 
		143.3,170.6 140.8,172.2 135.6,175.8 133.6,177.2 134.9,176.8 	"/>
	
		<linearGradient id="SVGID_76_" gradientUnits="userSpaceOnUse" x1="61" y1="221.55" x2="92.8453" y2="221.55" gradientTransform="matrix(1 0 0 -1 0 494)">
		<stop  offset="0.103" style="stop-color:#A0C2E6"/>
		<stop  offset="0.6139" style="stop-color:#B8DBF3"/>
		<stop  offset="1" style="stop-color:#C6E9FA"/>
	</linearGradient>
	<polygon class="st76" points="62.5,267.4 63.6,268.7 65.2,270.2 67.2,271.7 69.6,273.3 72.3,274.9 75.2,276.3 78.1,277.7 81,278.8 
		83.7,279.6 86.2,280.2 88.3,280.5 90,280.5 91.1,280.2 91.8,279.6 91.8,278.7 91.3,277.5 90.3,276.3 89.3,278.4 88.7,278.9 
		87.8,279.2 86.4,279.2 84.6,278.9 82.6,278.4 80.3,277.7 77.9,276.8 75.4,275.7 73.1,274.5 70.8,273.2 68.8,271.9 67.1,270.6 
		65.8,269.3 64.9,268.2 64.5,267.3 64.5,266.5 65.6,264.4 65.5,264.4 65.1,264.4 63.8,264.4 62.7,264.7 62,265.3 62,266.2 	"/>
	
		<linearGradient id="SVGID_77_" gradientUnits="userSpaceOnUse" x1="142.0621" y1="334.1961" x2="195.1795" y2="334.1961" gradientTransform="matrix(1 0 0 -1 0 494)">
		<stop  offset="0.103" style="stop-color:#A0C2E6"/>
		<stop  offset="0.6139" style="stop-color:#B8DBF3"/>
		<stop  offset="1" style="stop-color:#C6E9FA"/>
	</linearGradient>
	<polygon class="st77" points="144.1,170 145.2,169.3 145.6,169.1 146.5,168.5 148.1,167.5 150,166.4 150.1,166.3 153.1,164.6 
		154.5,162.1 156.6,159.5 159.2,157.4 162.1,155.9 165.2,154.9 168.5,154.6 171.8,154.9 175,155.9 177.9,157.4 180.5,159.5 
		182.6,162.1 184.1,165 185.1,168.1 185.4,171.4 185.4,171.6 187.8,171.6 189.4,171.6 190.9,171.6 192.2,171.7 193.1,171.8 
		193.8,172 194,172.1 193.5,167.2 193.4,167 192,162.4 190.3,159.1 189.7,158 186.5,154.2 182.7,151 180.8,150 178.3,148.7 
		173.5,147.3 168.6,146.8 168.5,146.8 163.6,147.3 158.8,148.7 156.4,150 154.4,151 150.6,154.2 147.4,158 146.8,159.1 145,162.4 
		143.7,166.7 143.6,167.2 143.3,170.6 143.5,170.4 	"/>
	
		<linearGradient id="SVGID_78_" gradientUnits="userSpaceOnUse" x1="46.3429" y1="249.5" x2="55.5707" y2="249.5" gradientTransform="matrix(1 0 0 -1 0 494)">
		<stop  offset="0.103" style="stop-color:#A0C2E6"/>
		<stop  offset="0.6139" style="stop-color:#B8DBF3"/>
		<stop  offset="1" style="stop-color:#C6E9FA"/>
	</linearGradient>
	<polygon class="st78" points="52.8,248.7 54.2,248.7 51.9,241.7 51.5,240.3 51.2,240.3 50.1,240.3 49.4,240.3 48.7,240.3 48,240.3 
		47.7,240.3 48.1,241.2 48.2,241.5 48.2,241.6 50.6,248.7 51.7,248.7 	"/>
	
		<linearGradient id="SVGID_79_" gradientUnits="userSpaceOnUse" x1="39.9499" y1="259.75" x2="64.0959" y2="259.75" gradientTransform="matrix(1 0 0 -1 0 494)">
		<stop  offset="0.103" style="stop-color:#A0C2E6"/>
		<stop  offset="0.6139" style="stop-color:#B8DBF3"/>
		<stop  offset="1" style="stop-color:#C6E9FA"/>
	</linearGradient>
	<polygon class="st79" points="48.7,240.3 49.4,240.3 50.1,240.3 51.2,240.3 51.5,240.3 53.3,240.3 55.4,240.3 56.9,240.3 
		58.9,240.3 59.9,240.3 61,240 61,240 62,239.4 62,239.3 62.6,238.2 63,236.7 63,235.6 63.1,234.9 62.9,232.8 62.5,230.6 
		61.7,228.2 40.9,228.2 40.9,229.6 40.9,230.4 40.9,230.6 40.9,232.8 40.9,233.4 40.9,234.9 40.9,236.7 40.9,238.2 40.9,238.8 
		40.9,239.4 40.9,240 40.9,240.3 42.2,240.3 46.8,240.3 47.7,240.3 48,240.3 	"/>
	
		<linearGradient id="SVGID_80_" gradientUnits="userSpaceOnUse" x1="39.9489" y1="271.85" x2="63.2254" y2="271.85" gradientTransform="matrix(1 0 0 -1 0 494)">
		<stop  offset="0.103" style="stop-color:#A0C2E6"/>
		<stop  offset="0.6139" style="stop-color:#B8DBF3"/>
		<stop  offset="1" style="stop-color:#C6E9FA"/>
	</linearGradient>
	<polygon class="st80" points="40.9,227.7 40.9,228.2 61.7,228.2 61,226.6 60.8,225.8 60,223.6 58.9,221.5 57.7,219.7 56.9,218.8 
		56.4,218.2 55.2,217 54,216.4 52.9,216.1 51.2,216.1 47.9,216.1 47,216.1 43.9,216.1 42.1,216.1 41.5,216.1 40.9,216.1 40.9,216.4 
		40.9,217 40.9,218.2 40.9,219.7 40.9,221.5 40.9,223.6 40.9,225.8 40.9,226.3 40.9,226.6 	"/>
	
		<linearGradient id="SVGID_81_" gradientUnits="userSpaceOnUse" x1="44.5403" y1="245.8037" x2="292.5944" y2="245.8037" gradientTransform="matrix(1 0 0 -1 0 494)">
		<stop  offset="0.103" style="stop-color:#A0C2E6"/>
		<stop  offset="0.6139" style="stop-color:#B8DBF3"/>
		<stop  offset="1" style="stop-color:#C6E9FA"/>
	</linearGradient>
	<polygon class="st81" points="284.3,248.7 281,248.7 277.6,248.7 272.2,248.7 266.7,248.7 259.4,248.7 252,248.7 243.1,248.7 
		234.1,248.7 223.9,248.7 213.7,248.7 202.7,248.7 191.6,248.7 180.1,248.7 168.6,248.7 157.1,248.7 145.6,248.7 134.5,248.7 
		123.4,248.7 113.2,248.7 104.2,248.7 105.2,247 104.8,247.4 103.9,247.5 102.5,247.4 100.8,247.1 98.8,246.5 96.6,245.7 
		94.2,244.8 91.7,243.7 89.3,242.5 87.1,241.2 85,240 83.2,238.8 81.9,237.6 80.9,236.6 80.4,235.8 80.4,235.2 78.6,238.1 
		78.3,238.7 76.1,242.8 76.1,242.9 73.6,247.8 73.1,248.7 70.5,248.7 65,248.7 59.6,248.7 56.2,248.7 54.2,248.7 52.8,248.7 
		51.7,248.7 50.6,248.7 56.2,250.6 61.3,252.3 62.6,252.8 65.1,253.6 67.5,254.5 64.9,263.6 65.9,263.6 70.1,254.9 68.4,254.6 
		70.2,254.9 70.2,254.9 70.2,254.7 70.4,254.3 70.8,253.5 71.1,252.9 71.7,251.7 71.9,251.2 71.9,251.9 72.3,252.9 73.2,254 
		74.5,255.2 76.2,256.5 78.2,257.8 80.5,259.1 82.9,260.3 85.3,261.4 87.7,262.3 90,263 92,263.5 93.8,263.7 95.2,263.7 96.2,263.4 
		96.7,262.9 96.4,263.6 103.7,263.6 128.9,263.6 168.6,263.6 208.3,263.6 241.9,263.6 264.4,263.6 272.3,263.6 269.7,254.5 
		286.6,248.7 285.5,248.7 	"/>
	
		<linearGradient id="SVGID_82_" gradientUnits="userSpaceOnUse" x1="281.5291" y1="301.9105" x2="298.7597" y2="301.9105" gradientTransform="matrix(1 0 0 -1 0 494)">
		<stop  offset="0.103" style="stop-color:#A0C2E6"/>
		<stop  offset="0.6139" style="stop-color:#B8DBF3"/>
		<stop  offset="1" style="stop-color:#C6E9FA"/>
	</linearGradient>
	<path class="st82" d="M284,158.5l0.1,0.6l-0.2,3.2l0.1,4l2.7,32.5l-3.3,19.3l-0.5,4l-0.1,3.8l0.1,0.8l-0.3,2.7v3.1v0.2l0.2,2.3
		l0.6,1.9l0.1,0.1l0.6,1l0.5,0.2l0.6,0.2l1.2-0.4h0.1l1.4-1.2l0.6-0.8l0.7-1.1l1.3-2.5l1.4-3.1l1.1-2.7l0.2-0.8l0.8-3.8l0.7-4
		l3-19.3l-2.5-32.5l-0.4-4l-0.4-3.2l-0.2-0.6l-1.1-3.5l-1.1-3.1l-1-2.5l-0.7-1.3l-0.4-0.6l-1.2-1.2l-1.1-0.4l-0.7,0.3l-0.4,0.1
		l-1.1,1.2l-0.8,1.9l-0.5,2.5v0.6L284,155V158.5z M288.9,153.2l0.6-0.3l0.7,0.3l0.8,0.8l0.9,1.2l0.5,0.9l0.3,0.7l0.7,2l0.1,0.2
		l0.3,2.1l0.3,2.5l0.3,2.9l2.4,32.1l-3,19l-0.5,2.9l-0.5,2.5l-0.5,2.3l-0.3,1.2l-0.4,0.8l-0.3,0.6l-0.7,1.1l-1,1.2l-0.9,0.8
		l-0.7,0.3h-0.1l-0.6-0.2l-0.1-0.1l-0.4-0.6l-0.1-0.1l-0.4-1.2l-0.1-1.7l0.1-0.8l-0.2-1.2l-0.1-2.3l0.1-2.5l0.4-2.9l3.1-19
		l-2.5-32.1l-0.1-2.9l0.1-2.5l0.2-2.1v-0.2l0.1-2l0.3-1.7l0.5-1.2l0.5-0.5L288.9,153.2z"/>
	
		<linearGradient id="SVGID_83_" gradientUnits="userSpaceOnUse" x1="185.7154" y1="364.2739" x2="292.1095" y2="364.2739" gradientTransform="matrix(1 0 0 -1 0 494)">
		<stop  offset="0.103" style="stop-color:#A0C2E6"/>
		<stop  offset="0.6139" style="stop-color:#B8DBF3"/>
		<stop  offset="1" style="stop-color:#C6E9FA"/>
	</linearGradient>
	<polygon class="st83" points="235.3,122.6 234.4,122.5 228.6,122.1 227.2,121.9 224.3,121.7 217.8,121.3 213.8,121.1 203.5,120.6 
		202.8,120.6 191.6,120.4 190.3,120.3 190.3,120.4 189.9,124.6 188.6,128.5 187.4,130.7 192.1,130.7 203.5,131 214.7,131.4 
		225.5,132.1 235.7,132.9 238.6,133.2 245.3,133.6 254.2,134.2 262.4,135.1 269.7,136.1 273.7,136.8 276,137 281.2,137.6 
		285.4,138.4 286.7,138.7 287.2,138.8 288.4,138.8 290.2,138.9 290.8,139 288.5,129 287.9,128.6 286.1,128.4 284.9,128.4 
		283.1,127.9 279,127.1 273.9,126.5 271.6,126.3 267.7,125.6 260.5,124.6 252.6,123.8 243.8,123.2 237.6,122.9 237.2,122.8 	"/>
	
		<linearGradient id="SVGID_84_" gradientUnits="userSpaceOnUse" x1="284.9991" y1="301.8743" x2="297.7059" y2="301.8743" gradientTransform="matrix(1 0 0 -1 0 494)">
		<stop  offset="0.103" style="stop-color:#A0C2E6"/>
		<stop  offset="0.6139" style="stop-color:#B8DBF3"/>
		<stop  offset="1" style="stop-color:#C6E9FA"/>
	</linearGradient>
	<polygon class="st84" points="287.7,155.2 287.4,156.9 287.3,158.9 287.3,159.1 287.1,161.2 287,163.7 287.1,166.6 289.7,198.7 
		286.5,217.7 286.1,220.6 286,223.1 286.1,225.4 286.2,226.6 286.2,227.5 286.3,229.1 286.7,230.3 286.7,230.4 287.1,231 
		287.2,231.1 287.7,231.3 287.8,231.3 288.6,231.1 289.5,230.3 290.5,229.1 291.2,228 291.5,227.5 291.8,226.6 292.2,225.4 
		292.7,223.1 293.2,220.6 293.7,217.7 296.7,198.7 294.3,166.6 294,163.7 293.7,161.2 293.4,159.1 293.3,158.9 292.6,156.9 
		292.3,156.1 291.8,155.2 291,154 290.2,153.2 289.4,153 288.9,153.2 288.7,153.5 288.2,154 	"/>
	
		<linearGradient id="SVGID_85_" gradientUnits="userSpaceOnUse" x1="94.6971" y1="425.409" x2="242.3029" y2="425.409" gradientTransform="matrix(1 0 0 -1 0 494)">
		<stop  offset="0.103" style="stop-color:#A0C2E6"/>
		<stop  offset="0.6139" style="stop-color:#B8DBF3"/>
		<stop  offset="1" style="stop-color:#C6E9FA"/>
	</linearGradient>
	<path class="st85" d="M101.9,122.6l0.9-0.1l5.7-0.5l1.5-0.1l2.8-0.2l6.6-0.4l4-0.2l10.3-0.4h0.6l11.2-0.3h1l-0.2-1.7l0.5-4.1
		l0.5-1.5l0.8-2.5l1.7-3l0.4-0.7l2.6-3.1l0.1-0.1l3.3-2.6l3.8-2l4.1-1.2h1.8h5h0.2h1.4l4.1,1.2l3.7,2l3.3,2.6l0.1,0.1l2.6,3.1
		l0.9,1.6l1.1,2.1l0.8,2.5l0.4,1.5l0.4,1.8l0.4,4.1h1.3l11.2,0.3h0.6l10.3,0.4l4,0.2l6.6,0.4l2.8,0.2l1.5,0.1l5.7,0.5l0.9,0.1
		l1.9,0.2h0.4l0.4-0.9l2.4-8.9l1-9.3l-0.5-9.3l-1.9-9.1l-3.2-8.4l-4.5-7.5l-2.6-2.9h-2.1h-6h-9.6h-12.4H184h-12.5v-3.4v-3.3v-1.6V55
		v-1.1v-0.5v-0.6v-0.2l0,0l0.4-36.9h-0.1l-0.1-0.2l-0.1-0.3l-0.1-0.5l-0.5,0.2l-1.3,0.3l-0.9,0.1l-0.9-0.1l-1.3-0.3l-0.2-0.1v0.5
		v0.3v0.1L166,52.5l0,0v0.2v0.7v0.4v1.3v3.3V60v3.3v3.4h-13h-14.5h-12.4h-9.6h-6h-2.1l-2.6,2.9l-4.5,7.5l-3.2,8.4l-1.9,9.1l-0.5,9.3
		l1,9.3l2.4,8.9l0.4,0.9h0.4L101.9,122.6z M98.9,101.5v-3.6l0.3-3.4l0.1-0.3l1.2-3.5l1.4-3.2l1.2-2.1l0.6-0.8l2.1-2.3l2-1.7l1.6-0.9
		l0.5-0.2l3-0.4l2.6,0.4l2.2,1.1l1.7,1.7l0.2,0.4l1.9,2l0.3,0.8l1.5,2.1l1.1,3.2l0.2,3.5l-0.1,0.3l0.2,3.4l-0.8,3.6l-1.1,2.3
		l-0.3,1.1l-5.3,0.8l-11.3,3l-4.3,2.2l-1.3-2.8l-1.1-3.2l-0.3-1.1L98.9,101.5z"/>
	
		<linearGradient id="SVGID_86_" gradientUnits="userSpaceOnUse" x1="160.9637" y1="485.5063" x2="178.0833" y2="485.5063" gradientTransform="matrix(1 0 0 -1 0 494)">
		<stop  offset="0.103" style="stop-color:#A0C2E6"/>
		<stop  offset="0.6139" style="stop-color:#B8DBF3"/>
		<stop  offset="1" style="stop-color:#C6E9FA"/>
	</linearGradient>
	<polygon class="st86" points="166.9,15.2 166.9,14.6 167.2,14.7 168.4,15 169.3,15.1 170.2,15 171.5,14.7 172,14.6 172,15.1 
		172.1,15.4 172.1,15.6 173,15.3 174.5,14.2 175.6,12.8 176,12.2 176.8,10.5 177.1,8.6 176.8,6.6 176.1,4.9 174.9,3.3 174.4,2.9 
		173,1.9 171.4,1.3 170.9,1.1 170.3,1 169.5,1 168.8,1 168.2,1.1 166.8,1.6 166,1.9 164.6,2.9 163.4,4.3 163,4.9 162.3,6.6 162,8.6 
		162.2,10.5 162.9,12.2 164.1,13.8 164.6,14.2 166,15.3 166.9,15.6 166.9,15.4 	"/>
	
		<linearGradient id="SVGID_87_" gradientUnits="userSpaceOnUse" x1="170.7" y1="437.9065" x2="224.3625" y2="437.9065" gradientTransform="matrix(1 0 0 -1 0 494)">
		<stop  offset="0.103" style="stop-color:#A0C2E6"/>
		<stop  offset="0.6139" style="stop-color:#B8DBF3"/>
		<stop  offset="1" style="stop-color:#C6E9FA"/>
	</linearGradient>
	<polygon class="st87" points="171.8,52.7 171.8,53.3 171.8,53.8 171.7,55 171.7,58.2 171.7,59.8 182.2,59.8 195,59.8 205.9,59.8 
		214.3,59.8 219.5,59.8 221.4,59.8 219.3,58.2 212.3,55 204.5,53.4 201.5,53.1 190.4,52.5 187.5,52.5 179.5,52.5 171.8,52.4 
		171.8,52.5 	"/>
	
		<linearGradient id="SVGID_88_" gradientUnits="userSpaceOnUse" x1="170.5702" y1="430.85" x2="230.916" y2="430.85" gradientTransform="matrix(1 0 0 -1 0 494)">
		<stop  offset="0.103" style="stop-color:#A0C2E6"/>
		<stop  offset="0.6139" style="stop-color:#B8DBF3"/>
		<stop  offset="1" style="stop-color:#C6E9FA"/>
	</linearGradient>
	<polygon class="st88" points="214.3,59.8 205.9,59.8 195,59.8 182.2,59.8 171.7,59.8 171.7,63.1 171.6,66.5 184.1,66.5 198.7,66.5 
		211.1,66.5 220.7,66.5 226.6,66.5 228.7,66.5 225.7,63.1 221.4,59.8 219.5,59.8 	"/>
	
		<linearGradient id="SVGID_89_" gradientUnits="userSpaceOnUse" x1="30.0537" y1="200.2676" x2="59.5598" y2="200.2676" gradientTransform="matrix(1 0 0 -1 0 494)">
		<stop  offset="0.103" style="stop-color:#A0C2E6"/>
		<stop  offset="0.6139" style="stop-color:#B8DBF3"/>
		<stop  offset="1" style="stop-color:#C6E9FA"/>
	</linearGradient>
	<polygon class="st89" points="33.5,316.4 35.3,312.7 37.4,308.3 39.7,303.5 42.1,298.5 44.6,293.3 47,288.3 49.2,283.7 51.2,279.5 
		52.8,276 54.1,273.2 54.9,271.4 55.3,270.6 55.2,270.7 54.6,271.9 53.5,274 52.1,276.9 50.3,280.7 48.2,285 45.9,289.8 41,300 
		38.6,305 40.2,301.8 41.7,298.7 43.2,295.6 44.7,292.4 46.1,289.5 47.4,286.8 48.5,284.5 49.4,282.6 50.1,281.3 50.4,280.6 
		50.5,280.5 50.5,280.7 50.3,281.1 50.1,281.4 49.8,282.2 49.5,282.7 49,283.9 48.7,284.6 48,286.1 47.6,286.9 46.7,288.6 
		46.3,289.6 45.4,291.5 44.9,292.5 43.4,295.7 41.9,298.8 40.4,301.9 39.4,303.9 38.8,305.1 38.1,306.6 37,308.9 36.1,310.7 
		35.5,312 31,321.5 32,319.4 	"/>
	
		<linearGradient id="SVGID_90_" gradientUnits="userSpaceOnUse" x1="133.5273" y1="125.0318" x2="203.5733" y2="125.0318" gradientTransform="matrix(1 0 0 -1 0 494)">
		<stop  offset="0.103" style="stop-color:#A0C2E6"/>
		<stop  offset="0.6139" style="stop-color:#B8DBF3"/>
		<stop  offset="1" style="stop-color:#C6E9FA"/>
	</linearGradient>
	<polygon class="st90" points="200.7,306.9 200.8,306.3 201,305.1 202.3,298.6 193.6,300.3 168.6,302.1 143.6,300.3 134.8,298.6 
		136.1,305.1 136.4,306.3 136.5,307 136.8,308.4 136.9,308.9 140.8,328.6 140.9,329.1 141.2,330.6 141.6,333 142.3,336.2 143,339.8 
		143.8,343.8 152.5,388.1 152.5,411.4 152.8,414.6 153.7,417.6 155.2,420.3 157.2,422.8 159.6,424.8 161.6,425.8 158.4,425.1 
		153.5,423.3 148.9,420.8 144.7,417.6 140.9,413.9 140.6,413.4 140.9,416.9 142.5,422.2 145.1,427.1 148.6,431.4 152.9,434.9 
		157.8,437.5 163.1,439.1 168.6,439.6 174.1,439.1 179.4,437.5 184.3,434.9 188.5,431.4 192,427.1 194.7,422.2 196.3,416.9 
		196.6,413.4 196.3,413.9 192.5,417.6 188.3,420.8 183.7,423.3 178.8,425.1 175.6,425.8 177.5,424.8 180,422.8 182,420.3 
		183.4,417.6 184.4,414.6 184.7,411.4 184.7,388.1 193.4,343.8 194.2,339.8 194.9,336.2 195.5,333 196,330.6 196.3,329.1 
		196.4,328.6 200.3,308.9 200.4,308.4 	"/>
	
		<linearGradient id="SVGID_91_" gradientUnits="userSpaceOnUse" x1="87.8867" y1="193.8454" x2="138.1467" y2="193.8454" gradientTransform="matrix(1 0 0 -1 0 494)">
		<stop  offset="0.103" style="stop-color:#A0C2E6"/>
		<stop  offset="0.6139" style="stop-color:#B8DBF3"/>
		<stop  offset="1" style="stop-color:#C6E9FA"/>
	</linearGradient>
	<polygon class="st91" points="136.5,307 124.3,305.1 108.7,300.5 105.1,299.2 100.1,297.5 90.2,291.6 89.4,293.5 89.2,293.8 
		95.2,297.5 116.7,305.1 136.9,308.9 136.8,308.4 	"/>
	
		<linearGradient id="SVGID_92_" gradientUnits="userSpaceOnUse" x1="124.7954" y1="68.8878" x2="212.3046" y2="68.8878" gradientTransform="matrix(1 0 0 -1 0 494)">
		<stop  offset="0.103" style="stop-color:#A0C2E6"/>
		<stop  offset="0.6139" style="stop-color:#B8DBF3"/>
		<stop  offset="1" style="stop-color:#C6E9FA"/>
	</linearGradient>
	<polygon class="st92" points="126.6,403.1 125.8,411.4 126.6,419.8 129.1,427.8 133,435.2 138.3,441.6 144.8,447 152.2,450.9 
		160.2,453.4 168.6,454.2 176.9,453.4 184.9,450.9 192.3,447 198.8,441.6 204.1,435.2 208.1,427.8 210.5,419.8 211.3,411.4 
		210.5,403.1 208.7,397.2 196.6,413.4 196.3,416.9 194.7,422.2 192,427.1 188.5,431.4 184.3,434.9 179.4,437.5 174.1,439.1 
		168.6,439.6 163.1,439.1 157.8,437.5 152.9,434.9 148.6,431.4 145.1,427.1 142.5,422.2 140.9,416.9 140.6,413.4 128.4,397.2 	"/>
	
		<linearGradient id="SVGID_93_" gradientUnits="userSpaceOnUse" x1="194.3377" y1="126.6617" x2="259.1227" y2="126.6617" gradientTransform="matrix(1 0 0 -1 0 494)">
		<stop  offset="0.103" style="stop-color:#A0C2E6"/>
		<stop  offset="0.6139" style="stop-color:#B8DBF3"/>
		<stop  offset="1" style="stop-color:#C6E9FA"/>
	</linearGradient>
	<polygon class="st93" points="196,330.6 195.5,333 201.7,335 216.6,343.5 229.7,354.9 240.5,368.8 248.5,384.6 252,396.9 
		254.3,398.3 254.9,398.6 256.9,400.2 257.4,401 257.5,401.3 257.7,401.7 257.6,400.9 252.5,382.9 244.1,366.2 232.8,351.7 
		219,339.7 203.3,330.8 196.4,328.6 196.3,329.1 	"/>
	
		<linearGradient id="SVGID_94_" gradientUnits="userSpaceOnUse" x1="83.6809" y1="113.9029" x2="168.4704" y2="113.9029" gradientTransform="matrix(1 0 0 -1 0 494)">
		<stop  offset="0.103" style="stop-color:#A0C2E6"/>
		<stop  offset="0.6139" style="stop-color:#B8DBF3"/>
		<stop  offset="1" style="stop-color:#C6E9FA"/>
	</linearGradient>
	<polygon class="st94" points="92.6,394.6 93,394.6 93.2,394.6 95.2,394.4 96.7,394.2 98,394.2 101.2,394.2 104.6,394.2 
		126.2,394.2 128.4,397.2 140.6,413.4 140.9,413.9 144.7,417.6 148.9,420.8 153.5,423.3 158.4,425.1 161.6,425.8 159.6,424.8 
		157.2,422.8 155.2,420.3 153.7,417.6 152.8,414.6 152.5,411.4 152.5,388.1 143.8,343.8 143,339.8 142.3,336.2 141.6,333 135.5,335 
		120.5,343.5 107.4,354.9 96.7,368.8 88.7,384.6 85.2,396.9 88.7,395.5 91.1,394.9 91.6,394.8 	"/>
	
		<linearGradient id="SVGID_95_" gradientUnits="userSpaceOnUse" x1="78.0002" y1="127.3757" x2="142.7859" y2="127.3757" gradientTransform="matrix(1 0 0 -1 0 494)">
		<stop  offset="0.103" style="stop-color:#A0C2E6"/>
		<stop  offset="0.6139" style="stop-color:#B8DBF3"/>
		<stop  offset="1" style="stop-color:#C6E9FA"/>
	</linearGradient>
	<polygon class="st95" points="96.7,368.8 107.4,354.9 120.5,343.5 135.5,335 141.6,333 141.2,330.6 140.9,329.1 140.8,328.6 
		133.8,330.8 118.1,339.7 104.4,351.7 93.1,366.2 84.7,382.9 79.5,400.9 79.5,401.7 79.7,401.3 79.8,401 80.3,400.2 82.3,398.6 
		82.9,398.3 85.2,396.9 88.7,384.6 	"/>
	
		<linearGradient id="SVGID_96_" gradientUnits="userSpaceOnUse" x1="168.7272" y1="113.9725" x2="253.5166" y2="113.9725" gradientTransform="matrix(1 0 0 -1 0 494)">
		<stop  offset="0.103" style="stop-color:#A0C2E6"/>
		<stop  offset="0.6139" style="stop-color:#B8DBF3"/>
		<stop  offset="1" style="stop-color:#C6E9FA"/>
	</linearGradient>
	<polygon class="st96" points="240.5,368.8 229.7,354.9 216.6,343.5 201.7,335 195.5,333 194.9,336.2 194.2,339.8 193.4,343.8 
		184.7,388.1 184.7,411.4 184.4,414.6 183.4,417.6 182,420.3 180,422.8 177.5,424.8 175.6,425.8 178.8,425.1 183.7,423.3 
		188.3,420.8 192.5,417.6 196.3,413.9 196.6,413.4 208.7,397.2 211,394.2 232.6,394.2 236,394.2 239.2,394.2 240.5,394.2 242,394.4 
		244,394.6 244.2,394.6 244.5,394.6 245.6,394.8 246.1,394.9 248.4,395.5 252,396.9 248.5,384.6 	"/>
	
		<linearGradient id="SVGID_97_" gradientUnits="userSpaceOnUse" x1="145.4541" y1="375.0977" x2="190.9578" y2="375.0977" gradientTransform="matrix(1 0 0 -1 0 494)">
		<stop  offset="0.103" style="stop-color:#A0C2E6"/>
		<stop  offset="0.6139" style="stop-color:#B8DBF3"/>
		<stop  offset="1" style="stop-color:#C6E9FA"/>
	</linearGradient>
	<path class="st97" d="M150,130.5l2.7,3.2l3.3,2.6l3.7,2l4.1,1.2l4.2,0.4l4.2-0.4l4.1-1.2l3.8-2l3.3-2.6l2.7-3.2l2.1-3.7l1.3-4
		l0.5-4.1l-0.4-4.1l-0.4-1.5l-0.8-2.5l-1.1-2.1l-0.9-1.6l-2.6-3.1l-0.1-0.1l-3.3-2.6l-3.7-2l-4.1-1.2h-1.4H171h-5h-1.8l-4.1,1.2
		l-3.8,2l-3.3,2.6l-0.1,0.1l-2.6,3.1l-0.4,0.7l-1.7,3l-0.8,2.5l-0.5,1.5l-0.5,4.1l0.2,1.7l0.2,2.5l1.2,4L150,130.5z M154.4,116
		l0.8-2.6l1.3-2.4l1.8-2.1l2.2-1.7l2.5-1.3l2.7-0.8l2.8-0.3l2.8,0.3l2.6,0.8l2.4,1.3l2.1,1.7l1.7,2.1l1.3,2.4l0.8,2.6l0.2,2.7
		l-0.3,2.7l-0.8,2.6l-1.3,2.4l-1.8,2.1l-2.2,1.7l-2.5,1.3l-2.7,0.8l-2.8,0.3l-2.8-0.3l-2.6-0.8l-2.4-1.3l-2.1-1.7l-1.7-2.1l-1.3-2.4
		l-0.8-2.6l-0.2-2.7L154.4,116z"/>
	
		<linearGradient id="SVGID_98_" gradientUnits="userSpaceOnUse" x1="88.2953" y1="51.5477" x2="248.9047" y2="51.5477" gradientTransform="matrix(1 0 0 -1 0 494)">
		<stop  offset="0.103" style="stop-color:#A0C2E6"/>
		<stop  offset="0.6139" style="stop-color:#B8DBF3"/>
		<stop  offset="1" style="stop-color:#C6E9FA"/>
	</linearGradient>
	<polygon class="st98" points="244.5,394.6 244.2,394.6 244,394.6 242,394.4 240.5,394.2 239.2,394.2 236,394.2 232.6,394.2 
		211,394.2 208.7,397.2 210.5,403.1 211.3,411.4 210.5,419.8 208.1,427.8 204.1,435.2 198.8,441.6 192.3,447 184.9,450.9 
		176.9,453.4 168.6,454.2 160.2,453.4 152.2,450.9 144.8,447 138.3,441.6 133,435.2 129.1,427.8 126.6,419.8 125.8,411.4 
		126.6,403.1 128.4,397.2 126.2,394.2 104.6,394.2 101.2,394.2 98,394.2 96.7,394.2 95.2,394.4 93.2,394.6 93,394.6 92.6,394.6 
		91.6,394.8 91.1,394.9 90.8,395.9 89.3,411.4 90.8,426.9 95.3,441.8 102.6,455.5 112.5,467.5 124.5,477.4 138.2,484.7 153.1,489.2 
		168.6,490.7 184.1,489.2 198.9,484.7 212.7,477.4 224.7,467.5 234.5,455.5 241.9,441.8 246.4,426.9 247.9,411.4 246.4,395.9 
		246.1,394.9 245.6,394.8 	"/>
	
		<linearGradient id="SVGID_99_" gradientUnits="userSpaceOnUse" x1="-1.813762e-002" y1="236.596" x2="66.432" y2="236.596" gradientTransform="matrix(1 0 0 -1 0 494)">
		<stop  offset="0.103" style="stop-color:#A0C2E6"/>
		<stop  offset="0.6139" style="stop-color:#B8DBF3"/>
		<stop  offset="1" style="stop-color:#C6E9FA"/>
	</linearGradient>
	<polygon class="st99" points="27.5,291.4 30.8,289.8 34.7,287.5 38.8,284.6 43.1,281.3 47.4,277.7 51.6,273.8 55.4,269.9 
		58.8,266.1 61.6,262.6 63.6,259.4 64.9,256.8 65.4,254.7 65.1,253.6 62.6,252.8 61.3,252.3 56.2,250.6 50.6,248.7 48.2,241.6 
		48,241.4 48.2,241.5 48.1,241.2 47.7,240.3 46.8,240.3 42.2,240.3 40.9,240.3 40.9,240 40.9,239.4 40.9,238.8 40.9,238.2 
		40.9,236.7 40.9,234.9 40.9,233.4 40.9,232.8 40.9,230.6 40.9,230.4 40.9,229.6 40.9,228.2 40.9,227.7 40.9,226.6 40.9,226.3 
		38.8,223.8 37.5,223.2 35.5,223.4 32.8,224.2 29.4,225.9 25.6,228.1 21.5,231 17.2,234.3 12.8,238 8.7,241.8 4.8,245.7 1.5,249.5 
		6.7,255.4 1.3,261.9 	"/>
	
		<linearGradient id="SVGID_100_" gradientUnits="userSpaceOnUse" x1="145.8238" y1="363.1967" x2="190.8701" y2="363.1967" gradientTransform="matrix(1 0 0 -1 0 494)">
		<stop  offset="0.103" style="stop-color:#A0C2E6"/>
		<stop  offset="0.6139" style="stop-color:#B8DBF3"/>
		<stop  offset="1" style="stop-color:#C6E9FA"/>
	</linearGradient>
	<polygon class="st100" points="189.9,124.6 189.5,122.8 188.2,126.8 186.2,130.5 183.4,133.7 180.1,136.3 176.3,138.3 172.2,139.5 
		168,139.9 163.7,139.5 159.7,138.3 155.9,136.3 152.7,133.7 150,130.5 148,126.8 146.8,122.8 147.2,124.6 148.4,128.5 149.5,130.7 
		150.4,132.2 153,135.4 156.3,138.1 156.6,138.2 160,140 164.1,141.2 168.3,141.6 168.6,141.6 172.6,141.2 176.7,140 180.5,138.1 
		180.5,138 183.8,135.4 186.5,132.2 187.4,130.7 188.6,128.5 	"/>
	
		<linearGradient id="SVGID_101_" gradientUnits="userSpaceOnUse" x1="188.4761" y1="371.3629" x2="191.3341" y2="371.3629" gradientTransform="matrix(1 0 0 -1 0 494)">
		<stop  offset="0.103" style="stop-color:#A0C2E6"/>
		<stop  offset="0.6139" style="stop-color:#B8DBF3"/>
		<stop  offset="1" style="stop-color:#C6E9FA"/>
	</linearGradient>
	<polygon class="st101" points="189.5,122.8 189.9,124.6 190.3,120.4 190.3,120.3 190,116.3 189.6,114.5 190,118.7 	"/>
	
		<linearGradient id="SVGID_102_" gradientUnits="userSpaceOnUse" x1="99.7221" y1="398.9792" x2="120.0633" y2="398.9792" gradientTransform="matrix(1 0 0 -1 0 494)">
		<stop  offset="0.103" style="stop-color:#A0C2E6"/>
		<stop  offset="0.6139" style="stop-color:#B8DBF3"/>
		<stop  offset="1" style="stop-color:#C6E9FA"/>
	</linearGradient>
	<polygon class="st102" points="101.9,106.2 105.6,104.3 107.6,103.8 117.2,101.4 118.2,101.2 118.5,100.6 119.1,97.8 118.9,95 
		118.7,94.5 118.6,92.4 118,90.7 117.9,89.9 117.1,87.7 115.9,85.9 115.3,85.4 114.5,84.6 112.8,83.8 110.8,83.5 108.5,83.8 
		108.1,84 106.9,84.6 106,85.4 105.4,85.9 104.2,87.7 102.9,89.9 101.9,92.4 101.1,94.5 101,95 100.8,97.8 100.7,100.6 100.9,103.3 
		101,103.8 101.7,105.8 	"/>
	
		<linearGradient id="SVGID_103_" gradientUnits="userSpaceOnUse" x1="101.8315" y1="207.621" x2="273.6213" y2="207.621" gradientTransform="matrix(1 0 0 -1 0 494)">
		<stop  offset="0.103" style="stop-color:#A0C2E6"/>
		<stop  offset="0.6139" style="stop-color:#B8DBF3"/>
		<stop  offset="1" style="stop-color:#C6E9FA"/>
	</linearGradient>
	<polygon class="st103" points="241.9,263.6 208.3,263.6 168.6,263.6 128.9,263.6 103.7,263.6 107.5,269.3 111.2,276 124.8,284.3 
		129.8,287.6 135.5,289.5 168.6,293.6 196.2,290.2 198.5,290.1 200.7,290.4 201.1,290.5 202.6,290.6 204,291.1 204.9,291.9 
		205.3,293 205.3,297.5 205.3,305.1 205.3,305.3 204.9,305.6 204,306 202.6,306.4 200.7,306.9 200.4,308.4 200.3,308.9 220.4,305.1 
		241.9,297.5 258.4,287.6 268.8,276 272.3,263.6 264.4,263.6 	"/>
	
		<linearGradient id="SVGID_104_" gradientUnits="userSpaceOnUse" x1="106.184" y1="430.85" x2="167.4" y2="430.85" gradientTransform="matrix(1 0 0 -1 0 494)">
		<stop  offset="0.103" style="stop-color:#A0C2E6"/>
		<stop  offset="0.6139" style="stop-color:#B8DBF3"/>
		<stop  offset="1" style="stop-color:#C6E9FA"/>
	</linearGradient>
	<polygon class="st104" points="116.5,66.5 126.1,66.5 138.5,66.5 153,66.5 166.4,66.5 166.4,63.1 166.4,59.8 154.9,59.8 
		142.2,59.8 131.3,59.8 122.9,59.8 117.6,59.8 115.8,59.8 111.4,63.1 108.4,66.5 110.5,66.5 	"/>
	
		<linearGradient id="SVGID_105_" gradientUnits="userSpaceOnUse" x1="112.8424" y1="437.9057" x2="167.5351" y2="437.9057" gradientTransform="matrix(1 0 0 -1 0 494)">
		<stop  offset="0.103" style="stop-color:#A0C2E6"/>
		<stop  offset="0.6139" style="stop-color:#B8DBF3"/>
		<stop  offset="1" style="stop-color:#C6E9FA"/>
	</linearGradient>
	<polygon class="st105" points="122.9,59.8 131.3,59.8 142.2,59.8 154.9,59.8 166.4,59.8 166.5,58.2 166.5,55 166.5,53.7 
		166.5,53.3 166.5,52.6 166.5,52.5 166.5,52.4 157.7,52.5 149.7,52.5 146.7,52.5 135.7,53.1 132.7,53.4 124.9,55 117.8,58.2 
		115.8,59.8 117.6,59.8 	"/>
	
		<linearGradient id="SVGID_106_" gradientUnits="userSpaceOnUse" x1="97.9244" y1="398.7734" x2="125.6943" y2="398.7734" gradientTransform="matrix(1 0 0 -1 0 494)">
		<stop  offset="0.103" style="stop-color:#A0C2E6"/>
		<stop  offset="0.6139" style="stop-color:#B8DBF3"/>
		<stop  offset="1" style="stop-color:#C6E9FA"/>
	</linearGradient>
	<path class="st106" d="M100.4,108.2l1.3,2.8l4.3-2.2l11.3-3l5.3-0.8l0.3-1.1l1.1-2.3l0.8-3.6l-0.2-3.4l0.1-0.3l-0.2-3.5l-1.1-3.2
		l-1.5-2.1l-0.3-0.8l-1.9-2l-0.2-0.4l-1.7-1.7l-2.2-1.1l-2.6-0.4l-3,0.4l-0.5,0.2l-1.6,0.9l-2,1.7l-2.1,2.3l-0.6,0.8l-1.2,2.1
		l-1.4,3.2l-1.2,3.5l-0.1,0.3L99,97.8v3.6l0.2,2.3l0.3,1.1L100.4,108.2z M100.9,103.3l-0.2-2.7v-2.8L101,95l0.1-0.6l0.7-2.1l1.1-2.5
		l1.2-2.2l1.3-1.8l0.5-0.5l0.9-0.8l1.2-0.7l0.5-0.2l2.3-0.3l2,0.3l1.7,0.8l0.7,0.8l0.6,0.5l1.2,1.8l0.8,2.2l0.1,0.8l0.6,1.7l0.1,2.1
		l0.2,0.6l0.1,2.8l-0.6,2.8l-0.3,0.6l-1,0.1l-9.6,2.4l-2,0.5l-3.7,1.9l-0.2-0.5l-0.7-2L100.9,103.3z"/>
	
		<linearGradient id="SVGID_107_" gradientUnits="userSpaceOnUse" x1="29.6683" y1="193.3867" x2="206.3" y2="193.3867" gradientTransform="matrix(1 0 0 -1 0 494)">
		<stop  offset="0.103" style="stop-color:#A0C2E6"/>
		<stop  offset="0.6139" style="stop-color:#B8DBF3"/>
		<stop  offset="1" style="stop-color:#C6E9FA"/>
	</linearGradient>
	<polygon class="st107" points="90.2,291.6 100.1,297.5 105.1,299.2 108.7,300.5 124.3,305.1 136.5,307 136.4,306.3 136.1,305.1 
		134.8,298.6 143.6,300.3 168.6,302.1 193.6,300.3 202.3,298.6 201,305.1 200.8,306.3 200.7,306.9 202.6,306.4 204,306 204.9,305.6 
		205.3,305.3 205.3,305.1 205.3,297.5 205.3,293 204.9,291.9 204,291.1 202.6,290.6 201.1,290.5 200.7,290.4 198.5,290.1 
		196.2,290.2 168.6,293.6 135.5,289.5 129.8,287.6 124.8,284.3 111.2,276 107.5,269.3 103.7,263.6 96.4,263.6 95.6,265.3 90.4,276 
		90.3,276.3 91.3,277.5 91.8,278.7 91.8,279.6 91.1,280.2 90,280.5 88.3,280.5 86.2,280.2 83.7,279.6 81,278.8 78.1,277.7 
		75.2,276.3 72.3,274.9 69.6,273.3 67.2,271.7 65.2,270.2 63.6,268.7 62.5,267.4 62,266.2 62,265.3 58.7,272.2 55.3,270.6 
		54.9,271.4 54.1,273.2 52.8,276 51.2,279.5 49.2,283.7 47,288.3 44.6,293.3 42.1,298.5 39.7,303.5 37.4,308.3 35.3,312.7 
		33.5,316.4 32,319.4 31,321.5 67.5,339 68.5,336.9 70,333.9 71.8,330.2 73.9,325.8 76.2,321 78.7,316 81.1,310.8 83.5,305.8 
		85.7,301.2 87.7,297 89.2,293.8 89.4,293.5 	"/>
	
		<linearGradient id="SVGID_108_" gradientUnits="userSpaceOnUse" x1="63.5" y1="230.8962" x2="100.1454" y2="230.8962" gradientTransform="matrix(1 0 0 -1 0 494)">
		<stop  offset="0.103" style="stop-color:#A0C2E6"/>
		<stop  offset="0.6139" style="stop-color:#B8DBF3"/>
		<stop  offset="1" style="stop-color:#C6E9FA"/>
	</linearGradient>
	<polygon class="st108" points="65.6,264.4 64.5,266.5 64.5,267.3 64.9,268.2 65.8,269.3 67.1,270.6 68.8,271.9 70.8,273.2 
		73.1,274.5 75.4,275.7 77.9,276.8 80.3,277.7 82.6,278.4 84.6,278.9 86.4,279.2 87.8,279.2 88.7,278.9 89.3,278.4 90.3,276.3 
		90.4,276 95.6,265.3 96.4,263.6 96.7,262.9 96.2,263.4 95.2,263.7 93.8,263.7 92,263.5 90,263 87.7,262.3 85.3,261.4 82.9,260.3 
		80.5,259.1 78.2,257.8 76.2,256.5 74.5,255.2 73.2,254 72.3,252.9 71.9,251.9 71.9,251.2 71.7,251.7 71.1,252.9 70.8,253.5 
		70.4,254.3 70.2,254.7 70.2,254.9 70.2,254.9 70.1,254.9 65.9,263.6 64.9,263.6 65.1,264.4 65.5,264.4 	"/>
	
		<linearGradient id="SVGID_109_" gradientUnits="userSpaceOnUse" x1="37.2302" y1="205.0897" x2="51.3827" y2="205.0897" gradientTransform="matrix(1 0 0 -1 0 494)">
		<stop  offset="0.103" style="stop-color:#A0C2E6"/>
		<stop  offset="0.6139" style="stop-color:#B8DBF3"/>
		<stop  offset="1" style="stop-color:#C6E9FA"/>
	</linearGradient>
	<polygon class="st109" points="40.4,301.9 41.9,298.8 43.4,295.7 44.9,292.5 45.4,291.5 46.3,289.6 46.7,288.6 47.6,286.9 
		48,286.1 48.7,284.6 49,283.9 49.5,282.7 49.8,282.2 50.1,281.4 50.3,281.1 50.4,280.6 50.1,281.3 49.4,282.6 48.5,284.5 
		47.4,286.8 46.1,289.5 44.7,292.4 43.2,295.6 41.7,298.7 40.2,301.8 38.6,305 38.8,305.1 39.4,303.9 	"/>
	
		<linearGradient id="SVGID_110_" gradientUnits="userSpaceOnUse" x1="153.0564" y1="375.2983" x2="183.3687" y2="375.2983" gradientTransform="matrix(1 0 0 -1 0 494)">
		<stop  offset="0.103" style="stop-color:#A0C2E6"/>
		<stop  offset="0.6139" style="stop-color:#B8DBF3"/>
		<stop  offset="1" style="stop-color:#C6E9FA"/>
	</linearGradient>
	<polygon class="st110" points="155.1,124 156.4,126.3 158.1,128.4 160.2,130.1 162.6,131.4 165.3,132.2 168.1,132.5 170.8,132.2 
		173.5,131.4 175.9,130.1 178.1,128.4 179.9,126.3 181.2,124 182,121.4 182.4,118.7 182.1,116 181.3,113.4 180.1,111 178.3,108.9 
		176.2,107.2 173.8,105.9 171.1,105.1 168.4,104.9 165.6,105.1 162.9,105.9 160.5,107.2 158.3,108.9 156.5,111 155.2,113.4 
		154.4,116 154.1,118.7 154.3,121.4 	"/>
	
		<linearGradient id="SVGID_111_" gradientUnits="userSpaceOnUse" x1="47.1085" y1="417.4478" x2="167.9" y2="417.4478" gradientTransform="matrix(1 0 0 -1 0 494)">
		<stop  offset="0.103" style="stop-color:#A0C2E6"/>
		<stop  offset="0.6139" style="stop-color:#B8DBF3"/>
		<stop  offset="1" style="stop-color:#C6E9FA"/>
	</linearGradient>
	<polygon class="st111" points="51.1,128.4 52.3,128.4 54.1,127.9 58.2,127.1 63.3,126.5 65.6,126.3 69.5,125.6 76.6,124.6 
		84.6,123.8 93.3,123.2 99.9,122.8 102.8,122.5 112.8,121.7 123.4,121.1 134.3,120.6 145.6,120.4 146.6,120.4 146.5,118.7 
		146.7,116.5 146.9,114.5 148.2,110.5 150.3,106.9 153,103.7 156.3,101 157.8,100.3 160.1,99.1 164.2,97.9 166,97.9 166.2,79.7 
		166.5,51.9 166.7,36.4 166.8,28.9 166.8,25.1 166.8,24.6 166.8,23.6 166.8,23.6 166.8,23.5 166.9,23.3 166.9,23.2 159.8,23.6 
		166.9,23.2 156.7,23.6 166.9,23.1 149.9,23.6 141,24.7 137.1,25.1 147.3,24 150.7,23.6 138.4,25.1 147.3,24 137.6,25.1 137.1,25.1 
		137,25.1 121.9,28.9 104.8,36.4 86.5,51.9 67.6,79.7 51.5,116.5 48.6,129 49.3,128.6 	"/>
	
		<linearGradient id="SVGID_112_" gradientUnits="userSpaceOnUse" x1="170.289" y1="417.3105" x2="290.0211" y2="417.3105" gradientTransform="matrix(1 0 0 -1 0 494)">
		<stop  offset="0.103" style="stop-color:#A0C2E6"/>
		<stop  offset="0.6139" style="stop-color:#B8DBF3"/>
		<stop  offset="1" style="stop-color:#C6E9FA"/>
	</linearGradient>
	<polygon class="st112" points="172.1,23.2 185.1,23.6 172.1,23.2 172.1,23.2 172.1,23.2 183.1,23.6 172.1,23.2 172.1,23.3 
		172.1,23.4 172.1,23.8 172.8,24 172.1,23.9 172.1,23.9 172.1,24.7 172.1,25.1 172.1,26.1 172,28.9 172,36.4 171.8,51.9 171.5,79.7 
		171.3,97.9 172.7,97.9 176.7,99.1 179.4,100.4 180.5,101 183.8,103.7 186.4,106.9 188.4,110.5 189.6,114.5 190,116.3 190,116.5 
		190.3,120.3 191.6,120.4 202.8,120.6 213.8,121.1 224.3,121.7 234.4,122.5 237.2,122.8 243.8,123.2 252.6,123.8 260.5,124.6 
		267.7,125.6 271.6,126.3 273.9,126.5 279,127.1 283.1,127.9 284.9,128.4 286.1,128.4 287.9,128.6 288.5,129 285.7,116.5 
		269.6,79.7 250.6,51.9 232.4,36.4 215.3,28.9 200.2,25.1 200,25.1 199.6,25.1 189.9,24 198.8,25.1 186.5,23.6 189.9,24 200,25.1 
		196.2,24.7 187.2,23.6 172.1,23.2 	"/>
</g>
</svg>
