<!-- Generator: Adobe Illustrator 19.2.1, SVG Export Plug-In  -->
<svg version="1.1"
	 xmlns="http://www.w3.org/2000/svg" xmlns:xlink="http://www.w3.org/1999/xlink" xmlns:a="http://ns.adobe.com/AdobeSVGViewerExtensions/3.0/"
	 x="0px" y="0px" width="383.1px" height="392.1px" viewBox="0 0 383.1 392.1"
	 style="overflow:scroll;enable-background:new 0 0 383.1 392.1;" xml:space="preserve">
<style type="text/css">
	.st0{opacity:9.000000e-002;fill:url(#SVGID_1_);}
	.st1{opacity:9.000000e-002;fill:url(#SVGID_2_);}
	.st2{opacity:9.000000e-002;fill:url(#SVGID_3_);}
	.st3{opacity:9.000000e-002;fill:url(#SVGID_4_);}
	.st4{opacity:9.000000e-002;fill:url(#SVGID_5_);}
	.st5{opacity:9.000000e-002;fill:url(#SVGID_6_);}
	.st6{opacity:9.000000e-002;fill:url(#SVGID_7_);}
	.st7{opacity:9.000000e-002;fill:url(#SVGID_8_);}
</style>
<defs>
</defs>
<g>
	
		<linearGradient id="SVGID_1_" gradientUnits="userSpaceOnUse" x1="104.9975" y1="2479.0669" x2="279.6664" y2="2479.0669" gradientTransform="matrix(1 0 0 -1 0 2807.7539)">
		<stop  offset="0" style="stop-color:#93D0C3"/>
		<stop  offset="1" style="stop-color:#BBD2AE"/>
	</linearGradient>
	<polygon class="st0" points="160.8,378.6 105,270.7 279.7,277.8 217.6,372.6 207.5,380.6 175.9,386.7 	"/>
	
		<linearGradient id="SVGID_2_" gradientUnits="userSpaceOnUse" x1="46.2767" y1="2563.7969" x2="332.7654" y2="2563.7969" gradientTransform="matrix(1 0 0 -1 0 2807.7539)">
		<stop  offset="0" style="stop-color:#93D0C3"/>
		<stop  offset="1" style="stop-color:#BBD2AE"/>
	</linearGradient>
	<polygon class="st1" points="167.4,384 46.3,95.8 332.8,97.4 224.2,378 214.2,386 182.5,392.1 	"/>
	
		<linearGradient id="SVGID_3_" gradientUnits="userSpaceOnUse" x1="19.2992" y1="2614.0422" x2="360.8185" y2="2614.0422" gradientTransform="matrix(1 0 0 -1 0 2807.7539)">
		<stop  offset="0" style="stop-color:#93D0C3"/>
		<stop  offset="1" style="stop-color:#BBD2AE"/>
	</linearGradient>
	<polygon class="st2" points="164.3,339.1 19.3,40.2 360.8,40.2 221.2,333.1 211.1,341.1 179.4,347.2 	"/>
	
		<linearGradient id="SVGID_4_" gradientUnits="userSpaceOnUse" x1="0" y1="2657.4856" x2="383.1364" y2="2657.4856" gradientTransform="matrix(1 0 0 -1 0 2807.7539)">
		<stop  offset="0" style="stop-color:#93D0C3"/>
		<stop  offset="1" style="stop-color:#BBD2AE"/>
	</linearGradient>
	<polygon class="st3" points="167.4,292.5 0,4 383.1,0 224.2,286.4 214.2,294.4 182.5,300.5 	"/>
</g>
</svg>
