<!-- Generator: Adobe Illustrator 19.2.1, SVG Export Plug-In  -->
<svg version="1.1"
	 xmlns="http://www.w3.org/2000/svg" xmlns:xlink="http://www.w3.org/1999/xlink" xmlns:a="http://ns.adobe.com/AdobeSVGViewerExtensions/3.0/"
	 x="0px" y="0px" width="422.1px" height="974.7px" viewBox="0 0 422.1 974.7"
	 style="overflow:scroll;enable-background:new 0 0 422.1 974.7;" xml:space="preserve">
<style type="text/css">
	.st0{fill:#82899C;}
	.st1{fill:#B3B8C3;}
	.st2{fill:#452E46;}
	.st3{fill:#CAC7C9;}
	.st4{fill:#6B6679;}
	.st5{fill:#4C3D4B;}
	.st6{fill:#89433D;}
	.st7{fill:#EF412C;}
	.st8{fill:#465263;}
	.st9{fill:#7FC343;}
	.st10{fill:#422E42;}
	.st11{fill:#6B2E4F;}
	.st12{fill:#5A5467;}
	.st13{fill:#797D91;}
	.st14{fill:#C7DFB8;}
	.st15{opacity:0.4;fill:#382321;}
	.st16{fill:#3D3D3C;}
	.st17{fill:#382321;}
	.st18{fill:#363636;}
	.st19{fill:#A03527;}
	.st20{fill:#E34A30;stroke:#373636;stroke-width:6;stroke-miterlimit:10;}
	.st21{fill:#5D5C65;}
	.st22{fill:#62B9C3;}
	.st23{fill:#F2AA1D;}
	.st24{fill:#F8CF1A;}
	.st25{fill:#9490A6;}
	.st26{fill:#FFFFFF;}
	.st27{fill:#A1A8BC;}
	.st28{fill:#6C738F;}
	.st29{fill:#4B454B;}
	.st30{fill:#91959F;}
	.st31{fill:#D56E57;}
	.st32{fill:#F5896A;}
	.st33{fill:#D4DF9E;}
	.st34{fill:#C0B9B2;}
	.st35{fill:url(#SVGID_1_);}
	.st36{fill:url(#SVGID_2_);}
	.st37{fill:url(#SVGID_3_);}
	.st38{fill:url(#SVGID_4_);}
	.st39{fill:#CDCCCC;}
	.st40{fill:url(#SVGID_5_);}
	.st41{fill:url(#SVGID_6_);}
	.st42{fill:url(#SVGID_7_);}
	.st43{fill:url(#SVGID_8_);}
	.st44{fill:url(#SVGID_9_);}
	.st45{fill:url(#SVGID_10_);}
	.st46{fill:url(#SVGID_11_);}
	.st47{fill:url(#SVGID_12_);}
</style>
<defs>
</defs>
<g>
	<g>
		<path class="st0" d="M186.6,600.6c0,0-18.7-0.5-22.9-0.8s-109.3,14.2-113,15c-3.7,0.8-6.5,5.1-10,12.4
			c-2.9,5.9-37.7,85.6-37.7,92.6S0.8,813.3,0,827.6c-0.8,14.3,31.3,79.2,31.6,82.5c0.3,3.3,0.3,3.3,5.9,7.3
			c4.9,3.5,137.1,40.9,145.9,41.5c8.8,0.6,26.7-27.5,26.7-27.5s1.6-2.2,1.6-5.2c0-2.9-1.3-34.1-1.3-35.4c0-1.3-1.9-2.7-3.2-2.2
			c-1.3,0.5-28.2-1-30.3-1.4c-2.1-0.4-1.9-3.7-1.6-6.8c0.3-3.1,1.6-65.1,1.6-65.1s8-13.6,8.3-26.3c0.3-12.7,1.9-38.3,1.3-44.1
			s-5.6-8.8-5.6-8.8L186.6,600.6z"/>
		<g>
			<path class="st1" d="M168.7,612.4c-2.4-0.9-6.9-1.6-8.5,0.8s-2.7,28.4-3.2,40.5c-0.7,16.9-6.7,71.9-6.9,79
				c-0.3,7.1,0.5,71.9,0,86c-0.5,14-6.7,71.6-2.9,76.5c3.7,4.8,23.2,25.2,26.1,26.5c2.9,1.3,29-25,36.2-26.2
				c7.2-1.3,57.8-37.2,59.4-40.7s12-79.6,9.3-90.6c-2.7-11.1-19.7-44.9-22.4-49.6c-2.7-4.7-58.3-65.6-60.4-68.3
				C193.2,643.4,168.7,612.4,168.7,612.4z"/>
			<path class="st2" d="M200.6,760.1c0,0-24-0.6-25.6-0.6c-1.6,0-3.7,0.2-3.5,3.7c0.3,3.5,0,25.3,0,27.9c0,2.7,0.3,4,0.3,4
				s14.6,4.2,22.4,2.5c7.7-1.7,9.6-8.6,10.1-14.6C204.9,777,200.6,760.1,200.6,760.1z"/>
			<path class="st3" d="M231.5,748c-0.9-3.9-5.3-4.4-5.3-4.4s-32.5-0.5-40.5-0.7s-31.7-0.5-31.7-0.5s1.9,4.2,2.9,7.3
				c1.1,3.1,8.5,1.3,8.5,1.3s37.5,2,46.8,1.3C221.6,751.7,233.1,755.1,231.5,748z"/>
			<path class="st3" d="M305.7,910.3c-1.4-1.7-29.7-22.4-33.4-24.3c-3.7-1.8-16.3-7.5-16.3-7.5s-35.9,2.6-48.2,3.3
				c-12.2,0.7-48.7,3.2-53,3.6c-4.3,0.4-6.7,0.8-6.7,0.8s-0.5,4.4,2.9,7.6c3.5,3.2,34.6,27.8,34.6,27.8s52.4-3.5,63.1-4.4
				S313,919.5,305.7,910.3z"/>
			<path class="st1" d="M417.2,614.5c0,0,1.8,3.3,1.8,6.1c0,2.8,2.3,49.3,2,61.7c-0.4,12.4,0.7,105.5,0.4,127.1
				c-0.4,21.6,0.7,102.3,0.7,106.9c0,4.6-0.4,10.6-0.4,10.6s-0.4,3.1-2.5,4.2c-2.1,1.1-45.4,4.6-62.1,7.6
				c-16.7,3.1-57.5,6.4-79.3,7.3c-29.3,1.2-50.9,5.6-64.4,7.3c-13.5,1.8-22.4,4.6-24.5,5c-2.1,0.4-5.6,0.5-5.6,0.5
				c-1.2-1.5,0.4-37.7,0.4-38.9c0-2.3,4.8-4.2,8-4c3.2,0.1,36.5-4.7,50.7-5c14.2-0.3,31.1-2.5,46-2.3s15.3,8.3,14.9,1.5
				c-0.4-6.8-3-137.5-4.8-148.1c-1.8-10.6-7.8-17.6-14.2-26c-6.4-8.5-28-45.2-42.6-56.4c-14.5-11.2-66-59.4-69.6-62.1
				s-6.4-4.6-6.4-4.6s-4.6-1.4-5.7,0.2c-1.1,1.6,2-15.3,8.4-13.9s202.4,7.1,210.2,8c40.3,4.6,30.7,3.3,32.4,4.3
				C413,612.6,417.2,614.5,417.2,614.5z"/>
			<path class="st0" d="M411.1,891.2c-0.1-3.9-0.2-9.3-2.1-11.3c-2-2.1-3.4-2.7-8-2.3c-4.6,0.3-54.5,4.6-60.3,5.1
				s-14.4,1.6-15.6,2.2c-1.2,0.5-2.7,3.3-2.1,9.2s1.4,9.5,1.6,10.9c0.2,1.5,1.2,5.7,9.2,4.5c8-1.2,64.6-7,70.8-8.7
				C410.7,899,411.2,896.7,411.1,891.2z"/>
			<path class="st4" d="M206.7,954.4l15.3-2.3c0,0-0.4,7.6,0,12.6c0.4,5,1.4,8.4,2.5,9.6c1.1,1.2-27.3-18-27.3-18L206.7,954.4z"/>
			<path class="st4" d="M366.6,937.3l13.8-1.6c0,0-1.2,7.7-0.8,12.7c0.4,5,1.4,8.4,2.5,9.6s-27.9-18.8-27.9-18.8L366.6,937.3z"/>
			<path class="st0" d="M303.2,911.8c-1.1-3.7-9.2-11-14.2-14.7c-5-3.6-33.7-18.4-33.7-18.4v-64.6c0,0,5.3-1.6,5-11.3
				c-0.4-9.6-2.5-45.8-2.1-50.4c0.4-4.6-7.1-10.7-7.1-10.7s-1.4-10.5-6.4-20.2c-5-9.7-48.3-69.4-58.6-81.6
				c-10.3-12.3-19.5-25.1-19.5-25.1s-5-5.8,3.5-0.2c8.5,5.6,64.2,54.1,79.1,68.9c14.9,14.8,49.7,39.8,53.2,78.7
				C306,801.2,303.2,911.8,303.2,911.8z"/>
			<path class="st5" d="M283.7,631.7c0,0-3.2,1.4-4.3,3.2c-1.4,2.3-2.6,7.5-1.7,13.8c0.8,5.4,2.8,10.2,5.4,12.5s6.4,3.4,7.6-1.2
				C291.9,655.4,284.9,630.4,283.7,631.7z"/>
			<path class="st6" d="M286.3,631.8c0,0-2-0.7-3.7,0.3c-1.7,1.1-3.4,6.4-3.2,10.9c0.3,5.6,1.5,11.1,2.9,14c1.5,2.9,3.9,4.3,5.5,4.7
				c1.6,0.4,3.3,1.1,4.1-1.3C292.7,658,286.3,631.8,286.3,631.8z"/>
			<path class="st7" d="M294,645.2c-0.6-4.8-3.7-12.8-7.7-13.5c-4-0.6-4.5,7-4.3,13.7c0.3,6.7,3.5,16.2,8,16.4
				C294.6,662.1,295.1,653.4,294,645.2z"/>
			<path class="st5" d="M263.8,631.1c0,0-3.2,1.4-4.3,3.2c-1.4,2.3-2.6,7.5-1.7,13.8c0.8,5.4,2.8,10.2,5.4,12.5
				c2.7,2.3,6.4,3.4,7.6-1.2S265,629.7,263.8,631.1z"/>
			<path class="st8" d="M266.4,631.1c0,0-2-0.7-3.7,0.3c-1.7,1.1-3.4,6.4-3.2,10.9c0.3,5.6,1.5,11.1,2.9,14c1.5,2.9,3.9,4.3,5.5,4.7
				c1.6,0.4,3.3,1.1,4.1-1.3C272.8,657.4,266.4,631.1,266.4,631.1z"/>
			<path class="st9" d="M274.2,644.6c-0.6-4.8-3.7-12.8-7.7-13.5c-4-0.6-4.5,7-4.3,13.7c0.3,6.7,3.5,16.2,8,16.4
				C274.7,661.4,275.2,652.7,274.2,644.6z"/>
			<path class="st5" d="M242.8,630.2c0,0-3.2,1.4-4.3,3.2c-1.4,2.3-2.6,7.5-1.7,13.8c0.8,5.4,2.8,10.2,5.4,12.5
				c2.7,2.3,6.4,3.4,7.6-1.2C251.1,654,244.1,628.9,242.8,630.2z"/>
			<path class="st8" d="M245.5,630.3c0,0-2-0.7-3.7,0.3c-1.7,1.1-3.4,6.4-3.2,10.9c0.3,5.6,1.5,11.1,2.9,14c1.5,2.9,3.9,4.3,5.5,4.7
				c1.6,0.4,3.3,1.1,4.1-1.3C251.9,656.6,245.5,630.3,245.5,630.3z"/>
			<path class="st9" d="M253.2,643.8c-0.6-4.8-3.7-12.8-7.7-13.5c-4-0.6-4.5,7-4.3,13.7c0.3,6.7,3.5,16.2,8,16.4
				C253.8,660.6,254.3,651.9,253.2,643.8z"/>
			<path class="st4" d="M408.6,889.8c0.3-4.9,0-12.1-9.9-10.4s-41.2,3.8-50,4.9c-8.9,1.1-23.4-0.5-23.4,6.6
				c0,7.1-1.8,16.4,23.4,12.2c25.2-4.2,40.5-5,47.9-6.3S408.2,895.4,408.6,889.8z"/>
			<path class="st10" d="M401.3,884.7c0-1.8,1.2-4.2-4.1-4c-5.3,0.2-39.9,4.2-46.3,4.8c-6.4,0.6-18.6,0.8-20.6,1.4
				c-2,0.6-4.1,1.1-4.1,3.6s-0.2,2.6,0,3.5c0.2,0.9,0.7,1.9,3.4,1.8c2.7-0.1,42.2-4.9,51.3-6.1c7.5-1,13.8-1.4,16.1-1.9
				S401.3,886.8,401.3,884.7z"/>
			<path class="st4" d="M165.1,612.8c0,0-1.4,1.7-0.2,3.7c1.2,2,47.7,86.7,52.9,96.3c5.1,9.7,8.7,19.5,9.6,23
				c0.9,3.5,1.6,7.2,1.6,7.2s6.9,3.4,8,13.1c1.1,9.7,3.4,45.6,3.2,49.8c-0.2,4.2-3.2,5.5-4.4,6.4c-1.2,0.9,0.9,1.2,4.8,0.9
				c3.9-0.3,14.9-1.4,16.7-2.3s3-2,3.2-6.2s-1.4-47.6-1.4-51c0-3.4-0.9-5.6-2.7-7.7c-1.8-2.1-5.3-4.2-5.3-4.2s-1.2-13.9-5.1-19.8
				c-3.9-5.9-34.8-50.6-44.7-63.5c-9.9-12.9-29.1-36.9-31.2-39.7S165.1,612.8,165.1,612.8z"/>
			<path class="st4" d="M255.3,814.2c0,0-14.7,2.1-26.8,2.7c-12.1,0.6-47.9,1-56.2,1.1c-8.3,0.1-22.2,0.8-22.2,0.8l0.2,2.3
				c0,0,75.8-2.3,76.7-1.4c0.9,0.8,0.7,2.6,0.7,6.9c0,4.3-1.1,42.8-1.2,46.8c-0.2,4.1,0,7.6,0,7.6l29.6-2.4L255.3,814.2z"/>
			<path class="st4" d="M226.3,880.9l29.6-2.4c0,0,18.3,9.6,24.8,13.5c6.6,3.9,13.8,9.1,17.6,12.7c3.7,3.6,4.8,7.1,4.8,7.1
				s-6.7-5.7-9.7-7.2C290.6,903.1,226.3,880.9,226.3,880.9z"/>
			<path class="st3" d="M200.6,760.1c0,0,1.1,17.5,1.3,25.5c0.2,5.1,1.6,9.6-5.3,10.1c-6.9,0.5-24.8-0.4-24.8-0.4s-0.5,5.2,4,7.5
				c2.4,1.2,12,0.3,17,0.6c5.1,0.3,16.8,2.4,17.6-6c0.8-8.4,0-29,0-31.7C210.5,763,206.5,760.3,200.6,760.1z"/>
			<path class="st11" d="M194,779c0.2-1.2,0.5-3.5-1.8-4c-2.3-0.5-12.2-1.4-14.2-1.3c-2,0-3,1.8-2.8,4.5s-0.4,10.2-0.2,11.5
				c0.2,1.3,0.7,2.1,2.5,2.3c1.8,0.3,12.4,0.5,13.5,0.2c1.1-0.4,2-0.2,2.1-2.7C193.3,787,194,779,194,779z"/>
			<polygon class="st7" points="193.4,777.9 179.1,776.7 178.5,791.5 192.1,791.8 			"/>
			<path class="st0" d="M233.1,950.4c0,0-0.1,12.9-2,19.8c-0.5,1.7-1.8,2.9-2.9,3.5c-1.3,0.7-2.5,1.3-3.6,0.6
				c-1.1-0.7-2.3-5.3-2.8-9c-0.5-3.6,0.4-13.3,0.4-13.3L233.1,950.4z"/>
			<path class="st0" d="M390.5,934.5c0,0-1.4,17.7-2,19.4c-0.5,1.7-1.6,3.1-2.8,3.5c-1.2,0.3-2.3,1.6-3.4,0.9
				c-1.1-0.7-2.3-5.3-2.8-9c-0.5-3.6,0.3-13.5,0.3-13.5L390.5,934.5z"/>
		</g>
		<g>
			<g>
				<path class="st12" d="M192.8,624.3c0,0-2,0.2-1.7-2.3c0.2-1.8,0.3-2.7,1.3-3.3c1-0.6,1.9,0,1.9,0s0-1-0.2-1.6
					c-0.2-0.5-0.5-1.2-1.2-1.4c-0.7-0.1-2.4,0.4-3,1.5c-0.6,1.1-1.7,3.4-1.8,4.1c-0.1,0.7,0.3,3.1,0.9,3.4s1,0.2,1.8,0.3
					C191.8,625.2,192.8,624.3,192.8,624.3z"/>
				<g>
					<path class="st13" d="M187.4,619.1c0.7-3.1,2.2-4.1,3.9-4.3c1.7-0.2,2.7,1.9,2.7,1.9s-3.4-0.7-4,2.4c-0.5,2.2-0.6,4.5,0,5.1
						c0.6,0.6,1.7,0.8,1.7,0.8s-3.5,1.3-4.2-1.2C186.7,621.3,187.4,619.1,187.4,619.1z"/>
				</g>
			</g>
		</g>
		<path class="st4" d="M57,633.2c0-4.9-2.7-9.3-5.9-9.7c-0.4-0.1-0.9,0-1.3,0c0.9-1.9,2.5-3.1,4.4-2.8c2.9,0.4,5.2,4.1,5.2,8.2
			c0,2.6-1,4.8-2.4,5.9C56.9,634.3,57,633.7,57,633.2z"/>
		<path class="st4" d="M15.1,730.5c0-4.9-2.7-9.3-5.9-9.7c-0.4-0.1-0.9,0-1.3,0c0.9-1.9,2.5-3.1,4.4-2.8c2.9,0.4,5.2,4.1,5.2,8.2
			c0,2.6-1,4.8-2.4,5.9C15,731.6,15.1,731.1,15.1,730.5z"/>
		<path class="st4" d="M10.3,835.1c0-4.9-2.7-9.3-5.9-9.7c-0.4-0.1-0.9,0-1.3,0c0.9-1.9,2.5-3.1,4.4-2.8c2.9,0.4,5.2,4.1,5.2,8.2
			c0,2.6-1,4.8-2.4,5.9C10.2,836.2,10.3,835.6,10.3,835.1z"/>
		<path class="st4" d="M44,912c0-4.9-2.7-9.3-5.9-9.7c-0.4-0.1-0.9,0-1.3,0c0.9-1.9,2.5-3.1,4.4-2.8c2.9,0.4,5.2,4.1,5.2,8.2
			c0,2.6-1,4.8-2.4,5.9C43.9,913.1,44,912.6,44,912z"/>
		<g>
			<g>
				<polygon class="st14" points="332.3,661.7 395,662.5 395,632 332.3,630.7 				"/>
				<path class="st15" d="M330.5,664.3c2-1.8,4.3-3.3,6.8-4.3l-0.1,0v-24.4l56.1,1.1v0.5c1.3-2.6,3.3-4.9,5.7-6.7l-68.4-1.5V664.3z"
					/>
				<path class="st16" d="M329,665l69.2,0.8v-36.8l-69.2-1.5V665z M335.7,634.1l56.1,1.1v24.1l-56.1-0.7V634.1z"/>
			</g>
			<g>
				<path class="st17" d="M388.8,797.4l-56,3c-3.2,0.1-5.8,2.7-5.8,5.8l-1.5,55.9c0,3.1,4.1,7.2,7.3,7l57.8-2.9
					c3.1-0.2,5.6-2.8,5.6-5.8v-56.4C396.1,801,391.9,797.3,388.8,797.4z"/>
				<path class="st18" d="M391.8,797.4l-57.1,1.6c-3.2,0.1-5.7,2.7-5.7,5.8v56.8c0,3.1,2.6,5.5,5.7,5.3l57.1-2.8
					c3-0.1,5.5-2.7,5.5-5.8v-55.7C397.3,799.7,394.9,797.3,391.8,797.4z"/>
				<path class="st19" d="M386.9,846.5c-3.3,0.1-6.1,3-6.1,6.3c0,3.3,2.7,5.9,6.1,5.8c3.3-0.2,6.1-3,6.1-6.3
					C392.9,848.9,390.2,846.4,386.9,846.5z"/>
				<path class="st20" d="M386.1,845.8c-3.3,0.1-6.1,3-6.1,6.3c0,3.3,2.7,5.9,6.1,5.8c3.3-0.2,6.1-3,6.1-6.3
					C392.2,848.2,389.5,845.7,386.1,845.8z"/>
				<path class="st17" d="M386.2,809.6l-0.2,0c-1.6,0.1-3,1.4-3,3v24c0,1.6,1.3,2.9,3,2.8l0.2,0c1.6-0.1,2.9-1.4,2.9-3.1v-24
					C389.2,810.9,387.8,809.6,386.2,809.6z"/>
				<polygon class="st21" points="338.3,841.5 377,839.9 377,809.9 338.3,811.2 				"/>
				<polygon class="st22" points="340.7,841.4 377,839.9 377,811.8 340.7,813 				"/>
			</g>
			<g>
				<path class="st23" d="M388.7,690l-55.9,2c-3.2,0-5.8,2.5-5.8,5.7l-0.1,77.2c0,3.1,2.7,7.7,5.9,7.6l57.7-1.4
					c3.1-0.1,5.6-2.6,5.6-5.7v-77.6C396.1,694.7,391.8,690.1,388.7,690z"/>
				<path class="st24" d="M392.6,690.8l-57.8-0.2c-3.2,0-5.8,2.5-5.8,5.7v79.3c0,3.1,2.6,5.6,5.8,5.5l57.8-1.4
					c3.1-0.1,5.6-2.6,5.6-5.7v-77.7C398.2,693.3,395.7,690.8,392.6,690.8z"/>
				<path class="st25" d="M342.8,701.6c-3.4,0-6.2,2.7-6.2,6.1c0,3.4,2.8,6.1,6.2,6.1c3.4,0,6.2-2.8,6.2-6.1
					C349,704.3,346.2,701.6,342.8,701.6z"/>
				<path class="st26" d="M343.6,702.6c-2.2,0-4,1.8-4,4c0,2.2,1.8,4,4,4c2.2,0,4-1.8,4-4C347.6,704.4,345.8,702.6,343.6,702.6z"/>
				<path class="st25" d="M362.2,701.6c-3.4,0-6.2,2.7-6.2,6.1c0,3.4,2.8,6.1,6.2,6.1c3.4,0,6.1-2.7,6.1-6.1
					C368.3,704.3,365.6,701.6,362.2,701.6z"/>
				<path class="st25" d="M381.4,701.6c-3.4,0-6.1,2.7-6.1,6.1c0,3.3,2.7,6,6.1,6c3.4,0,6.1-2.7,6.1-6.1
					C387.4,704.3,384.7,701.6,381.4,701.6z"/>
				<g>
					<path class="st25" d="M342.8,720.3c-3.4,0-6.2,2.8-6.2,6.2c0,3.4,2.8,6.1,6.2,6.1c3.4,0,6.2-2.8,6.2-6.2
						C349,723,346.2,720.3,342.8,720.3z"/>
					<path class="st25" d="M362.2,720.2c-3.4,0-6.2,2.8-6.2,6.1c0,3.4,2.8,6.1,6.2,6c3.4,0,6.1-2.8,6.1-6.1
						C368.3,722.9,365.6,720.2,362.2,720.2z"/>
					<path class="st25" d="M381.4,720.1c-3.4,0-6.1,2.7-6.1,6.1c0,3.3,2.7,6,6.1,6c3.4,0,6.1-2.8,6.1-6.1
						C387.4,722.7,384.7,720.1,381.4,720.1z"/>
				</g>
				<g>
					<path class="st25" d="M342.8,739c-3.4,0-6.2,2.8-6.2,6.2c0,3.4,2.8,6.1,6.2,6c3.4-0.1,6.2-2.8,6.2-6.2
						C349,741.7,346.2,739,342.8,739z"/>
					<path class="st25" d="M362.2,738.8c-3.4,0-6.2,2.8-6.2,6.2c0,3.4,2.8,6.1,6.2,6c3.4,0,6.1-2.8,6.1-6.2
						C368.3,741.4,365.6,738.7,362.2,738.8z"/>
					<path class="st25" d="M381.4,738.6c-3.4,0-6.1,2.8-6.1,6.1c0,3.3,2.7,6,6.1,6c3.4,0,6.1-2.8,6.1-6.1
						C387.4,741.2,384.7,738.5,381.4,738.6z"/>
				</g>
				<g>
					<path class="st25" d="M342.8,757.7c-3.4,0.1-6.2,2.8-6.2,6.2c0,3.4,2.8,6.1,6.2,6c3.4-0.1,6.2-2.9,6.2-6.2
						C349,760.3,346.2,757.6,342.8,757.7z"/>
					<path class="st25" d="M362.2,757.4c-3.4,0.1-6.2,2.8-6.2,6.2c0,3.4,2.8,6,6.2,6c3.4-0.1,6.1-2.8,6.1-6.2
						C368.3,760,365.6,757.3,362.2,757.4z"/>
					<path class="st25" d="M381.4,757.1c-3.4,0.1-6.1,2.8-6.1,6.2c0,3.3,2.7,6,6.1,5.9c3.4-0.1,6.1-2.8,6.1-6.2
						C387.4,759.7,384.7,757,381.4,757.1z"/>
				</g>
				<path class="st26" d="M363.1,702.6c-2.2,0-4,1.8-4,3.9c0,2.2,1.8,3.9,4,3.9c2.2,0,4-1.8,4-3.9
					C367,704.4,365.3,702.6,363.1,702.6z"/>
				<path class="st26" d="M382.3,702.6c-2.2,0-3.9,1.7-3.9,3.9c0,2.1,1.7,3.9,3.9,3.9c2.2,0,3.9-1.7,3.9-3.9
					C386.2,704.3,384.4,702.6,382.3,702.6z"/>
				<path class="st26" d="M343.6,721.6c-2.2,0-4,1.8-4,4c0,2.2,1.8,3.9,4,3.9c2.2,0,4-1.8,4-4C347.6,723.3,345.8,721.6,343.6,721.6z
					"/>
				<path class="st26" d="M363,721.5c-2.2,0-4,1.8-4,3.9c0,2.2,1.8,3.9,4,3.9c2.2,0,3.9-1.8,3.9-3.9
					C367,723.2,365.2,721.5,363,721.5z"/>
				<path class="st26" d="M382.3,721.4c-2.2,0-3.9,1.8-3.9,3.9c0,2.1,1.7,3.9,3.9,3.9c2.2,0,3.9-1.8,3.9-3.9
					C386.2,723.1,384.4,721.3,382.3,721.4z"/>
				<path class="st26" d="M343.6,739.8c-2.2,0-4,1.8-4,4c0,2.2,1.8,3.9,4,3.9c2.2,0,4-1.8,4-4C347.6,741.5,345.8,739.8,343.6,739.8z
					"/>
				<path class="st26" d="M363.1,739.6c-2.2,0-4,1.8-4,4c0,2.2,1.8,3.9,4,3.9c2.2,0,4-1.8,4-4C367,741.3,365.3,739.6,363.1,739.6z"
					/>
				<path class="st26" d="M382.3,739.4c-2.2,0-3.9,1.8-3.9,4c0,2.2,1.8,3.9,3.9,3.9c2.2,0,3.9-1.8,3.9-4
					C386.2,741.1,384.5,739.4,382.3,739.4z"/>
				<path class="st26" d="M343.6,758.8c-2.2,0-4,1.8-4,4c0,2.2,1.8,3.9,4,3.9c2.2,0,4-1.8,4-4C347.6,760.5,345.8,758.8,343.6,758.8z
					"/>
				<path class="st26" d="M363,758.5c-2.2,0-4,1.8-4,4c0,2.2,1.8,3.9,4,3.8c2.2,0,3.9-1.8,3.9-4C367,760.2,365.2,758.4,363,758.5z"
					/>
				<path class="st26" d="M382.3,758.2c-2.2,0-3.9,1.8-3.9,4c0,2.1,1.7,3.9,3.9,3.8c2.2,0,3.9-1.8,3.9-4
					C386.2,759.8,384.4,758.1,382.3,758.2z"/>
			</g>
		</g>
	</g>
	<path class="st4" d="M127.5,810.8c0,0-0.1,4.9-3.5,9c-3.4,4.1-8.9,10.8-15.8,10c-6.9-0.8-58.4-7.9-67-10.2
		c-8.7-2.3-13-2.9-13.8-5.3c-0.8-2.4-0.8-8.6-0.7-13.1c0.1-4.4-0.5-26.8-0.5-26.8s-1.8-65.3-1.5-68.8s-0.1-10,3.6-11.6
		c3.7-1.6,88,53,92.2,68.9C124.6,778.9,127.5,810.8,127.5,810.8z"/>
	<path class="st3" d="M29,692.4c0,0,5.5-3.7,6.8-4.1c1.3-0.4,3.9-1.1,7.1-0.7c3.2,0.3,42.8,4.6,50.2,5.6c7.5,1,24.2,4.1,28.2,6.6
		c4,2.5,7.6,7.1,7.8,12.1c0.1,5.1,0.2,49.5,0.4,60.7c0.2,11.3-1,34.4-1.9,38.1c-0.9,3.7-2,7.3-5.6,9.2c-3.6,1.9-7.6,3.9-9.4,4
		c-1.8,0.1-4.4-0.4-5.3-0.7C106.1,823,29,692.4,29,692.4z"/>
	<path class="st0" d="M120.4,716.6c0.4-6.2-2.4-14.5-15.6-17.1c-13.3-2.6-61.4-8.4-66.2-9.2c-4.8-0.8-12.1,0.2-12.4,8.6
		c-0.3,8.4,2.6,54.3,2.3,63.8c-0.3,9.5-0.2,34.3-0.4,38.4c-0.2,4.1-0.5,10.8,14.4,13.5c14.9,2.8,53.2,8.6,60.3,9.4
		c7,0.8,17.2,3.1,17-15.7C119.5,789.6,120.4,716.6,120.4,716.6z"/>
	<path class="st4" d="M96.5,761.8c0,0-14.2,15.7-34.3,21.3c-23.8,6.5-28.1,3.1-30.8,1.8c-2-1-3.3-3.4-3.3-3.4l0-2.8L96.5,761.8z"/>
	<path class="st4" d="M66.8,799.1c-0.8,2.2-4.5,8.9-10.3,7.7c-5.8-1.2-6.9-1.7-10.1-13.8c-3.1-12.1-3-12.7-3-12.7l27.6-1.4
		L66.8,799.1z"/>
	<path class="st27" d="M64.3,774.2c0,0,0.6,13.1-2.6,22.2c-3.3,9.2-19.7,11.9-22,1.7c-2.2-10.2-2.3-22.8-2.3-22.8L64.3,774.2z"/>
	<path class="st28" d="M39.1,778.6c0,1.6,1.2,17.5,2.4,20.5c1.2,3,3.2,4.1,5.3,4.5c2.1,0.4,3.7,0.1,4.2-0.4c0.5-0.4-1.8-1.7-2.3-2.7
		c-0.5-1.1-0.3-10.5,0-14.5c0.3-4,7.3-7.2,10.2-7.4c2.9-0.3,3.9,1.2,3.9,1.2s0.9-2.4,0.8-3.3c0-0.9-0.3-2.5-0.3-2.5L39.1,778.6z"/>
	<path class="st4" d="M109.7,794.2c0,0,2.5,1,3.3,3.5c0.7,2.5,1.1,5.6-0.1,7.6c-1.2,2-4.1,5.2-7.5,4c-3.4-1.2-2.7-4.3-2.7-4.3
		L109.7,794.2z"/>
	<path class="st4" d="M107.2,714.5c0,0,4.4-0.6,6,2.5c1.7,3.1,1.8,9.4-2.9,12.1c-4.7,2.7-6.7,0-7.4-1.2S107.2,714.5,107.2,714.5z"/>
	<path class="st3" d="M104.5,794.3c0,0,4.1-1.2,5.6,0.2c1.4,1.4,2.4,4.6,1.9,6.9c-0.5,2.3-1,4-2.1,5.1c-1.1,1.1-3.7,2-5,1.9
		c-1.3-0.1-2.2-3.4-2.2-5.1S103.2,794.1,104.5,794.3z"/>
	<path class="st3" d="M104.5,714.8c0,0,3.9-1.4,6.5,1.1c2.2,2.2,1.9,6.8,0.5,8.9c-1.3,2.1-4.9,4.2-7.6,4.1
		C101.2,728.8,104.5,714.8,104.5,714.8z"/>
	<path class="st3" d="M96.8,741.8c0,0-20.4-2-29.1-2.5c-11-0.5-35.6-0.4-35.6-0.4s-33.4,10.3-19.3,18.2s40.8,5,54.9,1
		C81.7,754.3,96.8,741.8,96.8,741.8z"/>
	<path class="st4" d="M64.1,746.1c0.6,2-6.7,6.8-17.2,8.5c-9.4,1.6-16.2,0.4-15.5-2.6c0.9-3.7,4.5-4.5,8.1-5.7
		C43.1,744.9,64.1,746.1,64.1,746.1z"/>
	<path class="st28" d="M31.2,762L30.5,779c0,0-7.7-0.2-13-2.5c-4.6-2-5.9-3.9-5.9-3.9l-0.8-16.9c0,0,5.9,3.5,10.6,4.6
		C25.9,761.5,31.2,762,31.2,762z"/>
	<path class="st27" d="M99.2,723c0.1,3.9,2.6,6.6,5.6,6c3-0.6,5.4-4.3,5.2-8.2c-0.1-3.9-2.6-6.6-5.6-6
		C101.5,715.4,99.1,719.1,99.2,723z"/>
	<path class="st27" d="M99.3,802.4c0.1,3.9,2.6,6.6,5.6,6c3-0.6,5.4-4.3,5.2-8.2c-0.1-3.9-2.6-6.6-5.6-6
		C101.5,794.9,99.2,798.5,99.3,802.4z"/>
	<path class="st28" d="M32.8,762.1c0,0,0,6.5,0.1,8.6c0.1,2.1-0.1,5.7-0.1,5.7s2.8-4.1,2.9-7.7c0.2-3.7,0.6-6.4,0.6-6.4L32.8,762.1z
		"/>
	<path class="st28" d="M107.7,725.6c-0.1-4.7-3-7.9-6.5-7.2c-0.5,0.1-0.9,0.3-1.4,0.5c0.9-2.1,2.6-3.8,4.5-4.2c3-0.6,5.5,2,5.6,6
		c0.1,2.5-0.9,4.9-2.4,6.5C107.7,726.7,107.7,726.2,107.7,725.6z"/>
	<path class="st28" d="M107.8,805.2c-0.1-4.7-3-7.9-6.5-7.2c-0.5,0.1-0.9,0.3-1.3,0.5c0.9-2.1,2.6-3.8,4.5-4.2c3-0.6,5.5,2,5.6,6
		c0.1,2.5-0.9,4.9-2.4,6.5C107.7,806.2,107.8,805.7,107.8,805.2z"/>
	<path class="st28" d="M58.2,799.7c-1.1,1.8-4.5,3.6-5.6,2.9c-1.1-0.8-1.8-1.2-2-2.5c-0.2-1.2-0.1-5-0.3-6.4
		c-0.1-1.4,0.4,1.4,1.6,2.7c1.2,1.3,2.4,2.6,3.5,2.2C56.5,798.1,58.7,798.9,58.2,799.7z"/>
	<path class="st27" d="M64.2,745.6c0.3,4.4-25.8,9.8-26.3,4.3c-0.4-4.8,0.2-13.7,0.3-21.3c0.2-8.9-0.9-22.3,6.3-24.5
		c7.3-2.2,12-2.5,14.2,3c2.2,5.4,4.6,20.3,4.7,24.6S64.2,745.6,64.2,745.6z"/>
	<path class="st28" d="M51.6,703.2c-0.7-1.1-8.1,1.1-9.5,3.1c-2.1,3-2.4,5.2-2.7,17.8c-0.2,8.2,0,19.6,0.1,22.1
		c0.1,2.5-0.1,5.6-0.1,5.6s0.6,0.6,4.9,0.5c4.1,0,6.9-0.8,6.9-0.8s-3.1-14.9-3.7-27.3c-0.2-4.5-1.7-14.8-1.1-15.7
		C49,704.9,52.9,705.2,51.6,703.2z"/>
	<path class="st28" d="M48.1,708.9c0,1.4,1.1,18,1.3,22.3c0.2,4.4,2.5,10.7,2.5,10.7s-0.2-21.5-0.3-25.2c-0.1-3.6-0.6-8.6-1.2-8.9
		C49.8,707.5,48.1,708.4,48.1,708.9z"/>
	<g>
		<path class="st29" d="M43.8,33.1c0,0,0.9,0.3,1.2-0.8c0.3-1.1,3.9-20.2,4-21.9c0.1-1.7-0.9-9.3-8-9.6C34,0.6,29,3.8,30.3,9
			c1.3,5.2,8.3,23.5,8.5,24C39.2,33.5,42.6,33.9,43.8,33.1z"/>
		<path class="st29" d="M51.8,702.7c0,0,0.3,1.8-1.2,2c-2.5,0.2-3.6,0-3.9-0.7c-0.4-0.7-0.2-2-0.2-2s-1.8-107-1.8-118.9
			c0-11.9-2.3-159.1-2.5-168.1c-0.2-8.9-1.9-113.6-2.5-129.1s0.6-117.3,0.7-129.8C40.7,143.7,40,32.1,40,32.1s3.4-2.5,3.9,0.2
			c0.5,2.7,0.2,22.6,0.9,38.3c0.7,15.7,0,120.3,0,140.8c0,20.5-0.5,84-0.3,112.7c0.2,28.7-0.3,89.4,0.8,106.8
			c1.1,17.4,2.3,116.1,2.7,123.9c0.4,7.8,1.8,86.2,2.1,100.4C50.4,669.4,51.8,702.7,51.8,702.7z"/>
		<path class="st30" d="M50.9,703.5c-0.5,0.7-1.2,1.4-1.6,0c-0.4-1.4-1.1-41.3-1.4-46.5c-0.4-5.2-1.9-93.5-2.3-122.5
			c-0.4-29-2.3-131.4-2.5-143.8c-0.2-12.5-1.2-121.1-1.4-130.3c-0.2-9.3,1.1-135.5,0.9-147.2c-0.2-11.7-0.5-77.8-0.7-79
			s1.4-2.7,1.2,0.5C43,37.8,44,79.8,44,86.1c0,6.2,0,69.1-0.2,76.7c-0.2,7.7-0.3,80.7-0.3,88.9c0,8.2-0.2,67.9,0.1,79.7
			c0.4,11.7,0.2,59.9,0.4,72c0.2,12.1,1.8,74.5,1.9,83.6c0.2,17,1.4,70.7,1.6,80.8c0.2,10.1,0.9,67.5,1.2,79.6
			c0.3,10.9,1.8,37,1.8,42.4C50.5,695.1,50.9,703.5,50.9,703.5z"/>
		<path class="st30" d="M49,10.4c0,0-0.7-6.6-6.8-7.9c-8.2-1.7-9.9,0.8-10.9,1.7c-0.9,0.9-1.3,3.6-1.3,3.6S29.5,0.7,39.8,0
			C50.1-0.6,49.2,9.2,49,10.4z"/>
		<path class="st30" d="M47,9.9c-0.5-1.1-2-0.7-3.1,3.3c-1.1,4-1.2,18.2-1.2,18.2l1.6-0.1C44.4,31.3,48.6,13.4,47,9.9z"/>
		<path class="st29" d="M44.1,82.6c0,0.7-0.3,0.8-0.9,0.8c-0.6,0-1.2-0.4-1.2-0.9c0-0.5-0.2,18.4-0.2,18.4s0.1-1.6,1.3-1.8
			c0.9-0.1,1.1,2.1,1.1,2.1L44.1,82.6z"/>
		<path class="st29" d="M43.9,65c0,0.4-0.3,0.5-0.9,0.5c-0.6,0-1.2-0.2-1.2-0.6c0-0.3-0.2,12.1-0.2,12.1s0.1-1.1,1.3-1.2
			c0.9-0.1,1.1,1.4,1.1,1.4L43.9,65z"/>
		<path class="st29" d="M43.8,34.7c0,0.4-0.3,0.5-0.9,0.5c-0.6,0-1.2-0.2-1.2-0.6c0-0.3-0.2,12.1-0.2,12.1s0.1-1.1,1.3-1.2
			c0.9-0.1,1.1,1.4,1.1,1.4L43.8,34.7z"/>
		<path class="st31" d="M44.3,45.2c0,0,0.7-0.1,0.9-0.9c0.3-1.7,0.3-6.1,0.1-6.8c-0.1-0.7-0.2-1.4-0.7-1.6c-0.5-0.3-1.2-0.5-2.1-0.5
			c-0.9,0-1.6-0.1-2.1,0c-0.5,0.1-1.1,0.4-1.5,0.5c-0.4,0.1-7.2,1.7-9.3,1.9c-2.1,0.2,3.7-0.1,5.7-0.1c1.9,0,3.8,0.1,3.7,0.5
			c-0.1,0.4-2,1.7-3.7,4.5c-2,3.3-1.8,3.3,0.5,0.8c2.3-2.5,4.3-0.6,2.7,1.3c-1.6,1.9-2,6-1.9,8.5c0.1,2.5,0.3-4.6,1.4-6.4
			C39,45,40,45.3,40,45.3L44.3,45.2z"/>
		<path class="st31" d="M38.5,66.5c-1-1-2.9-3.3-3.4-8.2c-0.4-4.9,1-14.2,0-11.8c-1,2.4-1.9,8-2,10.7c-0.1,2.7,2.5,7.1,3.7,8.3
			C38.2,66.6,39.1,67.1,38.5,66.5z"/>
		<path class="st31" d="M45.5,67.3c0-0.3-0.2-0.9-0.8-1c-0.6-0.1-2.7-0.1-3.2-0.1c-0.5,0-0.9,0.1-1.4-0.1c-0.5-0.2-0.7-0.6-0.7-0.6
			s0.7,0.9,0.5,1.3c-0.2,0.4-0.6,0.1-1-0.2c-0.4-0.3-1.9-1.4-1.3-0.7c0.7,0.7,1.3,0.9,1.4,1.6c0.1,0.7-0.7,2.3-2.5,1.4
			c-1.8-0.9-5.1-3.7-6.1-6c-1.1-2.3-0.5,1.1-0.1,2.6c0.5,1.5,1.9,3.9,4.3,4.7c2.5,0.8,4.3,2.4,2.4,2.4c-1.9,0-1.9,0.9,0.4,1.6
			c2.3,0.7,3.1,0.9,3.1,0.9s2.4-0.2,3.1-0.1c0.7,0.1,1.3,0.3,1.3,0.3s0.8,0.3,0.9-0.7C46,73.5,45.5,67.3,45.5,67.3z"/>
		<path class="st32" d="M44.6,40.3c-0.1-1.2-0.6-2.3-0.4-2.9c0.2-0.6,0.4-1.3-0.7-1.6s-3.7-0.1-2.6,0.4c1.2,0.5,2,1.9,0.8,2.4
			c-1.2,0.5-1.1,1.1-0.1,2.3c1,1.2,1.3,3.1,0.6,3.1c-0.7,0-1.2,0.4,0.4,0.5c1.7,0.2,2,0,2-1.3C44.8,41.9,44.6,40.3,44.6,40.3z"/>
		<path class="st32" d="M44.1,67.3c-0.5-0.7-2.8-0.4-2,0.1c0.7,0.5,1.3,1.3,1.3,2.2c0,0.9-1.1,1.2-1.4,0.5c-0.4-0.7-2.1-1.2-1.2,0.2
			c0.9,1.4,1.9,2,1.8,2.8c-0.1,0.8-0.4,1.3,0.6,1.5c1.1,0.2,2.1,0.2,1.9-1.2c-0.3-1.3-0.4-2-0.3-2.8C44.8,69.7,44.7,68.1,44.1,67.3z
			"/>
		<path class="st33" d="M45.2,92.8c-0.1-1.7,0.7-6.4,0.1-7.1c-0.5-0.7-1.7-0.9-3.5-0.8c-1.7,0.1-6,0.5-7.5,0.3
			c-1.5-0.3,0.7,1.1,3.3,1.5c2.7,0.4,4.8,0.9,5.1,2.4c0.3,1.5-2.3,4.1-3.3,4.9s-0.7,1.2,1.1,0.7c1.7-0.5,3.1,0.7,3.6,1.6
			C44.6,97.2,45.3,95.6,45.2,92.8z"/>
	</g>
	<g>
		<g>
			<g>
				<path class="st34" d="M134,676.6c0,0,16,3.5,19.3-11.5c3.3-15-2.1-27.9-16.6-33.9C135.8,646.3,135,661.4,134,676.6z"/>
			</g>
			<g>
				
					<radialGradient id="SVGID_1_" cx="-300.2365" cy="-36.4321" r="12.3071" gradientTransform="matrix(-0.1076 -0.9942 0.9942 -0.1076 127.1385 349.3441)" gradientUnits="userSpaceOnUse">
					<stop  offset="0" style="stop-color:#847A70"/>
					<stop  offset="1" style="stop-color:#44403C"/>
				</radialGradient>
				<path class="st35" d="M116.8,638.6c-0.1,0-0.2,0.1-0.3,0.1c-0.2,0.1-0.5,0.3-0.7,0.5c-0.2,0.2-0.4,0.4-0.6,0.7
					c-0.2,0.3-0.4,0.6-0.6,0.9c-0.2,0.3-0.3,0.7-0.5,1.1c0,0.1-0.1,0.2-0.1,0.3c0,0.1-0.1,0.2-0.1,0.3c0,0.1-0.1,0.2-0.1,0.3
					c0,0.1-0.1,0.2-0.1,0.3c0,0.1-0.1,0.2-0.1,0.3c0,0.1-0.1,0.2-0.1,0.3c0,0.1,0,0.2-0.1,0.3c0,0.1,0,0.2-0.1,0.3
					c0,0.1,0,0.2-0.1,0.3c0,0.1,0,0.2-0.1,0.3c0,0.1,0,0.2-0.1,0.3c0,0.1,0,0.2-0.1,0.3c0,0.1,0,0.2,0,0.3c0,0.1,0,0.2,0,0.3
					c0,0.1,0,0.2,0,0.3c0,0.1,0,0.2,0,0.3c0,0.1,0,0.2,0,0.3c0,0.1,0,0.2,0,0.3c0,0.1,0,0.2,0,0.3c0,0.1,0,0.2,0,0.3
					c0,0.1,0,0.2,0,0.3c0,0.1,0,0.2,0,0.3c0,0.1,0,0.2,0,0.3c0,0.1,0,0.2,0,0.3c0,0.1,0,0.2,0,0.3c0,0.1,0,0.2,0,0.3
					c0,0.1,0,0.2,0,0.3c0,0.1,0,0.2,0,0.3c0,0.1,0,0.3,0,0.4c0,0.1,0,0.3,0,0.4c0,0.1,0,0.3,0,0.4c0,0.1,0,0.3,0,0.4
					c0,0,0,0.1,0,0.1c0,0,0,0.1,0,0.1c0,0,0,0.1,0,0.1c0,0,0,0.1,0,0.1c0,0.2,0,0.4,0,0.6c0,0.2,0,0.4,0,0.6c0,0.2,0,0.4,0.1,0.6
					c0,0.2,0,0.4,0.1,0.5c0,0.1,0,0.3,0.1,0.4c0,0.1,0,0.3,0.1,0.4c0,0.1,0,0.3,0.1,0.4c0,0.1,0,0.3,0.1,0.4c0,0.2,0.1,0.4,0.1,0.6
					c0,0.2,0.1,0.4,0.1,0.6c0.1,0.2,0.1,0.4,0.2,0.6c0.1,0.2,0.1,0.4,0.2,0.6c0,0.1,0.1,0.2,0.1,0.3c0,0.1,0.1,0.2,0.1,0.3
					c0,0.1,0.1,0.2,0.1,0.3c0,0.1,0.1,0.2,0.1,0.3c0,0.1,0.1,0.2,0.1,0.2c0,0.1,0.1,0.1,0.1,0.2c0,0.1,0.1,0.1,0.1,0.2
					c0,0.1,0.1,0.1,0.1,0.2c0,0.1,0.1,0.1,0.1,0.2c0,0.1,0.1,0.1,0.1,0.2c0,0.1,0.1,0.1,0.1,0.2c0,0.1,0.1,0.1,0.1,0.2
					c0,0,0.1,0.1,0.1,0.1c0,0,0.1,0.1,0.1,0.1c0,0,0.1,0.1,0.1,0.1c0,0,0.1,0.1,0.1,0.1c0,0,0.1,0.1,0.1,0.1c0,0,0.1,0.1,0.1,0.1
					c0,0,0.1,0.1,0.1,0.1c0,0,0.1,0.1,0.1,0.1c0,0,0.1,0.1,0.1,0.1c0,0,0.1,0.1,0.1,0.1c0,0,0.1,0.1,0.1,0.1c0,0,0.1,0.1,0.1,0.1
					c0,0,0.1,0.1,0.1,0.1c0,0,0.1,0,0.1,0.1c0,0,0.1,0,0.1,0.1c0,0,0.1,0,0.1,0.1c0,0,0.1,0,0.1,0c0,0,0.1,0,0.1,0c0,0,0.1,0,0.1,0
					c0,0,0.1,0,0.1,0c4.8,0.7,9.6,1.4,14.4,2.1c0,0-0.1,0-0.1,0c0,0-0.1,0-0.1,0c0,0-0.1,0-0.1,0c0,0-0.1,0-0.1,0
					c-0.1,0-0.1,0-0.1-0.1c-0.1,0-0.1,0-0.1-0.1c-0.1,0-0.1,0-0.1-0.1c-0.1,0-0.1-0.1-0.1-0.1c0,0-0.1-0.1-0.1-0.1
					c0,0-0.1-0.1-0.1-0.1c0,0-0.1-0.1-0.1-0.1c0,0-0.1-0.1-0.1-0.1c0,0-0.1-0.1-0.1-0.1c0,0-0.1-0.1-0.1-0.1c0,0-0.1-0.1-0.1-0.1
					c0,0-0.1-0.1-0.1-0.1c0,0-0.1-0.1-0.1-0.1c0,0-0.1-0.1-0.1-0.1c0,0-0.1-0.1-0.1-0.1c0,0-0.1-0.1-0.1-0.1c0-0.1-0.1-0.1-0.1-0.2
					c0-0.1-0.1-0.1-0.1-0.2c0-0.1-0.1-0.1-0.1-0.2c0-0.1-0.1-0.1-0.1-0.2c0-0.1-0.1-0.1-0.1-0.2c0-0.1-0.1-0.1-0.1-0.2
					c0-0.1-0.1-0.1-0.1-0.2c0-0.1-0.1-0.1-0.1-0.2c0-0.1-0.1-0.2-0.1-0.3c0-0.1-0.1-0.2-0.1-0.3c0-0.1-0.1-0.2-0.1-0.3
					c0-0.1-0.1-0.2-0.1-0.3c-0.1-0.2-0.1-0.4-0.2-0.6c-0.1-0.2-0.1-0.4-0.2-0.6c-0.1-0.2-0.1-0.4-0.2-0.6c-0.1-0.2-0.1-0.4-0.1-0.6
					c0-0.1-0.1-0.2-0.1-0.4c0-0.1,0-0.3-0.1-0.4c0-0.1,0-0.3-0.1-0.4c0-0.1,0-0.3-0.1-0.4c0-0.2,0-0.3-0.1-0.5c0-0.2,0-0.4,0-0.5
					c0-0.2,0-0.4,0-0.5c0-0.2,0-0.4,0-0.6c0,0,0-0.1,0-0.1c0,0,0-0.1,0-0.1c0,0,0-0.1,0-0.1c0,0,0-0.1,0-0.1c0-0.1,0-0.3,0-0.4
					c0-0.1,0-0.3,0-0.4c0-0.1,0-0.2,0-0.4c0-0.1,0-0.2,0-0.4c0-0.1,0-0.2,0-0.3c0-0.1,0-0.2,0-0.3c0-0.1,0-0.2,0-0.3
					c0-0.1,0-0.2,0-0.3c0-0.1,0-0.2,0-0.3c0-0.1,0-0.2,0-0.3c0-0.1,0-0.2,0-0.3c0-0.1,0-0.2,0-0.3c0-0.1,0-0.2,0-0.3
					c0-0.1,0-0.2,0-0.3c0-0.1,0-0.2,0-0.3c0-0.1,0-0.2,0-0.2c0-0.1,0-0.2,0.1-0.3c0-0.1,0-0.2,0.1-0.2c0-0.1,0-0.2,0.1-0.2
					c0-0.1,0-0.2,0.1-0.2c0-0.1,0-0.2,0.1-0.3c0-0.1,0-0.2,0.1-0.2c0-0.1,0-0.2,0.1-0.2c0-0.1,0-0.2,0.1-0.2c0-0.1,0.1-0.2,0.1-0.3
					c0-0.1,0.1-0.2,0.1-0.3c0-0.1,0.1-0.2,0.1-0.3c0-0.1,0.1-0.2,0.1-0.3c0-0.1,0.1-0.2,0.1-0.3c0-0.1,0.1-0.2,0.1-0.3
					c0-0.1,0.1-0.2,0.1-0.3c0-0.1,0.1-0.2,0.1-0.3c0.2-0.4,0.4-0.7,0.6-1c0.2-0.3,0.4-0.6,0.7-0.8c0.2-0.3,0.5-0.5,0.8-0.7
					c0.3-0.2,0.5-0.3,0.8-0.4c0.1-0.1,0.3-0.1,0.4-0.1c0.1,0,0.3,0,0.4-0.1c0.1,0,0.3,0,0.4,0c0.1,0,0.3,0,0.4,0.1
					c-4.9-1.1-9.9-2.2-14.9-3.3c-0.1,0-0.2,0-0.3,0c-0.1,0-0.2,0-0.3,0C117,638.5,116.9,638.5,116.8,638.6z"/>
				
					<radialGradient id="SVGID_2_" cx="-300.4084" cy="-29.7889" r="20.8497" gradientTransform="matrix(-0.1076 -0.9942 0.9942 -0.1076 127.1385 349.3441)" gradientUnits="userSpaceOnUse">
					<stop  offset="0" style="stop-color:#847A70"/>
					<stop  offset="1" style="stop-color:#44403C"/>
				</radialGradient>
				<path class="st36" d="M119.6,626.5C119.6,626.5,119.6,626.5,119.6,626.5c0.1,0,0.1,0,0.1,0c0,0,0,0,0.1,0c0.1,0,0.2,0.1,0.3,0.1
					c0.1,0,0.2,0.1,0.3,0.1c0.1,0,0.2,0.1,0.2,0.1c0.1,0,0.2,0.1,0.3,0.1c0.1,0,0.2,0.1,0.3,0.2c0.1,0.1,0.2,0.1,0.2,0.2
					c0.1,0.1,0.2,0.1,0.3,0.2c0.1,0.1,0.2,0.1,0.2,0.2c0.1,0.1,0.2,0.1,0.3,0.2c0.1,0.1,0.2,0.2,0.3,0.2c0.1,0.1,0.2,0.2,0.3,0.3
					c0.1,0.1,0.2,0.2,0.3,0.3c0.1,0.1,0.2,0.2,0.3,0.3c0.1,0.1,0.2,0.2,0.3,0.4c0.1,0.1,0.2,0.2,0.3,0.4c0.1,0.1,0.2,0.3,0.3,0.4
					c0.1,0.2,0.2,0.3,0.3,0.5c0.1,0.2,0.2,0.4,0.3,0.5c0.1,0.2,0.2,0.4,0.3,0.6c0.1,0.2,0.2,0.4,0.3,0.6c0.2,0.4,0.3,0.8,0.5,1.2
					c0.2,0.4,0.3,0.8,0.5,1.3c0.1,0.4,0.3,0.9,0.4,1.4c0.1,0.5,0.3,1,0.4,1.5c0.1,0.3,0.1,0.6,0.2,0.9c0.1,0.3,0.1,0.6,0.2,0.9
					c0.1,0.3,0.1,0.6,0.2,1c0.1,0.3,0.1,0.7,0.1,1c0.1,0.4,0.1,0.9,0.2,1.3c0.1,0.4,0.1,0.9,0.1,1.4c0,0.5,0.1,0.9,0.1,1.4
					c0,0.5,0.1,1,0.1,1.4c0,0.1,0,0.2,0,0.4c0,0.1,0,0.2,0,0.4c0,0.1,0,0.2,0,0.4c0,0.1,0,0.2,0,0.4c0,0.3,0,0.7,0,1
					c0,0.3,0,0.7,0,1c0,0.3,0,0.7,0,1c0,0.3,0,0.7,0,1c0,0.3,0,0.5,0,0.8c0,0.3,0,0.5-0.1,0.8c0,0.3,0,0.5-0.1,0.8
					c0,0.3-0.1,0.5-0.1,0.8c0,0.2-0.1,0.5-0.1,0.7c0,0.2-0.1,0.5-0.1,0.7c0,0.2-0.1,0.5-0.1,0.7c0,0.2-0.1,0.5-0.1,0.7
					c0,0.2-0.1,0.4-0.1,0.7c0,0.2-0.1,0.4-0.1,0.7c0,0.2-0.1,0.4-0.1,0.6c0,0.2-0.1,0.4-0.1,0.6c0,0.2-0.1,0.4-0.1,0.6
					c0,0.2-0.1,0.4-0.1,0.6c0,0.2-0.1,0.4-0.1,0.6c-0.1,0.2-0.1,0.4-0.2,0.6c-0.1,0.2-0.1,0.4-0.2,0.6c-0.1,0.2-0.1,0.4-0.2,0.6
					c-0.1,0.2-0.1,0.4-0.2,0.6c-0.1,0.2-0.1,0.4-0.2,0.6c-0.1,0.2-0.1,0.4-0.2,0.6c-0.1,0.2-0.1,0.4-0.2,0.6
					c-0.1,0.2-0.1,0.4-0.2,0.6c-0.1,0.2-0.2,0.4-0.2,0.6c-0.1,0.2-0.2,0.5-0.3,0.7c-0.1,0.2-0.2,0.4-0.3,0.6
					c-0.1,0.2-0.2,0.4-0.3,0.6c-0.1,0.2-0.2,0.4-0.3,0.6c-0.4,0.8-0.9,1.4-1.3,2c-0.5,0.6-0.9,1-1.4,1.4c-0.5,0.4-1,0.7-1.4,0.8
					c-0.5,0.2-1,0.2-1.5,0.2c4.8,0.5,9.6,1,14.4,1.4c0.6,0,1.1,0,1.7-0.2c0.6-0.2,1.1-0.4,1.7-0.7c0.6-0.3,1.1-0.8,1.6-1.3
					c0.5-0.5,1-1.2,1.5-1.9c0.1-0.2,0.2-0.4,0.4-0.5c0.1-0.2,0.2-0.4,0.3-0.6c0.1-0.2,0.2-0.4,0.3-0.6c0.1-0.2,0.2-0.4,0.3-0.6
					c0.1-0.2,0.2-0.4,0.3-0.5c0.1-0.2,0.2-0.4,0.3-0.6c0.1-0.2,0.2-0.4,0.3-0.6c0.1-0.2,0.2-0.4,0.2-0.6c0.1-0.2,0.1-0.4,0.2-0.5
					c0.1-0.2,0.1-0.4,0.2-0.6c0.1-0.2,0.1-0.4,0.2-0.6c0.1-0.2,0.1-0.4,0.2-0.6c0.1-0.2,0.1-0.4,0.2-0.6c0.1-0.2,0.1-0.4,0.2-0.6
					c0.1-0.2,0.1-0.4,0.2-0.6c0.1-0.2,0.1-0.4,0.2-0.6c0.1-0.2,0.1-0.4,0.2-0.6c0-0.2,0.1-0.4,0.1-0.6c0-0.2,0.1-0.4,0.1-0.6
					c0-0.2,0.1-0.4,0.1-0.6c0-0.2,0.1-0.4,0.1-0.7c0-0.2,0.1-0.4,0.1-0.7c0-0.2,0.1-0.4,0.1-0.7c0-0.2,0.1-0.4,0.1-0.7
					c0-0.2,0.1-0.5,0.1-0.7c0-0.3,0.1-0.5,0.1-0.8c0-0.2,0.1-0.5,0.1-0.8c0-0.3,0-0.5,0.1-0.8c0-0.3,0-0.6,0.1-0.9
					c0-0.3,0-0.6,0-0.9c0-0.3,0-0.6,0-0.9c0-0.3,0-0.6,0-0.9c0-0.1,0-0.2,0-0.3c0-0.1,0-0.2,0-0.3c0-0.1,0-0.2,0-0.3
					c0-0.1,0-0.2,0-0.3c0-0.5,0-0.9-0.1-1.4c0-0.4-0.1-0.9-0.1-1.3c0-0.4-0.1-0.9-0.1-1.3c-0.1-0.4-0.1-0.8-0.2-1.3
					c0-0.3-0.1-0.6-0.2-0.9c-0.1-0.3-0.1-0.6-0.2-0.9c-0.1-0.3-0.1-0.6-0.2-0.9c-0.1-0.3-0.1-0.6-0.2-0.9c-0.1-0.5-0.3-0.9-0.4-1.4
					c-0.1-0.4-0.3-0.9-0.4-1.3c-0.2-0.4-0.3-0.8-0.5-1.2c-0.2-0.4-0.3-0.8-0.5-1.1c-0.1-0.2-0.2-0.4-0.3-0.6
					c-0.1-0.2-0.2-0.4-0.3-0.6c-0.1-0.2-0.2-0.4-0.3-0.5c-0.1-0.2-0.2-0.3-0.3-0.5c-0.1-0.1-0.2-0.3-0.3-0.4
					c-0.1-0.1-0.2-0.3-0.3-0.4c-0.1-0.1-0.2-0.2-0.3-0.4c-0.1-0.1-0.2-0.2-0.3-0.3c-0.1-0.1-0.2-0.2-0.3-0.3
					c-0.1-0.1-0.2-0.2-0.3-0.3c-0.1-0.1-0.2-0.2-0.3-0.2c-0.1-0.1-0.2-0.2-0.3-0.2c-0.1-0.1-0.2-0.1-0.3-0.2
					c-0.1-0.1-0.2-0.1-0.3-0.2c-0.1-0.1-0.2-0.1-0.3-0.2c-0.1-0.1-0.2-0.1-0.3-0.2c-0.1,0-0.2-0.1-0.3-0.1c-0.1,0-0.2-0.1-0.3-0.1
					c-0.1,0-0.2-0.1-0.3-0.1c-0.1,0-0.2-0.1-0.3-0.1c0,0,0,0-0.1,0c0,0,0,0-0.1,0c0,0,0,0-0.1,0c0,0,0,0-0.1,0
					C129.9,629.1,124.8,627.8,119.6,626.5C119.6,626.5,119.6,626.5,119.6,626.5z"/>
				
					<radialGradient id="SVGID_3_" cx="-298.7762" cy="-40.9859" r="18.6014" gradientTransform="matrix(-0.1076 -0.9942 0.9942 -0.1076 127.1385 349.3441)" gradientUnits="userSpaceOnUse">
					<stop  offset="0" style="stop-color:#988E82"/>
					<stop  offset="1" style="stop-color:#655E57"/>
				</radialGradient>
				<path class="st37" d="M108.9,653.2c-0.1-2.9-0.1-5.7,0.1-8.4c0.2-2.7,0.6-5.2,1.2-7.5c0.6-2.3,1.3-4.4,2.2-6.1
					c0.9-1.8,2.1-3.2,3.3-4c1.3-0.9,2.7-1.1,3.9-0.7c1.4,0.4,2.6,1.5,3.8,3.2c1.2,1.7,2.2,4.1,3,7c0.8,3,1.3,6.4,1.5,10.3
					c0.2,3.9-0.1,7.7-0.6,11.2c-0.5,3.5-1.3,6.6-2.3,9.3c-1,2.6-2.1,4.6-3.4,5.9c-1.2,1.3-2.5,2-3.8,1.9c-1.3-0.1-2.5-0.8-3.5-2.1
					c-1-1.2-1.9-2.9-2.7-5c-0.8-2-1.4-4.3-1.9-6.9C109.4,658.9,109,656.1,108.9,653.2z M121.4,644.1c-0.3-1.4-0.8-2.6-1.3-3.5
					c-0.5-0.9-1.1-1.5-1.7-1.9c-0.6-0.3-1.3-0.3-1.9,0c-0.6,0.3-1.2,0.9-1.7,1.8c-0.5,0.8-0.9,1.9-1.2,3.1c-0.3,1.2-0.6,2.5-0.7,3.9
					c-0.1,1.4-0.2,2.9-0.1,4.5c0.1,1.5,0.3,3,0.5,4.3c0.3,1.3,0.6,2.5,1.1,3.5c0.4,1,0.9,1.8,1.5,2.3c0.6,0.5,1.2,0.8,1.8,0.7
					c0.7-0.1,1.3-0.5,1.8-1.3c0.6-0.7,1.1-1.8,1.5-3c0.4-1.3,0.8-2.8,1-4.4c0.2-1.6,0.3-3.4,0.2-5.2
					C122,647.1,121.8,645.5,121.4,644.1z"/>
			</g>
			<g>
				
					<radialGradient id="SVGID_4_" cx="-297.1809" cy="-44.068" r="7.9394" gradientTransform="matrix(-0.1076 -0.9942 0.9942 -0.1076 127.1385 349.3441)" gradientUnits="userSpaceOnUse">
					<stop  offset="0" style="stop-color:#FFFFFF"/>
					<stop  offset="1" style="stop-color:#655E57"/>
				</radialGradient>
				<path class="st38" d="M117.2,638.5c0,0-0.7,0.4-1.2,0.9c-1.3,1.1-2.9,3.8-3.1,9.6c-0.2,4.5,0.3,7.4,0.9,9.2
					c0.4,1.4,0.8,2.3,0.8,2.3s-0.7-1.1-1.2-2.8c-0.6-1.9-1.1-4.5-0.9-8.8c0.2-5.5,1.6-8.1,2.9-9.4
					C116.2,638.6,117.2,638.5,117.2,638.5z"/>
			</g>
			
				<ellipse transform="matrix(4.801543e-002 -0.9988 0.9988 4.801543e-002 -557.6979 711.7354)" class="st39" cx="94.5" cy="648.4" rx="2.8" ry="22.3"/>
		</g>
		<g>
			<g>
				
					<radialGradient id="SVGID_5_" cx="953.8041" cy="1699.7561" r="38.0587" gradientTransform="matrix(-0.2711 0.8623 -0.9539 -0.2999 1979.7238 332.6447)" gradientUnits="userSpaceOnUse">
					<stop  offset="0.1076" style="stop-color:#FDEBEC"/>
					<stop  offset="1" style="stop-color:#AB898A"/>
				</radialGradient>
				<path class="st40" d="M89.4,678.2c-20-6.3-31.7-26.1-26-44.2c5.7-18.1,26.6-27.7,46.6-21.4c20,6.3,31.7,26.1,26,44.2
					C130.4,674.9,109.5,684.5,89.4,678.2z"/>
			</g>
			<g>
				
					<linearGradient id="SVGID_6_" gradientUnits="userSpaceOnUse" x1="957.2086" y1="1724.2665" x2="957.2086" y2="1667.3645" gradientTransform="matrix(-0.2711 0.8623 -0.9539 -0.2999 1979.7238 332.6447)">
					<stop  offset="0" style="stop-color:#AB898A"/>
					<stop  offset="1" style="stop-color:#FDEBEC"/>
				</linearGradient>
				<path class="st41" d="M94.9,674c-15-4.7-23.7-19.5-19.4-33.1c4.3-13.5,19.9-20.7,34.8-16c15,4.7,23.7,19.5,19.4,33.1
					C125.5,671.6,109.9,678.7,94.9,674z"/>
			</g>
		</g>
	</g>
</g>
</svg>
