<!-- Generator: Adobe Illustrator 19.2.1, SVG Export Plug-In  -->
<svg version="1.1"
	 xmlns="http://www.w3.org/2000/svg" xmlns:xlink="http://www.w3.org/1999/xlink" xmlns:a="http://ns.adobe.com/AdobeSVGViewerExtensions/3.0/"
	 x="0px" y="0px" width="554.3px" height="1119.6px" viewBox="0 0 554.3 1119.6"
	 style="overflow:scroll;enable-background:new 0 0 554.3 1119.6;" xml:space="preserve">
<style type="text/css">
	.st0{fill:#978B52;}
	.st1{fill:#CBC4A4;}
	.st2{fill:#DEDAC4;}
	.st3{fill:#B37554;}
	.st4{fill:#A22E38;}
	.st5{fill:#E04E4D;}
	.st6{enable-background:new    ;}
	.st7{clip-path:url(#SVGID_2_);enable-background:new    ;}
	.st8{fill:#4A3E42;}
	.st9{clip-path:url(#SVGID_4_);enable-background:new    ;}
	.st10{fill:#4A3E41;}
	.st11{clip-path:url(#SVGID_6_);enable-background:new    ;}
	.st12{fill:#88620B;}
	.st13{clip-path:url(#SVGID_8_);enable-background:new    ;}
	.st14{clip-path:url(#SVGID_10_);enable-background:new    ;}
	.st15{clip-path:url(#SVGID_12_);enable-background:new    ;}
	.st16{clip-path:url(#SVGID_14_);enable-background:new    ;}
	.st17{clip-path:url(#SVGID_16_);enable-background:new    ;}
	.st18{fill:#8E2914;}
	.st19{clip-path:url(#SVGID_18_);enable-background:new    ;}
	.st20{clip-path:url(#SVGID_20_);enable-background:new    ;}
	.st21{fill:#862610;}
	.st22{fill:#4B3E42;}
	.st23{clip-path:url(#SVGID_22_);enable-background:new    ;}
	.st24{clip-path:url(#SVGID_24_);enable-background:new    ;}
	.st25{fill:#858585;}
	.st26{clip-path:url(#SVGID_26_);enable-background:new    ;}
	.st27{clip-path:url(#SVGID_28_);enable-background:new    ;}
	.st28{fill:#8C650D;}
	.st29{clip-path:url(#SVGID_30_);enable-background:new    ;}
	.st30{fill:#8A2812;}
	.st31{clip-path:url(#SVGID_32_);enable-background:new    ;}
	.st32{clip-path:url(#SVGID_34_);enable-background:new    ;}
	.st33{fill:#594B4F;}
	.st34{clip-path:url(#SVGID_36_);enable-background:new    ;}
	.st35{clip-path:url(#SVGID_38_);enable-background:new    ;}
	.st36{fill:#808080;}
	.st37{clip-path:url(#SVGID_40_);enable-background:new    ;}
	.st38{clip-path:url(#SVGID_42_);enable-background:new    ;}
	.st39{clip-path:url(#SVGID_44_);enable-background:new    ;}
	.st40{clip-path:url(#SVGID_46_);enable-background:new    ;}
	.st41{clip-path:url(#SVGID_48_);enable-background:new    ;}
	.st42{clip-path:url(#SVGID_50_);enable-background:new    ;}
	.st43{fill:#8A8A8A;}
	.st44{clip-path:url(#SVGID_52_);enable-background:new    ;}
	.st45{fill:#977810;}
	.st46{clip-path:url(#SVGID_54_);enable-background:new    ;}
	.st47{clip-path:url(#SVGID_56_);enable-background:new    ;}
	.st48{fill:#8D2914;}
	.st49{clip-path:url(#SVGID_58_);enable-background:new    ;}
	.st50{clip-path:url(#SVGID_60_);enable-background:new    ;}
	.st51{clip-path:url(#SVGID_62_);enable-background:new    ;}
	.st52{fill:#4C4145;}
	.st53{clip-path:url(#SVGID_64_);enable-background:new    ;}
	.st54{clip-path:url(#SVGID_66_);enable-background:new    ;}
	.st55{clip-path:url(#SVGID_68_);enable-background:new    ;}
	.st56{clip-path:url(#SVGID_70_);enable-background:new    ;}
	.st57{clip-path:url(#SVGID_72_);enable-background:new    ;}
	.st58{clip-path:url(#SVGID_74_);enable-background:new    ;}
	.st59{clip-path:url(#SVGID_76_);enable-background:new    ;}
	.st60{clip-path:url(#SVGID_78_);enable-background:new    ;}
	.st61{clip-path:url(#SVGID_80_);enable-background:new    ;}
	.st62{clip-path:url(#SVGID_82_);enable-background:new    ;}
	.st63{clip-path:url(#SVGID_84_);enable-background:new    ;}
	.st64{clip-path:url(#SVGID_86_);enable-background:new    ;}
	.st65{clip-path:url(#SVGID_88_);enable-background:new    ;}
	.st66{clip-path:url(#SVGID_90_);enable-background:new    ;}
	.st67{clip-path:url(#SVGID_92_);enable-background:new    ;}
	.st68{clip-path:url(#SVGID_94_);enable-background:new    ;}
	.st69{clip-path:url(#SVGID_96_);enable-background:new    ;}
	.st70{clip-path:url(#SVGID_98_);enable-background:new    ;}
	.st71{clip-path:url(#SVGID_100_);enable-background:new    ;}
	.st72{clip-path:url(#SVGID_102_);enable-background:new    ;}
	.st73{clip-path:url(#SVGID_104_);enable-background:new    ;}
	.st74{clip-path:url(#SVGID_106_);enable-background:new    ;}
	.st75{clip-path:url(#SVGID_108_);enable-background:new    ;}
	.st76{clip-path:url(#SVGID_110_);enable-background:new    ;}
	.st77{fill:#DE482F;}
	.st78{clip-path:url(#SVGID_112_);enable-background:new    ;}
	.st79{clip-path:url(#SVGID_114_);enable-background:new    ;}
	.st80{clip-path:url(#SVGID_116_);enable-background:new    ;}
	.st81{fill:#F8F8F8;}
	.st82{clip-path:url(#SVGID_118_);enable-background:new    ;}
	.st83{clip-path:url(#SVGID_120_);enable-background:new    ;}
	.st84{clip-path:url(#SVGID_122_);enable-background:new    ;}
	.st85{fill:#F7C126;}
	.st86{fill:#DE9F24;}
	.st87{fill:#9B7B12;}
	.st88{clip-path:url(#SVGID_124_);enable-background:new    ;}
	.st89{clip-path:url(#SVGID_126_);enable-background:new    ;}
	.st90{clip-path:url(#SVGID_128_);enable-background:new    ;}
	.st91{fill:#4D4246;}
	.st92{clip-path:url(#SVGID_130_);enable-background:new    ;}
	.st93{clip-path:url(#SVGID_132_);enable-background:new    ;}
	.st94{clip-path:url(#SVGID_134_);enable-background:new    ;}
	.st95{clip-path:url(#SVGID_136_);enable-background:new    ;}
	.st96{clip-path:url(#SVGID_138_);enable-background:new    ;}
	.st97{fill:#65575C;}
	.st98{clip-path:url(#SVGID_140_);enable-background:new    ;}
	.st99{clip-path:url(#SVGID_142_);enable-background:new    ;}
	.st100{fill:#F36F65;}
	.st101{fill:#F6988E;}
	.st102{clip-path:url(#SVGID_144_);enable-background:new    ;}
	.st103{clip-path:url(#SVGID_146_);enable-background:new    ;}
	.st104{clip-path:url(#SVGID_148_);enable-background:new    ;}
	.st105{clip-path:url(#SVGID_150_);enable-background:new    ;}
	.st106{clip-path:url(#SVGID_152_);enable-background:new    ;}
	.st107{clip-path:url(#SVGID_154_);enable-background:new    ;}
	.st108{clip-path:url(#SVGID_156_);enable-background:new    ;}
	.st109{clip-path:url(#SVGID_158_);enable-background:new    ;}
	.st110{clip-path:url(#SVGID_160_);enable-background:new    ;}
	.st111{clip-path:url(#SVGID_162_);enable-background:new    ;}
	.st112{clip-path:url(#SVGID_164_);enable-background:new    ;}
	.st113{clip-path:url(#SVGID_166_);enable-background:new    ;}
	.st114{clip-path:url(#SVGID_168_);enable-background:new    ;}
	.st115{clip-path:url(#SVGID_170_);enable-background:new    ;}
	.st116{clip-path:url(#SVGID_172_);enable-background:new    ;}
	.st117{clip-path:url(#SVGID_174_);enable-background:new    ;}
	.st118{clip-path:url(#SVGID_176_);enable-background:new    ;}
	.st119{clip-path:url(#SVGID_178_);enable-background:new    ;}
	.st120{clip-path:url(#SVGID_180_);enable-background:new    ;}
	.st121{clip-path:url(#SVGID_182_);enable-background:new    ;}
	.st122{clip-path:url(#SVGID_184_);enable-background:new    ;}
	.st123{clip-path:url(#SVGID_186_);enable-background:new    ;}
	.st124{clip-path:url(#SVGID_188_);enable-background:new    ;}
	.st125{clip-path:url(#SVGID_190_);enable-background:new    ;}
	.st126{clip-path:url(#SVGID_192_);enable-background:new    ;}
	.st127{clip-path:url(#SVGID_194_);enable-background:new    ;}
	.st128{clip-path:url(#SVGID_196_);enable-background:new    ;}
	.st129{clip-path:url(#SVGID_198_);enable-background:new    ;}
	.st130{clip-path:url(#SVGID_200_);enable-background:new    ;}
	.st131{clip-path:url(#SVGID_202_);enable-background:new    ;}
	.st132{clip-path:url(#SVGID_204_);enable-background:new    ;}
	.st133{clip-path:url(#SVGID_206_);enable-background:new    ;}
	.st134{clip-path:url(#SVGID_208_);enable-background:new    ;}
	.st135{clip-path:url(#SVGID_210_);enable-background:new    ;}
	.st136{clip-path:url(#SVGID_212_);enable-background:new    ;}
	.st137{clip-path:url(#SVGID_214_);enable-background:new    ;}
	.st138{clip-path:url(#SVGID_216_);enable-background:new    ;}
	.st139{clip-path:url(#SVGID_218_);enable-background:new    ;}
	.st140{clip-path:url(#SVGID_220_);enable-background:new    ;}
	.st141{clip-path:url(#SVGID_222_);enable-background:new    ;}
	.st142{clip-path:url(#SVGID_224_);enable-background:new    ;}
	.st143{clip-path:url(#SVGID_226_);enable-background:new    ;}
	.st144{clip-path:url(#SVGID_228_);enable-background:new    ;}
	.st145{clip-path:url(#SVGID_230_);enable-background:new    ;}
	.st146{clip-path:url(#SVGID_232_);enable-background:new    ;}
	.st147{clip-path:url(#SVGID_234_);enable-background:new    ;}
	.st148{clip-path:url(#SVGID_236_);enable-background:new    ;}
	.st149{clip-path:url(#SVGID_238_);enable-background:new    ;}
	.st150{clip-path:url(#SVGID_240_);enable-background:new    ;}
	.st151{clip-path:url(#SVGID_242_);enable-background:new    ;}
	.st152{clip-path:url(#SVGID_244_);enable-background:new    ;}
	.st153{clip-path:url(#SVGID_246_);enable-background:new    ;}
	.st154{clip-path:url(#SVGID_248_);enable-background:new    ;}
	.st155{clip-path:url(#SVGID_250_);enable-background:new    ;}
	.st156{clip-path:url(#SVGID_252_);enable-background:new    ;}
	.st157{clip-path:url(#SVGID_254_);enable-background:new    ;}
	.st158{clip-path:url(#SVGID_256_);enable-background:new    ;}
	.st159{clip-path:url(#SVGID_258_);enable-background:new    ;}
	.st160{clip-path:url(#SVGID_260_);enable-background:new    ;}
	.st161{clip-path:url(#SVGID_262_);enable-background:new    ;}
	.st162{clip-path:url(#SVGID_264_);enable-background:new    ;}
	.st163{clip-path:url(#SVGID_266_);enable-background:new    ;}
	.st164{clip-path:url(#SVGID_268_);enable-background:new    ;}
	.st165{clip-path:url(#SVGID_270_);enable-background:new    ;}
	.st166{clip-path:url(#SVGID_272_);enable-background:new    ;}
	.st167{clip-path:url(#SVGID_274_);enable-background:new    ;}
	.st168{clip-path:url(#SVGID_276_);enable-background:new    ;}
	.st169{clip-path:url(#SVGID_278_);enable-background:new    ;}
	.st170{clip-path:url(#SVGID_280_);enable-background:new    ;}
	.st171{clip-path:url(#SVGID_282_);enable-background:new    ;}
	.st172{clip-path:url(#SVGID_284_);enable-background:new    ;}
</style>
<defs>
</defs>
<path class="st0" d="M421.9,160.6c-0.9,4.5,1.4,10.3,5.2,12.9c3.8,2.6,7.7,1.2,8.6-3.3c0.9-4.5-1.4-10.3-5.2-12.9
	C426.7,154.6,422.8,156.1,421.9,160.6z"/>
<path class="st1" d="M425.7,163c-0.8,4.1,0.7,8.9,3.5,10.8c2.8,1.9,5.7,0.2,6.5-3.9c0.8-4.1-0.7-8.9-3.5-10.8
	C429.5,157.2,426.6,158.9,425.7,163z"/>
<path class="st2" d="M428.8,165.2c-0.3,2.2,0.7,4.7,2.1,5.6c1.4,0.9,2.7-0.2,3-2.5c0.3-2.2-0.7-4.7-2.1-5.6
	C430.4,161.9,429,163,428.8,165.2z"/>
<path class="st3" d="M440.7,204.7"/>
<path class="st4" d="M148.6,1.5c0,0-39.2-5.4-62.9,21.3c-25.2,28.3-28,84.5-32.4,127.9c-4.4,43.3-35.7,335.6-40.1,413.2
	c-4.4,77.6-8,444.2-8.1,467.8c-0.1,23.6,4.9,61.4,73.7,73.6c0,0,75.4,14.9,139.7,14.2c64.3-0.7,215-15.7,243.3-23.6
	c28.3-7.9,53.9-22.7,62.6-29.5c8.7-6.8,23.4-29,23.4-29l-12.3,13.6c0,0-25,27.9-73.7,41.1c-43.7,11.8-200.5,23.7-231.9,24.3
	c-31.4,0.6-115.7-5.4-145.6-12.7c-29.9-7.3-70.5-14.1-72.1-66c-1.7-51.9,1.3-308.8,2.9-370.5c1.6-61.7,6.5-137,10.3-197.3
	c0.2-3.2,0.5-6.8,0.8-10.8c5.3-69.1,25-238.2,28-282.5C57.3,129.7,68,61.3,84.7,32C97.1,10.4,104.3,8.3,117,4.5
	C129.6,0.8,143.7,1.3,148.6,1.5z"/>
<path class="st4" d="M6,1070.5L6,1070.5c-3.3,0-6-2.7-6-6V921.7c0-3.3,2.7-6,6-6h0c3.3,0,6,2.7,6,6v142.8
	C12.1,1067.8,9.4,1070.5,6,1070.5z"/>
<g>
	<path class="st5" d="M185.2,1072.3c-53.4-10-105.5-19.2-105.2-75.8c0.3-56.6,2.4-361.6,6.3-408.9c3.9-47.3-2.7-289.4,1.1-303.3
		c4.7-17.2,22-23.8,33.9-20.8c11.8,2.9,52.6,12.4,74.6,18.2c31,8.1,79.5,14.6,152.6,17.9c63.5,2.8,89.7,1.1,106.9-1.8
		c16.7-2.9,32.2-6.9,38.3-8.6l5.2-2.2c0,0,8.7-4.3,9.3-9.2c1.4-13.1-8.4-13.7-16.1-29.9c-37.9-79.3-56-167.6-58.1-174.6
		c-9.4-32.9-10.5-61.3-37.9-63.6c-75-6.4-220.1-7.2-248.2-9.1c-9.4-0.6-24-2.1-38.1,7.2c-14.1,9.2-48.5,51.2-53.8,115.6
		c-5.3,64.4-30,315-33.4,348.7C19.1,505.7,9.7,656.7,7.8,704.1c-1.9,47.4,2.5,186.3-2.6,231.1c-4.1,35.7,3.9,65.4,2.1,116.1
		c-0.6,17.5,26.9,40.8,60.4,50.1c33.5,9.2,110.7,22.8,184.7,16.7c74-6.1,159.4-10.5,201.2-21.5c41.8-11.1,53-19.1,63.6-27.7
		c10.6-8.6,18.7-18.7,18.7-18.7s0.2-0.3,0.6-0.7c-9.3,6.3-22.8,12.7-42.1,18.3C400,1095.5,257.2,1085.7,185.2,1072.3z"/>
	<path class="st4" d="M489,295c2.3-0.7,3.5-1.1,3.5-1.1s0,0.1,0,0.4c0.1-1.7,0.1-2.6,0.1-2.6l3.7-3.2c0,0-1,0.3-2.7,0.8l-4.7,2
		L489,295z"/>
	<path class="st4" d="M551,1020.9c-0.9,4.8-3.9,11.1-12.3,16.6c1.2,3.4,3.9,4.1,3.3,4.9c-1,1.1-4.3,5.3-5.6,7
		c7.1-4.8,11.8-9.6,14.9-14.1C557.2,1026.7,552.6,1022.1,551,1020.9z"/>
	<path class="st4" d="M538.7,1037.5c-1.3,0.9-2.8,1.8-4.4,2.6c-21.8,11.3-58.1,30.3-155.9,33.2c-97.8,2.8-195.4-8.1-232.1-18.6
		c-36.8-10.5-56.2-22.5-59.1-51.3c-2.8-28.9,4.4-670.4,4.9-697.9c0.5-27.5,17.5-37.1,35.5-33.5c18,3.6,82.9,20.1,123.6,25.5
		c40.7,5.5,165.3,10,194.4,6.3c21.5-2.7,36.8-6.8,43.4-8.7l-0.1-3.9l4.7-2c-6.1,1.7-21.6,5.7-38.3,8.6c-17.2,2.9-43.4,4.6-106.9,1.8
		c-73.1-3.3-121.6-9.8-152.6-17.9c-22-5.8-62.8-15.3-74.6-18.2c-11.8-2.9-29.1,3.6-33.9,20.8c-3.8,13.9,2.8,256-1.1,303.3
		c-3.9,47.3-6,352.4-6.3,408.9c-0.3,56.5,51.8,65.8,105.2,75.8c72.1,13.4,214.9,23.2,309.2-4.5c19.3-5.7,32.7-12,42.1-18.3
		c1.3-1.7,4.6-5.9,5.6-7C542.7,1041.7,539.9,1040.9,538.7,1037.5z"/>
</g>
<g>
	<g>
		<g class="st6">
			<g class="st6">
				<defs>
					<path id="SVGID_1_" class="st6" d="M375.2,63.9l-7.8,2.1c1.3-0.3,2.5-0.8,3.7-1.4l7.8-2.1C377.7,63.1,376.5,63.5,375.2,63.9z"
						/>
				</defs>
				<clipPath id="SVGID_2_">
					<use xlink:href="#SVGID_1_"  style="overflow:visible;"/>
				</clipPath>
				<g class="st7">
					<path class="st8" d="M375.2,63.9l-7.8,2.1c1.3-0.3,2.5-0.8,3.7-1.4l7.8-2.1C377.7,63.1,376.5,63.5,375.2,63.9"/>
				</g>
			</g>
			<g class="st6">
				<defs>
					<path id="SVGID_3_" class="st6" d="M293.4,43.2c-1-0.1-1.9-0.1-2.9-0.1l7.8-2.1c1,0,1.9,0,2.9,0.1c33.6,2,62.6,34.4,65.3,73.8
						c2.4,34.7-16.3,63.6-43.7,71L315,188c27.4-7.4,46.1-36.3,43.7-71C356,77.6,327,45.2,293.4,43.2z"/>
				</defs>
				<clipPath id="SVGID_4_">
					<use xlink:href="#SVGID_3_"  style="overflow:visible;"/>
				</clipPath>
				<g class="st9">
					<path class="st8" d="M322.8,185.9L315,188c16.7-4.5,30.2-17.1,37.6-34.1l7.8-2.1C353,168.8,339.5,181.3,322.8,185.9"/>
					<path class="st10" d="M360.4,151.8l-7.8,2.1c4.7-10.8,7-23.4,6.1-36.9C356,77.6,327,45.2,293.4,43.2c-1-0.1-1.9-0.1-2.9-0.1
						l7.8-2.1c1,0,1.9,0,2.9,0.1c33.6,2,62.6,34.4,65.3,73.8C367.4,128.4,365.1,141,360.4,151.8"/>
				</g>
			</g>
			<g class="st6">
				<defs>
					<path id="SVGID_5_" class="st6" d="M350.3,116.2C350.3,116.2,350.3,116.2,350.3,116.2c0.3-0.2,0.6-0.3,0.9-0.3
						c0.3-0.1,0.7-0.2,1-0.3c0.3-0.1,0.7-0.2,1-0.3c0.3-0.1,0.7-0.2,1-0.3s0.7-0.2,1-0.3c0.3-0.1,0.7-0.2,1-0.3
						c0.3-0.1,0.7-0.2,1-0.3c0.3-0.1,0.6-0.2,0.9-0.2c0,0,0,0.1,0,0.1C355.5,114.8,352.9,115.5,350.3,116.2z"/>
				</defs>
				<clipPath id="SVGID_6_">
					<use xlink:href="#SVGID_5_"  style="overflow:visible;"/>
				</clipPath>
				<g class="st11">
					<path class="st12" d="M358.2,114.8l-7.8,2.1C348,82.8,323,54.8,293.9,52.9c-1-0.1-1.9-0.1-2.7-0.1l7.8-2.1c0.8,0,1.7,0,2.7,0.1
						C330.8,52.6,355.8,80.7,358.2,114.8"/>
				</g>
			</g>
			<g class="st6">
				<defs>
					<path id="SVGID_7_" class="st6" d="M350.4,117c0-0.2,0-0.5-0.1-0.7c2.6-0.7,5.2-1.4,7.8-2.1c0,0.2,0,0.5,0.1,0.7
						C355.8,115.5,352.7,116.3,350.4,117z"/>
				</defs>
				<clipPath id="SVGID_8_">
					<use xlink:href="#SVGID_7_"  style="overflow:visible;"/>
				</clipPath>
				<g class="st13">
					<path class="st12" d="M358.2,114.8l-7.8,2.1C348,82.8,323,54.8,293.9,52.9c-1-0.1-1.9-0.1-2.7-0.1l7.8-2.1c0.8,0,1.7,0,2.7,0.1
						C330.8,52.6,355.8,80.7,358.2,114.8"/>
				</g>
			</g>
			<g class="st6">
				<defs>
					<path id="SVGID_9_" class="st6" d="M350.5,119.8c0-1-0.1-1.9-0.1-2.9l7.8-2.1c0.1,1,0.1,1.9,0.1,2.9
						C355.7,118.4,353.1,119.1,350.5,119.8z"/>
				</defs>
				<clipPath id="SVGID_10_">
					<use xlink:href="#SVGID_9_"  style="overflow:visible;"/>
				</clipPath>
				<g class="st14">
					<path class="st12" d="M352.9,146.9l-7.8,2.1c3.8-8.6,5.7-18.6,5.4-29.2c0-1-0.1-1.9-0.1-2.9l7.8-2.1c0.1,1,0.1,1.9,0.1,2.9
						C358.6,128.4,356.7,138.3,352.9,146.9"/>
				</g>
			</g>
			<g class="st6">
				<defs>
					<path id="SVGID_11_" class="st6" d="M363.5,169.3l7.8-2.1c2.2-0.6,4.5-0.8,6.7-0.7c2.6,0.2,5.3,0.8,7.7,2l-7.8,2.1
						c-2.5-1.2-5.1-1.8-7.7-2C367.9,168.4,365.7,168.7,363.5,169.3z"/>
				</defs>
				<clipPath id="SVGID_12_">
					<use xlink:href="#SVGID_11_"  style="overflow:visible;"/>
				</clipPath>
				<g class="st15">
					<path class="st10" d="M385.7,168.4l-7.8,2.1c-2.5-1.2-5.1-1.8-7.7-2c-2.3-0.1-4.5,0.1-6.7,0.7l7.8-2.1c2.2-0.6,4.5-0.8,6.7-0.7
						C380.6,166.6,383.2,167.3,385.7,168.4"/>
				</g>
			</g>
			<g class="st6">
				<defs>
					<path id="SVGID_13_" class="st6" d="M350.3,116.1c-1-12.5-5-24.1-11.2-34c0.3-0.1,0.6-0.2,0.9-0.2c0.3-0.1,0.7-0.2,1-0.3
						c0.3-0.1,0.7-0.2,1-0.3c0.3-0.1,0.7-0.2,1-0.3s0.7-0.2,1-0.3c0.3-0.1,0.7-0.2,1-0.3c0.3-0.1,0.7-0.2,1-0.3
						c0.3-0.1,0.6-0.2,0.9-0.2c6.1,9.8,10.2,21.5,11.2,34C355.5,114.7,352.9,115.4,350.3,116.1z"/>
				</defs>
				<clipPath id="SVGID_14_">
					<use xlink:href="#SVGID_13_"  style="overflow:visible;"/>
				</clipPath>
				<g class="st16">
					<path class="st12" d="M358.2,114.8l-7.8,2.1C348,82.8,323,54.8,293.9,52.9c-1-0.1-1.9-0.1-2.7-0.1l7.8-2.1c0.8,0,1.7,0,2.7,0.1
						C330.8,52.6,355.8,80.7,358.2,114.8"/>
				</g>
			</g>
			<g class="st6">
				<defs>
					<path id="SVGID_15_" class="st6" d="M337.3,79.4c0.1,0,0.2,0,0.3-0.1c0,0,0.1,0,0.1,0c0.1,0,0.2-0.1,0.3-0.1
						c0.1,0,0.2-0.1,0.3-0.1c0.1,0,0.2-0.1,0.3-0.1c0.1,0,0.2-0.1,0.3-0.1c0.1,0,0.2-0.1,0.3-0.1c0.1,0,0.2-0.1,0.3-0.1
						c0.1,0,0.3-0.1,0.4-0.1c0.2-0.1,0.5-0.1,0.7-0.2c0.2-0.1,0.5-0.1,0.7-0.2c0.2-0.1,0.5-0.1,0.7-0.2c0.2-0.1,0.5-0.1,0.7-0.2
						c0.2-0.1,0.5-0.1,0.7-0.2c0.2-0.1,0.5-0.1,0.7-0.2c0.1,0,0.2-0.1,0.3-0.1c0.1,0,0.2-0.1,0.3-0.1c0.1,0,0.2-0.1,0.3-0.1
						c0.6,0.9,1.2,1.8,1.8,2.8c-2.6,0.7-5.2,1.4-7.8,2.1C338.5,81.3,337.9,80.3,337.3,79.4z"/>
				</defs>
				<clipPath id="SVGID_16_">
					<use xlink:href="#SVGID_15_"  style="overflow:visible;"/>
				</clipPath>
				<g class="st17">
					<path class="st12" d="M358.2,114.8l-7.8,2.1C348,82.8,323,54.8,293.9,52.9c-1-0.1-1.9-0.1-2.7-0.1l7.8-2.1c0.8,0,1.7,0,2.7,0.1
						C330.8,52.6,355.8,80.7,358.2,114.8"/>
				</g>
			</g>
			<g>
				<polygon class="st18" points="349.1,100.2 341.3,102.4 340.5,90.2 348.3,88.1 				"/>
			</g>
			<g class="st6">
				<defs>
					<path id="SVGID_17_" class="st6" d="M337.3,79.4c-1.6-2.3-3.3-4.5-5.2-6.6c0.3-0.1,0.6-0.2,0.9-0.2c0.3-0.1,0.7-0.2,1-0.3
						c0.3-0.1,0.7-0.2,1-0.3c0.3-0.1,0.7-0.2,1-0.3s0.7-0.2,1-0.3c0.3-0.1,0.7-0.2,1-0.3c0.3-0.1,0.7-0.2,1-0.3
						c0.3-0.1,0.6-0.2,0.9-0.2c1.8,2.1,3.6,4.3,5.2,6.6C342.5,78,339.9,78.7,337.3,79.4z"/>
				</defs>
				<clipPath id="SVGID_18_">
					<use xlink:href="#SVGID_17_"  style="overflow:visible;"/>
				</clipPath>
				<g class="st19">
					<path class="st12" d="M358.2,114.8l-7.8,2.1C348,82.8,323,54.8,293.9,52.9c-1-0.1-1.9-0.1-2.7-0.1l7.8-2.1c0.8,0,1.7,0,2.7,0.1
						C330.8,52.6,355.8,80.7,358.2,114.8"/>
				</g>
			</g>
			<g>
				<polygon class="st18" points="352.2,141.8 344.4,143.9 343.5,131.8 351.3,129.7 				"/>
			</g>
			<g class="st6">
				<defs>
					<path id="SVGID_19_" class="st6" d="M303.8,29.2l-7.8,2.1c8.1-2.2,14.1-8.6,16.3-17l7.8-2.1C317.9,20.6,311.8,27,303.8,29.2z"
						/>
				</defs>
				<clipPath id="SVGID_20_">
					<use xlink:href="#SVGID_19_"  style="overflow:visible;"/>
				</clipPath>
				<g class="st20">
					<path class="st8" d="M303.8,29.2l-7.8,2.1c6.8-1.8,12.2-6.7,15-13.1l7.8-2.1C315.9,22.5,310.5,27.4,303.8,29.2"/>
					<path class="st10" d="M318.7,16.1l-7.8,2.1c0.5-1.2,1-2.5,1.3-3.8l7.8-2.1C319.7,13.6,319.3,14.8,318.7,16.1"/>
				</g>
			</g>
			<g>
				<polygon class="st21" points="348.3,88.1 340.5,90.2 304.7,89.9 312.5,87.8 				"/>
			</g>
			<g>
				<polygon class="st22" points="297.7,34.8 289.9,37 289.5,32.1 297.3,30 				"/>
			</g>
			<g class="st6">
				<defs>
					<path id="SVGID_21_" class="st6" d="M332.2,72.8c-10.2-11.5-23.7-19-38.3-19.9c0.3-0.1,0.6-0.2,0.9-0.2c0.3-0.1,0.7-0.2,1-0.3
						c0.3-0.1,0.7-0.2,1-0.3c0.3-0.1,0.7-0.2,1-0.3c0.3-0.1,0.7-0.2,1-0.3c0.3-0.1,0.7-0.2,1-0.3c0.3-0.1,0.7-0.2,1-0.3
						c0.3-0.1,0.6-0.2,0.9-0.2c14.6,0.9,28.1,8.4,38.3,19.9C337.4,71.4,334.8,72.1,332.2,72.8z"/>
				</defs>
				<clipPath id="SVGID_22_">
					<use xlink:href="#SVGID_21_"  style="overflow:visible;"/>
				</clipPath>
				<g class="st23">
					<path class="st12" d="M358.2,114.8l-7.8,2.1C348,82.8,323,54.8,293.9,52.9c-1-0.1-1.9-0.1-2.7-0.1l7.8-2.1c0.8,0,1.7,0,2.7,0.1
						C330.8,52.6,355.8,80.7,358.2,114.8"/>
				</g>
			</g>
			<g class="st6">
				<defs>
					<path id="SVGID_23_" class="st6" d="M358.2,114.8l-7.8,2.1C348,82.8,323,54.8,293.9,52.9l7.8-2.1
						C330.8,52.6,355.8,80.7,358.2,114.8z"/>
				</defs>
				<clipPath id="SVGID_24_">
					<use xlink:href="#SVGID_23_"  style="overflow:visible;"/>
				</clipPath>
				<g class="st24">
					<path class="st25" d="M358.2,114.8l-7.8,2.1C348,82.8,323,54.8,293.9,52.9l7.8-2.1C330.8,52.6,355.8,80.7,358.2,114.8"/>
				</g>
			</g>
			<g class="st6">
				<defs>
					<path id="SVGID_25_" class="st6" d="M293.7,52.9c-0.9-0.1-1.7-0.1-2.5-0.1l7.8-2.1c0.8,0,1.6,0,2.5,0.1
						c-1.3,0.4-2.6,0.7-3.9,1.1c-0.3,0.1-0.7,0.2-1,0.3c-0.7,0.2-1.3,0.4-2,0.5C294.3,52.7,293.9,52.8,293.7,52.9z"/>
				</defs>
				<clipPath id="SVGID_26_">
					<use xlink:href="#SVGID_25_"  style="overflow:visible;"/>
				</clipPath>
				<g class="st26">
					<path class="st12" d="M358.2,114.8l-7.8,2.1C348,82.8,323,54.8,293.9,52.9c-1-0.1-1.9-0.1-2.7-0.1l7.8-2.1c0.8,0,1.7,0,2.7,0.1
						C330.8,52.6,355.8,80.7,358.2,114.8"/>
				</g>
			</g>
			<g class="st6">
				<defs>
					<path id="SVGID_27_" class="st6" d="M312.4,178.6c23-6.3,39-30,38.1-58.8c0.3-0.1,0.6-0.2,0.9-0.2c0.3-0.1,0.7-0.2,1-0.3
						c0.3-0.1,0.7-0.2,1-0.3c0.3-0.1,0.7-0.2,1-0.3s0.7-0.2,1-0.3c0.3-0.1,0.7-0.2,1-0.3c0.3-0.1,0.7-0.2,1-0.3
						c0.3-0.1,0.6-0.2,0.9-0.2c0.9,28.8-15,52.5-38.1,58.8C317.9,177.1,314.8,178,312.4,178.6z"/>
				</defs>
				<clipPath id="SVGID_28_">
					<use xlink:href="#SVGID_27_"  style="overflow:visible;"/>
				</clipPath>
				<g class="st27">
					<path class="st28" d="M320.2,176.5l-7.8,2.1c14.5-4,26.2-14.8,32.7-29.6l7.8-2.1C346.5,161.7,334.8,172.6,320.2,176.5"/>
					<path class="st12" d="M352.9,146.9l-7.8,2.1c3.8-8.6,5.7-18.6,5.4-29.2c0-1-0.1-1.9-0.1-2.9l7.8-2.1c0.1,1,0.1,1.9,0.1,2.9
						C358.6,128.4,356.7,138.3,352.9,146.9"/>
				</g>
			</g>
			<g class="st6">
				<defs>
					<path id="SVGID_29_" class="st6" d="M320.3,176.5l-7.8,2.1c-4,1.1-8.2,1.6-12.5,1.6l7.8-2.1
						C312.1,178.2,316.3,177.6,320.3,176.5z"/>
				</defs>
				<clipPath id="SVGID_30_">
					<use xlink:href="#SVGID_29_"  style="overflow:visible;"/>
				</clipPath>
				<g class="st29">
					<path class="st30" d="M320.3,176.5l-7.8,2.1c-4,1.1-8.2,1.6-12.5,1.6l7.8-2.1C312.1,178.2,316.3,177.6,320.3,176.5"/>
				</g>
			</g>
			<g class="st6">
				<defs>
					<path id="SVGID_31_" class="st6" d="M304.4,189.8c-1.3,0.1-2.5,0.1-3.8,0.1l7.8-2.1c1.3,0,2.6,0,3.8-0.1
						C309.6,188.3,307,189,304.4,189.8z"/>
				</defs>
				<clipPath id="SVGID_32_">
					<use xlink:href="#SVGID_31_"  style="overflow:visible;"/>
				</clipPath>
				<g class="st31">
					<path class="st12" d="M322.8,185.9L315,188c-4.6,1.2-9.4,1.9-14.5,1.8l7.8-2.1C313.4,187.8,318.3,187.1,322.8,185.9"/>
				</g>
			</g>
			<g class="st6">
				<defs>
					<path id="SVGID_33_" class="st6" d="M315.1,188c-3.4,0.9-7,1.5-10.6,1.7c0.3-0.1,0.6-0.2,0.9-0.2c0.3-0.1,0.7-0.2,1-0.3
						c0.3-0.1,0.7-0.2,1-0.3c0.3-0.1,0.7-0.2,1-0.3s0.7-0.2,1-0.3c0.3-0.1,0.7-0.2,1-0.3c0.3-0.1,0.7-0.2,1-0.3
						c0.3-0.1,0.6-0.2,0.9-0.2c3.7-0.2,7.2-0.8,10.6-1.7C320.5,186.5,317.4,187.4,315.1,188z"/>
				</defs>
				<clipPath id="SVGID_34_">
					<use xlink:href="#SVGID_33_"  style="overflow:visible;"/>
				</clipPath>
				<g class="st32">
					<path class="st12" d="M322.8,185.9L315,188c-4.6,1.2-9.4,1.9-14.5,1.8l7.8-2.1C313.4,187.8,318.3,187.1,322.8,185.9"/>
				</g>
			</g>
			<g>
				<path class="st33" d="M320,12.2c8,2.5,15.6,6.2,22.7,10.8c-3.2,10.2-0.3,23.2,8.1,32.3c5.3,5.7,11.7,8.8,17.9,9.2
					c3.5,0.2,7-0.5,10.1-2.1c4.5,8,8.1,16.6,10.8,25.7c-8.6,4-14.1,14.7-13.3,27.3c0.9,12.5,7.8,23.3,16.8,27.5
					c-1.5,9-4,17.6-7.5,25.5c-2.5-1.2-5.1-1.8-7.7-2c-6.9-0.4-13.8,2.6-18.8,8.9c-6.9,8.7-8.2,21.2-4,31.3
					c-6.5,4.5-13.7,8-21.3,10.4c-4.2-9.6-13.2-16.5-23.3-17.1c-0.4,0-0.8,0-1.3,0l-0.6-5.8l-0.4-6.2c35.1,0.3,61.1-32.3,58.3-72.9
					c-2.7-39.4-31.6-71.8-65.3-73.8c-1-0.1-1.9-0.1-2.9-0.1l-0.6-6.1l-0.3-4.8C308.5,30.1,317.4,22.7,320,12.2z"/>
			</g>
			<g class="st6">
				<defs>
					<path id="SVGID_35_" class="st6" d="M307.7,178.1l-7.8,2.1c-1,0-1.8,0-2.5-0.1c-0.2,0-0.4,0-0.5,0c-0.3,0-0.5,0-0.6,0
						c-0.4,0-0.5,0-0.6-0.1c-0.3,0-0.5,0-0.6-0.1c-1.6-0.2-1.7-0.2-1.8-0.2c-0.4-0.1-0.5-0.1-0.6-0.1c-1.5-0.3-1.6-0.3-1.8-0.3
						c-0.3-0.1-0.5-0.1-0.6-0.1c-0.3-0.1-0.5-0.1-0.6-0.1c-0.3-0.1-0.5-0.1-0.6-0.1c-0.2,0-0.4-0.1-0.6-0.1
						c-0.2-0.1-0.4-0.1-0.6-0.2c-9.4-2.5-18.1-7.7-25.4-14.8l7.8-2.1c7.3,7.1,16,12.3,25.4,14.8c0.2,0,0.4,0.1,0.6,0.2
						c0.2,0,0.4,0.1,0.6,0.1c0.2,0,0.3,0.1,0.6,0.1c0.2,0,0.3,0.1,0.6,0.1c0.1,0,0.3,0.1,0.6,0.1c0.1,0,0.3,0.1,1.8,0.3
						c0.1,0,0.3,0,0.6,0.1c0.1,0,0.3,0,1.8,0.2c0.1,0,0.2,0,0.6,0.1c0.1,0,0.3,0,0.6,0.1c0.1,0,0.3,0,0.6,0c0.1,0,0.2,0,0.5,0
						C306,178.1,306.8,178.1,307.7,178.1z"/>
				</defs>
				<clipPath id="SVGID_36_">
					<use xlink:href="#SVGID_35_"  style="overflow:visible;"/>
				</clipPath>
				<g class="st34">
					<path class="st30" d="M307.7,178.1l-7.8,2.1c-1,0-1.8,0-2.5-0.1c-0.2,0-0.4,0-0.5,0c-0.3,0-0.5,0-0.6,0c-0.4,0-0.5,0-0.6-0.1
						c-0.3,0-0.5,0-0.6-0.1c-1.6-0.2-1.7-0.2-1.8-0.2c-0.4-0.1-0.5-0.1-0.6-0.1c-1.5-0.3-1.6-0.3-1.8-0.3c-0.3-0.1-0.5-0.1-0.6-0.1
						c-0.3-0.1-0.5-0.1-0.6-0.1c-0.3-0.1-0.5-0.1-0.6-0.1c-0.2,0-0.4-0.1-0.6-0.1c-0.2-0.1-0.4-0.1-0.6-0.2
						c-9.4-2.5-18.1-7.7-25.4-14.8l7.8-2.1c7.3,7.1,16,12.3,25.4,14.8c0.2,0,0.4,0.1,0.6,0.2c0.2,0,0.4,0.1,0.6,0.1
						c0.2,0,0.3,0.1,0.6,0.1c0.2,0,0.3,0.1,0.6,0.1c0.1,0,0.3,0.1,0.6,0.1c0.1,0,0.3,0.1,1.8,0.3c0.1,0,0.3,0,0.6,0.1
						c0.1,0,0.3,0,1.8,0.2c0.1,0,0.2,0,0.6,0.1c0.1,0,0.3,0,0.6,0.1c0.1,0,0.3,0,0.6,0c0.1,0,0.2,0,0.5,0
						C306,178.1,306.8,178.1,307.7,178.1"/>
				</g>
			</g>
			<g class="st6">
				<defs>
					<path id="SVGID_37_" class="st6" d="M293.9,52.9c-0.1,0-0.1,0-0.2,0c0.3-0.1,0.6-0.2,0.9-0.2c0.3-0.1,0.7-0.2,1-0.3
						c0.3-0.1,0.7-0.2,1-0.3c0.3-0.1,0.7-0.2,1-0.3c0.3-0.1,0.7-0.2,1-0.3c0.3-0.1,0.7-0.2,1-0.3c0.3-0.1,0.7-0.2,1-0.3
						c0.3-0.1,0.6-0.2,0.9-0.2c0.1,0,0.1,0,0.2,0c0,0,0,0,0,0C299.1,51.5,296.5,52.2,293.9,52.9C293.9,52.9,293.9,52.9,293.9,52.9z"
						/>
				</defs>
				<clipPath id="SVGID_38_">
					<use xlink:href="#SVGID_37_"  style="overflow:visible;"/>
				</clipPath>
				<g class="st35">
					<path class="st12" d="M358.2,114.8l-7.8,2.1C348,82.8,323,54.8,293.9,52.9c-1-0.1-1.9-0.1-2.7-0.1l7.8-2.1c0.8,0,1.7,0,2.7,0.1
						C330.8,52.6,355.8,80.7,358.2,114.8"/>
				</g>
			</g>
			<g>
				<polygon class="st36" points="349.1,100.2 341.3,102.4 305.6,102.1 313.4,99.9 				"/>
			</g>
			<g class="st6">
				<defs>
					<path id="SVGID_39_" class="st6" d="M302.1,90.3l7.8-2.1c0.8-0.2,1.7-0.3,2.6-0.3l-7.8,2.1C303.8,89.9,302.9,90,302.1,90.3z"/>
				</defs>
				<clipPath id="SVGID_40_">
					<use xlink:href="#SVGID_39_"  style="overflow:visible;"/>
				</clipPath>
				<g class="st37">
					<path class="st30" d="M312.5,87.8l-7.8,2.1c-0.9,0-1.8,0.1-2.6,0.3l7.8-2.1C310.7,87.9,311.6,87.8,312.5,87.8"/>
				</g>
			</g>
			<g>
				<polygon class="st28" points="299,50.7 291.2,52.8 290.3,43.1 298.1,41 				"/>
			</g>
			<g>
				<polygon class="st36" points="352.2,141.8 344.4,143.9 308.4,143.6 316.2,141.5 				"/>
			</g>
			<g class="st6">
				<defs>
					<path id="SVGID_41_" class="st6" d="M308.4,143.6c2.6-0.7,5.2-1.4,7.8-2.1c0,0,0,0,0,0L308.4,143.6
						C308.4,143.6,308.4,143.6,308.4,143.6z"/>
				</defs>
				<clipPath id="SVGID_42_">
					<use xlink:href="#SVGID_41_"  style="overflow:visible;"/>
				</clipPath>
				<g class="st38">
					<path class="st25" d="M316.2,141.5l-7.8,2.1c-0.2,0-0.4,0-0.6,0c-2.8-0.2-5.3-1.4-7.5-3.8c-2.3-2.5-3.6-5.5-3.9-9l7.8-2.1
						c0.3,3.5,1.5,6.5,3.9,9c2.2,2.4,4.7,3.6,7.5,3.8C315.8,141.5,316,141.5,316.2,141.5"/>
				</g>
			</g>
			<g class="st6">
				<defs>
					<path id="SVGID_43_" class="st6" d="M307.9,143.6C307.9,143.6,307.9,143.6,307.9,143.6C307.9,143.6,307.9,143.6,307.9,143.6
						C307.9,143.6,307.9,143.6,307.9,143.6C307.9,143.6,307.9,143.6,307.9,143.6c0.1,0,0.1,0,0.1,0c0,0,0,0,0,0c0,0,0,0,0,0
						c0,0,0,0,0,0c0.3-0.1,0.6-0.2,0.9-0.2c0.3-0.1,0.7-0.2,0.9-0.3c0.3-0.1,0.7-0.2,1-0.3c0.3-0.1,0.7-0.2,1-0.3
						c0.3-0.1,0.7-0.2,1-0.3c0.3-0.1,0.7-0.2,1-0.3c0.3-0.1,0.7-0.2,0.9-0.3c0.3-0.1,0.6-0.2,0.9-0.2c0.2,0,0.4,0,0.6,0
						c-2.6,0.7-5.2,1.4-7.8,2.1C308.2,143.6,308,143.6,307.9,143.6z"/>
				</defs>
				<clipPath id="SVGID_44_">
					<use xlink:href="#SVGID_43_"  style="overflow:visible;"/>
				</clipPath>
				<g class="st39">
					<path class="st25" d="M316.2,141.5l-7.8,2.1c-0.2,0-0.4,0-0.6,0c-2.8-0.2-5.3-1.4-7.5-3.8c-2.3-2.5-3.6-5.5-3.9-9l7.8-2.1
						c0.3,3.5,1.5,6.5,3.9,9c2.2,2.4,4.7,3.6,7.5,3.8C315.8,141.5,316,141.5,316.2,141.5"/>
				</g>
			</g>
			<g class="st6">
				<defs>
					<path id="SVGID_45_" class="st6" d="M307.9,143.6C307.9,143.6,307.9,143.6,307.9,143.6c0.3-0.1,0.6-0.2,0.9-0.2
						c0.3-0.1,0.7-0.2,1-0.3c0.3-0.1,0.7-0.2,1-0.3c0.3-0.1,0.7-0.2,1-0.3s0.7-0.2,1-0.3c0.3-0.1,0.7-0.2,1-0.3
						c0.3-0.1,0.7-0.2,1-0.3c0.3-0.1,0.6-0.2,0.9-0.2c0,0,0,0,0,0c-2.5,0.7-5.1,1.4-7.6,2.1C308,143.6,307.9,143.6,307.9,143.6z"/>
				</defs>
				<clipPath id="SVGID_46_">
					<use xlink:href="#SVGID_45_"  style="overflow:visible;"/>
				</clipPath>
				<g class="st40">
					<path class="st25" d="M316.2,141.5l-7.8,2.1c-0.2,0-0.4,0-0.6,0c-2.8-0.2-5.3-1.4-7.5-3.8c-2.3-2.5-3.6-5.5-3.9-9l7.8-2.1
						c0.3,3.5,1.5,6.5,3.9,9c2.2,2.4,4.7,3.6,7.5,3.8C315.8,141.5,316,141.5,316.2,141.5"/>
				</g>
			</g>
			<g class="st6">
				<defs>
					<path id="SVGID_47_" class="st6" d="M302.4,100.5l-7.8,2.1c-0.3-3.5-1.5-6.5-3.8-9c-2.2-2.4-4.7-3.6-7.4-3.8
						c-0.2,0-0.4,0-0.6,0l7.8-2.1c0.2,0,0.4,0,0.6,0c2.8,0.2,5.3,1.4,7.4,3.8C300.9,94,302.1,97,302.4,100.5z"/>
				</defs>
				<clipPath id="SVGID_48_">
					<use xlink:href="#SVGID_47_"  style="overflow:visible;"/>
				</clipPath>
				<g class="st41">
					<path class="st30" d="M302.4,100.5l-7.8,2.1c-0.3-3.5-1.5-6.5-3.8-9c-2.2-2.4-4.7-3.6-7.4-3.8c-0.2,0-0.4,0-0.6,0l7.8-2.1
						c0.2,0,0.4,0,0.6,0c2.8,0.2,5.3,1.4,7.4,3.8C300.9,94,302.1,97,302.4,100.5"/>
				</g>
			</g>
			<g class="st6">
				<defs>
					<path id="SVGID_49_" class="st6" d="M302.1,90.3l7.8-2.1c-1.9,0.5-3.5,1.6-4.9,3.4c-2,2.5-2.8,5.5-2.6,9l-7.8,2.1
						c-0.2-3.5,0.6-6.5,2.6-9C298.6,91.9,300.2,90.8,302.1,90.3z"/>
				</defs>
				<clipPath id="SVGID_50_">
					<use xlink:href="#SVGID_49_"  style="overflow:visible;"/>
				</clipPath>
				<g class="st42">
					<path class="st25" d="M302.4,100.5l-7.8,2.1c-0.2-2.3,0.2-4.4,1-6.3l7.8-2.1C302.6,96,302.2,98.1,302.4,100.5"/>
					<path class="st43" d="M303.4,94.2l-7.8,2.1c0.4-0.9,1-1.8,1.6-2.7c1.4-1.7,3-2.8,4.9-3.4l7.8-2.1c-1.9,0.5-3.5,1.6-4.9,3.4
						C304.3,92.3,303.8,93.2,303.4,94.2"/>
				</g>
			</g>
			<g class="st6">
				<defs>
					<path id="SVGID_51_" class="st6" d="M291,52.8c-4.3,0-8.4,0.5-12.4,1.6l7.8-2.1c3.9-1.1,8.1-1.6,12.4-1.6
						C296.4,51.3,293.4,52.5,291,52.8z"/>
				</defs>
				<clipPath id="SVGID_52_">
					<use xlink:href="#SVGID_51_"  style="overflow:visible;"/>
				</clipPath>
				<g class="st44">
					<path class="st45" d="M298.8,50.7l-7.8,2.1c-4.3,0-8.4,0.5-12.4,1.6l7.8-2.1C290.3,51.2,294.5,50.6,298.8,50.7"/>
				</g>
			</g>
			<g class="st6">
				<defs>
					<path id="SVGID_53_" class="st6" d="M300.4,139.8c-2.3-2.5-3.6-5.5-3.9-9l7.8-2.1c0.3,3.5,1.5,6.5,3.9,9
						C305.6,138.4,303,139.1,300.4,139.8c2-0.5,3.9-1.1,5.9-1.6c0,0,0.1,0,0.1,0c0.1,0,0.2,0,0.2-0.1c0.1,0,0.2,0,0.2-0.1
						c0.1,0,0.2,0,0.2-0.1c0,0,0.1,0,0.1,0c0.1,0,0.2,0,0.2-0.1c0.1,0,0.2,0,0.2-0.1c0.1,0,0.2,0,0.2-0.1c0.1,0,0.2,0,0.2-0.1
						c2.2,2.4,4.7,3.6,7.5,3.8c-2.6,0.7-5.2,1.4-7.8,2.1C305.1,143.4,302.6,142.2,300.4,139.8z"/>
				</defs>
				<clipPath id="SVGID_54_">
					<use xlink:href="#SVGID_53_"  style="overflow:visible;"/>
				</clipPath>
				<g class="st46">
					<path class="st25" d="M316.2,141.5l-7.8,2.1c-0.2,0-0.4,0-0.6,0c-2.8-0.2-5.3-1.4-7.5-3.8c-2.3-2.5-3.6-5.5-3.9-9l7.8-2.1
						c0.3,3.5,1.5,6.5,3.9,9c2.2,2.4,4.7,3.6,7.5,3.8C315.8,141.5,316,141.5,316.2,141.5"/>
				</g>
			</g>
			<g class="st6">
				<defs>
					<path id="SVGID_55_" class="st6" d="M296.8,141l-7.8,2.1c1.9-0.5,3.5-1.6,4.9-3.4c2-2.5,2.8-5.5,2.6-9l7.8-2.1
						c0.2,3.5-0.6,6.5-2.6,9C300.4,139.3,298.7,140.5,296.8,141z"/>
				</defs>
				<clipPath id="SVGID_56_">
					<use xlink:href="#SVGID_55_"  style="overflow:visible;"/>
				</clipPath>
				<g class="st47">
					<path class="st48" d="M296.8,141l-7.8,2.1c1.9-0.5,3.5-1.6,4.9-3.4c0.7-0.8,1.2-1.7,1.6-2.7l7.8-2.1c-0.4,0.9-0.9,1.8-1.6,2.7
						C300.4,139.3,298.7,140.5,296.8,141"/>
					<path class="st30" d="M303.3,135l-7.8,2.1c0.8-1.9,1.1-4,1-6.3l7.8-2.1C304.5,131,304.2,133.1,303.3,135"/>
				</g>
			</g>
			<g class="st6">
				<defs>
					<path id="SVGID_57_" class="st6" d="M286.4,143.4c2.6-0.7,5.2-1.4,7.8-2.1c0.9,0,1.8-0.1,2.6-0.3l-7.8,2.1
						C288.2,143.3,287.4,143.4,286.4,143.4z"/>
				</defs>
				<clipPath id="SVGID_58_">
					<use xlink:href="#SVGID_57_"  style="overflow:visible;"/>
				</clipPath>
				<g class="st49">
					<path class="st25" d="M296.8,141l-7.8,2.1c-0.8,0.2-1.7,0.3-2.6,0.3l7.8-2.1C295.2,141.3,296,141.2,296.8,141"/>
				</g>
			</g>
			<g>
				<polygon class="st21" points="290.5,87.6 282.7,89.8 246.8,89.5 254.6,87.3 				"/>
			</g>
			<g>
				<polygon class="st36" points="294.2,141.3 286.4,143.4 261,143.2 268.8,141.1 				"/>
			</g>
			<g class="st6">
				<defs>
					<path id="SVGID_59_" class="st6" d="M265.6,166.7c2.6-0.7,5.2-1.4,7.8-2.1c4.6,3.9,9.7,7.1,15,9.4c-2.6,0.7-5.2,1.4-7.8,2.1
						C275.2,173.8,270.2,170.7,265.6,166.7z"/>
				</defs>
				<clipPath id="SVGID_60_">
					<use xlink:href="#SVGID_59_"  style="overflow:visible;"/>
				</clipPath>
				<g class="st50">
					<path class="st25" d="M292.1,175.4l-7.8,2.1c-13.9-4.7-26-15.4-33.9-29.4l7.8-2.1C266.1,160,278.2,170.7,292.1,175.4"/>
				</g>
			</g>
			<g>
				<polygon class="st43" points="258.8,147.1 251,149.2 246.8,89.5 254.6,87.3 				"/>
			</g>
			<g>
				<polygon class="st8" points="298.3,41 290.5,43.1 289.9,37 297.7,34.8 				"/>
			</g>
			<g>
				<polygon class="st28" points="298.1,41 290.3,43.1 289.9,37 297.7,34.8 				"/>
			</g>
			<g class="st6">
				<defs>
					<path id="SVGID_61_" class="st6" d="M290.3,43.1c-5,0-9.7,0.6-14.3,1.9l7.8-2.1c4.5-1.2,9.3-1.9,14.3-1.9
						C295.8,41.6,292.7,42.8,290.3,43.1z"/>
				</defs>
				<clipPath id="SVGID_62_">
					<use xlink:href="#SVGID_61_"  style="overflow:visible;"/>
				</clipPath>
				<g class="st51">
					<path class="st52" d="M298.1,41l-7.8,2.1c-5,0-9.7,0.6-14.3,1.9l7.8-2.1C288.4,41.6,293.1,40.9,298.1,41"/>
				</g>
			</g>
			<g>
				<polygon class="st28" points="308.4,187.7 300.6,189.9 299.7,180.2 307.5,178.1 				"/>
			</g>
			<g class="st6">
				<defs>
					<path id="SVGID_63_" class="st6" d="M295.6,176.5l-7.8,2.1c-0.3-0.1-0.6-0.1-0.8-0.2l7.8-2.1
						C295,176.3,295.3,176.4,295.6,176.5z"/>
				</defs>
				<clipPath id="SVGID_64_">
					<use xlink:href="#SVGID_63_"  style="overflow:visible;"/>
				</clipPath>
				<g class="st53">
					<path class="st25" d="M295.6,176.5l-7.8,2.1c-0.3-0.1-0.6-0.1-0.8-0.2l7.8-2.1C295,176.3,295.3,176.4,295.6,176.5"/>
				</g>
			</g>
			<g class="st6">
				<defs>
					<path id="SVGID_65_" class="st6" d="M294.7,176.3l-7.8,2.1c-0.1,0-0.1,0-0.2-0.1l7.8-2.1C294.6,176.2,294.7,176.2,294.7,176.3z
						"/>
				</defs>
				<clipPath id="SVGID_66_">
					<use xlink:href="#SVGID_65_"  style="overflow:visible;"/>
				</clipPath>
				<g class="st54">
					<path class="st25" d="M294.7,176.3l-7.8,2.1c-0.1,0-0.1,0-0.2-0.1l7.8-2.1C294.6,176.2,294.7,176.2,294.7,176.3"/>
				</g>
			</g>
			<g class="st6">
				<defs>
					<path id="SVGID_67_" class="st6" d="M294.6,176.2l-7.8,2.1c-0.2-0.1-0.4-0.1-0.6-0.2l7.8-2.1
						C294.1,176.1,294.3,176.1,294.6,176.2z"/>
				</defs>
				<clipPath id="SVGID_68_">
					<use xlink:href="#SVGID_67_"  style="overflow:visible;"/>
				</clipPath>
				<g class="st55">
					<path class="st25" d="M294.6,176.2l-7.8,2.1c-0.2-0.1-0.4-0.1-0.6-0.2l7.8-2.1C294.1,176.1,294.3,176.1,294.6,176.2"/>
				</g>
			</g>
			<g class="st6">
				<defs>
					<path id="SVGID_69_" class="st6" d="M293.9,176l-7.8,2.1c-0.1,0-0.1,0-0.2-0.1l7.8-2.1C293.8,176,293.8,176,293.9,176z"/>
				</defs>
				<clipPath id="SVGID_70_">
					<use xlink:href="#SVGID_69_"  style="overflow:visible;"/>
				</clipPath>
				<g class="st56">
					<path class="st25" d="M293.9,176l-7.8,2.1c-0.1,0-0.1,0-0.2-0.1l7.8-2.1C293.8,176,293.8,176,293.9,176"/>
				</g>
			</g>
			<g class="st6">
				<defs>
					<path id="SVGID_71_" class="st6" d="M293.7,175.9l-7.8,2.1c-0.2-0.1-0.4-0.1-0.6-0.2l7.8-2.1
						C293.3,175.8,293.5,175.9,293.7,175.9z"/>
				</defs>
				<clipPath id="SVGID_72_">
					<use xlink:href="#SVGID_71_"  style="overflow:visible;"/>
				</clipPath>
				<g class="st57">
					<path class="st25" d="M293.7,175.9l-7.8,2.1c-0.2-0.1-0.4-0.1-0.6-0.2l7.8-2.1C293.3,175.8,293.5,175.9,293.7,175.9"/>
				</g>
			</g>
			<g class="st6">
				<defs>
					<path id="SVGID_73_" class="st6" d="M293.1,175.7l-7.8,2.1c-0.1,0-0.1,0-0.2-0.1l7.8-2.1C292.9,175.7,293,175.7,293.1,175.7z"
						/>
				</defs>
				<clipPath id="SVGID_74_">
					<use xlink:href="#SVGID_73_"  style="overflow:visible;"/>
				</clipPath>
				<g class="st58">
					<path class="st25" d="M293.1,175.7l-7.8,2.1c-0.1,0-0.1,0-0.2-0.1l7.8-2.1C292.9,175.7,293,175.7,293.1,175.7"/>
				</g>
			</g>
			<g class="st6">
				<defs>
					<path id="SVGID_75_" class="st6" d="M292.9,175.7l-7.8,2.1c-0.3-0.1-0.5-0.2-0.7-0.2l7.8-2.1
						C292.4,175.5,292.6,175.6,292.9,175.7z"/>
				</defs>
				<clipPath id="SVGID_76_">
					<use xlink:href="#SVGID_75_"  style="overflow:visible;"/>
				</clipPath>
				<g class="st59">
					<path class="st25" d="M292.9,175.7l-7.8,2.1c-0.3-0.1-0.5-0.2-0.7-0.2l7.8-2.1C292.4,175.5,292.6,175.6,292.9,175.7"/>
				</g>
			</g>
			<g class="st6">
				<defs>
					<path id="SVGID_77_" class="st6" d="M292.1,175.4l-7.8,2.1c0,0,0,0-0.1,0L292.1,175.4C292.1,175.4,292.1,175.4,292.1,175.4z"/>
				</defs>
				<clipPath id="SVGID_78_">
					<use xlink:href="#SVGID_77_"  style="overflow:visible;"/>
				</clipPath>
				<g class="st60">
					<path class="st25" d="M292.1,175.4l-7.8,2.1c0,0,0,0-0.1,0L292.1,175.4C292.1,175.4,292.1,175.4,292.1,175.4"/>
				</g>
			</g>
			<g class="st6">
				<defs>
					<path id="SVGID_79_" class="st6" d="M283.7,177.3c2.6-0.7,5.2-1.4,7.8-2.1c0.2,0.1,0.4,0.1,0.6,0.2l-7.8,2.1
						C284.1,177.5,283.9,177.4,283.7,177.3z"/>
				</defs>
				<clipPath id="SVGID_80_">
					<use xlink:href="#SVGID_79_"  style="overflow:visible;"/>
				</clipPath>
				<g class="st61">
					<path class="st25" d="M292.1,175.4l-7.8,2.1c-13.9-4.7-26-15.4-33.9-29.4l7.8-2.1C266.1,160,278.2,170.7,292.1,175.4"/>
				</g>
			</g>
			<g class="st6">
				<defs>
					<path id="SVGID_81_" class="st6" d="M283.7,177.3c-1-0.4-2.1-0.8-3.1-1.2c0.3-0.1,0.6-0.2,0.9-0.2c0.3-0.1,0.7-0.2,1-0.3
						c0.3-0.1,0.7-0.2,1-0.3c0.3-0.1,0.7-0.2,1-0.3s0.7-0.2,1-0.3c0.3-0.1,0.7-0.2,1-0.3c0.3-0.1,0.7-0.2,1-0.3
						c0.3-0.1,0.6-0.2,0.9-0.2c1,0.4,2,0.8,3.1,1.2c-2.5,0.7-5,1.4-7.6,2.1c0,0-0.1,0-0.1,0C283.8,177.3,283.7,177.3,283.7,177.3z"
						/>
				</defs>
				<clipPath id="SVGID_82_">
					<use xlink:href="#SVGID_81_"  style="overflow:visible;"/>
				</clipPath>
				<g class="st62">
					<path class="st25" d="M292.1,175.4l-7.8,2.1c-13.9-4.7-26-15.4-33.9-29.4l7.8-2.1C266.1,160,278.2,170.7,292.1,175.4"/>
				</g>
			</g>
			<g class="st6">
				<defs>
					<path id="SVGID_83_" class="st6" d="M265.6,166.7c-0.1-0.1-0.3-0.2-0.4-0.4c0.3-0.1,0.6-0.2,0.9-0.2c0.3-0.1,0.7-0.2,1-0.3
						c0.3-0.1,0.7-0.2,1-0.3c0.3-0.1,0.7-0.2,1-0.3s0.7-0.2,1-0.3c0.3-0.1,0.7-0.2,1-0.3c0.3-0.1,0.7-0.2,1-0.3
						c0.3-0.1,0.6-0.2,0.9-0.2c0.1,0.1,0.3,0.2,0.4,0.4C270.8,165.3,268.2,166,265.6,166.7z"/>
				</defs>
				<clipPath id="SVGID_84_">
					<use xlink:href="#SVGID_83_"  style="overflow:visible;"/>
				</clipPath>
				<g class="st63">
					<path class="st25" d="M292.1,175.4l-7.8,2.1c-13.9-4.7-26-15.4-33.9-29.4l7.8-2.1C266.1,160,278.2,170.7,292.1,175.4"/>
				</g>
			</g>
			<g class="st6">
				<defs>
					<path id="SVGID_85_" class="st6" d="M265.2,166.4c-0.1-0.1-0.1-0.1-0.2-0.2c0.3-0.1,0.6-0.2,0.9-0.2c0.3-0.1,0.7-0.2,1-0.3
						c0.3-0.1,0.7-0.2,1-0.3c0.3-0.1,0.7-0.2,1-0.3s0.7-0.2,1-0.3c0.3-0.1,0.7-0.2,1-0.3c0.3-0.1,0.7-0.2,1-0.3
						c0.3-0.1,0.6-0.2,0.9-0.2c0.1,0.1,0.1,0.1,0.2,0.2C270.4,165,267.8,165.7,265.2,166.4z"/>
				</defs>
				<clipPath id="SVGID_86_">
					<use xlink:href="#SVGID_85_"  style="overflow:visible;"/>
				</clipPath>
				<g class="st64">
					<path class="st25" d="M292.1,175.4l-7.8,2.1c-13.9-4.7-26-15.4-33.9-29.4l7.8-2.1C266.1,160,278.2,170.7,292.1,175.4"/>
				</g>
			</g>
			<g class="st6">
				<defs>
					<path id="SVGID_87_" class="st6" d="M264.6,165.9c2.6-0.7,5.2-1.4,7.8-2.1c0.1,0.1,0.3,0.2,0.4,0.3c-2.6,0.7-5.2,1.4-7.8,2.1
						C264.8,166.1,264.7,166,264.6,165.9z"/>
				</defs>
				<clipPath id="SVGID_88_">
					<use xlink:href="#SVGID_87_"  style="overflow:visible;"/>
				</clipPath>
				<g class="st65">
					<path class="st25" d="M292.1,175.4l-7.8,2.1c-13.9-4.7-26-15.4-33.9-29.4l7.8-2.1C266.1,160,278.2,170.7,292.1,175.4"/>
				</g>
			</g>
			<g class="st6">
				<defs>
					<path id="SVGID_89_" class="st6" d="M264.6,165.9c-0.3-0.3-0.7-0.6-1-0.9c0.3-0.1,0.6-0.2,0.9-0.2c0.3-0.1,0.7-0.2,1-0.3
						c0.3-0.1,0.7-0.2,1-0.3c0.3-0.1,0.7-0.2,1-0.3s0.7-0.2,1-0.3c0.3-0.1,0.7-0.2,1-0.3c0.3-0.1,0.7-0.2,1-0.3
						c0.3-0.1,0.6-0.2,0.9-0.2c0.3,0.3,0.7,0.6,1,0.9C269.8,164.5,267.2,165.2,264.6,165.9z"/>
				</defs>
				<clipPath id="SVGID_90_">
					<use xlink:href="#SVGID_89_"  style="overflow:visible;"/>
				</clipPath>
				<g class="st66">
					<path class="st25" d="M292.1,175.4l-7.8,2.1c-13.9-4.7-26-15.4-33.9-29.4l7.8-2.1C266.1,160,278.2,170.7,292.1,175.4"/>
				</g>
			</g>
			<g class="st6">
				<defs>
					<path id="SVGID_91_" class="st6" d="M263.6,165c-0.6-0.5-1.1-1-1.6-1.6c0.3-0.1,0.6-0.2,0.9-0.2c0.3-0.1,0.7-0.2,1-0.3
						c0.3-0.1,0.7-0.2,1-0.3c0.3-0.1,0.7-0.2,1-0.3s0.7-0.2,1-0.3c0.3-0.1,0.7-0.2,1-0.3c0.3-0.1,0.7-0.2,1-0.3
						c0.3-0.1,0.6-0.2,0.9-0.2c0.5,0.5,1.1,1.1,1.6,1.6C268.8,163.5,266.2,164.3,263.6,165z"/>
				</defs>
				<clipPath id="SVGID_92_">
					<use xlink:href="#SVGID_91_"  style="overflow:visible;"/>
				</clipPath>
				<g class="st67">
					<path class="st25" d="M292.1,175.4l-7.8,2.1c-13.9-4.7-26-15.4-33.9-29.4l7.8-2.1C266.1,160,278.2,170.7,292.1,175.4"/>
				</g>
			</g>
			<g>
				<polygon class="st18" points="270.2,161.7 262.4,163.8 261,143.2 268.8,141.1 				"/>
			</g>
			<g class="st6">
				<defs>
					<path id="SVGID_93_" class="st6" d="M261.9,163.4c-4.4-4.4-8.4-9.6-11.6-15.2l7.8-2.1c3.2,5.7,7.1,10.8,11.6,15.2
						C267.1,162,264.5,162.7,261.9,163.4z"/>
				</defs>
				<clipPath id="SVGID_94_">
					<use xlink:href="#SVGID_93_"  style="overflow:visible;"/>
				</clipPath>
				<g class="st68">
					<path class="st25" d="M292.1,175.4l-7.8,2.1c-13.9-4.7-26-15.4-33.9-29.4l7.8-2.1C266.1,160,278.2,170.7,292.1,175.4"/>
				</g>
			</g>
			<g class="st6">
				<defs>
					<path id="SVGID_95_" class="st6" d="M305.4,102.1l7.8-2.1c0.1,0,0.1,0,0.2,0l-7.8,2.1C305.5,102.1,305.4,102.1,305.4,102.1z"/>
				</defs>
				<clipPath id="SVGID_96_">
					<use xlink:href="#SVGID_95_"  style="overflow:visible;"/>
				</clipPath>
				<g class="st69">
					<path class="st25" d="M313.4,99.9l-7.8,2.1c-0.1,0-0.1,0-0.2,0l7.8-2.1C313.2,99.9,313.3,99.9,313.4,99.9"/>
				</g>
			</g>
			<g class="st6">
				<defs>
					<path id="SVGID_97_" class="st6" d="M305.4,102.1l7.8-2.1c-0.2,0.1-0.4,0.3-0.3,0.6l-7.8,2.1
						C305,102.3,305.1,102.1,305.4,102.1z"/>
				</defs>
				<clipPath id="SVGID_98_">
					<use xlink:href="#SVGID_97_"  style="overflow:visible;"/>
				</clipPath>
				<g class="st70">
					<path class="st30" d="M312.8,100.6l-7.8,2.1c0-0.2,0-0.3,0-0.4l7.8-2.1C312.8,100.3,312.8,100.4,312.8,100.6"/>
					<path class="st48" d="M312.9,100.2l-7.8,2.1c0.1-0.1,0.1-0.2,0.3-0.2l7.8-2.1C313,100,312.9,100.1,312.9,100.2"/>
				</g>
			</g>
			<g>
				<polygon class="st21" points="351.3,129.7 343.5,131.8 307.6,131.5 315.4,129.4 				"/>
			</g>
			<g>
				<polygon class="st18" points="314.8,128.7 307,130.8 305,102.7 312.8,100.6 				"/>
			</g>
			<g class="st6">
				<defs>
					<path id="SVGID_99_" class="st6" d="M315.4,129.4l-7.8,2.1c-0.4,0-0.6-0.2-0.6-0.7l7.8-2.1C314.8,129.1,315,129.3,315.4,129.4z
						"/>
				</defs>
				<clipPath id="SVGID_100_">
					<use xlink:href="#SVGID_99_"  style="overflow:visible;"/>
				</clipPath>
				<g class="st71">
					<path class="st30" d="M315.4,129.4l-7.8,2.1c-0.4,0-0.6-0.2-0.6-0.7l7.8-2.1C314.8,129.1,315,129.3,315.4,129.4"/>
				</g>
			</g>
			<g class="st6">
				<defs>
					<path id="SVGID_101_" class="st6" d="M284.2,102.5c0-0.4-0.2-0.6-0.6-0.7l7.8-2.1c0.3,0,0.5,0.2,0.6,0.7
						C289.4,101.1,286.8,101.8,284.2,102.5z"/>
				</defs>
				<clipPath id="SVGID_102_">
					<use xlink:href="#SVGID_101_"  style="overflow:visible;"/>
				</clipPath>
				<g class="st72">
					<path class="st25" d="M292,100.4l-7.8,2.1c0-0.4-0.2-0.6-0.6-0.7l7.8-2.1C291.8,99.8,291.9,100,292,100.4"/>
				</g>
			</g>
			<g>
				<polygon class="st43" points="293.9,128.5 286.1,130.7 284.2,102.5 292,100.4 				"/>
			</g>
			<g class="st6">
				<defs>
					<path id="SVGID_103_" class="st6" d="M293.6,129.2l-7.8,2.1c0.2-0.1,0.4-0.3,0.3-0.6l7.8-2.1
						C293.9,128.9,293.8,129.1,293.6,129.2z"/>
				</defs>
				<clipPath id="SVGID_104_">
					<use xlink:href="#SVGID_103_"  style="overflow:visible;"/>
				</clipPath>
				<g class="st73">
					<path class="st43" d="M293.6,129.2l-7.8,2.1c0.1,0,0.2-0.1,0.3-0.2l7.8-2.1C293.8,129,293.7,129.1,293.6,129.2"/>
					<path class="st25" d="M293.9,128.9l-7.8,2.1c0-0.1,0.1-0.2,0-0.4l7.8-2.1C293.9,128.7,293.9,128.8,293.9,128.9"/>
				</g>
			</g>
			<g class="st6">
				<defs>
					<path id="SVGID_105_" class="st6" d="M293.6,129.2l-7.8,2.1c-0.1,0-0.1,0-0.2,0l7.8-2.1C293.5,129.2,293.5,129.2,293.6,129.2z"
						/>
				</defs>
				<clipPath id="SVGID_106_">
					<use xlink:href="#SVGID_105_"  style="overflow:visible;"/>
				</clipPath>
				<g class="st74">
					<path class="st30" d="M293.6,129.2l-7.8,2.1c-0.1,0-0.1,0-0.2,0l7.8-2.1C293.5,129.2,293.5,129.2,293.6,129.2"/>
				</g>
			</g>
			<g>
				<polygon class="st36" points="291.4,99.8 283.6,101.9 258.7,101.7 266.5,99.5 				"/>
			</g>
			<g class="st6">
				<defs>
					<path id="SVGID_107_" class="st6" d="M258.5,101.7l7.8-2.1c0.1,0,0.1,0,0.2,0l-7.8,2.1C258.6,101.7,258.5,101.7,258.5,101.7z"
						/>
				</defs>
				<clipPath id="SVGID_108_">
					<use xlink:href="#SVGID_107_"  style="overflow:visible;"/>
				</clipPath>
				<g class="st75">
					<path class="st25" d="M266.5,99.5l-7.8,2.1c-0.1,0-0.1,0-0.2,0l7.8-2.1C266.3,99.6,266.4,99.5,266.5,99.5"/>
				</g>
			</g>
			<g class="st6">
				<defs>
					<path id="SVGID_109_" class="st6" d="M258.5,101.7l7.8-2.1c-0.2,0.1-0.4,0.3-0.3,0.6l-7.8,2.1
						C258.1,102,258.2,101.8,258.5,101.7z"/>
				</defs>
				<clipPath id="SVGID_110_">
					<use xlink:href="#SVGID_109_"  style="overflow:visible;"/>
				</clipPath>
				<g class="st76">
					<path class="st30" d="M265.9,100.2l-7.8,2.1c0-0.2,0-0.3,0-0.4l7.8-2.1C265.9,99.9,265.9,100,265.9,100.2"/>
					<path class="st48" d="M266,99.8l-7.8,2.1c0.1-0.1,0.1-0.2,0.3-0.2l7.8-2.1C266.1,99.6,266,99.7,266,99.8"/>
				</g>
			</g>
			<g>
				<polygon class="st21" points="293.4,129.2 285.6,131.3 260.7,131.1 268.5,129 				"/>
			</g>
			<g>
				<polygon class="st18" points="267.9,128.3 260.1,130.4 258.1,102.3 265.9,100.2 				"/>
			</g>
			<g>
				<path class="st77" d="M291.4,99.8c0.4,0,0.6,0.2,0.6,0.7l1.9,28.1c0,0.4-0.1,0.6-0.5,0.6l-24.9-0.2c-0.4,0-0.6-0.2-0.6-0.7
					l-1.9-28.1c0-0.4,0.1-0.6,0.5-0.6L291.4,99.8z"/>
			</g>
			<g class="st6">
				<defs>
					<path id="SVGID_111_" class="st6" d="M268.5,129l-7.8,2.1c-0.4,0-0.6-0.2-0.6-0.7l7.8-2.1C267.9,128.7,268.1,129,268.5,129z"/>
				</defs>
				<clipPath id="SVGID_112_">
					<use xlink:href="#SVGID_111_"  style="overflow:visible;"/>
				</clipPath>
				<g class="st78">
					<path class="st30" d="M268.5,129l-7.8,2.1c-0.4,0-0.6-0.2-0.6-0.7l7.8-2.1C267.9,128.7,268.1,129,268.5,129"/>
				</g>
			</g>
			<g class="st6">
				<defs>
					<path id="SVGID_113_" class="st6" d="M258.1,146l-7.8,2.1c0-0.1-0.1-0.1-0.1-0.2l7.8-2.1C258.1,145.9,258.1,146,258.1,146z"/>
				</defs>
				<clipPath id="SVGID_114_">
					<use xlink:href="#SVGID_113_"  style="overflow:visible;"/>
				</clipPath>
				<g class="st79">
					<path class="st25" d="M258.1,146l-7.8,2.1c0-0.1-0.1-0.1-0.1-0.2l7.8-2.1C258.1,145.9,258.1,146,258.1,146"/>
				</g>
			</g>
			<g class="st6">
				<defs>
					<path id="SVGID_115_" class="st6" d="M278.6,54.4l7.8-2.1c-23,6.2-38.9,30-38,58.8c0,1,0.1,1.9,0.1,2.9c0,0.2,0,0.3,0.2,2
						c0.9,9.9,3.8,19.2,8.3,27.9c0.1,0.1,0.1,0.3,0.2,0.4c0.1,0.1,0.1,0.3,0.2,0.4c0.4,0.8,0.9,1.5,1.3,2.3l-7.8,2.1
						c-0.4-0.8-0.9-1.5-1.3-2.3c-0.1-0.2-0.2-0.3-0.2-0.4c-0.1-0.2-0.2-0.3-0.2-0.4c-4.5-8.7-7.3-18-8.3-27.9
						c-0.1-1.7-0.2-1.9-0.2-2c-0.1-1-0.1-1.9-0.1-2.9C239.7,84.3,255.7,60.6,278.6,54.4z"/>
				</defs>
				<clipPath id="SVGID_116_">
					<use xlink:href="#SVGID_115_"  style="overflow:visible;"/>
				</clipPath>
				<g class="st80">
					<path class="st30" d="M258.8,147.1l-7.8,2.1c-0.4-0.8-0.9-1.5-1.3-2.3c-0.1-0.2-0.2-0.3-0.2-0.4c-0.1-0.2-0.2-0.3-0.2-0.4
						c-4.5-8.7-7.3-18-8.3-27.9c-0.1-1.7-0.2-1.9-0.2-2c-0.1-1-0.1-1.9-0.1-2.9c-0.3-10.7,1.6-20.6,5.4-29.2l7.8-2.1
						c-3.8,8.6-5.7,18.6-5.4,29.2c0,1,0.1,1.9,0.1,2.9c0,0.2,0,0.3,0.2,2c0.9,9.9,3.8,19.2,8.3,27.9c0.1,0.1,0.1,0.3,0.2,0.4
						c0.1,0.1,0.1,0.3,0.2,0.4C257.9,145.6,258.3,146.3,258.8,147.1"/>
					<path class="st48" d="M253.8,81.8L246,84c6.4-14.7,18.1-25.6,32.6-29.6l7.8-2.1C271.9,56.2,260.2,67.1,253.8,81.8"/>
				</g>
			</g>
			<g>
				<path class="st81" d="M315.3,129.4l36,0.3l0.8,12.1l-35.9-0.3c-0.2,0-0.4,0-0.6,0c-2.8-0.2-5.3-1.4-7.5-3.8
					c-2.3-2.5-3.6-5.5-3.9-9c0.2,3.5-0.6,6.5-2.6,9c-2,2.5-4.5,3.7-7.5,3.7l-25.5-0.2l1.4,20.6c6.4,6.2,13.8,11,21.9,13.7
					c-13.9-4.7-26-15.4-33.9-29.4c0.2,0.4,0.4,0.7,0.6,1.1l-4.1-59.7l35.9,0.3c0.2,0,0.4,0,0.6,0c2.8,0.2,5.3,1.4,7.4,3.8
					c2.3,2.5,3.6,5.5,3.8,9c-0.2-3.5,0.6-6.5,2.6-9c2-2.5,4.5-3.7,7.5-3.7l35.8,0.3l0.8,12.1l-35.8-0.3c-0.4,0-0.5,0.2-0.5,0.6
					l1.9,28.1C314.8,129.1,315,129.3,315.3,129.4z M293.4,129.2c0.4,0,0.5-0.2,0.5-0.6l-1.9-28.1c0-0.4-0.2-0.6-0.6-0.7l-25-0.2
					c-0.4,0-0.5,0.2-0.5,0.6l1.9,28.1c0,0.4,0.2,0.6,0.6,0.7L293.4,129.2"/>
			</g>
			<g class="st6">
				<defs>
					<path id="SVGID_117_" class="st6" d="M250.2,148c-0.2-0.4-0.4-0.7-0.6-1.1c2.6-0.7,5.2-1.4,7.8-2.1c0.2,0.4,0.4,0.7,0.6,1.1
						C255.7,146.5,252.6,147.3,250.2,148z"/>
				</defs>
				<clipPath id="SVGID_118_">
					<use xlink:href="#SVGID_117_"  style="overflow:visible;"/>
				</clipPath>
				<g class="st82">
					<path class="st25" d="M258,145.9l-7.8,2.1c-0.2-0.4-0.4-0.7-0.6-1.1l7.8-2.1C257.7,145.1,257.8,145.5,258,145.9"/>
				</g>
			</g>
			<g class="st6">
				<defs>
					<path id="SVGID_119_" class="st6" d="M249.7,146.9C249.7,146.9,249.7,146.9,249.7,146.9c0.3-0.1,0.6-0.2,0.9-0.2
						c0.3-0.1,0.7-0.2,1-0.3c0.3-0.1,0.7-0.2,1-0.3c0.3-0.1,0.7-0.2,1-0.3c0.3-0.1,0.7-0.2,1-0.3c0.3-0.1,0.7-0.2,1-0.3
						c0.3-0.1,0.7-0.2,1-0.3c0.3-0.1,0.6-0.2,0.9-0.2c0,0,0,0,0,0c-1.3,0.4-2.6,0.7-3.9,1.1C252.3,146.2,251,146.6,249.7,146.9z"/>
				</defs>
				<clipPath id="SVGID_120_">
					<use xlink:href="#SVGID_119_"  style="overflow:visible;"/>
				</clipPath>
				<g class="st83">
					<path class="st25" d="M258,145.9l-7.8,2.1c-0.2-0.4-0.4-0.7-0.6-1.1l7.8-2.1C257.7,145.1,257.8,145.5,258,145.9"/>
				</g>
			</g>
			<g class="st6">
				<defs>
					<path id="SVGID_121_" class="st6" d="M249.7,146.9C249.7,146.9,249.7,146.9,249.7,146.9l7.8-2.1c0,0,0,0,0,0
						C254.9,145.5,252.3,146.2,249.7,146.9z"/>
				</defs>
				<clipPath id="SVGID_122_">
					<use xlink:href="#SVGID_121_"  style="overflow:visible;"/>
				</clipPath>
				<g class="st84">
					<path class="st25" d="M258,145.9l-7.8,2.1c-0.2-0.4-0.4-0.7-0.6-1.1l7.8-2.1C257.7,145.1,257.8,145.5,258,145.9"/>
				</g>
			</g>
			<g>
				<path class="st85" d="M298.1,41l0.7,9.7c-29.4-0.1-51.4,26.6-50.4,60.4c0,1,0.1,1.9,0.1,2.9c0,0.2,0,0.3,0,0.5
					c1.1,11.5,3.9,20.8,8.2,29.1c0.3,0.5,0.3,0.6,0.4,0.8c0.1,0.2,0.2,0.3,0.3,0.5c8.6,15.8,22.4,27.5,38.1,31.7
					c0.2,0.1,0.4,0.1,0.6,0.2c0.2,0.1,0.4,0.1,0.6,0.1c0.2,0,0.4,0.1,0.5,0.1c0.3,0.1,0.4,0.1,0.6,0.1c0.3,0.1,0.5,0.1,0.6,0.1
					c0.3,0.1,0.4,0.1,0.6,0.1c0.3,0.1,0.4,0.1,0.5,0.1c0.4,0.1,0.5,0.1,0.6,0.1c0.4,0.1,0.5,0.1,0.6,0.1c0.4,0.1,0.5,0.1,0.6,0.1
					c1.5,0.2,1.7,0.2,1.8,0.2c0.4,0,0.5,0,0.6,0.1c0.4,0,0.5,0,0.6,0.1c0.3,0,0.4,0,0.6,0c0.9,0.1,1.7,0.1,2.5,0.1l0.7,9.6l0.4,6.2
					l-0.4-6.2c-0.9,0-1.8,0-2.7-0.1c-33.6-2-62.6-34.4-65.3-73.8C237.4,73.4,263.3,40.8,298.1,41z"/>
			</g>
			<g>
				<path class="st77" d="M301.4,50.8c29.3,1.9,54.4,30,56.7,64.1c0.1,1,0.1,1.9,0.1,2.9c1,33.9-21.1,60.7-50.6,60.4
					c-1,0-1.8,0-2.5-0.1c-0.2,0-0.4,0-0.5,0c-0.3,0-0.5,0-0.6,0c-0.4,0-0.5,0-0.6-0.1c-0.3,0-0.5,0-0.6-0.1
					c-1.6-0.2-1.7-0.2-1.8-0.2c-0.4-0.1-0.5-0.1-0.6-0.1c-1.5-0.3-1.6-0.3-1.8-0.3c-0.3-0.1-0.5-0.1-0.6-0.1
					c-0.3-0.1-0.5-0.1-0.6-0.1c-0.3-0.1-0.5-0.1-0.6-0.1c-0.2,0-0.4-0.1-0.6-0.1c-0.2-0.1-0.4-0.1-0.6-0.2
					c-9.4-2.5-18.1-7.7-25.4-14.8l-1.4-20.6l25.5,0.2c3,0,5.5-1.2,7.5-3.7c2-2.5,2.8-5.5,2.6-9c0.3,3.5,1.5,6.5,3.9,9
					c2.2,2.4,4.7,3.6,7.5,3.8c0.2,0,0.4,0,0.6,0l35.9,0.3l-0.8-12.1l-36-0.3c-0.4,0-0.6-0.2-0.6-0.7l-1.9-28.1
					c0-0.4,0.1-0.6,0.5-0.6l35.8,0.3l-0.8-12.1l-35.8-0.3c-3,0-5.5,1.2-7.5,3.7c-2,2.5-2.8,5.5-2.6,9c-0.3-3.5-1.5-6.5-3.8-9
					c-2.2-2.4-4.7-3.6-7.4-3.8c-0.2,0-0.4,0-0.6,0l-35.9-0.3l4.1,59.7c-0.4-0.8-0.9-1.5-1.3-2.3c-0.1-0.2-0.2-0.3-0.2-0.4
					c-0.1-0.2-0.2-0.3-0.2-0.4c-4.5-8.7-7.3-18-8.3-27.9c-0.1-1.7-0.2-1.9-0.2-2c-0.1-1-0.1-1.9-0.1-2.9c-1-33.8,21-60.5,50.4-60.4
					C299.8,50.7,300.6,50.7,301.4,50.8z"/>
			</g>
			<g>
				<path class="st86" d="M297.7,34.8l0.4,6.1c1.2,0,2.1,0,3.1,0.1c33.6,2,62.6,34.4,65.3,73.8c2.8,40.5-23.2,73.2-58.1,72.9
					l-0.9-9.6c29.6,0.2,51.8-26.5,50.8-60.4c0-1-0.1-1.9-0.1-2.9c-2.4-34.1-27.4-62.2-56.5-64.1c-1-0.1-1.9-0.1-2.7-0.1l-0.9-9.7
					L297.7,34.8z"/>
			</g>
			<g>
				<path class="st81" d="M301.7,50.8c29.1,1.9,54.1,29.9,56.5,64.1C355.8,80.7,330.8,52.6,301.7,50.8z"/>
			</g>
			<g>
				<path class="st36" d="M286.1,178.1c0.2,0.1,0.4,0.1,0.6,0.2C286.5,178.3,286.3,178.2,286.1,178.1z"/>
			</g>
			<g>
				<polygon class="st87" points="308.6,193.9 300.8,196.1 300.4,189.9 308.2,187.7 				"/>
			</g>
			<g>
				<polygon class="st22" points="308.6,193.9 300.8,196.1 300.4,189.9 308.2,187.7 				"/>
			</g>
			<g>
				<polygon class="st8" points="309.2,199.8 301.4,201.9 300.8,196.1 308.6,193.9 				"/>
			</g>
			<g class="st6">
				<defs>
					<path id="SVGID_123_" class="st6" d="M333.8,217l-7.8,2.1c-4.2-9.6-13.2-16.5-23.3-17.1c-0.4,0-0.8,0-1.3,0l7.8-2.1
						c0.4,0,0.8,0,1.3,0C320.6,200.4,329.6,207.4,333.8,217z"/>
				</defs>
				<clipPath id="SVGID_124_">
					<use xlink:href="#SVGID_123_"  style="overflow:visible;"/>
				</clipPath>
				<g class="st88">
					<path class="st10" d="M333.8,217l-7.8,2.1c-4.2-9.6-13.2-16.5-23.3-17.1c-0.4,0-0.8,0-1.3,0l7.8-2.1c0.4,0,0.8,0,1.3,0
						C320.6,200.4,329.6,207.4,333.8,217"/>
				</g>
			</g>
			<g class="st6">
				<defs>
					<path id="SVGID_125_" class="st6" d="M295.2,202.7l7.8-2.1c1.9-0.5,3.9-0.8,6.1-0.8l-7.8,2.1
						C299.1,201.9,297.1,202.2,295.2,202.7z"/>
				</defs>
				<clipPath id="SVGID_126_">
					<use xlink:href="#SVGID_125_"  style="overflow:visible;"/>
				</clipPath>
				<g class="st89">
					<path class="st52" d="M309,199.8l-7.8,2.1c-2.1,0-4.1,0.3-6.1,0.8l7.8-2.1C304.9,200.1,306.9,199.8,309,199.8"/>
				</g>
			</g>
			<g class="st6">
				<defs>
					<path id="SVGID_127_" class="st6" d="M251.3,22.3l-7.8,2.1c6.5-4.6,13.6-8.1,21.3-10.5l7.8-2.1
						C264.9,14.2,257.8,17.8,251.3,22.3z"/>
				</defs>
				<clipPath id="SVGID_128_">
					<use xlink:href="#SVGID_127_"  style="overflow:visible;"/>
				</clipPath>
				<g class="st90">
					<path class="st91" d="M251.3,22.3l-7.8,2.1c6.5-4.6,13.6-8.1,21.3-10.5l7.8-2.1C264.9,14.2,257.8,17.8,251.3,22.3"/>
				</g>
			</g>
			<g>
				<path class="st36" d="M292.1,175.4c0.2,0.1,0.5,0.2,0.7,0.2C292.6,175.6,292.4,175.5,292.1,175.4z"/>
			</g>
			<g>
				<path class="st36" d="M250.3,148.1c0-0.1-0.1-0.1-0.1-0.2C250.3,148,250.3,148.1,250.3,148.1z"/>
			</g>
			<g class="st6">
				<defs>
					<path id="SVGID_129_" class="st6" d="M235.5,62.7l-7.8,2.1c4.5-1.2,8.7-4,12.1-8.2c7.1-9,8.3-21.9,3.7-32.2l7.8-2.1
						c4.6,10.2,3.5,23.2-3.7,32.2C244.2,58.7,240,61.4,235.5,62.7z"/>
				</defs>
				<clipPath id="SVGID_130_">
					<use xlink:href="#SVGID_129_"  style="overflow:visible;"/>
				</clipPath>
				<g class="st92">
					<path class="st91" d="M235.5,62.7l-7.8,2.1c4.5-1.2,8.7-4,12.1-8.2c1.6-2,2.8-4.1,3.8-6.4l7.8-2.1c-1,2.3-2.3,4.4-3.8,6.4
						C244.2,58.7,240,61.4,235.5,62.7"/>
					<path class="st52" d="M251.4,48.1l-7.8,2.1c3.5-8.1,3.5-17.8-0.2-25.8l7.8-2.1C254.9,30.3,255,40,251.4,48.1"/>
				</g>
			</g>
			<g class="st6">
				<defs>
					<path id="SVGID_131_" class="st6" d="M287,216.6l-7.8,2.1c-8-2.5-15.6-6.1-22.7-10.7l7.8-2.1C271.4,210.5,279,214.1,287,216.6z
						"/>
				</defs>
				<clipPath id="SVGID_132_">
					<use xlink:href="#SVGID_131_"  style="overflow:visible;"/>
				</clipPath>
				<g class="st93">
					<path class="st52" d="M287,216.6l-7.8,2.1c-8-2.5-15.6-6.1-22.7-10.7l7.8-2.1C271.4,210.5,279,214.1,287,216.6"/>
				</g>
			</g>
			<g class="st6">
				<defs>
					<path id="SVGID_133_" class="st6" d="M276,44.9l7.8-2.1c-27.3,7.4-46,36.3-43.6,71c2.7,39.4,31.6,71.8,65.3,73.8
						c0.9,0.1,1.8,0.1,2.7,0.1l-7.8,2.1c-0.9,0-1.8,0-2.7-0.1c-33.6-2-62.6-34.4-65.3-73.8C230,81.2,248.7,52.3,276,44.9z"/>
				</defs>
				<clipPath id="SVGID_134_">
					<use xlink:href="#SVGID_133_"  style="overflow:visible;"/>
				</clipPath>
				<g class="st94">
					<path class="st45" d="M308.2,187.7l-7.8,2.1c-0.9,0-1.8,0-2.7-0.1c-33.6-2-62.6-34.4-65.3-73.8c-0.9-13.5,1.3-26.1,6.1-37
						l7.8-2.1c-4.7,10.8-7,23.5-6.1,37c2.7,39.4,31.6,71.8,65.3,73.8C306.4,187.7,307.3,187.7,308.2,187.7"/>
					<path class="st87" d="M246.3,76.8l-7.8,2.1c7.4-17,20.9-29.5,37.6-34l7.8-2.1C267.2,47.3,253.7,59.9,246.3,76.8"/>
				</g>
			</g>
			<g class="st6">
				<defs>
					<path id="SVGID_135_" class="st6" d="M213.3,86.7l-7.8,2.1c1.4-9.1,3.9-17.6,7.2-25.6l7.8-2.1
						C217.2,69.1,214.7,77.6,213.3,86.7z"/>
				</defs>
				<clipPath id="SVGID_136_">
					<use xlink:href="#SVGID_135_"  style="overflow:visible;"/>
				</clipPath>
				<g class="st95">
					<path class="st52" d="M213.3,86.7l-7.8,2.1c1.4-9.1,3.9-17.6,7.2-25.6l7.8-2.1C217.2,69.1,214.7,77.6,213.3,86.7"/>
				</g>
			</g>
			<g class="st6">
				<defs>
					<path id="SVGID_137_" class="st6" d="M223.8,168l7.8-2.1c2.1-0.6,4.2-0.8,6.4-0.6c6.2,0.4,12.6,3.5,17.9,9.2
						c8.1,8.8,11.1,21.3,8.4,31.4l-7.8,2.1c2.8-10-0.2-22.5-8.4-31.4c-5.3-5.7-11.7-8.8-17.9-9.2C228,167.3,225.8,167.5,223.8,168z"
						/>
				</defs>
				<clipPath id="SVGID_138_">
					<use xlink:href="#SVGID_137_"  style="overflow:visible;"/>
				</clipPath>
				<g class="st96">
					<path class="st52" d="M264.2,205.9l-7.8,2.1c2.8-10-0.2-22.5-8.4-31.4c-5.3-5.7-11.7-8.8-17.9-9.2c-2.2-0.1-4.4,0.1-6.4,0.6
						l7.8-2.1c2.1-0.6,4.2-0.8,6.4-0.6c6.2,0.4,12.6,3.5,17.9,9.2C264,183.3,267,195.8,264.2,205.9"/>
				</g>
			</g>
			<g>
				<path class="st97" d="M272.5,11.8c4,10.1,13.2,17.5,23.7,18.2c0.4,0,0.7,0,1.1,0l0.3,4.8l0.4,6.1c-34.8-0.2-60.7,32.4-57.9,72.9
					c2.7,39.4,31.6,71.8,65.3,73.8c0.9,0.1,1.8,0.1,2.7,0.1l0.4,6.2l0.4,5.8c-10.6,0-19.1,6.9-22.1,16.8c-8-2.5-15.6-6.1-22.7-10.7
					c2.8-10-0.2-22.5-8.4-31.4c-5.3-5.7-11.7-8.8-17.9-9.2c-3.4-0.2-6.7,0.4-9.7,1.9c-4.5-7.9-8.2-16.5-11-25.6
					c8.4-4.1,13.9-14.7,13.1-27.2c-0.9-12.6-7.9-23.4-17.1-27.6c1.4-9.1,3.9-17.6,7.2-25.6c2.6,1.3,5.4,2.1,8.2,2.2
					c6.9,0.4,13.8-2.6,18.8-8.9c7.1-9,8.3-21.9,3.7-32.2C257.8,17.8,264.9,14.2,272.5,11.8z"/>
			</g>
			<g class="st6">
				<defs>
					<path id="SVGID_139_" class="st6" d="M228.3,167.1l-7.8,2.1c-4.5-7.9-8.2-16.5-11-25.6l7.8-2.1
						C220.1,150.6,223.8,159.2,228.3,167.1z"/>
				</defs>
				<clipPath id="SVGID_140_">
					<use xlink:href="#SVGID_139_"  style="overflow:visible;"/>
				</clipPath>
				<g class="st98">
					<path class="st52" d="M228.3,167.1l-7.8,2.1c-4.5-7.9-8.2-16.5-11-25.6l7.8-2.1C220.1,150.6,223.8,159.2,228.3,167.1"/>
				</g>
			</g>
			<g class="st6">
				<defs>
					<path id="SVGID_141_" class="st6" d="M217.3,141.5l-7.8,2.1c8.4-4.1,13.9-14.7,13.1-27.2c-0.9-12.6-7.9-23.4-17.1-27.6l7.8-2.1
						c9.1,4.2,16.2,15,17.1,27.6C231.2,126.8,225.8,137.5,217.3,141.5z"/>
				</defs>
				<clipPath id="SVGID_142_">
					<use xlink:href="#SVGID_141_"  style="overflow:visible;"/>
				</clipPath>
				<g class="st99">
					<path class="st91" d="M217.3,141.5l-7.8,2.1c4.5-2.2,8.2-6.3,10.5-11.6l7.8-2.1C225.5,135.2,221.9,139.3,217.3,141.5"/>
					<path class="st52" d="M227.8,130l-7.8,2.1c2-4.5,2.9-9.9,2.5-15.7c-0.9-12.6-7.9-23.4-17.1-27.6l7.8-2.1
						c9.1,4.2,16.2,15,17.1,27.6C230.8,120.1,229.8,125.5,227.8,130"/>
				</g>
			</g>
		</g>
	</g>
</g>
<path class="st100" d="M421.7,47.5c0,0,37.5,186.8,63.5,208.4s-10.7,31.5-10.7,31.5s-82,13.3-235.3-3.6c0,0,210.7,7.4,224.7-3.4
	c14-10.8,3.3-35.6,3.3-35.6L421.7,47.5z"/>
<path class="st101" d="M169.8,209.9c-12-19.4-40.5-69.4-46.3-95.4c-13.1-59.6-5.9-39.7-10-59.6c-2.1-10.4,3.3-8.8,6,26.1
	c1.3,16.7,30.3,82.3,42.5,98.9c12.1,16.6,22.6,18.5,33.7,21.5c7.5,2,9.9,2,14.4,15.1c4.5,13.2,13.6,22.1,22.3,40.1
	c5.9,12.1-18.5,7.5-30.7-2.1C189.5,244.7,186.2,236.3,169.8,209.9z"/>
<path class="st4" d="M551.1,1020.8c-1,5.6-4.9,13.1-16.7,19.3c-21.8,11.3-58.1,30.3-155.9,33.2c-97.8,2.8-195.4-8.1-232.1-18.6
	c-36.8-10.5-56.2-22.5-59.1-51.3c-2.8-28.9,4.4-670.4,4.9-697.9c0.5-27.5,17.5-37.1,35.5-33.5c18,3.6,82.9,20.1,123.6,25.5
	c40.7,5.5,165.3,10,194.4,6.3c29.1-3.7,46.9-9.8,46.9-9.8s0,0.1,0,0.4c0.1-1.7,0.1-2.6,0.1-2.6l3.7-3.2c0,0-19.5,5.7-41,9.4
	c-17.2,2.9-43.4,4.6-106.9,1.8c-73.1-3.3-121.6-9.8-152.6-17.9c-22-5.8-62.8-15.3-74.6-18.2c-11.8-2.9-29.1,3.6-33.9,20.8
	c-3.8,13.9-3.9,252.6-4.3,303.5c-0.4,47.4-2.8,352.2-3.1,408.7c-0.3,56.5,51.8,65.8,105.2,75.8c72.1,13.4,214.9,23.2,309.2-4.5
	c34-10,49.9-22.1,57-32.5C557.3,1026.6,552.7,1022.1,551.1,1020.8z"/>
</svg>
