<!-- Generator: Adobe Illustrator 19.2.1, SVG Export Plug-In  -->
<svg version="1.1"
	 xmlns="http://www.w3.org/2000/svg" xmlns:xlink="http://www.w3.org/1999/xlink" xmlns:a="http://ns.adobe.com/AdobeSVGViewerExtensions/3.0/"
	 x="0px" y="0px" width="550.3px" height="1119.6px" viewBox="0 0 550.3 1119.6"
	 style="overflow:scroll;enable-background:new 0 0 550.3 1119.6;" xml:space="preserve">
<style type="text/css">
	.st0{fill:#A22E38;}
	.st1{fill:#E04E4D;}
</style>
<defs>
</defs>
<path class="st0" d="M144.6,1.5c0,0-39.2-5.4-62.9,21.3c-25.2,28.3-28,84.5-32.4,127.9C45,194.1,13.6,486.3,9.3,563.9
	c-4.4,77.6-8,444.2-8.1,467.8c-0.1,23.6,4.9,61.4,73.7,73.6c0,0,75.4,14.9,139.7,14.2c64.3-0.7,215-15.7,243.3-23.6
	c28.3-7.9,53.9-22.7,62.6-29.5c8.7-6.8,23.4-29,23.4-29l-12.3,13.6c0,0-25,27.9-73.7,41.1c-43.7,11.8-200.5,23.7-231.9,24.3
	c-31.4,0.6-115.7-5.4-145.6-12.7c-29.9-7.3-70.5-14.1-72.1-66c-1.7-51.9,1.3-308.8,2.9-370.5c1.6-61.7,6.5-137,10.3-197.3
	c0.2-3.2,0.5-6.8,0.8-10.8c5.3-69.1,25-238.2,28-282.5C53.3,129.7,64.1,61.3,80.8,32C93.1,10.4,100.3,8.3,113,4.5
	C125.6,0.8,139.7,1.3,144.6,1.5z"/>
<g>
	<path class="st1" d="M181.2,1072.3c-53.4-10-105.5-19.2-105.2-75.8c0.3-56.6,2.4-361.6,6.3-408.9c3.9-47.3-2.7-289.4,1.1-303.3
		c4.7-17.2,22-23.8,33.9-20.8c11.8,2.9,52.6,12.4,74.6,18.2c31,8.1,79.5,14.6,152.6,17.9c63.5,2.8,89.7,1.1,106.9-1.8
		c16.7-2.9,32.2-6.9,38.3-8.6l5.2-2.2c0,0,8.7-4.3,9.3-9.2c1.4-13.1-8.4-13.7-16.1-29.9c-37.9-79.3-56-167.6-58.1-174.6
		c-9.4-32.9-10.5-61.3-37.9-63.6c-75-6.4-220.1-7.2-248.2-9.1c-9.4-0.6-24-2.1-38.1,7.2c-14.1,9.2-48.5,51.2-53.8,115.6
		c-5.3,64.4-30,315-33.4,348.7C15.2,505.7,5.7,656.7,3.8,704.1c-1.9,47.4,2.5,186.3-2.6,231.1c-4.1,35.7,3.9,65.4,2.1,116.1
		c-0.6,17.5,26.9,40.8,60.4,50.1c33.5,9.2,110.7,22.8,184.7,16.7c74-6.1,159.4-10.5,201.2-21.5c41.8-11.1,53-19.1,63.6-27.7
		c10.6-8.6,18.7-18.7,18.7-18.7s0.2-0.3,0.6-0.7c-9.3,6.3-22.8,12.7-42.1,18.3C396,1095.5,253.2,1085.7,181.2,1072.3z"/>
	<path class="st0" d="M485,295c2.3-0.7,3.5-1.1,3.5-1.1s0,0.1,0,0.4c0.1-1.7,0.1-2.6,0.1-2.6l3.7-3.2c0,0-1,0.3-2.7,0.8l-4.7,2
		L485,295z"/>
	<path class="st0" d="M547,1020.9c-0.9,4.8-3.9,11.1-12.3,16.6c1.2,3.4,3.9,4.1,3.3,4.9c-1,1.1-4.3,5.3-5.6,7
		c7.1-4.8,11.8-9.6,14.9-14.1C553.2,1026.7,548.7,1022.1,547,1020.9z"/>
	<path class="st0" d="M534.7,1037.5c-1.3,0.9-2.8,1.8-4.4,2.6c-21.8,11.3-58.1,30.3-155.9,33.2c-97.8,2.8-195.4-8.1-232.1-18.6
		c-36.8-10.5-56.2-22.5-59.1-51.3c-2.8-28.9,4.4-670.4,4.9-697.9c0.5-27.5,17.5-37.1,35.5-33.5c18,3.6,82.9,20.1,123.6,25.5
		c40.7,5.5,165.3,10,194.4,6.3c21.5-2.7,36.8-6.8,43.4-8.7l-0.1-3.9l4.7-2c-6.1,1.7-21.6,5.7-38.3,8.6c-17.2,2.9-43.4,4.6-106.9,1.8
		c-73.1-3.3-121.6-9.8-152.6-17.9c-22-5.8-62.8-15.3-74.6-18.2c-11.8-2.9-29.1,3.6-33.9,20.8c-3.8,13.9,2.8,256-1.1,303.3
		c-3.9,47.3-6,352.4-6.3,408.9c-0.3,56.5,51.8,65.8,105.2,75.8c72.1,13.4,214.9,23.2,309.2-4.5c19.3-5.7,32.7-12,42.1-18.3
		c1.3-1.7,4.6-5.9,5.6-7C538.7,1041.7,535.9,1040.9,534.7,1037.5z"/>
</g>
<path class="st0" d="M547.1,1020.8c-1,5.6-4.9,13.1-16.7,19.3c-21.8,11.3-58.1,30.3-155.9,33.2c-97.8,2.8-195.4-8.1-232.1-18.6
	c-36.8-10.5-56.2-22.5-59.1-51.3c-2.8-28.9,4.4-670.4,4.9-697.9c0.5-27.5,17.5-37.1,35.5-33.5c18,3.6,82.9,20.1,123.6,25.5
	c40.7,5.5,165.3,10,194.4,6.3c29.1-3.7,46.9-9.8,46.9-9.8s0,0.1,0,0.4c0.1-1.7,0.1-2.6,0.1-2.6l3.7-3.2c0,0-19.5,5.7-41,9.4
	c-17.2,2.9-43.4,4.6-106.9,1.8c-73.1-3.3-121.6-9.8-152.6-17.9c-22-5.8-62.8-15.3-74.6-18.2c-11.8-2.9-29.1,3.6-33.9,20.8
	c-3.8,13.9-3.9,252.6-4.3,303.5c-0.4,47.4-2.8,352.2-3.1,408.7c-0.3,56.5,51.8,65.8,105.2,75.8c72.1,13.4,214.9,23.2,309.2-4.5
	c34-10,49.9-22.1,57-32.5C553.3,1026.6,548.7,1022.1,547.1,1020.8z"/>
</svg>
