<!-- Generator: Adobe Illustrator 19.2.1, SVG Export Plug-In  -->
<svg version="1.1"
	 xmlns="http://www.w3.org/2000/svg" xmlns:xlink="http://www.w3.org/1999/xlink" xmlns:a="http://ns.adobe.com/AdobeSVGViewerExtensions/3.0/"
	 x="0px" y="0px" width="464.9px" height="802.6px" viewBox="0 0 464.9 802.6"
	 style="overflow:scroll;enable-background:new 0 0 464.9 802.6;" xml:space="preserve">
<style type="text/css">
	.st0{opacity:0.24;fill:#C7E1BA;}
</style>
<defs>
</defs>
<path class="st0" d="M464.3,741.8c0,0,5.3,16-16.5,27.3c-21.8,11.3-58.1,30.3-155.9,33.2c-97.8,2.8-195.4-8.1-232.1-18.6
	C22.9,773,3.5,761.1,0.6,732.2C-2.2,703.3,5.1,61.8,5.6,34.3C6.1,6.7,23.1-2.9,41.1,0.7c18,3.6,82.9,20.1,123.6,25.5
	c40.7,5.5,165.3,10,194.4,6.3c29.1-3.7,46.9-9.8,46.9-9.8S455.3,603.9,464.3,741.8z"/>
</svg>
