<!-- Generator: Adobe Illustrator 19.2.1, SVG Export Plug-In  -->
<svg version="1.1"
	 xmlns="http://www.w3.org/2000/svg" xmlns:xlink="http://www.w3.org/1999/xlink" xmlns:a="http://ns.adobe.com/AdobeSVGViewerExtensions/3.0/"
	 x="0px" y="0px" width="603.8px" height="865.4px" viewBox="0 0 603.8 865.4"
	 style="overflow:scroll;enable-background:new 0 0 603.8 865.4;" xml:space="preserve">
<style type="text/css">
	.st0{fill:none;}
	.st1{fill:#9399A8;}
	.st2{fill:#B5B6C1;}
	.st3{fill:#44444C;}
	.st4{fill:#DAD9DF;}
	.st5{fill:#6E5D47;}
	.st6{fill:#7B7B88;}
	.st7{fill:#615F74;}
	.st8{fill:#4C3B2E;}
	.st9{fill:#9491A4;}
	.st10{fill:#49BBEC;}
	.st11{fill:#73CEDE;}
	.st12{fill:#605D6B;}
	.st13{opacity:0.5;fill:#67CEF3;}
</style>
<defs>
</defs>
<g>
	<polygon class="st0" points="393.3,569.8 390.3,547.7 374.4,548.7 358.6,547.7 355.5,569.8 	"/>
	<polygon class="st0" points="550.1,211 548.4,203.7 550.1,211 558.3,211.4 	"/>
	<polygon class="st0" points="212.4,346.8 211.2,346.5 212.3,346.9 212.2,349.4 	"/>
	<polygon class="st0" points="197.6,341.7 199.3,343.1 197.9,341.9 192.8,337.9 194.2,339 	"/>
	<polygon class="st0" points="214.1,272.2 210,271.7 207.9,271.4 211.9,272 	"/>
	<polygon class="st0" points="173.4,332.2 173.2,332.5 173.3,332.4 	"/>
	<polygon class="st0" points="159.6,338.8 159.3,338.8 159.6,338.8 159.7,338.8 159.8,338.7 	"/>
	<polygon class="st0" points="231.3,339.6 230.4,340.2 231.4,339.6 	"/>
	<polygon class="st1" points="45.9,478.6 46.9,481 48.8,483.3 51.5,485.4 54.9,487.3 58.8,489 63.2,490.3 67.8,491.1 72.6,491.6 
		77.2,491.5 81.5,491.1 85.4,490.2 88.7,488.8 91.2,487.2 93,485.2 93.8,483 94.8,475.2 97.4,455.8 96.5,457.9 94.8,459.9 
		92.2,461.5 88.9,462.8 85.1,463.8 80.7,464.2 76.1,464.3 71.4,463.8 66.7,463 62.4,461.7 58.4,460.1 55,458.2 52.3,456.1 
		50.4,453.8 49.4,451.5 49.4,449.2 46.8,468.9 45.8,476.3 	"/>
	<polygon class="st2" points="495.2,26.6 496.3,26.5 498,26 498.5,25.7 499.8,25.7 501.1,25.4 502.4,24.8 503.6,24.2 503.8,24.1 
		506.1,21.7 506.5,21.1 508.2,18 509.1,14.7 509,11.2 508,7.9 506.2,5 503.7,2.7 500.7,1 500,0.7 496.9,0.1 496.1,0 495,0.1 
		493.7,0.2 492.4,0.5 491.3,0.8 490.6,1.1 487.8,2.6 485.6,4.9 485.1,5.6 483.4,8.7 482.6,12 482.6,15.5 483.6,18.8 485.4,21.7 
		487.9,24 488.8,24.5 491.6,26 491.9,26.1 493.9,26.5 	"/>
	<polygon class="st3" points="228.5,171.2 234.1,173 259.1,26.1 259.1,25.8 259.1,25.7 257.6,25.7 256.2,25.4 254.8,24.8 253.5,24 
		252.9,24.2 251.3,24.8 250.2,24.9 249.2,24.8 247.7,24.2 247.5,24.1 247.5,24.2 222.6,171.1 228.3,171.1 	"/>
	<polygon class="st4" points="228.3,171.1 232.8,173.3 236.6,176.7 239.8,181.4 242,187.1 243.3,193.6 243.6,200.6 242.8,207.9 
		241.1,215.2 251.1,218.3 252.9,211 252.9,210.9 253.5,204.4 253.6,203.7 253.4,198 253.3,196.7 252,190.2 250.7,186.9 249.8,184.5 
		247.9,181.6 247.6,181.2 246.7,179.8 246,179.3 242.8,176.4 238.3,174.2 234.1,173 228.5,171.2 	"/>
	<polygon class="st5" points="497.6,712.7 495,713.4 494.1,713.4 494.9,725.2 493,752.6 487.4,778.9 478.2,803.1 465.9,824.3 
		450.9,841.8 433.7,854.7 415.1,862.7 419.1,862 437.6,854 440.9,851.9 457.6,839.3 472.3,822.2 484.4,801.4 485.6,799.4 
		494.3,776.3 499.7,751.3 501.5,725.2 500.6,711.9 499.8,712.1 	"/>
	<path class="st6" d="M269.7,618l0.7,5.4l1,7.1l7.5,53.5v11.1v26.7l-0.2,3.5l0.2,3.5l0.4,1.7l0,0.4l1.1,5.3l1.9,4.9l2.5,4.3l1.4,1.7
		l1.6,1.9l3.5,2.6l3.8,1.6l3.9,0.5l3.9-0.5l3.8-1.6l3.5-2.6l3-3.5l2.5-4.3l1.9-4.9l1.1-5.3l0.4-5.5h20.5v-3.5v-3.3v-3.1v-2.7v-1.3
		V684h-20.5l22.1-158.2l-10.9,3.1L299,532l-31.2-3.1l-10.9-3.1l0.3,2.5l12,85.6l0.1,0.8L269.7,618z M311.4,728.7l-0.7,3.3l-1.2,3.1
		l-1.6,2.7l-1.9,2.2l-2.2,1.6l-2.4,1l-2.5,0.3h-7.7l2.5-0.3l2.4-1l2.2-1.6l1.9-2.2l1.6-2.7l1.2-3.1l0.7-3.3l0.2-3.5l-0.2-3.5
		l-0.7-3.3l-1.2-3.1l-1.6-2.7l-1.9-2.2l-2.2-1.6l-2.4-1l-2.5-0.3h7.7l2.5,0.3l2.4,1l2.2,1.6l1.9,2.2l1.6,2.7l1.2,3.1l0.7,3.3
		l0.2,3.5L311.4,728.7z"/>
	<polygon class="st2" points="269.1,613.9 262.4,622.2 260.7,625.3 269.3,614.8 	"/>
	<polygon class="st3" points="267.8,528.9 299,532 330.3,528.9 341.2,525.8 360.4,534.9 360,537.3 359,544.9 374.4,542.6 
		376.9,542.1 379.5,541.3 381.1,540.5 381.7,539.7 381.2,539 379.7,538.3 377.1,537.8 374.4,537.3 342.8,523.9 331.8,516 328.5,514 
		324.5,512.6 320.4,511.7 317,511.6 316.2,511.4 312.3,510.9 309,511 274.7,517 233.1,509.8 225.9,506.4 219.5,500.6 203,486 
		198.6,474.1 194.6,464.1 191.1,464.1 197.4,486 215.7,506.4 244.8,523.9 257.2,528.3 256.8,525.8 	"/>
	<polygon class="st7" points="461.8,595.3 469.6,601.6 479.7,613.9 491.7,528.3 470.1,535.9 	"/>
	<polygon class="st2" points="461.8,595.3 450.5,586.2 446.8,583.6 425.6,574 421,573.1 398.9,569.8 393.3,569.8 355.5,569.8 
		355.4,570.6 355.2,572.2 354.7,575.6 354,580.4 358.2,581 378.5,590.2 397.1,605.2 413.5,625.3 427,649.9 436.9,677.9 441.3,699.5 
		445.9,701.5 447.1,702 448.7,702.6 450.7,703.4 455,705.1 455.6,705.4 458.4,706.8 459.3,707.3 461.3,708 466,710.1 468.3,711.1 
		472.6,712.2 477.2,713.4 479.5,713.5 486.2,714.1 489.5,713.8 494.1,713.4 495,713.4 497.6,712.7 499.8,712.1 500.6,711.9 
		503.6,711.1 510.2,708 511.7,707.3 512.3,706.8 513.9,705.4 515.9,702.6 515.9,702 516,699.5 511.6,677.9 501.6,649.9 500.3,647.5 
		486.5,622.2 479.7,613.9 469.6,601.6 	"/>
	<polygon class="st8" points="372,718.9 372.4,725.2 371.7,735 369.7,744.3 366.5,752.9 362.1,760.5 356.7,766.7 350.6,771.3 
		344,774.1 337.1,775.1 333.8,775.1 326.9,774.1 320.3,771.3 314.2,766.7 308.9,760.5 304.9,753.7 299,753.7 295.1,753.1 
		291.3,751.5 287.9,748.9 286.2,747 287.8,754.1 292.7,767.2 299.4,778.7 307.5,788.1 316.7,795 326.7,799.3 337.1,800.8 
		347.6,799.3 357.6,795 366.8,788.1 374.9,778.7 381.6,767.2 386.5,754.1 389.5,740 390.6,725.2 389.5,710.5 386.5,696.3 386,694.8 
		384.7,694.8 	"/>
	<polygon class="st6" points="319.5,753.7 304.9,753.7 308.9,760.5 314.2,766.7 320.3,771.3 326.9,774.1 333.8,775.1 340.7,774.1 
		347.3,771.3 353.4,766.7 358.8,760.5 363.1,752.9 366.4,744.3 368.4,735 369.1,725.2 368.6,725.2 366.3,729.6 361.6,736.2 
		356.3,741.7 350.6,746.2 344.5,749.4 338.2,751.4 331.8,752.1 327,751.6 323.4,753.1 	"/>
	<polygon class="st9" points="344.1,721.7 343.4,718.4 342.2,715.3 340.7,712.6 339.6,711.3 339.6,712.6 339.6,715.3 339.6,718.4 
		339.6,721.7 339.6,725.2 344.4,725.2 	"/>
	<polygon class="st7" points="319.5,753.7 323.4,753.1 327,751.6 327.2,751.5 330.6,748.9 333.7,745.3 335.5,742.2 336.6,741.7 
		338.8,740.1 340.7,737.8 342.2,735.1 343.4,732.1 344.1,728.7 344.4,725.2 339.6,725.2 319.1,725.2 318.7,730.8 317.6,736.1 
		315.7,741 313.2,745.3 310.2,748.9 306.7,751.5 302.9,753.1 299,753.7 304.9,753.7 	"/>
	<polygon class="st7" points="360.4,534.9 341.2,525.8 319.1,684 339.6,684 351.2,600.4 352.2,593.2 352.5,591.5 353.2,586.4 
		354,580.4 354.7,575.6 355.2,572.2 355.4,570.6 355.5,569.8 358.6,547.7 358.6,547.6 358.7,547.3 358.8,546.2 358.9,545.8 
		359,544.9 360,537.3 	"/>
	<polygon class="st1" points="352.5,591.5 352.2,593.2 351.2,600.4 339.6,684 339.6,711.3 340.7,712.6 342.2,715.3 343.4,718.4 
		344.1,721.7 344.4,725.2 344.1,728.7 343.4,732.1 342.2,735.1 340.7,737.8 338.8,740.1 336.6,741.7 335.5,742.2 333.7,745.3 
		330.6,748.9 327.2,751.5 327,751.6 331.8,752.1 338.2,751.4 344.5,749.4 350.6,746.2 356.3,741.7 361.6,736.2 366.3,729.6 
		368.6,725.2 369,724.5 372,718.9 384.7,694.8 386,694.8 417.1,694.8 421.6,694.8 421.9,694.9 426.5,695.4 427.3,695.5 427.7,695.6 
		434,697.1 438.7,698.7 440.3,699.2 441.3,699.5 436.9,677.9 427,649.9 413.5,625.3 397.1,605.2 378.5,590.2 358.2,581 354,580.4 
		353.2,586.4 	"/>
	<polygon class="st6" points="398.9,569.8 421,573.1 425.6,574 446.8,583.6 450.5,586.2 461.8,595.3 470.1,535.9 466.1,537.3 
		438.6,542.6 421.9,545.8 390.3,547.7 393.3,569.8 	"/>
	<polygon class="st2" points="247.7,24.2 249.2,24.8 250.2,24.9 251.3,24.8 252.9,24.2 253.5,24 254.8,24.8 256.2,25.4 257.6,25.7 
		259.1,25.7 259.1,25.8 259.1,26.1 259.4,26 262.3,24.5 262.9,24 265.4,21.7 267.3,18.8 268.3,15.5 268.4,12 267.6,8.7 266,5.6 
		263.6,3.1 263,2.6 260.4,1.1 259.6,0.8 258.5,0.5 257.1,0.2 255.9,0.1 254.8,0 254.1,0.1 250.9,0.7 248,2.2 247.4,2.7 244.8,5 
		243,7.9 242,11.2 241.8,14.7 242.6,18 244.3,21.1 246.6,23.6 247.2,24.1 247.5,24.2 247.5,24.1 	"/>
	<polygon class="st7" points="303.7,728.7 302.9,732.1 301.8,735.1 300.2,737.8 298.3,740.1 296.1,741.7 293.8,742.7 291.3,743.1 
		299,743.1 301.5,742.7 303.8,741.7 306,740.1 307.9,737.8 309.5,735.1 310.7,732.1 311.4,728.7 311.6,725.2 303.9,725.2 	"/>
	<polygon class="st9" points="310.7,718.4 309.5,715.3 307.9,712.6 306,710.4 303.8,708.8 301.5,707.7 299,707.4 291.3,707.4 
		293.8,707.7 296.1,708.8 298.3,710.4 300.2,712.6 301.8,715.3 302.9,718.4 303.7,721.7 303.9,725.2 311.6,725.2 311.4,721.7 	"/>
	<polygon class="st4" points="152.8,398.7 152.5,397.3 151.9,393.3 151.3,389.6 150.8,386.4 150.4,383.7 150.1,381.8 149.9,380.6 
		149.9,380.1 149.7,380.1 146.7,380.6 143.9,381.8 141.3,383.7 139,386.4 137.1,389.6 135.7,393.3 134.9,397.3 134.6,401.5 
		153.7,401.5 	"/>
	<polygon class="st1" points="160.3,421.2 159.7,419.2 158.8,416.6 157.7,413.3 156.4,409.6 155.1,405.6 153.7,401.5 134.6,401.5 
		134.9,405.6 135.7,409.6 137.1,413.3 139,416.6 141.3,419.2 143.9,421.2 146.7,422.4 149.7,422.8 160.9,422.8 160.7,422.4 	"/>
	<polygon class="st6" points="580.9,220.2 578.1,221.5 576.3,221.8 569.5,222.8 560.9,224.2 554.8,225.1 550.5,225.1 549.6,225.2 
		538.1,225.5 524.3,226.2 514.8,225.8 508.8,225.5 492,225.1 491.8,225.1 487.9,225.1 484.7,225.1 476.4,224.4 474.1,224.2 
		458.1,223 455.2,222.8 435.7,221.8 433.9,221.7 428.2,221.5 415.5,220.2 405.5,219.4 395,218.5 374.4,217 353.9,215.9 342.9,215.4 
		339.6,215.3 333.6,214.8 319.4,213.7 313.8,213.3 313.1,213.3 294.6,212.2 287.3,211.9 276.1,211.4 267.7,211.1 258.6,210.9 
		255.2,210.9 252.9,210.9 252.9,211 251.1,218.3 248.5,225.4 246.4,229.1 256.3,229.2 274.1,229.7 292.9,230.5 312.5,231.6 
		332.8,233.1 338.9,233.7 353.5,234.3 374.4,235.5 395.4,236.9 416.3,238.7 429.3,240 436.9,240.3 456.9,241.4 476.1,242.7 
		483.6,243.4 486.9,243.5 494.4,243.5 511.4,243.6 527.2,243.8 541.3,243.6 553.9,243.5 558.4,243.5 560.4,243.4 564.7,242.7 
		573.5,241.4 580.3,240.3 582.2,240 585.1,238.7 587.8,236.9 588.5,235.5 584.3,217 583.6,218.5 	"/>
	<path class="st6" d="M547.9,285l-0.1,7l3,57.4l-3.8,34.2l-0.3,6.6l0,0.4l0.5,6.7l0.3,1.4l0.4,4.8l1.4,5.4l2.2,4.5l2.3,2.6l0.5,0.7
		l3.1,2l1,0.2l2.4,0.5l2.6-0.5l1-0.2l3.9-2l0.3-0.3l3.4-3l3.6-4.5l0.9-1.4l2.3-4l2.2-4.8l0.5-1.4l1.6-6.7l1.1-7l4.2-34.2l-3.3-57.4
		l-0.7-7l-1-5.6l-0.3-1.1l-2.3-6.2l-1.2-2.5l-1.6-2.9l-3.2-4.5l-3.4-3.3l-3.4-2l-0.3-0.1l-3.5-0.6l-3.6,0.7l-3.2,2l-0.2,0.3l-2.9,3
		l-2.5,4.5l-1.8,5.4l-1,6.2l0,1.1l-0.7,5.3L547.9,285z M557,279l1.2-3.6l1.4-2.4l0.3-0.5l1.8-2.2l2.1-1.3l2.4-0.5l2.5,0.5l1.6,0.8
		l0.9,0.5l2.2,2.2l2.1,2.9l1.9,3.6l0.2,0.4l1.1,3.7l0.9,4.4l0.5,5.2l3.2,56.8l-3.9,33.5l-0.8,5.2l-1.1,4.4l-1.5,4.1l-1,2.1l-0.9,1.4
		l-2.4,2.9l-2,1.8l-0.4,0.4l-1.4,0.8l-1.1,0.6l-1.2,0.2l-1.3,0.2l-2.3-0.5l-2-1.3l-1.6-2.2l-0.3-0.9l-1-2l-0.4-1.4l-0.8-2.1
		l-0.9-4.1l-0.3-4.4l0.3-5.2l3.7-33.5l-3-56.8l0-5.2l0.6-4.4l1-3.7L557,279z"/>
	<polygon class="st3" points="464.7,287.4 464.5,292.6 467.7,349.4 463.8,382.9 463.7,388.1 464.5,392.5 466.1,396.6 467.5,398.7 
		468.3,400.2 470.9,403.1 474.3,405.2 474.7,405.4 477.6,406.4 478,406.6 481.3,406.9 482.1,407 486.2,406.6 490.5,405.2 
		494.6,403.1 497.1,401.1 498.3,400.2 499.6,398.7 501.3,396.6 503.5,392.5 505.1,388.1 506.1,382.9 509.8,349.4 506.8,292.6 
		506.1,287.4 504.8,283 503,279.4 502.8,279 499.8,275.4 498.3,274.1 496.3,272.5 492.3,270.3 488.2,269 484.1,268.5 480.1,269 
		479,269.4 476.2,270.3 472.7,272.5 469.8,275.4 467.6,279 467.5,279.4 465.8,283 	"/>
	<polygon class="st3" points="555.4,287.4 555.4,292.6 558.4,349.4 554.7,382.9 554.4,388.1 554.7,392.5 555.6,396.6 556.4,398.7 
		556.8,400.2 557.8,402.2 558.1,403.1 559.7,405.2 561.7,406.6 564.1,407 565.3,406.8 566.5,406.6 567.6,406 569,405.2 569.5,404.9 
		571.5,403.1 573.8,400.2 574.7,398.7 575.8,396.6 577.2,392.5 578.3,388.1 579.2,382.9 583.1,349.4 579.9,292.6 579.4,287.4 
		578.5,283 577.5,279.4 577.3,279 575.3,275.4 573.2,272.5 571,270.3 570.2,269.8 568.6,269 566.1,268.5 563.7,269 561.6,270.3 
		559.8,272.5 559.6,273 558.2,275.4 557,279 557,279.4 556,283 	"/>
	<polygon class="st2" points="501.2,198 497.8,210.9 503.7,210.8 521.6,211.1 524.3,211 535.5,210.8 547.7,210.9 550.1,211 
		548.4,203.7 545.7,196.7 542.1,190.2 537.7,184.5 532.6,179.8 527.2,176.4 521.5,174.2 510.4,174.2 505.3,176.4 502.8,178.4 
		503,181.6 	"/>
	<path class="st6" d="M452,292l3.3,57.4l-4.2,34.2l-0.1,7l1.3,6.7l0.6,1.4l1.4,4.8l3.2,5.4l0.3,0.3l3.8,4.1l5.1,3.3l0.6,0.2l5.1,1.8
		l2.9,0.3l3.3,0.4l6-0.6l0.6-0.1l6.5-2l2.6-1.4l3.4-1.9l5.5-4.5l4.9-5.4l3.2-4.8l0.8-1.4l2.4-6.7l1.3-7l3.8-34.2l-3.1-57.4l-0.9-7
		l-1.7-5.6l-0.5-1.1l-3.7-6.2l-4.5-5.4l-5.2-4.5l-3.9-2.3l-1.8-1l-6.3-2l-6.3-0.7l-4.4,0.5l-1.8,0.2l-6.1,2l-5.4,3.3l-4.5,4.5
		l-0.7,1.1l-3,4.4l-2.3,6.2l-0.2,1.1l-1.5,5.6L452,292z M467.6,279l2.2-3.6l2.9-2.9l3.5-2.2l2.8-0.9l1.1-0.4l4-0.5l4.1,0.5l4.1,1.3
		l4,2.2l2,1.6l1.5,1.3l3,3.6l0.2,0.4l1.8,3.7l1.3,4.4l0.7,5.2l3,56.8l-3.7,33.5l-1,5.2l-1.6,4.4l-2.2,4.1l-1.7,2.1l-1.3,1.4l-1.2,1
		l-2.6,1.9l-4.1,2.2l-4.2,1.3l-4.2,0.5l-0.8-0.1l-3.3-0.4l-0.4-0.1l-2.9-1l-0.4-0.1l-3.3-2.2l-2.7-2.9l-0.8-1.4l-1.4-2.1l-1.6-4.1
		l-0.8-4.4l0.1-5.2l3.9-33.5l-3.2-56.8l0.2-5.2l1-4.4l1.7-3.7L467.6,279z"/>
	<polygon class="st4" points="249.3,293.6 247.7,285.4 245.4,279.4 245,277.6 241.5,270.8 236.9,265.3 234.5,263.5 231.6,261.1 
		225.8,258.6 224.7,258.4 219.5,257.7 218.6,257.6 216.6,257.7 210.4,258.6 204.4,261 204.3,261.1 202.7,261.9 197.1,265.9 
		192.2,271.3 191.4,272.3 188.6,276.6 187.3,278.6 187,279.2 187.3,279.2 187.7,279.1 188.8,278.9 189.5,278.8 191.9,278.6 
		194,278.4 195.8,276.4 199.6,273.7 203.7,272 207.9,271.4 210,271.7 214.1,272.2 211.9,272 215.8,273.7 219.3,276.4 222.2,280.1 
		224.6,284.6 226.2,289.8 227.1,295.4 227.2,301.2 229.3,301.4 232.2,301.4 234.5,301.4 237.1,301.5 240,301.7 242.8,301.9 
		245.4,302.1 247.7,302.3 249.6,302.6 249.4,293.8 	"/>
	<polygon class="st6" points="164,233.7 165,233.1 170.4,231.6 177.7,230.5 186.8,229.7 192.2,229.4 192,228.8 190.7,222.3 
		190.4,215.2 190.8,211.4 190.5,211.4 181.6,212.2 174.4,213.3 169.1,214.8 168.1,215.3 165.9,215.9 164.6,217 160.4,235.5 
		161.7,234.3 	"/>
	<polygon class="st6" points="578.9,437.7 573,437.7 567.1,437.7 557.4,437.7 547.8,437.7 534.8,437.7 521.9,437.7 506.1,437.7 
		490.3,437.7 472.3,437.7 454.2,437.7 434.7,437.7 415.1,437.7 394.8,437.7 374.4,437.7 354.1,437.7 333.7,437.7 314.2,437.7 
		294.6,437.7 276.6,437.7 258.6,437.7 242.8,437.7 227,437.7 214,437.7 201,437.7 191.4,437.7 181.8,437.7 175.8,437.7 169.9,437.7 
		167.9,437.7 165.9,437.7 195.7,447.9 191.1,464.1 194.6,464.1 205.1,464.1 244.8,464.1 304.3,464.1 374.4,464.1 444.6,464.1 
		504,464.1 543.8,464.1 557.7,464.1 553.1,447.9 583,437.7 580.9,437.7 	"/>
	<polygon class="st3" points="530.6,171.1 526.2,171.1 503.6,24.2 502.4,24.8 501.1,25.4 499.8,25.7 498.5,25.7 498,26 496.3,26.5 
		495.2,26.6 493.9,26.5 491.9,26.1 514.5,172.8 510.4,174.2 521.5,174.2 	"/>
	<polygon class="st7" points="368.4,735 366.4,744.3 363.1,752.9 358.8,760.5 353.4,766.7 347.3,771.3 340.7,774.1 333.8,775.1 
		337.1,775.1 344,774.1 350.6,771.3 356.7,766.7 362.1,760.5 366.5,752.9 369.7,744.3 371.7,735 372.4,725.2 372,718.9 369,724.5 
		368.6,725.2 369.1,725.2 	"/>
	<polygon class="st2" points="249.2,699.2 250.1,694.8 241.9,694.8 241.1,695 238.1,695.4 237.5,695.5 236.9,695.8 234.4,697.1 
		234,697.8 232.9,699.5 232.9,702 233,702.6 234.9,705.4 236.6,706.8 237.2,707.3 238.6,708 245.2,711.1 248.3,711.9 248.7,706.7 	
		"/>
	<polygon class="st5" points="391,854.7 408.1,841.8 423.1,824.3 435.5,803.1 444.6,778.9 450.3,752.6 452.2,725.2 450.7,703.4 
		448.7,702.6 447.1,702 445.9,701.5 441.3,699.5 440.3,699.2 438.7,698.7 434,697.1 427.7,695.6 427.3,695.5 426.5,695.4 
		421.9,694.9 421.6,694.8 417.1,694.8 386,694.8 386.5,696.3 389.5,710.5 390.6,725.2 389.5,740 386.5,754.1 381.6,767.2 
		374.9,778.7 366.8,788.1 357.6,795 347.6,799.3 337.1,800.8 326.7,799.3 316.7,795 307.5,788.1 299.4,778.7 292.7,767.2 
		287.8,754.1 286.2,747 284.8,745.3 282.3,741 280.5,736.1 279.3,730.8 279.3,730.4 278.9,728.7 278.7,725.2 278.9,721.7 
		278.9,695.1 278.8,694.8 257.2,694.8 253.4,694.8 251,694.8 250.1,694.8 249.2,699.2 248.7,706.7 248.3,711.9 247.4,725.2 
		249.2,751.3 254.6,776.3 263.3,799.4 275,819.7 276.5,822.2 291.2,839.3 308,851.9 311.2,854 329.7,862 333.7,862.7 353.1,865.4 
		372.4,862.7 	"/>
	<polygon class="st8" points="395.2,854.7 412.3,841.8 427.3,824.3 439.7,803.1 448.8,778.9 454.5,752.6 456.4,725.2 455,705.1 
		450.7,703.4 452.2,725.2 450.3,752.6 444.6,778.9 435.5,803.1 423.1,824.3 408.1,841.8 391,854.7 372.4,862.7 353.1,865.4 
		357.2,865.4 376.6,862.7 	"/>
	<polygon class="st8" points="450.9,841.8 465.9,824.3 478.2,803.1 487.4,778.9 493,752.6 494.9,725.2 494.1,713.4 489.5,713.8 
		490.3,725.2 488.4,752.6 482.8,778.9 473.6,803.1 461.3,824.3 446.3,841.8 429.2,854.7 410.6,862.7 391.2,865.4 395.8,865.4 
		415.1,862.7 433.7,854.7 	"/>
	<polygon class="st5" points="429.2,854.7 446.3,841.8 461.3,824.3 473.6,803.1 482.8,778.9 488.4,752.6 490.3,725.2 489.5,713.8 
		486.2,714.1 479.5,713.5 480.3,725.2 478.4,752.6 472.7,778.9 463.6,803.1 451.2,824.3 436.2,841.8 419.1,854.7 400.5,862.7 
		381.2,865.4 391.2,865.4 410.6,862.7 	"/>
	<polygon class="st5" points="405.8,854.7 423,841.8 438,824.3 450.3,803.1 459.5,778.9 465.1,752.6 467,725.2 466,710.1 461.3,708 
		459.3,707.3 458.4,706.8 455.6,705.4 455,705.1 456.4,725.2 454.5,752.6 448.8,778.9 439.7,803.1 427.3,824.3 412.3,841.8 
		395.2,854.7 376.6,862.7 357.2,865.4 367.9,865.4 387.2,862.7 	"/>
	<polygon class="st8" points="419.1,854.7 436.2,841.8 451.2,824.3 463.6,803.1 472.7,778.9 478.4,752.6 480.3,725.2 479.5,713.5 
		477.2,713.4 472.6,712.2 468.3,711.1 466,710.1 467,725.2 465.1,752.6 459.5,778.9 450.3,803.1 438,824.3 423,841.8 405.8,854.7 
		387.2,862.7 367.9,865.4 374.4,865.4 381.2,865.4 400.5,862.7 	"/>
	<polygon class="st1" points="251.1,218.3 241.1,215.2 238.4,222.3 234.9,228.8 230.8,234.5 226.1,239.1 221,242.6 215.8,244.7 
		210.6,245.4 205.7,244.7 207.2,245.2 215.7,247.8 220.7,248.5 220.9,248.5 225.8,247.8 231,245.7 236.1,242.2 237.9,240.4 
		240.8,237.6 245,231.9 246.4,229.1 248.5,225.4 	"/>
	<polygon class="st10" points="247.6,181.2 248,177.5 248.5,171.1 248.7,165.2 248.8,164.7 249.9,158.5 250.6,152.8 250.9,149.1 
		251.2,147.8 251.9,144.4 250,149.1 248.1,158.5 247.7,161.4 247.1,165.2 247.1,166.2 246.9,171.1 246.5,176 246.4,177.1 
		246.1,177.3 246,179.3 246.7,179.8 	"/>
	<polygon class="st3" points="250.9,149.1 250.6,152.8 249.9,158.5 248.8,164.7 248.7,165.2 248.5,171.1 248,177.5 247.6,181.2 
		247.9,181.6 249.8,184.5 250.7,186.9 252,190.2 253.3,196.7 253.4,198 253.6,203.7 253.5,204.4 252.9,210.9 255.2,210.9 
		258.6,210.9 267.7,211.1 276.1,211.4 287.3,211.9 294.6,212.2 313.1,213.3 313.8,213.3 319.4,213.7 333.6,214.8 339.6,215.3 
		342.9,215.4 353.9,215.9 374.4,217 395,218.5 405.5,219.4 415.5,220.2 428.2,221.5 433.9,221.7 435.7,221.8 455.2,222.8 458.1,223 
		474.1,224.2 476.4,224.4 484.7,225.1 487.9,225.1 491.8,225.1 495.2,217.7 497,213.7 497.8,210.9 501.2,198 503,181.6 502.8,178.4 
		502.1,165.2 498.8,149.1 493.1,134.2 485.2,120.9 480.6,115.8 477.1,115.8 466.4,115.8 449.6,115.8 427.5,115.8 401.9,115.8 
		374.4,115.8 346.9,115.8 321.3,115.8 299.3,115.8 282.4,115.8 271.8,115.8 268.2,115.8 263.7,120.9 255.8,134.2 251.9,144.4 
		251.2,147.8 	"/>
	<polygon class="st11" points="246.5,176 246.9,171.1 247.1,166.2 247.1,165.2 247.7,161.4 248.1,158.5 246.7,165.2 246.1,177.3 
		246.4,177.1 	"/>
	<polygon class="st3" points="62.4,555.4 64.4,549.8 67.3,544.3 70.1,540.2 103.2,562.5 114.3,568.1 118.9,559.3 122.2,550.2 
		124.1,541.3 124.5,532.8 123.4,525.1 120.8,518.5 116.8,513.3 111.7,509.6 96.6,499.4 98.6,483.7 97.6,486.3 95.5,488.7 
		92.5,490.7 88.5,492.3 83.9,493.4 78.7,493.9 73.1,494 67.4,493.4 61.9,492.4 56.6,490.8 51.8,488.9 47.8,486.6 44.5,484 
		42.3,481.2 41.1,478.4 41,475.7 40.5,479.8 37.4,481.1 29.8,485.9 22.5,492.1 15.9,499.5 10.2,507.7 5.6,516.6 2.3,525.6 
		0.4,534.6 0,543.1 1.1,550.8 3.7,557.3 7.7,562.6 12.8,566.3 58.8,597.2 68.9,580.5 65.7,578.2 63.3,574.9 61.7,570.9 61,566.1 
		61.2,560.9 	"/>
	<polygon class="st1" points="504,464.1 444.6,464.1 374.4,464.1 304.3,464.1 244.8,464.1 205.1,464.1 194.6,464.1 198.6,474.1 
		203,486 219.5,500.6 225.9,506.4 233.1,509.8 274.7,517 309,511 312.3,510.9 316.2,511.4 317,511.6 320.4,511.7 324.5,512.6 
		328.5,514 331.8,516 342.8,523.9 374.4,537.3 377.1,537.8 379.7,538.3 381.2,539 381.7,539.7 381.1,540.5 379.5,541.3 376.9,542.1 
		374.4,542.6 359,544.9 358.9,545.8 358.8,546.2 358.7,547.3 358.6,547.6 358.6,547.7 374.4,548.7 390.3,547.7 421.9,545.8 
		438.6,542.6 440.9,542.1 444.2,541.3 448,540.5 452.1,539.7 456.2,539 460.1,538.3 463.4,537.8 466.1,537.3 470.1,535.9 
		491.7,528.3 504,523.9 533.2,506.4 551.5,486 557.7,464.1 543.8,464.1 	"/>
	<polygon class="st3" points="463.4,537.8 460.1,538.3 456.2,539 452.1,539.7 448,540.5 444.2,541.3 440.9,542.1 438.6,542.6 
		466.1,537.3 	"/>
	<polygon class="st12" points="42.3,481.2 44.5,484 47.8,486.6 51.8,488.9 56.6,490.8 61.9,492.4 67.4,493.4 73.1,494 78.7,493.9 
		83.9,493.4 88.5,492.3 92.5,490.7 95.5,488.7 97.6,486.3 98.6,483.7 98.6,481 97.4,478.2 95.1,475.4 94.8,475.2 93.8,483 93,485.2 
		91.2,487.2 88.7,488.8 85.4,490.2 81.5,491.1 77.2,491.5 72.6,491.6 67.8,491.1 63.2,490.3 58.8,489 54.9,487.3 51.5,485.4 
		48.8,483.3 46.9,481 45.9,478.6 45.8,476.3 46.8,468.9 44.1,470.7 42,473 41,475.7 41.1,478.4 	"/>
	<polygon class="st1" points="234.4,697.1 236.9,695.8 237.5,695.5 238.1,695.4 241.1,695 241.9,694.8 250.1,694.8 251,694.8 
		253.4,694.8 257.2,694.8 278.8,694.8 278.9,695.1 278.9,684 271.5,630.5 270.5,623.3 269.7,618 269.3,614.8 260.7,625.3 
		247.2,649.9 237.2,677.9 232.9,699.5 234,697.8 	"/>
	<polygon class="st4" points="527.2,176.4 532.6,179.8 537.7,184.5 542.1,190.2 545.7,196.7 548.4,203.7 550.1,211 558.3,211.4 
		550.1,211 547.7,210.9 535.5,210.8 524.3,211 521.6,211.1 503.7,210.8 497.8,210.9 497,213.7 495.2,217.7 491.8,225.1 492,225.1 
		508.8,225.5 514.8,225.8 524.3,226.2 538.1,225.5 549.6,225.2 550.5,225.1 554.8,225.1 560.9,224.2 569.5,222.8 576.3,221.8 
		578.1,221.5 580.9,220.2 583.6,218.5 584.3,217 583,215.9 580.7,215.3 579.7,214.8 574.4,213.3 567.3,212.2 559.5,211.5 
		559.2,207.9 557.5,200.6 554.8,193.6 551.2,187.1 546.7,181.4 541.7,176.7 536.2,173.3 530.6,171.1 521.5,174.2 	"/>
	<polygon class="st2" points="374.4,90.8 364.4,90.9 384.4,90.9 	"/>
	<polygon class="st2" points="282.4,115.8 299.3,115.8 321.3,115.8 346.9,115.8 374.4,115.8 401.9,115.8 427.5,115.8 449.6,115.8 
		466.4,115.8 477.1,115.8 480.6,115.8 475.4,109.8 467.6,103.9 464.5,103.9 455.1,103.9 440.4,103.9 421,103.9 398.6,103.9 
		374.4,103.9 350.3,103.9 327.8,103.9 308.5,103.9 293.7,103.9 284.3,103.9 281.2,103.9 273.5,109.8 268.2,115.8 271.8,115.8 	"/>
	<polygon class="st4" points="293.7,103.9 308.5,103.9 327.8,103.9 350.3,103.9 374.4,103.9 398.6,103.9 421,103.9 440.4,103.9 
		455.1,103.9 464.5,103.9 467.6,103.9 464,101.1 451.6,95.4 434.7,92.1 411.7,90.9 401.7,90.9 384.4,90.9 364.4,90.9 347.1,90.9 
		337.2,90.9 314.2,92.1 297.3,95.4 284.8,101.1 281.2,103.9 284.3,103.9 	"/>
	<polygon class="st2" points="226.2,289.8 224.6,284.6 222.2,280.1 219.3,276.4 215.8,273.7 211.9,272 207.9,271.4 203.7,272 
		199.6,273.7 195.8,276.4 194,278.4 199.2,277.8 206.7,277.6 205.8,277.8 210.1,277.6 213.3,278.6 216.3,280.5 218.9,283.2 
		221,286.7 222.6,290.7 223.5,295.1 223.8,299.8 223.4,304.5 222.4,309.2 220.8,313.6 218.6,317.5 216,320.8 213,323.4 209.8,325.1 
		206.4,326 203.7,326.1 195.4,326.9 194.4,327.1 196.3,328.6 200.2,330.3 204.2,330.9 208.4,330.3 212.5,328.6 216.3,325.9 
		219.7,322.2 222.6,317.7 224.9,312.5 226.4,307 227.2,301.2 227.1,295.4 	"/>
	<polygon class="st6" points="203.7,326.1 206.4,326 209.8,325.1 213,323.4 216,320.8 218.6,317.5 220.8,313.6 222.4,309.2 
		223.4,304.5 223.8,299.8 223.5,295.1 222.6,290.7 221,286.7 218.9,283.2 216.3,280.5 213.3,278.6 210.1,277.6 205.8,277.8 
		206.7,277.6 199.2,277.8 194,278.4 191.9,278.6 189.5,278.8 188.8,278.9 187.7,279.1 187.3,279.2 187,279.2 186.2,279.4 
		178.1,280.8 176.6,281.2 167.3,283.5 167.1,283.6 165.6,284.1 168,284.1 168.9,284.3 170.8,285 173.8,286.7 177,289.2 180.3,292.3 
		183.5,295.9 186.5,299.9 189.2,304.2 191.4,308.4 192.9,311.8 193.2,312.6 194.3,316.6 194.9,320.2 194.8,323.2 194.1,325.5 
		192.8,327 190.9,327.7 191.6,327.6 194.4,327.1 195.4,326.9 	"/>
	<polygon class="st1" points="115.8,310.9 116.9,311.8 118.8,313.3 121.5,315.1 124.7,317.3 128,319.5 128.3,319.8 128.4,319.9 
		132.7,322.6 137.1,325.5 141.5,328.3 145.7,330.9 149.6,333.3 153.1,335.4 153.2,335.3 153.5,335.7 155.9,337 158,338.2 
		159.3,338.8 159.6,338.8 159.8,338.7 163.4,336.9 166.4,335.3 173.2,332.5 173.4,332.2 173.3,332.4 180.2,330.1 185,328.9 
		186.4,328.6 188.5,332.5 192.8,337.9 197.9,341.9 199.3,343.1 205.1,345.7 206.5,346.1 212.3,346.9 211.2,346.5 212.4,346.8 
		218.9,346.1 225.2,343.6 229.3,340.8 230.4,340.2 231.3,339.6 231.4,339.6 237.2,334.1 242.1,327.4 245.9,319.7 248.4,311.3 
		248.7,309.6 249.6,302.6 247.7,302.3 245.4,302.1 242.8,301.9 240,301.7 237.1,301.5 234.5,301.4 232.2,301.4 229.3,301.4 
		227.2,301.2 226.4,307 224.9,312.5 222.6,317.7 219.7,322.2 216.3,325.9 212.5,328.6 208.4,330.3 204.2,330.9 200.2,330.3 
		196.3,328.6 194.4,327.1 191.6,327.6 190.9,327.7 192.8,327 194.1,325.5 194.8,323.2 194.9,320.2 194.3,316.6 193.2,312.6 
		192.9,312.7 192.9,311.8 191.4,308.4 189.2,304.2 186.5,299.9 183.5,295.9 180.3,292.3 177,289.2 173.8,286.7 170.8,285 
		168.9,284.3 168,284.1 165.6,284.1 159.5,286.1 156.4,287.1 154,288.1 150.6,289.5 149.5,290 145.7,291.6 135.4,296.9 125.6,302.9 
		116.3,309.8 115.5,310.5 115.6,310.7 	"/>
	<polygon class="st6" points="50.4,453.8 52.3,456.1 55,458.2 58.4,460.1 62.4,461.7 66.7,463 71.4,463.8 76.1,464.3 80.7,464.2 
		85.1,463.8 88.9,462.8 92.2,461.5 94.8,459.9 96.5,457.9 97.4,455.8 98,450.5 100.3,436.1 101.9,428.5 101.1,430.4 99.5,432.2 
		96.9,433.6 93.7,434.7 89.9,435.4 85.6,435.6 81,435.5 76.3,434.8 71.7,433.8 67.3,432.4 63.3,430.8 59.9,428.8 57.2,426.7 
		55.3,424.5 54.3,422.3 54.2,420.1 52.6,427.4 50.1,443.3 49.4,449.2 49.4,451.5 	"/>
	<polygon class="st1" points="55.3,424.5 57.2,426.7 59.9,428.8 63.3,430.8 67.3,432.4 71.7,433.8 76.3,434.8 81,435.5 85.6,435.6 
		89.9,435.4 93.7,434.7 96.9,433.6 99.5,432.2 101.1,430.4 101.9,428.5 103.1,422.8 106.6,410.5 105.6,413 107.3,408.3 105.7,409.9 
		103.3,411.1 100.1,412 96.4,412.5 92.1,412.6 87.6,412.2 82.9,411.5 78.3,410.3 73.9,408.8 69.9,407 66.4,405 63.7,402.9 
		61.7,400.7 60.5,398.6 60.3,396.5 59.8,398 55.9,412.2 54.2,420.1 54.3,422.3 	"/>
	<polygon class="st6" points="87.3,345 89,346.9 90.9,348.5 91.2,349.3 91.5,349 94.7,351.2 98.6,353.5 102.8,355.7 107.3,357.7 
		111.8,359.5 116.3,361 120.5,362.2 124.2,362.9 127.4,363.2 129.9,363.1 131.5,362.6 132.4,361.6 134,359.6 140.2,353.2 145.1,349 
		146.3,348 146.6,347.6 149.8,345.3 153.2,342.8 155.5,341.4 159.7,338.8 159.6,338.8 159.3,338.8 158,338.2 155.9,337 153.5,335.7 
		153.2,335.3 153.1,335.4 149.6,333.3 145.7,330.9 141.5,328.3 137.1,325.5 132.7,322.6 128.4,319.9 128.3,319.8 128,319.5 
		124.7,317.3 121.5,315.1 118.8,313.3 116.9,311.8 115.8,310.9 115.6,310.7 115.5,310.5 107.6,317.4 99.5,325.8 98,327.6 
		97.8,327.7 91.8,334.9 90.2,336.9 86.6,342 86.5,343.3 	"/>
	<polygon class="st1" points="67.9,379.1 69.1,381.1 71.2,383.3 74,385.4 77.5,387.5 77.6,387.4 77.9,387.6 81.6,389.3 86,391 
		90.7,392.4 95.3,393.4 99.8,393.9 103.9,394.1 107.5,393.9 110.5,393.2 112.8,392.2 114.2,390.8 118.8,381.5 124.1,372.7 
		129.7,364.8 131.5,362.6 129.9,363.1 127.4,363.2 124.2,362.9 120.5,362.2 116.3,361 111.8,359.5 107.3,357.7 102.8,355.7 
		98.6,353.5 94.7,351.2 91.5,349 91.2,349.3 90.9,348.5 89,346.9 87.3,345 86.5,343.3 86.6,342 83.1,347 76.6,357.8 70.7,369.5 
		68.1,375.5 67.6,377.2 	"/>
	<polygon class="st2" points="192.9,312.7 193.2,312.6 192.9,311.8 	"/>
	<path class="st2" d="M154,288.1l2.5-1l3-1l6.1-2l1.5-0.5l0.2-0.1l9.4-2.3l1.5-0.4l8.1-1.4l0.8-0.1l0.3-0.6l1.3-2l2.8-4.3l0.8-1
		l5-5.4l5.6-4l1.6-0.8l0.1,0l6-2.5l6.2-0.9l2-0.1l0.9,0.1l5.3,0.8l1,0.1l5.8,2.6l2.9,2.4l2.4,1.8l4.6,5.6l3.4,6.8l0.5,1.8l2.3,6
		l1.6,8.2l0,0.2l0.3,8.8l-1,7l-0.2,1.7l-2.5,8.4l-3.8,7.7l-4.9,6.7l-5.8,5.5l-1,0.6l-1.1,0.6l-4.1,2.8l-6.4,2.5l-6.5,0.8l-0.1,2.6
		l0.1-2.5l-5.8-0.8l-1.4-0.4l-5.8-2.5l-1.8-1.4l-3.4-2.7l-1.4-1.1l-4.3-5.4l-2-3.9l-1.4,0.4l-4.8,1.2l-6.9,2.3l-0.1,0l-6.8,2.8
		l-3.1,1.6l-3.6,1.9l-0.1,0.1l-4.1,2.6l-2.3,1.5l-3.4,2.5l-3.1,2.3l-0.4,0.3l-1.2,1l0,0.4l4.8,30.7l0.1,0.4l0.2,1.2l0.3,2l0.4,2.7
		l0.5,3.2l0.6,3.7l0.6,4l0.2,1.4l0.9,2.8l1.4,4.2l1.3,4l1.2,3.7l1.1,3.2l0.9,2.7l0.7,2l0.4,1.2l0.1,0.4l5,14.9h2h2h5.9h5.9h9.6h9.6
		h13h13h15.8h15.8h18h18h19.6h19.6h20.3h20.3h20.3h20.3h19.6h19.6h18h18h15.8h15.8h13h13h9.6h9.6h5.9h5.9h2h2l13.1-39l7.7-49.3
		l-5.2-70l-10.1-43.9l-0.7,1.5l-2.7,1.8l-2.9,1.3l-1.8,0.3l-6.9,1.1l-8.8,1.3l-4.3,0.6l-2,0.1l-4.5,0l-12.6,0.1l-14.2,0.2l-15.7-0.2
		l-17-0.1l-7.5,0l-3.3-0.1l-7.5-0.6l-19.3-1.3l-20-1.1l-7.6-0.3l-12.9-1.3l-20.9-1.8l-21-1.5l-21-1.2l-14.5-0.6l-6.2-0.5l-20.2-1.5
		l-19.6-1.2l-18.8-0.8l-17.8-0.5l-9.9-0.1l-1.5,2.7l-4.2,5.7l-2.9,2.9l-1.8,1.8l-5.1,3.5l-5.2,2.1l-4.9,0.7l-0.3,0l-4.9-0.7
		l-8.5-2.6l-1.5-0.5l4.9,0.7l5.2-0.7l5.2-2.1l5.1-3.5l4.7-4.7l4.2-5.7l3.5-6.5l2.7-7l1.7-7.3l0.7-7.3l-0.3-7l-1.3-6.5l-2.2-5.7
		l-3.1-4.7l-3.9-3.5l-4.5-2.1h-5.7h-4.4l-5.2,2.1l-5.1,3.5l-4.7,4.7l-4.2,5.7l-3.5,6.5l-2.7,7l-1.7,7.3l-0.3,3.4l-0.4,3.9l0.3,7
		l1.3,6.5l0.3,0.7l-5.4,0.2l-9.1,0.8l-7.3,1.2l-5.4,1.5l-1,0.5l-2.3,0.6l-1.3,1.2l-10.1,43.9l-0.8,10.6l1.1-0.5L154,288.1z
		 M548.7,278.3l1-6.2l1.8-5.4l2.5-4.5l2.9-3l0.2-0.3l3.2-2l3.6-0.7l3.5,0.6l0.3,0.1l3.4,2l3.4,3.3l3.2,4.5l1.6,2.9l1.2,2.5l2.3,6.2
		l0.3,1.1l1,5.6l0.7,7l3.3,57.4l-4.2,34.2l-1.1,7l-1.6,6.7l-0.5,1.4l-2.2,4.8l-2.3,4l-0.9,1.4l-3.6,4.5l-3.4,3l-0.3,0.3l-3.9,2
		l-1,0.2l-2.6,0.5l-2.4-0.5l-1-0.2l-3.1-2l-0.5-0.7l-2.3-2.6l-2.2-4.5l-1.4-5.4l-0.4-4.8l-0.3-1.4l-0.5-6.7l0-0.4l0.3-6.6l3.8-34.2
		l-3-57.4l0.1-7l0.1-0.4l0.7-5.3L548.7,278.3z M453.9,278.3l2.3-6.2l3-4.4l0.7-1.1l4.5-4.5l5.4-3.3l6.1-2l1.8-0.2l4.4-0.5l6.3,0.7
		l6.3,2l1.8,1l3.9,2.3l5.2,4.5l4.5,5.4l3.7,6.2l0.5,1.1l1.7,5.6l0.9,7l3.1,57.4l-3.8,34.2l-1.3,7l-2.4,6.7l-0.8,1.4l-3.2,4.8
		l-4.9,5.4l-5.5,4.5l-3.4,1.9l-2.6,1.4l-6.5,2l-0.6,0.1l-6,0.6l-3.3-0.4l-2.9-0.3l-5.1-1.8l-0.6-0.2l-5.1-3.3l-3.8-4.1l-0.3-0.3
		l-3.2-5.4l-1.4-4.8l-0.6-1.4l-1.3-6.7l0.1-7l4.2-34.2L452,292l0.3-7l1.5-5.6L453.9,278.3z M200.2,207.9l1.1-4.8l1.7-4.6l2.3-4.2
		l2.7-3.7l3.1-3l3.3-2.3l3.4-1.4l3.4-0.5l3.2,0.5l2.9,1.4l2.5,2.3l2,3l1.5,3.7l0.8,4.2l0.2,4.6l-0.5,4.8l-1.1,4.8l-1.7,4.6l-2.3,4.2
		l-2.7,3.7l-3.1,3l-3.3,2.3l-3.4,1.4l-3.4,0.5l-3.2-0.5l-2.9-1.4l-2.5-2.3l-2-3l-1.5-3.7l-0.8-4.2l-0.2-4.6L200.2,207.9z"/>
	<polygon class="st6" points="61.7,400.7 63.7,402.9 66.4,405 69.9,407 73.9,408.8 78.3,410.3 82.9,411.5 87.6,412.2 92.1,412.6 
		96.4,412.5 100.1,412 103.3,411.1 105.7,409.9 107.3,408.3 109.6,401.6 109.9,400.9 114,391.1 114.2,390.8 112.8,392.2 
		110.5,393.2 107.5,393.9 103.9,394.1 99.8,393.9 95.3,393.4 90.7,392.4 86,391 81.6,389.3 77.9,387.6 77.6,387.4 77.5,387.5 
		74,385.4 71.2,383.3 69.1,381.1 67.9,379.1 67.6,377.2 68.1,375.5 65.4,382.1 64.4,384.6 60.3,396.5 60.5,398.6 	"/>
	<polygon class="st11" points="200.7,221.5 202.2,225.2 204.2,228.2 206.7,230.5 209.7,231.9 212.9,232.3 216.2,231.9 219.6,230.5 
		222.9,228.2 225.9,225.2 228.7,221.5 230.9,217.3 232.7,212.7 233.8,207.9 234.3,203.2 234.1,198.6 233.3,194.4 231.8,190.7 
		229.8,187.6 227.2,185.4 224.3,184 221.1,183.5 217.8,184 214.4,185.4 211.1,187.6 208,190.7 205.3,194.4 203.1,198.6 201.3,203.2 
		200.2,207.9 199.7,212.7 199.9,217.3 	"/>
	<polygon class="st13" points="251,73.7 250.5,76.9 249.7,81.5 248.6,88 248.2,89.9 245.8,104.1 241.5,129.4 239.9,139 234.1,173 
		237.4,174 238.3,174.2 242.8,176.4 246.7,179.8 249,183.3 249.8,184.5 252,190.2 253.3,196.7 253.6,203.7 253.6,204.1 252.9,210.9 
		258.6,210.9 276.1,211.4 294.6,212.2 313.8,213.3 333.6,214.8 339.6,215.3 353.9,215.9 374.4,217 395,218.5 415.5,220.2 
		428.2,221.5 435.7,221.8 455.2,222.8 474.1,224.2 484.7,225.1 492,225.1 508.8,225.5 524.3,226.2 538.1,225.5 550.5,225.1 
		554.8,225.1 560.9,224.2 569.5,222.8 576.3,221.8 578.1,221.5 580.9,220.2 583.6,218.5 584.3,217 581.3,204.1 552.9,139 
		519.4,89.9 512.9,84.4 506.7,79.2 499.1,72.8 487.1,62.6 457,49.4 430.2,42.6 430,42.6 429.2,42.6 412.1,40.6 427.8,42.6 
		406.1,39.9 412.1,40.6 430,42.6 423.2,41.8 407.4,39.9 374.4,39.1 341.5,39.9 325.7,41.8 318.9,42.6 336.8,40.6 342.8,39.9 
		321,42.6 336.8,40.6 319.7,42.6 318.9,42.6 318.6,42.6 291.8,49.4 261.7,62.6 251.4,71.3 251.3,71.9 	"/>
	<polygon class="st13" points="168.1,215.3 169.1,214.8 174.4,213.3 181.6,212.2 190.5,211.4 190.8,211.4 191.1,208.4 191.2,207.9 
		191.5,206.5 192.1,204.1 192.2,203.5 192.9,200.6 195.6,193.6 197.2,190.5 199,187.1 203.2,181.4 207.9,176.7 213,173.3 213.7,173 
		218.2,171.1 222.6,171.1 228,139 228.9,134 232.3,113.6 234.8,98.9 236.4,89.9 236.5,89.2 237.1,85.7 237.4,83.7 237.5,83.1 
		229.4,89.9 196,139 167.6,204.1 164.6,217 165.9,215.9 	"/>
</g>
</svg>
