<!-- Generator: Adobe Illustrator 19.2.1, SVG Export Plug-In  -->
<svg version="1.1"
	 xmlns="http://www.w3.org/2000/svg" xmlns:xlink="http://www.w3.org/1999/xlink" xmlns:a="http://ns.adobe.com/AdobeSVGViewerExtensions/3.0/"
	 x="0px" y="0px" width="396.5px" height="658.8px" viewBox="0 0 396.5 658.8"
	 style="overflow:scroll;enable-background:new 0 0 396.5 658.8;" xml:space="preserve">
<style type="text/css">
	.st0{opacity:9.000000e-002;fill:url(#SVGID_1_);}
	.st1{opacity:9.000000e-002;fill:url(#SVGID_2_);}
	.st2{opacity:9.000000e-002;fill:url(#SVGID_3_);}
	.st3{opacity:9.000000e-002;fill:url(#SVGID_4_);}
	.st4{opacity:9.000000e-002;fill:url(#SVGID_5_);}
	.st5{opacity:9.000000e-002;fill:url(#SVGID_6_);}
	.st6{opacity:9.000000e-002;fill:url(#SVGID_7_);}
	.st7{opacity:9.000000e-002;fill:url(#SVGID_8_);}
	.st8{opacity:9.000000e-002;fill:url(#SVGID_9_);}
	.st9{opacity:9.000000e-002;fill:url(#SVGID_10_);}
	.st10{opacity:9.000000e-002;fill:url(#SVGID_11_);}
	.st11{opacity:9.000000e-002;fill:url(#SVGID_12_);}
	.st12{opacity:9.000000e-002;fill:url(#SVGID_13_);}
	.st13{opacity:9.000000e-002;fill:url(#SVGID_14_);}
	.st14{opacity:9.000000e-002;fill:url(#SVGID_15_);}
	.st15{opacity:9.000000e-002;fill:url(#SVGID_16_);}
</style>
<defs>
</defs>
<g>
	<linearGradient id="SVGID_1_" gradientUnits="userSpaceOnUse" x1="0" y1="153.1483" x2="396.5209" y2="153.1483">
		<stop  offset="0" style="stop-color:#93D0C3"/>
		<stop  offset="1" style="stop-color:#BBD2AE"/>
	</linearGradient>
	<polygon class="st0" points="167.4,8 0,296.5 396.5,306.3 224.2,14.1 214.2,6.1 182.5,0 	"/>
	<linearGradient id="SVGID_2_" gradientUnits="userSpaceOnUse" x1="6.4701" y1="188.3392" x2="387.8876" y2="188.3392">
		<stop  offset="0" style="stop-color:#93D0C3"/>
		<stop  offset="1" style="stop-color:#BBD2AE"/>
	</linearGradient>
	<polygon class="st1" points="167.4,40.9 6.5,343.8 387.9,343.8 224.2,47 214.2,39 182.5,32.9 	"/>
	<linearGradient id="SVGID_3_" gradientUnits="userSpaceOnUse" x1="24.0504" y1="234.1922" x2="365.5697" y2="234.1922">
		<stop  offset="0" style="stop-color:#93D0C3"/>
		<stop  offset="1" style="stop-color:#BBD2AE"/>
	</linearGradient>
	<polygon class="st2" points="167.4,92.4 24.1,381.1 365.6,384 224.2,98.5 214.2,90.5 182.5,84.4 	"/>
	<linearGradient id="SVGID_4_" gradientUnits="userSpaceOnUse" x1="34.4997" y1="271.3185" x2="354.23" y2="271.3185">
		<stop  offset="0" style="stop-color:#93D0C3"/>
		<stop  offset="1" style="stop-color:#BBD2AE"/>
	</linearGradient>
	<polygon class="st3" points="167.4,142.9 34.5,405.6 354.2,407.8 224.2,148.9 214.2,140.9 182.5,134.8 	"/>
	<linearGradient id="SVGID_5_" gradientUnits="userSpaceOnUse" x1="51.0279" y1="312.639" x2="337.5166" y2="312.639">
		<stop  offset="0" style="stop-color:#93D0C3"/>
		<stop  offset="1" style="stop-color:#BBD2AE"/>
	</linearGradient>
	<polygon class="st4" points="176.5,192.2 51,439.6 337.5,441.2 233.3,198.2 223.3,190.2 191.6,184.1 	"/>
	<linearGradient id="SVGID_6_" gradientUnits="userSpaceOnUse" x1="71.9765" y1="363.6891" x2="321.0226" y2="363.6891">
		<stop  offset="0" style="stop-color:#93D0C3"/>
		<stop  offset="1" style="stop-color:#BBD2AE"/>
	</linearGradient>
	<polygon class="st5" points="176.9,245.5 72,489.5 321,489.9 233.7,251.5 223.7,243.5 192,237.4 	"/>
	<linearGradient id="SVGID_7_" gradientUnits="userSpaceOnUse" x1="86.1458" y1="414.5775" x2="307.2362" y2="414.5775">
		<stop  offset="0" style="stop-color:#93D0C3"/>
		<stop  offset="1" style="stop-color:#BBD2AE"/>
	</linearGradient>
	<polygon class="st6" points="173.8,290.4 86.1,546.8 307.2,546.7 230.7,296.4 220.6,288.4 188.9,282.3 	"/>
	<linearGradient id="SVGID_8_" gradientUnits="userSpaceOnUse" x1="126.4559" y1="493.8788" x2="271.2233" y2="493.8788">
		<stop  offset="0" style="stop-color:#93D0C3"/>
		<stop  offset="1" style="stop-color:#BBD2AE"/>
	</linearGradient>
	<polygon class="st7" points="176.9,337 126.5,651.8 271.2,658.8 233.7,343.1 223.7,335.1 192,329 	"/>
</g>
</svg>
