<!-- Generator: Adobe Illustrator 19.2.1, SVG Export Plug-In  -->
<svg version="1.1"
	 xmlns="http://www.w3.org/2000/svg" xmlns:xlink="http://www.w3.org/1999/xlink" xmlns:a="http://ns.adobe.com/AdobeSVGViewerExtensions/3.0/"
	 x="0px" y="0px" width="191.5px" height="52.4px" viewBox="0 0 191.5 52.4"
	 style="overflow:scroll;enable-background:new 0 0 191.5 52.4;" xml:space="preserve">
<style type="text/css">
	.st0{fill:#A7B184;}
</style>
<defs>
</defs>
<g>
	<g>
		<path class="st0" d="M137.6,28.8c3.8-6.1,10.6-11,17.5-13.3l-6.6-0.5c-3.3-0.2-7.6,2.2-9.5,5.3l-10.1,16.4c-2,3.2-0.9,5.9,2.4,6.1
			l6.6,0.5C134.3,40.4,133.9,34.9,137.6,28.8z"/>
		<path class="st0" d="M176.7,17.1l-6.6-0.5c3.7,3,4.1,8.5,0.3,14.5s-10.6,11-17.5,13.3l6.6,0.5c3.3,0.2,7.6-2.2,9.5-5.3l10.1-16.4
			C181.1,20.1,180,17.3,176.7,17.1z"/>
		<path class="st0" d="M185.9,10.8l-38.6-2.7c-5.5-0.4-12.6,3.6-15.9,8.8l-13.9,22.4c-3.3,5.3-1.5,9.9,4,10.2l38.6,2.7
			c5.5,0.4,12.6-3.6,15.9-8.8l13.9-22.4C193.2,15.8,191.4,11.2,185.9,10.8z M171.6,39.7c-2.8,4.5-8.9,7.9-13.6,7.6l-28.1-2
			c-4.7-0.3-6.3-4.3-3.5-8.8l10.1-16.4c2.8-4.5,8.9-7.9,13.6-7.6l28.1,2c4.7,0.3,6.3,4.3,3.5,8.8L171.6,39.7z"/>
		<g>
			<path class="st0" d="M161.8,17.5c-7.2-0.5-16.5,4.7-20.8,11.6c-4.3,6.9-1.9,12.9,5.3,13.4c7.2,0.5,16.5-4.7,20.8-11.6
				C171.3,24,168.9,18,161.8,17.5z M157.8,29.8c-2.2-0.2-2.9-2-1.6-4.1s4.1-3.7,6.3-3.5c2.2,0.2,2.9,2,1.6,4.1
				S159.9,29.9,157.8,29.8z"/>
		</g>
	</g>
	<g>
		<polygon class="st0" points="123.9,24 72.5,20.5 63.5,35 114.9,38.6 		"/>
	</g>
	<g>
		<path class="st0" d="M21.8,20.7c3.8-6.1,10.6-11,17.5-13.3L32.7,7c-3.3-0.2-7.6,2.2-9.5,5.3L13,28.7c-2,3.2-0.9,5.9,2.4,6.1
			l6.6,0.5C18.4,32.3,18,26.8,21.8,20.7z"/>
		<path class="st0" d="M60.8,9l-6.6-0.5c3.7,3,4.1,8.5,0.3,14.5c-3.8,6.1-10.6,11-17.5,13.3l6.6,0.5c3.3,0.2,7.6-2.2,9.5-5.3
			l10.1-16.4C65.2,12,64.1,9.2,60.8,9z"/>
		<path class="st0" d="M70,2.7L31.4,0c-5.5-0.4-12.6,3.6-15.9,8.8L1.6,31.3c-3.3,5.3-1.5,9.9,4,10.2l38.6,2.7
			c5.5,0.4,12.6-3.6,15.9-8.8L74,13C77.3,7.7,75.5,3.1,70,2.7z M55.7,31.6c-2.8,4.5-8.9,7.9-13.6,7.6l-28.1-2
			c-4.7-0.3-6.3-4.3-3.5-8.8l10.1-16.4c2.8-4.5,8.9-7.9,13.6-7.6l28.1,2c4.7,0.3,6.3,4.3,3.5,8.8L55.7,31.6z"/>
		<g>
			<path class="st0" d="M45.9,9.4C38.7,8.9,29.4,14.1,25.1,21c-4.3,6.9-1.9,12.9,5.3,13.4c7.2,0.5,16.5-4.7,20.8-11.6
				C55.4,15.9,53.1,9.9,45.9,9.4z M41.9,21.7c-2.2-0.2-2.9-2-1.6-4.1c1.3-2.1,4.1-3.7,6.3-3.5c2.2,0.2,2.9,2,1.6,4.1
				C46.9,20.3,44.1,21.8,41.9,21.7z"/>
		</g>
	</g>
</g>
</svg>
